<svg width="64" height="64" viewBox="0 0 64 64" fill="none" xmlns="http://www.w3.org/2000/svg">
<path fill-rule="evenodd" clip-rule="evenodd" d="M55.7 51.1799L50.7 36.1799L59 52.4299V58.9999H6V52.4099L14.3 35.9199L9.29999 51.1799H55.7Z" fill="url(#paint0_linear_6488_8137)"/>
<path d="M58.88 52.4099H6V58.9999H58.88V52.4099Z" fill="#BFBFBF"/>
<path d="M32.5 47.4501C38.3348 47.4501 43.9305 45.1322 48.0563 41.0064C52.1821 36.8806 54.5 31.2848 54.5 25.4501C54.4736 19.6327 52.1441 14.0625 48.0211 9.95831C43.8982 5.85412 38.3175 3.54999 32.5 3.55005C26.6825 3.54999 21.1018 5.85412 16.9789 9.95831C12.8559 14.0625 10.5264 19.6327 10.5 25.4501C10.5158 31.28 12.8387 36.8665 16.9611 40.9889C21.0835 45.1113 26.6701 47.4342 32.5 47.4501V47.4501Z" fill="url(#paint1_radial_6488_8137)"/>
<defs>
<linearGradient id="paint0_linear_6488_8137" x1="32.51" y1="58.5699" x2="32.45" y2="36.0299" gradientUnits="userSpaceOnUse">
<stop offset="0.39" stop-color="#E6E6E6"/>
<stop offset="1" stop-color="#404040"/>
</linearGradient>
<radialGradient id="paint1_radial_6488_8137" cx="0" cy="0" r="1" gradientUnits="userSpaceOnUse" gradientTransform="translate(35.0917 21.0742) scale(31.3017)">
<stop stop-color="white"/>
<stop offset="0.31" stop-color="#B3B3B3"/>
<stop offset="0.64" stop-color="#6A6A6A"/>
<stop offset="0.79" stop-color="#4D4D4D"/>
<stop offset="1" stop-color="#666666"/>
</radialGradient>
</defs>
</svg>
