<svg width="64" height="64" viewBox="0 0 64 64" fill="none" xmlns="http://www.w3.org/2000/svg">
<path d="M54.29 8C54.7427 8.00262 55.1762 8.18363 55.4963 8.50375C55.8164 8.82387 55.9974 9.25728 56 9.70999V54.29C55.9974 54.7427 55.8164 55.1761 55.4963 55.4962C55.1762 55.8164 54.7427 55.9974 54.29 56H45V43C45.0321 42.4663 44.9506 41.932 44.7609 41.4321C44.5713 40.9323 44.2777 40.4783 43.8997 40.1003C43.5216 39.7223 43.0677 39.4287 42.5679 39.2391C42.068 39.0494 41.5337 38.9679 41 39C37 39 35 44 29 44C23 44 19.29 39.54 19.29 32C19.29 24.46 23 20 29 20C35 20 36 25 40 25C42.47 25 45 23.32 45 21V8H54.29ZM40 47C40 45.75 39 44 37 46C34.8328 48.015 31.9578 49.0931 29 49C22.14 49 15 43 15 32C15 21 22.14 15 29 15C31.9578 14.9069 34.8328 15.985 37 18C39 20 40 18.25 40 17V8H9.71002C9.25731 8.00262 8.82384 8.18363 8.50372 8.50375C8.1836 8.82387 8.00262 9.25728 8 9.70999V54.29C8.00262 54.7427 8.1836 55.1761 8.50372 55.4962C8.82384 55.8164 9.25731 55.9974 9.71002 56H40V47Z" fill="url(#paint0_linear_6488_8043)"/>
<path opacity="0.1" d="M54.29 9.5C54.3449 9.50244 54.3969 9.52534 54.4358 9.56421C54.4747 9.60307 54.4976 9.65508 54.5 9.70999V54.29C54.4976 54.3449 54.4747 54.3969 54.4358 54.4358C54.3969 54.4747 54.3449 54.4976 54.29 54.5H46.5V43C46.5342 42.2687 46.4154 41.5382 46.1511 40.8554C45.8868 40.1727 45.4829 39.5526 44.9651 39.0349C44.4474 38.5172 43.8273 38.1132 43.1445 37.8489C42.4618 37.5846 41.7313 37.4658 41 37.5C38.72 37.5 37 38.72 35.39 39.91C33.55 41.24 31.82 42.5 29 42.5C23.78 42.5 20.79 38.67 20.79 32C20.79 25.33 23.79 21.5 29 21.5C31.75 21.5 33.2 22.72 34.73 24.02C36.1 25.18 37.65 26.5 40 26.5C43.14 26.5 46.5 24.29 46.5 21V9.5H54.29ZM38.5 9.5V17C38.5104 17.0964 38.5104 17.1936 38.5 17.29C38.3595 17.1818 38.2259 17.0649 38.1 16.94C36.8849 15.7949 35.4554 14.9014 33.8936 14.311C32.3318 13.7206 30.6687 13.445 29 13.5C21.49 13.5 13.5 19.98 13.5 32C13.5 44.02 21.5 50.5 29 50.5C30.6621 50.5497 32.3177 50.2715 33.8722 49.6812C35.4267 49.091 36.8497 48.2003 38.06 47.06C38.1832 46.9322 38.317 46.8151 38.46 46.71C38.4704 46.8064 38.4704 46.9036 38.46 47V54.5H9.66998C9.61507 54.4976 9.5631 54.4747 9.52423 54.4358C9.48537 54.3969 9.46247 54.3449 9.46002 54.29V9.70999C9.46247 9.65508 9.48537 9.60307 9.52423 9.56421C9.5631 9.52534 9.61507 9.50244 9.66998 9.5H38.46H38.5ZM54.25 8H45V21C45 23.32 42.47 25 40 25C36 25 35 20 29 20C23 20 19.29 24.46 19.29 32C19.29 39.54 23 44 29 44C35 44 37 39 41 39C41.5337 38.9679 42.068 39.0494 42.5679 39.2391C43.0677 39.4287 43.5216 39.7223 43.8997 40.1003C44.2777 40.4783 44.5713 40.9323 44.7609 41.4321C44.9506 41.932 45.0321 42.4663 45 43V56H54.29C54.7427 55.9974 55.1762 55.8164 55.4963 55.4962C55.8164 55.1761 55.9974 54.7427 56 54.29V9.70999C55.9974 9.25728 55.8164 8.82387 55.4963 8.50375C55.1762 8.18363 54.7427 8.00262 54.29 8H54.25ZM40 8H9.71002C9.25731 8.00262 8.82384 8.18363 8.50372 8.50375C8.1836 8.82387 8.00262 9.25728 8 9.70999V54.29C8.00262 54.7427 8.1836 55.1761 8.50372 55.4962C8.82384 55.8164 9.25731 55.9974 9.71002 56H40V47C40 46.16 39.55 45.09 38.64 45.09C37.9953 45.167 37.4065 45.4937 37 46C34.8328 48.015 31.9578 49.0931 29 49C22.14 49 15 43 15 32C15 21 22.14 15 29 15C31.9578 14.9069 34.8328 15.985 37 18C37.4065 18.5063 37.9953 18.833 38.64 18.91C39.55 18.91 40 17.84 40 17V8Z" fill="white"/>
<path opacity="0.1" d="M54.29 9.5C54.3449 9.50244 54.3969 9.52534 54.4358 9.56421C54.4747 9.60307 54.4976 9.65508 54.5 9.70999V54.29C54.4976 54.3449 54.4747 54.3969 54.4358 54.4358C54.3969 54.4747 54.3449 54.4976 54.29 54.5H46.5V43C46.5342 42.2687 46.4154 41.5382 46.1511 40.8554C45.8868 40.1727 45.4829 39.5526 44.9651 39.0349C44.4474 38.5172 43.8273 38.1132 43.1445 37.8489C42.4618 37.5846 41.7313 37.4658 41 37.5C38.72 37.5 37 38.72 35.39 39.91C33.55 41.24 31.82 42.5 29 42.5C23.78 42.5 20.79 38.67 20.79 32C20.79 25.33 23.79 21.5 29 21.5C31.75 21.5 33.2 22.72 34.73 24.02C36.1 25.18 37.65 26.5 40 26.5C43.14 26.5 46.5 24.29 46.5 21V9.5H54.29ZM38.5 9.5V17C38.5104 17.0964 38.5104 17.1936 38.5 17.29C38.3595 17.1818 38.2259 17.0649 38.1 16.94C36.8849 15.7949 35.4554 14.9014 33.8936 14.311C32.3318 13.7206 30.6687 13.445 29 13.5C21.49 13.5 13.5 19.98 13.5 32C13.5 44.02 21.5 50.5 29 50.5C30.6621 50.5497 32.3177 50.2715 33.8722 49.6812C35.4267 49.091 36.8497 48.2003 38.06 47.06C38.1832 46.9322 38.317 46.8151 38.46 46.71C38.4704 46.8064 38.4704 46.9036 38.46 47V54.5H9.66998C9.61507 54.4976 9.5631 54.4747 9.52423 54.4358C9.48537 54.3969 9.46247 54.3449 9.46002 54.29V9.70999C9.46247 9.65508 9.48537 9.60307 9.52423 9.56421C9.5631 9.52534 9.61507 9.50244 9.66998 9.5H38.46H38.5ZM54.25 8H45V21C45 23.32 42.47 25 40 25C36 25 35 20 29 20C23 20 19.29 24.46 19.29 32C19.29 39.54 23 44 29 44C35 44 37 39 41 39C41.5337 38.9679 42.068 39.0494 42.5679 39.2391C43.0677 39.4287 43.5216 39.7223 43.8997 40.1003C44.2777 40.4783 44.5713 40.9323 44.7609 41.4321C44.9506 41.932 45.0321 42.4663 45 43V56H54.29C54.7427 55.9974 55.1762 55.8164 55.4963 55.4962C55.8164 55.1761 55.9974 54.7427 56 54.29V9.70999C55.9974 9.25728 55.8164 8.82387 55.4963 8.50375C55.1762 8.18363 54.7427 8.00262 54.29 8H54.25ZM40 8H9.71002C9.25731 8.00262 8.82384 8.18363 8.50372 8.50375C8.1836 8.82387 8.00262 9.25728 8 9.70999V54.29C8.00262 54.7427 8.1836 55.1761 8.50372 55.4962C8.82384 55.8164 9.25731 55.9974 9.71002 56H40V47C40 46.16 39.55 45.09 38.64 45.09C37.9953 45.167 37.4065 45.4937 37 46C34.8328 48.015 31.9578 49.0931 29 49C22.14 49 15 43 15 32C15 21 22.14 15 29 15C31.9578 14.9069 34.8328 15.985 37 18C37.4065 18.5063 37.9953 18.833 38.64 18.91C39.55 18.91 40 17.84 40 17V8Z" fill="white"/>
<defs>
<linearGradient id="paint0_linear_6488_8043" x1="48.08" y1="4.15" x2="15.92" y2="59.85" gradientUnits="userSpaceOnUse">
<stop stop-color="#F2F2F2"/>
<stop offset="1" stop-color="#4F4F4F"/>
</linearGradient>
</defs>
</svg>
