<svg width="16" height="16" viewBox="0 0 16 16" fill="none" xmlns="http://www.w3.org/2000/svg">
<path opacity="0.5" fill-rule="evenodd" clip-rule="evenodd" d="M14 14L13 10L16 14V16H0V14L3 10L2 14H4H11H14Z" fill="white"/>
<path opacity="0.5" d="M8 0C6.4087 0 4.8826 0.632136 3.75739 1.75735C2.63217 2.88257 2 4.4087 2 6C2 7.5913 2.63217 9.11743 3.75739 10.2426C4.8826 11.3679 6.4087 12 8 12C9.5913 12 11.1174 11.3679 12.2426 10.2426C13.3679 9.11743 14 7.5913 14 6C14 4.4087 13.3679 2.88257 12.2426 1.75735C11.1174 0.632136 9.5913 0 8 0V0Z" fill="white"/>
<path d="M8.43005 10.3301C7.16762 10.3301 5.95688 9.82856 5.06421 8.93588C4.17154 8.04321 3.67004 6.8325 3.67004 5.57007C3.66885 4.34319 4.14145 3.16323 4.9892 2.27635C5.83694 1.38948 6.99435 0.864185 8.22003 0.810059H8.00006C6.62094 0.810059 5.29831 1.35791 4.32312 2.3331C3.34793 3.30829 2.80005 4.63093 2.80005 6.01006C2.80005 7.38918 3.34793 8.71182 4.32312 9.68701C5.29831 10.6622 6.62094 11.2101 8.00006 11.2101C9.37919 11.2101 10.7018 10.6622 11.677 9.68701C12.6522 8.71182 13.2001 7.38918 13.2001 6.01006C13.2001 5.94006 13.2001 5.87005 13.2001 5.79005C13.1434 7.0157 12.6156 8.17211 11.7268 9.01801C10.8381 9.8639 9.657 10.334 8.43005 10.3301V10.3301Z" fill="white"/>
<path d="M10.0401 5.16001C10.7028 5.16001 11.2401 4.62275 11.2401 3.96001C11.2401 3.29727 10.7028 2.76001 10.0401 2.76001C9.37735 2.76001 8.84009 3.29727 8.84009 3.96001C8.84009 4.62275 9.37735 5.16001 10.0401 5.16001Z" fill="white"/>
</svg>
