<?xml version="1.0" encoding="utf-8"?>
<!-- Generator: Adobe Illustrator 24.3.0, SVG Export Plug-In . SVG Version: 6.00 Build 0)  -->
<svg version="1.1" id="AiController_x5F_64" xmlns="http://www.w3.org/2000/svg" xmlns:xlink="http://www.w3.org/1999/xlink"
	 x="0px" y="0px" viewBox="0 0 64 64" style="enable-background:new 0 0 64 64;" xml:space="preserve">
<style type="text/css">
	.st0{fill:none;}
	.st1{fill:url(#SVGID_1_);}
	.st2{fill:url(#SVGID_2_);}
	.st3{opacity:0.5;fill:url(#SVGID_3_);enable-background:new    ;}
</style>
<rect x="0" class="st0" width="64" height="64"/>
<radialGradient id="SVGID_1_" cx="31.935" cy="33.7693" r="16.2969" gradientUnits="userSpaceOnUse">
	<stop  offset="0.3452" style="stop-color:#F2F2F2"/>
	<stop  offset="1" style="stop-color:#999999"/>
</radialGradient>
<path class="st1" d="M32,37.6c5.5,0,9.9-4.4,9.9-9.9s-4.4-9.9-9.9-9.9s-9.9,4.4-9.9,9.9S26.5,37.6,32,37.6z"/>
<linearGradient id="SVGID_2_" gradientUnits="userSpaceOnUse" x1="32.2301" y1="41.6766" x2="31.913" y2="62.4461">
	<stop  offset="0.3452" style="stop-color:#F2F2F2"/>
	<stop  offset="1" style="stop-color:#999999"/>
</linearGradient>
<path class="st2" d="M39.2,57.5H24.8c-0.5,0-0.9-0.5-0.7-1l6-15.1c0.1-0.3,0.4-0.5,0.7-0.5h2.3c0.3,0,0.6,0.2,0.7,0.5l6,15.1
	C40.1,57,39.7,57.5,39.2,57.5z"/>
<radialGradient id="SVGID_3_" cx="32" cy="26.3691" r="20.5473" gradientUnits="userSpaceOnUse">
	<stop  offset="0.7208" style="stop-color:#F2F2F2"/>
	<stop  offset="1" style="stop-color:#999999"/>
</radialGradient>
<path class="st3" d="M32,6.5c-11.6,0-21.2,9.6-21.2,21.2c0,7.9,4.3,14.9,10.9,18.5l2-4.6c-4.6-3-7.6-7.9-7.6-13.6
	c0-8.9,7.3-15.9,15.9-15.9c8.6,0,15.9,7.3,15.9,15.9c0,5.6-3,10.9-7.6,13.6l2,4.6c6.3-3.6,10.9-10.6,10.9-18.5
	C53.2,16.1,43.6,6.5,32,6.5z"/>
</svg>
