<svg width="16" height="16" viewBox="0 0 16 16" fill="none" xmlns="http://www.w3.org/2000/svg">
<path d="M8 10C9.65685 10 11 8.65685 11 7C11 5.34315 9.65685 4 8 4C6.34315 4 5 5.34315 5 7C5 8.65685 6.34315 10 8 10Z" fill="white"/>
<path d="M10.5 16H5.5L7.5 11H8.5L10.5 16Z" fill="white"/>
<path opacity="0.5" d="M8.0001 0.599609C4.5001 0.599609 1.6001 3.49951 1.6001 6.99951C1.6001 9.39951 2.9001 11.4996 4.9001 12.5996L5.5001 11.1995C4.1001 10.2995 3.2001 8.79961 3.2001 7.09961C3.2001 4.39961 5.4001 2.29956 8.0001 2.29956C10.6001 2.29956 12.8001 4.49961 12.8001 7.09961C12.8001 8.79961 11.9001 10.3995 10.5001 11.1995L11.1001 12.5996C13.0001 11.4996 14.4001 9.39951 14.4001 6.99951C14.4001 3.49951 11.5001 0.599609 8.0001 0.599609Z" fill="white"/>
</svg>
