<?xml version="1.0" encoding="utf-8"?>
<!-- Generator: Adobe Illustrator 24.3.0, SVG Export Plug-In . SVG Version: 6.00 Build 0)  -->
<svg version="1.1" id="AimOffsetBlendSpace1D_x5F_64"
	 xmlns="http://www.w3.org/2000/svg" xmlns:xlink="http://www.w3.org/1999/xlink" x="0px" y="0px" viewBox="0 0 64 64"
	 style="enable-background:new 0 0 64 64;" xml:space="preserve">
<style type="text/css">
	.st0{fill:none;}
	.st1{fill:url(#SVGID_1_);}
	.st2{fill:#FFFFFF;enable-background:new    ;}
	.st3{opacity:0.5;fill:#FFFFFF;enable-background:new    ;}
	.st4{fill:none;stroke:#B2B2B2;stroke-width:2;stroke-miterlimit:10;}
	.st5{fill:#FFFFFF;stroke:#333333;stroke-width:0.5;stroke-miterlimit:10;}
	.st6{font-family:'Roboto-Black';}
	.st7{font-size:15.784px;}
</style>
<g>
	<rect x="0" class="st0" width="64" height="64"/>
	<g>
		<radialGradient id="SVGID_1_" cx="31.9667" cy="32.0333" r="19.9193" gradientUnits="userSpaceOnUse">
			<stop  offset="0" style="stop-color:#666666"/>
			<stop  offset="1" style="stop-color:#333333"/>
		</radialGradient>
		<circle class="st1" cx="32" cy="32" r="19.9"/>
		<g>
			<path class="st2" d="M54.7,31.1H32.9V9.3l-0.9-2l-0.9,2v21.8H9.3l-2,0.9l2,0.9h21.8v21.8l0.9,2l0.9-2V32.9h21.8l2-0.9L54.7,31.1z
				"/>
			<path class="st3" d="M29.5,50.7v-5c-5.5-1-10.1-5.5-11.1-11.1h-5C14.3,43.1,20.9,49.7,29.5,50.7z"/>
			<path class="st3" d="M13.3,29.5h5c1-5.5,5.5-10.1,11.1-11.1v-5C20.9,14.3,14.3,20.9,13.3,29.5z"/>
			<path class="st3" d="M50.7,34.5h-5c-1,5.5-5.5,10.1-11.1,11.1v5C43.1,49.7,49.7,43.1,50.7,34.5z"/>
			<path class="st3" d="M34.5,13.3v5c5.5,1,10.1,5.5,11.1,11.1h5C49.7,20.9,43.1,14.3,34.5,13.3z"/>
		</g>
	</g>
	<path class="st4" d="M35.7,7.3c0,0,16.9,0.3,21,19"/>
	<path class="st4" d="M45.5,4.7c0,0,8.8,1.7,12.7,11.7"/>
	<g>
		<text transform="matrix(1 0 0 1 38.7442 56.6943)" class="st5 st6 st7">1D</text>
	</g>
</g>
</svg>
