<svg width="16" height="16" viewBox="0 0 16 16" fill="none" xmlns="http://www.w3.org/2000/svg">
<path d="M15 8H8V1H7V8H0V9H7V16H8V9H15V8Z" fill="white"/>
<path opacity="0.5" d="M7.5 13.5C10.2614 13.5 12.5 11.2614 12.5 8.5C12.5 5.73858 10.2614 3.5 7.5 3.5C4.73858 3.5 2.5 5.73858 2.5 8.5C2.5 11.2614 4.73858 13.5 7.5 13.5Z" stroke="white" stroke-miterlimit="10"/>
<path opacity="0.5" d="M13.2 2.8C12.4 2 11.4 1.4 10.4 1L10 1.9C10.9 2.2 11.8 2.8 12.5 3.5C13.2 4.2 13.8 5.1 14.1 6L15 5.6C14.6 4.6 14 3.6 13.2 2.8Z" fill="white"/>
<path opacity="0.5" d="M14.9002 1.1C14.4002 0.6 13.8002 0.2 13.1002 0L12.7002 0.9C13.2002 1.1 13.7002 1.4 14.2002 1.8C14.7002 2.2 14.9002 2.7 15.1002 3.3L16.0002 2.9C15.8002 2.3 15.4002 1.7 14.9002 1.1Z" fill="white"/>
</svg>
