<?xml version="1.0" encoding="utf-8"?>
<!-- Generator: Adobe Illustrator 25.0.0, SVG Export Plug-In . SVG Version: 6.00 Build 0)  -->
<svg version="1.1" id="AmbientSound_x5F_64" xmlns="http://www.w3.org/2000/svg" xmlns:xlink="http://www.w3.org/1999/xlink"
	 x="0px" y="0px" viewBox="0 0 64 64" style="enable-background:new 0 0 64 64;" xml:space="preserve">
<style type="text/css">
	.st0{fill:url(#SVGID_1_);}
	.st1{fill:url(#SVGID_2_);}
	.st2{fill:url(#SVGID_3_);}
	.st3{fill:#7F7F7F;enable-background:new    ;}
	.st4{fill:#BFBFBF;enable-background:new    ;}
	.st5{fill:none;}
</style>
<g>
	<g>
		
			<linearGradient id="SVGID_1_" gradientUnits="userSpaceOnUse" x1="33.6151" y1="25.2336" x2="33.6497" y2="45.4798" gradientTransform="matrix(1 0 0 1 -16.325 -4.1507)">
			<stop  offset="0" style="stop-color:#808080"/>
			<stop  offset="0.508" style="stop-color:#D9D9D9"/>
			<stop  offset="1" style="stop-color:#808080"/>
		</linearGradient>
		<path class="st0" d="M23.2,41.3h-6.8c-2.8,0-5-2.3-5-5V26.1c0-2.8,2.3-5,5-5h6.8V41.3z"/>
		
			<linearGradient id="SVGID_2_" gradientUnits="userSpaceOnUse" x1="47.0329" y1="14.7645" x2="46.8819" y2="55.5358" gradientTransform="matrix(1 0 0 1 -16.325 -4.1507)">
			<stop  offset="0" style="stop-color:#808080"/>
			<stop  offset="0.5053" style="stop-color:#D7D8D9"/>
			<stop  offset="0.5421" style="stop-color:#D9D9D9"/>
			<stop  offset="1" style="stop-color:#808080"/>
		</linearGradient>
		<path class="st1" d="M35.8,51.2l-12.6-9.9V21.1l12.6-9.9c0.9-0.7,2.2-0.1,2.2,1.1v38C38,51.3,36.7,51.9,35.8,51.2z"/>
		
			<linearGradient id="SVGID_3_" gradientUnits="userSpaceOnUse" x1="34.9581" y1="35.3524" x2="39.5344" y2="35.3524" gradientTransform="matrix(1 0 0 1 -16.325 -4.1507)">
			<stop  offset="0" style="stop-color:#4D4D4D;stop-opacity:0"/>
			<stop  offset="0.9893" style="stop-color:#4D4D4D;stop-opacity:0.5"/>
		</linearGradient>
		<rect x="18.6" y="21.1" class="st2" width="4.6" height="20.2"/>
	</g>
	<g>
		<path class="st3" d="M42.4,13.5c6.7,4.2,10.2,11,10.2,17.7c0,6.6-3.5,13.5-10.2,17.7c4.2-5.7,6.3-11.6,6.3-17.7
			C48.7,25.1,46.6,19.1,42.4,13.5z"/>
		<path class="st4" d="M40.3,22.1c2.7,2.2,4.1,5.7,4.1,9.1c0,3.4-1.4,6.9-4.1,9.1C42,37.4,42,25,40.3,22.1z"/>
	</g>
	<rect x="0" class="st5" width="64" height="64"/>
</g>
</svg>
