<svg width="16" height="16" viewBox="0 0 16 16" fill="none" xmlns="http://www.w3.org/2000/svg">
<path opacity="0.5" d="M15.2002 9.49922H13.1002L12.1002 7.69922C12.1002 7.69922 12.3002 8.39922 12.1002 8.79922L11.7002 9.49922L12.2002 10.3992C12.3002 10.5992 12.5002 10.6992 12.9002 10.6992H15.3002C15.6002 10.6992 15.9002 10.3992 15.9002 10.0992C15.8002 9.79922 15.6002 9.49922 15.2002 9.49922Z" fill="white"/>
<path opacity="0.5" d="M7.7002 11.9992C7.4002 11.7992 7.1002 11.4992 7.0002 11.1992L6.0002 12.7992H3.8002C3.5002 12.7992 3.2002 13.0992 3.2002 13.3992C3.2002 13.6992 3.5002 13.9992 3.8002 13.9992H6.3002C6.5002 13.9992 6.8002 13.8992 6.9002 13.6992L7.8002 12.0992L7.7002 11.9992Z" fill="white"/>
<path fill-rule="evenodd" clip-rule="evenodd" d="M6.4001 8.29964L7.8001 6.69964L9.2001 7.39964L7.4001 10.3996C7.3001 10.8996 7.5001 11.3996 8.0001 11.6996L8.1001 11.7996L10.7001 13.2996V15.2996C10.7001 15.5996 11.0001 15.8996 11.3001 15.8996C11.6001 15.8996 11.9001 15.5996 11.9001 15.2996V12.8996C11.9001 12.6996 11.8001 12.4996 11.7001 12.3996C11.7001 12.3996 11.7001 12.3996 11.6001 12.3996C11.6001 12.3996 11.6001 12.3996 11.5001 12.3996L10.0001 11.3996L11.4001 8.99964L11.8001 8.29964C12.0001 7.99964 11.9001 7.49964 11.6001 7.19964L10.6001 6.59964L10.4001 6.49964C10.3001 6.49964 10.3001 6.39964 10.3001 6.39964L8.0001 5.29964C7.7001 5.09964 7.4001 5.29964 7.2001 5.49964L5.5001 7.39964C5.3001 7.69964 5.3001 8.09964 5.5001 8.29964C5.8001 8.49964 6.2001 8.49964 6.4001 8.29964Z" fill="white"/>
<path d="M12.8001 6.99961C13.739 6.99961 14.5001 6.23849 14.5001 5.29961C14.5001 4.36073 13.739 3.59961 12.8001 3.59961C11.8612 3.59961 11.1001 4.36073 11.1001 5.29961C11.1001 6.23849 11.8612 6.99961 12.8001 6.99961Z" fill="white"/>
<path fill-rule="evenodd" clip-rule="evenodd" d="M6.5 3.9C6.5 3.8 6.5 3.7 6.5 3.5C6.5 3.4 6.5 3.3 6.5 3.1L5.5 3C5.5 2.8 5.4 2.6 5.3 2.4L5.9 1.6C5.7 1.5 5.5 1.3 5.3 1.1L4.6 1.7C4.4 1.6 4.2 1.5 4 1.5L3.9 0.5C3.8 0.5 3.7 0.5 3.5 0.5C3.4 0.5 3.2 0.5 3.1 0.5L3 1.5C2.8 1.5 2.6 1.6 2.4 1.7L1.7 1.1C1.5 1.3 1.3 1.5 1.1 1.7L1.7 2.5C1.6 2.6 1.5 2.8 1.5 3L0.5 3.1C0.5 3.2 0.5 3.3 0.5 3.5C0.5 3.6 0.5 3.7 0.5 3.9L1.5 4C1.6 4.2 1.6 4.4 1.7 4.6L1.1 5.3C1.3 5.5 1.4 5.7 1.6 5.8L2.4 5.2C2.6 5.4 2.8 5.5 3 5.5L3.1 6.4C3.2 6.4 3.3 6.4 3.5 6.4C3.6 6.4 3.7 6.4 3.9 6.4L4 5.5C4.2 5.4 4.4 5.4 4.6 5.3L5.4 5.9C5.6 5.7 5.8 5.6 5.9 5.4L5.3 4.6C5.4 4.4 5.5 4.2 5.5 4L6.5 3.9ZM3.5 4.8C2.8 4.8 2.2 4.2 2.2 3.5C2.2 2.8 2.8 2.2 3.5 2.2C4.2 2.2 4.8 2.8 4.8 3.5C4.8 4.2 4.2 4.8 3.5 4.8Z" fill="white"/>
</svg>
