<svg width="16" height="16" viewBox="0 0 16 16" fill="none" xmlns="http://www.w3.org/2000/svg">
<path opacity="0.5" fill-rule="evenodd" clip-rule="evenodd" d="M16 14H12V11H16V14ZM4 14H0V11H4V14ZM10 14H6V11H10V14Z" fill="white"/>
<path d="M16 15H0V16H16V15Z" fill="white"/>
<path opacity="0.5" d="M12.6002 5.09922H10.8002L10.0002 3.69922C10.0002 3.69922 10.2002 4.19922 10.0002 4.59922L9.7002 5.09922L10.1002 5.79922C10.2002 5.99922 10.4002 6.09922 10.6002 6.09922H12.6002C12.9002 6.09922 13.1002 5.89922 13.1002 5.59922C13.1002 5.39922 12.9002 5.09922 12.6002 5.09922Z" fill="white"/>
<path opacity="0.5" d="M6.6001 7.1C6.3001 7 6.2001 6.7 6.1001 6.5L5.3001 7.7H3.6001C3.3001 7.7 3.1001 7.9 3.1001 8.2C3.1001 8.5 3.3001 8.7 3.6001 8.7H5.6001C5.8001 8.7 6.0001 8.6 6.1001 8.4L6.8001 7.2L6.6001 7.1Z" fill="white"/>
<path fill-rule="evenodd" clip-rule="evenodd" d="M5.6 4.20056L6.7 3.00056L7.8 3.50056L6.4 5.80056C6.3 6.20056 6.5 6.60056 6.9 6.80056H7L9 8.00056V9.70056C9 10.0006 9.2 10.2006 9.5 10.2006C9.8 10.2006 10 10.0006 10 9.70056V7.70056C10 7.60056 9.9 7.40056 9.8 7.30056L8.4 6.60056L9.5 4.80056L9.8 4.30056C10 3.90056 9.9 3.50056 9.7 3.40056L8.9 2.90056L8.7 2.80056H8.6L6.9 1.90056C6.7 1.80056 6.4 1.90056 6.2 2.10056L4.9 3.50056C4.7 3.70056 4.7 4.00056 4.9 4.20056C5.1 4.40056 5.4 4.40056 5.6 4.20056Z" fill="white"/>
<path d="M10.5998 3.19961C11.3178 3.19961 11.8998 2.61758 11.8998 1.89961C11.8998 1.18164 11.3178 0.599609 10.5998 0.599609C9.88183 0.599609 9.2998 1.18164 9.2998 1.89961C9.2998 2.61758 9.88183 3.19961 10.5998 3.19961Z" fill="white"/>
</svg>
