<svg width="16" height="16" viewBox="0 0 16 16" fill="none" xmlns="http://www.w3.org/2000/svg">
<path opacity="0.5" d="M9 11H16V15H9V11Z" fill="white"/>
<path d="M16 11H9V15H16V11Z" fill="white"/>
<path d="M14.9292 7.07184L8.44531 9.43164L8.95831 10.8412L15.4422 8.48139L14.9292 7.07184Z" fill="white"/>
<path opacity="0.5" d="M10.1001 5.59922C10.1001 5.89922 9.9001 6.09922 9.6001 6.09922H7.6001C7.4001 6.09922 7.2001 5.99922 7.1001 5.89922L6.7001 5.09922L7.0001 4.59922C7.2001 4.19922 7.0001 3.69922 7.0001 3.69922L7.8001 5.09922H9.6001C9.9001 5.09922 10.1001 5.39922 10.1001 5.59922ZM3.6001 7.09922C3.3001 6.99922 3.2001 6.69922 3.1001 6.49922L2.3001 7.69922H0.600098C0.300098 7.69922 0.100098 7.89922 0.100098 8.19922C0.100098 8.49922 0.300098 8.69922 0.600098 8.69922H2.6001C2.8001 8.69922 3.0001 8.59922 3.1001 8.39922L3.8001 7.19922L3.6001 7.09922Z" fill="white"/>
<path fill-rule="evenodd" clip-rule="evenodd" d="M1.9 4.19961C1.7 3.99961 1.7 3.69961 1.9 3.49961L3.2 1.99961C3.4 1.79961 3.6 1.69961 3.9 1.79961L5.7 2.69961H5.8L6 2.79961L6.8 3.19961C6.9 3.49961 7 3.89961 6.8 4.29961L6.5 4.79961L5.4 6.59961L6.7 7.29961C6.9 7.49961 7 7.59961 7 7.79961V9.79961C7 10.0996 6.8 10.2996 6.5 10.2996C6.2 10.1996 6 9.99961 6 9.69961V7.99961L4 6.89961H3.9C3.5 6.69961 3.4 6.29961 3.4 5.89961L4.8 3.49961L3.7 2.89961L2.6 4.19961C2.4 4.39961 2.1 4.39961 1.9 4.19961ZM7.6 0.599609C6.9 0.599609 6.3 1.19961 6.3 1.89961C6.3 2.59961 6.9 3.19961 7.6 3.19961C8.3 3.19961 8.9 2.59961 8.9 1.89961C8.9 1.19961 8.3 0.599609 7.6 0.599609Z" fill="white"/>
</svg>
