<?xml version="1.0" encoding="utf-8"?>
<!-- Generator: Adobe Illustrator 24.3.0, SVG Export Plug-In . SVG Version: 6.00 Build 0)  -->
<svg version="1.1" id="AnimMontage_x5F_64" xmlns="http://www.w3.org/2000/svg" xmlns:xlink="http://www.w3.org/1999/xlink" x="0px"
	 y="0px" viewBox="0 0 64 64" style="enable-background:new 0 0 64 64;" xml:space="preserve">
<style type="text/css">
	.st0{fill:url(#SVGID_1_);enable-background:new    ;}
	.st1{fill:url(#SVGID_2_);enable-background:new    ;}
	.st2{fill-rule:evenodd;clip-rule:evenodd;fill:url(#SVGID_3_);}
	.st3{fill:url(#SVGID_4_);}
	.st4{fill-rule:evenodd;clip-rule:evenodd;fill:url(#SVGID_5_);}
	.st5{fill-rule:evenodd;clip-rule:evenodd;fill:#333333;}
	.st6{fill-rule:evenodd;clip-rule:evenodd;fill:url(#SVGID_6_);}
	.st7{fill-rule:evenodd;clip-rule:evenodd;fill:url(#SVGID_7_);}
	.st8{fill:none;}
</style>
<g>
	<g>
		<linearGradient id="SVGID_1_" gradientUnits="userSpaceOnUse" x1="36.4746" y1="21.2996" x2="48.1374" y2="29.0748">
			<stop  offset="0" style="stop-color:#4D4D4D"/>
			<stop  offset="0.1624" style="stop-color:#808080"/>
			<stop  offset="1" style="stop-color:#B3B3B3"/>
		</linearGradient>
		<path class="st0" d="M46.8,25.8c0,0.4-0.3,0.7-0.7,0.7h-6.4c-0.8,0-1.3-0.3-1.6-0.8l-2.4-3.4v-1.6c0.5-1,1-2.2,1-2.2l3.4,5.2
			l6,0.7c0.4,0,0.7,0.4,0.7,0.8L46.8,25.8z"/>
		<linearGradient id="SVGID_2_" gradientUnits="userSpaceOnUse" x1="28.6301" y1="28.735" x2="14.7975" y2="34.8828">
			<stop  offset="0" style="stop-color:#4D4D4D"/>
			<stop  offset="0.1624" style="stop-color:#808080"/>
			<stop  offset="1" style="stop-color:#B3B3B3"/>
		</linearGradient>
		<path class="st1" d="M17.2,33.8c0,0.5,0.4,0.8,0.8,0.8h6.5c0.5,0,1-0.3,1.6-0.8l3.2-5.3l-0.9-1c-0.8-0.5-0.6-1.7-0.8-2.5l-3.8,6.4
			l-5.8,0.8c-0.4,0.1-0.7,0.4-0.7,0.8V33.8z"/>
		<linearGradient id="SVGID_3_" gradientUnits="userSpaceOnUse" x1="23.7926" y1="29.5964" x2="38.2639" y2="23.6275">
			<stop  offset="0" style="stop-color:#CCCCCC"/>
			<stop  offset="1" style="stop-color:#F2F2F2"/>
		</linearGradient>
		<path class="st2" d="M36,38.5c0.8,0.3,1.6-0.3,1.6-1.1l0-5.9c0-0.5-0.3-0.8-0.5-1L36.6,30l-3-2.2c-0.1-0.1-0.2-0.2-0.1-0.4
			l2.8-4.9c0,0,0,0,0,0L37,21c0.5-1,0.3-2-0.2-2.6c0,0-0.1,0-0.1-0.1l-2.3-1.3l-6-3.1c-0.8-0.3-1.6,0-2.1,0.5l-4.1,5.3
			c-0.3,0.4-0.3,1,0.1,1.3l0,0c0.4,0.3,0.9,0.3,1.3,0l4.3-3.9c0.1-0.1,0.2-0.1,0.3,0l2.7,1.3c0.1,0.1,0.2,0.3,0.1,0.4l-4,6.7
			c0,0,0,0.1,0,0.1c-0.2,1,0.2,2.4,1.2,2.9l0.3,0.2l5.9,3.3c0.1,0,0.1,0.1,0.1,0.2l0.5,5.1C35.2,37.9,35.5,38.3,36,38.5L36,38.5z"/>
		<radialGradient id="SVGID_4_" cx="39.6561" cy="13.959" r="3.9179" gradientUnits="userSpaceOnUse">
			<stop  offset="0" style="stop-color:#F2F2F2"/>
			<stop  offset="1" style="stop-color:#E6E6E6"/>
		</radialGradient>
		<path class="st3" d="M39.7,17.9c2.2,0,3.9-1.8,3.9-3.9c0-2.2-1.8-3.9-3.9-3.9c-2.2,0-3.9,1.8-3.9,3.9
			C35.7,16.1,37.5,17.9,39.7,17.9z"/>
	</g>
	<g>
		
			<linearGradient id="SVGID_5_" gradientUnits="userSpaceOnUse" x1="90.9233" y1="89.1949" x2="70.8436" y2="56.2984" gradientTransform="matrix(-4.901923e-07 1 -1 -4.901923e-07 109.3102 -36.5949)">
			<stop  offset="0" style="stop-color:#E6E6E6"/>
			<stop  offset="1" style="stop-color:#999999"/>
		</linearGradient>
		<path class="st4" d="M54.1,54l0-13.8H9.9l0,13.8L54.1,54z"/>
		<path class="st5" d="M45.7,51.8v-5c0-0.2,0.2-0.4,0.4-0.4l5,0c0.2,0,0.4,0.2,0.4,0.4l0,5c0,0.2-0.2,0.4-0.4,0.4l-5,0
			C45.9,52.2,45.7,52,45.7,51.8z"/>
		
			<linearGradient id="SVGID_6_" gradientUnits="userSpaceOnUse" x1="84.6097" y1="91.1514" x2="74.3612" y2="85.5241" gradientTransform="matrix(-4.901923e-07 1 -1 -4.901923e-07 109.3102 -36.5949)">
			<stop  offset="0" style="stop-color:#4D4D4D"/>
			<stop  offset="1" style="stop-color:#333333"/>
		</linearGradient>
		<path class="st6" d="M12.4,44.2l0-4h17.8l0,4c0,0.2-0.2,0.4-0.4,0.4l-17,0C12.6,44.6,12.4,44.4,12.4,44.2z"/>
		<path class="st5" d="M37.4,51.8v-5c0-0.2,0.2-0.4,0.4-0.4l5,0c0.2,0,0.4,0.2,0.4,0.4l0,5c0,0.2-0.2,0.4-0.4,0.4h-5
			C37.6,52.2,37.4,52,37.4,51.8z"/>
		<path class="st5" d="M29.1,51.8l0-5c0-0.2,0.2-0.4,0.4-0.4l5,0c0.2,0,0.4,0.2,0.4,0.4l0,5c0,0.2-0.2,0.4-0.4,0.4h-5
			C29.2,52.2,29.1,52,29.1,51.8z"/>
		<path class="st5" d="M20.7,51.8l0-5c0-0.2,0.2-0.4,0.4-0.4l5,0c0.2,0,0.4,0.2,0.4,0.4l0,5c0,0.2-0.2,0.4-0.4,0.4h-5
			C20.9,52.2,20.7,52,20.7,51.8z"/>
		<path class="st5" d="M12.4,51.8l0-5c0-0.2,0.2-0.4,0.4-0.4l5,0c0.2,0,0.4,0.2,0.4,0.4l0,5c0,0.2-0.2,0.4-0.4,0.4h-5
			C12.6,52.2,12.4,52,12.4,51.8z"/>
		
			<linearGradient id="SVGID_7_" gradientUnits="userSpaceOnUse" x1="84.4496" y1="69.7761" x2="74.33" y2="64.2195" gradientTransform="matrix(-4.901923e-07 1 -1 -4.901923e-07 109.3102 -36.5949)">
			<stop  offset="0" style="stop-color:#4D4D4D"/>
			<stop  offset="1" style="stop-color:#333333"/>
		</linearGradient>
		<path class="st7" d="M33.8,44l0-3.8h17.8l0,3.8c0,0.2-0.2,0.4-0.4,0.4l-17,0C33.9,44.4,33.8,44.2,33.8,44z"/>
	</g>
	<rect x="0" class="st8" width="64" height="64"/>
</g>
</svg>
