<?xml version="1.0" encoding="utf-8"?>
<!-- Generator: Adobe Illustrator 24.3.0, SVG Export Plug-In . SVG Version: 6.00 Build 0)  -->
<svg version="1.1" id="AnimationModifier_x5F_64" xmlns="http://www.w3.org/2000/svg" xmlns:xlink="http://www.w3.org/1999/xlink"
	 x="0px" y="0px" viewBox="0 0 64 64" style="enable-background:new 0 0 64 64;" xml:space="preserve">
<style type="text/css">
	.st0{fill:url(#SVGID_1_);enable-background:new    ;}
	.st1{fill:url(#SVGID_2_);enable-background:new    ;}
	.st2{fill-rule:evenodd;clip-rule:evenodd;fill:url(#SVGID_3_);}
	.st3{fill:url(#SVGID_4_);}
	.st4{opacity:0.3;}
	.st5{fill:url(#SVGID_5_);}
	.st6{fill:none;}
</style>
<g>
	<g>
		<linearGradient id="SVGID_1_" gradientUnits="userSpaceOnUse" x1="42.4129" y1="33.5883" x2="58.2662" y2="44.1572">
			<stop  offset="0" style="stop-color:#4D4D4D"/>
			<stop  offset="0.1624" style="stop-color:#808080"/>
			<stop  offset="1" style="stop-color:#B3B3B3"/>
		</linearGradient>
		<path class="st0" d="M56.4,39.7c0,0.5-0.5,0.9-1,0.9h-8.7c-1.1,0-1.8-0.4-2.1-1.1l-3.2-4.7v-2.2c0.7-1.4,1.4-3.1,1.4-3.1l4.6,7.1
			l8.1,0.9c0.5,0.1,0.9,0.5,0.9,1.1L56.4,39.7z"/>
		<linearGradient id="SVGID_2_" gradientUnits="userSpaceOnUse" x1="31.7499" y1="43.6953" x2="12.9472" y2="52.052">
			<stop  offset="0" style="stop-color:#4D4D4D"/>
			<stop  offset="0.1624" style="stop-color:#808080"/>
			<stop  offset="1" style="stop-color:#B3B3B3"/>
		</linearGradient>
		<path class="st1" d="M16.2,50.5c0,0.6,0.5,1.1,1.1,1.1h8.8c0.7,0,1.4-0.4,2.1-1.1l4.3-7.2l-1.2-1.3c-1.1-0.7-0.7-2.3-1.1-3.4
			l-5.1,8.7l-7.9,1.1c-0.6,0.1-1,0.6-1,1.1V50.5z"/>
		<linearGradient id="SVGID_3_" gradientUnits="userSpaceOnUse" x1="25.1742" y1="44.8662" x2="44.8451" y2="36.7527">
			<stop  offset="0" style="stop-color:#CCCCCC"/>
			<stop  offset="1" style="stop-color:#F2F2F2"/>
		</linearGradient>
		<path class="st2" d="M41.7,56.9c1.1,0.4,2.2-0.4,2.2-1.5l0-8c0-0.7-0.4-1.1-0.7-1.4l-0.7-0.5l-4.1-3c-0.2-0.1-0.2-0.3-0.1-0.5
			l3.8-6.6c0,0,0,0,0,0l1.1-2.1c0.7-1.4,0.4-2.8-0.3-3.5c0,0-0.1-0.1-0.1-0.1l-3.1-1.7l-8.2-4.3c-1.1-0.4-2.1,0-2.8,0.7l-5.5,7.3
			c-0.4,0.6-0.3,1.4,0.2,1.8l0,0c0.5,0.4,1.3,0.4,1.8,0l5.8-5.3c0.1-0.1,0.3-0.1,0.4-0.1l3.6,1.8c0.2,0.1,0.3,0.4,0.2,0.6l-5.4,9.2
			c0,0,0,0.1-0.1,0.1c-0.3,1.4,0.3,3.2,1.7,3.9l0.5,0.3l8,4.5c0.1,0.1,0.2,0.2,0.2,0.3l0.7,6.9C40.7,56.2,41.1,56.7,41.7,56.9
			L41.7,56.9z"/>
		<radialGradient id="SVGID_4_" cx="46.7376" cy="23.6103" r="5.3256" gradientUnits="userSpaceOnUse">
			<stop  offset="0" style="stop-color:#F2F2F2"/>
			<stop  offset="1" style="stop-color:#E6E6E6"/>
		</radialGradient>
		<path class="st3" d="M46.7,28.9c2.9,0,5.3-2.4,5.3-5.3c0-2.9-2.4-5.3-5.3-5.3c-2.9,0-5.3,2.4-5.3,5.3
			C41.4,26.6,43.8,28.9,46.7,28.9z"/>
	</g>
	<g>
		<g class="st4">
			<path d="M18,22.5c-3.3,0-5.9-2.7-5.9-5.9s2.7-5.9,5.9-5.9s5.9,2.7,5.9,5.9S21.3,22.5,18,22.5z M18,13c-2,0-3.6,1.6-3.6,3.6
				c0,2,1.6,3.6,3.6,3.6c2,0,3.6-1.6,3.6-3.6C21.7,14.6,20,13,18,13z"/>
			<polygon points="19.5,11.5 16.6,11.5 17.1,7.8 18.9,7.8 			"/>
			<polygon points="16.6,22.2 19.5,22.2 18.9,25.9 17.1,25.9 			"/>
			<polygon points="23.4,18.3 23.4,15.4 27,16 27,17.7 			"/>
			<polygon points="12.6,15.4 12.6,18.3 9,17.7 9,16 			"/>
			<polygon points="22.8,13.9 20.8,11.8 23.8,9.6 25,10.9 			"/>
			<polygon points="13.2,19.4 15.2,21.4 12.2,23.6 11,22.4 			"/>
			<polygon points="20.8,21.4 22.8,19.4 25,22.4 23.8,23.6 			"/>
			<polygon points="15.2,11.8 13.2,13.9 11,10.9 12.2,9.6 			"/>
		</g>
		<linearGradient id="SVGID_5_" gradientUnits="userSpaceOnUse" x1="17.7342" y1="25.0331" x2="18.2845" y2="6.9367">
			<stop  offset="0" style="stop-color:#B3B3B3"/>
			<stop  offset="1" style="stop-color:#F2F2F2"/>
		</linearGradient>
		<path class="st5" d="M27,16.9v-1.8l-3.2-0.5c-0.1-0.7-0.4-1.3-0.8-1.9l2-2.7l-1.2-1.2l-2.7,2c-0.5-0.3-1.1-0.6-1.7-0.7L18.9,7
			h-1.8L16.7,10c-0.6,0.1-1.2,0.4-1.7,0.7l-2.7-2L11,10l2,2.7c-0.4,0.6-0.6,1.2-0.8,1.9L9,15.1v1.8l3.3,0.5c0.1,0.5,0.4,1,0.6,1.5
			l-2,2.7l1.2,1.2l2.7-2c0.5,0.3,1.1,0.5,1.7,0.7l0.5,3.5h1.8l0.5-3.5c0.6-0.1,1.1-0.4,1.7-0.7l2.7,2l1.2-1.2l-2-2.7
			c0.3-0.5,0.5-1,0.6-1.5L27,16.9z M18,19.4c-2,0-3.6-1.6-3.6-3.6c0-2,1.6-3.6,3.6-3.6s3.6,1.6,3.6,3.6C21.7,17.8,20,19.4,18,19.4z"
			/>
	</g>
	<rect x="0" class="st6" width="64" height="64"/>
</g>
</svg>
