<svg width="16" height="16" viewBox="0 0 16 16" fill="none" xmlns="http://www.w3.org/2000/svg">
<path opacity="0.5" d="M9.9002 5.49961C9.9002 5.79961 9.60019 5.99961 9.4002 5.99961H7.4002C7.2002 5.99961 7.0002 5.89961 6.9002 5.69961L6.5002 4.99961L6.8002 4.49961C7.0002 4.09961 6.8002 3.59961 6.8002 3.59961L7.6002 4.99961H9.3002C9.6002 4.99961 9.9002 5.19961 9.9002 5.49961ZM3.4002 6.89961C3.2002 6.79961 3.0002 6.59961 2.9002 6.29961L2.2002 7.49961H0.600195C0.400195 7.49961 0.200195 7.79961 0.200195 7.99961C0.200195 8.29961 0.400195 8.49961 0.700195 8.49961H2.5002C2.7002 8.49961 2.9002 8.39961 3.0002 8.19961L3.6002 6.99961L3.4002 6.89961Z" fill="white"/>
<path opacity="0.5" fill-rule="evenodd" clip-rule="evenodd" d="M1.7999 4.09961C1.5999 3.89961 1.5999 3.59961 1.7999 3.39961L3.0999 1.99961C3.2999 1.79961 3.4999 1.69961 3.6999 1.79961L5.3999 2.69961H5.4999L5.6999 2.79961L6.4999 3.19961C6.6999 3.39961 6.7999 3.79961 6.5999 4.09961L6.2999 4.59961L5.2999 6.39961L6.4999 7.09961C6.5999 7.19961 6.6999 7.29961 6.6999 7.49961V9.39961C6.6999 9.69961 6.4999 9.89961 6.1999 9.89961C5.9999 9.99961 5.7999 9.79961 5.7999 9.49961V7.89961L3.7999 6.79961H3.6999C3.2999 6.59961 3.1999 6.19961 3.2999 5.79961L4.6999 3.49961L3.5999 2.79961L2.4999 3.99961C2.2999 4.19961 1.9999 4.29961 1.7999 4.09961ZM7.5999 0.599609C6.8999 0.599609 6.2999 1.19961 6.2999 1.89961C6.2999 2.59961 6.8999 3.19961 7.5999 3.19961C8.2999 3.19961 8.8999 2.59961 8.8999 1.89961C8.8999 1.19961 8.2999 0.599609 7.5999 0.599609Z" fill="white"/>
<path opacity="0.5" d="M15.9 11.4996C15.9 11.7996 15.7 11.9996 15.4 11.9996H13.5C13.2 11.9996 13.1 11.8996 13 11.6996L12.5 10.9996L12.8 10.4996C13 10.0996 12.8 9.59961 12.8 9.59961L13.6 10.9996H15.3C15.6 10.9996 15.9 11.1996 15.9 11.4996ZM9.4 12.8996C9.1 12.7996 9 12.4996 8.9 12.2996L8.2 13.4996H6.5C6.2 13.4996 6 13.7996 6 13.9996C6 14.2996 6.2 14.4996 6.5 14.4996H8.4C8.6 14.4996 8.8 14.3996 8.9 14.1996L9.6 12.9996L9.4 12.8996Z" fill="white"/>
<path fill-rule="evenodd" clip-rule="evenodd" d="M7.7999 10.0996C7.5999 9.89961 7.5999 9.59961 7.7999 9.39961L9.0999 7.99961C9.2999 7.79961 9.4999 7.69961 9.6999 7.79961L11.3999 8.69961H11.4999L11.6999 8.79961L12.4999 9.19961C12.6999 9.39961 12.7999 9.79961 12.5999 10.0996L12.2999 10.5996L11.2999 12.3996L12.4999 13.0996C12.5999 13.1996 12.6999 13.2996 12.6999 13.4996V15.3996C12.6999 15.6996 12.4999 15.8996 12.1999 15.8996C11.8999 15.8996 11.6999 15.6996 11.6999 15.3996V13.6996L9.6999 12.5996H9.5999C9.1999 12.3996 9.0999 11.9996 9.1999 11.5996L10.5999 9.29961L9.5999 8.79961L8.4999 9.99961C8.2999 10.1996 7.9999 10.2996 7.7999 10.0996ZM13.5999 6.59961C12.8999 6.59961 12.2999 7.19961 12.2999 7.89961C12.2999 8.59961 12.8999 9.19961 13.5999 9.19961C14.2999 9.19961 14.8999 8.59961 14.8999 7.89961C14.8999 7.19961 14.2999 6.59961 13.5999 6.59961Z" fill="white"/>
</svg>
