<?xml version="1.0" encoding="utf-8"?>
<!-- Generator: Adobe Illustrator 24.3.0, SVG Export Plug-In . SVG Version: 6.00 Build 0)  -->
<svg version="1.1" id="AnimBlueprint_x5F_64" xmlns="http://www.w3.org/2000/svg" xmlns:xlink="http://www.w3.org/1999/xlink"
	 x="0px" y="0px" viewBox="0 0 64 64" style="enable-background:new 0 0 64 64;" xml:space="preserve">
<style type="text/css">
	.st0{fill:url(#SVGID_1_);enable-background:new    ;}
	.st1{fill:#CCCCCC;}
	.st2{fill:url(#SVGID_2_);enable-background:new    ;}
	.st3{fill:url(#SVGID_3_);enable-background:new    ;}
	.st4{fill-rule:evenodd;clip-rule:evenodd;fill:url(#SVGID_4_);}
	.st5{fill:url(#SVGID_5_);}
	.st6{fill:none;}
</style>
<g>
	<linearGradient id="SVGID_1_" gradientUnits="userSpaceOnUse" x1="34.8292" y1="48.3098" x2="50.4967" y2="48.3098">
		<stop  offset="0" style="stop-color:#666666"/>
		<stop  offset="0.5964" style="stop-color:#808080"/>
		<stop  offset="1" style="stop-color:#4D4D4D"/>
	</linearGradient>
	<path class="st0" d="M50.5,42.6v-1.4c0-0.5-0.4-0.9-0.9-0.9H42c-0.5,0-0.9,0.4-0.9,0.9V46c0,0.5-0.4,0.9-0.9,0.9h-4.5
		c-0.5,0-0.9,0.4-0.9,0.9v1.4c0,0.5,0.4,0.9,0.9,0.9h4.5c0.5,0,0.9,0.4,0.9,0.9v4.5c0,0.5,0.4,0.9,0.9,0.9h7.6
		c0.5,0,0.9-0.4,0.9-0.9V54c0-0.5-0.4-0.9-0.9-0.9h-4.5c-0.5,0-0.9-0.4-0.9-0.9v-7.9c0-0.5,0.4-0.9,0.9-0.9h4.5
		C50.1,43.5,50.5,43.1,50.5,42.6z"/>
	<path class="st1" d="M52.8,38.8h-4.7c-0.4,0-0.8,0.4-0.8,0.8v4.7c0,0.4,0.4,0.8,0.8,0.8h4.7c0.4,0,0.8-0.4,0.8-0.8v-4.7
		C53.6,39.2,53.3,38.8,52.8,38.8z"/>
	<path class="st1" d="M52.8,51.6h-4.7c-0.4,0-0.8,0.4-0.8,0.8v4.7c0,0.4,0.4,0.8,0.8,0.8h4.7c0.4,0,0.8-0.4,0.8-0.8v-4.7
		C53.6,51.9,53.3,51.6,52.8,51.6z"/>
	<path class="st1" d="M37.2,45.2h-4.7c-0.4,0-0.8,0.4-0.8,0.8v4.7c0,0.4,0.4,0.8,0.8,0.8h4.7c0.4,0,0.8-0.4,0.8-0.8V46
		C38,45.5,37.6,45.2,37.2,45.2z"/>
	<linearGradient id="SVGID_2_" gradientUnits="userSpaceOnUse" x1="33.5192" y1="19.6419" x2="47.5108" y2="28.9696">
		<stop  offset="0" style="stop-color:#4D4D4D"/>
		<stop  offset="0.1624" style="stop-color:#808080"/>
		<stop  offset="1" style="stop-color:#B3B3B3"/>
	</linearGradient>
	<path class="st2" d="M45.9,25c0,0.5-0.4,0.8-0.9,0.8h-7.7c-0.9,0-1.6-0.3-1.9-0.9l-2.8-4.1v-1.9c0.6-1.3,1.3-2.7,1.3-2.7l4.1,6.3
		l7.2,0.8c0.5,0.1,0.8,0.5,0.8,0.9L45.9,25z"/>
	<linearGradient id="SVGID_3_" gradientUnits="userSpaceOnUse" x1="24.1083" y1="28.562" x2="7.5136" y2="35.9374">
		<stop  offset="0" style="stop-color:#4D4D4D"/>
		<stop  offset="0.1624" style="stop-color:#808080"/>
		<stop  offset="1" style="stop-color:#B3B3B3"/>
	</linearGradient>
	<path class="st3" d="M10.4,34.6c0,0.5,0.4,1,1,1h7.8c0.6,0,1.3-0.3,1.9-0.9l3.8-6.3l-1.1-1.2c-0.9-0.6-0.7-2-1-3l-4.5,7.7l-7,1
		c-0.5,0.1-0.9,0.5-0.9,1V34.6z"/>
	<linearGradient id="SVGID_4_" gradientUnits="userSpaceOnUse" x1="18.3048" y1="29.5954" x2="35.6657" y2="22.4346">
		<stop  offset="0" style="stop-color:#CCCCCC"/>
		<stop  offset="1" style="stop-color:#F2F2F2"/>
	</linearGradient>
	<path class="st4" d="M32.9,40.2c0.9,0.4,1.9-0.3,1.9-1.3l0-7.1c0-0.6-0.3-0.9-0.6-1.3l-0.6-0.4L30,27.5c-0.1-0.1-0.2-0.3-0.1-0.4
		l3.3-5.8c0,0,0,0,0,0l0.9-1.9c0.6-1.2,0.3-2.5-0.3-3.1c0,0-0.1-0.1-0.1-0.1l-2.8-1.5l-7.2-3.8c-0.9-0.3-1.9,0-2.5,0.6l-4.9,6.4
		c-0.4,0.5-0.3,1.2,0.2,1.6l0,0c0.4,0.4,1.1,0.4,1.6,0l5.2-4.7c0.1-0.1,0.3-0.1,0.4-0.1l3.2,1.6c0.2,0.1,0.2,0.3,0.1,0.5l-4.8,8.1
		c0,0,0,0.1,0,0.1c-0.3,1.2,0.2,2.9,1.5,3.5l0.4,0.2l7,4c0.1,0.1,0.2,0.2,0.2,0.3l0.6,6.1C32,39.6,32.4,40.1,32.9,40.2L32.9,40.2z"
		/>
	<radialGradient id="SVGID_5_" cx="37.336" cy="10.8356" r="4.7003" gradientUnits="userSpaceOnUse">
		<stop  offset="0" style="stop-color:#F2F2F2"/>
		<stop  offset="1" style="stop-color:#E6E6E6"/>
	</radialGradient>
	<path class="st5" d="M37.3,15.5c2.6,0,4.7-2.1,4.7-4.7c0-2.6-2.1-4.7-4.7-4.7c-2.6,0-4.7,2.1-4.7,4.7
		C32.6,13.4,34.7,15.5,37.3,15.5z"/>
</g>
<rect x="0" class="st6" width="64" height="64"/>
</svg>
