<svg width="16" height="16" viewBox="0 0 16 16" fill="none" xmlns="http://www.w3.org/2000/svg">
<path opacity="0.5" d="M10.1002 5.59922C10.1002 5.89922 9.90019 6.09922 9.60019 6.09922H7.60019C7.30019 6.09922 7.20019 5.99922 7.10019 5.79922L6.7002 5.09922L7.00019 4.59922C7.20019 4.19922 7.00019 3.69922 7.00019 3.69922L7.80019 5.09922H9.60019C9.90019 5.09922 10.1002 5.39922 10.1002 5.59922ZM3.60019 7.09922C3.30019 6.89922 3.20019 6.69922 3.10019 6.49922L2.4002 7.79922H0.700195C0.400195 7.79922 0.200195 7.99922 0.200195 8.29922C0.200195 8.59922 0.400195 8.79922 0.700195 8.79922H2.7002C2.9002 8.79922 3.1002 8.69922 3.2002 8.49922L3.9002 7.29922L3.60019 7.09922Z" fill="white"/>
<path fill-rule="evenodd" clip-rule="evenodd" d="M1.9 4.19961C1.7 3.99961 1.7 3.69961 1.9 3.49961L3.2 1.99961C3.4 1.79961 3.6 1.69961 3.9 1.79961L5.7 2.69961H5.8L6 2.79961L6.8 3.19961C7 3.39961 7.1 3.79961 6.9 4.09961L6.6 4.59961L5.5 6.39961L6.8 7.09961C6.9 7.49961 7 7.59961 7 7.79961V9.79961C7 10.0996 6.8 10.2996 6.5 10.2996C6.2 10.2996 6 10.0996 6 9.79961V7.99961L4 6.79961H3.9C3.5 6.59961 3.4 6.19961 3.4 5.79961L4.8 3.39961L3.7 2.89961L2.6 4.09961C2.4 4.39961 2.1 4.39961 1.9 4.19961ZM7.6 0.599609C6.9 0.599609 6.3 1.19961 6.3 1.89961C6.3 2.59961 6.9 3.19961 7.6 3.19961C8.3 3.19961 8.9 2.59961 8.9 1.89961C8.9 1.19961 8.3 0.599609 7.6 0.599609Z" fill="white"/>
<path d="M7.5 13.2998C7.5 13.2998 11 15.2998 11.5 15.4998L15.5 13.2998L14.6 12.7998L11.5 14.4998L8.4 12.7998L7.5 13.2998Z" fill="white"/>
<path d="M7.5 11.0996C7.5 11.0996 11 13.0996 11.5 13.2996L15.5 11.0996L14.6 10.5996L11.5 12.2996L8.4 10.5996C8.4 10.5996 7.5 11.0996 7.5 11.0996Z" fill="white"/>
<path d="M7.5 9C7.5 9 11 11 11.5 11.2L15.5 9L11.5 7.5L7.5 9Z" fill="white"/>
</svg>
