<?xml version="1.0" encoding="utf-8"?>
<!-- Generator: Adobe Illustrator 25.0.0, SVG Export Plug-In . SVG Version: 6.00 Build 0)  -->
<svg version="1.1" id="AnimInstance_x5F_64" xmlns="http://www.w3.org/2000/svg" xmlns:xlink="http://www.w3.org/1999/xlink"
	 x="0px" y="0px" viewBox="0 0 64 64" style="enable-background:new 0 0 64 64;" xml:space="preserve">
<style type="text/css">
	.st0{fill:url(#SVGID_1_);enable-background:new    ;}
	.st1{fill:url(#SVGID_2_);enable-background:new    ;}
	.st2{fill-rule:evenodd;clip-rule:evenodd;fill:url(#SVGID_3_);}
	.st3{fill:url(#SVGID_4_);}
	.st4{fill:url(#SVGID_5_);enable-background:new    ;}
	.st5{fill:url(#SVGID_6_);enable-background:new    ;}
	.st6{fill-rule:evenodd;clip-rule:evenodd;fill:url(#SVGID_7_);}
	.st7{fill:url(#SVGID_8_);}
	.st8{fill:none;}
</style>
<g>
	<g>
		<linearGradient id="SVGID_1_" gradientUnits="userSpaceOnUse" x1="43.7928" y1="37.8016" x2="54.4218" y2="44.8876">
			<stop  offset="0" style="stop-color:#4D4D4D"/>
			<stop  offset="0.1624" style="stop-color:#808080"/>
			<stop  offset="1" style="stop-color:#B3B3B3"/>
		</linearGradient>
		<path class="st0" d="M53.2,41.9c0,0.4-0.3,0.6-0.7,0.6h-5.8c-0.7,0-1.2-0.2-1.4-0.7l-2.1-3.1v-1.5c0.5-1,1-2,1-2l3.1,4.8l5.5,0.6
			c0.4,0,0.6,0.4,0.6,0.7L53.2,41.9z"/>
		<linearGradient id="SVGID_2_" gradientUnits="userSpaceOnUse" x1="36.6437" y1="44.5779" x2="24.0372" y2="50.1808">
			<stop  offset="0" style="stop-color:#4D4D4D"/>
			<stop  offset="0.1624" style="stop-color:#808080"/>
			<stop  offset="1" style="stop-color:#B3B3B3"/>
		</linearGradient>
		<path class="st1" d="M26.2,49.2c0,0.4,0.3,0.8,0.8,0.8h5.9c0.5,0,1-0.2,1.4-0.7l2.9-4.8l-0.8-0.9c-0.7-0.5-0.5-1.6-0.7-2.3
			l-3.5,5.8l-5.3,0.8c-0.4,0.1-0.6,0.4-0.6,0.7V49.2z"/>
		<linearGradient id="SVGID_3_" gradientUnits="userSpaceOnUse" x1="32.2349" y1="45.3629" x2="45.4235" y2="39.9231">
			<stop  offset="0" style="stop-color:#CCCCCC"/>
			<stop  offset="1" style="stop-color:#F2F2F2"/>
		</linearGradient>
		<path class="st2" d="M43.3,53.5c0.7,0.3,1.5-0.2,1.5-1l0-5.4c0-0.5-0.2-0.7-0.5-1l-0.4-0.3l-2.7-2c-0.1-0.1-0.1-0.2-0.1-0.3
			l2.5-4.4c0,0,0,0,0,0l0.7-1.4c0.5-0.9,0.2-1.9-0.2-2.3c0,0,0,0-0.1-0.1L41.9,34l-5.5-2.9c-0.7-0.2-1.4,0-1.9,0.5l-3.7,4.9
			c-0.3,0.4-0.2,0.9,0.1,1.2l0,0c0.3,0.3,0.8,0.3,1.2,0l3.9-3.6c0.1-0.1,0.2-0.1,0.3,0l2.4,1.2c0.1,0.1,0.2,0.2,0.1,0.4l-3.6,6.1
			c0,0,0,0.1,0,0.1c-0.2,0.9,0.2,2.2,1.1,2.6l0.3,0.2l5.4,3c0.1,0,0.1,0.1,0.1,0.2l0.4,4.6C42.7,53,42.9,53.3,43.3,53.5L43.3,53.5z"
			/>
		<radialGradient id="SVGID_4_" cx="46.6923" cy="31.1117" r="3.5706" gradientUnits="userSpaceOnUse">
			<stop  offset="0" style="stop-color:#F2F2F2"/>
			<stop  offset="1" style="stop-color:#E6E6E6"/>
		</radialGradient>
		<path class="st3" d="M46.7,34.7c2,0,3.6-1.6,3.6-3.6c0-2-1.6-3.6-3.6-3.6c-2,0-3.6,1.6-3.6,3.6C43.1,33.1,44.7,34.7,46.7,34.7z"/>
	</g>
	<g>
		<linearGradient id="SVGID_5_" gradientUnits="userSpaceOnUse" x1="28.3631" y1="20.7322" x2="38.9922" y2="27.8182">
			<stop  offset="0" style="stop-color:#4D4D4D"/>
			<stop  offset="0.1624" style="stop-color:#666666"/>
			<stop  offset="1" style="stop-color:#4D4D4D"/>
		</linearGradient>
		<path class="st4" d="M37.7,24.8c0,0.4-0.3,0.6-0.7,0.6h-5.8c-0.7,0-1.2-0.2-1.4-0.7l-2.1-3.1v-1.5c0.5-1,1-2,1-2l3.1,4.8l5.5,0.6
			c0.4,0,0.6,0.4,0.6,0.7L37.7,24.8z"/>
		<linearGradient id="SVGID_6_" gradientUnits="userSpaceOnUse" x1="21.214" y1="27.5085" x2="8.6075" y2="33.1114">
			<stop  offset="0" style="stop-color:#4D4D4D"/>
			<stop  offset="0.1624" style="stop-color:#4D4D4D"/>
			<stop  offset="1" style="stop-color:#666666"/>
		</linearGradient>
		<path class="st5" d="M10.8,32.1c0,0.4,0.3,0.8,0.8,0.8h5.9c0.5,0,1-0.2,1.4-0.7l2.9-4.8l-0.8-0.9c-0.7-0.5-0.5-1.6-0.7-2.3
			L16.7,30l-5.3,0.8c-0.4,0.1-0.6,0.4-0.6,0.7V32.1z"/>
		<linearGradient id="SVGID_7_" gradientUnits="userSpaceOnUse" x1="16.8052" y1="28.2936" x2="29.9938" y2="22.8538">
			<stop  offset="0" style="stop-color:#4D4D4D"/>
			<stop  offset="1" style="stop-color:#999999"/>
		</linearGradient>
		<path class="st6" d="M27.9,36.4c0.7,0.3,1.5-0.2,1.5-1l0-5.4c0-0.5-0.2-0.7-0.5-1l-0.4-0.3l-2.7-2c-0.1-0.1-0.1-0.2-0.1-0.3
			l2.5-4.4c0,0,0,0,0,0l0.7-1.4c0.5-0.9,0.2-1.9-0.2-2.3c0,0,0,0-0.1-0.1l-2.1-1.2L21,14c-0.7-0.2-1.4,0-1.9,0.5l-3.7,4.9
			c-0.3,0.4-0.2,0.9,0.1,1.2l0,0c0.3,0.3,0.8,0.3,1.2,0l3.9-3.6c0.1-0.1,0.2-0.1,0.3,0l2.4,1.2c0.1,0.1,0.2,0.2,0.1,0.4l-3.6,6.1
			c0,0,0,0.1,0,0.1C19.6,25.7,20,27,21,27.4l0.3,0.2l5.4,3c0.1,0,0.1,0.1,0.1,0.2l0.4,4.6C27.2,35.9,27.5,36.2,27.9,36.4L27.9,36.4z
			"/>
		<radialGradient id="SVGID_8_" cx="31.2626" cy="14.0423" r="3.5706" gradientUnits="userSpaceOnUse">
			<stop  offset="0" style="stop-color:#B3B3B3"/>
			<stop  offset="1" style="stop-color:#999999"/>
		</radialGradient>
		<path class="st7" d="M31.3,17.6c2,0,3.6-1.6,3.6-3.6c0-2-1.6-3.6-3.6-3.6c-2,0-3.6,1.6-3.6,3.6C27.7,16,29.3,17.6,31.3,17.6z"/>
	</g>
	<rect x="0" class="st8" width="64" height="64"/>
</g>
</svg>
