<?xml version="1.0" encoding="utf-8"?>
<!-- Generator: Adobe Illustrator 24.3.0, SVG Export Plug-In . SVG Version: 6.00 Build 0)  -->
<svg version="1.1" id="AnimationSharingSetup_x5F_64"
	 xmlns="http://www.w3.org/2000/svg" xmlns:xlink="http://www.w3.org/1999/xlink" x="0px" y="0px" viewBox="0 0 64 64"
	 style="enable-background:new 0 0 64 64;" xml:space="preserve">
<style type="text/css">
	.st0{fill:url(#SVGID_1_);enable-background:new    ;}
	.st1{fill:url(#SVGID_2_);enable-background:new    ;}
	.st2{fill-rule:evenodd;clip-rule:evenodd;fill:url(#SVGID_3_);}
	.st3{fill:url(#SVGID_4_);}
	.st4{fill:#7F7F7F;}
	.st5{fill:url(#SVGID_5_);}
	.st6{fill:url(#SVGID_6_);}
	.st7{fill:url(#SVGID_7_);}
	.st8{fill:url(#SVGID_8_);}
	.st9{fill:url(#SVGID_9_);}
	.st10{fill:url(#SVGID_10_);}
	.st11{fill:none;}
</style>
<g>
	<g>
		<linearGradient id="SVGID_1_" gradientUnits="userSpaceOnUse" x1="32.7022" y1="18.297" x2="44.006" y2="25.8328">
			<stop  offset="0" style="stop-color:#4D4D4D"/>
			<stop  offset="0.1624" style="stop-color:#808080"/>
			<stop  offset="1" style="stop-color:#B3B3B3"/>
		</linearGradient>
		<path class="st0" d="M42.7,22.7c0,0.4-0.3,0.7-0.7,0.7h-6.2c-0.8,0-1.3-0.3-1.5-0.8L32,19.2v-1.6c0.5-1,1-2.2,1-2.2l3.3,5.1
			l5.8,0.7c0.4,0,0.7,0.4,0.6,0.8L42.7,22.7z"/>
		<linearGradient id="SVGID_2_" gradientUnits="userSpaceOnUse" x1="25.0992" y1="25.5035" x2="11.6924" y2="31.4621">
			<stop  offset="0" style="stop-color:#4D4D4D"/>
			<stop  offset="0.1624" style="stop-color:#808080"/>
			<stop  offset="1" style="stop-color:#B3B3B3"/>
		</linearGradient>
		<path class="st1" d="M14,30.4c0,0.4,0.4,0.8,0.8,0.8h6.3c0.5,0,1-0.3,1.5-0.8l3.1-5.1l-0.9-1c-0.8-0.5-0.5-1.7-0.8-2.4l-3.7,6.2
			L14.7,29C14.3,29,14,29.3,14,29.7V30.4z"/>
		<linearGradient id="SVGID_3_" gradientUnits="userSpaceOnUse" x1="20.4106" y1="26.3384" x2="34.4364" y2="20.5532">
			<stop  offset="0" style="stop-color:#CCCCCC"/>
			<stop  offset="1" style="stop-color:#F2F2F2"/>
		</linearGradient>
		<path class="st2" d="M32.2,34.9c0.8,0.3,1.6-0.3,1.6-1.1l0-5.7c0-0.5-0.3-0.8-0.5-1l-0.5-0.4l-2.9-2.2c-0.1-0.1-0.1-0.2-0.1-0.4
			l2.7-4.7c0,0,0,0,0,0l0.8-1.5c0.5-1,0.3-2-0.2-2.5c0,0,0,0-0.1-0.1l-2.2-1.2l-5.8-3c-0.8-0.3-1.5,0-2,0.5l-3.9,5.2
			c-0.3,0.4-0.2,1,0.1,1.3l0,0c0.4,0.3,0.9,0.3,1.3,0l4.2-3.8c0.1-0.1,0.2-0.1,0.3,0l2.6,1.3c0.1,0.1,0.2,0.3,0.1,0.4l-3.9,6.5
			c0,0,0,0.1,0,0.1c-0.2,1,0.2,2.3,1.2,2.8l0.3,0.2l5.7,3.2c0.1,0,0.1,0.1,0.1,0.2l0.5,4.9C31.5,34.4,31.8,34.8,32.2,34.9L32.2,34.9
			z"/>
		<radialGradient id="SVGID_4_" cx="35.7858" cy="11.1824" r="3.7973" gradientUnits="userSpaceOnUse">
			<stop  offset="0" style="stop-color:#F2F2F2"/>
			<stop  offset="1" style="stop-color:#E6E6E6"/>
		</radialGradient>
		<path class="st3" d="M35.8,15c2.1,0,3.8-1.7,3.8-3.8c0-2.1-1.7-3.8-3.8-3.8c-2.1,0-3.8,1.7-3.8,3.8C32,13.3,33.7,15,35.8,15z"/>
	</g>
	<g>
		<g>
			<rect x="11.5" y="35.9" class="st4" width="42.2" height="3.1"/>
			
				<rect x="44.3" y="42.8" transform="matrix(-1.836970e-16 1 -1 -1.836970e-16 96.4937 -7.8315)" class="st4" width="15.7" height="3.1"/>
			
				<rect x="24.7" y="42.8" transform="matrix(-1.836970e-16 1 -1 -1.836970e-16 76.9213 11.7409)" class="st4" width="15.7" height="3.1"/>
			
				<rect x="5.2" y="42.8" transform="matrix(-1.836970e-16 1 -1 -1.836970e-16 57.3488 31.3134)" class="st4" width="15.7" height="3.1"/>
		</g>
		<linearGradient id="SVGID_5_" gradientUnits="userSpaceOnUse" x1="13.0177" y1="47.9946" x2="13.0177" y2="41.2609">
			<stop  offset="0" style="stop-color:#4D4D4D"/>
			<stop  offset="0.5736" style="stop-color:#808080"/>
		</linearGradient>
		<polygon class="st5" points="11.5,48 11.5,41.3 14.6,41.3 14.6,48 		"/>
		<linearGradient id="SVGID_6_" gradientUnits="userSpaceOnUse" x1="32.5902" y1="47.9946" x2="32.5902" y2="41.2609">
			<stop  offset="0" style="stop-color:#4D4D4D"/>
			<stop  offset="0.5736" style="stop-color:#808080"/>
		</linearGradient>
		<polygon class="st6" points="31,48 31,41.3 34.1,41.3 34.1,48 		"/>
		<linearGradient id="SVGID_7_" gradientUnits="userSpaceOnUse" x1="13.0177" y1="56.2813" x2="13.0177" y2="47.5582">
			<stop  offset="0" style="stop-color:#FFFFFF"/>
			<stop  offset="1" style="stop-color:#B3B3B3"/>
		</linearGradient>
		<path class="st7" d="M19.2,47.6H6.9c-0.8,0-1.5,0.7-1.5,1.5v5.8c0,0.8,0.7,1.5,1.5,1.5h12.3c0.8,0,1.5-0.7,1.5-1.5V49
			C20.6,48.2,20,47.6,19.2,47.6z"/>
		<linearGradient id="SVGID_8_" gradientUnits="userSpaceOnUse" x1="52.1626" y1="47.9946" x2="52.1626" y2="41.2609">
			<stop  offset="0" style="stop-color:#4D4D4D"/>
			<stop  offset="0.5736" style="stop-color:#808080"/>
		</linearGradient>
		<polygon class="st8" points="50.6,48 50.6,41.3 53.7,41.3 53.7,48 		"/>
		<linearGradient id="SVGID_9_" gradientUnits="userSpaceOnUse" x1="32.5902" y1="56.2813" x2="32.5902" y2="47.5582">
			<stop  offset="0" style="stop-color:#FFFFFF"/>
			<stop  offset="1" style="stop-color:#B3B3B3"/>
		</linearGradient>
		<path class="st9" d="M38.8,47.6H26.4c-0.8,0-1.5,0.7-1.5,1.5v5.8c0,0.8,0.7,1.5,1.5,1.5h12.3c0.8,0,1.5-0.7,1.5-1.5V49
			C40.2,48.2,39.6,47.6,38.8,47.6z"/>
		<linearGradient id="SVGID_10_" gradientUnits="userSpaceOnUse" x1="52.1626" y1="56.2813" x2="52.1626" y2="47.5582">
			<stop  offset="0" style="stop-color:#FFFFFF"/>
			<stop  offset="1" style="stop-color:#B3B3B3"/>
		</linearGradient>
		<path class="st10" d="M58.3,47.6H46c-0.8,0-1.5,0.7-1.5,1.5v5.8c0,0.8,0.7,1.5,1.5,1.5h12.3c0.8,0,1.5-0.7,1.5-1.5V49
			C59.8,48.2,59.1,47.6,58.3,47.6z"/>
	</g>
	<rect x="0" class="st11" width="64" height="64"/>
</g>
</svg>
