<svg width="16" height="16" viewBox="0 0 16 16" fill="none" xmlns="http://www.w3.org/2000/svg">
<path d="M15 10H13V12H15V10Z" fill="white"/>
<path d="M15 14H13V16H15V14Z" fill="white"/>
<path d="M10 12H8V14H10V12Z" fill="white"/>
<path opacity="0.5" d="M14 11V10H11V13H9V14H11V16H14V15H12V11H14Z" fill="white"/>
<path opacity="0.5" d="M12.0002 5.19961H10.0002L9.1002 3.59961C9.1002 3.59961 9.3002 4.19961 9.1002 4.59961L8.7002 5.19961L9.2002 5.99961C9.3002 6.19961 9.5002 6.29961 9.8002 6.29961H12.0002C12.3002 6.29961 12.6002 5.99961 12.6002 5.69961C12.6002 5.49961 12.3002 5.19961 12.0002 5.19961Z" fill="white"/>
<path opacity="0.5" d="M5.2001 7.49922C4.9001 7.29922 4.7001 6.99922 4.6001 6.69922L3.7001 8.19922H1.7001C1.4001 8.19922 1.1001 8.49922 1.1001 8.79922C1.1001 9.09922 1.4001 9.39922 1.7001 9.39922H4.0001C4.2001 9.39922 4.4001 9.29922 4.6001 9.09922L5.4001 7.69922L5.2001 7.49922Z" fill="white"/>
<path fill-rule="evenodd" clip-rule="evenodd" d="M4.09993 4.10017L5.39993 2.70017L6.59993 3.30017L4.99993 6.00017C4.89993 6.40017 5.09993 6.90017 5.49993 7.10017L5.59993 7.20017L7.89993 8.50017V10.4002C7.89993 10.7002 8.19993 11.0002 8.49993 11.0002C8.79993 11.0002 8.99993 10.7002 8.99993 10.4002V8.20017C8.99993 8.00017 8.89993 7.90017 8.79993 7.80017C8.79993 7.80017 8.79993 7.80017 8.69993 7.80017C8.69993 7.80017 8.69993 7.80017 8.59994 7.80017L7.29993 6.90017L8.49993 4.80017L8.79993 4.20017C8.99993 3.80017 8.89993 3.40017 8.69993 3.20017L7.79993 2.70017L7.59993 2.60017C7.49993 2.60017 7.49993 2.60017 7.49993 2.50017L5.49993 1.50017C5.19993 1.40017 4.89993 1.50017 4.69993 1.70017L3.19993 3.40017C2.99993 3.60017 2.99993 3.90017 3.29993 4.10017C3.49993 4.40017 3.79993 4.30017 4.09993 4.10017Z" fill="white"/>
<path d="M9.7998 3C10.6282 3 11.2998 2.32843 11.2998 1.5C11.2998 0.671573 10.6282 0 9.7998 0C8.97138 0 8.2998 0.671573 8.2998 1.5C8.2998 2.32843 8.97138 3 9.7998 3Z" fill="white"/>
</svg>
