<?xml version="1.0" encoding="utf-8"?>
<!-- Generator: Adobe Illustrator 25.0.0, SVG Export Plug-In . SVG Version: 6.00 Build 0)  -->
<svg version="1.1" id="AnimSequence_x5F_64" xmlns="http://www.w3.org/2000/svg" xmlns:xlink="http://www.w3.org/1999/xlink"
	 x="0px" y="0px" viewBox="0 0 64 64" style="enable-background:new 0 0 64 64;" xml:space="preserve">
<style type="text/css">
	.st0{fill:url(#SVGID_1_);enable-background:new    ;}
	.st1{fill:url(#SVGID_2_);enable-background:new    ;}
	.st2{fill-rule:evenodd;clip-rule:evenodd;fill:url(#SVGID_3_);}
	.st3{fill:url(#SVGID_4_);}
	.st4{fill:#7F7F7F;}
	.st5{fill:#FFFFFF;}
	.st6{fill:url(#SVGID_5_);}
	.st7{fill:none;}
</style>
<g>
	<g>
		<linearGradient id="SVGID_1_" gradientUnits="userSpaceOnUse" x1="30.5676" y1="22.1659" x2="44.8725" y2="31.7025">
			<stop  offset="0" style="stop-color:#4D4D4D"/>
			<stop  offset="0.1624" style="stop-color:#808080"/>
			<stop  offset="1" style="stop-color:#B3B3B3"/>
		</linearGradient>
		<path class="st0" d="M43.2,27.7c0,0.5-0.4,0.8-0.9,0.8h-7.8c-1,0-1.6-0.3-1.9-1l-2.9-4.2v-2c0.6-1.3,1.3-2.8,1.3-2.8l4.2,6.4
			l7.3,0.8c0.5,0.1,0.8,0.5,0.8,1L43.2,27.7z"/>
		<linearGradient id="SVGID_2_" gradientUnits="userSpaceOnUse" x1="20.946" y1="31.2857" x2="3.9798" y2="38.8263">
			<stop  offset="0" style="stop-color:#4D4D4D"/>
			<stop  offset="0.1624" style="stop-color:#808080"/>
			<stop  offset="1" style="stop-color:#B3B3B3"/>
		</linearGradient>
		<path class="st1" d="M6.9,37.5c0,0.6,0.5,1,1,1h8c0.6,0,1.3-0.3,1.9-1l3.9-6.5l-1.1-1.2c-1-0.6-0.7-2.1-1-3.1l-4.6,7.9l-7.2,1
			c-0.5,0.1-0.9,0.5-0.9,1V37.5z"/>
		<linearGradient id="SVGID_3_" gradientUnits="userSpaceOnUse" x1="15.0126" y1="32.3423" x2="32.7622" y2="25.0212">
			<stop  offset="0" style="stop-color:#CCCCCC"/>
			<stop  offset="1" style="stop-color:#F2F2F2"/>
		</linearGradient>
		<path class="st2" d="M29.9,43.2c1,0.4,2-0.3,2-1.4l0-7.2c0-0.6-0.3-1-0.6-1.3l-0.6-0.5L27,30.2c-0.1-0.1-0.2-0.3-0.1-0.5l3.4-5.9
			c0,0,0,0,0,0l1-1.9c0.6-1.3,0.3-2.5-0.3-3.2c0,0-0.1-0.1-0.1-0.1L28.1,17l-7.4-3.8c-1-0.3-1.9,0-2.6,0.6l-5,6.5
			c-0.4,0.5-0.3,1.2,0.2,1.6l0,0c0.5,0.4,1.1,0.4,1.6,0l5.3-4.8c0.1-0.1,0.3-0.1,0.4-0.1l3.3,1.6c0.2,0.1,0.3,0.3,0.1,0.5l-4.9,8.3
			c0,0,0,0.1,0,0.1c-0.3,1.3,0.3,2.9,1.5,3.5l0.4,0.2l7.2,4.1c0.1,0.1,0.2,0.2,0.2,0.3L29,42C29.1,42.6,29.4,43,29.9,43.2L29.9,43.2
			z"/>
		<radialGradient id="SVGID_4_" cx="34.4699" cy="13.1625" r="4.8055" gradientUnits="userSpaceOnUse">
			<stop  offset="0" style="stop-color:#F2F2F2"/>
			<stop  offset="1" style="stop-color:#E6E6E6"/>
		</radialGradient>
		<path class="st3" d="M34.5,18c2.7,0,4.8-2.2,4.8-4.8c0-2.7-2.2-4.8-4.8-4.8c-2.7,0-4.8,2.2-4.8,4.8C29.7,15.8,31.8,18,34.5,18z"/>
	</g>
	<g>
		<path class="st4" d="M37.9,55.4h17.4c0.4,0,0.8-0.3,0.8-0.8v-8.1c0-0.4-0.3-0.8-0.8-0.8H37.9c-0.4,0-0.8,0.3-0.8,0.8v8.1
			C37.2,55.1,37.5,55.4,37.9,55.4z"/>
		<g>
			<g>
				<rect x="37.4" y="44.2" class="st4" width="18.5" height="2.4"/>
				<path class="st5" d="M55.6,44.5v1.9h-18v-1.9H55.6 M56.1,44h-19v2.9h19V44L56.1,44z"/>
			</g>
			<polygon class="st5" points="41.2,46.7 38.8,46.7 40.3,44.1 42.8,44.1 			"/>
			<polygon class="st5" points="45.5,46.7 43.1,46.7 44.7,44.1 47.1,44.1 			"/>
			<polygon class="st5" points="49.8,46.7 47.4,46.7 49,44.1 51.4,44.1 			"/>
			<polygon class="st5" points="54.3,46.7 51.8,46.7 53.4,44.1 55.8,44.1 			"/>
		</g>
		<linearGradient id="SVGID_5_" gradientUnits="userSpaceOnUse" x1="46.6721" y1="48.2751" x2="46.65" y2="54.0357">
			<stop  offset="0" style="stop-color:#FFFFFF"/>
			<stop  offset="1" style="stop-color:#C2C2C2"/>
		</linearGradient>
		<path class="st6" d="M41.3,54H52c0.6,0,1.1-0.5,1.1-1.1v-3.4c0-0.6-0.5-1.1-1.1-1.1H41.3c-0.6,0-1.1,0.5-1.1,1.1v3.4
			C40.1,53.5,40.6,54,41.3,54z"/>
		<g>
			<g>
				
					<rect x="36.7" y="38.7" transform="matrix(0.9639 -0.2662 0.2662 0.9639 -8.9824 13.6591)" class="st4" width="18.5" height="2.4"/>
				<path class="st5" d="M54.3,36.6l0.5,1.9l-17.3,4.8L37,41.4L54.3,36.6 M54.6,36l-18.3,5l0.8,2.8l18.3-5L54.6,36L54.6,36z"/>
			</g>
			<polygon class="st5" points="40.3,40.2 38,40.8 40.2,42.9 42.5,42.3 			"/>
			<polygon class="st5" points="44.5,39 42.1,39.7 44.3,41.8 46.7,41.1 			"/>
			<polygon class="st5" points="48.6,37.9 46.3,38.5 48.5,40.6 50.8,40 			"/>
			<polygon class="st5" points="52.9,36.7 50.5,37.3 52.7,39.4 55.1,38.8 			"/>
		</g>
	</g>
	<rect x="0" class="st7" width="64" height="64"/>
</g>
</svg>
