<svg width="16" height="16" viewBox="0 0 16 16" fill="none" xmlns="http://www.w3.org/2000/svg">
<path d="M2.7 12.6L5.8 9.5L6.5 10.2L3.4 13.3L4.8 14.7L1 15L1.3 11.2L2.7 12.6Z" fill="white"/>
<path d="M11.7 12.4L14.8 15.5L15.5 14.8L12.4 11.7L13.8 10.3L10 10L10.3 13.8L11.7 12.4Z" fill="white"/>
<path opacity="0.5" d="M12.1001 5.59922C12.1001 5.89922 11.9001 6.09922 11.6001 6.09922H9.6001C9.4001 6.09922 9.2001 5.99922 9.1001 5.89922L8.7001 5.09922L9.0001 4.59922C9.2001 4.19922 9.0001 3.69922 9.0001 3.69922L9.8001 5.09922H11.6001C11.9001 5.09922 12.1001 5.39922 12.1001 5.59922ZM5.6001 7.09922C5.3001 6.99922 5.2001 6.69922 5.1001 6.49922L4.3001 7.69922H2.6001C2.3001 7.69922 2.1001 7.89922 2.1001 8.19922C2.1001 8.49922 2.3001 8.69922 2.6001 8.69922H4.6001C4.8001 8.69922 5.0001 8.59922 5.1001 8.39922L5.8001 7.19922L5.6001 7.09922Z" fill="white"/>
<path fill-rule="evenodd" clip-rule="evenodd" d="M3.9 4.19961C3.7 3.99961 3.7 3.69961 3.9 3.49961L5.2 1.99961C5.4 1.79961 5.6 1.69961 5.9 1.79961L7.7 2.69961H7.8L8 2.79961L8.8 3.19961C8.9 3.49961 9 3.89961 8.8 4.29961L8.5 4.79961L7.4 6.59961L8.7 7.29961C8.9 7.49961 9 7.59961 9 7.79961V9.79961C9 10.0996 8.8 10.2996 8.5 10.2996C8.2 10.1996 8 9.99961 8 9.69961V7.99961L6 6.89961H5.9C5.5 6.69961 5.4 6.29961 5.4 5.89961L6.8 3.49961L5.7 2.89961L4.6 4.19961C4.4 4.39961 4.1 4.39961 3.9 4.19961ZM9.6 0.599609C8.9 0.599609 8.3 1.19961 8.3 1.89961C8.3 2.59961 8.9 3.19961 9.6 3.19961C10.3 3.19961 10.9 2.59961 10.9 1.89961C10.9 1.19961 10.3 0.599609 9.6 0.599609Z" fill="white"/>
</svg>
