<?xml version="1.0" encoding="utf-8"?>
<!-- Generator: Adobe Illustrator 25.0.0, SVG Export Plug-In . SVG Version: 6.00 Build 0)  -->
<svg version="1.1" id="AnimLayerInterface_x5F_64" xmlns="http://www.w3.org/2000/svg" xmlns:xlink="http://www.w3.org/1999/xlink"
	 x="0px" y="0px" viewBox="0 0 64 64" style="enable-background:new 0 0 64 64;" xml:space="preserve">
<style type="text/css">
	.st0{fill:url(#SVGID_1_);enable-background:new    ;}
	.st1{fill:url(#SVGID_2_);enable-background:new    ;}
	.st2{fill-rule:evenodd;clip-rule:evenodd;fill:url(#SVGID_3_);}
	.st3{fill:url(#SVGID_4_);}
	.st4{fill:url(#SVGID_5_);}
	.st5{fill:url(#SVGID_6_);}
	.st6{fill:none;}
</style>
<g>
	<g>
		<linearGradient id="SVGID_1_" gradientUnits="userSpaceOnUse" x1="35.9653" y1="18.1826" x2="46.5943" y2="25.2686">
			<stop  offset="0" style="stop-color:#4D4D4D"/>
			<stop  offset="0.1624" style="stop-color:#808080"/>
			<stop  offset="1" style="stop-color:#B3B3B3"/>
		</linearGradient>
		<path class="st0" d="M45.4,22.3c0,0.4-0.3,0.6-0.7,0.6h-5.8c-0.7,0-1.2-0.2-1.4-0.7l-2.1-3.1v-1.5c0.5-1,1-2,1-2l3.1,4.8l5.5,0.6
			c0.4,0,0.6,0.4,0.6,0.7L45.4,22.3z"/>
		<linearGradient id="SVGID_2_" gradientUnits="userSpaceOnUse" x1="28.8161" y1="24.959" x2="16.2096" y2="30.5619">
			<stop  offset="0" style="stop-color:#4D4D4D"/>
			<stop  offset="0.1624" style="stop-color:#808080"/>
			<stop  offset="1" style="stop-color:#B3B3B3"/>
		</linearGradient>
		<path class="st1" d="M18.4,29.5c0,0.4,0.3,0.8,0.8,0.8h5.9c0.5,0,1-0.2,1.4-0.7l2.9-4.8l-0.8-0.9c-0.7-0.5-0.5-1.6-0.7-2.3
			l-3.5,5.8L19,28.2c-0.4,0.1-0.6,0.4-0.6,0.7V29.5z"/>
		<linearGradient id="SVGID_3_" gradientUnits="userSpaceOnUse" x1="24.4073" y1="25.744" x2="37.5959" y2="20.3042">
			<stop  offset="0" style="stop-color:#CCCCCC"/>
			<stop  offset="1" style="stop-color:#F2F2F2"/>
		</linearGradient>
		<path class="st2" d="M35.5,33.8c0.7,0.3,1.5-0.2,1.5-1l0-5.4c0-0.5-0.2-0.7-0.5-1L36,26.2l-2.7-2c-0.1-0.1-0.1-0.2-0.1-0.3
			l2.5-4.4c0,0,0,0,0,0l0.7-1.4c0.5-0.9,0.2-1.9-0.2-2.3c0,0,0,0-0.1-0.1l-2.1-1.2l-5.5-2.9c-0.7-0.2-1.4,0-1.9,0.5L23,16.8
			c-0.3,0.4-0.2,0.9,0.1,1.2l0,0c0.3,0.3,0.8,0.3,1.2,0l3.9-3.6c0.1-0.1,0.2-0.1,0.3,0l2.4,1.2c0.1,0.1,0.2,0.2,0.1,0.4l-3.6,6.1
			c0,0,0,0.1,0,0.1c-0.2,0.9,0.2,2.2,1.1,2.6l0.3,0.2l5.4,3c0.1,0,0.1,0.1,0.1,0.2l0.4,4.6C34.8,33.3,35.1,33.7,35.5,33.8L35.5,33.8
			z"/>
		<radialGradient id="SVGID_4_" cx="38.8648" cy="11.4927" r="3.5706" gradientUnits="userSpaceOnUse">
			<stop  offset="0" style="stop-color:#F2F2F2"/>
			<stop  offset="1" style="stop-color:#E6E6E6"/>
		</radialGradient>
		<path class="st3" d="M38.9,15.1c2,0,3.6-1.6,3.6-3.6c0-2-1.6-3.6-3.6-3.6c-2,0-3.6,1.6-3.6,3.6C35.3,13.5,36.9,15.1,38.9,15.1z"/>
	</g>
	
		<linearGradient id="SVGID_5_" gradientUnits="userSpaceOnUse" x1="85.6462" y1="12.2464" x2="56.7714" y2="12.1235" gradientTransform="matrix(-0.7005 0.7137 -0.7137 -0.7005 80.6571 -0.2943)">
		<stop  offset="0" style="stop-color:#F2F2F2"/>
		<stop  offset="1" style="stop-color:#7E7E7E"/>
	</linearGradient>
	<path class="st4" d="M10.9,53.7l11-2.8c0.3-0.1,0.4-0.4,0.2-0.6L19.7,48c-0.1-0.1-0.1-0.4,0-0.5l9.3-9.6c0.1-0.1,0.1-0.4,0-0.5
		l-2.6-2.5c-0.1-0.1-0.4-0.1-0.5,0l-9.3,9.6c-0.1,0.1-0.4,0.1-0.5,0l-2.4-2.3c-0.2-0.2-0.5-0.1-0.6,0.2l-2.6,11
		C10.4,53.6,10.7,53.8,10.9,53.7z"/>
	
		<linearGradient id="SVGID_6_" gradientUnits="userSpaceOnUse" x1="126.8977" y1="34.8274" x2="98.0228" y2="34.7046" gradientTransform="matrix(-0.7137 -0.7005 0.7005 -0.7137 102.1438 152.6376)">
		<stop  offset="0" style="stop-color:#F2F2F2"/>
		<stop  offset="1" style="stop-color:#7E7E7E"/>
	</linearGradient>
	<path class="st5" d="M34.5,37.9l2.8,11c0.1,0.3,0.4,0.4,0.6,0.2l2.3-2.4c0.1-0.1,0.4-0.1,0.5,0l9.6,9.3c0.1,0.1,0.4,0.1,0.5,0
		l2.5-2.6c0.1-0.1,0.1-0.4,0-0.5l-9.6-9.3c-0.1-0.1-0.1-0.4,0-0.5l2.3-2.4c0.2-0.2,0.1-0.5-0.2-0.6l-11-2.6
		C34.7,37.4,34.4,37.6,34.5,37.9z"/>
	<rect x="0" class="st6" width="64" height="64"/>
</g>
</svg>
