<?xml version="1.0" encoding="utf-8"?>
<!-- Generator: Adobe Illustrator 25.0.0, SVG Export Plug-In . SVG Version: 6.00 Build 0)  -->
<svg version="1.1" id="ApplicationLifecycleComponent_x5F_64"
	 xmlns="http://www.w3.org/2000/svg" xmlns:xlink="http://www.w3.org/1999/xlink" x="0px" y="0px" viewBox="0 0 64 64"
	 style="enable-background:new 0 0 64 64;" xml:space="preserve">
<style type="text/css">
	.st0{fill:url(#SVGID_1_);}
	.st1{fill:url(#SVGID_2_);}
	.st2{fill:url(#SVGID_3_);}
	.st3{fill:url(#SVGID_4_);}
	.st4{fill:none;}
</style>
<g>
	<linearGradient id="SVGID_1_" gradientUnits="userSpaceOnUse" x1="37.3697" y1="42.3236" x2="52.0575" y2="42.3236">
		<stop  offset="0" style="stop-color:#808080"/>
		<stop  offset="1" style="stop-color:#CCCCCC"/>
	</linearGradient>
	<path class="st0" d="M48.1,33c-0.1,3.9-1.7,7.5-4.7,10.4c-0.2,0.2-0.6,0.2-0.8,0L38.3,39c-0.3-0.3-0.9-0.1-0.9,0.4v12.3
		c0,0.3,0.2,0.5,0.5,0.5h12.3c0.5,0,0.7-0.6,0.4-0.9l-4.3-4.3c-0.2-0.2-0.2-0.5,0-0.8c3.6-3.7,5.7-8.2,5.8-13.2
		c0-0.3-0.2-0.6-0.6-0.6h-2.9C48.3,32.4,48.1,32.7,48.1,33z"/>
	<linearGradient id="SVGID_2_" gradientUnits="userSpaceOnUse" x1="33.4944" y1="13.1061" x2="52.1891" y2="24.6008">
		<stop  offset="0" style="stop-color:#B3B3B3"/>
		<stop  offset="1" style="stop-color:#F2F2F2"/>
	</linearGradient>
	<path class="st1" d="M32,12.9v2.9c0,0.3,0.2,0.5,0.5,0.5C36.4,16.5,40,18,42.9,21c0.2,0.2,0.2,0.6,0,0.8l-4.3,4.3
		c-0.3,0.3-0.1,0.9,0.4,0.9h12.3c0.3,0,0.5-0.2,0.5-0.5V14c0-0.5-0.6-0.7-0.9-0.4l-4.3,4.3c-0.2,0.2-0.5,0.2-0.8,0
		c-3.7-3.6-8.2-5.4-13.2-5.6C32.3,12.4,32,12.6,32,12.9z"/>
	<linearGradient id="SVGID_3_" gradientUnits="userSpaceOnUse" x1="12.2168" y1="45.1467" x2="32" y2="45.1467">
		<stop  offset="0" style="stop-color:#666666"/>
		<stop  offset="1" style="stop-color:#808080"/>
	</linearGradient>
	<path class="st2" d="M31.5,48.5c-3.9-0.1-7.5-1.7-10.4-4.7c-0.2-0.2-0.2-0.6,0-0.8l4.3-4.3c0.3-0.3,0.1-0.9-0.4-0.9H12.8
		c-0.3,0-0.5,0.2-0.5,0.5v12.3c0,0.5,0.6,0.7,0.9,0.4l4.3-4.3c0.2-0.2,0.5-0.2,0.8,0c3.7,3.6,8.2,5.7,13.2,5.8
		c0.3,0,0.6-0.2,0.6-0.6v-2.9C32,48.8,31.8,48.5,31.5,48.5z"/>
	<linearGradient id="SVGID_4_" gradientUnits="userSpaceOnUse" x1="23.5278" y1="12.4823" x2="16.3278" y2="25.7454">
		<stop  offset="0" style="stop-color:#666666"/>
		<stop  offset="1" style="stop-color:#808080"/>
	</linearGradient>
	<path class="st3" d="M15.9,31.9c0.1-3.9,1.7-7.5,4.7-10.4c0.2-0.2,0.6-0.2,0.8,0l4.3,4.3c0.3,0.3,0.9,0.1,0.9-0.4V13.2
		c0-0.3-0.2-0.5-0.5-0.5H13.5c-0.5,0-0.7,0.6-0.4,0.9l4.3,4.3c0.2,0.2,0.2,0.5,0,0.8c-3.6,3.7-5.4,8.2-5.6,13.2
		c0,0.3,0.2,0.6,0.6,0.6h2.9C15.7,32.4,15.9,32.2,15.9,31.9z"/>
	<rect x="0" class="st4" width="64" height="64"/>
</g>
</svg>
