<svg width="16" height="16" viewBox="0 0 16 16" fill="none" xmlns="http://www.w3.org/2000/svg">
<path d="M13.6999 8C13.6999 9.5 13.0999 10.9 11.8999 12L9.8999 10V15H14.8999L12.8999 13C14.2999 11.6 15.0999 9.9 15.0999 8H13.6999Z" fill="white"/>
<path d="M8 0.900391V2.30039C9.5 2.30039 10.9 2.90039 12 4.10039L10 6.10039H15V1.00039L13 3.00039C11.6 1.60039 9.9 0.900391 8 0.900391Z" fill="white"/>
<path opacity="0.5" d="M8 13.7004C6.5 13.7004 5.1 13.1004 4 11.9004L6 9.90039H1V14.9004L3 12.9004C4.4 14.3004 6.1 15.1004 8 15.1004V13.7004Z" fill="white"/>
<path opacity="0.5" d="M2.2999 8C2.2999 6.5 2.8999 5.1 4.0999 4L6.0999 6V1H0.999902L2.9999 3C1.5999 4.4 0.899902 6.1 0.899902 8H2.2999Z" fill="white"/>
</svg>
