<svg width="64" height="64" viewBox="0 0 64 64" fill="none" xmlns="http://www.w3.org/2000/svg">
<path fill-rule="evenodd" clip-rule="evenodd" d="M31.5106 11.2C33.3306 22.64 32.5106 25.1999 20.3306 32.2599C23.669 29.827 26.4103 26.6668 28.3472 23.0182C30.2841 19.3696 31.3658 15.3283 31.5106 11.2Z" fill="url(#paint0_linear)"/>
<path fill-rule="evenodd" clip-rule="evenodd" d="M14.6508 5.8999C31.5408 23.5799 22.4508 29.1799 18.5508 32.4099C18.8108 31.8599 24.5308 27.2199 14.6508 5.8999Z" fill="url(#paint1_linear)"/>
<path fill-rule="evenodd" clip-rule="evenodd" d="M18.6001 26.0001C18.8101 27.9001 17.8201 32.2401 17.8201 32.2401C16.2601 26.5201 16.5201 22.8801 6.12012 15.0801C18.6001 18.0001 18.3901 24.1201 18.6001 26.0001Z" fill="#7F7F7F"/>
<path d="M47.81 33.9302V58.1002L34.71 53.1002V39.0002L47.81 33.9302Z" fill="url(#paint2_linear)"/>
<path d="M57.881 52.0502L47.811 58.1002V33.9302L57.881 40.1402V52.0502Z" fill="url(#paint3_linear)"/>
<g opacity="0.3">
<path opacity="0.3" d="M29.5005 39.9999L27.4305 37.9199C27.1965 37.6898 27.0574 37.3802 27.0408 37.0524C27.0241 36.7246 27.1311 36.4026 27.3405 36.1499C29.0205 34.1499 33.1505 29.1499 35.8205 26.4699C39.2505 23.0499 54.0005 11.7599 54.0005 11.7599C54.2536 11.5909 54.5512 11.5007 54.8555 11.5007C55.1598 11.5007 55.4574 11.5909 55.7105 11.7599C55.8847 12.011 55.978 12.3093 55.978 12.6149C55.978 12.9205 55.8847 13.2188 55.7105 13.4699C55.7105 13.4699 44.3805 28.1899 41.0005 31.6099C38.3305 34.2799 33.3605 38.4099 31.3105 40.0999C31.0531 40.3175 30.7222 40.4283 30.3856 40.4097C30.0491 40.3911 29.7324 40.2445 29.5005 39.9999Z" fill="#050505"/>
<path opacity="0.3" d="M27.0006 41.5701L25.4206 40.0001C25.0383 39.6367 24.528 39.4391 24.0006 39.4501C22.2106 39.5201 18.2606 40.4501 16.7006 46.6701C15.3306 51.4601 8.14062 54.8902 8.14062 54.8902H17.0006C19.0019 54.8119 20.9458 54.1993 22.6304 53.1161C24.315 52.0329 25.6789 50.5185 26.5806 48.7301C27.6664 46.8082 27.981 44.5454 27.4606 42.4002C27.3761 42.0906 27.2183 41.8059 27.0006 41.5701Z" fill="#050505"/>
</g>
<path d="M28.9408 38.1298L26.8708 36.0598C26.6389 35.8286 26.5012 35.5193 26.4846 35.1922C26.468 34.8651 26.5736 34.5435 26.7808 34.2898C28.4608 32.2898 32.5908 27.2898 35.2608 24.5998C38.6908 21.1798 53.4108 9.87984 53.4108 9.87984C53.6635 9.7096 53.9612 9.61865 54.2658 9.61865C54.5705 9.61865 54.8682 9.7096 55.1208 9.87984C55.2907 10.1345 55.3813 10.4337 55.3813 10.7398C55.3813 11.0459 55.2907 11.3452 55.1208 11.5998C55.1208 11.5998 43.8208 26.3098 40.4008 29.7398C37.7308 32.4098 32.7608 36.5398 30.7108 38.2198C30.4572 38.4271 30.1356 38.5327 29.8085 38.5161C29.4814 38.4994 29.1721 38.3618 28.9408 38.1298Z" fill="url(#paint4_linear)"/>
<path d="M26.4005 39.7001L24.8605 38.1601C24.6709 37.9693 24.4448 37.8187 24.1957 37.7173C23.9465 37.6159 23.6795 37.5659 23.4105 37.5701C21.6105 37.6401 17.6605 38.5701 16.1005 44.8001C14.7305 49.5901 7.54053 53.0001 7.54053 53.0001H16.4405C18.4376 52.9203 20.377 52.308 22.0579 51.2267C23.7387 50.1454 25.1 48.6343 26.0005 46.8501C27.0921 44.9301 27.407 42.665 26.8805 40.5201C26.791 40.2112 26.626 39.9294 26.4005 39.7001Z" fill="url(#paint5_linear)"/>
<defs>
<linearGradient id="paint0_linear" x1="32.4606" y1="15.92" x2="22.2306" y2="29.57" gradientUnits="userSpaceOnUse">
<stop stop-color="white"/>
<stop offset="1" stop-color="#808080"/>
</linearGradient>
<linearGradient id="paint1_linear" x1="18.9108" y1="8.6299" x2="21.3708" y2="29.0799" gradientUnits="userSpaceOnUse">
<stop offset="0.6" stop-color="white"/>
<stop offset="1" stop-color="#808080"/>
</linearGradient>
<linearGradient id="paint2_linear" x1="34.71" y1="46.0102" x2="47.81" y2="46.0102" gradientUnits="userSpaceOnUse">
<stop stop-color="#CCCCCC"/>
<stop offset="1" stop-color="#F2F2F2"/>
</linearGradient>
<linearGradient id="paint3_linear" x1="47.811" y1="46.0102" x2="57.881" y2="46.0102" gradientUnits="userSpaceOnUse">
<stop stop-color="#B3B3B3"/>
<stop offset="1" stop-color="#666666"/>
</linearGradient>
<linearGradient id="paint4_linear" x1="26.9408" y1="37.0598" x2="58.2308" y2="8.71984" gradientUnits="userSpaceOnUse">
<stop stop-color="#F2F2F2"/>
<stop offset="1" stop-color="#999999"/>
</linearGradient>
<linearGradient id="paint5_linear" x1="25.4405" y1="41.2701" x2="9.14053" y2="54.9501" gradientUnits="userSpaceOnUse">
<stop stop-color="#F2F2F2"/>
<stop offset="1" stop-color="#CCCCCC"/>
</linearGradient>
</defs>
</svg>
