<?xml version="1.0" encoding="utf-8"?>
<!-- Generator: Adobe Illustrator 24.2.3, SVG Export Plug-In . SVG Version: 6.00 Build 0)  -->
<svg version="1.1" id="Layer_1" xmlns="http://www.w3.org/2000/svg" xmlns:xlink="http://www.w3.org/1999/xlink" x="0px" y="0px"
	 viewBox="0 0 64 64" style="enable-background:new 0 0 64 64;" xml:space="preserve">
<style type="text/css">
	.st0{fill:none;}
	.st1{fill:#FFFFFF;}
	.st2{fill:url(#SVGID_1_);}
	.st3{fill:url(#SVGID_2_);}
	.st4{fill:url(#SVGID_3_);}
	.st5{fill:url(#SVGID_4_);}
</style>
<g id="AtmosphericFog_x5F_64">
	<g>
		<rect class="st0" width="64" height="64"/>
		<path class="st1" d="M57.9,27c0-5.4-4.5-8.8-9.7-7.6c5.2-7.7-2.4-14.9-9.2-14.9c-8.3,0-15.2,6.2-10.9,15.4
			c-7.5-12.7-22.5-3.8-15,8.1C7.7,26.8,6,29.7,6,31.6c0,2.7,2.1,3.6,4.5,3.6c0.4,0,0,0,0,0h38.9c0.4,0-0.4,0,0,0
			C55,35.3,58.3,32.4,57.9,27z"/>
		
			<linearGradient id="SVGID_1_" gradientUnits="userSpaceOnUse" x1="31.4728" y1="229.4411" x2="31.4277" y2="233.4143" gradientTransform="matrix(1 0 0 1 0 -190)">
			<stop  offset="0" style="stop-color:#FFFFFF"/>
			<stop  offset="0.5615" style="stop-color:#BFBFBF"/>
			<stop  offset="1" style="stop-color:#808080"/>
		</linearGradient>
		<path class="st2" d="M53.8,39.7H9.2c-0.8,0-1.4,0.6-1.4,1.4v0.7c0,0.8,0.6,1.4,1.4,1.4h44.5c0.8,0,1.4-0.6,1.4-1.4v-0.7
			C55.2,40.3,54.5,39.7,53.8,39.7z"/>
		
			<linearGradient id="SVGID_2_" gradientUnits="userSpaceOnUse" x1="31.4732" y1="237.2092" x2="31.4281" y2="241.1824" gradientTransform="matrix(1 0 0 1 0 -190)">
			<stop  offset="0" style="stop-color:#FFFFFF"/>
			<stop  offset="0.5615" style="stop-color:#BFBFBF"/>
			<stop  offset="1" style="stop-color:#808080"/>
		</linearGradient>
		<path class="st3" d="M53.8,47.5H9.2c-0.8,0-1.4,0.6-1.4,1.4v0.7c0,0.8,0.6,1.4,1.4,1.4h44.5c0.8,0,1.4-0.6,1.4-1.4v-0.7
			C55.2,48.1,54.5,47.5,53.8,47.5z"/>
		
			<linearGradient id="SVGID_3_" gradientUnits="userSpaceOnUse" x1="31.4729" y1="244.8301" x2="31.4278" y2="248.8032" gradientTransform="matrix(1 0 0 1 0 -190)">
			<stop  offset="0" style="stop-color:#FFFFFF"/>
			<stop  offset="0.5615" style="stop-color:#BFBFBF"/>
			<stop  offset="1" style="stop-color:#808080"/>
		</linearGradient>
		<path class="st4" d="M53.8,55.1H9.2c-0.8,0-1.4,0.6-1.4,1.4v0.7c0,0.8,0.6,1.4,1.4,1.4h44.5c0.8,0,1.4-0.6,1.4-1.4v-0.7
			C55.2,55.7,54.5,55.1,53.8,55.1z"/>
		
			<linearGradient id="SVGID_4_" gradientUnits="userSpaceOnUse" x1="32.1436" y1="195.8249" x2="31.803" y2="225.7971" gradientTransform="matrix(1 0 0 1 0 -190)">
			<stop  offset="0" style="stop-color:#FFFFFF"/>
			<stop  offset="0.5615" style="stop-color:#BFBFBF"/>
			<stop  offset="1" style="stop-color:#808080"/>
		</linearGradient>
		<path class="st5" d="M57.2,27.8c0-5.2-5.3-8.5-10.2-7.4c4.9-7.4-1.9-14.5-8.3-14.5c-7.9,0-13.2,7.8-9.1,16.7
			C22.4,10.4,6.9,17,14.1,28.5c-5.3-1.1-7.6,1.9-7.6,3.7c0,2.6,2.6,3.3,4.9,3.3c0.4,0,0,0,0,0h37.1c0.4,0-0.4,0,0,0
			C53.8,35.6,57.6,33,57.2,27.8z"/>
	</g>
</g>
</svg>
