<?xml version="1.0" encoding="utf-8"?>
<!-- Generator: Adobe Illustrator 24.3.0, SVG Export Plug-In . SVG Version: 6.00 Build 0)  -->
<svg version="1.1" id="BlackboardData_x5F_64" xmlns="http://www.w3.org/2000/svg" xmlns:xlink="http://www.w3.org/1999/xlink"
	 x="0px" y="0px" viewBox="0 0 64 64" style="enable-background:new 0 0 64 64;" xml:space="preserve">
<style type="text/css">
	.st0{fill:none;}
	.st1{fill:url(#SVGID_1_);}
	.st2{fill:url(#SVGID_2_);}
	.st3{fill:url(#SVGID_3_);}
	.st4{fill:url(#SVGID_4_);}
	.st5{fill:url(#SVGID_5_);}
	.st6{fill:url(#SVGID_6_);}
	.st7{fill:#FFFFFF;}
</style>
<g>
	<rect x="0" class="st0" width="64" height="64"/>
	<linearGradient id="SVGID_1_" gradientUnits="userSpaceOnUse" x1="32.2223" y1="44.6382" x2="31.7466" y2="10.7456">
		<stop  offset="5.076142e-03" style="stop-color:#666666"/>
		<stop  offset="1" style="stop-color:#B3B3B3"/>
	</linearGradient>
	<path class="st1" d="M34.1,10h-3.7l-1,35.7h5.7L34.1,10z"/>
	<linearGradient id="SVGID_2_" gradientUnits="userSpaceOnUse" x1="32.237" y1="15.6013" x2="32.237" y2="44.154">
		<stop  offset="0" style="stop-color:#F2F2F2"/>
		<stop  offset="1" style="stop-color:#B3B3B3"/>
	</linearGradient>
	<path class="st2" d="M55.1,15.6H9.4v28.6h45.7V15.6z"/>
	<linearGradient id="SVGID_3_" gradientUnits="userSpaceOnUse" x1="24.4901" y1="55.7743" x2="24.4901" y2="49.1422">
		<stop  offset="0" style="stop-color:#666666"/>
		<stop  offset="1" style="stop-color:#B3B3B3"/>
	</linearGradient>
	<path class="st3" d="M28.1,47.1h-4.3l-2.9,8.6h2.3L28.1,47.1z"/>
	<linearGradient id="SVGID_4_" gradientUnits="userSpaceOnUse" x1="40.1551" y1="55.7937" x2="40.2221" y2="48.2238">
		<stop  offset="0" style="stop-color:#666666"/>
		<stop  offset="1" style="stop-color:#B3B3B3"/>
	</linearGradient>
	<path class="st4" d="M40.9,47.1h-4.3l4.9,8.6h2.3L40.9,47.1z"/>
	<linearGradient id="SVGID_5_" gradientUnits="userSpaceOnUse" x1="32.2398" y1="48.7394" x2="32.1945" y2="45.5121">
		<stop  offset="0" style="stop-color:#666666"/>
		<stop  offset="1" style="stop-color:#B3B3B3"/>
	</linearGradient>
	<path class="st5" d="M44.5,45.7H20l-2,2.9h28.6L44.5,45.7z"/>
	<linearGradient id="SVGID_6_" gradientUnits="userSpaceOnUse" x1="32.237" y1="19.4153" x2="32.237" y2="42.2775">
		<stop  offset="0" style="stop-color:#4D4D4D"/>
		<stop  offset="1" style="stop-color:#000000"/>
	</linearGradient>
	<path class="st6" d="M52.9,17.5H11.5v24.8h41.4V17.5z"/>
	<g>
		<path class="st7" d="M21,33.5c0.4-1.5,0.9-2.9,1.3-4.4l0.7-2.2c0.2-0.7,0.5-1.5,0.8-2.2l0,0c0.1-0.3,0.4-0.4,0.7-0.3
			c0.1,0,0.2,0.1,0.3,0.2l6.4,11.4l-0.9,0.1l3.2-14.3c0.1-0.3,0.3-0.4,0.6-0.4c0.2,0,0.3,0.1,0.3,0.3l6.4,14.3l-0.9,0
			c0.2-0.7,0.5-1.4,0.8-2.1l0.9-2.1c0.6-1.4,1.2-2.8,1.9-4.2c-0.4,1.5-0.9,2.9-1.3,4.4l-0.7,2.2c-0.2,0.7-0.5,1.5-0.8,2.2l0,0
			c-0.1,0.3-0.4,0.4-0.7,0.3c-0.1-0.1-0.2-0.1-0.3-0.3l-6.4-14.3l0.9-0.1l-3.2,14.3c-0.1,0.3-0.3,0.4-0.6,0.4
			c-0.1,0-0.3-0.1-0.3-0.2l-6.4-11.4l0.9-0.1c-0.2,0.7-0.5,1.4-0.8,2.1l-0.9,2.1C22.3,30.7,21.7,32.1,21,33.5z"/>
	</g>
</g>
</svg>
