<svg width="16" height="16" viewBox="0 0 16 16" fill="none" xmlns="http://www.w3.org/2000/svg">
<path fill-rule="evenodd" clip-rule="evenodd" d="M12 10H11C10.4 10 10 9.6 10 9V6C10 5.4 10.4 5 11 5H12C12.6 5 13 5.4 13 6V9C13 9.6 12.6 10 12 10Z" fill="white"/>
<path fill-rule="evenodd" clip-rule="evenodd" d="M15.6004 3.1L13.0004 5.8C12.8004 6 12.5004 6 12.3004 5.8C12.1004 5.6 12.1004 5.3 12.3004 5.1L15.0004 2.4C15.2004 2.2 15.5004 2.2 15.7004 2.4C15.8004 2.6 15.8004 2.9 15.6004 3.1Z" fill="white"/>
<path fill-rule="evenodd" clip-rule="evenodd" d="M10.1001 5.89961L7.5001 3.19961C7.3001 2.99961 7.3001 2.69961 7.5001 2.49961C7.7001 2.29961 8.0001 2.29961 8.2001 2.49961L10.9001 5.19961C11.1001 5.39961 11.1001 5.69961 10.9001 5.89961C10.6001 6.09961 10.3001 6.09961 10.1001 5.89961Z" fill="white"/>
<path fill-rule="evenodd" clip-rule="evenodd" d="M11 8.5V14.5C11 14.8 10.8 15 10.5 15C10.2 15 10 14.8 10 14.5V8.5C10 8.2 10.2 8 10.5 8C10.8 8 11 8.2 11 8.5Z" fill="white"/>
<path fill-rule="evenodd" clip-rule="evenodd" d="M13 8.5V12H12V8.5C12 8.2 12.2 8 12.5 8C12.8 8 13 8.2 13 8.5Z" fill="white"/>
<path d="M11.4998 4.4C12.4387 4.4 13.1998 3.63888 13.1998 2.7C13.1998 1.76112 12.4387 1 11.4998 1C10.5609 1 9.7998 1.76112 9.7998 2.7C9.7998 3.63888 10.5609 4.4 11.4998 4.4Z" fill="white"/>
<path opacity="0.5" fill-rule="evenodd" clip-rule="evenodd" d="M8.6001 7.9L5.9001 5.2C5.8001 5.1 5.6001 5.1 5.4001 5.1C5.3001 5 5.2001 5 5.0001 5H4.0001C3.9001 5 3.8001 5 3.7001 5.1C3.5001 5 3.3001 5 3.1001 5.2L0.500098 7.8C0.300098 8 0.300098 8.3 0.500098 8.5C0.700098 8.7 1.0001 8.7 1.2001 8.5L3.0001 6.8V8.6V9V14.5C3.0001 14.8 3.2001 15 3.5001 15C3.8001 15 4.0001 14.8 4.0001 14.5V10H5.0001V14.5C5.0001 14.8 5.2001 15 5.5001 15C5.8001 15 6.0001 14.8 6.0001 14.5V9V8.5V6.8L7.9001 8.7C8.1001 8.9 8.4001 8.9 8.6001 8.7C8.8001 8.5 8.8001 8.1 8.6001 7.9Z" fill="white"/>
<path opacity="0.5" fill-rule="evenodd" clip-rule="evenodd" d="M4.4998 4.4C5.3998 4.4 6.1998 3.6 6.1998 2.7C6.1998 1.8 5.3998 1 4.4998 1C3.5998 1 2.7998 1.8 2.7998 2.7C2.7998 3.6 3.5998 4.4 4.4998 4.4Z" fill="white"/>
<path d="M12.9999 15.9996H12.5999V13.4996L11.8999 13.7996V13.4996L12.8999 13.0996H12.9999V15.9996Z" fill="white"/>
<path d="M14 16V13H14.8C15 13 15.3 13.1 15.4 13.2C15.6 13.3 15.7 13.5 15.8 13.7C15.9 13.9 16 14.2 16 14.4V14.6C16 14.9 15.9 15.1 15.8 15.3C15.7 15.5 15.6 15.7 15.4 15.8C15.2 15.9 15 16 14.8 16H14ZM14.4 13.3V15.7H14.8C15.1 15.7 15.3 15.6 15.5 15.4C15.7 15.2 15.7 14.9 15.7 14.6V14.4C15.7 14.1 15.6 13.8 15.5 13.6C15.4 13.4 15.1 13.3 14.9 13.3H14.4Z" fill="white"/>
</svg>
