<?xml version="1.0" encoding="utf-8"?>
<!-- Generator: Adobe Illustrator 25.0.0, SVG Export Plug-In . SVG Version: 6.00 Build 0)  -->
<svg version="1.1" id="BlendSpace_x5F_64" xmlns="http://www.w3.org/2000/svg" xmlns:xlink="http://www.w3.org/1999/xlink" x="0px"
	 y="0px" viewBox="0 0 64 64" style="enable-background:new 0 0 64 64;" xml:space="preserve">
<style type="text/css">
	.st0{fill-rule:evenodd;clip-rule:evenodd;fill:url(#SVGID_1_);}
	.st1{fill-rule:evenodd;clip-rule:evenodd;fill:url(#SVGID_2_);enable-background:new    ;}
	.st2{fill:url(#SVGID_3_);}
	.st3{fill:url(#SVGID_4_);}
	.st4{fill:none;}
</style>
<g>
	<linearGradient id="SVGID_1_" gradientUnits="userSpaceOnUse" x1="42.6498" y1="50.0407" x2="42.301" y2="22.4053">
		<stop  offset="0" style="stop-color:#999999"/>
		<stop  offset="0.591" style="stop-color:#C9C9C9"/>
		<stop  offset="1" style="stop-color:#E6E6E6"/>
	</linearGradient>
	<path class="st0" d="M54.3,15.7c-0.6-0.6-1.5-0.6-2,0l-7.8,7.8c-0.3-0.1-0.6-0.2-1-0.2h-2.9c-0.3,0-0.5,0-0.8,0.1L32.4,16
		c-0.6-0.6-1.5-0.6-2,0c-0.6,0.6-0.6,1.5,0,2l7.4,7.6c0,0.2,0,0.4,0,0.5v7.3V35V51c0,0.9,0.6,1.5,1.5,1.5s1.5-0.6,1.5-1.5V37.9h2.9
		V51c0,0.9,0.6,1.5,1.5,1.5s1.5-0.6,1.5-1.5V35v-1.5v-7.3c0-0.2,0-0.4,0-0.6c0,0,0,0,0,0l7.6-7.9C54.6,17.1,54.6,16.3,54.3,15.7z"/>
	<linearGradient id="SVGID_2_" gradientUnits="userSpaceOnUse" x1="21.7475" y1="23.1544" x2="21.7475" y2="50.7898">
		<stop  offset="0" style="stop-color:#808080"/>
		<stop  offset="1" style="stop-color:#4D4D4D"/>
	</linearGradient>
	<path class="st1" d="M23.1,23.3h-2.9c0,0-1.9-0.1-2.6,0.6l-7.6,7.6c-0.6,0.6-0.6,1.5,0,2c0.6,0.6,1.5,0.6,2,0l5.3-5v5.3V35V51
		c0,0.9,0.6,1.5,1.5,1.5c0.9,0,1.5-0.6,1.5-1.5V37.9h2.9V51c0,0.9,0.6,1.5,1.5,1.5S26,51.9,26,51V35v-1.5v-5l5.6,5.6
		c0.6,0.6,1.5,0.6,2,0c0.6-0.6,0.6-1.8,0-2.3l-7.9-7.9C25.2,23,23.1,23.3,23.1,23.3z"/>
	<radialGradient id="SVGID_3_" cx="22.9025" cy="14.4039" r="7.1661" gradientUnits="userSpaceOnUse">
		<stop  offset="0" style="stop-color:#B3B3B3"/>
		<stop  offset="0.3203" style="stop-color:#9D9D9D"/>
		<stop  offset="0.7861" style="stop-color:#808080"/>
		<stop  offset="1" style="stop-color:#666666"/>
	</radialGradient>
	<path class="st2" d="M21.7,21.6c2.8,0,5-2.3,5-5s-2.3-5-5-5s-5,2.3-5,5S19,21.6,21.7,21.6z"/>
	<radialGradient id="SVGID_4_" cx="43.3845" cy="14.4039" r="7.1661" gradientUnits="userSpaceOnUse">
		<stop  offset="0" style="stop-color:#F2F2F2"/>
		<stop  offset="0.1771" style="stop-color:#E9E9E9"/>
		<stop  offset="0.7861" style="stop-color:#CCCCCC"/>
		<stop  offset="1" style="stop-color:#999999"/>
	</radialGradient>
	<path class="st3" d="M42.2,21.6c2.8,0,5-2.3,5-5s-2.3-5-5-5s-5,2.3-5,5S39.4,21.6,42.2,21.6z"/>
	<rect x="0" class="st4" width="64" height="64"/>
</g>
</svg>
