<svg width="16" height="16" viewBox="0 0 16 16" fill="none" xmlns="http://www.w3.org/2000/svg">
<path opacity="0.5" d="M3 0L0 3H13V16L16 13V0H3Z" fill="white"/>
<path d="M13 15H1V3H0V16H13V15Z" fill="white"/>
<path d="M11.7 8.40002C11.2 8.10002 10.9 8.5 10.9 8.5L9.5 10.8H9V5C9 5 9 4.5 8.5 4.5C8 4.5 8 5 8 5V9.20001C8 9.20001 7.8 9.70001 7.5 9.70001C7.2 9.70001 7 9.20001 7 9.20001V5C7 5 7 4.5 6.5 4.5C6 4.5 6 5 6 5V9.20001C6 9.20001 5.8 9.70001 5.5 9.70001C5.2 9.70001 5 9.20001 5 9.20001V5C5 5 5 4.5 4.5 4.5C4 4.5 4 5 4 5V9.5V12C4 12.9 4.8 14 5.7 14H7.6C8.7 14 9.2 13.7 10.1 12.4C11 10.8 11.9 9.20001 11.9 9.20001C11.9 9.20001 12.1 8.70002 11.7 8.40002Z" fill="white"/>
</svg>
