<svg width="16" height="16" viewBox="0 0 16 16" fill="none" xmlns="http://www.w3.org/2000/svg">
<path d="M13.9998 6.5C14.0998 6.3 14.1998 6.2 14.2998 6.2C14.3998 6.3 14.3998 6.4 14.4998 6.4C14.5998 6.5 14.5998 6.6 14.6998 6.7C14.7998 6.8 14.8998 6.9 14.9998 6.9C15.0998 7 15.1998 7 15.2998 7C15.4998 7 15.6998 6.9 15.7998 6.8C15.8998 6.6 15.9998 6.5 15.9998 6.3C15.9998 6.1 15.8998 6 15.8998 5.9C15.8998 5.8 15.7998 5.8 15.7998 5.7C15.7998 5.7 15.6998 5.7 15.6998 5.6C15.6998 5.6 15.5998 5.6 15.4998 5.5C15.4998 5.5 15.4998 5.5 15.3998 5.5C15.2998 5.5 15.1998 5.5 15.0998 5.5C14.7998 5.5 14.5998 5.6 14.2998 5.7C13.9998 5.8 13.7998 6 13.5998 6.2C13.3998 6.4 13.1998 6.7 12.9998 7C12.7998 7.3 12.6998 7.7 12.5998 8L12.4998 8.3H10.4998L10.3998 8.8H12.3998L11.4998 13.1C11.3998 13.7 11.1998 14.2 10.9998 14.5C10.7998 14.8 10.5998 15 10.2998 15C10.2998 14.9 10.1998 14.9 10.1998 14.8C10.1998 14.7 10.0998 14.5 10.0998 14.4C9.9998 14.2 9.9998 14.1 9.8998 14C9.7998 14.1 9.6998 14 9.4998 14C9.3998 13.9 9.1998 13.9 9.0998 13.9C8.7998 13.9 8.6998 14 8.4998 14.2C8.3998 14.4 8.2998 14.6 8.2998 14.8C8.2998 15.1 8.3998 15.3 8.5998 15.4C8.7998 15.6 9.0998 15.7 9.5998 15.7C9.6998 15.7 9.6998 15.7 9.6998 15.7H9.7998C10.2998 15.7 10.8998 15.5 11.3998 15C11.8998 14.5 12.1998 13.9 12.3998 13.2L13.2998 9.1H15.5998L15.6998 8.6H13.3998L13.4998 8.1C13.6998 7.3 13.7998 6.8 13.9998 6.5Z" fill="white"/>
<path d="M16 1V3C16 3.6 15.6 4 15 4H12C11.4 4 11 3.6 11 3V1C11 0.4 11.4 0 12 0H15C15.6 0 16 0.4 16 1Z" fill="white"/>
<path d="M5 5V7C5 7.6 4.6 8 4 8H1C0.4 8 0 7.6 0 7V5C0 4.4 0.4 4 1 4H4C4.6 4 5 4.4 5 5Z" fill="white"/>
<path opacity="0.5" d="M12 3V2H8C7.5 2 7 2.5 7 3V6H4V7H7V10C7 10.6 7.5 11 8 11H10V10H8.6C8.3 10 8 9.7 8 9.4V3.6C8 3.3 8.3 3 8.6 3H12Z" fill="white"/>
</svg>
