<svg width="16" height="16" viewBox="0 0 16 16" fill="none" xmlns="http://www.w3.org/2000/svg">
<path opacity="0.5" d="M12 5V4H8C7.4 4 7 4.5 7 5V8H4V9H7V12C7 12.6 7.5 13 8 13H12V12H8.60001C8.30001 12 8 11.7 8 11.4V5.6C8 5.3 8.30001 5 8.60001 5H12Z" fill="white"/>
<path d="M15.5 3V5C15.5 5.18638 15.4401 5.30284 15.3714 5.37145C15.3028 5.44006 15.1864 5.5 15 5.5H12C11.8136 5.5 11.6972 5.44006 11.6286 5.37145C11.5599 5.30284 11.5 5.18638 11.5 5V3C11.5 2.81362 11.5599 2.69716 11.6286 2.62855C11.6972 2.55994 11.8136 2.5 12 2.5H15C15.1864 2.5 15.3028 2.55994 15.3714 2.62855C15.4401 2.69716 15.5 2.81362 15.5 3Z" stroke="white"/>
<path d="M15.5 11V13C15.5 13.1864 15.4401 13.3028 15.3714 13.3714C15.3028 13.4401 15.1864 13.5 15 13.5H12C11.8136 13.5 11.6972 13.4401 11.6286 13.3714C11.5599 13.3028 11.5 13.1864 11.5 13V11C11.5 10.8136 11.5599 10.6972 11.6286 10.6286C11.6972 10.5599 11.8136 10.5 12 10.5H15C15.1864 10.5 15.3028 10.5599 15.3714 10.6286C15.4401 10.6972 15.5 10.8136 15.5 11Z" stroke="white"/>
<path d="M4.5 7V9C4.5 9.18638 4.44006 9.30284 4.37145 9.37145C4.30284 9.44006 4.18638 9.5 4 9.5H1C0.813624 9.5 0.697164 9.44006 0.628553 9.37145C0.559943 9.30284 0.5 9.18638 0.5 9V7C0.5 6.81362 0.559943 6.69716 0.628553 6.62855C0.697164 6.55994 0.813624 6.5 1 6.5H4C4.18638 6.5 4.30284 6.55994 4.37145 6.62855C4.44006 6.69716 4.5 6.81362 4.5 7Z" stroke="white"/>
</svg>
