<svg width="17" height="16" viewBox="0 0 17 16" fill="none" xmlns="http://www.w3.org/2000/svg">
<path d="M9.9375 7.5175L11.0625 12.7881L13.6219 7.34312C13.6849 7.23957 13.7731 7.15374 13.8784 7.09372C13.9837 7.03369 14.1026 7.00144 14.2238 7H16.125L15.9338 7.50063C15.9338 7.50063 15.0956 7.585 15.0619 7.91688C15.0281 8.24875 14.4375 14.5037 14.3981 14.9481C14.3588 15.3925 15.1856 15.5106 15.1856 15.5106L15.0956 15.9944H13.2225C13.1573 15.9867 13.0943 15.9662 13.0371 15.934C12.9799 15.9017 12.9296 15.8585 12.8893 15.8066C12.849 15.7548 12.8194 15.6955 12.8023 15.6321C12.7851 15.5687 12.7807 15.5026 12.7894 15.4375L13.5544 8.98L11.0625 14.0706C10.95 14.3294 10.5394 14.7175 10.2919 14.7119H9.79688L8.84063 8.60875L7.42875 15.6569C7.41717 15.7476 7.37434 15.8315 7.30761 15.8942C7.24089 15.9568 7.15444 15.9942 7.06313 16H6L6.06188 15.4881C6.06188 15.4881 6.68062 15.4881 6.73125 15.2631C6.78187 15.0381 8.41875 7.99 8.48062 7.7425C8.5425 7.495 7.79438 7.45562 7.79438 7.45562L7.94625 7H9.16125C9.42562 7 9.8925 7.21375 9.9375 7.5175Z" fill="white"/>
<path d="M16 1V3C16 3.6 15.6 4 15 4H12C11.4 4 11 3.6 11 3V1C11 0.4 11.4 0 12 0H15C15.6 0 16 0.4 16 1Z" fill="white"/>
<path d="M5 5V7C5 7.6 4.6 8 4 8H1C0.4 8 0 7.6 0 7V5C0 4.4 0.4 4 1 4H4C4.6 4 5 4.4 5 5Z" fill="white"/>
<path opacity="0.5" d="M12 3V2H8C7.5 2 7 2.5 7 3V6H4V7H7L8 6V3.6C8 3.3 8.3 3 8.6 3H12Z" fill="white"/>
</svg>
