<svg width="64" height="64" viewBox="0 0 64 64" fill="none" xmlns="http://www.w3.org/2000/svg">
<path d="M41.7 23V20.2H31.4C29.7 20.2 28.6 21.6 28.6 23V31.5H23.1V34.2999H28.6V42.7999C28.6 44.5 30 45.5999 31.4 45.5999H41.7V42.7999H33.1C32.3 42.7999 31.4 41.9999 31.4 41.0999V24.7C31.4 23.9 32.2 23 33.1 23H41.7Z" fill="#7F7F7F"/>
<path d="M25.9 31.5H22.9V34.3H25.9V31.5Z" fill="url(#paint0_linear)"/>
<path d="M22.4 28.9V36.7999C22.4 37.4238 21.8238 38 21.2 38H10.5C9.87613 38 9.29999 37.4238 9.29999 36.7999V28.9C9.29999 28.2761 9.87613 27.7 10.5 27.7H21.2C21.5802 27.7 21.8739 27.831 22.0714 28.0285C22.269 28.226 22.4 28.5197 22.4 28.9Z" stroke="white"/>
<path d="M41.1 20.2101L38.1 20.2001V23H41.1V20.2101Z" fill="url(#paint1_linear)"/>
<path d="M41.1 42.8H38.1V45.6H41.1V42.8Z" fill="url(#paint2_linear)"/>
<path d="M54.6 17.6V25.5C54.6 26.1239 54.0239 26.7 53.4 26.7H42.7C42.0761 26.7 41.5 26.1239 41.5 25.5V17.6C41.5 16.9762 42.0761 16.4 42.7 16.4H53.4C54.1048 16.4 54.6 16.9567 54.6 17.6Z" stroke="white"/>
<path d="M54.6 40.1V48C54.6 48.6239 54.0239 49.2 53.4 49.2H42.7C42.0761 49.2 41.5 48.6239 41.5 48V40.1C41.5 39.4762 42.0761 38.9 42.7 38.9H53.3737C54.1495 38.987 54.6 39.5064 54.6 40.1Z" stroke="white"/>
<defs>
<linearGradient id="paint0_linear" x1="22.9844" y1="32.8171" x2="25.9927" y2="32.8371" gradientUnits="userSpaceOnUse">
<stop stop-color="#4D4D4D"/>
<stop offset="1" stop-color="#808080"/>
</linearGradient>
<linearGradient id="paint1_linear" x1="41.0156" y1="21.5625" x2="38.0073" y2="21.5425" gradientUnits="userSpaceOnUse">
<stop stop-color="#4D4D4D"/>
<stop offset="1" stop-color="#808080"/>
</linearGradient>
<linearGradient id="paint2_linear" x1="41.0156" y1="44.1106" x2="38.0073" y2="44.0905" gradientUnits="userSpaceOnUse">
<stop stop-color="#4D4D4D"/>
<stop offset="1" stop-color="#808080"/>
</linearGradient>
</defs>
</svg>
