<svg width="16" height="16" viewBox="0 0 16 16" fill="none" xmlns="http://www.w3.org/2000/svg">
<path opacity="0.5" d="M12 5V4H8C7.4 4 7 4.5 7 5V8H4V9H7V12C7 12.6 7.5 13 8 13H12V12H8.60001C8.30001 12 8 11.7 8 11.4V5.6C8 5.3 8.30001 5 8.60001 5H12Z" fill="white"/>
<path d="M16 3V5C16 5.6 15.6 6 15 6H12C11.4 6 11 5.6 11 5V3C11 2.4 11.4 2 12 2H15C15.6 2 16 2.4 16 3Z" fill="white"/>
<path d="M16 11V13C16 13.6 15.6 14 15 14H12C11.4 14 11 13.6 11 13V11C11 10.4 11.4 10 12 10H15C15.6 10 16 10.4 16 11Z" fill="white"/>
<path d="M5 7V9C5 9.6 4.6 10 4 10H1C0.4 10 0 9.6 0 9V7C0 6.4 0.4 6 1 6H4C4.6 6 5 6.4 5 7Z" fill="white"/>
</svg>
