<svg width="64" height="64" viewBox="0 0 64 64" fill="none" xmlns="http://www.w3.org/2000/svg">
<path d="M42.7001 22.9001V20.1001H31.4001C29.7001 20.1001 28.6001 21.5001 28.6001 22.9001V31.4001H20.1001V34.2001H28.6001V42.7001C28.6001 44.4001 30.0001 45.5001 31.4001 45.5001H42.7001V42.7001H33.1001C32.3001 42.7001 31.4001 41.9001 31.4001 41.0001V24.6001C31.4001 23.8001 32.2001 22.9001 33.1001 22.9001H42.7001Z" fill="#7F7F7F"/>
<path d="M25.9 31.4H22.9V34.2H25.9V31.4Z" fill="url(#paint0_linear)"/>
<path d="M22.9 28.8001V36.7001C22.9 37.6001 22.1 38.4001 21.2 38.4001H10.5C9.60005 38.4001 8.80005 37.6001 8.80005 36.7001V28.8001C8.80005 27.9001 9.60005 27.1001 10.5 27.1001H21.2C22.2 27.1001 22.9 27.9001 22.9 28.8001Z" fill="url(#paint1_linear)"/>
<path d="M41.1001 20.1001H38.1001V22.9001H41.1001V20.1001Z" fill="url(#paint2_linear)"/>
<path d="M41.1001 42.6001H38.1001V45.4001H41.1001V42.6001Z" fill="url(#paint3_linear)"/>
<path d="M55.1 17.5V25.4C55.1 26.3 54.3 27.1 53.4 27.1H42.7C41.8 27.1 41 26.3 41 25.4V17.5C41 16.6 41.8 15.8 42.7 15.8H53.4C54.4 15.8 55.1 16.6 55.1 17.5Z" fill="url(#paint4_linear)"/>
<path d="M52.1 51.8H38.8C37.1 51.8 35.8 50.4 35.8 48.8V39.4C35.8 37.7 37.2 36.4 38.8 36.4H52.1C53.8 36.4 55.1 37.8 55.1 39.4V48.8C55.1 50.4 53.8 51.8 52.1 51.8Z" fill="url(#paint5_linear)"/>
<path d="M44.3516 38.6947L45.8611 45.7187L49.2916 38.4545C49.3838 38.3118 49.5111 38.1952 49.6612 38.1156C49.8114 38.036 49.9794 37.9962 50.1492 38H52.7221L52.4649 38.669C52.4649 38.669 51.3242 38.7804 51.2813 39.2178C51.2384 39.6552 50.4237 48.0086 50.3808 48.6518C50.3379 49.295 51.4443 49.4065 51.4443 49.4065L51.3328 50.0498H48.7599C48.6676 50.0406 48.5782 50.0124 48.4974 49.9669C48.4165 49.9214 48.3461 49.8596 48.2904 49.7854C48.2348 49.7112 48.1952 49.6263 48.1741 49.5359C48.1531 49.4456 48.151 49.3519 48.1681 49.2607L49.1973 40.6844L45.8611 47.434C45.7067 47.777 45.1492 48.2916 44.8233 48.2916H44.1458L42.8508 40.1441L40.9383 49.5781C40.9206 49.6996 40.8614 49.8113 40.7707 49.8942C40.6801 49.977 40.5635 50.026 40.4408 50.0326H39L39.0772 49.3465C39.0772 49.3465 39.9348 49.3465 39.9949 49.0463C40.0549 48.7462 42.2504 39.3208 42.3619 38.9863C42.4734 38.6518 41.4357 38.6089 41.4357 38.6089L41.6415 38H43.2882C43.6398 38 44.2744 38.2916 44.3516 38.6947Z" fill="white"/>
<defs>
<linearGradient id="paint0_linear" x1="22.9844" y1="32.7338" x2="25.9927" y2="32.7538" gradientUnits="userSpaceOnUse">
<stop stop-color="#4D4D4D"/>
<stop offset="1" stop-color="#808080"/>
</linearGradient>
<linearGradient id="paint1_linear" x1="15.939" y1="38.7477" x2="15.8709" y2="27.2965" gradientUnits="userSpaceOnUse">
<stop stop-color="#999999"/>
<stop offset="1" stop-color="#E6E6E6"/>
</linearGradient>
<linearGradient id="paint2_linear" x1="41.0157" y1="21.4793" x2="38.0074" y2="21.4593" gradientUnits="userSpaceOnUse">
<stop stop-color="#4D4D4D"/>
<stop offset="1" stop-color="#808080"/>
</linearGradient>
<linearGradient id="paint3_linear" x1="41.0157" y1="44.0274" x2="38.0074" y2="44.0073" gradientUnits="userSpaceOnUse">
<stop stop-color="#4D4D4D"/>
<stop offset="1" stop-color="#808080"/>
</linearGradient>
<linearGradient id="paint4_linear" x1="48.1325" y1="27.4736" x2="48.0643" y2="16.0224" gradientUnits="userSpaceOnUse">
<stop stop-color="#999999"/>
<stop offset="1" stop-color="#E6E6E6"/>
</linearGradient>
<linearGradient id="paint5_linear" x1="45.5221" y1="51.4355" x2="45.3799" y2="36.071" gradientUnits="userSpaceOnUse">
<stop stop-color="#1A1A1A"/>
<stop offset="1" stop-color="#333333"/>
</linearGradient>
</defs>
</svg>
