<?xml version="1.0" encoding="utf-8"?>
<!-- Generator: Adobe Illustrator 24.3.0, SVG Export Plug-In . SVG Version: 6.00 Build 0)  -->
<svg version="1.1" id="BluePrint_x5F_64" xmlns="http://www.w3.org/2000/svg" xmlns:xlink="http://www.w3.org/1999/xlink" x="0px"
	 y="0px" viewBox="0 0 64 64" style="enable-background:new 0 0 64 64;" xml:space="preserve">
<style type="text/css">
	.st0{fill:#7F7F7F;enable-background:new    ;}
	.st1{fill:url(#SVGID_1_);}
	.st2{fill:url(#SVGID_2_);}
	.st3{fill:url(#SVGID_3_);}
	.st4{fill:url(#SVGID_4_);}
	.st5{fill:url(#SVGID_5_);}
	.st6{fill:url(#SVGID_6_);}
	.st7{fill:none;}
</style>
<g>
	<path class="st0" d="M42.7,23v-2.8H31.4c-1.7,0-2.8,1.4-2.8,2.8v8.5h-8.5v2.8h8.5v8.5c0,1.7,1.4,2.8,2.8,2.8h11.3v-2.8h-9.6
		c-0.8,0-1.7-0.8-1.7-1.7V24.7c0-0.8,0.8-1.7,1.7-1.7H42.7z"/>
	<linearGradient id="SVGID_1_" gradientUnits="userSpaceOnUse" x1="22.9844" y1="32.8171" x2="25.9927" y2="32.8371">
		<stop  offset="0" style="stop-color:#4D4D4D"/>
		<stop  offset="1" style="stop-color:#808080"/>
	</linearGradient>
	<rect x="22.9" y="31.4" class="st1" width="3" height="2.8"/>
	<linearGradient id="SVGID_2_" gradientUnits="userSpaceOnUse" x1="15.939" y1="38.8309" x2="15.8709" y2="27.3797">
		<stop  offset="0" style="stop-color:#999999"/>
		<stop  offset="1" style="stop-color:#E6E6E6"/>
	</linearGradient>
	<path class="st2" d="M22.9,28.9v7.9c0,0.9-0.8,1.7-1.7,1.7H10.5c-0.9,0-1.7-0.8-1.7-1.7v-7.9c0-0.9,0.8-1.7,1.7-1.7h10.7
		C22.2,27.2,22.9,27.9,22.9,28.9z"/>
	
		<linearGradient id="SVGID_3_" gradientUnits="userSpaceOnUse" x1="58.1279" y1="23.0409" x2="61.1362" y2="23.0609" gradientTransform="matrix(-1 0 0 -1 99.1435 44.6034)">
		<stop  offset="0" style="stop-color:#4D4D4D"/>
		<stop  offset="1" style="stop-color:#808080"/>
	</linearGradient>
	<polygon class="st3" points="41.1,20.1 38.1,20.1 38.1,23 41.1,23 	"/>
	
		<linearGradient id="SVGID_4_" gradientUnits="userSpaceOnUse" x1="58.1279" y1="0.4928" x2="61.1362" y2="0.5129" gradientTransform="matrix(-1 0 0 -1 99.1435 44.6034)">
		<stop  offset="0" style="stop-color:#4D4D4D"/>
		<stop  offset="1" style="stop-color:#808080"/>
	</linearGradient>
	<polygon class="st4" points="41.1,42.7 38.1,42.7 38.1,45.5 41.1,45.5 	"/>
	<linearGradient id="SVGID_5_" gradientUnits="userSpaceOnUse" x1="48.1325" y1="27.5569" x2="48.0643" y2="16.1057">
		<stop  offset="0" style="stop-color:#999999"/>
		<stop  offset="1" style="stop-color:#E6E6E6"/>
	</linearGradient>
	<path class="st5" d="M55.1,17.6v7.9c0,0.9-0.8,1.7-1.7,1.7H42.7c-0.9,0-1.7-0.8-1.7-1.7v-7.9c0-0.9,0.8-1.7,1.7-1.7h10.7
		C54.4,15.9,55.1,16.7,55.1,17.6z"/>
	<linearGradient id="SVGID_6_" gradientUnits="userSpaceOnUse" x1="48.1325" y1="50.1049" x2="48.0643" y2="38.6537">
		<stop  offset="0" style="stop-color:#999999"/>
		<stop  offset="1" style="stop-color:#E6E6E6"/>
	</linearGradient>
	<path class="st6" d="M55.1,40.1v7.9c0,0.9-0.8,1.7-1.7,1.7H42.7c-0.9,0-1.7-0.8-1.7-1.7v-7.9c0-0.9,0.8-1.7,1.7-1.7h10.7
		C54.4,38.5,55.1,39.2,55.1,40.1z"/>
	<rect x="0" class="st7" width="64" height="64"/>
</g>
</svg>
