<?xml version="1.0" encoding="utf-8"?>
<!-- Generator: Adobe Illustrator 25.0.0, SVG Export Plug-In . SVG Version: 6.00 Build 0)  -->
<svg version="1.1" id="BoxReflectionCapture_x5F_64_1_"
	 xmlns="http://www.w3.org/2000/svg" xmlns:xlink="http://www.w3.org/1999/xlink" x="0px" y="0px" viewBox="0 0 64 64"
	 style="enable-background:new 0 0 64 64;" xml:space="preserve">
<style type="text/css">
	.st0{opacity:0.5;fill:#FFFFFF;enable-background:new    ;}
	.st1{fill:#3F3F3F;}
	.st2{fill:url(#SVGID_1_);enable-background:new    ;}
	.st3{fill-rule:evenodd;clip-rule:evenodd;fill:url(#SVGID_2_);}
	.st4{fill:none;}
</style>
<g>
	<path class="st0" d="M9.7,53.9v-8.7c0-0.2-0.2-0.4-0.4-0.4H7c-0.2,0-0.4,0.2-0.4,0.4V57c0,0.2,0.2,0.4,0.4,0.4h11.9
		c0.2,0,0.4-0.2,0.4-0.4v-2.3c0-0.2-0.2-0.4-0.4-0.4h-8.7C9.9,54.3,9.7,54.1,9.7,53.9z"/>
	<path class="st0" d="M10.1,9.7h8.7c0.2,0,0.4-0.2,0.4-0.4V7c0-0.2-0.2-0.4-0.4-0.4H7C6.7,6.5,6.5,6.7,6.5,7v11.9
		c0,0.2,0.2,0.4,0.4,0.4h2.3c0.2,0,0.4-0.2,0.4-0.4v-8.7C9.7,9.9,9.9,9.7,10.1,9.7z"/>
	<path class="st0" d="M54.3,10.1v8.7c0,0.2,0.2,0.4,0.4,0.4H57c0.2,0,0.4-0.2,0.4-0.4V7c0-0.2-0.2-0.4-0.4-0.4H45.1
		c-0.2,0-0.4,0.2-0.4,0.4v2.3c0,0.2,0.2,0.4,0.4,0.4h8.7C54.1,9.7,54.3,9.9,54.3,10.1z"/>
	<path class="st0" d="M53.9,54.3h-8.7c-0.2,0-0.4,0.2-0.4,0.4V57c0,0.2,0.2,0.4,0.4,0.4H57c0.2,0,0.4-0.2,0.4-0.4V45.1
		c0-0.2-0.2-0.4-0.4-0.4h-2.3c-0.2,0-0.4,0.2-0.4,0.4v8.7C54.3,54.1,54.1,54.3,53.9,54.3z"/>
	<g>
		<g>
			<g>
				<rect x="13" y="15.5" class="st1" width="31.5" height="34.3"/>
			</g>
			<g>
				<g>
					<linearGradient id="SVGID_1_" gradientUnits="userSpaceOnUse" x1="12.2868" y1="49.1802" x2="29.4556" y2="32.0114">
						<stop  offset="0" style="stop-color:#E6E6E6"/>
						<stop  offset="1" style="stop-color:#808080"/>
					</linearGradient>
					<path class="st2" d="M44.5,49.9H13V15.5L44.5,49.9z"/>
					<linearGradient id="SVGID_2_" gradientUnits="userSpaceOnUse" x1="36.2764" y1="24.4852" x2="44.8608" y2="15.9008">
						<stop  offset="0" style="stop-color:#CCCCCC"/>
						<stop  offset="1" style="stop-color:#E6E6E6"/>
					</linearGradient>
					<path class="st3" d="M44.5,32.7L28.8,15.5h15.8V32.7z"/>
				</g>
			</g>
		</g>
		<polygon class="st0" points="44.5,15.5 51.1,24.1 51.1,43.1 44.5,49.9 		"/>
	</g>
	<rect x="0" class="st4" width="64" height="64"/>
</g>
</svg>
