<svg width="16" height="16" viewBox="0 0 16 16" fill="none" xmlns="http://www.w3.org/2000/svg">
<path opacity="0.5" d="M7 7.88V4.12C6.5 3.59 5.79 3.25 5 3.25C3.48 3.25 2.25 4.48 2.25 6C2.25 7.52 3.48 8.75 5 8.75C5.79 8.75 6.5 8.41 7 7.88Z" fill="white"/>
<path d="M5 11C5.71 11 6.39 10.85 7 10.58V9.44C6.41 9.79 5.73 10 5 10C2.79 10 1 8.21 1 6C1 3.79 2.79 2 5 2C6.1 2 7.1 2.45 7.83 3.17L8 3L9.23 3.35C8.34 1.94 6.79 1 5 1C2.24 1 0 3.24 0 6C0 8.76 2.24 11 5 11Z" fill="white"/>
<path d="M15.98 10.83L8 4L8.1 14.51L10.43 11.29L12.69 16L14.37 15.19L12.13 10.52L15.98 10.83Z" fill="white"/>
</svg>
