<?xml version="1.0" encoding="utf-8"?>
<!-- Generator: Adobe Illustrator 24.3.0, SVG Export Plug-In . SVG Version: 6.00 Build 0)  -->
<svg version="1.1" id="ButtonStyleAseet_x5F_64" xmlns="http://www.w3.org/2000/svg" xmlns:xlink="http://www.w3.org/1999/xlink"
	 x="0px" y="0px" viewBox="0 0 64 64" style="enable-background:new 0 0 64 64;" xml:space="preserve">
<style type="text/css">
	.st0{fill:none;}
	.st1{fill:url(#SVGID_1_);}
	.st2{opacity:0.29;enable-background:new    ;}
	.st3{fill:url(#SVGID_2_);enable-background:new    ;}
	.st4{fill:url(#SVGID_3_);}
	.st5{fill:#FFFFFF;}
</style>
<g>
	<rect x="0" class="st0" width="64" height="64"/>
	<radialGradient id="SVGID_1_" cx="23.5475" cy="24.9327" r="14.1346" gradientUnits="userSpaceOnUse">
		<stop  offset="0" style="stop-color:#666666"/>
		<stop  offset="1" style="stop-color:#333333"/>
	</radialGradient>
	<circle class="st1" cx="23.5" cy="24.9" r="14.1"/>
	<path class="st2" d="M29.2,31.4V20.7c-1.4-1.5-3.4-2.5-5.7-2.5c-4.3,0-7.8,3.5-7.8,7.8s3.5,7.8,7.8,7.8
		C25.8,33.8,27.8,32.9,29.2,31.4z"/>
	<path class="st2" d="M24.1,39.1c2,0,3.4-0.4,5.1-1.2v-3.2c-1.7,0.9-3.1,1.7-5.1,1.7c-6.2,0-11.3-4.9-11.3-10.9s5.1-10.9,11.3-10.9
		c3.1,0,5.4,1.3,7.5,3.2l0.9-0.7l3.6,1.1c-2-3.8-6.9-6.4-12-6.4c-7.8,0-14.1,6.1-14.1,13.6S16.3,39.1,24.1,39.1z"/>
	<path class="st2" d="M32.2,36.1c-0.3,0.3-0.3,0.3-0.7,0.5l0-16.5c0-0.6,0.3-0.7,0.8-0.5L32.2,36.1z"/>
	<g>
		<radialGradient id="SVGID_2_" cx="22.4874" cy="24.9327" r="7.2634" gradientUnits="userSpaceOnUse">
			<stop  offset="0" style="stop-color:#B3B3B3"/>
			<stop  offset="1" style="stop-color:#999999"/>
		</radialGradient>
		<path class="st3" d="M29.2,30.2V19.6c-1.4-1.5-3.4-2.5-5.7-2.5c-4.3,0-7.8,3.5-7.8,7.8s3.5,7.8,7.8,7.8
			C25.8,32.7,27.8,31.7,29.2,30.2z"/>
		<radialGradient id="SVGID_3_" cx="22.4591" cy="24.9327" r="13.6013" gradientUnits="userSpaceOnUse">
			<stop  offset="0" style="stop-color:#B3B3B3"/>
			<stop  offset="1" style="stop-color:#F2F2F2"/>
		</radialGradient>
		<path class="st4" d="M23.5,39.1c2,0,3.9-0.4,5.7-1.2v-3.2c-1.7,1-3.6,1.6-5.7,1.6c-6.2,0-11.3-5.1-11.3-11.3s5.1-11.3,11.3-11.3
			c3.1,0,5.9,1.3,8,3.3l0.5-0.5l3.5,1c-2.5-4-6.9-6.6-12-6.6c-7.8,0-14.1,6.3-14.1,14.1S15.7,39.1,23.5,39.1z"/>
		<path class="st5" d="M53.9,38L32.5,19.7c-0.2-0.2-0.5,0-0.5,0.2l0.3,28.2c0,0.3,0.3,0.4,0.5,0.2l5.8-8c0.1-0.2,0.4-0.1,0.5,0
			l6.1,12.6c0.1,0.1,0.2,0.2,0.4,0.1l4.2-2c0.1-0.1,0.2-0.2,0.1-0.4l-6-12.5c-0.1-0.2,0.1-0.4,0.3-0.4l9.5,0.8
			C54,38.5,54.1,38.2,53.9,38z"/>
	</g>
</g>
</svg>
