<svg width="16" height="16" viewBox="0 0 16 16" fill="none" xmlns="http://www.w3.org/2000/svg">
<path d="M3.1 10.5C3.3 11.3 3.6 12.2 4.2 12.8C5 13.4 6 13.6 7 13.3C7.9 12.9 8.6 12.2 9.1 11.5C10 10.1 10.6 8.7 11.1 7.2V2H10.8C10.6 3.5 10.3 5.1 9.9 6.6C9.5 8.1 9 9.7 8.2 11C7.8 11.6 7.3 12.2 6.7 12.5C6.1 12.7 5.4 12.7 4.8 12.3C4.2 11.9 3.8 11.2 3.6 10.5C3.2 9.6 3.1 8.8 3 8V9.4C3 9.8 3.1 10.1 3.1 10.5Z" fill="white"/>
<path opacity="0.5" d="M0 7V8H2V16H3V8H5V7H0Z" fill="white"/>
<path opacity="0.5" d="M8 0V2H11V16H13V2H16V0H8Z" fill="white"/>
</svg>
