<?xml version="1.0" encoding="utf-8"?>
<!-- Generator: Adobe Illustrator 24.3.0, SVG Export Plug-In . SVG Version: 6.00 Build 0)  -->
<svg version="1.1" id="CableActor_x5F_64" xmlns="http://www.w3.org/2000/svg" xmlns:xlink="http://www.w3.org/1999/xlink" x="0px"
	 y="0px" viewBox="0 0 64 64" style="enable-background:new 0 0 64 64;" xml:space="preserve">
<style type="text/css">
	.st0{fill:none;}
	.st1{fill:url(#SVGID_1_);}
	.st2{fill:url(#SVGID_2_);enable-background:new    ;}
	.st3{fill:url(#SVGID_3_);enable-background:new    ;}
	.st4{fill:url(#SVGID_4_);}
	.st5{fill:url(#SVGID_5_);}
</style>
<rect x="0" class="st0" width="64" height="64"/>
<g>
	<g>
		<linearGradient id="SVGID_1_" gradientUnits="userSpaceOnUse" x1="13.1347" y1="32.0189" x2="13.1342" y2="31.9811">
			<stop  offset="0" style="stop-color:#E6E6E6"/>
			<stop  offset="1" style="stop-color:#999999"/>
		</linearGradient>
		<path class="st1" d="M14.7,32h-3.1"/>
		<linearGradient id="SVGID_2_" gradientUnits="userSpaceOnUse" x1="13.4548" y1="56.7169" x2="13.1273" y2="29.8588">
			<stop  offset="0" style="stop-color:#999999"/>
			<stop  offset="1" style="stop-color:#666666"/>
		</linearGradient>
		<path class="st2" d="M5.4,28.9V32h6.2v24.8h3.1V32h6.2v-3.1H5.4z"/>
		<linearGradient id="SVGID_3_" gradientUnits="userSpaceOnUse" x1="46.3108" y1="56.9326" x2="46.2016" y2="7.0376">
			<stop  offset="0" style="stop-color:#B3B3B3"/>
			<stop  offset="0.9492" style="stop-color:#666666"/>
			<stop  offset="1" style="stop-color:#B3B3B3"/>
		</linearGradient>
		<path class="st3" d="M33.8,7.2v6.2h9.3v43.5h6.2V13.4h9.3V7.2H33.8z"/>
	</g>
	<linearGradient id="SVGID_4_" gradientUnits="userSpaceOnUse" x1="35.3395" y1="30.3501" x2="10.4993" y2="30.0282">
		<stop  offset="0" style="stop-color:#E6E6E6"/>
		<stop  offset="1" style="stop-color:#999999"/>
	</linearGradient>
	<path class="st4" d="M26,47.3c-12.6,0.8-13.6-15.3-13.6-15.3h1.5c1.9,15.4,12,13.2,12,13.2c11.5-1.6,16.6-31.8,16.6-31.8h0.6
		l0,11.3C43.1,24.7,36.8,46.5,26,47.3z"/>
</g>
<g id="Layer_79">
</g>
<linearGradient id="SVGID_5_" gradientUnits="userSpaceOnUse" x1="46.179" y1="20.1733" x2="46.2355" y2="13.3304">
	<stop  offset="0" style="stop-color:#4D4D4D;stop-opacity:0"/>
	<stop  offset="0.9239" style="stop-color:#4D4D4D"/>
	<stop  offset="0.9892" style="stop-color:#4D4D4D;stop-opacity:0.1413"/>
	<stop  offset="1" style="stop-color:#4D4D4D;stop-opacity:0"/>
</linearGradient>
<rect x="43.1" y="12.8" class="st5" width="6.2" height="7.7"/>
</svg>
