<svg width="16" height="16" viewBox="0 0 16 16" fill="none" xmlns="http://www.w3.org/2000/svg">
<path d="M7 14H3C2.4 14 2 13.6 2 13V9C2 8.4 2.4 8 3 8H7C7.6 8 8 8.4 8 9V13C8 13.6 7.6 14 7 14Z" fill="white"/>
<path d="M8.90039 10.6V11.4L12.0004 13.6V10H9.70039L8.90039 10.6Z" fill="white"/>
<path d="M13 15H1V3H0V16H13V15Z" fill="white"/>
<path d="M15.7 3.40018C15.2 3.10018 14.9 3.50018 14.9 3.50018L13.5 5.80017H13V0.700195C13 0.700195 13 0.200195 12.5 0.200195C12 0.200195 12 0.700195 12 0.700195V4.40018C12 4.40018 11.8 4.90018 11.5 4.90018C11.2 4.90018 11 4.40018 11 4.40018V0.800171C11 0.800171 11 0.300171 10.5 0.300171C10 0.300171 10 0.800171 10 0.800171V4.40018C10 4.40018 9.8 4.90018 9.5 4.90018C9.2 4.90018 9 4.40018 9 4.40018V0.800171C9 0.800171 9 0.300171 8.5 0.300171C8 0.300171 8 0.800171 8 0.800171V4.7002V7.2002C8 8.1002 8.8 9.2002 9.7 9.2002H11.6C12.7 9.2002 13.2 8.90019 14.1 7.60019C15 6.00019 15.9 4.40018 15.9 4.40018C15.9 4.40018 16.1 3.70018 15.7 3.40018Z" fill="white"/>
<path opacity="0.5" d="M7 0.100006V0H3L0 3H7V0.100006Z" fill="white"/>
<path opacity="0.5" d="M14 0V2.79999L14.1 2.70001V2.60001C14.3 2.30001 14.8 2 15.3 2C15.5 2 15.8 2.10001 16 2.20001V0H14Z" fill="white"/>
<path opacity="0.5" d="M13 9.7998V15.9998L16 12.9998V6.2998L14.9 8.19983C14.3 9.19983 13.7 9.5998 13 9.7998Z" fill="white"/>
</svg>
