<?xml version="1.0" encoding="utf-8"?>
<!-- Generator: Adobe Illustrator 24.2.3, SVG Export Plug-In . SVG Version: 6.00 Build 0)  -->
<svg version="1.1" id="Layer_1" xmlns="http://www.w3.org/2000/svg" xmlns:xlink="http://www.w3.org/1999/xlink" x="0px" y="0px"
	 viewBox="0 0 64 64" style="enable-background:new 0 0 64 64;" xml:space="preserve">
<style type="text/css">
	.st0{fill:none;}
	.st1{fill:#DDDDDD;}
	.st2{fill:url(#SVGID_1_);}
	.st3{fill:url(#SVGID_2_);}
	.st4{fill:url(#SVGID_3_);}
	.st5{fill:none;stroke:url(#SVGID_4_);stroke-miterlimit:10;}
	.st6{fill:none;stroke:url(#SVGID_5_);stroke-miterlimit:10;}
	.st7{fill:url(#SVGID_6_);}
	.st8{fill:url(#SVGID_7_);}
</style>
<g id="CameraActor_x5F_64">
	<g>
		<rect class="st0" width="64" height="64"/>
		<path class="st1" d="M36.4,47.5H9.7c-2,0-3.3-1.3-3.3-3.2V18.6c0-1.9,1.3-3.2,3.3-3.2h26.7c2,0,3.3,1.3,3.3,3.2v25.7
			C39.8,46.2,38.4,47.5,36.4,47.5z"/>
		<path class="st1" d="M41.9,29.4v3.2c0,0.6,0.2,1.1,0.6,1.4l12.7,10c1,0.8,2.4,0,2.4-1.4V19.4c0-1.4-1.4-2.2-2.4-1.4L42.5,28
			C42.1,28.3,41.9,28.8,41.9,29.4z"/>
		
			<linearGradient id="SVGID_1_" gradientUnits="userSpaceOnUse" x1="23.1461" y1="205.8856" x2="22.9588" y2="239.4246" gradientTransform="matrix(1 0 0 1 0 -190)">
			<stop  offset="0" style="stop-color:#B3B3B3"/>
			<stop  offset="1" style="stop-color:#666666"/>
		</linearGradient>
		<path class="st2" d="M36.4,48.6H9.7c-2,0-3.3-1.3-3.3-3.2V19.7c0-1.9,1.3-3.2,3.3-3.2h26.7c2,0,3.3,1.3,3.3,3.2v25.7
			C39.8,47.3,38.4,48.6,36.4,48.6z"/>
		
			<linearGradient id="SVGID_2_" gradientUnits="userSpaceOnUse" x1="62.031" y1="222.3828" x2="24.115" y2="222.4924" gradientTransform="matrix(1 0 0 1 0 -190)">
			<stop  offset="0" style="stop-color:#B3B3B3"/>
			<stop  offset="0.5936" style="stop-color:#666666"/>
		</linearGradient>
		<path class="st3" d="M41.9,30.8V34c0,0.6,0.2,1.1,0.6,1.4l12.7,10c1,0.8,2.4,0,2.4-1.4V20.8c0-1.4-1.4-2.2-2.4-1.4l-12.7,10
			C42.1,29.7,41.9,30.3,41.9,30.8z"/>
		
			<linearGradient id="SVGID_3_" gradientUnits="userSpaceOnUse" x1="23.1157" y1="231.0841" x2="23.0846" y2="236.6453" gradientTransform="matrix(1 0 0 1 0 -190)">
			<stop  offset="0" style="stop-color:#000000;stop-opacity:0"/>
			<stop  offset="0.2075" style="stop-color:#000000;stop-opacity:0.3609"/>
			<stop  offset="0.2299" style="stop-color:#000000;stop-opacity:0.4"/>
			<stop  offset="1" style="stop-color:#000000;stop-opacity:0"/>
		</linearGradient>
		<path class="st4" d="M38.5,46.6H7.7c-0.7,0-1.3-0.6-1.3-1.3v-2.8c0-0.7,0.6-1.3,1.3-1.3h30.8c0.7,0,1.3,0.6,1.3,1.3v2.8
			C39.8,46,39.2,46.6,38.5,46.6z"/>
		
			<linearGradient id="SVGID_4_" gradientUnits="userSpaceOnUse" x1="57" y1="232.9" x2="57" y2="232.9" gradientTransform="matrix(1 0 0 1 0 -190)">
			<stop  offset="0" style="stop-color:#B3B3B3"/>
			<stop  offset="1" style="stop-color:#DDDDDD;stop-opacity:0"/>
		</linearGradient>
		<path class="st5" d="M57,42.9"/>
		
			<linearGradient id="SVGID_5_" gradientUnits="userSpaceOnUse" x1="57" y1="209.1" x2="57" y2="209.1" gradientTransform="matrix(1 0 0 1 0 -190)">
			<stop  offset="0" style="stop-color:#B3B3B3"/>
			<stop  offset="1" style="stop-color:#DDDDDD;stop-opacity:0"/>
		</linearGradient>
		<path class="st6" d="M57,19.1"/>
		
			<linearGradient id="SVGID_6_" gradientUnits="userSpaceOnUse" x1="57.1804" y1="208.9644" x2="57.2196" y2="232.9673" gradientTransform="matrix(1 0 0 1 0 -190)">
			<stop  offset="0" style="stop-color:#DDDDDD"/>
			<stop  offset="1" style="stop-color:#FFFFFF;stop-opacity:0"/>
		</linearGradient>
		<rect x="56.8" y="19" class="st7" width="0.8" height="23.9"/>
		
			<linearGradient id="SVGID_7_" gradientUnits="userSpaceOnUse" x1="39.3785" y1="206.9107" x2="39.4194" y2="231.9362" gradientTransform="matrix(1 0 0 1 0 -190)">
			<stop  offset="0" style="stop-color:#DDDDDD"/>
			<stop  offset="1" style="stop-color:#FFFFFF;stop-opacity:0"/>
		</linearGradient>
		<polygon class="st8" points="39.8,41.9 39,41.9 39,17 39.8,18.2 		"/>
	</g>
</g>
</svg>
