<svg width="16" height="16" viewBox="0 0 16 16" fill="none" xmlns="http://www.w3.org/2000/svg">
<path opacity="0.5" d="M3 12C1.9 12 1 12.9 1 14C1 15.1 1.9 16 3 16C4.1 16 5 15.1 5 14C5 12.8 4.1 12 3 12ZM3 14.8C2.5 14.8 2.1 14.4 2.1 13.9C2.1 13.4 2.5 13 3 13C3.5 13 3.9 13.4 3.9 13.9C3.9 14.4 3.5 14.8 3 14.8Z" fill="white"/>
<path opacity="0.5" d="M12 12C10.9 12 10 12.9 10 14C10 15.1 10.9 16 12 16C13.1 16 14 15.1 14 14C14 12.8 13.1 12 12 12ZM12 14.8C11.5 14.8 11.1 14.4 11.1 13.9C11.1 13.4 11.5 13 12 13C12.5 13 12.9 13.4 12.9 13.9C12.9 14.4 12.5 14.8 12 14.8Z" fill="white"/>
<path d="M8 9H2C1.4 9 1 8.6 1 8V2C1 1.4 1.4 1 2 1H8C8.6 1 9 1.4 9 2V8C9 8.6 8.6 9 8 9Z" fill="white"/>
<path d="M10 4.3996V5.59961L14 8.3996V1.59961L10 4.3996Z" fill="white"/>
<path d="M14 10H1V11H14V10Z" fill="white"/>
</svg>
