<?xml version="1.0" encoding="utf-8"?>
<!-- Generator: Adobe Illustrator 24.2.3, SVG Export Plug-In . SVG Version: 6.00 Build 0)  -->
<svg version="1.1" id="Layer_1" xmlns="http://www.w3.org/2000/svg" xmlns:xlink="http://www.w3.org/1999/xlink" x="0px" y="0px"
	 viewBox="0 0 64 64" style="enable-background:new 0 0 64 64;" xml:space="preserve">
<style type="text/css">
	.st0{fill:none;}
	.st1{fill:url(#SVGID_1_);}
	.st2{fill:#BFBFBF;}
	.st3{opacity:0.5;fill:url(#SVGID_2_);enable-background:new    ;}
	.st4{fill:#FFFFFF;}
	.st5{fill:url(#SVGID_3_);}
	.st6{fill:url(#SVGID_4_);}
	.st7{fill:url(#SVGID_5_);}
	.st8{fill:none;stroke:url(#SVGID_6_);stroke-miterlimit:10;}
	.st9{fill:none;stroke:url(#SVGID_7_);stroke-miterlimit:10;}
	.st10{fill:url(#SVGID_8_);}
	.st11{fill:url(#SVGID_9_);}
	.st12{fill:#7F7F7F;}
</style>
<g id="CameraRig_x5F_Crane_x5F_64">
	<g>
		<rect class="st0" width="64" height="64"/>
		
			<linearGradient id="SVGID_1_" gradientUnits="userSpaceOnUse" x1="32.8621" y1="212.05" x2="34.5919" y2="212.05" gradientTransform="matrix(1 0 0 1 0 -190)">
			<stop  offset="0" style="stop-color:#B3B3B3"/>
			<stop  offset="1" style="stop-color:#666666"/>
		</linearGradient>
		<rect x="33.1" y="14.5" class="st1" width="2.2" height="15.1"/>
		<path class="st2" d="M37.7,30.5c0-1.5-1.6-2.7-3.5-2.7c-2,0-3.5,1.2-3.5,2.7H37.7z"/>
		
			<linearGradient id="SVGID_2_" gradientUnits="userSpaceOnUse" x1="13.6089" y1="243.2098" x2="13.9814" y2="202.9866" gradientTransform="matrix(1 0 0 1 0 -190)">
			<stop  offset="0" style="stop-color:#808080"/>
			<stop  offset="1" style="stop-color:#666666"/>
		</linearGradient>
		<path class="st3" d="M16.3,56.3h-5.4c-1.2,0-2.2-1.1-2.1-2.3l2.4-43.5c0.1-1.2,1-2.1,2.1-2.1h0.6c1.1,0,2.1,0.9,2.1,2.1L18.4,54
			C18.5,55.2,17.5,56.3,16.3,56.3z"/>
		<g>
			<path class="st4" d="M42.2,48.9H26.1c-1.2,0-2-0.8-2-1.9V31.5c0-1.2,0.8-1.9,2-1.9h16.1c1.2,0,2,0.8,2,1.9V47
				C44.2,48.2,43.4,48.9,42.2,48.9z"/>
			<path class="st4" d="M45.5,38v1.9c0,0.3,0.1,0.7,0.4,0.8l7.7,6.1c0.6,0.5,1.4,0,1.4-0.8V32c0-0.8-0.8-1.3-1.4-0.8l-7.7,6.1
				C45.6,37.4,45.5,37.7,45.5,38z"/>
			
				<linearGradient id="SVGID_3_" gradientUnits="userSpaceOnUse" x1="34.2063" y1="219.8665" x2="34.0932" y2="240.1119" gradientTransform="matrix(1 0 0 1 0 -190)">
				<stop  offset="0.5187" style="stop-color:#CCCCCC"/>
				<stop  offset="1" style="stop-color:#666666"/>
			</linearGradient>
			<path class="st5" d="M42.2,49.6H26.1c-1.2,0-2-0.8-2-1.9V32.2c0-1.2,0.8-1.9,2-1.9h16.1c1.2,0,2,0.8,2,1.9v15.5
				C44.2,48.8,43.4,49.6,42.2,49.6z"/>
			
				<linearGradient id="SVGID_4_" gradientUnits="userSpaceOnUse" x1="57.665" y1="229.8898" x2="34.7774" y2="229.956" gradientTransform="matrix(1 0 0 1 0 -190)">
				<stop  offset="0.3583" style="stop-color:#CCCCCC"/>
				<stop  offset="1" style="stop-color:#666666"/>
			</linearGradient>
			<path class="st6" d="M45.5,38.9v1.9c0,0.3,0.1,0.7,0.4,0.8l7.7,6.1c0.6,0.5,1.4,0,1.4-0.8v-14c0-0.8-0.8-1.3-1.4-0.8L45.9,38
				C45.6,38.2,45.5,38.5,45.5,38.9z"/>
			
				<linearGradient id="SVGID_5_" gradientUnits="userSpaceOnUse" x1="34.2096" y1="235.0803" x2="34.1909" y2="238.4315" gradientTransform="matrix(1 0 0 1 0 -190)">
				<stop  offset="0" style="stop-color:#000000;stop-opacity:0"/>
				<stop  offset="0.2075" style="stop-color:#000000;stop-opacity:0.3609"/>
				<stop  offset="0.2299" style="stop-color:#000000;stop-opacity:0.4"/>
				<stop  offset="1" style="stop-color:#000000;stop-opacity:0"/>
			</linearGradient>
			<path class="st7" d="M42.9,48.4H25.4c-0.7,0-1.3-0.6-1.3-1.3v-0.6c0-0.7,0.6-1.3,1.3-1.3H43c0.7,0,1.3,0.6,1.3,1.3v0.6
				C44.2,47.8,43.7,48.4,42.9,48.4z"/>
			
				<linearGradient id="SVGID_6_" gradientUnits="userSpaceOnUse" x1="54.6" y1="236.2" x2="54.6" y2="236.2" gradientTransform="matrix(1 0 0 1 0 -190)">
				<stop  offset="0" style="stop-color:#B3B3B3"/>
				<stop  offset="1" style="stop-color:#DDDDDD;stop-opacity:0"/>
			</linearGradient>
			<path class="st8" d="M54.6,46.2"/>
			
				<linearGradient id="SVGID_7_" gradientUnits="userSpaceOnUse" x1="54.6" y1="221.8" x2="54.6" y2="221.8" gradientTransform="matrix(1 0 0 1 0 -190)">
				<stop  offset="0" style="stop-color:#B3B3B3"/>
				<stop  offset="1" style="stop-color:#DDDDDD;stop-opacity:0"/>
			</linearGradient>
			<path class="st9" d="M54.6,31.8"/>
			
				<linearGradient id="SVGID_8_" gradientUnits="userSpaceOnUse" x1="54.7381" y1="221.7249" x2="54.7618" y2="236.214" gradientTransform="matrix(1 0 0 1 0 -190)">
				<stop  offset="0" style="stop-color:#FFFFFF"/>
				<stop  offset="1" style="stop-color:#FFFFFF;stop-opacity:0"/>
			</linearGradient>
			<rect x="54.5" y="31.8" class="st10" width="0.5" height="14.4"/>
			
				<linearGradient id="SVGID_9_" gradientUnits="userSpaceOnUse" x1="43.9871" y1="220.4997" x2="44.0118" y2="235.6003" gradientTransform="matrix(1 0 0 1 0 -190)">
				<stop  offset="0" style="stop-color:#FFFFFF"/>
				<stop  offset="1" style="stop-color:#FFFFFF;stop-opacity:0"/>
			</linearGradient>
			<polygon class="st11" points="44.2,45.6 43.8,45.6 43.8,30.5 44.2,31.2 			"/>
		</g>
		<path class="st4" d="M58.5,12.8L8.3,15.9c-0.7,0-1.4-0.5-1.4-1.3V7.5c0-0.8,0.6-1.3,1.4-1.3l50.3,3.1c0.7,0,1.2,0.6,1.2,1.3v0.9
			C59.7,12.2,59.2,12.7,58.5,12.8z"/>
		<path class="st2" d="M58.5,13.5L8.3,16.7c-0.7,0-1.4-0.5-1.4-1.3V8.2c0-0.8,0.6-1.3,1.4-1.3L58.6,10c0.7,0,1.2,0.6,1.2,1.3v0.9
			C59.7,12.9,59.2,13.5,58.5,13.5z"/>
		<path class="st12" d="M20.6,56.9c0-2.6-3.1-4.6-7-4.6s-7,2.1-7,4.6H20.6z"/>
	</g>
</g>
</svg>
