<svg width="16" height="16" viewBox="0 0 16 16" fill="none" xmlns="http://www.w3.org/2000/svg">
<path opacity="0.5" d="M11.7 5.2L15.8 6L11.2 7.9L15.2 11.5L9.5 10.5L8 16L5.6 11.8L0 14L3.23839 9.35951C3.23839 9.35951 3.84256 10.0266 5.00054 10.0266H7.11512C9.75834 9.77487 9.75834 7.5596 9.75834 7.5596V3.60735L14.5 0.199997L11.7 5.2Z" fill="white"/>
<path d="M6.86349 9.25773H5.44822C4.24524 9.25773 3.32532 8.27647 3.32532 6.9933V2.84185C3.32532 1.40771 4.45753 0.200012 5.80204 0.200012H6.50967C7.85417 0.200012 8.98639 1.40771 8.98639 2.84185V6.9933C8.98639 8.27647 8.06646 9.25773 6.86349 9.25773Z" fill="white"/>
</svg>
