<?xml version="1.0" encoding="utf-8"?>
<!-- Generator: Adobe Illustrator 24.3.0, SVG Export Plug-In . SVG Version: 6.00 Build 0)  -->
<svg version="1.1" id="Character_x5F_64" xmlns="http://www.w3.org/2000/svg" xmlns:xlink="http://www.w3.org/1999/xlink" x="0px"
	 y="0px" viewBox="0 0 64 64" style="enable-background:new 0 0 64 64;" xml:space="preserve">
<style type="text/css">
	.st0{fill:url(#SVGID_1_);enable-background:new    ;}
	.st1{fill-rule:evenodd;clip-rule:evenodd;fill:#4C4C4C;}
	.st2{fill-rule:evenodd;clip-rule:evenodd;fill:url(#SVGID_2_);}
	.st3{fill:none;}
</style>
<g>
	<linearGradient id="SVGID_1_" gradientUnits="userSpaceOnUse" x1="32" y1="40.0211" x2="32" y2="58.0162">
		<stop  offset="0" style="stop-color:#4D4D4D"/>
		<stop  offset="1" style="stop-color:#808080"/>
	</linearGradient>
	<path class="st0" d="M55.5,51.2c-2.9-4.1-10.2-4.8-13.6-7.8c-0.7-0.6-1.2-1.4-1.6-2.2c-2,2.4-4.9,4.8-6.4,4.8h-3.8
		c-1.5,0-4.4-2.4-6.4-4.8c-0.4,0.8-0.9,1.6-1.6,2.2c-3.4,3-10.7,3.7-13.6,7.8c-2.9,4.1-2,7.1-2,7.1c3.3,0,15.8,0,23.3,0
		c0.8,0,1.6,0,2.2,0c0.7,0,1.4,0,2.2,0c7.5,0,19.9,0,23.3,0C57.5,58.4,58.4,55.3,55.5,51.2z"/>
	<polygon class="st1" points="39.5,38.6 24.4,38.6 21.1,18.6 42.8,18.6 	"/>
	<radialGradient id="SVGID_2_" cx="32.0043" cy="24.1769" r="17.0189" gradientUnits="userSpaceOnUse">
		<stop  offset="0" style="stop-color:#F2F2F2"/>
		<stop  offset="1" style="stop-color:#CCCCCC"/>
	</radialGradient>
	<path class="st2" d="M45,23.1c-0.3,0-0.7,0.2-0.7,0.2l0.2-6c0-6.4-4.2-11.6-12.5-11.6s-12.5,5.2-12.5,11.6l0.2,6
		c0,0-0.4-0.2-0.7-0.2c-1.4,0-2.5,0.5-2.5,2.2c0,3.8,2.2,5.5,3.7,6.2l0.5,0.1l1.5,4.5c0,0,4.7,6.6,8.8,6.6h1.6
		c4.1,0,8.8-6.5,8.8-6.5l1.6-4.6l0.4-0.1c1.6-0.7,3.7-2.4,3.7-6.2C47.4,23.5,46.2,23.1,45,23.1z M29.8,31.8c0.3-0.2,0.6-0.1,0.8,0.2
		c0,0,0.5,0.8,1.4,0.8c0.9,0,1.4-0.8,1.4-0.8c0.2-0.3,0.5-0.3,0.8-0.2c0.3,0.2,0.3,0.5,0.2,0.8c0,0.1-0.8,1.3-2.4,1.3
		c-1.5,0-2.3-1.3-2.4-1.3C29.5,32.3,29.6,32,29.8,31.8z M41.5,23.4c0,0-1.4-0.3-2.7-0.2c-1.2,0.1-1,0.1-2.6,0.2
		c-0.2,0-0.8-0.1-0.8-0.3c-0.1-0.7,0.7-0.8,0.7-0.8c0.1,0,1.2-0.1,2.6-0.2c1.5-0.1,3.1,0.6,3.2,0.6c0.2,0.1,0.3,0.3,0.2,0.5
		c0,0.1-0.1,0.1-0.2,0.2C41.7,23.5,41.6,23.5,41.5,23.4z M22.1,23.4c-0.1,0-0.1-0.1-0.2-0.2c-0.1-0.2,0-0.4,0.2-0.5
		c0.1,0,1.7-0.7,3.2-0.6c1.5,0.1,2.6,0.2,2.6,0.2c0,0,0.8,0.1,0.7,0.8c0,0.2-0.6,0.3-0.8,0.3c-1.6-0.1-1.4-0.1-2.6-0.2
		c-1.3-0.1-2.7,0.2-2.7,0.2C22.4,23.5,22.3,23.5,22.1,23.4z M29.7,26.1c-0.1,0.3-0.5,0.3-0.7,0.2c0,0-0.4-0.2-1.1-0.3
		c0.1,0.2,0.2,0.4,0.2,0.7c0,0.8-0.6,1.4-1.4,1.4c-0.8,0-1.4-0.6-1.4-1.4c0-0.3,0.1-0.5,0.3-0.8c-1.1,0.2-1.9,0.7-1.9,0.7
		c-0.1,0.1-0.2,0.1-0.3,0.1c-0.2,0-0.3-0.1-0.5-0.2c-0.2-0.2-0.1-0.6,0.1-0.7c0.1,0,1.4-0.9,3.3-0.9c1.9,0,3,0.6,3,0.6
		C29.7,25.5,29.8,25.8,29.7,26.1z M35.6,36.9c0,0-1.3,1-3.6,1c-2.3,0-3.6-1-3.6-1c-0.2-0.2-0.3-0.5-0.1-0.7c0.2-0.2,0.4-0.1,0.7-0.1
		c1.1,0.2,4.9,0.2,6,0c0.3,0,0.5-0.1,0.7,0.1C35.9,36.4,35.8,36.7,35.6,36.9z M41,26.4c-0.1,0.2-0.3,0.2-0.4,0.2
		c-0.1,0-0.2,0-0.3-0.1c0,0-0.8-0.5-1.9-0.7c0.2,0.2,0.3,0.5,0.3,0.8c0,0.8-0.6,1.4-1.4,1.4s-1.4-0.6-1.4-1.4c0-0.3,0.1-0.5,0.2-0.7
		c-0.7,0.1-1,0.3-1.1,0.3c-0.3,0.1-0.6,0-0.7-0.2c-0.1-0.3-0.1-0.6,0.2-0.7c0,0,1.1-0.6,3-0.6c1.9,0,3.3,0.9,3.3,0.9
		C41.1,25.8,41.2,26.2,41,26.4z"/>
	<rect x="0" class="st3" width="64" height="64"/>
</g>
</svg>
