<svg width="16" height="16" viewBox="0 0 16 16" fill="none" xmlns="http://www.w3.org/2000/svg">
<path fill-rule="evenodd" clip-rule="evenodd" d="M8.25 8.9L5.55 6.2C5.45 6.1 5.25 6.1 5.05 6.1C4.95 6 4.85 6 4.65 6H3.65C3.55 6 3.45 6 3.35 6.1C3.15 6 2.95 6 2.75 6.2L0.15 8.8C-0.05 9 -0.05 9.3 0.15 9.5C0.35 9.7 0.65 9.7 0.85 9.5L2.65 7.8V9.6V10V15.5C2.65 15.8 2.85 16 3.15 16C3.45 16 3.65 15.8 3.65 15.5V11H4.65V15.5C4.65 15.8 4.85 16 5.15 16C5.45 16 5.65 15.8 5.65 15.5V10V9.5V7.8L7.55 9.7C7.75 9.9 8.05 9.9 8.25 9.7C8.45 9.5 8.45 9.1 8.25 8.9Z" fill="white"/>
<path fill-rule="evenodd" clip-rule="evenodd" d="M4.14995 5.4C5.04995 5.4 5.84995 4.6 5.84995 3.7C5.84995 2.8 5.04995 2 4.14995 2C3.24995 2 2.44995 2.8 2.44995 3.7C2.44995 4.6 3.24995 5.4 4.14995 5.4Z" fill="white"/>
<path d="M12 0L10.5 2H13.5L12 0Z" fill="white"/>
<path d="M12 8L10.5 6H13.5L12 8Z" fill="white"/>
<path d="M16 4L14 2.5V5.5L16 4Z" fill="white"/>
<path d="M8 4L10 2.5V5.5L8 4Z" fill="white"/>
</svg>
