<svg width="16" height="16" viewBox="0 0 16 16" fill="none" xmlns="http://www.w3.org/2000/svg">
<path opacity="0.5" d="M15.1401 13.84C14.2601 12.6 12.0501 12.4 11.0101 11.47C10.8101 11.29 10.6601 11.06 10.5301 10.8C9.92012 11.53 9.05012 12.24 8.59012 12.24H7.42012C6.95012 12.24 6.09012 11.52 5.47012 10.79C5.34012 11.04 5.19012 11.28 4.99012 11.46C3.95012 12.38 1.74012 12.58 0.860119 13.83C-0.0198809 15.08 0.260119 16 0.260119 16C1.27012 16 5.06012 16 7.32012 16C7.56012 16 7.80012 16 8.00012 16C8.20012 16 8.44012 16 8.68012 16C10.9401 16 14.7301 16 15.7401 16C15.7401 16 16.0201 15.08 15.1401 13.84Z" fill="white"/>
<path fill-rule="evenodd" clip-rule="evenodd" d="M11.9301 5.29C11.8301 5.29 11.7201 5.35 11.7201 5.35L11.7801 3.52C11.7901 1.58 10.5001 0 8.00008 0C5.50008 0 4.21008 1.58 4.21008 3.51L4.28008 5.34C4.28008 5.34 4.17008 5.28 4.08008 5.28C3.65008 5.28 3.33008 5.42 3.33008 5.94C3.33008 7.11 3.99008 7.62 4.46008 7.84L4.60008 7.88L5.07008 9.26C5.07008 9.26 6.50008 11.25 7.75008 11.25H8.25008C9.50008 11.25 10.9201 9.27 10.9201 9.27L11.3901 7.89L11.5201 7.85C12.0001 7.63 12.6501 7.12 12.6501 5.95C12.6601 5.43 12.3101 5.29 11.9301 5.29ZM7.34008 7.94C7.42008 7.89 7.53008 7.92 7.58008 8C7.59008 8.01 7.74008 8.24 8.01008 8.24C8.28008 8.24 8.44008 8 8.44008 8C8.49008 7.92 8.60008 7.89 8.68008 7.94C8.76008 7.99 8.79008 8.1 8.73008 8.18C8.72008 8.2 8.47008 8.58 8.01008 8.58C7.55008 8.58 7.30008 8.2 7.29008 8.18C7.24008 8.1 7.26008 7.99 7.34008 7.94ZM10.8701 5.4C10.8701 5.4 10.4401 5.3 10.0401 5.33C9.67008 5.35 9.73008 5.35 9.25008 5.39C9.18008 5.39 9.01008 5.36 9.00008 5.3C8.98008 5.08 9.22008 5.06 9.22008 5.06C9.24008 5.05 9.57008 5.03 10.0201 5C10.4901 4.97 10.9701 5.18 10.9901 5.18C11.0601 5.21 11.0801 5.28 11.0501 5.34C11.0401 5.36 11.0201 5.38 10.9901 5.39C10.9601 5.42 10.9101 5.42 10.8701 5.4ZM5.01008 5.4C4.98008 5.39 4.96008 5.37 4.95008 5.34C4.92008 5.28 4.95008 5.21 5.01008 5.18C5.03008 5.18 5.52008 4.97 5.98008 5C6.42008 5.03 6.76008 5.05 6.77008 5.06C6.77008 5.06 7.01008 5.08 6.99008 5.29C6.98008 5.36 6.81008 5.39 6.74008 5.38C6.27008 5.35 6.33008 5.35 5.96008 5.33C5.56008 5.3 5.13008 5.4 5.13008 5.4C5.09008 5.42 5.04008 5.42 5.01008 5.4ZM7.29008 6.21C7.25008 6.29 7.15008 6.32 7.07008 6.27C7.07008 6.27 6.96008 6.21 6.75008 6.17C6.79008 6.23 6.81008 6.3 6.81008 6.38C6.81008 6.61 6.62008 6.8 6.39008 6.8C6.16008 6.8 5.98008 6.61 5.98008 6.38C5.98008 6.29 6.01008 6.21 6.06008 6.15C5.72008 6.21 5.49008 6.35 5.48008 6.35C5.45008 6.37 5.42008 6.38 5.39008 6.38C5.34008 6.38 5.28008 6.35 5.25008 6.31C5.21008 6.23 5.23008 6.13 5.30008 6.08C5.32008 6.07 5.73008 5.8 6.31008 5.8C6.89008 5.8 7.21008 5.98 7.23008 5.99C7.31008 6.03 7.34008 6.13 7.29008 6.21ZM9.10008 9.48C9.08008 9.49 8.70008 9.79 8.00008 9.79C7.30008 9.79 6.92008 9.49 6.90008 9.48C6.84008 9.43 6.83008 9.33 6.88008 9.27C6.93008 9.2 7.01008 9.23 7.09008 9.24C7.42008 9.29 8.57008 9.29 8.91008 9.24C8.99008 9.23 9.07008 9.2 9.12008 9.27C9.17008 9.33 9.16008 9.43 9.10008 9.48ZM10.7401 6.31C10.7101 6.36 10.6601 6.38 10.6001 6.38C10.5701 6.38 10.5401 6.37 10.5101 6.35C10.5101 6.35 10.2801 6.2 9.93008 6.15C9.98008 6.22 10.0101 6.29 10.0101 6.38C10.0101 6.61 9.82008 6.8 9.59008 6.8C9.36008 6.8 9.19008 6.61 9.19008 6.38C9.19008 6.3 9.22008 6.23 9.26008 6.17C9.05008 6.21 8.94008 6.27 8.94008 6.27C8.85008 6.32 8.75008 6.29 8.71008 6.21C8.66008 6.13 8.69008 6.03 8.77008 5.99C8.78008 5.98 9.11008 5.8 9.69008 5.8C10.2801 5.8 10.6801 6.07 10.7001 6.08C10.7701 6.13 10.7901 6.23 10.7401 6.31Z" fill="white"/>
</svg>
