<?xml version="1.0" encoding="utf-8"?>
<!-- Generator: Adobe Illustrator 24.3.0, SVG Export Plug-In . SVG Version: 6.00 Build 0)  -->
<svg version="1.1" id="Class_x5F_64" xmlns="http://www.w3.org/2000/svg" xmlns:xlink="http://www.w3.org/1999/xlink" x="0px"
	 y="0px" viewBox="0 0 64 64" style="enable-background:new 0 0 64 64;" xml:space="preserve">
<style type="text/css">
	.st0{fill:url(#SVGID_1_);}
	.st1{opacity:0.3;}
	.st2{fill:url(#SVGID_2_);}
	.st3{fill:url(#SVGID_3_);}
	.st4{fill:none;}
</style>
<g>
	<linearGradient id="SVGID_1_" gradientUnits="userSpaceOnUse" x1="31.5805" y1="11.162" x2="32.1305" y2="53.9036">
		<stop  offset="0" style="stop-color:#FFFFFF"/>
		<stop  offset="1" style="stop-color:#B3B3B3"/>
	</linearGradient>
	<polyline class="st0" points="49.3,22 49.3,54.4 14.5,54.4 14.5,9.6 38.4,9.6 	"/>
	<polygon class="st1" points="38.4,9.6 37.8,22.5 49.3,22 	"/>
	<linearGradient id="SVGID_2_" gradientUnits="userSpaceOnUse" x1="38.2232" y1="21.2956" x2="44.0656" y2="15.6285">
		<stop  offset="0" style="stop-color:#CCCCCC"/>
		<stop  offset="1" style="stop-color:#808080"/>
	</linearGradient>
	<polygon class="st2" points="38.4,9.6 38.4,22 49.3,22 	"/>
	<g>
		<linearGradient id="SVGID_3_" gradientUnits="userSpaceOnUse" x1="31.1252" y1="24.1103" x2="31.2307" y2="48.3711">
			<stop  offset="0" style="stop-color:#808080"/>
			<stop  offset="1" style="stop-color:#4D4D4D"/>
		</linearGradient>
		<path class="st3" d="M37.6,38.9l5.2,1.5c-0.8,2.7-2.1,4.6-4,5.9s-4.2,1.9-7.1,1.9c-3.6,0-6.5-1.1-8.8-3.3c-2.3-2.2-3.4-5.2-3.4-9
			c0-4,1.2-7.2,3.5-9.4s5.3-3.4,9.1-3.4c3.3,0,5.9,0.9,8,2.6c1.2,1,2.1,2.5,2.7,4.5l-5.4,1.2c-0.3-1.3-1-2.3-2-3
			c-1-0.7-2.2-1.1-3.7-1.1c-2,0-3.6,0.6-4.8,1.9c-1.2,1.3-1.9,3.4-1.9,6.3c0,3.1,0.6,5.3,1.8,6.6s2.8,2,4.8,2c1.4,0,2.7-0.4,3.7-1.2
			C36.4,41.9,37.2,40.6,37.6,38.9z"/>
	</g>
	<rect x="0" class="st4" width="64" height="64"/>
</g>
</svg>
