<svg width="16" height="16" viewBox="0 0 16 16" fill="none" xmlns="http://www.w3.org/2000/svg">
<path opacity="0.5" d="M1 10.9001C1 10.9001 7.7 14.6002 8.5 15.0002L16 10.9001L14.3 10.0002L8.5 13.2001L2.7 10.0002C2.6 9.90019 1 10.9001 1 10.9001Z" fill="white"/>
<path opacity="0.5" d="M1 6.80054C1 6.80054 7.7 10.5004 8.5 10.9004L16 6.80054L14.3 5.90039L8.5 9.10059L2.7 5.90039C2.6 5.90039 1 6.80054 1 6.80054Z" fill="white"/>
<path d="M1 2.80005C1 2.80005 7.7 6.4999 8.5 6.8999L16 2.80005L8.5 0L1 2.80005Z" fill="white"/>
</svg>
