<svg width="16" height="16" viewBox="0 0 16 16" fill="none" xmlns="http://www.w3.org/2000/svg">
<path opacity="0.5" d="M3 0L0 3H13V16L16 13V0H3Z" fill="white"/>
<path d="M13 15H1V3H0V16H13V15Z" fill="white"/>
<path opacity="0.5" d="M5.6002 11.5996H8.4002L11.8002 14.9996H2.2002L5.6002 11.5996Z" fill="white"/>
<path d="M6.9998 4.2998C3.8998 4.2998 1.7998 7.3998 1.7998 7.3998C1.7998 7.3998 3.8998 10.4998 6.9998 10.4998C10.0998 10.4998 12.1998 7.3998 12.1998 7.3998C12.1998 7.3998 10.0998 4.2998 6.9998 4.2998ZM6.9998 10.1998C5.4998 10.1998 4.1998 8.9998 4.1998 7.3998C4.1998 5.7998 5.4998 4.6998 6.9998 4.6998C8.4998 4.6998 9.7998 5.8998 9.7998 7.4998C9.7998 9.0998 8.4998 10.1998 6.9998 10.1998Z" fill="white"/>
<path d="M7.7 7.49961C8.0866 7.49961 8.4 7.18621 8.4 6.79961C8.4 6.41301 8.0866 6.09961 7.7 6.09961C7.3134 6.09961 7 6.41301 7 6.79961C7 7.18621 7.3134 7.49961 7.7 7.49961Z" fill="white"/>
</svg>
