<svg width="16" height="16" viewBox="0 0 16 16" fill="none" xmlns="http://www.w3.org/2000/svg">
<path opacity="0.5" d="M4.09961 15.0996C3.19961 15.9996 1.79961 15.9996 0.899609 15.0996C-0.000390649 14.1996 -0.000390649 12.7996 0.899609 11.8996C1.79961 10.9996 3.19961 10.9996 4.09961 11.8996C4.99961 12.7996 4.99961 14.1996 4.09961 15.0996Z" fill="white"/>
<path opacity="0.5" d="M15.0996 4.09961C14.1996 4.99961 12.7996 4.99961 11.8996 4.09961C10.9996 3.19961 10.9996 1.79961 11.8996 0.899609C12.7996 -0.000390649 14.1996 -0.000390649 15.0996 0.899609C15.9996 1.79961 15.9996 3.19961 15.0996 4.09961Z" fill="white"/>
<path opacity="0.5" d="M10 1.5H1.5V10" stroke="white" stroke-miterlimit="10"/>
<path d="M14.4002 5.59961C14.5002 6.29961 14.4002 7.09961 14.2002 7.79961C13.8002 9.29961 13.0002 10.6996 11.9002 11.7996C10.8002 12.8996 9.4002 13.6996 7.9002 14.0996C7.2002 14.2996 6.4002 14.3996 5.7002 14.2996" stroke="white" stroke-width="2" stroke-miterlimit="10"/>
</svg>
