<?xml version="1.0" encoding="utf-8"?>
<!-- Generator: Adobe Illustrator 25.0.0, SVG Export Plug-In . SVG Version: 6.00 Build 0)  -->
<svg version="1.1" id="DataAsset_x5F_64" xmlns="http://www.w3.org/2000/svg" xmlns:xlink="http://www.w3.org/1999/xlink" x="0px"
	 y="0px" viewBox="0 0 64 64" style="enable-background:new 0 0 64 64;" xml:space="preserve">
<style type="text/css">
	.st0{fill-rule:evenodd;clip-rule:evenodd;fill:url(#SVGID_1_);}
	.st1{fill-rule:evenodd;clip-rule:evenodd;fill:url(#SVGID_2_);}
	.st2{opacity:0.3;fill-rule:evenodd;clip-rule:evenodd;fill:#FFFFFF;enable-background:new    ;}
	.st3{fill:none;}
</style>
<g>
	<linearGradient id="SVGID_1_" gradientUnits="userSpaceOnUse" x1="49.5518" y1="23.4382" x2="34.2247" y2="30.6026">
		<stop  offset="0" style="stop-color:#4D4D4D"/>
		<stop  offset="1" style="stop-color:#333333"/>
	</linearGradient>
	<circle class="st0" cx="32.6" cy="31.4" r="20.2"/>
	<g>
		<linearGradient id="SVGID_2_" gradientUnits="userSpaceOnUse" x1="12.1242" y1="31.3812" x2="52.3216" y2="31.3812">
			<stop  offset="0" style="stop-color:#999999"/>
			<stop  offset="0.591" style="stop-color:#C9C9C9"/>
			<stop  offset="1" style="stop-color:#E6E6E6"/>
		</linearGradient>
		<path class="st1" d="M45.7,46.6c3.6-3.1,5.7-7.2,6.6-11.5c0.1-0.3-0.1-0.5-0.4-0.6l-18.9-3c-0.3-0.1-0.5-0.4-0.3-0.7l9.6-16.4
			c0.1-0.2,0.1-0.5-0.2-0.7c-7.2-4-16.6-3.1-23.1,2.7c-8.3,7.2-9.1,20.1-1.9,28.4C24.6,53,37.1,53.8,45.7,46.6z"/>
	</g>
	<path class="st2" d="M46.4,19c-0.4-0.7-1.1-1.2-1.6-1.6c-0.2-0.2-0.5-0.1-0.6,0.1l-8.9,12.2c-0.2,0.3,0,0.6,0.3,0.6l14.7,0.5
		c0.2,0,0.4-0.2,0.4-0.4C50.7,26.4,49.3,22.2,46.4,19z"/>
	<rect x="0" class="st3" width="64" height="64"/>
</g>
</svg>
