<svg width="16" height="16" viewBox="0 0 16 16" fill="none" xmlns="http://www.w3.org/2000/svg">
<path opacity="0.5" d="M9.50039 9.39984V6.2998H6.50039V9.39984C6.50039 11.0998 5.10039 12.4998 3.40039 12.4998H12.7004C10.9004 12.4998 9.50039 11.0998 9.50039 9.39984Z" fill="white"/>
<path d="M10.3004 7.80017H5.70039C5.30039 7.80017 4.90039 7.50018 4.90039 7.00018C4.90039 6.60018 5.20039 6.2002 5.70039 6.2002H10.3004C10.7004 6.2002 11.1004 6.50018 11.1004 7.00018C11.1004 7.50018 10.8004 7.80017 10.3004 7.80017Z" fill="white"/>
<path d="M12.6004 14H3.40039V13.5C3.40039 12.9 3.80039 12.5 4.40039 12.5H11.7004C12.3004 12.5 12.7004 12.9 12.7004 13.5V14H12.6004Z" fill="white"/>
<path d="M8.00059 5.79999C9.04993 5.79999 9.90059 4.94937 9.90059 3.90002C9.90059 2.85068 9.04993 2 8.00059 2C6.95124 2 6.10059 2.85068 6.10059 3.90002C6.10059 4.94937 6.95124 5.79999 8.00059 5.79999Z" fill="white"/>
<path opacity="0.5" d="M14 1V15H2V1H14ZM15 0H1V16H15V0Z" fill="white"/>
</svg>
