<?xml version="1.0" encoding="utf-8"?>
<!-- Generator: Adobe Illustrator 24.3.0, SVG Export Plug-In . SVG Version: 6.00 Build 0)  -->
<svg version="1.1" id="DestructibleActor_x5F_64" xmlns="http://www.w3.org/2000/svg" xmlns:xlink="http://www.w3.org/1999/xlink"
	 x="0px" y="0px" viewBox="0 0 64 64" style="enable-background:new 0 0 64 64;" xml:space="preserve">
<style type="text/css">
	.st0{fill:none;}
	.st1{fill:url(#SVGID_1_);}
	.st2{fill:#848484;}
	.st3{fill:url(#SVGID_2_);}
	.st4{fill:url(#SVGID_3_);}
	.st5{fill:url(#SVGID_4_);}
	.st6{fill:url(#SVGID_5_);}
	.st7{fill:url(#SVGID_6_);}
	.st8{fill:url(#SVGID_7_);}
	.st9{fill:url(#SVGID_8_);}
	.st10{fill:url(#SVGID_9_);}
	.st11{fill:url(#SVGID_10_);}
</style>
<g>
	<rect x="0" class="st0" width="64" height="64"/>
	<g>
		<linearGradient id="SVGID_1_" gradientUnits="userSpaceOnUse" x1="26.7724" y1="29.0738" x2="41.2646" y2="43.566">
			<stop  offset="0" style="stop-color:#E6E6E6"/>
			<stop  offset="1" style="stop-color:#808080"/>
		</linearGradient>
		<polygon class="st1" points="31.7,43.7 25.3,30.6 36.1,28.6 44.3,40.5 39.9,44.1 		"/>
		<path class="st2" d="M35.9,29.2l7.7,11.3l-3.9,3.2L32,43.3l-6-12.3L35.9,29.2 M36.3,28.1l-0.6,0.1L25.8,30l-1.3,0.2l0.6,1.2
			l6,12.3l0.3,0.5l0.6,0l7.7,0.4l0.4,0l0.3-0.2l3.9-3.2l0.7-0.6l-0.5-0.8l-7.7-11.3L36.3,28.1L36.3,28.1z"/>
	</g>
	<g>
		<linearGradient id="SVGID_2_" gradientUnits="userSpaceOnUse" x1="7.3001" y1="6.4236" x2="18.0496" y2="17.1731">
			<stop  offset="0" style="stop-color:#E6E6E6"/>
			<stop  offset="1" style="stop-color:#808080"/>
		</linearGradient>
		<polygon class="st3" points="6.9,6.9 22.1,6.9 19,16.2 6.9,20.4 		"/>
		<path class="st2" d="M21.4,7.4l-2.8,8.4L7.4,19.7V7.4H21.4 M22.8,6.4h-1.4H7.4h-1v1v12.3v1.4l1.3-0.5L19,16.8l0.5-0.2l0.2-0.5
			l2.8-8.4L22.8,6.4L22.8,6.4z"/>
	</g>
	<g>
		<linearGradient id="SVGID_3_" gradientUnits="userSpaceOnUse" x1="41.7549" y1="23.9804" x2="55.9353" y2="38.1609">
			<stop  offset="0" style="stop-color:#E6E6E6"/>
			<stop  offset="1" style="stop-color:#808080"/>
		</linearGradient>
		<polygon class="st4" points="38.7,27 44.2,21.9 57.1,29.2 57.1,37 47.3,39.6 		"/>
		<path class="st2" d="M44.3,22.5l12.3,7v7L47.5,39l-8.1-12L44.3,22.5 M44.2,21.3l-0.5,0.5l-4.9,4.6l-0.6,0.6l0.5,0.7l8.1,12
			l0.4,0.6l0.7-0.2l9.2-2.5l0.7-0.2v-0.8v-7V29l-0.5-0.3l-12.3-7L44.2,21.3L44.2,21.3z"/>
	</g>
	<g>
		<linearGradient id="SVGID_4_" gradientUnits="userSpaceOnUse" x1="45.594" y1="6.799" x2="60.3528" y2="21.5578">
			<stop  offset="0" style="stop-color:#E6E6E6"/>
			<stop  offset="1" style="stop-color:#808080"/>
		</linearGradient>
		<polygon class="st5" points="45.1,17.8 46.3,15 45.5,6.9 57.1,6.9 57.1,24.8 		"/>
		<path class="st2" d="M56.6,7.4v16.5l-10.9-6.3l1.1-2.5l-0.7-7.7H56.6 M57.6,6.4h-1H46.1H45l0.1,1.1l0.7,7.5l-1,2.2L44.5,18
			l0.8,0.4l10.9,6.3l1.5,0.9v-1.7V7.4V6.4L57.6,6.4z"/>
	</g>
	<g>
		<linearGradient id="SVGID_5_" gradientUnits="userSpaceOnUse" x1="7.6773" y1="23.4326" x2="16.4187" y2="32.174">
			<stop  offset="0" style="stop-color:#E6E6E6"/>
			<stop  offset="1" style="stop-color:#808080"/>
		</linearGradient>
		<polygon class="st6" points="6.9,24.2 19.3,20.1 21.7,26.9 6.9,37.6 		"/>
		<path class="st2" d="M19,20.7l2.1,6L7.4,36.6v-12L19,20.7 M19.6,19.5l-0.9,0.3L7,23.7l-0.7,0.2v0.7v12v1.9l1.6-1.1l13.7-9.9
			l0.6-0.4L22,26.4l-2.1-6L19.6,19.5L19.6,19.5z"/>
	</g>
	<g>
		<linearGradient id="SVGID_6_" gradientUnits="userSpaceOnUse" x1="24.6009" y1="8.6091" x2="39.3037" y2="23.312">
			<stop  offset="0" style="stop-color:#E6E6E6"/>
			<stop  offset="1" style="stop-color:#808080"/>
		</linearGradient>
		<polygon class="st7" points="23,17.9 26.3,6.9 42,6.9 42.7,15.1 43.1,18.4 37.2,25.4 24.2,27.3 		"/>
		<path class="st2" d="M41.5,7.4l0.7,7.7l0.4,3.2L36.9,25l-12.3,1.8l-1.1-8.8l3.2-10.6h7.4H41.5 M42.4,6.4h-0.9h-7.4h-7.4H26
			l-0.2,0.7l-3.2,10.6l-0.1,0.2l0,0.2l1.1,8.8l0.1,1l1-0.1L37.1,26l0.4-0.1l0.2-0.3l5.6-6.7l0.3-0.3l0-0.4L43.2,15l-0.7-7.7
			L42.4,6.4L42.4,6.4z"/>
	</g>
	<g>
		<linearGradient id="SVGID_7_" gradientUnits="userSpaceOnUse" x1="14.6739" y1="35.1582" x2="26.7115" y2="47.1958">
			<stop  offset="0" style="stop-color:#E6E6E6"/>
			<stop  offset="1" style="stop-color:#808080"/>
		</linearGradient>
		<polygon class="st8" points="10.5,42.9 9.6,40.2 22.7,31.2 28.4,44.8 24.8,49.2 		"/>
		<path class="st2" d="M22.5,32l5.3,12.7l-3.2,3.9l-13.7-6l-0.7-2.1L22.5,32 M22.9,30.5l-1,0.7L9.6,39.6L9,40l0.2,0.7l0.7,2.1
			l0.1,0.4l0.4,0.2l13.7,6l0.7,0.3l0.5-0.6l3.2-3.9l0.4-0.5l-0.2-0.6l-5.3-12.7L22.9,30.5L22.9,30.5z"/>
	</g>
	<g>
		<linearGradient id="SVGID_8_" gradientUnits="userSpaceOnUse" x1="6.6724" y1="46.5483" x2="20.5078" y2="60.3838">
			<stop  offset="0" style="stop-color:#E6E6E6"/>
			<stop  offset="1" style="stop-color:#808080"/>
		</linearGradient>
		<polygon class="st9" points="6.9,57.1 6.9,46.4 9.6,45.9 23.3,52.8 23.8,57.1 		"/>
		<path class="st2" d="M9.5,46.4l13.4,6.7l0.4,3.5H7.4v-9.9L9.5,46.4 M9.6,45.4l-0.3,0.1l-2.1,0.4l-0.8,0.1v0.8v9.9v1h1h15.8h1.1
			l-0.1-1.1L23.8,53l-0.1-0.5l-0.5-0.2L9.9,45.5L9.6,45.4L9.6,45.4z"/>
	</g>
	<g>
		<linearGradient id="SVGID_9_" gradientUnits="userSpaceOnUse" x1="45.1394" y1="43.4509" x2="57.9822" y2="56.2937">
			<stop  offset="0" style="stop-color:#E6E6E6"/>
			<stop  offset="1" style="stop-color:#808080"/>
		</linearGradient>
		<polygon class="st10" points="42.8,57.1 42.4,46.2 46.9,42.8 57.1,39.4 57.1,57.1 		"/>
		<path class="st2" d="M56.6,40.1v16.5H43.3l-0.4-10.2l4.2-3.2L56.6,40.1 M57.6,38.7l-1.3,0.4l-9.5,3.2l-0.2,0.1l-0.1,0.1l-4.2,3.2
			l-0.4,0.3l0,0.5l0.4,10.2l0,1h1h13.4h1v-1V40.1V38.7L57.6,38.7z"/>
	</g>
	<g>
		<linearGradient id="SVGID_10_" gradientUnits="userSpaceOnUse" x1="29.5807" y1="48.0965" x2="39.4513" y2="57.9671">
			<stop  offset="0" style="stop-color:#E6E6E6"/>
			<stop  offset="1" style="stop-color:#808080"/>
		</linearGradient>
		<polygon class="st11" points="26.9,57.1 27.3,51.9 31.4,46.3 39.5,46.3 40.3,57.1 		"/>
		<path class="st2" d="M39,46.8l0.7,9.9H27.4l0.4-4.6l3.9-5.3H39 M40,45.8H39h-7.4h-0.5l-0.3,0.4L27,51.5l-0.2,0.2l0,0.3l-0.4,4.6
			l-0.1,1.1h1.1h12.3h1.1l-0.1-1.1L40,46.7L40,45.8L40,45.8z"/>
	</g>
</g>
</svg>
