<svg width="16" height="16" viewBox="0 0 16 16" fill="none" xmlns="http://www.w3.org/2000/svg">
<path d="M6.2998 7.7002L7.9998 11.2002L10.1998 11.3003L11.2998 10.4001L9.0998 7.2002L6.2998 7.7002Z" fill="white"/>
<path d="M4.2 3.3999L5 1H1V4.5L4.2 3.3999Z" fill="white"/>
<path d="M10.1001 6.59985L12.4001 9.99976L15.0001 9.2998V7.2998L11.5001 5.2998L10.1001 6.59985Z" fill="white"/>
<path d="M14.9999 5.69995L11.8999 3.8999L12.1999 3.19995L11.9999 1H14.9999V5.69995Z" fill="white"/>
<path d="M4.3 4.7998L1 5.89966V9.2998L4.9 6.49976L4.3 4.7998Z" fill="white"/>
<path d="M5.6001 4L5.9001 6.5L9.4001 6L11.0001 4.1001L10.9001 3.19995L10.7001 1H8.6001H6.5001L5.6001 4Z" fill="white"/>
<path d="M5.8998 12.7L6.7998 11.6001L5.2998 8L1.7998 10.3999L1.9998 11L5.8998 12.7Z" fill="white"/>
<path d="M5.4 13.9995L1.6 12.0996L1 12.1995V14.9995H5.5L5.4 13.9995Z" fill="white"/>
<path d="M15.0001 14.9998H11.2001L11.1001 12.0999L12.3001 11.1997L15.0001 10.2998V14.9998Z" fill="white"/>
<path d="M10.0002 12.2002H7.9002L6.8002 13.7002L6.7002 15.0002H10.2002L10.0002 12.2002Z" fill="white"/>
</svg>
