<?xml version="1.0" encoding="utf-8"?>
<!-- Generator: Adobe Illustrator 24.3.0, SVG Export Plug-In . SVG Version: 6.00 Build 0)  -->
<svg version="1.1" id="DialogueVoice_x5F_64" xmlns="http://www.w3.org/2000/svg" xmlns:xlink="http://www.w3.org/1999/xlink"
	 x="0px" y="0px" viewBox="0 0 64 64" style="enable-background:new 0 0 64 64;" xml:space="preserve">
<style type="text/css">
	.st0{fill:none;}
	.st1{fill:url(#SVGID_1_);}
	.st2{fill-rule:evenodd;clip-rule:evenodd;fill:url(#SVGID_2_);}
	.st3{fill:url(#SVGID_3_);enable-background:new    ;}
	.st4{fill:url(#SVGID_4_);}
</style>
<g>
	<rect x="0" class="st0" width="64" height="64"/>
	<linearGradient id="SVGID_1_" gradientUnits="userSpaceOnUse" x1="32.3365" y1="8.661" x2="32.3365" y2="54.6659">
		<stop  offset="0" style="stop-color:#666666"/>
		<stop  offset="1" style="stop-color:#999999"/>
	</linearGradient>
	<path class="st1" d="M32.3,8.7c-12.7,0-23,8.7-23,19.4c0,7.8,5.5,14.5,13.4,17.6l-6.1,9l14.6-7.2c0.4,0,0.7,0.1,1.1,0.1
		c12.7,0,23-8.7,23-19.4S45,8.7,32.3,8.7z"/>
	<linearGradient id="SVGID_2_" gradientUnits="userSpaceOnUse" x1="32" y1="24.585" x2="32" y2="43.6657">
		<stop  offset="0.797" style="stop-color:#CCCCCC"/>
		<stop  offset="1" style="stop-color:#B3B3B3"/>
	</linearGradient>
	<path class="st2" d="M39.6,24.6v2.6c0,3.9-2.8,7.4-6.7,7.8c-4.6,0.5-8.5-3.1-8.5-7.6v-2.8c0,0,0,0,0,0h-1.8c0,0,0,0,0,0v2.8
		c0,4.6,3.4,8.6,7.8,9.3c0,0,0,0,0,0c0.2,1.5,0.5,5.2-3.8,6.8c0,0,0,0.1,0,0.1h11.1c0,0,0-0.1,0-0.1c-4.4-1.6-4-5.3-3.8-6.8
		c0,0,0,0,0,0c4.4-0.8,7.8-4.8,7.8-9.3v-2.8c0,0,0,0,0,0L39.6,24.6C39.6,24.6,39.6,24.6,39.6,24.6z"/>
	<linearGradient id="SVGID_3_" gradientUnits="userSpaceOnUse" x1="32" y1="13.72" x2="32" y2="32.2981">
		<stop  offset="0" style="stop-color:#B3B3B3"/>
		<stop  offset="0.533" style="stop-color:#E6E6E6"/>
	</linearGradient>
	<path class="st3" d="M37.2,17.7v9.9c0,2.5-2.1,4.6-4.6,4.6h-1.1c-2.5,0-4.6-2.1-4.6-4.6v-9.9c0-2.5,2.1-4.6,4.6-4.6h1.1
		C35.1,13.1,37.2,15.2,37.2,17.7z"/>
	<linearGradient id="SVGID_4_" gradientUnits="userSpaceOnUse" x1="32" y1="41.8674" x2="32" y2="43.4767">
		<stop  offset="0" style="stop-color:#E6E6E6"/>
		<stop  offset="1" style="stop-color:#B3B3B3"/>
	</linearGradient>
	<path class="st4" d="M36,41.8H28c-1,0-1.8,0.8-1.8,1.8v0.2h11.4v-0.2C37.7,42.5,36.9,41.8,36,41.8z"/>
</g>
</svg>
