<svg width="16" height="16" viewBox="0 0 16 16" fill="none" xmlns="http://www.w3.org/2000/svg">
<path d="M8 1C11.9 1 15 3.6 15 6.8C15 10 11.9 12.6 8 12.6C7.9 12.6 7.9 12.6 7.8 12.6H7.6H7.3L7.1 12.7L5.5 13.5L6.2 12.5L5 11.9C2.6 11 1 9 1 6.8C1 3.6 4.1 1 8 1ZM8 0C3.6 0 0 3 0 6.8C0 9.5 1.9 11.9 4.7 12.9L2.5 16L7.6 13.5C7.7 13.5 7.9 13.5 8 13.5C12.4 13.5 16 10.5 16 6.7C16 2.9 12.4 0 8 0Z" fill="white"/>
<path d="M2.40039 7.39961H4.40039L4.60039 7.59961L5.00039 6.39961L5.40039 9.59961L6.10039 3.19961L6.90039 11.8996L7.60039 2.09961L8.40039 12.5996L9.10039 3.59961L9.90039 10.3996L10.6004 4.39961L11.4004 9.59961L11.8004 6.59961L12.1004 7.39961H12.9004" stroke="white" stroke-width="0.375" stroke-miterlimit="10"/>
</svg>
