<?xml version="1.0" encoding="utf-8"?>
<!-- Generator: Adobe Illustrator 24.3.0, SVG Export Plug-In . SVG Version: 6.00 Build 0)  -->
<svg version="1.1" id="DialogueWave_x5F_64_-_UPLOAD"
	 xmlns="http://www.w3.org/2000/svg" xmlns:xlink="http://www.w3.org/1999/xlink" x="0px" y="0px" viewBox="0 0 64 64"
	 style="enable-background:new 0 0 64 64;" xml:space="preserve">
<style type="text/css">
	.st0{fill:none;}
	.st1{fill:url(#SVGID_1_);}
	.st2{fill:#FFFFFF;}
</style>
<g>
	<rect x="0" class="st0" width="64" height="64"/>
	<linearGradient id="SVGID_1_" gradientUnits="userSpaceOnUse" x1="32.3365" y1="8.661" x2="32.3365" y2="54.6659">
		<stop  offset="0" style="stop-color:#666666"/>
		<stop  offset="1" style="stop-color:#999999"/>
	</linearGradient>
	<path class="st1" d="M32.3,8.7c-12.7,0-23,8.7-23,19.4c0,7.8,5.5,14.5,13.4,17.6l-6.1,9l14.6-7.2c0.4,0,0.7,0.1,1.1,0.1
		c12.7,0,23-8.7,23-19.4S45,8.7,32.3,8.7z"/>
	<g>
		<path class="st2" d="M15.8,28l5.9-0.1l0,0l0,0l0.7,0.5l-0.2,0.1l1-2.7l0.3-0.8l0.1,0.8L25,33l-0.8,0c0.3-2.4,0.6-4.8,1-7.1
			l1.1-7.1l0.6-3.7l0.4,3.7L29.4,38l-1,0l2.2-21.7l1,0l2.2,23.4l-1,0L35,19.6l0.4-3.9l0.6,3.9l2.2,15l-1,0l2.2-13.4l0.5-2.8l0.5,2.8
			c0.4,1.9,0.7,3.9,1,5.9l1,5.9l-0.5,0l1.3-6.7l0-0.3l0.1,0.2l1.1,1.7l0,0l2.2,0.1l-2.2,0.1l0,0l0,0l-1.1-1.6l0.2,0l-0.9,6.7
			l-0.2,1.5l-0.3-1.5l-1.2-5.8c-0.4-1.9-0.8-3.9-1.2-5.8l1,0l-2.2,13.4L37.6,38l-0.5-3.2l-2.2-15l1,0l-2.2,20.1l-0.5,4.9l-0.5-4.9
			l-2.2-23.4l1,0l-2.2,21.7L29,42.7l-0.5-4.6l-2.2-19.2l1,0L26.1,26c-0.3,2.4-0.8,4.7-1.2,7.1l-0.5,2.6l-0.3-2.6l-0.9-7.2l0.4,0.1
			l-1.2,2.6l-0.1,0.2l-0.2-0.1l-0.6-0.5l0.1,0L15.8,28z"/>
	</g>
</g>
</svg>
