<svg width="16" height="16" viewBox="0 0 16 16" fill="none" xmlns="http://www.w3.org/2000/svg">
<path d="M8 1C11.86 1 15 3.58 15 6.75C15 9.92 11.86 12.5 8 12.5C7.93 12.5 7.87 12.5 7.8 12.49L7.65 12.48L7.39 12.47L7.16 12.58L5.52 13.4L6.2 12.4L5.03 11.94C2.58 11 1 8.96 1 6.75C1 3.58 4.14 1 8 1ZM8 0C3.58 0 0 3.02 0 6.75C0 9.47 1.91 11.81 4.66 12.88L2.54 16L7.61 13.48C7.74 13.49 7.87 13.5 8 13.5C12.42 13.5 16 10.48 16 6.75C16 3.02 12.42 0 8 0Z" fill="white"/>
<path d="M9.62 3.02039V5.78039C9.62 6.67039 8.89 7.40039 8 7.40039C7.11 7.40039 6.38 6.67039 6.38 5.78039V3.02039C6.38 2.13039 7.11 1.40039 8 1.40039C8.89 1.40039 9.62 2.13039 9.62 3.02039ZM10.4 5.00039V5.88039C10.4 7.20039 9.32 8.28039 8 8.28039C6.68 8.28039 5.6 7.20039 5.6 5.88039V5.00039H5V5.88039C5 7.34039 6.06 8.56039 7.45 8.82039C7.51 9.17039 7.57 9.85039 7.12 10.4004H6.2V11.0004C8 11.0004 8 11.0004 9.8 11.0004V10.4004H8.88C8.43 9.85039 8.48 9.17039 8.55 8.82039C9.94 8.56039 11 7.34039 11 5.88039V5.00039H10.4Z" fill="white"/>
</svg>
