<svg width="16" height="16" viewBox="0 0 16 16" fill="none" xmlns="http://www.w3.org/2000/svg">
<path d="M6.5 8.5C7.60457 8.5 8.5 7.60457 8.5 6.5C8.5 5.39543 7.60457 4.5 6.5 4.5C5.39543 4.5 4.5 5.39543 4.5 6.5C4.5 7.60457 5.39543 8.5 6.5 8.5Z" fill="white"/>
<path d="M7 0H6V2.5H7V0Z" fill="white"/>
<path d="M7 10.5H6V13H7V10.5Z" fill="white"/>
<path d="M2.5498 7.0498V6.0498L0.0498047 6.0498V7.0498H2.5498Z" fill="white"/>
<path d="M13.0498 6.9502V5.9502L10.5498 5.9502V6.9502H13.0498Z" fill="white"/>
<path d="M1.78092 1.09017L1.14453 1.72656L3.26583 3.84786L3.90222 3.21147L1.78092 1.09017Z" fill="white"/>
<path d="M3.23458 9.13456L1.11328 11.2559L1.74969 11.8923L3.87099 9.77097L3.23458 9.13456Z" fill="white"/>
<path d="M11.2356 1.09354L9.11426 3.21484L9.75067 3.85125L11.872 1.72995L11.2356 1.09354Z" fill="white"/>
<path d="M13 13.9L9 9.90002L9.9 9L13.9 13L15.7 11.2L16 16L11.2 15.7L13 13.9Z" fill="white"/>
</svg>
