<?xml version="1.0" encoding="utf-8"?>
<!-- Generator: Adobe Illustrator 24.2.3, SVG Export Plug-In . SVG Version: 6.00 Build 0)  -->
<svg version="1.1" id="Layer_1" xmlns="http://www.w3.org/2000/svg" xmlns:xlink="http://www.w3.org/1999/xlink" x="0px" y="0px"
	 viewBox="0 0 64 64" style="enable-background:new 0 0 64 64;" xml:space="preserve">
<style type="text/css">
	.st0{fill:none;}
	.st1{fill:url(#SVGID_1_);}
	.st2{fill:#FFFFFF;}
	.st3{fill:url(#SVGID_2_);}
</style>
<g id="DirectionalLight_x5F_64">
	<g>
		<rect class="st0" width="64" height="64"/>
		
			<radialGradient id="SVGID_1_" cx="28.6" cy="218.2" r="21.457" gradientTransform="matrix(1 0 0 1 0 -190)" gradientUnits="userSpaceOnUse">
			<stop  offset="0" style="stop-color:#F2F2F2;stop-opacity:0.7"/>
			<stop  offset="1" style="stop-color:#B3B3B3;stop-opacity:0"/>
		</radialGradient>
		<circle class="st1" cx="28.6" cy="28.2" r="21.5"/>
		<g>
			<path class="st2" d="M28.6,34.1c3.3,0,5.9-2.7,5.9-5.9s-2.7-5.9-5.9-5.9s-5.9,2.7-5.9,5.9S25.4,34.1,28.6,34.1z"/>
			<path class="st2" d="M30.1,8.8h-3v7.4h3V8.8z"/>
			<path class="st2" d="M30.1,40h-3v7.4h3V40z"/>
			<path class="st2" d="M16.9,29.8v-3H9.5v3H16.9z"/>
			<path class="st2" d="M48.1,29.5v-3h-7.4v3H48.1z"/>
			<path class="st2" d="M14.6,12.1L12.7,14l6.3,6.3l1.9-1.9L14.6,12.1z"/>
			<path class="st2" d="M18.9,36l-6.3,6.3l1.9,1.9l6.3-6.3L18.9,36z"/>
			<path class="st2" d="M42.7,12.1l-6.3,6.3l1.9,1.9l6.3-6.3L42.7,12.1z"/>
			
				<linearGradient id="SVGID_2_" gradientUnits="userSpaceOnUse" x1="37.3952" y1="227.5217" x2="57.2713" y2="246.3517" gradientTransform="matrix(1 0 0 1 0 -190)">
				<stop  offset="0" style="stop-color:#F2F2F2"/>
				<stop  offset="0.5939" style="stop-color:#F2F2F2"/>
				<stop  offset="0.8479" style="stop-color:#C8C8C8"/>
				<stop  offset="1" style="stop-color:#B3B3B3"/>
			</linearGradient>
			<path class="st3" d="M47.9,50.1L36.1,38.2l2.7-2.7l11.9,11.9l5.3-5.3l0.9,14.3l-14.3-0.9L47.9,50.1z"/>
		</g>
	</g>
</g>
</svg>
