<?xml version="1.0" encoding="utf-8"?>
<!-- Generator: Adobe Illustrator 25.0.0, SVG Export Plug-In . SVG Version: 6.00 Build 0)  -->
<svg version="1.1" id="DocumentationActor_x5F_64" xmlns="http://www.w3.org/2000/svg" xmlns:xlink="http://www.w3.org/1999/xlink"
	 x="0px" y="0px" viewBox="0 0 64 64" style="enable-background:new 0 0 64 64;" xml:space="preserve">
<style type="text/css">
	.st0{fill-rule:evenodd;clip-rule:evenodd;fill:url(#SVGID_1_);}
	.st1{fill:#B2B2B2;enable-background:new    ;}
	.st2{opacity:0.31;fill:#7F7F7F;}
	.st3{fill:url(#SVGID_2_);}
	.st4{fill:url(#SVGID_3_);enable-background:new    ;}
	.st5{fill:url(#SVGID_4_);}
	.st6{fill:#7F7F7F;}
	.st7{fill:none;}
</style>
<g>
	<linearGradient id="SVGID_1_" gradientUnits="userSpaceOnUse" x1="10.2798" y1="17.9938" x2="55.0667" y2="43.8862">
		<stop  offset="0" style="stop-color:#999999"/>
		<stop  offset="1" style="stop-color:#FFFFFF"/>
	</linearGradient>
	<path class="st0" d="M38.5,17.6H7.6l15.8,24.9h32.5c1,0,1.6-0.9,1.1-1.5L39.6,18.1C39.3,17.8,38.9,17.6,38.5,17.6z"/>
	<path class="st1" d="M54.5,47.5l-31.8,1.3l0.7,1.6h32.8c0.6,0,1-0.4,1-0.8l0,0C57.2,49.1,55.1,47.5,54.5,47.5z"/>
	<polygon class="st2" points="26.3,41 24.9,40.9 10.8,19.1 12.1,19.2 	"/>
	<linearGradient id="SVGID_2_" gradientUnits="userSpaceOnUse" x1="27.2973" y1="34.4709" x2="52.6841" y2="49.1477">
		<stop  offset="0" style="stop-color:#FFFFFF;stop-opacity:0"/>
		<stop  offset="0.4949" style="stop-color:#FCFCFC"/>
		<stop  offset="1" style="stop-color:#FFFFFF;stop-opacity:0"/>
	</linearGradient>
	<path class="st3" d="M56.3,42.4l-32.6,0c-0.3,0-0.5-0.2-0.5-0.5l0,0c0-0.3,0.2-0.5,0.5-0.5h32.6c0.3,0,0.5,0.2,0.5,0.5l0,0
		C56.8,42.1,56.6,42.4,56.3,42.4z"/>
	<linearGradient id="SVGID_3_" gradientUnits="userSpaceOnUse" x1="39.1406" y1="42.4293" x2="39.1005" y2="49.2152">
		<stop  offset="0" style="stop-color:#333333"/>
		<stop  offset="0.5635" style="stop-color:#808080"/>
	</linearGradient>
	<path class="st4" d="M55.6,42.6H23.2c-0.4,0-0.7,0.3-0.7,0.6v5.6c0,0.3,0.3,0.6,0.8,0.6l32.4-0.1c0.1,0,0.1,0,0.1-0.1v-6.4
		C55.7,42.7,55.7,42.6,55.6,42.6z"/>
	<linearGradient id="SVGID_4_" gradientUnits="userSpaceOnUse" x1="27.5484" y1="42.9164" x2="52.2656" y2="57.2061">
		<stop  offset="0" style="stop-color:#FFFFFF;stop-opacity:0"/>
		<stop  offset="0.4949" style="stop-color:#FCFCFC"/>
		<stop  offset="1" style="stop-color:#FFFFFF;stop-opacity:0"/>
	</linearGradient>
	<path class="st5" d="M56.1,50.4H23.7c-0.1,0-0.1-0.1-0.1-0.1v-0.3c0-0.1,0.1-0.1,0.1-0.1h32.5c0.1,0,0.1,0.1,0.1,0.1v0.3
		C56.3,50.3,56.2,50.4,56.1,50.4z"/>
	<g>
		<path class="st6" d="M7.6,17.6c-0.9,2.3-1.1,4.6,0,7.4l15.8,25.4c-1.2-3-1.1-5.7,0-7.9L7.6,17.6z"/>
	</g>
	<rect x="0" class="st7" width="64" height="64"/>
</g>
</svg>
