<?xml version="1.0" encoding="utf-8"?>
<!-- Generator: Adobe Illustrator 24.3.0, SVG Export Plug-In . SVG Version: 6.00 Build 0)  -->
<svg version="1.1" id="EditorTutorial_x5F_64" xmlns="http://www.w3.org/2000/svg" xmlns:xlink="http://www.w3.org/1999/xlink"
	 x="0px" y="0px" viewBox="0 0 64 64" style="enable-background:new 0 0 64 64;" xml:space="preserve">
<style type="text/css">
	.st0{fill:none;}
	.st1{fill-rule:evenodd;clip-rule:evenodd;fill:url(#SVGID_1_);}
	.st2{fill-rule:evenodd;clip-rule:evenodd;fill:url(#SVGID_2_);}
	.st3{opacity:0.3;fill-rule:evenodd;clip-rule:evenodd;}
	.st4{fill-rule:evenodd;clip-rule:evenodd;fill:url(#SVGID_3_);}
	.st5{fill-rule:evenodd;clip-rule:evenodd;fill:url(#SVGID_4_);}
	.st6{fill-rule:evenodd;clip-rule:evenodd;fill:url(#SVGID_5_);}
</style>
<g>
	<rect x="0" class="st0" width="64" height="64"/>
	<linearGradient id="SVGID_1_" gradientUnits="userSpaceOnUse" x1="11.3295" y1="56.1389" x2="11.9973" y2="28.129">
		<stop  offset="0" style="stop-color:#999999"/>
		<stop  offset="0.3475" style="stop-color:#B9B9B9"/>
		<stop  offset="0.7687" style="stop-color:#DADADA"/>
		<stop  offset="1" style="stop-color:#E6E6E6"/>
	</linearGradient>
	<path class="st1" d="M13.4,56.6c-2,0.1-3.5-0.5-4-2.5l2.3-27l2.3,1.5L13.4,56.6z"/>
	<linearGradient id="SVGID_2_" gradientUnits="userSpaceOnUse" x1="31.271" y1="22.0622" x2="31.3941" y2="51.4891">
		<stop  offset="0.3756" style="stop-color:#4D4D4D"/>
		<stop  offset="0.4328" style="stop-color:#535353"/>
		<stop  offset="0.7991" style="stop-color:#747474"/>
		<stop  offset="1" style="stop-color:#808080"/>
	</linearGradient>
	<path class="st2" d="M21.7,22.9c0,0-7.3,12.8-6.6,16.9c0,0,9,9,16,11.6c0.6,0.2,1.3,0.2,1.8,0c2.5-1.1,9.7-4.7,14.8-12.6
		c0,0-0.5-8-9-16.7"/>
	<path class="st3" d="M21.7,22.9c0,0-3.9,7-5.5,11.5c0,0,9.3,8,15.8,9.9c0,0,8.5-2.6,14.7-9.7c0,0-1.6-6.4-9.4-14.4"/>
	<linearGradient id="SVGID_3_" gradientUnits="userSpaceOnUse" x1="21.4542" y1="31.0901" x2="43.9145" y2="15.3501">
		<stop  offset="0" style="stop-color:#808080"/>
		<stop  offset="1" style="stop-color:#CCCCCC"/>
	</linearGradient>
	<path class="st4" d="M56.9,24.1L32.3,39.6c-0.2,0.1-0.4,0.1-0.6,0L7.1,24.1c-0.3-0.2-0.3-0.7,0-0.9L31.7,7.5c0.2-0.1,0.4-0.1,0.6,0
		l24.6,15.7C57.2,23.5,57.2,23.9,56.9,24.1z"/>
	<linearGradient id="SVGID_4_" gradientUnits="userSpaceOnUse" x1="11.6565" y1="24.8827" x2="32" y2="24.8827">
		<stop  offset="0" style="stop-color:#E6E6E6"/>
		<stop  offset="1" style="stop-color:#999999"/>
	</linearGradient>
	<polyline class="st5" points="13.8,28.5 32,22 32,21.2 11.7,27 	"/>
	<ellipse class="st3" cx="31.4" cy="22" rx="2.1" ry="1.2"/>
	
		<radialGradient id="SVGID_5_" cx="31.3415" cy="21.7237" r="4.1525" gradientTransform="matrix(1 0 0 0.4043 0 12.94)" gradientUnits="userSpaceOnUse">
		<stop  offset="0" style="stop-color:#CCCCCC"/>
		<stop  offset="1" style="stop-color:#808080"/>
	</radialGradient>
	<ellipse class="st6" cx="31.3" cy="21.7" rx="2.1" ry="1.2"/>
</g>
</svg>
