<svg width="16" height="16" viewBox="0 0 16 16" fill="none" xmlns="http://www.w3.org/2000/svg">
<path opacity="0.5" d="M1 15.9996C1.1 15.7996 3.7 10.3996 6.9 7.19958C9.3 4.79958 12.5 3.19961 12.6 3.09961L13.4 4.29968C13.4 4.29968 9.7 5.99958 7.2 8.19958C3.9 11.0996 1 15.9996 1 15.9996Z" fill="white"/>
<path opacity="0.5" d="M3 16C3 16 4.5 14.5 7.1 13.3C9.2 12.4 11.1 12 11.1 12L11.3 13.1C11 13.2 9.2 13.5 7.4 14C5 14.9 3 16 3 16Z" fill="white"/>
<path opacity="0.5" d="M1.10011 14.8003C1.10011 14.7003 1.00011 12.7003 1.10011 10.9003C1.20011 9.30027 1.70011 7.4002 2.30011 5.7002H2.60011L3.30011 6.00024L3.70011 6.30029C2.90011 7.80029 2.10011 9.0002 1.60011 10.7002C1.10011 12.5002 1.10011 14.8003 1.10011 14.8003Z" fill="white"/>
<path fill-rule="evenodd" clip-rule="evenodd" d="M0.0996094 5.80023L2.59961 6.00018L3.89961 8.20013L4.79961 5.90021L7.29961 5.30023L5.39961 3.70013L5.69961 1.2002L3.49961 2.50018L1.19961 1.50018L1.79961 3.90021L0.0996094 5.80023Z" fill="white"/>
<path fill-rule="evenodd" clip-rule="evenodd" d="M9.19961 15.2997L11.4996 14.2997L13.6996 15.5996L13.3996 13.0996L15.2996 11.3997L12.7996 10.8997L11.7996 8.59961L10.5996 10.7997L8.09961 10.9996L9.79961 12.8997L9.19961 15.2997Z" fill="white"/>
<path fill-rule="evenodd" clip-rule="evenodd" d="M12.1004 6.90002L13.5004 5.09998L15.7004 5.19995L14.5004 3.30005L15.2004 1.20001L13.1004 1.90002L11.3004 0.5V2.70001L9.40039 4L11.5004 4.69995L12.1004 6.90002Z" fill="white"/>
</svg>
