<svg width="16" height="16" viewBox="0 0 16 16" fill="none" xmlns="http://www.w3.org/2000/svg">
<path opacity="0.5" d="M1 15.9996C1.1 15.7996 3.7 10.3996 6.9 7.19961C9.3 4.79961 12.5 3.19961 12.6 3.09961L13.4 4.29961C13.4 4.29961 9.7 5.99961 7.2 8.19961C3.9 11.0996 1 15.9996 1 15.9996Z" fill="white"/>
<path opacity="0.5" d="M3 16C3 16 4.5 14.5 7.1 13.3C9.2 12.4 11.1 12 11.1 12L11.3 13.1C11 13.2 9.2 13.5 7.4 14C5 14.9 3 16 3 16Z" fill="white"/>
<path opacity="0.5" d="M1.10011 14.7992C1.10011 14.6992 1.00011 12.6992 1.10011 10.8992C1.20011 9.29922 1.70011 7.39922 2.30011 5.69922H2.60011L3.30011 5.99922L3.70011 6.29922C2.80011 7.99922 2.10011 9.19922 1.60011 10.8992C1.10011 12.4992 1.10011 14.7992 1.10011 14.7992Z" fill="white"/>
<path fill-rule="evenodd" clip-rule="evenodd" d="M0.100098 5.79922L2.6001 5.99922L3.9001 8.19922L4.8001 5.89922L7.3001 5.29922L5.4001 3.69922L5.7001 1.19922L3.5001 2.49922L1.2001 1.49922L1.8001 3.89922L0.100098 5.79922Z" fill="white"/>
<path fill-rule="evenodd" clip-rule="evenodd" d="M9.2001 15.2996L11.5001 14.2996L13.7001 15.5996L13.4001 13.0996L15.3001 11.3996L12.8001 10.8996L11.8001 8.59961L10.6001 10.7996L8.1001 10.9996L9.8001 12.8996L9.2001 15.2996Z" fill="white"/>
<path fill-rule="evenodd" clip-rule="evenodd" d="M12.0999 6.9L13.4999 5.1L15.6999 5.2L14.4999 3.3L15.1999 1.2L13.0999 1.9L11.2999 0.5V2.7L9.3999 4L11.4999 4.7L12.0999 6.9Z" fill="white"/>
</svg>
