<?xml version="1.0" encoding="utf-8"?>
<!-- Generator: Adobe Illustrator 24.3.0, SVG Export Plug-In . SVG Version: 6.00 Build 0)  -->
<svg version="1.1" id="Emitter_x5F_64" xmlns="http://www.w3.org/2000/svg" xmlns:xlink="http://www.w3.org/1999/xlink" x="0px"
	 y="0px" viewBox="0 0 64 64" style="enable-background:new 0 0 64 64;" xml:space="preserve">
<style type="text/css">
	.st0{fill:none;}
	.st1{fill:url(#SVGID_1_);}
	.st2{fill:url(#SVGID_2_);}
	.st3{fill:url(#SVGID_3_);}
	.st4{fill-rule:evenodd;clip-rule:evenodd;fill:url(#SVGID_4_);}
	.st5{fill-rule:evenodd;clip-rule:evenodd;fill:url(#SVGID_5_);}
	.st6{fill-rule:evenodd;clip-rule:evenodd;fill:url(#SVGID_6_);}
</style>
<g id="Layer_68">
</g>
<g>
	<rect x="0" class="st0" width="64" height="64"/>
	<linearGradient id="SVGID_1_" gradientUnits="userSpaceOnUse" x1="6.1614" y1="53.1765" x2="14.5303" y2="25.1932">
		<stop  offset="0" style="stop-color:#666666"/>
		<stop  offset="1" style="stop-color:#B3B3B3"/>
	</linearGradient>
	<path class="st1" d="M18.8,25.6c0,0-13.4,9.8-10.2,28.8c0,0-6.2-14.1,3.8-32.7L18.8,25.6z"/>
	<linearGradient id="SVGID_2_" gradientUnits="userSpaceOnUse" x1="9.8138" y1="54.1116" x2="43.8123" y2="20.1131">
		<stop  offset="0" style="stop-color:#666666"/>
		<stop  offset="1" style="stop-color:#B3B3B3"/>
	</linearGradient>
	<path class="st2" d="M47.5,23.5c0,0-21.8,9.9-37.4,34.2c0,0,1.2-18.1,33.8-42.3L47.5,23.5z"/>
	<linearGradient id="SVGID_3_" gradientUnits="userSpaceOnUse" x1="13.3618" y1="56.8967" x2="47.4475" y2="44.1691">
		<stop  offset="0" style="stop-color:#666666"/>
		<stop  offset="1" style="stop-color:#B3B3B3"/>
	</linearGradient>
	<path class="st3" d="M40.9,50.9c0,0-14.8-1.4-28.2,7.7c0,0,9.4-12.7,27.6-14.6L40.9,50.9z"/>
	<g>
		<g>
			<linearGradient id="SVGID_4_" gradientUnits="userSpaceOnUse" x1="11.5385" y1="26.4923" x2="20.7884" y2="14.7198">
				<stop  offset="0" style="stop-color:#CCCCCC"/>
				<stop  offset="1" style="stop-color:#FFFFFF"/>
			</linearGradient>
			<path class="st4" d="M6.7,23.9l7.5,0.6c0.1,0,0.2,0.1,0.3,0.2l3.9,6.6c0.1,0.2,0.5,0.2,0.6,0l2.7-6.8c0-0.1,0.1-0.2,0.2-0.2
				l7.5-1.8c0.3-0.1,0.4-0.4,0.1-0.6L23.8,17c-0.1-0.1-0.1-0.2-0.1-0.3l0.9-7.4c0-0.3-0.3-0.5-0.5-0.3l-6.6,3.9
				c-0.1,0.1-0.2,0.1-0.3,0l-6.9-3c-0.3-0.1-0.5,0.1-0.5,0.4l1.8,7.1c0,0.1,0,0.2-0.1,0.3l-5.1,5.7C6.3,23.5,6.4,23.9,6.7,23.9z"/>
		</g>
		<g>
			<linearGradient id="SVGID_5_" gradientUnits="userSpaceOnUse" x1="33.0406" y1="44.8816" x2="56.2334" y2="44.8816">
				<stop  offset="0" style="stop-color:#CCCCCC"/>
				<stop  offset="1" style="stop-color:#FFFFFF"/>
			</linearGradient>
			<path class="st5" d="M37,55.2l6.9-3c0.1,0,0.2,0,0.3,0l6.6,3.9c0.2,0.1,0.6-0.1,0.5-0.3l-0.9-7.5c0-0.1,0-0.2,0.1-0.3l5.7-5.1
				c0.2-0.2,0.1-0.5-0.2-0.6l-7.5-1.5c-0.1,0-0.2-0.1-0.2-0.2l-3-6.8c-0.1-0.3-0.5-0.3-0.6,0l-3.6,6.5c-0.1,0.1-0.2,0.2-0.3,0.2
				l-7.4,0.6c-0.3,0-0.4,0.4-0.2,0.6l5.1,5.7c0.1,0.1,0.1,0.2,0.1,0.3l-1.8,7.1C36.4,55.1,36.7,55.3,37,55.2z"/>
		</g>
		<g>
			<linearGradient id="SVGID_6_" gradientUnits="userSpaceOnUse" x1="37.4153" y1="16.8291" x2="57.6646" y2="16.8291">
				<stop  offset="0" style="stop-color:#CCCCCC"/>
				<stop  offset="1" style="stop-color:#FFFFFF"/>
			</linearGradient>
			<path class="st6" d="M46.4,27l4.1-5.3c0.1-0.1,0.2-0.1,0.3-0.1l6.5,0.3c0.3,0,0.5-0.3,0.3-0.5l-3.6-5.6c-0.1-0.1-0.1-0.2,0-0.3
				l2.1-6.2c0.1-0.3-0.2-0.5-0.4-0.4l-6.2,2.1c-0.1,0-0.2,0-0.3-0.1l-5.3-4.1c-0.2-0.2-0.6,0-0.6,0.3v6.4c0,0.1-0.1,0.2-0.1,0.3
				l-5.6,3.8c-0.2,0.2-0.2,0.5,0.1,0.6l6.2,2.1c0.1,0,0.2,0.1,0.2,0.2l1.8,6.5C45.9,27.1,46.2,27.2,46.4,27z"/>
		</g>
	</g>
</g>
</svg>
