<svg width="16" height="16" viewBox="0 0 16 16" fill="none" xmlns="http://www.w3.org/2000/svg">
<path d="M8 1C9.32608 1 10.5978 1.52678 11.5355 2.46446C12.4732 3.40214 13 4.67392 13 6C13 7.32608 12.4732 8.59786 11.5355 9.53554C10.5978 10.4732 9.32608 11 8 11C6.67392 11 5.40216 10.4732 4.46448 9.53554C3.5268 8.59786 3 7.32608 3 6C3 4.67392 3.5268 3.40214 4.46448 2.46446C5.40216 1.52678 6.67392 1 8 1V1ZM8 0C6.4087 0 4.88257 0.632136 3.75735 1.75735C2.63214 2.88257 2 4.4087 2 6C2 7.5913 2.63214 9.11743 3.75735 10.2426C4.88257 11.3679 6.4087 12 8 12C9.5913 12 11.1174 11.3679 12.2426 10.2426C13.3679 9.11743 14 7.5913 14 6C14 4.4087 13.3679 2.88257 12.2426 1.75735C11.1174 0.632136 9.5913 0 8 0V0Z" fill="white"/>
<path opacity="0.5" fill-rule="evenodd" clip-rule="evenodd" d="M14 14L13 10L16 14V16H0V14L3 10L2 14H4H12H14Z" fill="white"/>
<path d="M10.0401 5.16001C10.7028 5.16001 11.2401 4.62275 11.2401 3.96001C11.2401 3.29727 10.7028 2.76001 10.0401 2.76001C9.37735 2.76001 8.84009 3.29727 8.84009 3.96001C8.84009 4.62275 9.37735 5.16001 10.0401 5.16001Z" fill="white"/>
</svg>
