<svg width="64" height="64" viewBox="0 0 64 64" fill="none" xmlns="http://www.w3.org/2000/svg">
<path fill-rule="evenodd" clip-rule="evenodd" d="M55.7 51.1799L50.7 36.1799L59 52.4299V58.9999H6V52.4099L14.3 35.9199L9.29999 51.1799H55.7Z" fill="url(#paint0_linear_6488_8059)"/>
<path d="M58.88 52.4099H6V58.9999H58.88V52.4099Z" fill="#BFBFBF"/>
<path d="M32.5 47.4C35.3763 47.4013 38.2247 46.8358 40.8823 45.7357C43.5399 44.6355 45.9547 43.0225 47.9886 40.9886C50.0225 38.9547 51.6355 36.5399 52.7357 33.8823C53.8358 31.2247 54.4013 28.3763 54.4 25.5C54.3737 19.6999 52.058 14.1448 47.9566 10.0434C43.8552 5.94204 38.3001 3.62628 32.5 3.59998C26.6999 3.62628 21.1448 5.94204 17.0434 10.0434C12.942 14.1448 10.6263 19.6999 10.6 25.5C10.5987 28.3763 11.1642 31.2247 12.2643 33.8823C13.3645 36.5399 14.9776 38.9547 17.0114 40.9886C19.0453 43.0225 21.4601 44.6355 24.1177 45.7357C26.7753 46.8358 29.6237 47.4013 32.5 47.4Z" fill="url(#paint1_radial_6488_8059)"/>
<path opacity="0.39" d="M32.5 7C37.3892 7.02643 42.0691 8.98717 45.5169 12.4537C48.9647 15.9203 50.9001 20.6108 50.9 25.5C50.8947 30.4049 48.9439 35.1073 45.4756 38.5756C42.0074 42.0439 37.3049 43.9947 32.4 44C29.9768 43.9948 27.5783 43.512 25.3417 42.5792C23.1052 41.6464 21.0744 40.2819 19.3655 38.5637C17.6567 36.8456 16.3032 34.8074 15.3826 32.5659C14.4619 30.3243 13.9921 27.9233 14 25.5C14.0053 20.5951 15.9561 15.8927 19.4244 12.4244C22.8927 8.9561 27.5951 7.00529 32.5 7ZM32.5 5C27.0655 5.00794 21.8558 7.17028 18.0131 11.0131C14.1703 14.8558 12.0079 20.0655 12 25.5C12.0079 30.9345 14.1703 36.1442 18.0131 39.9869C21.8558 43.8297 27.0655 45.9921 32.5 46C35.1859 45.9948 37.8445 45.4602 40.3237 44.4269C42.8029 43.3936 45.0541 41.8818 46.9487 39.9779C48.8432 38.074 50.344 35.8155 51.3652 33.3312C52.3863 30.847 52.9079 28.1859 52.9 25.5C52.9079 22.8141 52.3863 20.153 51.3652 17.6688C50.344 15.1845 48.8432 12.926 46.9487 11.0221C45.0541 9.11823 42.8029 7.60643 40.3237 6.57312C37.8445 5.53981 35.1859 5.00524 32.5 5Z" fill="#BFBFBF"/>
<defs>
<linearGradient id="paint0_linear_6488_8059" x1="32.51" y1="58.5699" x2="32.45" y2="36.0299" gradientUnits="userSpaceOnUse">
<stop offset="0.39" stop-color="#E6E6E6"/>
<stop offset="1" stop-color="#404040"/>
</linearGradient>
<radialGradient id="paint1_radial_6488_8059" cx="0" cy="0" r="1" gradientUnits="userSpaceOnUse" gradientTransform="translate(31.5025 28.0185) scale(21.85)">
<stop stop-color="#666666"/>
<stop offset="1" stop-color="#1A1A1A"/>
</radialGradient>
</defs>
</svg>
