<svg width="16" height="16" viewBox="0 0 16 16" fill="none" xmlns="http://www.w3.org/2000/svg">
<path d="M8 0C5 0 2.5 2.5 2.5 5.5C2.5 8.5 5.5 10 8 16C10.5 10 13.5 8.5 13.5 5.5C13.5 2.5 11 0 8 0ZM8 11.2C7.3 11.2 6.8 10.6 6.8 10C6.8 9.3 7.4 8.8 8 8.8C8.6 8.8 9.2 9.4 9.2 10C9.2 10.7 8.7 11.2 8 11.2ZM8.9 7.4C8.9 7.9 8.5 8.3 8 8.3C7.5 8.3 7.1 7.9 7.1 7.4V6.6C7.1 6.1 7.5 5.7 8 5.7C8.6 5.7 9 5.2 9 4.7C9 4.1 8.5 3.7 8 3.7C7.5 3.7 7 4.2 7 4.7C7 5.2 6.6 5.6 6.1 5.6C5.6 5.6 5.2 5.2 5.2 4.7C5.2 3.2 6.5 2 8 2C9.5 2 10.8 3.2 10.8 4.8C10.8 6 10 7 8.9 7.4Z" fill="white"/>
</svg>
