<?xml version="1.0" encoding="utf-8"?>
<!-- Generator: Adobe Illustrator 24.2.3, SVG Export Plug-In . SVG Version: 6.00 Build 0)  -->
<svg version="1.1" id="Layer_1" xmlns="http://www.w3.org/2000/svg" xmlns:xlink="http://www.w3.org/1999/xlink" x="0px" y="0px"
	 viewBox="0 0 64 64" style="enable-background:new 0 0 64 64;" xml:space="preserve">
<style type="text/css">
	.st0{fill:none;}
	.st1{fill:#FFFFFF;}
	.st2{fill:url(#SVGID_1_);}
	.st3{fill:url(#SVGID_2_);}
	.st4{fill:url(#SVGID_3_);}
	.st5{fill:url(#SVGID_4_);}
	.st6{fill:url(#SVGID_5_);}
</style>
<g id="ExponentialHeightFog_x5F_64">
	<g>
		<rect class="st0" width="64" height="64"/>
		<g>
			<path class="st1" d="M57.9,27c0-5.4-4.5-8.8-9.7-7.6c5.2-7.7-2.4-14.9-9.2-14.9c-8.3,0-15.2,6.2-10.9,15.4
				c-7.5-12.7-22.5-3.8-15,8.1C7.7,26.8,6,29.7,6,31.6c0,2.7,2.1,3.6,4.5,3.6c0.4,0,0,0,0,0h38.9c0.4,0-0.4,0,0,0
				C55,35.3,58.3,32.4,57.9,27z"/>
			
				<linearGradient id="SVGID_1_" gradientUnits="userSpaceOnUse" x1="22.0216" y1="229.5441" x2="21.9788" y2="233.3133" gradientTransform="matrix(1 0 0 1 0 -190)">
				<stop  offset="0" style="stop-color:#BFBFBF"/>
				<stop  offset="1" style="stop-color:#808080"/>
			</linearGradient>
			<path class="st2" d="M35.3,39.7H8.7c-0.5,0-0.8,0.6-0.8,1.4v0.7c0,0.8,0.4,1.4,0.8,1.4h26.6c0.5,0,0.8-0.6,0.8-1.4v-0.7
				C36.1,40.3,35.7,39.7,35.3,39.7z"/>
			
				<linearGradient id="SVGID_2_" gradientUnits="userSpaceOnUse" x1="22.022" y1="237.3122" x2="21.9792" y2="241.0814" gradientTransform="matrix(1 0 0 1 0 -190)">
				<stop  offset="0" style="stop-color:#BFBFBF"/>
				<stop  offset="1" style="stop-color:#808080"/>
			</linearGradient>
			<path class="st3" d="M35.3,47.5H8.7c-0.5,0-0.8,0.6-0.8,1.4v0.7c0,0.8,0.4,1.4,0.8,1.4h26.6c0.5,0,0.8-0.6,0.8-1.4v-0.7
				C36.1,48.1,35.7,47.5,35.3,47.5z"/>
			
				<linearGradient id="SVGID_3_" gradientUnits="userSpaceOnUse" x1="22.0218" y1="244.9331" x2="21.979" y2="248.7022" gradientTransform="matrix(1 0 0 1 0 -190)">
				<stop  offset="0" style="stop-color:#BFBFBF"/>
				<stop  offset="1" style="stop-color:#808080"/>
			</linearGradient>
			<path class="st4" d="M35.3,55.1H8.7c-0.5,0-0.8,0.6-0.8,1.4v0.7c0,0.8,0.4,1.4,0.8,1.4h26.6c0.5,0,0.8-0.6,0.8-1.4v-0.7
				C36.1,55.7,35.7,55.1,35.3,55.1z"/>
			
				<linearGradient id="SVGID_4_" gradientUnits="userSpaceOnUse" x1="32.1436" y1="195.8249" x2="31.803" y2="225.7971" gradientTransform="matrix(1 0 0 1 0 -190)">
				<stop  offset="0" style="stop-color:#FFFFFF"/>
				<stop  offset="0.5615" style="stop-color:#BFBFBF"/>
				<stop  offset="1" style="stop-color:#808080"/>
			</linearGradient>
			<path class="st5" d="M57.2,27.8c0-5.2-5.3-8.5-10.2-7.4c4.9-7.4-1.9-14.5-8.3-14.5c-7.9,0-13.2,7.8-9.1,16.7
				C22.4,10.4,6.9,17,14.1,28.5c-5.3-1.1-7.6,1.9-7.6,3.7c0,2.6,2.6,3.3,4.9,3.3c0.4,0,0,0,0,0h37.1c0.4,0-0.4,0,0,0
				C53.8,35.6,57.6,33,57.2,27.8z"/>
		</g>
		
			<linearGradient id="SVGID_5_" gradientUnits="userSpaceOnUse" x1="48.2951" y1="228.6675" x2="48.0187" y2="248.7789" gradientTransform="matrix(1 0 0 1 0 -190)">
			<stop  offset="0" style="stop-color:#E6E6E6"/>
			<stop  offset="1" style="stop-color:#808080"/>
		</linearGradient>
		<path class="st6" d="M45.8,58.8h4.5c0.3,0,0.6-0.3,0.6-0.6v-7.3c0-0.3,0.3-0.6,0.6-0.6h4c0.4,0,0.7-0.5,0.5-0.9l-7.4-11.1
			c-0.2-0.3-0.7-0.3-0.9,0l-7.4,11.1c-0.2,0.4,0,0.9,0.5,0.9h4c0.3,0,0.6,0.3,0.6,0.6v7.3C45.2,58.6,45.5,58.8,45.8,58.8z"/>
	</g>
</g>
</svg>
