<?xml version="1.0" encoding="utf-8"?>
<!-- Generator: Adobe Illustrator 25.0.0, SVG Export Plug-In . SVG Version: 6.00 Build 0)  -->
<svg version="1.1" id="FileMediaSource_x5F_64" xmlns="http://www.w3.org/2000/svg" xmlns:xlink="http://www.w3.org/1999/xlink"
	 x="0px" y="0px" viewBox="0 0 64 64" style="enable-background:new 0 0 64 64;" xml:space="preserve">
<style type="text/css">
	.st0{fill:url(#SVGID_1_);}
	.st1{fill:url(#SVGID_2_);}
	.st2{fill-rule:evenodd;clip-rule:evenodd;fill:#FFFFFF;}
	.st3{fill-rule:evenodd;clip-rule:evenodd;fill:url(#SVGID_3_);}
	.st4{fill-rule:evenodd;clip-rule:evenodd;fill:url(#SVGID_4_);}
	.st5{fill-rule:evenodd;clip-rule:evenodd;fill:url(#SVGID_5_);}
	.st6{fill-rule:evenodd;clip-rule:evenodd;fill:url(#SVGID_6_);}
	.st7{fill-rule:evenodd;clip-rule:evenodd;fill:#BFBFBF;}
	.st8{fill-rule:evenodd;clip-rule:evenodd;fill:url(#SVGID_7_);}
	.st9{fill-rule:evenodd;clip-rule:evenodd;fill:url(#SVGID_8_);}
	.st10{fill:#B2B2B2;enable-background:new    ;}
	.st11{opacity:0.31;fill:#7F7F7F;}
	.st12{fill:url(#SVGID_9_);}
	.st13{fill:url(#SVGID_10_);enable-background:new    ;}
	.st14{fill:url(#SVGID_11_);}
	.st15{fill:#7F7F7F;}
	.st16{fill:none;}
</style>
<g>
	<g>
		<linearGradient id="SVGID_1_" gradientUnits="userSpaceOnUse" x1="23.9874" y1="15.2879" x2="25.875" y2="14.1919">
			<stop  offset="0" style="stop-color:#CCCCCC"/>
			<stop  offset="0.6345" style="stop-color:#666666"/>
			<stop  offset="1" style="stop-color:#808080"/>
		</linearGradient>
		<path class="st0" d="M29.1,21.8L29.1,21.8c-0.5,0.3-1,0.1-1.3-0.3L20.6,8.8c-0.3-0.5-0.1-1,0.3-1.3l0,0c0.5-0.3,1-0.1,1.3,0.3
			l7.3,12.6C29.7,21,29.6,21.6,29.1,21.8z"/>
		<linearGradient id="SVGID_2_" gradientUnits="userSpaceOnUse" x1="37.1369" y1="14.1327" x2="38.3547" y2="14.8634">
			<stop  offset="0" style="stop-color:#CCCCCC"/>
			<stop  offset="0.6345" style="stop-color:#666666"/>
			<stop  offset="1" style="stop-color:#808080"/>
		</linearGradient>
		<path class="st1" d="M33.9,21.8L33.9,21.8c0.5,0.3,1,0.1,1.3-0.3l7.3-12.6c0.3-0.5,0.1-1-0.3-1.3v0c-0.5-0.3-1-0.1-1.3,0.3
			l-7.3,12.6C33.3,21,33.5,21.6,33.9,21.8z"/>
		<path class="st2" d="M52.8,47H16.6c-2.2,0-4-1.8-4-4V22.1c0-2.2,1.8-4,4-4h36.2c2.2,0,4,1.8,4,4V43C56.8,45.2,55,47,52.8,47z"/>
		<linearGradient id="SVGID_3_" gradientUnits="userSpaceOnUse" x1="34.6988" y1="19.9061" x2="34.6988" y2="48.7761">
			<stop  offset="0" style="stop-color:#CCCCCC"/>
			<stop  offset="0.7817" style="stop-color:#666666"/>
			<stop  offset="1" style="stop-color:#808080"/>
		</linearGradient>
		<path class="st3" d="M52.8,47.7H16.6c-2.2,0-4-1.8-4-4V22.8c0-2.2,1.8-4,4-4h36.2c2.2,0,4,1.8,4,4v20.9
			C56.8,45.9,55,47.7,52.8,47.7z"/>
		<linearGradient id="SVGID_4_" gradientUnits="userSpaceOnUse" x1="31.4182" y1="22.0724" x2="31.4182" y2="44.0479">
			<stop  offset="0" style="stop-color:#4D4D4D"/>
			<stop  offset="1" style="stop-color:#1A1A1A"/>
		</linearGradient>
		<path class="st4" d="M44,44.8H18.9c-1.7,0-3.1-1.4-3.1-3.1V24.6c0-1.7,1.4-3.1,3.1-3.1H44c1.7,0,3.1,1.4,3.1,3.1v17.1
			C47.1,43.4,45.7,44.8,44,44.8z"/>
		<radialGradient id="SVGID_5_" cx="52.0933" cy="25.2352" r="2.9491" gradientUnits="userSpaceOnUse">
			<stop  offset="0" style="stop-color:#808080"/>
			<stop  offset="1" style="stop-color:#4D4D4D"/>
		</radialGradient>
		<circle class="st5" cx="52.1" cy="25.2" r="2.9"/>
		<radialGradient id="SVGID_6_" cx="52.0933" cy="32.582" r="2.9491" gradientUnits="userSpaceOnUse">
			<stop  offset="0" style="stop-color:#808080"/>
			<stop  offset="1" style="stop-color:#4D4D4D"/>
		</radialGradient>
		<circle class="st6" cx="52.1" cy="32.6" r="2.9"/>
		<circle class="st7" cx="52.1" cy="25.2" r="2.3"/>
		<circle class="st7" cx="52.1" cy="32.6" r="2.3"/>
	</g>
	<linearGradient id="SVGID_7_" gradientUnits="userSpaceOnUse" x1="14.165" y1="31.3687" x2="14.0866" y2="25.6482">
		<stop  offset="0" style="stop-color:#333333"/>
		<stop  offset="1" style="stop-color:#F2F2F2;stop-opacity:0"/>
	</linearGradient>
	<rect x="12.6" y="27.6" class="st8" width="3.2" height="3.7"/>
	<g>
		<linearGradient id="SVGID_8_" gradientUnits="userSpaceOnUse" x1="8.3911" y1="30.5252" x2="38.0776" y2="47.6877">
			<stop  offset="0" style="stop-color:#999999"/>
			<stop  offset="1" style="stop-color:#FFFFFF"/>
		</linearGradient>
		<path class="st9" d="M27.1,30.3H6.6l10.5,16.5h21.5c0.7,0,1.1-0.6,0.7-1L27.8,30.6C27.7,30.4,27.4,30.3,27.1,30.3z"/>
		<path class="st10" d="M37.7,50.1L16.6,51l0.4,1h21.7c0.4,0,0.7-0.2,0.7-0.5l0,0C39.5,51.2,38.1,50.1,37.7,50.1z"/>
		<polygon class="st11" points="19,45.8 18.1,45.7 8.7,31.3 9.6,31.3 		"/>
		<linearGradient id="SVGID_9_" gradientUnits="userSpaceOnUse" x1="19.6709" y1="41.4469" x2="36.4983" y2="51.1752">
			<stop  offset="0" style="stop-color:#FFFFFF;stop-opacity:0"/>
			<stop  offset="0.4949" style="stop-color:#FCFCFC"/>
			<stop  offset="1" style="stop-color:#FFFFFF;stop-opacity:0"/>
		</linearGradient>
		<path class="st12" d="M38.9,46.7H17.3c-0.2,0-0.4-0.2-0.4-0.4l0,0c0-0.2,0.2-0.4,0.4-0.4h21.6c0.2,0,0.4,0.2,0.4,0.4l0,0
			C39.3,46.5,39.1,46.7,38.9,46.7z"/>
		<linearGradient id="SVGID_10_" gradientUnits="userSpaceOnUse" x1="27.5211" y1="46.7221" x2="27.4945" y2="51.22">
			<stop  offset="0" style="stop-color:#333333"/>
			<stop  offset="0.5635" style="stop-color:#808080"/>
		</linearGradient>
		<path class="st13" d="M38.4,46.8H17c-0.3,0-0.5,0.2-0.5,0.4V51c0,0.2,0.2,0.4,0.5,0.4l21.4-0.1c0,0,0.1,0,0.1-0.1L38.4,46.8
			C38.5,46.9,38.5,46.8,38.4,46.8z"/>
		<linearGradient id="SVGID_11_" gradientUnits="userSpaceOnUse" x1="19.8525" y1="47.0537" x2="36.2057" y2="56.5079">
			<stop  offset="0" style="stop-color:#FFFFFF;stop-opacity:0"/>
			<stop  offset="0.4949" style="stop-color:#FCFCFC"/>
			<stop  offset="1" style="stop-color:#FFFFFF;stop-opacity:0"/>
		</linearGradient>
		<path class="st14" d="M38.7,52H17.3c-0.1,0-0.1-0.1-0.1-0.1v-0.1c0-0.1,0.1-0.1,0.1-0.1h21.4c0.1,0,0.1,0.1,0.1,0.1v0.1
			C38.9,51.9,38.8,52,38.7,52z"/>
		<g>
			<path class="st15" d="M6.6,30.3c-0.6,1.5-0.7,3,0,4.9L17.1,52c-0.8-2-0.7-3.8,0-5.2L6.6,30.3z"/>
		</g>
	</g>
	<rect x="0" class="st16" width="64" height="64"/>
</g>
</svg>
