<svg width="16" height="16" viewBox="0 0 16 16" fill="none" xmlns="http://www.w3.org/2000/svg">
<path fill-rule="evenodd" clip-rule="evenodd" d="M15.8998 8.90039C13.6998 10.5004 10.4998 12.6004 7.2998 16.0004C7.2998 16.0004 9.1998 9.70039 15.8998 8.90039Z" fill="white"/>
<path fill-rule="evenodd" clip-rule="evenodd" d="M5.40039 0.300781C12.6004 8.90078 8.00039 14.2008 6.60039 16.0008C6.60039 16.0008 9.40039 10.0008 5.40039 0.300781Z" fill="white"/>
<path opacity="0.5" fill-rule="evenodd" clip-rule="evenodd" d="M0.100098 9.60059C5.6001 10.5006 5.5001 15.0006 5.6001 16.0006C5.6001 16.0006 3.9001 12.3006 0.100098 9.60059Z" fill="white"/>
<path opacity="0.5" fill-rule="evenodd" clip-rule="evenodd" d="M16 13.3008C11.6 13.3008 8.1 15.0008 8 16.0008C8 16.0008 12.3 15.9008 16 13.3008Z" fill="white"/>
<path fill-rule="evenodd" clip-rule="evenodd" d="M6.7001 13.5L6.3001 16C5.6001 13.7 6.5001 9.9 1.1001 5.5C7.4001 8.9 6.7001 13.5 6.7001 13.5Z" fill="white"/>
</svg>
