<svg width="64" height="64" viewBox="0 0 64 64" fill="none" xmlns="http://www.w3.org/2000/svg">
<path fill-rule="evenodd" clip-rule="evenodd" d="M52.9 48.7C38.6 48.7 27.3 54.2 26.9 57.5C27 57.5 40.9 57.2 52.9 48.7Z" fill="#7F7F7F"/>
<path fill-rule="evenodd" clip-rule="evenodd" d="M54.9 34.3999C47.8 39.5999 37.4 46.3999 27 57.4999C27 57.4999 33.1 36.9999 54.9 34.3999Z" fill="url(#paint0_linear)"/>
<path fill-rule="evenodd" clip-rule="evenodd" d="M9.09998 36.7C27 39.6 26.6 54.2 27 57.5C27 57.5 21.4 45.5 9.09998 36.7Z" fill="#7F7F7F"/>
<path fill-rule="evenodd" clip-rule="evenodd" d="M28.9 50.5999L27 57.4999C24.7 49.9999 28.1 37.6999 10.6 23.3999C31 34.3999 28.9 50.5999 28.9 50.5999Z" fill="url(#paint1_linear)"/>
<path fill-rule="evenodd" clip-rule="evenodd" d="M22.7 6.5C46.1 35.9 31.7 51.4 27 57.5C27 57.5 33.6 38.4 22.7 6.5Z" fill="url(#paint2_linear)"/>
<defs>
<linearGradient id="paint0_linear" x1="40.9303" y1="34.459" x2="40.9697" y2="57.4628" gradientUnits="userSpaceOnUse">
<stop stop-color="white"/>
<stop offset="1" stop-color="#808080"/>
</linearGradient>
<linearGradient id="paint1_linear" x1="19.7584" y1="23.3842" x2="19.8169" y2="57.5122" gradientUnits="userSpaceOnUse">
<stop stop-color="white"/>
<stop offset="1" stop-color="#808080"/>
</linearGradient>
<linearGradient id="paint2_linear" x1="29.1794" y1="9.6227" x2="29.2613" y2="57.4563" gradientUnits="userSpaceOnUse">
<stop offset="0.5989" stop-color="white"/>
<stop offset="1" stop-color="#808080"/>
</linearGradient>
</defs>
</svg>
