<?xml version="1.0" encoding="utf-8"?>
<!-- Generator: Adobe Illustrator 24.2.3, SVG Export Plug-In . SVG Version: 6.00 Build 0)  -->
<svg version="1.1" id="Layer_1" xmlns="http://www.w3.org/2000/svg" xmlns:xlink="http://www.w3.org/1999/xlink" x="0px" y="0px"
	 viewBox="0 0 64 64" style="enable-background:new 0 0 64 64;" xml:space="preserve">
<style type="text/css">
	.st0{fill:none;}
	.st1{fill:url(#SVGID_1_);}
	.st2{opacity:0.29;fill-rule:evenodd;clip-rule:evenodd;enable-background:new    ;}
	.st3{fill-rule:evenodd;clip-rule:evenodd;fill:#FFFFFF;}
	.st4{opacity:0.5;fill:#7F7F7F;enable-background:new    ;}
</style>
<g id="TextRenderActor_x5F_64">
	<g>
		<rect class="st0" width="64" height="64"/>
		
			<linearGradient id="SVGID_1_" gradientUnits="userSpaceOnUse" x1="32.0131" y1="204.0956" x2="31.7604" y2="243.7578" gradientTransform="matrix(1 0 0 1 0 -190)">
			<stop  offset="0" style="stop-color:#333333"/>
			<stop  offset="1" style="stop-color:#808080"/>
		</linearGradient>
		<rect x="6.4" y="11.8" class="st1" width="51" height="40.1"/>
		<path class="st2" d="M31.8,48.9H18.9v-3.4h4.8V21.7h-6.8v3.1h-3.4v-6.5h23.8v6.5h-3.4v-3.1h-6.8v23.8h4.8v3.4H31.8z M54.3,31.9
			h-6.8v13.6h3.4v3.4h-6.8v-17h-6.8v-3.4h6.8v-6.8h3.4v6.8h6.8C54.3,28.5,54.3,31.9,54.3,31.9z"/>
		<path class="st3" d="M29.8,47.3H16.9v-3.4h4.8V20.1h-6.8v3.1h-3.4v-6.5h23.8v6.5h-3.4v-3.1h-6.8v23.8h4.8L29.8,47.3L29.8,47.3z
			 M52.3,30.3h-6.8v13.6h3.4v3.4h-6.8v-17h-6.8v-3.4h6.8v-6.8h3.4v6.8h6.8C52.3,26.9,52.3,30.3,52.3,30.3z"/>
		<g>
			<path class="st4" d="M55.7,13.3v37.5H8V13.3H55.7z M59.1,9.9H4.6v44.3h54.5V9.9z"/>
		</g>
	</g>
</g>
</svg>
