<svg width="16" height="16" viewBox="0 0 16 16" fill="none" xmlns="http://www.w3.org/2000/svg">
<path fill-rule="evenodd" clip-rule="evenodd" d="M9 4.9C9 5 9 5.2 8.9 5.2C8.9 5.3 8.8 5.3 8.7 5.3C8.6 5.3 8.5 5.3 8.5 5.2C8.4 5.2 8.4 5 8 4.9V4H6V11H7.4C7.5 11.4 7.7 11.4 7.7 11.4C7.8 11.5 7.8 11.5 7.8 11.6C7.8 11.7 7.8 11.8 7.7 11.8C7.7 12 7.6 12 7.4 12H3.6C3.5 12 3.3 12 3.3 11.9C3.2 11.8 3.2 11.8 3.2 11.7C3.2 11.6 3.2 11.5 3.3 11.5C3.4 11.4 3.5 11.4 3.6 11.1H5V4H3V4.9C2.6 5 2.6 5.2 2.5 5.2C2.5 5.3 2.4 5.3 2.3 5.3C2.2 5.3 2.1 5.3 2.1 5.2C2 5.2 2 5 2 4.9V3H9V4.9ZM14 7H12V11H13V12H11V7H9V6H11V4H12V6H14V7Z" fill="white"/>
<path opacity="0.5" d="M15 2V13H1V2H15ZM16 1H0V14H16V1Z" fill="white"/>
</svg>
