<svg width="16" height="16" viewBox="0 0 16 16" fill="none" xmlns="http://www.w3.org/2000/svg">
<path fill-rule="evenodd" clip-rule="evenodd" d="M13.2996 10.9996C12.7996 9.59961 11.6996 7.09961 10.6996 7.09961C9.09962 7.09961 9.09962 8.49961 8.49962 8.49961C8.19962 8.49961 6.99962 8.49961 6.59962 8.49961C5.99962 8.49961 5.99962 7.09961 4.39962 7.09961C3.39962 7.09961 2.29962 9.59961 1.79962 10.9996C0.899622 13.6996 0.799622 14.8996 2.69962 14.8996C4.79962 14.8996 4.79962 12.4996 7.49962 12.4996C10.1996 12.4996 10.2996 14.8996 12.2996 14.8996C14.1996 14.8996 14.1996 13.6996 13.2996 10.9996ZM6.49962 10.9996H4.99962V12.3996H3.99962V10.9996H2.59962V9.99961H3.99962V8.49961H4.99962V9.99961H6.49962V10.9996ZM10.4996 12.3996C9.49962 12.3996 8.69962 11.5996 8.69962 10.5996C8.69962 9.59961 9.49962 8.69961 10.4996 8.69961C11.4996 8.69961 12.3996 9.49961 12.3996 10.5996C12.3996 11.4996 11.4996 12.3996 10.4996 12.3996Z" fill="white"/>
<path fill-rule="evenodd" clip-rule="evenodd" d="M10.4994 9.79883C10.1994 9.79883 9.89941 10.0988 9.89941 10.3988C9.89941 10.6988 10.1994 10.9988 10.4994 10.9988C10.7994 10.9988 11.0994 10.6988 11.0994 10.3988C11.0994 10.0988 10.7994 9.79883 10.4994 9.79883Z" fill="white"/>
<path opacity="0.5" d="M14.5 7.5C14 6.1 12.5 4.5 11.5 4.5C9.5 4.5 9.5 5.5 7.5 5.5C5.5 5.5 5.5 4.5 3.5 4.5C2.5 4.5 1 6.1 0.5 7.5" stroke="white" stroke-miterlimit="10"/>
<path opacity="0.5" d="M14.5 3.50049C14 2.10049 12.7 0.60049 11.6 0.60049C9.5 0.50049 9.5 2.00049 7.5 2.00049C5.5 2.00049 5.5 0.50049 3.4 0.60049C2.4 0.60049 1 2.10049 0.5 3.50049" stroke="white" stroke-miterlimit="10"/>
</svg>
