<?xml version="1.0" encoding="utf-8"?>
<!-- Generator: Adobe Illustrator 25.0.0, SVG Export Plug-In . SVG Version: 6.00 Build 0)  -->
<svg version="1.1" id="ForceFeedback_x5F_64" xmlns="http://www.w3.org/2000/svg" xmlns:xlink="http://www.w3.org/1999/xlink"
	 x="0px" y="0px" viewBox="0 0 64 64" style="enable-background:new 0 0 64 64;" xml:space="preserve">
<style type="text/css">
	.st0{opacity:0.3;fill-rule:evenodd;clip-rule:evenodd;stroke:#000000;stroke-width:4;stroke-miterlimit:10;}
	.st1{enable-background:new    ;}
	.st2{fill:#B2B2B2;}
	.st3{fill:#7F7F7F;}
	.st4{fill-rule:evenodd;clip-rule:evenodd;fill:url(#SVGID_1_);}
	.st5{fill-rule:evenodd;clip-rule:evenodd;fill:#FFFFFF;stroke:#BFBFBF;stroke-width:0.25;stroke-miterlimit:10;}
	.st6{fill-rule:evenodd;clip-rule:evenodd;fill:#E5E5E5;stroke:#BFBFBF;stroke-width:0.25;stroke-miterlimit:10;}
	.st7{fill:none;}
</style>
<g>
	<path class="st0" d="M49,40.5c-1.5-4.1-4.7-11.5-7.7-11.5c-4.7,0-4.7,1.3-6.5,1.3c-0.9,0-4.4,0-5.6,0c-1.8,0-1.8-1.3-6.5-1.3
		c-2.9,0-6.2,7.4-7.7,11.5c-2.7,8-2.9,11.5,2.7,11.5c6.2,0,6.2-5.2,14.2-5.2S40.2,52,46.1,52C51.7,52,51.7,48.5,49,40.5z M28.5,39.7
		h-2.7c-0.3,0-0.5,0.2-0.5,0.5v2.4c0,0.3-0.2,0.5-0.5,0.5h-1.4c-0.3,0-0.5-0.2-0.5-0.5v-2.4c0-0.3-0.2-0.5-0.5-0.5H20
		c-0.3,0-0.5-0.2-0.5-0.5v-1.4c0-0.3,0.2-0.5,0.5-0.5h2.4c0.3,0,0.5-0.2,0.5-0.5v-2.7c0-0.3,0.2-0.5,0.5-0.5h1.4
		c0.3,0,0.5,0.2,0.5,0.5v2.7c0,0.3,0.2,0.5,0.5,0.5h2.7c0.3,0,0.5,0.2,0.5,0.5v1.4C29,39.5,28.7,39.7,28.5,39.7z M43.6,43.6
		c-4.3,2.3-8.6-1-8.1-5.2c0.3-2.8,2.6-5.1,5.5-5c3.1,0.1,5.9,2.9,5.3,6.5C46,41.6,45,42.9,43.6,43.6z"/>
	<g class="st1">
		<path class="st2" d="M54.1,27.5c-1-2-2.3-3.8-3.9-5.4c-0.8-0.8-1.6-1.5-2.5-2.1c-0.9-0.6-1.9-1.1-2.8-1.2l-0.3,0l-0.4,0
			c-0.3,0-0.5,0-0.8,0.1c-0.5,0.1-1,0.1-1.6,0.3c-1,0.2-1.9,0.7-2.9,1.2c-1,0.5-2.1,1.1-3.3,1.4c-1.2,0.3-2.4,0.4-3.6,0.4
			c-1.2,0-2.4-0.1-3.6-0.4c-1.2-0.3-2.3-0.8-3.3-1.4c-1-0.5-1.9-0.9-2.9-1.2c-0.5-0.1-1-0.2-1.6-0.3c-0.3,0-0.5,0-0.8-0.1l-0.4,0
			l-0.3,0c-0.9,0.1-1.9,0.6-2.8,1.1c-0.9,0.6-1.7,1.3-2.5,2.1c-1.6,1.6-2.9,3.4-3.9,5.4c0.6-2.2,1.8-4.2,3.2-6.1
			c0.7-0.9,1.5-1.7,2.5-2.5c0.9-0.7,2-1.4,3.3-1.6c0.2,0,0.4,0,0.5-0.1l0.4,0c0.3,0,0.6,0,0.9,0c0.6,0,1.2,0.1,1.8,0.2
			c1.2,0.2,2.4,0.7,3.4,1.2c1,0.5,2,0.9,3,1.2c1,0.3,2,0.3,3.1,0.3c1.1,0,2.1-0.1,3.1-0.3c1-0.2,1.9-0.7,3-1.2c1-0.5,2.2-1,3.4-1.2
			c0.6-0.1,1.2-0.2,1.8-0.2c0.3,0,0.6,0,0.9,0l0.4,0c0.2,0,0.3,0,0.5,0.1c1.4,0.2,2.4,0.9,3.3,1.6c0.9,0.8,1.7,1.6,2.5,2.5
			C52.3,23.3,53.5,25.3,54.1,27.5z"/>
	</g>
	<g class="st1">
		<path class="st2" d="M54.1,19.9c-1-2-2.3-3.8-3.9-5.4c-0.8-0.8-1.6-1.5-2.5-2.1c-0.9-0.6-1.9-1.1-2.8-1.2l-0.3,0l-0.4,0
			c-0.3,0-0.5,0-0.8,0.1c-0.5,0.1-1,0.1-1.6,0.3c-1,0.2-1.9,0.7-2.9,1.2c-1,0.5-2.1,1.1-3.3,1.4c-1.2,0.3-2.4,0.4-3.6,0.4
			c-1.2,0-2.4-0.1-3.6-0.4c-1.2-0.3-2.3-0.8-3.3-1.4c-1-0.5-1.9-0.9-2.9-1.2c-0.5-0.1-1-0.2-1.6-0.3c-0.3,0-0.5,0-0.8-0.1l-0.4,0
			l-0.3,0c-0.9,0.1-1.9,0.6-2.8,1.1c-0.9,0.6-1.7,1.3-2.5,2.1c-1.6,1.6-2.9,3.4-3.9,5.4c0.6-2.2,1.8-4.2,3.2-6.1
			c0.7-0.9,1.5-1.7,2.5-2.5c0.9-0.7,2-1.4,3.3-1.6c0.2,0,0.4,0,0.5-0.1l0.4,0c0.3,0,0.6,0,0.9,0c0.6,0,1.2,0.1,1.8,0.2
			c1.2,0.2,2.4,0.7,3.4,1.2c1,0.5,2,0.9,3,1.2c1,0.3,2,0.3,3.1,0.3c1.1,0,2.1-0.1,3.1-0.3c1-0.2,1.9-0.7,3-1.2c1-0.5,2.2-1,3.4-1.2
			c0.6-0.1,1.2-0.2,1.8-0.2c0.3,0,0.6,0,0.9,0l0.4,0c0.2,0,0.3,0,0.5,0.1c1.4,0.2,2.4,0.9,3.3,1.6c0.9,0.8,1.7,1.6,2.5,2.5
			C52.3,15.6,53.5,17.6,54.1,19.9z"/>
	</g>
	<g>
		<circle class="st3" cx="41.9" cy="37.4" r="6.1"/>
		<linearGradient id="SVGID_1_" gradientUnits="userSpaceOnUse" x1="32.0974" y1="26.6894" x2="31.9466" y2="59.4128">
			<stop  offset="0" style="stop-color:#BFBFBF"/>
			<stop  offset="1" style="stop-color:#545454"/>
		</linearGradient>
		<path class="st4" d="M50.9,39.2c-1.6-4.6-5.3-12.8-8.5-12.8c-5.3,0-5.3,1.4-7.2,1.4c-1,0-4.9,0-6.2,0c-2,0-2-1.4-7.2-1.4
			c-3.3,0-6.9,8.2-8.5,12.8c-3,8.9-3.3,12.8,3,12.8c6.9,0,6.9-5.8,15.8-5.8S41.1,52,47.7,52C53.9,52,53.9,48.1,50.9,39.2z
			 M28.1,38.3h-3c-0.3,0-0.6,0.3-0.6,0.6v2.7c0,0.3-0.3,0.6-0.6,0.6h-1.6c-0.3,0-0.6-0.3-0.6-0.6v-2.7c0-0.3-0.3-0.6-0.6-0.6h-2.7
			c-0.3,0-0.6-0.3-0.6-0.6v-1.6c0-0.3,0.3-0.6,0.6-0.6h2.7c0.3,0,0.6-0.3,0.6-0.6v-3c0-0.3,0.3-0.6,0.6-0.6H24
			c0.3,0,0.6,0.3,0.6,0.6v3c0,0.3,0.3,0.6,0.6,0.6h3c0.3,0,0.6,0.3,0.6,0.6v1.6C28.6,38.1,28.4,38.3,28.1,38.3z M44.9,42.7
			c-4.8,2.5-9.6-1.1-9.1-5.8c0.3-3.1,2.9-5.7,6.1-5.6c3.5,0.1,6.6,3.2,6,7.3C47.6,40.4,46.5,41.9,44.9,42.7z"/>
		<circle class="st5" cx="41.9" cy="34.7" r="1.5"/>
		<circle class="st5" cx="44.8" cy="37.6" r="1.5"/>
		<circle class="st5" cx="39" cy="37.6" r="1.5"/>
		<circle class="st5" cx="41.9" cy="40.2" r="1.5"/>
		<path class="st6" d="M28.1,38.3h-3c-0.3,0-0.6,0.3-0.6,0.6v2.7c0,0.3-0.3,0.6-0.6,0.6h-1.6c-0.3,0-0.6-0.3-0.6-0.6v-2.7
			c0-0.3-0.3-0.6-0.6-0.6h-2.7c-0.3,0-0.6-0.3-0.6-0.6v-1.6c0-0.3,0.3-0.6,0.6-0.6h2.7c0.3,0,0.6-0.3,0.6-0.6v-3
			c0-0.3,0.3-0.6,0.6-0.6H24c0.3,0,0.6,0.3,0.6,0.6v3c0,0.3,0.3,0.6,0.6,0.6h3c0.3,0,0.6,0.3,0.6,0.6v1.6
			C28.6,38.1,28.4,38.3,28.1,38.3z"/>
	</g>
	<rect x="0" class="st7" width="64" height="64"/>
</g>
</svg>
