<?xml version="1.0" encoding="utf-8"?>
<!-- Generator: Adobe Illustrator 24.3.0, SVG Export Plug-In . SVG Version: 6.00 Build 0)  -->
<svg version="1.1" id="GameModeBase_x5F_64" xmlns="http://www.w3.org/2000/svg" xmlns:xlink="http://www.w3.org/1999/xlink"
	 x="0px" y="0px" viewBox="0 0 64 64" style="enable-background:new 0 0 64 64;" xml:space="preserve">
<style type="text/css">
	.st0{fill:none;}
	.st1{fill-rule:evenodd;clip-rule:evenodd;fill:#5B5B5B;}
	.st2{fill-rule:evenodd;clip-rule:evenodd;fill:#7F7F7F;}
	.st3{fill:url(#SVGID_1_);}
	.st4{fill:url(#SVGID_2_);}
	.st5{fill-rule:evenodd;clip-rule:evenodd;fill:#BFBFBF;}
	.st6{fill-rule:evenodd;clip-rule:evenodd;fill:url(#SVGID_3_);}
	.st7{opacity:0.3;fill-rule:evenodd;clip-rule:evenodd;}
	.st8{fill:#7F7F7F;}
	.st9{fill-rule:evenodd;clip-rule:evenodd;fill:url(#SVGID_4_);}
	.st10{fill-rule:evenodd;clip-rule:evenodd;fill:#FFFFFF;stroke:#BFBFBF;stroke-width:0.25;stroke-miterlimit:10;}
	.st11{fill-rule:evenodd;clip-rule:evenodd;fill:#E5E5E5;stroke:#BFBFBF;stroke-width:0.25;stroke-miterlimit:10;}
</style>
<rect x="0" class="st0" width="64" height="64"/>
<g>
	<rect x="26.8" y="45.6" class="st1" width="9.8" height="7.6"/>
	<path class="st2" d="M24.1,42c0,2.7,3.4,4.8,7.7,4.8s7.7-2.2,7.7-4.8H24.1z"/>
	<linearGradient id="SVGID_1_" gradientUnits="userSpaceOnUse" x1="31.8915" y1="9.8377" x2="31.8915" y2="41.8309">
		<stop  offset="0" style="stop-color:#333333"/>
		<stop  offset="1" style="stop-color:#666666"/>
	</linearGradient>
	<rect x="9.4" y="9.4" class="st3" width="45" height="32.6"/>
	<linearGradient id="SVGID_2_" gradientUnits="userSpaceOnUse" x1="31.872" y1="44.4242" x2="31.872" y2="6.9955">
		<stop  offset="0" style="stop-color:#999999"/>
		<stop  offset="1" style="stop-color:#F2F2F2"/>
	</linearGradient>
	<path class="st4" d="M53.7,11.1v29.2c0,0.5-0.4,1-1,1H11c-0.5,0-1-0.4-1-1V11.1c0-0.5,0.4-1,1-1h41.7
		C53.3,10.1,53.7,10.6,53.7,11.1z M55.8,7H7.9c-0.5,0-1,0.4-1,1v35.4c0,0.5,0.4,1,1,1h47.9c0.5,0,1-0.4,1-1V8
		C56.8,7.4,56.4,7,55.8,7z"/>
	<path class="st5" d="M46.3,57c0-2.7-6.5-5.1-14.5-5.1S17.2,54.3,17.2,57H46.3z"/>
	<linearGradient id="SVGID_3_" gradientUnits="userSpaceOnUse" x1="31.7439" y1="57.5463" x2="31.7439" y2="52.7146">
		<stop  offset="0" style="stop-color:#808080"/>
		<stop  offset="1" style="stop-color:#808080"/>
	</linearGradient>
	<path class="st6" d="M46.3,57.4c0.3-2.8-6.5-4.8-14.5-4.8c-8,0-14.8,2.1-14.5,4.8H46.3z"/>
</g>
<path class="st7" d="M48.6,27.8c-1.4-4-4.6-11.3-7.5-11.3c-4.6,0-4.6,1.3-6.3,1.3c-0.9,0-4.3,0-5.5,0c-1.7,0-1.7-1.3-6.3-1.3
	c-2.9,0-6.1,7.2-7.5,11.3c-2.6,7.8-2.9,11.3,2.6,11.3c6.1,0,6.1-5.1,13.9-5.1c7.8,0,8.1,5.1,13.9,5.1C51.2,39.1,51.2,35.6,48.6,27.8
	z M37.8,21.8c0.8-0.5,1.7-0.8,2.7-0.8C39.6,20.9,38.6,21.2,37.8,21.8z M41.4,21c-0.2,0-0.4-0.1-0.7-0.1c0,0,0,0,0,0
	C41,20.9,41.2,20.9,41.4,21z M37.3,22.2c0,0-0.1,0.1-0.1,0.1C37.2,22.3,37.2,22.2,37.3,22.2z M35.4,25.7c0,0.1,0,0.2,0,0.4
	c0-0.1,0-0.1,0-0.2C35.4,25.7,35.4,25.7,35.4,25.7z M35.4,26.3c0.1,2.8,2.3,5.1,5.1,5.2C37.6,31.5,35.4,29.2,35.4,26.3z M46,27.3
	c-0.2,1.4-1,2.5-2.2,3.3c1.3-0.9,2.1-2.4,2.2-4.1C46,26.7,46,27,46,27.3z"/>
<g>
	<circle class="st8" cx="40.7" cy="24.1" r="5.3"/>
	<linearGradient id="SVGID_4_" gradientUnits="userSpaceOnUse" x1="32.0856" y1="14.6753" x2="31.9531" y2="43.4379">
		<stop  offset="0" style="stop-color:#BFBFBF"/>
		<stop  offset="1" style="stop-color:#545454"/>
	</linearGradient>
	<path class="st9" d="M48.6,25.7c-1.4-4-4.6-11.3-7.5-11.3c-4.6,0-4.6,1.3-6.3,1.3c-0.9,0-4.3,0-5.5,0c-1.7,0-1.7-1.3-6.3-1.3
		c-2.9,0-6.1,7.2-7.5,11.3C12.9,33.5,12.6,37,18.1,37c6.1,0,6.1-5.1,13.9-5.1S40,37,45.8,37C51.2,37,51.2,33.5,48.6,25.7z
		 M28.5,24.9h-2.6c-0.3,0-0.5,0.2-0.5,0.5v2.4c0,0.3-0.2,0.5-0.5,0.5h-1.4c-0.3,0-0.5-0.2-0.5-0.5v-2.4c0-0.3-0.2-0.5-0.5-0.5h-2.4
		c-0.3,0-0.5-0.2-0.5-0.5V23c0-0.3,0.2-0.5,0.5-0.5h2.4c0.3,0,0.5-0.2,0.5-0.5v-2.6c0-0.3,0.2-0.5,0.5-0.5H25c0.3,0,0.5,0.2,0.5,0.5
		V22c0,0.3,0.2,0.5,0.5,0.5h2.6c0.3,0,0.5,0.2,0.5,0.5v1.4C29,24.7,28.8,24.9,28.5,24.9z M43.4,28.7c-4.2,2.2-8.4-1-8-5.1
		c0.3-2.7,2.6-5,5.3-4.9c3.1,0.1,5.8,2.8,5.2,6.4C45.7,26.7,44.7,28,43.4,28.7z"/>
	<circle class="st10" cx="40.7" cy="21.7" r="1.3"/>
	<circle class="st10" cx="43.3" cy="24.3" r="1.3"/>
	<circle class="st10" cx="38.2" cy="24.3" r="1.3"/>
	<circle class="st10" cx="40.7" cy="26.5" r="1.3"/>
	<path class="st11" d="M28.5,24.9h-2.6c-0.3,0-0.5,0.2-0.5,0.5v2.4c0,0.3-0.2,0.5-0.5,0.5h-1.4c-0.3,0-0.5-0.2-0.5-0.5v-2.4
		c0-0.3-0.2-0.5-0.5-0.5h-2.4c-0.3,0-0.5-0.2-0.5-0.5V23c0-0.3,0.2-0.5,0.5-0.5h2.4c0.3,0,0.5-0.2,0.5-0.5v-2.6
		c0-0.3,0.2-0.5,0.5-0.5H25c0.3,0,0.5,0.2,0.5,0.5V22c0,0.3,0.2,0.5,0.5,0.5h2.6c0.3,0,0.5,0.2,0.5,0.5v1.4
		C29,24.7,28.8,24.9,28.5,24.9z"/>
</g>
</svg>
