<?xml version="1.0" encoding="utf-8"?>
<!-- Generator: Adobe Illustrator 24.3.0, SVG Export Plug-In . SVG Version: 6.00 Build 0)  -->
<svg version="1.1" id="GameStateBase_x5F_64" xmlns="http://www.w3.org/2000/svg" xmlns:xlink="http://www.w3.org/1999/xlink"
	 x="0px" y="0px" viewBox="0 0 64 64" style="enable-background:new 0 0 64 64;" xml:space="preserve">
<style type="text/css">
	.st0{fill:none;}
	.st1{fill-rule:evenodd;clip-rule:evenodd;fill:#5B5B5B;}
	.st2{fill-rule:evenodd;clip-rule:evenodd;fill:#7F7F7F;}
	.st3{fill:url(#SVGID_1_);}
	.st4{fill:url(#SVGID_2_);}
	.st5{fill-rule:evenodd;clip-rule:evenodd;fill:#BFBFBF;}
	.st6{fill-rule:evenodd;clip-rule:evenodd;fill:url(#SVGID_3_);}
	.st7{fill-rule:evenodd;clip-rule:evenodd;fill:none;stroke:url(#SVGID_4_);stroke-width:2;stroke-miterlimit:10;}
	.st8{fill-rule:evenodd;clip-rule:evenodd;fill:url(#SVGID_5_);}
	.st9{fill-rule:evenodd;clip-rule:evenodd;fill:url(#SVGID_6_);}
	.st10{fill-rule:evenodd;clip-rule:evenodd;fill:url(#SVGID_7_);}
	.st11{fill-rule:evenodd;clip-rule:evenodd;fill:url(#SVGID_8_);}
</style>
<rect x="0" class="st0" width="64" height="64"/>
<g>
	<g>
		<rect x="26.8" y="45.6" class="st1" width="9.8" height="7.6"/>
		<path class="st2" d="M24.1,42c0,2.7,3.4,4.8,7.7,4.8s7.7-2.2,7.7-4.8H24.1z"/>
		<linearGradient id="SVGID_1_" gradientUnits="userSpaceOnUse" x1="31.8915" y1="9.8377" x2="31.8915" y2="41.8309">
			<stop  offset="0" style="stop-color:#333333"/>
			<stop  offset="1" style="stop-color:#666666"/>
		</linearGradient>
		<rect x="9.4" y="9.4" class="st3" width="45" height="32.6"/>
		<linearGradient id="SVGID_2_" gradientUnits="userSpaceOnUse" x1="31.872" y1="44.4242" x2="31.872" y2="6.9955">
			<stop  offset="0" style="stop-color:#999999"/>
			<stop  offset="1" style="stop-color:#F2F2F2"/>
		</linearGradient>
		<path class="st4" d="M53.7,11.1v29.2c0,0.5-0.4,1-1,1H11c-0.5,0-1-0.4-1-1V11.1c0-0.5,0.4-1,1-1h41.7
			C53.3,10.1,53.7,10.6,53.7,11.1z M55.8,7H7.9c-0.5,0-1,0.4-1,1v35.4c0,0.5,0.4,1,1,1h47.9c0.5,0,1-0.4,1-1V8
			C56.8,7.4,56.4,7,55.8,7z"/>
		<path class="st5" d="M46.3,57c0-2.7-6.5-5.1-14.5-5.1S17.2,54.3,17.2,57H46.3z"/>
		<linearGradient id="SVGID_3_" gradientUnits="userSpaceOnUse" x1="31.7439" y1="57.5463" x2="31.7439" y2="52.7146">
			<stop  offset="0" style="stop-color:#808080"/>
			<stop  offset="1" style="stop-color:#808080"/>
		</linearGradient>
		<path class="st6" d="M46.3,57.4c0.3-2.8-6.5-4.8-14.5-4.8c-8,0-14.8,2.1-14.5,4.8H46.3z"/>
	</g>
	<linearGradient id="SVGID_4_" gradientUnits="userSpaceOnUse" x1="14.6793" y1="25.3393" x2="48.8243" y2="25.3393">
		<stop  offset="0" style="stop-color:#B3B3B3"/>
		<stop  offset="1" style="stop-color:#F2F2F2"/>
	</linearGradient>
	<polyline class="st7" points="15.5,34.8 26.3,19.7 37.5,31.4 48,15.9 	"/>
	<radialGradient id="SVGID_5_" cx="15.4918" cy="34.8016" r="2.4981" gradientUnits="userSpaceOnUse">
		<stop  offset="0" style="stop-color:#F2F2F2"/>
		<stop  offset="1" style="stop-color:#999999"/>
	</radialGradient>
	<circle class="st8" cx="15.5" cy="34.8" r="2.5"/>
	<radialGradient id="SVGID_6_" cx="26.3265" cy="19.7014" r="2.4981" gradientUnits="userSpaceOnUse">
		<stop  offset="0" style="stop-color:#F2F2F2"/>
		<stop  offset="1" style="stop-color:#999999"/>
	</radialGradient>
	<circle class="st9" cx="26.3" cy="19.7" r="2.5"/>
	<radialGradient id="SVGID_7_" cx="37.1613" cy="31.149" r="2.4981" gradientUnits="userSpaceOnUse">
		<stop  offset="0" style="stop-color:#F2F2F2"/>
		<stop  offset="1" style="stop-color:#999999"/>
	</radialGradient>
	<circle class="st10" cx="37.2" cy="31.1" r="2.5"/>
	<radialGradient id="SVGID_8_" cx="47.996" cy="15.8543" r="2.4981" gradientUnits="userSpaceOnUse">
		<stop  offset="0" style="stop-color:#F2F2F2"/>
		<stop  offset="1" style="stop-color:#999999"/>
	</radialGradient>
	<circle class="st11" cx="48" cy="15.9" r="2.5"/>
</g>
</svg>
