<svg width="16" height="16" viewBox="0 0 16 16" fill="none" xmlns="http://www.w3.org/2000/svg">
<path opacity="0.5" d="M8 8.10039L5 6.20039V2.40039L8 4.30039V8.10039Z" fill="white"/>
<path opacity="0.5" d="M9 8.10039L12 6.20039V2.40039L9 4.30039V8.10039Z" fill="white"/>
<path d="M8.4998 3.2L5.2998 1.3L8.4998 0L11.6998 1.3L8.4998 3.2Z" fill="white"/>
<path opacity="0.5" d="M4 16.0008L1 14.1008V10.3008L4 12.2008V16.0008Z" fill="white"/>
<path opacity="0.5" d="M5 16.0008L8 14.1008V10.3008L5 12.2008V16.0008Z" fill="white"/>
<path d="M4.4998 11.1004L1.2998 9.20039L4.4998 7.90039L7.6998 9.20039L4.4998 11.1004Z" fill="white"/>
<path opacity="0.5" d="M12 16.0008L9 14.1008V10.3008L12 12.2008V16.0008Z" fill="white"/>
<path opacity="0.5" d="M13 16.0008L16 14.1008V10.3008L13 12.2008V16.0008Z" fill="white"/>
<path d="M12.4998 11.1004L9.2998 9.20039L12.4998 7.90039L15.6998 9.20039L12.4998 11.1004Z" fill="white"/>
</svg>
