<svg width="17" height="16" viewBox="0 0 17 16" fill="none" xmlns="http://www.w3.org/2000/svg">
<path fill-rule="evenodd" clip-rule="evenodd" d="M0 7.07367L3.78948 9.59999V6.44209L0 3.91577V7.07367Z" fill="white"/>
<path fill-rule="evenodd" clip-rule="evenodd" d="M10.1054 2.77881L4.42114 6.44197V9.59987L10.1054 5.4946V2.77881Z" fill="white"/>
<path d="M6.06305 0L0.315674 3.09474L4.10515 5.62106L9.85252 1.89474L6.06305 0ZM6.06305 0.694737L8.58936 1.9579L6.50515 3.28421L4.16831 1.70526L6.06305 0.694737ZM1.51567 3.1579L3.53673 2.02105L5.93673 3.6L4.10515 4.86316L1.51567 3.1579Z" fill="white"/>
<path opacity="0.5" fill-rule="evenodd" clip-rule="evenodd" d="M6 13.0737L9.78948 15.6V12.4421L6 9.91577V13.0737Z" fill="white"/>
<path opacity="0.5" fill-rule="evenodd" clip-rule="evenodd" d="M16.1054 8.77881L10.4211 12.442V15.5999L16.1054 11.4946V8.77881Z" fill="white"/>
<path opacity="0.5" d="M12.063 6L6.31567 9.09474L10.1052 11.6211L15.8525 7.89474L12.063 6ZM12.063 6.69474L14.5894 7.9579L12.5052 9.28421L10.1683 7.70526L12.063 6.69474ZM7.51567 9.1579L9.53673 8.02105L11.9367 9.6L10.1052 10.8632L7.51567 9.1579Z" fill="white"/>
<rect opacity="0.5" x="1" y="10" width="1" height="5" fill="white"/>
<rect opacity="0.5" x="5" y="14" width="1" height="3" transform="rotate(90 5 14)" fill="white"/>
</svg>
