<svg width="16" height="16" viewBox="0 0 16 16" fill="none" xmlns="http://www.w3.org/2000/svg">
<path opacity="0.5" fill-rule="evenodd" clip-rule="evenodd" d="M2.5 15.9999C6.2 13.9999 8 14.4999 8 14.4999C8 14.4999 9.8 13.9999 13.5 15.9999C9.8 15.9999 6.2 15.9999 2.5 15.9999Z" fill="white"/>
<path d="M15 1V12H1V1H15ZM16 0H0V13H16V0Z" fill="white"/>
<path d="M7.4999 8.09985C8.38356 8.09985 9.0999 7.38353 9.0999 6.49988C9.0999 5.61622 8.38356 4.8999 7.4999 4.8999C6.61625 4.8999 5.8999 5.61622 5.8999 6.49988C5.8999 7.38353 6.61625 8.09985 7.4999 8.09985Z" fill="white"/>
<path opacity="0.5" d="M12 6H8V2H7V6H3V7H7V11H8V7H12V6Z" fill="white"/>
<path opacity="0.5" d="M7.00005 10.2V9.20001C5.90005 9.00001 5.00005 8.1 4.80005 7H3.80005C4.00005 8.7 5.30005 10 7.00005 10.2Z" fill="white"/>
<path opacity="0.5" d="M3.80005 6.00006H4.80005C5.00005 4.90006 5.90005 4.00005 7.00005 3.80005V2.80005C5.30005 3.00005 4.00005 4.30006 3.80005 6.00006Z" fill="white"/>
<path opacity="0.5" d="M11.2 7H10.2C10 8.1 9.1 9.00001 8 9.20001V10.2C9.7 10 11 8.7 11.2 7Z" fill="white"/>
<path opacity="0.5" d="M8 2.80005V3.80005C9.1 4.00005 10 4.90006 10.2 6.00006H11.2C11 4.30006 9.7 3.00005 8 2.80005Z" fill="white"/>
</svg>
