<?xml version="1.0" encoding="utf-8"?>
<!-- Generator: Adobe Illustrator 24.3.0, SVG Export Plug-In . SVG Version: 6.00 Build 0)  -->
<svg version="1.1" id="ImagePlate_x5F_64" xmlns="http://www.w3.org/2000/svg" xmlns:xlink="http://www.w3.org/1999/xlink" x="0px"
	 y="0px" viewBox="0 0 64 64" style="enable-background:new 0 0 64 64;" xml:space="preserve">
<style type="text/css">
	.st0{fill:none;}
	.st1{fill:url(#SVGID_1_);}
	.st2{fill:#FFFFFF;}
	.st3{fill:url(#SVGID_2_);}
	.st4{fill:url(#SVGID_3_);}
</style>
<rect x="0" class="st0" width="64" height="64"/>
<g id="Layer_77">
	
		<radialGradient id="SVGID_1_" cx="21.4322" cy="25.5806" r="38.5544" gradientTransform="matrix(1.0387 0 0 1 -2.1948 0)" gradientUnits="userSpaceOnUse">
		<stop  offset="0" style="stop-color:#CCCCCC"/>
		<stop  offset="0.2589" style="stop-color:#999999"/>
		<stop  offset="1" style="stop-color:#4D4D4D"/>
	</radialGradient>
	<polygon class="st1" points="7.7,19.3 53.4,7 53.4,56.1 6.8,45.2 	"/>
</g>
<path class="st2" d="M52.4,55.5L36.9,28c-0.5-0.8-1.8-0.8-2.3,0L23.6,47.4c-0.3,0.5-0.8,0.7-1.3,0.6L8.9,45.2l43.2,11.3
	C53.3,56.8,52.9,56.4,52.4,55.5z"/>
<g>
	<linearGradient id="SVGID_2_" gradientUnits="userSpaceOnUse" x1="23.1823" y1="38.4691" x2="41.3918" y2="58.5772">
		<stop  offset="0" style="stop-color:#F2F2F2"/>
		<stop  offset="1" style="stop-color:#666666"/>
	</linearGradient>
	<path class="st3" d="M53.8,56.7L37.5,29c-0.5-0.8-1.8-0.8-2.3,0l-8.4,19.6c-0.3,0.5-3.5,0.4-4.1,0.4L6.8,45.7l45.8,11.9
		C53.8,57.8,54.4,57.7,53.8,56.7z"/>
	<path class="st2" d="M51.8,9.4v45.5L8.1,43.9V19.7L51.8,9.4z M55.3,5L6,17.9v28.2L55.3,59V5z"/>
	<path class="st2" d="M15.9,27.8c0,3.1,2.1,5.4,4.9,5.4c3.2,0,6-2.7,6-6.1s-2.8-5.8-6-5.4C18,22,15.9,24.7,15.9,27.8z"/>
</g>
<radialGradient id="SVGID_3_" cx="22.6569" cy="27.4048" r="8.6713" gradientTransform="matrix(1.0387 0 0 1 -2.1948 0)" gradientUnits="userSpaceOnUse">
	<stop  offset="0" style="stop-color:#FFFFFF"/>
	<stop  offset="1" style="stop-color:#FFFFFF;stop-opacity:0"/>
</radialGradient>
<path class="st4" d="M12.8,28c0,4.8,3.3,8.5,7.7,8.5c5,0,9.4-4.3,9.4-9.6s-4.4-9-9.4-8.5C16.1,18.9,12.8,23.2,12.8,28z"/>
</svg>
