<svg width="16" height="16" viewBox="0 0 16 16" fill="none" xmlns="http://www.w3.org/2000/svg">
<path d="M2.7 12.6L5.8 9.5L6.5 10.2L3.4 13.3L4.8 14.7L1 15L1.3 11.2L2.7 12.6Z" fill="white"/>
<path d="M11.7 12.4L14.8 15.5L15.5 14.8L12.4 11.7L13.8 10.3L10 10L10.3 13.8L11.7 12.4Z" fill="white"/>
<path fill-rule="evenodd" clip-rule="evenodd" d="M13.2996 5.4C13.2996 5.2 13.3996 5 13.3996 4.9C13.3996 4.7 13.3996 4.5 13.2996 4.4L11.9996 4.2C11.8996 3.9 11.7996 3.6 11.6996 3.4L12.4996 2.3C12.2996 2 11.9996 1.8 11.6996 1.5L10.5996 2.3C10.2996 2.1 9.99961 2 9.69961 1.9L9.49961 0.6C9.39961 0.6 9.19961 0.5 8.99961 0.5C8.79961 0.5 8.59961 0.5 8.49961 0.6L8.29961 1.9C7.99961 2 7.69961 2.1 7.39961 2.3L6.39961 1.5C6.09961 1.7 5.79961 2 5.59961 2.2L6.39961 3.3C6.29961 3.6 6.09961 3.8 6.09961 4.1L4.69961 4.3C4.69961 4.5 4.59961 4.7 4.59961 4.8C4.59961 5 4.59961 5.2 4.69961 5.3L5.99961 5.5C6.09961 5.8 6.19961 6.1 6.29961 6.3L5.59961 7.5C5.79961 7.8 6.09961 8 6.39961 8.3L7.49961 7.5C7.69961 7.6 7.99961 7.7 8.29961 7.8L8.49961 9.1C8.69961 9.1 8.89961 9.2 8.99961 9.2C9.19961 9.2 9.39961 9.2 9.49961 9.1L9.69961 7.8C9.99961 7.7 10.2996 7.6 10.4996 7.5L11.5996 8.3C11.8996 8.1 12.0996 7.8 12.3996 7.5L11.5996 6.4C11.7996 6.1 11.8996 5.9 11.8996 5.6L13.2996 5.4ZM8.99961 6.8C7.99961 6.8 7.09961 6 7.09961 4.9C7.09961 3.8 7.99961 3 8.99961 3C9.99961 3 10.8996 3.8 10.8996 4.9C10.8996 5.9 9.99961 6.8 8.99961 6.8Z" fill="white"/>
</svg>
