<?xml version="1.0" encoding="utf-8"?>
<!-- Generator: Adobe Illustrator 25.0.0, SVG Export Plug-In . SVG Version: 6.00 Build 0)  -->
<svg version="1.1" id="Interface_x5F_64" xmlns="http://www.w3.org/2000/svg" xmlns:xlink="http://www.w3.org/1999/xlink" x="0px"
	 y="0px" viewBox="0 0 64 64" style="enable-background:new 0 0 64 64;" xml:space="preserve">
<style type="text/css">
	.st0{fill:url(#SVGID_1_);}
	.st1{fill:url(#SVGID_2_);}
	.st2{opacity:0.3;}
	.st3{fill:url(#SVGID_3_);}
	.st4{fill:none;}
</style>
<g>
	
		<linearGradient id="SVGID_1_" gradientUnits="userSpaceOnUse" x1="87.5287" y1="12.0986" x2="58.6539" y2="11.9757" gradientTransform="matrix(-0.7005 0.7137 -0.7137 -0.7005 80.6571 -0.2943)">
		<stop  offset="0" style="stop-color:#F2F2F2"/>
		<stop  offset="1" style="stop-color:#7E7E7E"/>
	</linearGradient>
	<path class="st0" d="M9.7,55.2l11-2.8c0.3-0.1,0.4-0.4,0.2-0.6l-2.4-2.3c-0.1-0.1-0.1-0.4,0-0.5l9.3-9.6c0.1-0.1,0.1-0.4,0-0.5
		l-2.6-2.5c-0.1-0.1-0.4-0.1-0.5,0l-9.3,9.6c-0.1,0.1-0.4,0.1-0.5,0l-2.4-2.3c-0.2-0.2-0.5-0.1-0.6,0.2l-2.6,11
		C9.2,55,9.5,55.3,9.7,55.2z"/>
	
		<linearGradient id="SVGID_2_" gradientUnits="userSpaceOnUse" x1="127.513" y1="35.4543" x2="98.6381" y2="35.3314" gradientTransform="matrix(-0.7137 -0.7005 0.7005 -0.7137 102.1438 152.6376)">
		<stop  offset="0" style="stop-color:#F2F2F2"/>
		<stop  offset="1" style="stop-color:#7E7E7E"/>
	</linearGradient>
	<path class="st1" d="M34.5,37l2.8,11c0.1,0.3,0.4,0.4,0.6,0.2l2.3-2.4c0.1-0.1,0.4-0.1,0.5,0l9.6,9.3c0.1,0.1,0.4,0.1,0.5,0
		l2.5-2.6c0.1-0.1,0.1-0.4,0-0.5l-9.6-9.3c-0.1-0.1-0.1-0.4,0-0.5l2.3-2.4c0.2-0.2,0.1-0.5-0.2-0.6l-11-2.6
		C34.7,36.5,34.4,36.8,34.5,37z"/>
	<g>
		<g class="st2">
			<path d="M30.8,31.6c-4.8,0-8.7-3.9-8.7-8.7s3.9-8.7,8.7-8.7s8.7,3.9,8.7,8.7S35.6,31.6,30.8,31.6z M30.8,17.6
				c-2.9,0-5.3,2.4-5.3,5.3c0,2.9,2.4,5.3,5.3,5.3s5.3-2.4,5.3-5.3C36.1,20,33.7,17.6,30.8,17.6z"/>
			<polygon points="32.9,15.4 28.7,15.4 29.5,10 32.1,10 			"/>
			<polygon points="28.7,31.1 32.9,31.1 32.1,36.5 29.5,36.5 			"/>
			<polygon points="38.6,25.4 38.6,21.1 44,22 44,24.5 			"/>
			<polygon points="22.9,21.1 22.9,25.4 17.6,24.5 17.6,22 			"/>
			<polygon points="37.8,18.9 34.8,15.9 39.2,12.7 41,14.5 			"/>
			<polygon points="23.7,27 26.7,30 22.4,33.2 20.5,31.4 			"/>
			<polygon points="34.8,30 37.8,27 41,31.4 39.2,33.2 			"/>
			<polygon points="26.7,15.9 23.7,18.9 20.5,14.5 22.4,12.7 			"/>
		</g>
		<linearGradient id="SVGID_3_" gradientUnits="userSpaceOnUse" x1="30.3844" y1="35.2401" x2="31.1892" y2="8.7736">
			<stop  offset="0" style="stop-color:#B3B3B3"/>
			<stop  offset="1" style="stop-color:#F2F2F2"/>
		</linearGradient>
		<path class="st3" d="M44,23.3v-2.6L39.3,20c-0.2-1-0.6-1.9-1.1-2.8l2.9-3.9l-1.8-1.8l-3.9,2.9c-0.8-0.5-1.6-0.8-2.5-1l-0.7-4.5
			h-2.6l-0.7,4.5c-0.9,0.2-1.8,0.6-2.5,1l-3.9-2.9l-1.8,1.8l2.9,3.9c-0.5,0.8-0.9,1.8-1.1,2.8l-4.7,0.7v2.6l4.9,0.8
			c0.2,0.8,0.5,1.5,0.9,2.2l-2.9,3.9l1.8,1.8l3.9-2.9c0.7,0.5,1.6,0.8,2.4,1l0.8,5.1h2.6l0.8-5.1c0.9-0.2,1.7-0.6,2.4-1l3.9,2.9
			l1.8-1.8l-2.9-3.9c0.4-0.7,0.7-1.4,0.9-2.2L44,23.3z M30.8,27c-2.9,0-5.3-2.4-5.3-5.3c0-2.9,2.4-5.3,5.3-5.3s5.3,2.4,5.3,5.3
			C36.1,24.7,33.7,27,30.8,27z"/>
	</g>
	<rect x="0" class="st4" width="64" height="64"/>
</g>
</svg>
