<svg width="16" height="16" viewBox="0 0 16 16" fill="none" xmlns="http://www.w3.org/2000/svg">
<path opacity="0.5" d="M3 0L0 3H13V16L16 13V0H3Z" fill="white"/>
<path fill-rule="evenodd" clip-rule="evenodd" d="M7.49952 5C5.29952 5 3.99952 5.8 3.99952 8C3.99952 8.3 3.89952 10.7 3.99952 11H5.19952C5.59952 11 5.99952 11.4 5.99952 11.8V12.7C6.49952 12.9 6.99952 13 7.49952 13C7.99952 13 8.49952 12.9 8.99952 12.7V11.8C8.99952 11.4 9.39952 11 9.79952 11H10.9995C11.0995 10.7 10.9995 8.3 10.9995 8C10.9995 5.8 9.69952 5 7.49952 5ZM5.89952 10H4.99952V8H6.99952V8.90002C6.99952 9.50002 6.49952 10 5.89952 10ZM9.99952 10H9.09952C8.49952 10 7.99952 9.50002 7.99952 8.90002V8H9.99952V10ZM7.99952 11H6.99952L7.49952 10L7.99952 11Z" fill="white"/>
<path d="M13 15H1V3H0V16H13V15Z" fill="white"/>
</svg>
