<?xml version="1.0" encoding="utf-8"?>
<!-- Generator: Adobe Illustrator 25.0.0, SVG Export Plug-In . SVG Version: 6.00 Build 0)  -->
<svg version="1.1" id="KillZVolume_x5F_64" xmlns="http://www.w3.org/2000/svg" xmlns:xlink="http://www.w3.org/1999/xlink" x="0px"
	 y="0px" viewBox="0 0 64 64" style="enable-background:new 0 0 64 64;" xml:space="preserve">
<style type="text/css">
	.st0{fill:#404040;}
	.st1{fill:none;stroke:#3D3D3D;stroke-width:2;stroke-miterlimit:10;}
	.st2{opacity:0.71;fill:url(#SVGID_1_);enable-background:new    ;}
	.st3{fill:url(#SVGID_2_);}
	.st4{fill:none;stroke:url(#SVGID_3_);stroke-width:2;stroke-linecap:round;stroke-miterlimit:10;}
	.st5{fill-rule:evenodd;clip-rule:evenodd;fill:#FFFFFF;}
	.st6{fill:none;}
</style>
<g>
	<g>
		<polygon class="st0" points="9.1,21.2 20.7,8.5 55.7,9.1 55.7,42.4 43.6,54.7 9.9,54.7 		"/>
		<polyline class="st1" points="55.7,42.4 21.4,42.4 21.4,8.5 		"/>
		<line class="st1" x1="22.2" y1="41.5" x2="8.8" y2="54.9"/>
		<g>
			<linearGradient id="SVGID_1_" gradientUnits="userSpaceOnUse" x1="32.5855" y1="8.4686" x2="32.8604" y2="53.5575">
				<stop  offset="0" style="stop-color:#BFBFBF"/>
				<stop  offset="1" style="stop-color:#808080"/>
			</linearGradient>
			<path class="st2" d="M54,8.5H21.1c-0.2,0-0.4,0.1-0.6,0.3l-10,10.4c-0.5,0.5-0.1,1.4,0.6,1.4h31.7c0.5,0,0.8,0.4,0.8,0.8v31.2
				c0,0.8,0.9,1.1,1.4,0.6L55,42.9c0.2-0.2,0.2-0.4,0.2-0.6l-0.4-33C54.8,8.9,54.4,8.5,54,8.5z"/>
			<linearGradient id="SVGID_2_" gradientUnits="userSpaceOnUse" x1="32.1757" y1="7.1843" x2="32.473" y2="55.9474">
				<stop  offset="0" style="stop-color:#BFBFBF"/>
				<stop  offset="1" style="stop-color:#808080"/>
			</linearGradient>
			<path class="st3" d="M53.6,10.7v31.7c0,0.1,0,0.2-0.1,0.3L43.4,52.7c-0.1,0.1-0.2,0.1-0.3,0.1H11.4c-0.2,0-0.4-0.2-0.4-0.4V20.8
				c0-0.1,0-0.2,0.1-0.3l10.1-10.1c0.1-0.1,0.2-0.1,0.3-0.1h31.7C53.4,10.3,53.6,10.5,53.6,10.7z M56.2,7.3H20.3
				c-0.1,0-0.2,0-0.3,0.1L8.1,19.3C8.1,19.4,8,19.5,8,19.6v35.9c0,0.2,0.2,0.4,0.4,0.4h35.9c0.1,0,0.2,0,0.3-0.1l11.9-11.9
				c0.1-0.1,0.1-0.2,0.1-0.3V7.6C56.6,7.4,56.5,7.3,56.2,7.3z"/>
		</g>
		<linearGradient id="SVGID_3_" gradientUnits="userSpaceOnUse" x1="43.3624" y1="20.51" x2="55.4604" y2="8.4121">
			<stop  offset="0" style="stop-color:#9B9B9D;stop-opacity:0.9"/>
			<stop  offset="0.4467" style="stop-color:#BFBFBF"/>
		</linearGradient>
		<line class="st4" x1="54.7" y1="9.1" x2="44.1" y2="19.9"/>
	</g>
	<g>
		<path class="st5" d="M27.4,24.3c-6.9,0-10.9,2.5-10.9,9.4c0,0.6-0.1,4.3-0.1,6.8c0,1.4,1.1,2.5,2.5,2.5l1.4,0
			c1.4,0,2.5,1.1,2.5,2.5v2.3c0,0.3,0.2,0.6,0.5,0.7c1.4,0.5,2.8,0.8,4.2,0.8c1.4,0,2.8-0.3,4.2-0.8c0.3-0.1,0.5-0.4,0.5-0.7v-2.3
			c0-1.4,1.1-2.5,2.5-2.5l1.4,0c1.4,0,2.5-1.1,2.5-2.5c0-2.6-0.1-6.2-0.1-6.8C38.4,26.8,34.3,24.3,27.4,24.3z M22.5,39.9h-1.2
			c-0.9,0-1.6-0.7-1.6-1.6v-3.1c0-0.9,0.7-1.6,1.6-1.6h3.1c0.9,0,1.6,0.7,1.6,1.6v1.2C25.9,38.4,24.3,39.9,22.5,39.9z M33.6,39.9
			h-1.2c-1.9,0-3.4-1.5-3.4-3.4v-1.2c0-0.9,0.7-1.6,1.6-1.6h3.1c0.9,0,1.6,0.7,1.6,1.6v3.1C35.2,39.2,34.5,39.9,33.6,39.9z
			 M28.3,44.1h-1.8c-0.3,0-0.5-0.5-0.4-0.9l0.7-2.2c0.2-0.5,0.9-0.5,1.1,0l0.7,2.2C28.8,43.6,28.6,44.1,28.3,44.1z"/>
	</g>
	<rect x="0" class="st6" width="64" height="64"/>
</g>
</svg>
