<?xml version="1.0" encoding="utf-8"?>
<!-- Generator: Adobe Illustrator 24.2.3, SVG Export Plug-In . SVG Version: 6.00 Build 0)  -->
<svg version="1.1" id="Layer_1" xmlns="http://www.w3.org/2000/svg" xmlns:xlink="http://www.w3.org/1999/xlink" x="0px" y="0px"
	 viewBox="0 0 64 64" style="enable-background:new 0 0 64 64;" xml:space="preserve">
<style type="text/css">
	.st0{fill:none;}
	.st1{fill-rule:evenodd;clip-rule:evenodd;fill:url(#SVGID_1_);}
	.st2{fill-rule:evenodd;clip-rule:evenodd;fill:url(#SVGID_2_);}
	.st3{opacity:0.75;fill-rule:evenodd;clip-rule:evenodd;fill:#FFFFFF;enable-background:new    ;}
	.st4{fill-rule:evenodd;clip-rule:evenodd;fill:#FFFFFF;}
	.st5{opacity:0.71;fill-rule:evenodd;clip-rule:evenodd;fill:#FFFFFF;enable-background:new    ;}
</style>
<g id="Landscape_x5F_64">
	<g>
		<rect class="st0" width="64" height="64"/>
		
			<linearGradient id="SVGID_1_" gradientUnits="userSpaceOnUse" x1="22.4429" y1="196.2435" x2="22.8219" y2="238.8863" gradientTransform="matrix(1 0 0 1 0 -190)">
			<stop  offset="0" style="stop-color:#CCCCCC"/>
			<stop  offset="0.2727" style="stop-color:#808080"/>
			<stop  offset="1" style="stop-color:#404040"/>
		</linearGradient>
		<path class="st1" d="M25.7,7.2L5.9,49.4h12.9L25.1,37L33,47.5l6.6-15.3L25.7,7.2z"/>
		
			<linearGradient id="SVGID_2_" gradientUnits="userSpaceOnUse" x1="36.6566" y1="212.4433" x2="36.9484" y2="245.2696" gradientTransform="matrix(1 0 0 1 0 -190)">
			<stop  offset="0" style="stop-color:#FFFFFF"/>
			<stop  offset="1" style="stop-color:#999999"/>
		</linearGradient>
		<path class="st2" d="M15.8,55.5L25.1,37L33,47.5l10.6-24.4l14.5,32.3L15.8,55.5L15.8,55.5z"/>
		<polygon class="st3" points="25.7,7.2 21.2,16.8 25.5,18.7 27.3,15.7 31.1,16.8 		"/>
		<polygon class="st4" points="43.5,23.1 39.1,33.4 42.6,31.4 45.5,33.8 47.3,31.4 		"/>
		<polygon class="st4" points="25.1,37 22,43.1 24.8,41.9 26.7,43.8 28.8,41.9 		"/>
		<polygon class="st5" points="27.5,42 33.2,51 41.6,31.2 41.1,28.8 33,47.5 27.6,40.4 		"/>
	</g>
</g>
</svg>
