<?xml version="1.0" encoding="utf-8"?>
<!-- Generator: Adobe Illustrator 24.2.3, SVG Export Plug-In . SVG Version: 6.00 Build 0)  -->
<svg version="1.1" id="Layer_1" xmlns="http://www.w3.org/2000/svg" xmlns:xlink="http://www.w3.org/1999/xlink" x="0px" y="0px"
	 viewBox="0 0 64 64" style="enable-background:new 0 0 64 64;" xml:space="preserve">
<style type="text/css">
	.st0{fill:none;}
	.st1{fill:#7F7F7F;}
	.st2{fill:#FFFFFF;}
	.st3{fill:url(#SVGID_1_);stroke:#FFFFFF;stroke-miterlimit:10;}
</style>
<g id="LevelSequenceActor_x5F_64">
	<g>
		<rect class="st0" width="64" height="64"/>
		<path class="st1" d="M9.9,56.5h46.3c0.9,0,1.6-0.7,1.6-1.6v-22c0-0.9-0.7-1.6-1.6-1.6H9.9c-0.9,0-1.6,0.7-1.6,1.6v21.9
			C8.3,55.7,9,56.5,9.9,56.5z"/>
		<g>
			<g>
				<rect x="8.8" y="27" class="st1" width="48.6" height="6.7"/>
				<path class="st2" d="M56.9,27.5v5.7H9.3v-5.7H56.9 M57.9,26.5H8.3v7.7h49.6L57.9,26.5L57.9,26.5z"/>
			</g>
			<polygon class="st2" points="18.8,33.7 12.5,33.7 16.6,26.9 22.9,26.9 			"/>
			<polygon class="st2" points="30.1,33.7 23.8,33.7 27.9,26.9 34.2,26.9 			"/>
			<polygon class="st2" points="41.4,33.7 35,33.7 39.1,26.9 45.5,26.9 			"/>
			<polygon class="st2" points="53,33.7 46.6,33.7 50.7,26.9 57.1,26.9 			"/>
		</g>
		
			<linearGradient id="SVGID_1_" gradientUnits="userSpaceOnUse" x1="33.129" y1="227.7861" x2="33.0712" y2="242.8653" gradientTransform="matrix(1 0 0 1 0 -190)">
			<stop  offset="0" style="stop-color:#FFFFFF"/>
			<stop  offset="1" style="stop-color:#C2C2C2"/>
		</linearGradient>
		<path class="st3" d="M17.2,52.8H49c0.6,0,1.1-0.5,1.1-1.1V39c0-0.6-0.5-1.1-1.1-1.1H17.2c-0.6,0-1.1,0.5-1.1,1.1v12.7
			C16,52.3,16.6,52.8,17.2,52.8z"/>
		<g>
			<g>
				
					<rect x="6.8" y="12.7" transform="matrix(0.9639 -0.2662 0.2662 0.9639 -3.1503 8.858)" class="st1" width="48.6" height="6.7"/>
				<path class="st2" d="M53.3,7l1.5,5.5L8.9,25.1l-1.5-5.5L53.3,7 M54,5.7L6.2,18.9l2.1,7.4L56,13.2L54,5.7L54,5.7z"/>
			</g>
			<polygon class="st2" points="16.5,16.6 10.3,18.3 16.1,23.8 22.2,22.1 			"/>
			<polygon class="st2" points="27.3,13.6 21.2,15.3 27,20.7 33.1,19.1 			"/>
			<polygon class="st2" points="38.2,10.6 32.1,12.3 37.8,17.7 44,16.1 			"/>
			<polygon class="st2" points="49.4,7.5 43.3,9.2 49,14.7 55.1,13 			"/>
		</g>
	</g>
</g>
</svg>
