<?xml version="1.0" encoding="utf-8"?>
<!-- Generator: Adobe Illustrator 25.0.0, SVG Export Plug-In . SVG Version: 6.00 Build 0)  -->
<svg version="1.1" id="LevelStreamingVolume_x5F_64"
	 xmlns="http://www.w3.org/2000/svg" xmlns:xlink="http://www.w3.org/1999/xlink" x="0px" y="0px" viewBox="0 0 64 64"
	 style="enable-background:new 0 0 64 64;" xml:space="preserve">
<style type="text/css">
	.st0{fill:#404040;}
	.st1{fill:none;stroke:#3D3D3D;stroke-width:2;stroke-miterlimit:10;}
	.st2{opacity:0.71;fill:url(#SVGID_1_);enable-background:new    ;}
	.st3{fill:url(#SVGID_2_);}
	.st4{fill:none;stroke:url(#SVGID_3_);stroke-width:2;stroke-linecap:round;stroke-miterlimit:10;}
	.st5{fill-rule:evenodd;clip-rule:evenodd;fill:url(#SVGID_4_);}
	.st6{fill-rule:evenodd;clip-rule:evenodd;fill:#FFFFFF;}
	.st7{opacity:0.71;fill-rule:evenodd;clip-rule:evenodd;fill:#FFFFFF;}
	.st8{fill-rule:evenodd;clip-rule:evenodd;fill:url(#SVGID_5_);enable-background:new    ;}
	.st9{fill-rule:evenodd;clip-rule:evenodd;fill:#BFBFBF;}
	.st10{fill:none;}
</style>
<g>
	<g>
		<polygon class="st0" points="9.2,21.3 20.8,8.6 55.8,9.1 55.8,42.5 43.7,54.8 10,54.8 		"/>
		<polyline class="st1" points="55.8,42.5 21.4,42.5 21.4,8.6 		"/>
		<line class="st1" x1="22.3" y1="41.6" x2="8.9" y2="54.9"/>
		<g>
			<linearGradient id="SVGID_1_" gradientUnits="userSpaceOnUse" x1="32.6664" y1="8.5307" x2="32.9413" y2="53.6197">
				<stop  offset="0" style="stop-color:#BFBFBF"/>
				<stop  offset="1" style="stop-color:#808080"/>
			</linearGradient>
			<path class="st2" d="M54.1,8.6H21.2c-0.2,0-0.4,0.1-0.6,0.3l-10,10.4c-0.5,0.5-0.1,1.4,0.6,1.4h31.7c0.5,0,0.8,0.4,0.8,0.8v31.2
				c0,0.8,0.9,1.1,1.4,0.6L55.1,43c0.2-0.2,0.2-0.4,0.2-0.6l-0.4-33C54.9,9,54.5,8.6,54.1,8.6z"/>
			<linearGradient id="SVGID_2_" gradientUnits="userSpaceOnUse" x1="32.2566" y1="7.2465" x2="32.554" y2="56.0096">
				<stop  offset="0" style="stop-color:#BFBFBF"/>
				<stop  offset="1" style="stop-color:#808080"/>
			</linearGradient>
			<path class="st3" d="M53.7,10.7v31.7c0,0.1,0,0.2-0.1,0.3L43.5,52.8c-0.1,0.1-0.2,0.1-0.3,0.1H11.5c-0.2,0-0.4-0.2-0.4-0.4V20.8
				c0-0.1,0-0.2,0.1-0.3l10.1-10.1c0.1-0.1,0.2-0.1,0.3-0.1h31.7C53.5,10.4,53.7,10.5,53.7,10.7z M56.3,7.3H20.4
				c-0.1,0-0.2,0-0.3,0.1L8.2,19.4c-0.1,0.1-0.1,0.2-0.1,0.3v35.9c0,0.2,0.2,0.4,0.4,0.4h35.9c0.1,0,0.2,0,0.3-0.1l11.9-11.9
				c0.1-0.1,0.1-0.2,0.1-0.3V7.7C56.7,7.5,56.5,7.3,56.3,7.3z"/>
		</g>
		<linearGradient id="SVGID_3_" gradientUnits="userSpaceOnUse" x1="43.4434" y1="20.5721" x2="55.5413" y2="8.4742">
			<stop  offset="0" style="stop-color:#9B9B9D;stop-opacity:0.9"/>
			<stop  offset="0.4467" style="stop-color:#BFBFBF"/>
		</linearGradient>
		<line class="st4" x1="54.8" y1="9.1" x2="44.2" y2="19.9"/>
	</g>
	<g>
		<g>
			
				<linearGradient id="SVGID_4_" gradientUnits="userSpaceOnUse" x1="-871.9898" y1="24.4043" x2="-871.8249" y2="42.9546" gradientTransform="matrix(-1 0 0 1 -844.4957 0)">
				<stop  offset="0" style="stop-color:#FFFFFF"/>
				<stop  offset="1" style="stop-color:#999999"/>
			</linearGradient>
			<path class="st5" d="M37.7,43.1L32.9,32l-3.6,6.6l-5.2-13.8l-7.2,18.3H37.7z"/>
			<polygon class="st6" points="24.1,24.8 26.3,30.6 24.7,29.1 23.9,31.8 23.2,28.9 22.2,29.5 			"/>
			<polygon class="st6" points="32.9,32 34.7,36.1 33.7,35.2 33.1,36.7 32.6,34.8 31,35.4 			"/>
			<polygon class="st7" points="32.5,33.3 29.2,40.6 25.1,29.3 25.3,28 29.3,38.6 31.7,34.1 			"/>
		</g>
		<linearGradient id="SVGID_5_" gradientUnits="userSpaceOnUse" x1="27.3321" y1="49.166" x2="27.3009" y2="36.8204">
			<stop  offset="0.3858" style="stop-color:#E6E6E6"/>
			<stop  offset="1" style="stop-color:#404040"/>
		</linearGradient>
		<path class="st8" d="M40,45.1l-2.7-8.2l4.5,8.9v3.6h-29v-3.6l4.5-9.1l-2.7,8.4H40z"/>
		<rect x="12.8" y="45.8" class="st9" width="29" height="3.6"/>
	</g>
	<rect x="0" class="st10" width="64" height="64"/>
</g>
</svg>
