<svg width="16" height="16" viewBox="0 0 16 16" fill="none" xmlns="http://www.w3.org/2000/svg">
<path opacity="0.5" fill-rule="evenodd" clip-rule="evenodd" d="M15 14L13.5 9.09998L16 14V16H0V14L2.5 9L1 14H15Z" fill="white"/>
<path d="M8.5 11.5L6 3L3 13H13L10.5 6.59998L8.5 11.5Z" fill="white"/>
<path fill-rule="evenodd" clip-rule="evenodd" d="M11.5004 0C11.5004 0 10.4004 0.399976 10.4004 1.59998C10.4004 2.89998 12.6004 3.1 12.6004 5C12.6004 6.3 11.8004 6.90002 11.8004 6.90002H15.0004C15.0004 6.90002 16.0004 6.3 16.0004 5C16.0004 3.1 13.8004 2.79998 13.8004 1.59998C13.8004 0.399976 14.7004 0 14.7004 0H11.5004Z" fill="white"/>
</svg>
