<?xml version="1.0" encoding="utf-8"?>
<!-- Generator: Adobe Illustrator 24.3.0, SVG Export Plug-In . SVG Version: 6.00 Build 0)  -->
<svg version="1.1" id="LevelInstance_x5F_64" xmlns="http://www.w3.org/2000/svg" xmlns:xlink="http://www.w3.org/1999/xlink"
	 x="0px" y="0px" viewBox="0 0 64 64" style="enable-background:new 0 0 64 64;" xml:space="preserve">
<style type="text/css">
	.st0{fill:none;}
	.st1{fill:url(#SVGID_1_);}
	.st2{fill-rule:evenodd;clip-rule:evenodd;fill:url(#SVGID_2_);}
	.st3{fill-rule:evenodd;clip-rule:evenodd;fill:#FFFFFF;}
	.st4{opacity:0.71;fill-rule:evenodd;clip-rule:evenodd;fill:#FFFFFF;}
	.st5{fill-rule:evenodd;clip-rule:evenodd;fill:url(#SVGID_3_);enable-background:new    ;}
	.st6{fill-rule:evenodd;clip-rule:evenodd;fill:#BFBFBF;}
</style>
<rect x="0" class="st0" width="64" height="64"/>
<g>
	<linearGradient id="SVGID_1_" gradientUnits="userSpaceOnUse" x1="31.7585" y1="52.2752" x2="31.6489" y2="8.8496">
		<stop  offset="0" style="stop-color:#333333"/>
		<stop  offset="1" style="stop-color:#808080"/>
	</linearGradient>
	<rect x="10" y="8.9" class="st1" width="43.3" height="43.3"/>
	<g>
		
			<linearGradient id="SVGID_2_" gradientUnits="userSpaceOnUse" x1="-876.4474" y1="17.3325" x2="-876.2009" y2="45.0627" gradientTransform="matrix(-1 0 0 1 -844.4957 0)">
			<stop  offset="0" style="stop-color:#FFFFFF"/>
			<stop  offset="1" style="stop-color:#999999"/>
		</linearGradient>
		<path class="st2" d="M47.3,45.2L40,28.7l-5.3,9.9l-7.8-20.6L16.1,45.2H47.3z"/>
		<polygon class="st3" points="26.8,17.9 30.1,26.6 27.8,24.4 26.5,28.5 25.5,24.1 24.1,24.9 		"/>
		<polygon class="st3" points="40,28.7 42.7,34.8 41.2,33.5 40.4,35.8 39.5,32.9 37.2,33.7 		"/>
		<polygon class="st4" points="39.5,30.6 34.5,41.5 28.3,24.7 28.7,22.7 34.6,38.5 38.2,31.9 		"/>
	</g>
	<linearGradient id="SVGID_3_" gradientUnits="userSpaceOnUse" x1="31.7096" y1="54.348" x2="31.663" y2="35.8929">
		<stop  offset="0.3858" style="stop-color:#E6E6E6"/>
		<stop  offset="1" style="stop-color:#404040"/>
	</linearGradient>
	<path class="st5" d="M50.7,48.3L46.6,36l6.8,13.3v5.4H10v-5.4l6.8-13.5l-4.1,12.5H50.7z"/>
	<rect x="10" y="49.3" class="st6" width="43.3" height="5.4"/>
</g>
</svg>
