<svg width="16" height="16" viewBox="0 0 16 16" fill="none" xmlns="http://www.w3.org/2000/svg">
<path d="M7.49961 9.89966C8.27281 9.89966 8.89961 9.27283 8.89961 8.49963C8.89961 7.72644 8.27281 7.09961 7.49961 7.09961C6.72641 7.09961 6.09961 7.72644 6.09961 8.49963C6.09961 9.27283 6.72641 9.89966 7.49961 9.89966Z" fill="white"/>
<path d="M7.9002 4H7.2002V5.69995H7.9002V4Z" fill="white"/>
<path d="M7.9002 11.2998H7.2002V12.9998H7.9002V11.2998Z" fill="white"/>
<path d="M4.76562 8.83477V8.13477H3.06555V8.83477H4.76562Z" fill="white"/>
<path d="M4.18012 4.81109L3.75586 5.23535L5.24084 6.72033L5.6651 6.29607L4.18012 4.81109Z" fill="white"/>
<path d="M5.26323 10.3042L3.77832 11.7891L4.20256 12.2133L5.68747 10.7284L5.26323 10.3042Z" fill="white"/>
<path d="M10 5C10 4.4 10.4 4 11 4C11.6 4 12 4.4 12 5V9C12 9.6 11.6 10 11 10C10.4 10 10 9.6 10 9V5Z" fill="white"/>
<path d="M11.0004 13.1003C11.6079 13.1003 12.1004 12.6079 12.1004 12.0004C12.1004 11.3929 11.6079 10.9004 11.0004 10.9004C10.3929 10.9004 9.90039 11.3929 9.90039 12.0004C9.90039 12.6079 10.3929 13.1003 11.0004 13.1003Z" fill="white"/>
<path opacity="0.5" d="M3 0L0 3H13V16L16 13V0H3Z" fill="white"/>
<path d="M13 15H1V3H0V16H13V15Z" fill="white"/>
</svg>
