<?xml version="1.0" encoding="utf-8"?>
<!-- Generator: Adobe Illustrator 24.3.0, SVG Export Plug-In . SVG Version: 6.00 Build 0)  -->
<svg version="1.1" id="LightmassCharacterDetailIndirectVolume_x5F_64"
	 xmlns="http://www.w3.org/2000/svg" xmlns:xlink="http://www.w3.org/1999/xlink" x="0px" y="0px" viewBox="0 0 64 64"
	 style="enable-background:new 0 0 64 64;" xml:space="preserve">
<style type="text/css">
	.st0{fill:none;}
	.st1{fill:#404040;}
	.st2{fill:none;stroke:#333333;stroke-width:2;stroke-miterlimit:10;}
	.st3{opacity:0.71;fill:url(#SVGID_1_);enable-background:new    ;}
	.st4{fill:url(#SVGID_2_);}
	.st5{fill:none;stroke:url(#SVGID_3_);stroke-width:2;stroke-linecap:round;stroke-miterlimit:10;}
	.st6{fill:url(#SVGID_4_);}
	.st7{fill:#FFFFFF;}
</style>
<rect x="0" class="st0" width="64" height="64"/>
<g>
	<polygon class="st1" points="9.1,21.2 20.7,8.5 55.7,9.1 55.7,42.4 43.6,54.7 9.9,54.7 	"/>
	<polyline class="st2" points="55.7,42.4 21.4,42.4 21.4,8.5 	"/>
	<line class="st2" x1="22.2" y1="41.5" x2="8.8" y2="54.9"/>
	<g>
		<linearGradient id="SVGID_1_" gradientUnits="userSpaceOnUse" x1="32.5855" y1="8.4686" x2="32.8604" y2="53.5575">
			<stop  offset="0" style="stop-color:#BFBFBF"/>
			<stop  offset="1" style="stop-color:#808080"/>
		</linearGradient>
		<path class="st3" d="M54,8.5H21.1c-0.2,0-0.4,0.1-0.6,0.3l-10,10.4c-0.5,0.5-0.1,1.4,0.6,1.4h31.7c0.5,0,0.8,0.4,0.8,0.8v31.2
			c0,0.8,0.9,1.1,1.4,0.6L55,42.9c0.2-0.2,0.2-0.4,0.2-0.6l-0.4-33C54.8,8.9,54.4,8.5,54,8.5z"/>
		<linearGradient id="SVGID_2_" gradientUnits="userSpaceOnUse" x1="32.1757" y1="7.1843" x2="32.473" y2="55.9474">
			<stop  offset="0" style="stop-color:#BFBFBF"/>
			<stop  offset="1" style="stop-color:#808080"/>
		</linearGradient>
		<path class="st4" d="M53.6,10.7v31.7c0,0.1,0,0.2-0.1,0.3L43.4,52.7c-0.1,0.1-0.2,0.1-0.3,0.1H11.4c-0.2,0-0.4-0.2-0.4-0.4V20.8
			c0-0.1,0-0.2,0.1-0.3l10.1-10.1c0.1-0.1,0.2-0.1,0.3-0.1h31.7C53.4,10.3,53.6,10.5,53.6,10.7z M56.2,7.3H20.3
			c-0.1,0-0.2,0-0.3,0.1L8.1,19.3C8.1,19.4,8,19.5,8,19.6v35.9c0,0.2,0.2,0.4,0.4,0.4h35.9c0.1,0,0.2,0,0.3-0.1l11.9-11.9
			c0.1-0.1,0.1-0.2,0.1-0.3V7.6C56.6,7.4,56.5,7.3,56.2,7.3z"/>
	</g>
	<linearGradient id="SVGID_3_" gradientUnits="userSpaceOnUse" x1="43.3624" y1="20.51" x2="55.4604" y2="8.4121">
		<stop  offset="0" style="stop-color:#9B9B9D;stop-opacity:0.9"/>
		<stop  offset="0.4467" style="stop-color:#BFBFBF"/>
	</linearGradient>
	<line class="st5" x1="54.7" y1="9.1" x2="44.1" y2="19.9"/>
</g>
<g>
	<radialGradient id="SVGID_4_" cx="27.3009" cy="36.4012" r="14.7268" gradientUnits="userSpaceOnUse">
		<stop  offset="0" style="stop-color:#F2F2F2;stop-opacity:0.7"/>
		<stop  offset="1" style="stop-color:#B3B3B3;stop-opacity:0"/>
	</radialGradient>
	<circle class="st6" cx="27.3" cy="36.4" r="14.7"/>
	<g>
		<path class="st7" d="M27.3,40.5c2.2,0,4.1-1.8,4.1-4.1s-1.8-4.1-4.1-4.1s-4.1,1.8-4.1,4.1S25.1,40.5,27.3,40.5z"/>
		<path class="st7" d="M28.3,23.1h-2v5.1h2V23.1z"/>
		<path class="st7" d="M28.3,44.5h-2v5.1h2V44.5z"/>
		<path class="st7" d="M19.3,37.5v-2h-5.1v2H19.3z"/>
		<path class="st7" d="M40.6,37.3v-2h-5.1v2H40.6z"/>
		<path class="st7" d="M17.7,25.4l-1.3,1.3l4.3,4.3l1.3-1.3L17.7,25.4z"/>
		<path class="st7" d="M20.7,41.7l-4.3,4.3l1.3,1.3l4.3-4.3L20.7,41.7z"/>
		<path class="st7" d="M36.9,25.4l-4.3,4.3l1.3,1.3l4.3-4.3L36.9,25.4z"/>
	</g>
	<path class="st7" d="M34.1,41.7L32.8,43l4.3,4.3l1.3-1.3L34.1,41.7z"/>
</g>
</svg>
