<svg width="16" height="16" viewBox="0 0 16 16" fill="none" xmlns="http://www.w3.org/2000/svg">
<path d="M8 9C9.65685 9 11 7.65685 11 6C11 4.34315 9.65685 3 8 3C6.34315 3 5 4.34315 5 6C5 7.65685 6.34315 9 8 9Z" fill="white"/>
<path opacity="0.5" d="M13.2998 0.699219L11.7998 2.19922C12.7998 3.19922 13.3998 4.49922 13.3998 5.99922C13.3998 7.49922 12.7998 8.79922 11.7998 9.79922L13.2998 11.2992C14.6998 9.89922 15.4998 8.09922 15.4998 5.99922C15.4998 3.89922 14.6998 2.09922 13.2998 0.699219Z" fill="white"/>
<path opacity="0.5" d="M2.6 5.99922C2.6 4.49922 3.2 3.19922 4.2 2.19922L2.7 0.699219C1.3 2.09922 0.5 3.89922 0.5 5.99922C0.5 8.09922 1.3 9.89922 2.7 11.2992L4.2 9.79922C3.2 8.79922 2.6 7.49922 2.6 5.99922Z" fill="white"/>
<path d="M9 10H7V16H9V10Z" fill="white"/>
<path d="M16 13.2991C16 14.5991 14.5 14.6991 13.5 15.9991C12.5 14.5991 11 14.4991 11 13.2991C11 12.0991 12.5 11.4991 13.5 12.9991C14.5 11.4991 16 11.9991 16 13.2991Z" fill="white"/>
</svg>
