<svg width="16" height="16" viewBox="0 0 16 16" fill="none" xmlns="http://www.w3.org/2000/svg">
<path d="M9 7H7V11H9V7Z" fill="white"/>
<path d="M7 11H3V11.5C2.8 11.4 2.7 11.2 2.5 11H3V7H1C1 5.5 1.6 4.1 2.5 3H3V2.5C4.1 1.6 5.5 1 7 1V3H11V2.5C11.2 2.6 11.3 2.8 11.5 3H11V5L12.8 3.2C11.6 1.3 9.4 0 7 0C3.1 0 0 3.1 0 7C0 10.9 3.1 14 7 14V13V11Z" fill="white"/>
<path d="M7 3H3V7H7V3Z" fill="white"/>
<path d="M13.9998 6.5C14.0998 6.3 14.1998 6.2 14.2998 6.2C14.3998 6.3 14.3998 6.4 14.4998 6.4C14.5998 6.5 14.5998 6.6 14.6998 6.7C14.7998 6.8 14.8998 6.9 14.9998 6.9C15.0998 7 15.1998 7 15.2998 7C15.4998 7 15.6998 6.9 15.7998 6.8C15.8998 6.6 15.9998 6.5 15.9998 6.3C15.9998 6.1 15.8998 6 15.8998 5.9C15.8998 5.8 15.7998 5.8 15.7998 5.7C15.7998 5.7 15.6998 5.7 15.6998 5.6C15.6998 5.6 15.5998 5.6 15.4998 5.5C15.4998 5.5 15.4998 5.5 15.3998 5.5C15.2998 5.5 15.1998 5.5 15.0998 5.5C14.7998 5.5 14.5998 5.6 14.2998 5.7C13.9998 5.8 13.7998 6 13.5998 6.2C13.3998 6.4 13.1998 6.7 12.9998 7C12.7998 7.3 12.6998 7.7 12.5998 8L12.4998 8.3H10.4998L10.3998 8.8H12.3998L11.4998 13.1C11.3998 13.7 11.1998 14.2 10.9998 14.5C10.7998 14.8 10.5998 15 10.2998 15C10.2998 14.9 10.1998 14.9 10.1998 14.8C10.1998 14.7 10.0998 14.5 10.0998 14.4C9.9998 14.2 9.9998 14.1 9.8998 14C9.7998 14.1 9.6998 14 9.4998 14C9.3998 13.9 9.1998 13.9 9.0998 13.9C8.7998 13.9 8.6998 14 8.4998 14.2C8.3998 14.4 8.2998 14.6 8.2998 14.8C8.2998 15.1 8.3998 15.3 8.5998 15.4C8.7998 15.6 9.0998 15.7 9.5998 15.7C9.6998 15.7 9.6998 15.7 9.6998 15.7H9.7998C10.2998 15.7 10.8998 15.5 11.3998 15C11.8998 14.5 12.1998 13.9 12.3998 13.2L13.2998 9.1H15.5998L15.6998 8.6H13.3998L13.4998 8.1C13.6998 7.3 13.7998 6.8 13.9998 6.5Z" fill="white"/>
</svg>
