<svg width="64" height="64" viewBox="0 0 64 64" fill="none" xmlns="http://www.w3.org/2000/svg">
<path d="M31.9999 54.24C36.3985 54.24 40.6984 52.9357 44.3558 50.4919C48.0131 48.0481 50.8637 44.5747 52.547 40.5109C54.2303 36.4471 54.6707 31.9753 53.8126 27.6612C52.9544 23.3471 50.8363 19.3843 47.7259 16.274C44.6156 13.1636 40.6528 11.0455 36.3387 10.1874C32.0246 9.32922 27.5528 9.76965 23.489 11.4529C19.4252 13.1362 15.9518 15.9868 13.508 19.6441C11.0642 23.3015 9.75989 27.6014 9.75989 32C9.75989 37.8984 12.103 43.5553 16.2738 47.7261C20.4446 51.8969 26.1015 54.24 31.9999 54.24Z" fill="url(#paint0_radial)"/>
<path d="M45.69 18.3101V14.5501C41.8184 11.4174 36.9801 9.72454 32 9.76007V18.3101H45.69Z" fill="white"/>
<path d="M45.69 32H32V45.69H45.69V32Z" fill="white"/>
<path d="M31.9999 18.3101H18.3099V32.0001H31.9999V18.3101Z" fill="white"/>
<path d="M54.2399 32.0001C54.2755 27.0199 52.5826 22.1817 49.4499 18.3101H45.6899V32.0001H54.2399Z" fill="white"/>
<path d="M49.4499 45.6902H45.6899V49.4502C47.1075 48.3726 48.3724 47.1078 49.4499 45.6902Z" fill="white"/>
<path d="M18.3099 49.4502C22.1815 52.5829 27.0198 54.2757 31.9999 54.2402V45.6902H18.3099V49.4502Z" fill="white"/>
<path d="M9.75995 32C9.72442 36.9801 11.4173 41.8184 14.5499 45.69H18.3099V32H9.75995Z" fill="white"/>
<path d="M14.5499 18.31H18.3099V14.55C16.8923 15.6276 15.6275 16.8925 14.5499 18.31Z" fill="white"/>
<path d="M31.8499 53.5802C36.1418 53.5802 40.3372 52.3075 43.9058 49.9231C47.4743 47.5387 50.2557 44.1496 51.8981 40.1844C53.5405 36.2193 53.9702 31.8561 53.1329 27.6467C52.2956 23.4373 50.2289 19.5708 47.1941 16.536C44.1593 13.5012 40.2928 11.4344 36.0834 10.5971C31.874 9.75985 27.5108 10.1896 23.5457 11.832C19.5805 13.4744 16.1914 16.2558 13.807 19.8243C11.4226 23.3929 10.1499 27.5883 10.1499 31.8802C10.1486 34.7302 10.709 37.5526 11.799 40.186C12.8891 42.8193 14.4875 45.212 16.5028 47.2273C18.518 49.2426 20.9108 50.841 23.5441 51.931C26.1775 53.0211 28.9999 53.5815 31.8499 53.5802Z" fill="url(#paint1_radial)"/>
<path d="M31.9999 54.24C36.3985 54.24 40.6984 52.9357 44.3558 50.4919C48.0131 48.0481 50.8637 44.5747 52.547 40.5109C54.2303 36.4471 54.6707 31.9754 53.8126 27.6612C52.9544 23.3471 50.8363 19.3843 47.7259 16.274C44.6156 13.1636 40.6528 11.0455 36.3387 10.1874C32.0246 9.32922 27.5528 9.76965 23.489 11.4529C19.4252 13.1362 15.9518 15.9868 13.508 19.6441C11.0642 23.3015 9.75989 27.6014 9.75989 32C9.75989 37.8984 12.103 43.5553 16.2738 47.7261C20.4446 51.8969 26.1015 54.24 31.9999 54.24V54.24Z" stroke="url(#paint2_linear)" stroke-width="2" stroke-miterlimit="10"/>
<path d="M53.8399 33.99H32.1199C30.4355 33.99 29.0699 35.3555 29.0699 37.04V53.2C29.0699 54.8845 30.4355 56.25 32.1199 56.25H53.8399C55.5244 56.25 56.8899 54.8845 56.8899 53.2V37.04C56.8899 35.3555 55.5244 33.99 53.8399 33.99Z" fill="url(#paint3_linear)"/>
<path opacity="0.75" d="M49.8299 37.3401H40.9899C39.9903 37.3401 39.1799 38.1505 39.1799 39.1501V47.4101C39.1799 48.4097 39.9903 49.2201 40.9899 49.2201H49.8299C50.8296 49.2201 51.6399 48.4097 51.6399 47.4101V39.1501C51.6399 38.1505 50.8296 37.3401 49.8299 37.3401Z" fill="url(#paint4_linear)"/>
<path opacity="0.3" d="M45.6899 40.3601H36.8499C35.8503 40.3601 35.0399 41.1705 35.0399 42.1701V50.4301C35.0399 51.4297 35.8503 52.2401 36.8499 52.2401H45.6899C46.6896 52.2401 47.4999 51.4297 47.4999 50.4301V42.1701C47.4999 41.1705 46.6896 40.3601 45.6899 40.3601Z" fill="black"/>
<path d="M45.03 41.02H36.19C35.1904 41.02 34.38 41.8304 34.38 42.83V51.09C34.38 52.0897 35.1904 52.9 36.19 52.9H45.03C46.0296 52.9 46.84 52.0897 46.84 51.09V42.83C46.84 41.8304 46.0296 41.02 45.03 41.02Z" fill="url(#paint5_linear)"/>
<defs>
<radialGradient id="paint0_radial" cx="0" cy="0" r="1" gradientUnits="userSpaceOnUse" gradientTransform="translate(31.9999 32) scale(22.24)">
<stop stop-color="#808080"/>
<stop offset="1" stop-color="#333333"/>
</radialGradient>
<radialGradient id="paint1_radial" cx="0" cy="0" r="1" gradientUnits="userSpaceOnUse" gradientTransform="translate(31.8499 31.8802) scale(21.7)">
<stop stop-color="#808080" stop-opacity="0"/>
<stop offset="0.82" stop-color="#333333" stop-opacity="0.5"/>
<stop offset="1" stop-color="#333333" stop-opacity="0.8"/>
</radialGradient>
<linearGradient id="paint2_linear" x1="31.9999" y1="8.76002" x2="31.9999" y2="55.24" gradientUnits="userSpaceOnUse">
<stop stop-color="white"/>
<stop offset="1" stop-color="#B3B3B3"/>
</linearGradient>
<linearGradient id="paint3_linear" x1="43.0799" y1="55.78" x2="42.8699" y2="33.7" gradientUnits="userSpaceOnUse">
<stop stop-color="#333333"/>
<stop offset="1" stop-color="#4D4D4D"/>
</linearGradient>
<linearGradient id="paint4_linear" x1="39.1799" y1="43.2801" x2="51.6299" y2="43.2801" gradientUnits="userSpaceOnUse">
<stop stop-color="#E6E6E6"/>
<stop offset="1" stop-color="#999999"/>
</linearGradient>
<linearGradient id="paint5_linear" x1="34.38" y1="46.96" x2="46.84" y2="46.96" gradientUnits="userSpaceOnUse">
<stop stop-color="#E6E6E6"/>
<stop offset="1" stop-color="#B3B3B3"/>
</linearGradient>
</defs>
</svg>
