<?xml version="1.0" encoding="utf-8"?>
<!-- Generator: Adobe Illustrator 24.2.3, SVG Export Plug-In . SVG Version: 6.00 Build 0)  -->
<svg version="1.1" id="Layer_1" xmlns="http://www.w3.org/2000/svg" xmlns:xlink="http://www.w3.org/1999/xlink" x="0px" y="0px"
	 viewBox="0 0 64 64" style="enable-background:new 0 0 64 64;" xml:space="preserve">
<style type="text/css">
	.st0{fill:none;}
	.st1{fill:url(#SVGID_1_);}
	.st2{fill:#FFFFFF;}
	.st3{fill:url(#SVGID_2_);}
	.st4{fill:none;stroke:url(#SVGID_3_);stroke-width:2;stroke-miterlimit:10;}
</style>
<g id="MaterialInstanceActor_x5F_64">
	<g>
		<rect class="st0" width="64" height="64"/>
		
			<radialGradient id="SVGID_1_" cx="32.7996" cy="222" r="22.2288" gradientTransform="matrix(1 0 0 1 0 -190)" gradientUnits="userSpaceOnUse">
			<stop  offset="0" style="stop-color:#808080"/>
			<stop  offset="1" style="stop-color:#333333"/>
		</radialGradient>
		<path class="st1" d="M32.8,54.2C45.1,54.2,55,44.3,55,32S45,9.8,32.8,9.8c-12.3,0-22.2,10-22.2,22.2
			C10.5,44.3,20.5,54.2,32.8,54.2z"/>
		<g>
			<path class="st2" d="M46.5,18.3v-3.8c-3.8-3.1-8.6-4.8-13.7-4.8v8.6H46.5z"/>
			<path class="st2" d="M46.5,32H32.8v13.7h13.7V32z"/>
			<path class="st2" d="M32.8,18.3H19.1V32h13.7V18.3z"/>
			<path class="st2" d="M55,32c0-5.1-1.7-9.9-4.8-13.7h-3.8V32H55z"/>
			<path class="st2" d="M50.2,45.7h-3.8v3.8C47.8,48.4,49.2,47.1,50.2,45.7z"/>
			<path class="st2" d="M19.1,49.5c3.8,3.1,8.6,4.8,13.7,4.8v-8.6H19.1V49.5z"/>
			<path class="st2" d="M10.5,32c0,5.1,1.7,9.9,4.8,13.7h3.8V32H10.5z"/>
			<path class="st2" d="M15.3,18.3h3.8v-3.8C17.7,15.6,16.4,16.9,15.3,18.3z"/>
		</g>
		
			<radialGradient id="SVGID_2_" cx="32.6" cy="221.9" r="21.7218" gradientTransform="matrix(1 0 0 1 0 -190)" gradientUnits="userSpaceOnUse">
			<stop  offset="0" style="stop-color:#808080;stop-opacity:0"/>
			<stop  offset="0.8223" style="stop-color:#333333;stop-opacity:0.5"/>
			<stop  offset="1" style="stop-color:#333333;stop-opacity:0.8"/>
		</radialGradient>
		<path class="st3" d="M32.6,53.6c12,0,21.7-9.7,21.7-21.7s-9.7-21.7-21.7-21.7s-21.7,9.7-21.7,21.7C10.9,43.9,20.6,53.6,32.6,53.6z
			"/>
		
			<linearGradient id="SVGID_3_" gradientUnits="userSpaceOnUse" x1="32.7996" y1="198.8" x2="32.7996" y2="245.2818" gradientTransform="matrix(1 0 0 1 0 -190)">
			<stop  offset="0" style="stop-color:#FFFFFF"/>
			<stop  offset="1" style="stop-color:#B3B3B3"/>
		</linearGradient>
		<path class="st4" d="M32.8,54.2C45.1,54.2,55,44.3,55,32S45,9.8,32.8,9.8c-12.3,0-22.2,10-22.2,22.2
			C10.5,44.3,20.5,54.2,32.8,54.2z"/>
	</g>
</g>
</svg>
