<svg width="16" height="16" viewBox="0 0 16 16" fill="none" xmlns="http://www.w3.org/2000/svg">
<path d="M7 0C5.14348 0 3.36301 0.737493 2.05025 2.05025C0.737498 3.363 0 5.14348 0 7V7C0 8.85652 0.737498 10.637 2.05025 11.9498C3.36301 13.2625 5.14348 14 7 14C7.33488 13.9986 7.66917 13.9719 8 13.92V12.92C7.66942 12.9752 7.33513 13.0053 7 13.01C5.4087 13.01 3.88258 12.3779 2.75736 11.2526C1.63214 10.1274 1 8.60129 1 7.00999C1 5.4187 1.63214 3.89258 2.75736 2.76736C3.88258 1.64215 5.4087 1.00999 7 1.00999C8.5913 1.00999 10.1174 1.64215 11.2426 2.76736C12.3679 3.89258 13 5.4187 13 7.00999H14C14.0013 6.0899 13.8212 5.17857 13.47 4.32814C13.1188 3.47771 12.6034 2.70486 11.9533 2.05379C11.3031 1.40272 10.531 0.886206 9.6811 0.533798C8.83116 0.18139 7.9201 -9.38869e-07 7 0V0Z" fill="white"/>
<path d="M11 3V1.88001C9.85865 0.985376 8.45019 0.499452 7 0.5V3H11Z" fill="white"/>
<path d="M7 3H3V7H7V3Z" fill="white"/>
<path d="M13.5 7C13.5005 5.54981 13.0146 4.14135 12.12 3H11V7H13.5Z" fill="white"/>
<path d="M3 12.12C4.14135 13.0146 5.54981 13.5005 7 13.5V11H3V12.12Z" fill="white"/>
<path d="M0.5 7C0.499452 8.45019 0.98537 9.85865 1.88 11H3V7H0.5Z" fill="white"/>
<path d="M1.87988 2.99988H2.99988V1.87988C2.58288 2.20683 2.20683 2.58287 1.87988 2.99988V2.99988Z" fill="white"/>
<path d="M7 11H8V9H10V7H7V11Z" fill="white"/>
<path d="M14 10H9V15H14V10Z" fill="white"/>
<path d="M11 8V9H15V13H16V8H11Z" fill="white"/>
</svg>
