<?xml version="1.0" encoding="utf-8"?>
<!-- Generator: Adobe Illustrator 25.0.0, SVG Export Plug-In . SVG Version: 6.00 Build 0)  -->
<svg version="1.1" id="MediaPlayer_x5F_64" xmlns="http://www.w3.org/2000/svg" xmlns:xlink="http://www.w3.org/1999/xlink" x="0px"
	 y="0px" viewBox="0 0 64 64" style="enable-background:new 0 0 64 64;" xml:space="preserve">
<style type="text/css">
	.st0{fill:url(#SVGID_1_);}
	.st1{fill:url(#SVGID_2_);}
	.st2{fill-rule:evenodd;clip-rule:evenodd;fill:#FFFFFF;}
	.st3{fill-rule:evenodd;clip-rule:evenodd;fill:url(#SVGID_3_);}
	.st4{fill-rule:evenodd;clip-rule:evenodd;fill:url(#SVGID_4_);}
	.st5{fill-rule:evenodd;clip-rule:evenodd;fill:url(#SVGID_5_);}
	.st6{fill-rule:evenodd;clip-rule:evenodd;fill:url(#SVGID_6_);}
	.st7{fill-rule:evenodd;clip-rule:evenodd;fill:#BFBFBF;}
	.st8{fill:none;}
</style>
<g>
	<linearGradient id="SVGID_1_" gradientUnits="userSpaceOnUse" x1="20.6266" y1="16.9315" x2="22.725" y2="15.7131">
		<stop  offset="0" style="stop-color:#CCCCCC"/>
		<stop  offset="0.6345" style="stop-color:#666666"/>
		<stop  offset="1" style="stop-color:#808080"/>
	</linearGradient>
	<path class="st0" d="M26.4,24.2L26.4,24.2c-0.5,0.3-1.1,0.1-1.4-0.4l-8.1-14c-0.3-0.5-0.1-1.1,0.4-1.4v0c0.5-0.3,1.1-0.1,1.4,0.4
		l8.1,14C27,23.3,26.9,23.9,26.4,24.2z"/>
	<linearGradient id="SVGID_2_" gradientUnits="userSpaceOnUse" x1="35.2441" y1="15.6473" x2="36.5979" y2="16.4596">
		<stop  offset="0" style="stop-color:#CCCCCC"/>
		<stop  offset="0.6345" style="stop-color:#666666"/>
		<stop  offset="1" style="stop-color:#808080"/>
	</linearGradient>
	<path class="st1" d="M31.7,24.2L31.7,24.2c0.5,0.3,1.1,0.1,1.4-0.4l8.1-14c0.3-0.5,0.1-1.1-0.4-1.4v0c-0.5-0.3-1.1-0.1-1.4,0.4
		l-8.1,14C31,23.3,31.2,23.9,31.7,24.2z"/>
	<path class="st2" d="M53.1,52.2H11.9c-2.2,0-4-1.8-4-4V24.1c0-2.2,1.8-4,4-4h41.2c2.2,0,4,1.8,4,4v24.1
		C57.2,50.4,55.4,52.2,53.1,52.2z"/>
	<linearGradient id="SVGID_3_" gradientUnits="userSpaceOnUse" x1="32.5338" y1="22.0653" x2="32.5338" y2="54.1584">
		<stop  offset="0" style="stop-color:#CCCCCC"/>
		<stop  offset="0.7817" style="stop-color:#666666"/>
		<stop  offset="1" style="stop-color:#808080"/>
	</linearGradient>
	<path class="st3" d="M53.1,53H11.9c-2.2,0-4-1.8-4-4V24.9c0-2.2,1.8-4,4-4h41.2c2.2,0,4,1.8,4,4V49C57.2,51.2,55.4,53,53.1,53z"/>
	<linearGradient id="SVGID_4_" gradientUnits="userSpaceOnUse" x1="28.9429" y1="24.105" x2="28.8318" y2="49.3271">
		<stop  offset="0" style="stop-color:#808080"/>
		<stop  offset="1" style="stop-color:#333333"/>
	</linearGradient>
	<path class="st4" d="M43.2,49.8H14.6c-1.7,0-3.1-1.4-3.1-3.1V26.9c0-1.7,1.4-3.1,3.1-3.1h28.6c1.7,0,3.1,1.4,3.1,3.1v19.7
		C46.3,48.4,44.9,49.8,43.2,49.8z"/>
	<radialGradient id="SVGID_5_" cx="51.8704" cy="27.9893" r="3.2783" gradientUnits="userSpaceOnUse">
		<stop  offset="0" style="stop-color:#808080"/>
		<stop  offset="1" style="stop-color:#4D4D4D"/>
	</radialGradient>
	<circle class="st5" cx="51.9" cy="28" r="3.3"/>
	<radialGradient id="SVGID_6_" cx="51.8704" cy="36.1563" r="3.2783" gradientUnits="userSpaceOnUse">
		<stop  offset="0" style="stop-color:#808080"/>
		<stop  offset="1" style="stop-color:#4D4D4D"/>
	</radialGradient>
	<circle class="st6" cx="51.9" cy="36.2" r="3.3"/>
	<circle class="st7" cx="51.9" cy="28" r="2.5"/>
	<circle class="st7" cx="51.9" cy="36.2" r="2.5"/>
	<rect x="0" class="st8" width="64" height="64"/>
</g>
</svg>
