<svg width="16" height="16" viewBox="0 0 16 16" fill="none" xmlns="http://www.w3.org/2000/svg">
<g clip-path="url(#clip0_8292:14600)">
<path d="M7.76 11.73V12.63L1 14.4V1.6L7.76 3.37V4.46L8 5.26V3.12L0 0V16L8 12.88V11.64L7.76 11.73Z" fill="white" fill-opacity="0.5"/>
<path opacity="0.5" d="M10.05 9.74994L10.21 9.84991L9.54999 10.96C9.50871 11.0391 9.44486 11.1041 9.36652 11.1469C9.28817 11.1896 9.19886 11.2081 9.10999 11.2H7.31C7.19353 11.1994 7.08206 11.1526 7 11.0699V10.4399C7.08206 10.3573 7.19353 10.3105 7.31 10.3099H8.90002L9.57001 9.15991C9.64605 9.41212 9.81852 9.62417 10.05 9.74994ZM15.55 7.95996H14L13.26 6.65991C13.341 6.92383 13.341 7.20599 13.26 7.46991L12.98 7.95996L13.35 8.60992C13.3963 8.69147 13.4655 8.7577 13.5491 8.80035C13.6326 8.84301 13.7268 8.8602 13.82 8.84991H15.61C15.7276 8.84994 15.8406 8.80392 15.9247 8.72168C16.0089 8.63944 16.0574 8.52752 16.06 8.40991C16.0551 8.34884 16.0378 8.28944 16.0092 8.23529C15.9805 8.18114 15.9411 8.13342 15.8934 8.09503C15.8456 8.05665 15.7906 8.02837 15.7315 8.01202C15.6725 7.99568 15.6107 7.99158 15.55 7.99994V7.95996Z" fill="white"/>
<path fill-rule="evenodd" clip-rule="evenodd" d="M8.53998 7.10004C8.49795 7.05905 8.46458 7.01009 8.44177 6.95599C8.41897 6.9019 8.40723 6.84374 8.40723 6.78503C8.40723 6.72632 8.41897 6.66823 8.44177 6.61414C8.46458 6.56004 8.49795 6.51102 8.53998 6.47003L9.73999 5.13007C9.81203 5.04583 9.90909 4.98679 10.017 4.96161C10.125 4.93642 10.2382 4.9464 10.34 4.99005L11.94 5.80005H12.04L12.19 5.88007L12.91 6.29004C13.0167 6.39332 13.0848 6.53006 13.103 6.67743C13.1212 6.8248 13.0884 6.97391 13.01 7.10004L12.76 7.58008L11.76 9.25006L12.9 9.91003C12.9465 9.95163 12.9839 10.0025 13.0097 10.0593C13.0355 10.1161 13.0492 10.1777 13.05 10.2401V12.04C13.05 12.1594 13.0026 12.2739 12.9182 12.3583C12.8338 12.4427 12.7193 12.4901 12.6 12.4901C12.4824 12.4874 12.3705 12.4389 12.2883 12.3548C12.206 12.2707 12.1599 12.1577 12.16 12.04V10.5001L10.31 9.45007H10.24C10.0847 9.35819 9.96176 9.22025 9.88831 9.05542C9.81485 8.89059 9.7945 8.70702 9.83002 8.53009L11.09 6.37006L10.09 5.87006L9.09003 7.01007C9.02283 7.08626 8.93131 7.13685 8.83105 7.15326C8.7308 7.16966 8.62795 7.15083 8.53998 7.10004V7.10004ZM13.73 3.79004C13.417 3.79004 13.1169 3.91439 12.8956 4.13568C12.6743 4.35697 12.55 4.65708 12.55 4.97003C12.55 5.28299 12.6743 5.58315 12.8956 5.80444C13.1169 6.02574 13.417 6.15009 13.73 6.15009C14.0429 6.15009 14.3431 6.02574 14.5644 5.80444C14.7857 5.58315 14.91 5.28299 14.91 4.97003C14.91 4.65708 14.7857 4.35697 14.5644 4.13568C14.3431 3.91439 14.0429 3.79004 13.73 3.79004V3.79004Z" fill="white"/>
<path d="M1.09009 5.00006C1.09009 4.68711 1.21438 4.38694 1.43567 4.16565C1.65696 3.94436 1.95713 3.82007 2.27008 3.82007C2.58304 3.82007 2.88314 3.94436 3.10443 4.16565C3.32572 4.38694 3.45007 4.68711 3.45007 5.00006C3.45007 5.31302 3.32572 5.61318 3.10443 5.83447C2.88314 6.05577 2.58304 6.18005 2.27008 6.18005C1.95713 6.18005 1.65696 6.05577 1.43567 5.83447C1.21438 5.61318 1.09009 5.31302 1.09009 5.00006V5.00006ZM7.20007 6.17004L6.30005 5.17004C6.22801 5.08581 6.13094 5.02683 6.02301 5.00165C5.91508 4.97646 5.80195 4.98644 5.70007 5.03009L4.10004 5.84009H4.00006L3.85004 5.92004L3.13007 6.33008C3.02339 6.43336 2.95527 6.57004 2.93707 6.71741C2.91888 6.86478 2.95173 7.01395 3.03009 7.14008L3.28009 7.62006L4.28009 9.29004L3.14008 9.95007C3.09356 9.99167 3.05616 10.0425 3.03033 10.0993C3.00451 10.1561 2.99081 10.2177 2.99005 10.2801V12.0801C2.99005 12.1994 3.0375 12.3139 3.12189 12.3983C3.20628 12.4826 3.32072 12.5301 3.44006 12.5301C3.55767 12.5275 3.66959 12.4789 3.75183 12.3948C3.83407 12.3107 3.88009 12.1977 3.88007 12.0801V10.54L5.73004 9.49005H5.80005C5.95537 9.39816 6.07827 9.26023 6.15173 9.0954C6.22519 8.93056 6.2456 8.747 6.21008 8.57007L4.95007 6.41003L5.95007 5.91003L6.95007 7.05005C6.99826 7.09834 7.05619 7.13583 7.12 7.15997C7.1838 7.18411 7.25199 7.19436 7.32007 7.19006L7.20007 6.17004Z" fill="white"/>
<path opacity="0.5" d="M2.79004 6.65991L2.05005 7.95996H1.05005V8.84991H2.29004C2.38326 8.8602 2.47745 8.84301 2.56097 8.80035C2.6445 8.7577 2.71374 8.69147 2.76007 8.60992L3.13007 7.95996L2.85004 7.46991C2.74923 7.21204 2.72833 6.92982 2.79004 6.65991V6.65991Z" fill="white"/>
<path opacity="0.5" d="M7.10004 10.3099L6.43005 9.15991C6.35401 9.41212 6.18154 9.62417 5.95007 9.74994L5.79004 9.84991L6.45007 10.96C6.49135 11.0391 6.5552 11.1041 6.63354 11.1469C6.71189 11.1896 6.8012 11.2081 6.89008 11.2H7.20007V10.3099H7.10004Z" fill="white"/>
</g>
<defs>
<clipPath id="clip0_8292:14600">
<rect width="16" height="16" fill="white"/>
</clipPath>
</defs>
</svg>
