<svg width="64" height="64" viewBox="0 0 64 64" fill="none" xmlns="http://www.w3.org/2000/svg">
<path d="M1 2V62L31 50.3V13.7L1 2ZM30.09 49.36L5 55.8V8.20001L30.09 14.64V49.36Z" fill="url(#paint0_linear_8292:14633)"/>
<path d="M7 21.0001C7 19.8862 7.44251 18.8179 8.23016 18.0302C9.01782 17.2426 10.0861 16.8 11.2 16.8C12.3122 16.8027 13.3779 17.2464 14.1634 18.0338C14.9489 18.8211 15.39 19.8879 15.39 21.0001C15.39 22.1122 14.9489 23.179 14.1634 23.9664C13.3779 24.7537 12.3122 25.1974 11.2 25.2001C10.0861 25.2001 9.01782 24.7576 8.23016 23.9699C7.44251 23.1823 7 22.114 7 21.0001ZM29 25.47L25.52 21.6C25.2704 21.2897 24.9259 21.0699 24.5394 20.9742C24.1528 20.8784 23.7456 20.9121 23.38 21.0701L17.69 23.9601L17.33 24.11L16.8 24.4001L14.23 25.86C13.8569 26.2333 13.6198 26.7208 13.5563 27.2447C13.4929 27.7686 13.6068 28.2986 13.88 28.7501L14.79 30.4401L18.22 36.4401L14.14 38.79L14 38.9001L13.85 39.0201C13.6785 39.1675 13.5406 39.35 13.4457 39.5553C13.3509 39.7606 13.3012 39.9839 13.3 40.2101V46.6C13.3026 47.0209 13.471 47.4238 13.7686 47.7214C14.0662 48.0191 14.4691 48.1874 14.89 48.1901C15.3126 48.1901 15.718 48.0229 16.0178 47.725C16.3176 47.4271 16.4873 47.0226 16.49 46.6V41.0001L23.04 37.2501L23.31 37.1C23.8599 36.7736 24.2954 36.2851 24.5568 35.7015C24.8181 35.1179 24.8926 34.4677 24.77 33.8401L20.28 26.16L23.77 24.3901L27.4 28.3901C27.5932 28.6081 27.8436 28.7677 28.1229 28.8508C28.4021 28.9338 28.699 28.9371 28.98 28.86L29 25.47Z" fill="url(#paint1_linear_8292:14633)"/>
<path d="M6 31.6501H10.42L13.05 27.04C12.7474 27.9728 12.7474 28.9773 13.05 29.91L14.05 31.6401L12.74 33.97C12.5687 34.2564 12.3204 34.489 12.0234 34.6411C11.7263 34.7931 11.3925 34.8586 11.06 34.8301H6V31.6501ZM29 40.0101H28.37L25.99 35.9401C25.6927 36.8183 25.0893 37.5602 24.29 38.0301L23.7 38.3801L26.05 42.3801C26.2053 42.655 26.4351 42.8805 26.7128 43.0309C26.9905 43.1812 27.3049 43.2502 27.62 43.23H29V40.0101Z" fill="url(#paint2_linear_8292:14633)"/>
<path d="M50.4 30.3999L46.97 36.3999L51.05 38.7499L51.2 38.8599L51.35 38.9799C51.5202 39.1278 51.6565 39.3108 51.7497 39.5161C51.8429 39.7214 51.8907 39.9444 51.89 40.1699V46.5599C51.89 46.9816 51.7225 47.3861 51.4243 47.6842C51.1261 47.9824 50.7217 48.1499 50.3 48.1499C49.8783 48.1499 49.4739 47.9824 49.1757 47.6842C48.8775 47.3861 48.71 46.9816 48.71 46.5599V40.9999L42.15 37.2499L41.88 37.0999C41.328 36.7756 40.8908 36.2874 40.6292 35.7032C40.3675 35.1189 40.2944 34.4677 40.42 33.84L44.91 26.1599L41.42 24.3899L37.79 28.3899C37.6504 28.5459 37.4813 28.6728 37.2925 28.7633C37.1038 28.8538 36.899 28.9061 36.6899 28.9173C36.4809 28.9284 36.2717 28.8982 36.0743 28.8283C35.877 28.7584 35.6954 28.6502 35.54 28.5099C35.3843 28.3712 35.2577 28.203 35.1673 28.0151C35.0769 27.8271 35.0246 27.6231 35.0135 27.4149C35.0023 27.2067 35.0325 26.9983 35.1023 26.8018C35.1721 26.6053 35.28 26.4245 35.42 26.2699L39.69 21.5199C39.938 21.2105 40.2807 20.9909 40.6655 20.8952C41.0503 20.7994 41.4559 20.8327 41.82 20.9899L47.51 23.8799L47.88 24.03L48.41 24.3199L50.97 25.78C51.3462 26.151 51.5864 26.6381 51.6517 27.1625C51.717 27.6868 51.6037 28.2179 51.33 28.6699L50.41 30.3599L50.4 30.3999ZM54.03 16.7999C52.9161 16.7999 51.8478 17.2424 51.0602 18.0301C50.2725 18.8177 49.83 19.886 49.83 20.9999C49.83 22.1138 50.2725 23.1821 51.0602 23.9698C51.8478 24.7574 52.9161 25.1999 54.03 25.1999C55.1439 25.1999 56.2122 24.7574 56.9999 23.9698C57.7875 23.1821 58.23 22.1138 58.23 20.9999C58.23 20.4458 58.1204 19.8972 57.9075 19.3857C57.6945 18.8741 57.3825 18.4098 56.9893 18.0194C56.5961 17.629 56.1295 17.3203 55.6165 17.111C55.1034 16.9017 54.5541 16.796 54 16.7999H54.03Z" fill="url(#paint3_linear_8292:14633)"/>
<path d="M32 40.0001H36.85L39.23 35.9301C39.5263 36.8058 40.1256 37.547 40.92 38.0201L41.52 38.3701L39.16 42.3701C39.0046 42.645 38.7749 42.8705 38.4973 43.0209C38.2196 43.1712 37.9052 43.2402 37.59 43.22H32V40.0001ZM62 32.66C61.8818 32.3643 61.6776 32.1109 61.4137 31.9326C61.1498 31.7543 60.8385 31.6593 60.52 31.66H54.8L52.16 27.05C52.4703 27.9815 52.4703 28.9885 52.16 29.92L51.16 31.6501L52.48 33.98C52.6505 34.2648 52.8972 34.4963 53.1923 34.6483C53.4874 34.8003 53.8192 34.8667 54.15 34.8401H60.54C60.8584 34.8408 61.1698 34.7458 61.4337 34.5675C61.6976 34.3892 61.9018 34.1358 62.02 33.8401L62 32.66Z" fill="url(#paint4_linear_8292:14633)"/>
<defs>
<linearGradient id="paint0_linear_8292:14633" x1="1" y1="32" x2="31" y2="32" gradientUnits="userSpaceOnUse">
<stop stop-color="#F2F2F2"/>
<stop offset="1" stop-color="#4F4F4F"/>
</linearGradient>
<linearGradient id="paint1_linear_8292:14633" x1="6.99" y1="32.4501" x2="29" y2="32.4501" gradientUnits="userSpaceOnUse">
<stop stop-color="#CCCCCC"/>
<stop offset="1" stop-color="#F2F2F2"/>
</linearGradient>
<linearGradient id="paint2_linear_8292:14633" x1="6" y1="35.11" x2="29" y2="35.11" gradientUnits="userSpaceOnUse">
<stop stop-color="#4D4D4D"/>
<stop offset="0.16" stop-color="#808080"/>
<stop offset="1" stop-color="#B3B3B3"/>
</linearGradient>
<linearGradient id="paint3_linear_8292:14633" x1="-17750.1" y1="-31225.2" x2="-17211.2" y2="-31225.2" gradientUnits="userSpaceOnUse">
<stop stop-color="#CCCCCC"/>
<stop offset="1" stop-color="#F2F2F2"/>
</linearGradient>
<linearGradient id="paint4_linear_8292:14633" x1="-23053.4" y1="-16047.6" x2="-22152.8" y2="-16047.6" gradientUnits="userSpaceOnUse">
<stop stop-color="#4D4D4D"/>
<stop offset="0.16" stop-color="#808080"/>
<stop offset="1" stop-color="#B3B3B3"/>
</linearGradient>
</defs>
</svg>
