<?xml version="1.0" encoding="utf-8"?>
<!-- Generator: Adobe Illustrator 24.3.0, SVG Export Plug-In . SVG Version: 6.00 Build 0)  -->
<svg version="1.1" id="ModularSynthPresetBank_x5F_64_-_UPLOAD"
	 xmlns="http://www.w3.org/2000/svg" xmlns:xlink="http://www.w3.org/1999/xlink" x="0px" y="0px" viewBox="0 0 64 64"
	 style="enable-background:new 0 0 64 64;" xml:space="preserve">
<style type="text/css">
	.st0{fill:none;}
	.st1{fill:#FFFFFF;}
</style>
<g>
	<rect x="0" class="st0" width="64" height="64"/>
	<g>
		<path class="st1" d="M9.1,32.8l8.8-0.3l0.1,0l0.1,0.1l1,0.9l-0.5,0.1l1.5-4.8l0.6-1.8l0.3,1.9l2,12.8l-1.6,0
			c0.5-4.3,0.8-8.5,1.4-12.8l1.7-12.7l1.1-8.8l0.8,8.8l3.3,34.4l-2,0L31,11.7l2,0l3.3,41.9l-2,0l3.3-35.9l0.9-9.4l1.1,9.3l3.3,26.9
			l-2,0l1.6-12c0.5-4,1.1-8,1.6-12l0.9-6.9l1.2,6.8c0.3,1.7,0.5,3.5,0.7,5.3l0.7,5.3l1.4,10.5l-1,0l2-11.9l0.1-0.6l0.3,0.5l1.5,3
			l-0.1-0.1l3.3,0.1l-3.3,0.1l-0.1,0l0-0.1l-1.7-2.9l0.4-0.1l-1.3,12l-0.4,3.6l-0.7-3.6l-1.9-10.4l-1-5.2c-0.3-1.7-0.6-3.5-0.9-5.2
			l2,0c-0.6,4-1.1,8-1.7,12l-1.6,12l-1,7.7l-0.9-7.7l-3.3-26.9l2,0l-3.3,35.9l-2,0L31,11.9l2,0l-3.3,38.9l-2,0l-3.3-34.4l2,0
			l-1.6,12.7c-0.5,4.2-1.2,8.5-1.9,12.7L22,48.1l-0.6-6.2l-1.3-12.9L21,29l-1.8,4.7L19,34.2l-0.3-0.3l-1-0.9l0.2,0.1L9.1,32.8z"/>
	</g>
</g>
</svg>
