<svg width="16" height="16" viewBox="0 0 16 16" fill="none" xmlns="http://www.w3.org/2000/svg">
<g clip-path="url(#clip0_9540_28176)">
<path opacity="0.5" d="M4.5 0.360352C3.43913 0.360352 2.42172 0.781593 1.67157 1.53174C0.921424 2.28188 0.5 3.29949 0.5 4.36035C0.5 6.57035 2.68 7.64024 4.5 12.0002C6.32 7.64024 8.5 6.57035 8.5 4.36035C8.5 3.29949 8.07858 2.28188 7.32843 1.53174C6.57828 0.781593 5.56087 0.360352 4.5 0.360352ZM4.5 6.18018C4.14004 6.18018 3.78816 6.07352 3.48886 5.87354C3.18956 5.67355 2.95629 5.3892 2.81854 5.05664C2.68079 4.72408 2.64475 4.35817 2.71497 4.00513C2.7852 3.65208 2.95853 3.32777 3.21307 3.07324C3.4676 2.81871 3.79189 2.64542 4.14494 2.5752C4.49798 2.50497 4.86393 2.54096 5.19649 2.67871C5.52905 2.81646 5.81329 3.04982 6.01328 3.34912C6.21326 3.64842 6.32 4.00039 6.32 4.36035C6.32 4.84305 6.12825 5.3059 5.78693 5.64722C5.44562 5.98853 4.98269 6.18018 4.5 6.18018Z" fill="white"/>
<path d="M9.77982 13.6694L8.87982 14.5696C8.82682 14.6231 8.76374 14.6656 8.69423 14.6946C8.62471 14.7236 8.55014 14.7385 8.47482 14.7385C8.3995 14.7385 8.32493 14.7236 8.25542 14.6946C8.1859 14.6656 8.12282 14.6231 8.06982 14.5696L7.39983 13.8994C7.34631 13.8464 7.30383 13.7834 7.27483 13.7139C7.24584 13.6444 7.23092 13.5699 7.23092 13.4946C7.23092 13.4193 7.24584 13.3447 7.27483 13.2751C7.30383 13.2056 7.34631 13.1426 7.39983 13.0896L8.29983 12.1895L9.48982 11.0095C9.28413 10.8243 9.01416 10.7268 8.7376 10.738C8.46105 10.7492 8.19985 10.8683 8.00983 11.0696L6.28983 12.7896C6.0968 12.9875 5.98877 13.2531 5.98877 13.5295C5.98877 13.806 6.0968 14.0716 6.28983 14.2695L7.71983 15.6995C7.91779 15.8925 8.18333 16.0005 8.45982 16.0005C8.73631 16.0005 9.00186 15.8925 9.19982 15.6995L10.9198 13.9795C11.0246 13.8857 11.1084 13.7709 11.1657 13.6426C11.2231 13.5142 11.2528 13.3752 11.2528 13.2346C11.2528 13.094 11.2231 12.9548 11.1657 12.8264C11.1084 12.698 11.0246 12.5833 10.9198 12.4895L9.79983 13.6196L9.77982 13.6694ZM14.2898 6.27954C14.0919 6.08652 13.8263 5.97852 13.5498 5.97852C13.2733 5.97852 13.0078 6.08652 12.8098 6.27954L10.9998 8.09961C10.7992 8.28791 10.6805 8.54736 10.6693 8.82227C10.6581 9.09717 10.7552 9.36555 10.9398 9.56958L12.1298 8.3894L13.1298 7.3894C13.1828 7.33589 13.2459 7.2934 13.3154 7.2644C13.3849 7.23541 13.4595 7.2207 13.5348 7.2207C13.6101 7.2207 13.6847 7.23541 13.7542 7.2644C13.8237 7.2934 13.8868 7.33589 13.9398 7.3894L14.6098 8.05957C14.6633 8.11257 14.7058 8.1756 14.7348 8.24512C14.7638 8.31463 14.7787 8.38928 14.7787 8.4646C14.7787 8.53992 14.7638 8.61432 14.7348 8.68384C14.7058 8.75335 14.6633 8.81663 14.6098 8.86963L13.6598 9.81958L13.5798 9.86963L12.4598 10.9995C12.6642 11.186 12.9335 11.2852 13.21 11.2759C13.4865 11.2665 13.7485 11.1493 13.9398 10.9495L15.7098 9.17944C15.9028 8.98148 16.0109 8.71594 16.0109 8.43945C16.0109 8.16296 15.9028 7.89743 15.7098 7.69946L14.2898 6.27954ZM8.99982 12.9995C9.15982 13.1495 9.34982 13.2194 9.66982 12.8994L12.9098 9.65942C13.2298 9.33942 13.1698 9.1395 13.0098 8.9895C12.8498 8.8395 12.6598 8.7696 12.3398 9.0896L9.09982 12.3296C8.78982 12.6196 8.84982 12.8195 8.99982 12.9995Z" fill="white"/>
</g>
<defs>
<clipPath id="clip0_9540_28176">
<rect width="16" height="16" fill="white"/>
</clipPath>
</defs>
</svg>
