<svg width="64" height="64" viewBox="0 0 64 64" fill="none" xmlns="http://www.w3.org/2000/svg">
<path d="M23.1 4.7002C14.1733 4.7002 7 12.3517 7 21.7566C7 23.1913 7.15941 24.6259 7.47822 25.9012C7.63762 26.3794 7.79703 27.1764 8.27525 28.2923C8.43465 28.7705 8.75346 29.2487 8.91287 29.8863C10.6663 33.5527 14.6515 40.0883 23.1 50.9279C31.5485 40.0883 35.5337 33.5527 37.2871 29.8863C37.6059 29.4081 37.7653 28.9299 37.9248 28.2923C38.403 27.1764 38.5624 26.3794 38.7218 25.9012C39.0406 24.6259 39.2 23.1913 39.2 21.7566C39.0406 12.3517 31.8673 4.7002 23.1 4.7002ZM23.1 28.1329C18.796 28.1329 15.2891 24.6259 15.2891 20.322C15.2891 16.018 18.796 12.5111 23.1 12.5111C27.404 12.5111 30.9109 16.018 30.9109 20.322C30.7515 24.6259 27.404 28.1329 23.1 28.1329Z" fill="url(#paint0_linear_9539_28041)"/>
<path d="M52.5058 44.5908L42.092 55.0045C40.0533 57.0432 36.7473 57.0432 34.7086 55.0045L33.221 53.5169C31.1823 51.4782 31.1823 48.1722 33.221 46.1335L43.6347 35.7197C45.6734 33.6811 48.9794 33.6811 51.0181 35.7197L52.5058 37.2074C54.5444 39.2461 54.5444 42.5521 52.5058 44.5908Z" fill="#5B5B5B"/>
<path d="M40.8236 56.0514C38.6196 58.2553 34.9279 58.09 32.6137 55.7759C30.2996 53.4617 30.1343 49.77 32.3383 47.566L38.0135 41.8908L37.7931 43.103C37.6278 44.0397 37.6829 44.9764 37.9584 45.9131L38.0686 46.1335L34.4871 49.7149C33.4402 50.7618 33.4953 52.5801 34.6524 53.7372C35.8095 54.8943 37.6278 54.9494 38.6747 53.9025L44.1295 48.4476C45.1764 47.4007 45.1213 45.5825 43.9642 44.4254C43.4683 43.9295 42.752 43.5438 42.0358 43.4887L41.3195 43.4336L41.7603 42.8826C41.8154 42.8275 41.8705 42.7724 41.9256 42.7173L43.7438 40.899L43.9642 41.0092C44.7356 41.3398 45.3968 41.7806 46.0029 42.3867C48.3722 44.756 48.4824 48.3925 46.2784 50.5965L40.8236 56.0514Z" fill="url(#paint1_linear_9539_28041)"/>
<path d="M37.4623 42.9932C37.297 43.9299 37.3521 44.9768 37.6827 45.9686L34.2665 49.3847C33.0543 50.5969 33.1094 52.6356 34.4318 53.958C35.7542 55.2804 37.7929 55.3355 39.0051 54.1233L44.4599 48.6684C45.6721 47.4563 45.617 45.4176 44.2946 44.0952C43.6885 43.4891 42.9171 43.1585 42.1458 43.0483C42.2009 42.9932 42.2559 42.9381 42.311 42.883L43.9089 41.2851C44.6252 41.5606 45.2864 42.0014 45.8374 42.5524C48.0414 44.7564 48.1516 48.1725 46.1129 50.2112L40.6581 55.6661C38.6194 57.7047 35.2032 57.5946 32.9992 55.3906C30.7953 53.1866 30.6851 49.7704 32.7237 47.7318L37.4623 42.9932ZM38.6194 40.7341L36.9113 42.4422L32.1177 47.2359C29.8035 49.55 29.9137 53.5172 32.3932 55.9967C34.8726 58.4761 38.8398 58.5863 41.154 56.2722L46.6088 50.8173C48.923 48.5031 48.8128 44.536 46.3333 42.0565C45.7272 41.4504 45.0109 40.9545 44.1844 40.5688L43.6885 40.4035L43.3028 40.7892L41.705 42.3871C41.6499 42.4422 41.5948 42.4973 41.4846 42.6075L40.5479 43.7646L41.9805 43.8748C42.5865 43.9299 43.1926 44.2054 43.6885 44.7013C44.6803 45.6931 44.7354 47.291 43.8538 48.1725L38.399 53.6274C37.4623 54.5641 35.9195 54.4539 34.9277 53.4621C33.9359 52.4703 33.8808 50.8724 34.7624 49.9908L38.1786 46.5747L38.5092 46.2441L38.399 45.8033C38.1235 44.9768 38.0684 44.0401 38.2337 43.2136L38.6194 40.7341Z" fill="#5B5B5B"/>
<path d="M47.8203 49.0529L48.0407 47.8407C48.206 46.904 48.1509 45.9673 47.8754 45.0306L47.7652 44.8102L51.4568 41.1185C52.5037 40.0716 52.4486 38.2534 51.2915 37.0963C50.1344 35.9392 48.3162 35.8841 47.2693 36.931L41.8144 42.3858C40.7675 43.4327 40.8226 45.251 41.9797 46.4081C42.4756 46.904 43.1368 47.2346 43.8531 47.2897L44.5143 47.3999L44.1837 47.9509C44.0735 48.0611 44.0184 48.2264 43.9633 48.2815L42.3103 49.9344L42.0899 49.8242C41.3185 49.4936 40.6573 49.0529 40.0512 48.4468C37.682 46.0775 37.5718 42.4409 39.7758 40.2369L45.2306 34.7821C47.4346 32.5781 51.1262 32.7434 53.4404 35.0576C55.7546 37.3718 55.9199 41.0634 53.7159 43.2674L47.8754 49.108L47.8203 49.0529Z" fill="url(#paint2_linear_9539_28041)"/>
<path d="M45.3964 35.0586C47.4351 33.0199 50.8513 33.1301 53.0553 35.3341C55.2592 37.538 55.3694 40.9542 53.3308 42.9929L48.4269 47.8967C48.5922 46.96 48.5371 45.9132 48.2065 44.9214L51.7329 41.395C52.9451 40.1828 52.89 38.1441 51.5676 36.8218C50.2452 35.4994 48.2065 35.4443 46.9943 36.6565L41.5395 42.1113C40.3273 43.3235 40.3824 45.3622 41.7048 46.6846C42.3109 47.2906 43.0823 47.6212 43.8537 47.7314C43.7986 47.7865 43.6884 47.8967 43.6333 47.9518L42.1456 49.4395C41.4293 49.164 40.7681 48.7232 40.2171 48.1722C38.0131 45.9683 37.9029 42.5521 39.9416 40.5134L45.3964 35.0586ZM44.8454 34.5076L39.3906 39.9624C37.0764 42.2766 37.1866 46.2438 39.6661 48.7232C40.2722 49.3293 40.9885 49.8252 41.815 50.2109L42.3109 50.3762L42.6966 49.9905L44.1843 48.5028C44.2945 48.3926 44.4047 48.2824 44.4598 48.1171L45.2311 47.0151L43.9088 46.9049C43.3027 46.8498 42.6966 46.5744 42.2558 46.1336C41.264 45.1418 41.2089 43.5439 42.0905 42.6623L47.5453 37.2074C48.482 36.2708 50.0248 36.381 51.0166 37.3727C52.0084 38.3645 52.0635 39.9624 51.1819 40.844L47.6555 44.3704L47.3249 44.701L47.4351 45.1418C47.7106 45.9683 47.7657 46.9049 47.6004 47.7314L47.2147 50.1007L48.9228 48.3926L53.8267 43.4888C56.1408 41.1746 56.0306 37.2074 53.5512 34.728C51.1268 32.3036 47.2147 32.1383 44.8454 34.5076Z" fill="#5B5B5B"/>
<defs>
<linearGradient id="paint0_linear_9539_28041" x1="23.2148" y1="6.08575" x2="22.8984" y2="49.2846" gradientUnits="userSpaceOnUse">
<stop stop-color="#999999"/>
<stop offset="1" stop-color="#666666"/>
</linearGradient>
<linearGradient id="paint1_linear_9539_28041" x1="30.7941" y1="49.2484" x2="47.8876" y2="49.2484" gradientUnits="userSpaceOnUse">
<stop stop-color="#E6E6E6"/>
<stop offset="1" stop-color="#B3B3B3"/>
</linearGradient>
<linearGradient id="paint2_linear_9539_28041" x1="38.1051" y1="41.5588" x2="55.1984" y2="41.5589" gradientUnits="userSpaceOnUse">
<stop stop-color="#E6E6E6"/>
<stop offset="1" stop-color="#B3B3B3"/>
</linearGradient>
</defs>
</svg>
