<svg width="16" height="16" viewBox="0 0 16 16" fill="none" xmlns="http://www.w3.org/2000/svg">
<path fill-rule="evenodd" clip-rule="evenodd" d="M16 8L12.5 12.2L8.9 8H11.3C11.3 4.1 11.4 1 7 0C12.7 0 13.6 3.9 13.6 8H16Z" fill="white"/>
<path opacity="0.5" fill-rule="evenodd" clip-rule="evenodd" d="M7.30015 0C7.50015 0 9.00015 0.600098 9.50015 1.1001C8.20015 0.800098 6.20015 0.400049 5.10015 1.30005C4.00015 2.20005 3.40015 3.3001 3.30015 5.1001C3.30015 5.1001 3.00015 2.5 4.60015 1C5.20015 0.4 6.20015 0 7.30015 0Z" fill="white"/>
<path d="M12.5 15.6997C14.1569 15.6997 15.5 15.1625 15.5 14.4998C15.5 13.837 14.1569 13.2998 12.5 13.2998C10.8431 13.2998 9.5 13.837 9.5 14.4998C9.5 15.1625 10.8431 15.6997 12.5 15.6997Z" fill="white"/>
<path opacity="0.5" d="M3.5001 6C1.6001 6 0.100098 7.4999 0.100098 9.3999C0.100098 11.2999 2.0001 12.2 3.5001 16C5.1001 12.2 6.9001 11.2999 6.9001 9.3999C6.9001 7.4999 5.4001 6 3.5001 6ZM3.5001 11C2.6001 11 1.9001 10.2999 1.9001 9.3999C1.9001 8.4999 2.6001 7.80005 3.5001 7.80005C4.4001 7.80005 5.1001 8.4999 5.1001 9.3999C5.1001 10.2999 4.4001 11 3.5001 11Z" fill="white"/>
</svg>
