<svg width="16" height="16" viewBox="0 0 16 16" fill="none" xmlns="http://www.w3.org/2000/svg">
<path d="M9 8.9002V7.2002L15 4.7002V6.4002L9 8.9002Z" fill="white" fill-opacity="0.5"/>
<path fill-rule="evenodd" clip-rule="evenodd" d="M1 4.5002V2.7002L9 7.2002V8.9002L1 4.5002Z" fill="white"/>
<path d="M9 12.5002V10.7002L15 8.2002V9.9002L9 12.5002Z" fill="white" fill-opacity="0.5"/>
<path fill-rule="evenodd" clip-rule="evenodd" d="M1 8.0002V6.2002L9 10.7002V12.5002L1 8.0002Z" fill="white"/>
<path d="M9 16.0002V14.2002L15 11.7002V13.4002L9 16.0002Z" fill="white" fill-opacity="0.5"/>
<path fill-rule="evenodd" clip-rule="evenodd" d="M1 11.5998V9.7998L9 14.1998V15.9998L1 11.5998Z" fill="white"/>
<path d="M7.2998 0.5L2.2998 2.4L8.7998 6L13.7998 3.9L7.2998 0.5Z" fill="white" fill-opacity="0.5"/>
</svg>
