<?xml version="1.0" encoding="utf-8"?>
<!-- Generator: Adobe Illustrator 25.0.0, SVG Export Plug-In . SVG Version: 6.00 Build 0)  -->
<svg version="1.1" id="ObjectLibrary_x5F_64" xmlns="http://www.w3.org/2000/svg" xmlns:xlink="http://www.w3.org/1999/xlink"
	 x="0px" y="0px" viewBox="0 0 64 64" style="enable-background:new 0 0 64 64;" xml:space="preserve">
<style type="text/css">
	.st0{fill:url(#SVGID_1_);}
	.st1{fill-rule:evenodd;clip-rule:evenodd;fill:url(#SVGID_2_);}
	.st2{fill-rule:evenodd;clip-rule:evenodd;fill:url(#SVGID_3_);}
	.st3{fill:url(#SVGID_4_);}
	.st4{fill-rule:evenodd;clip-rule:evenodd;fill:url(#SVGID_5_);}
	.st5{fill-rule:evenodd;clip-rule:evenodd;fill:url(#SVGID_6_);}
	.st6{fill:url(#SVGID_7_);}
	.st7{fill-rule:evenodd;clip-rule:evenodd;fill:url(#SVGID_8_);}
	.st8{fill-rule:evenodd;clip-rule:evenodd;fill:url(#SVGID_9_);}
	.st9{fill:url(#SVGID_10_);}
	.st10{fill:none;}
</style>
<g>
	<g>
		<linearGradient id="SVGID_1_" gradientUnits="userSpaceOnUse" x1="50.6477" y1="28.5106" x2="14.5753" y2="45.9951">
			<stop  offset="0" style="stop-color:#4D4D4D"/>
			<stop  offset="1" style="stop-color:#4D4D4D"/>
		</linearGradient>
		<polygon class="st0" points="8.9,34.2 36,48.8 56.4,40.3 28.4,27.2 		"/>
		<linearGradient id="SVGID_2_" gradientUnits="userSpaceOnUse" x1="36.0375" y1="44.4696" x2="8.8337" y2="44.3786">
			<stop  offset="0" style="stop-color:#999999"/>
			<stop  offset="1" style="stop-color:#F2F2F2"/>
		</linearGradient>
		<path class="st1" d="M8.9,39.7v-5.5L36,48.8v5.9L8.9,39.7z"/>
		<linearGradient id="SVGID_3_" gradientUnits="userSpaceOnUse" x1="56.3918" y1="42.1784" x2="34.1335" y2="52.9672">
			<stop  offset="0" style="stop-color:#666666"/>
			<stop  offset="1" style="stop-color:#999999"/>
		</linearGradient>
		<path class="st2" d="M36,54.6v-5.9l20.4-8.5v5.2L36,54.6z"/>
	</g>
	<g>
		<linearGradient id="SVGID_4_" gradientUnits="userSpaceOnUse" x1="50.6477" y1="19.6919" x2="14.5753" y2="37.1764">
			<stop  offset="0" style="stop-color:#4D4D4D"/>
			<stop  offset="1" style="stop-color:#4D4D4D"/>
		</linearGradient>
		<polygon class="st3" points="8.9,25.4 36,39.9 56.4,31.5 28.4,18.4 		"/>
		<linearGradient id="SVGID_5_" gradientUnits="userSpaceOnUse" x1="36.0375" y1="35.6509" x2="8.8337" y2="35.5599">
			<stop  offset="0" style="stop-color:#999999"/>
			<stop  offset="1" style="stop-color:#F2F2F2"/>
		</linearGradient>
		<path class="st4" d="M8.9,30.9v-5.5L36,39.9v5.9L8.9,30.9z"/>
		<linearGradient id="SVGID_6_" gradientUnits="userSpaceOnUse" x1="56.3918" y1="33.3598" x2="34.1335" y2="44.1485">
			<stop  offset="0" style="stop-color:#666666"/>
			<stop  offset="1" style="stop-color:#999999"/>
		</linearGradient>
		<path class="st5" d="M36,45.8v-5.9l20.4-8.5v5.2L36,45.8z"/>
	</g>
	<g>
		<linearGradient id="SVGID_7_" gradientUnits="userSpaceOnUse" x1="50.6477" y1="10.7697" x2="14.5753" y2="28.2542">
			<stop  offset="0" style="stop-color:#4D4D4D"/>
			<stop  offset="1" style="stop-color:#666666"/>
		</linearGradient>
		<polygon class="st6" points="8.9,16.5 36,31 56.4,22.5 28.4,9.5 		"/>
		<linearGradient id="SVGID_8_" gradientUnits="userSpaceOnUse" x1="36.0375" y1="26.7286" x2="8.8337" y2="26.6376">
			<stop  offset="0" style="stop-color:#999999"/>
			<stop  offset="1" style="stop-color:#F2F2F2"/>
		</linearGradient>
		<path class="st7" d="M8.9,22v-5.5L36,31v5.9L8.9,22z"/>
		<linearGradient id="SVGID_9_" gradientUnits="userSpaceOnUse" x1="56.3918" y1="24.4375" x2="34.1335" y2="35.2262">
			<stop  offset="0" style="stop-color:#666666"/>
			<stop  offset="1" style="stop-color:#999999"/>
		</linearGradient>
		<path class="st8" d="M36,36.9V31l20.4-8.5v5.2L36,36.9z"/>
	</g>
	<linearGradient id="SVGID_10_" gradientUnits="userSpaceOnUse" x1="46.6405" y1="12.4127" x2="19.2915" y2="25.6689">
		<stop  offset="0" style="stop-color:#808080"/>
		<stop  offset="1" style="stop-color:#CCCCCC"/>
	</linearGradient>
	<polygon class="st9" points="15,16.7 35.5,27.8 51,21.3 29.8,11.4 	"/>
	<rect x="0" class="st10" width="64" height="64"/>
</g>
</svg>
