<?xml version="1.0" encoding="utf-8"?>
<!-- Generator: Adobe Illustrator 26.0.1, SVG Export Plug-In . SVG Version: 6.00 Build 0)  -->
<svg version="1.1" id="Layer_1" xmlns="http://www.w3.org/2000/svg" xmlns:xlink="http://www.w3.org/1999/xlink" x="0px" y="0px"
	 viewBox="0 0 16 16" style="enable-background:new 0 0 16 16;" xml:space="preserve">
<style type="text/css">
	.st0{opacity:0.5;fill:#FFFFFF;}
	.st1{opacity:0.5;}
	.st2{fill:#FFFFFF;}
	.st3{opacity:0.25;fill:#FFFFFF;}
	.st4{opacity:0.5;fill-rule:evenodd;clip-rule:evenodd;fill:#FFFFFF;enable-background:new    ;}
	.st5{opacity:0.75;}
</style>
<g>
	<path class="st0" d="M15.8,13.2l-2.7,2.7c-0.2,0.1-0.2,0-0.2-0.1V4.2c0-0.1,0-0.3,0.1-0.4l2.7-2.7C16,0.9,16,1.2,16,1.3v11.3
		C16,12.8,16,13,15.8,13.2z"/>
	<g class="st1">
		<path class="st2" d="M15.5,2v10.6c0,0.1,0,0.1-0.1,0.2l-2,2V4.2c0,0,0-0.1,0-0.1L15.5,2 M15.9,1c0,0-0.1,0-0.1,0.1L13,3.8
			c-0.1,0.1-0.1,0.3-0.1,0.4v11.5c0,0.1,0,0.2,0.1,0.2c0,0,0.1,0,0.1,0l2.7-2.7C16,13,16,12.8,16,12.6V1.3C16,1.2,16,1,15.9,1
			L15.9,1z"/>
	</g>
</g>
<g>
	<path class="st3" d="M12.2,3.6H0.8c-0.1,0-0.5,0-0.2-0.2l2.6-2.6c0.2-0.2,0.3-0.2,0.4-0.2h11.9c0.2,0,0.2,0,0,0.2l-2.7,2.7
		C12.6,3.6,12.4,3.6,12.2,3.6z"/>
	<g class="st1">
		<path class="st2" d="M14.5,1l-2.1,2.1c0,0,0,0-0.1,0l-0.1,0c0,0-0.1,0-0.1,0l-10.7,0l2-2C3.5,1,3.6,1,3.6,1H14.5 M15.5,0.5H3.5
			c-0.1,0-0.2,0.1-0.4,0.2L0.5,3.3c-0.2,0.2,0,0.2,0.1,0.2c0,0,0.1,0,0.1,0h11.5c0,0,0.1,0,0.1,0c0.1,0,0.3,0,0.5-0.2l2.7-2.7
			C15.7,0.5,15.7,0.5,15.5,0.5L15.5,0.5z"/>
	</g>
</g>
<g>
	<path class="st2" d="M11.4,5v10h-10V5H11.4 M12.2,4H0.7C0.6,4,0.4,4.1,0.4,4.2v11.5c0,0.1,0.1,0.2,0.2,0.2h11.5
		c0.1,0,0.2-0.1,0.2-0.2V4.2C12.4,4.1,12.3,4,12.2,4L12.2,4z"/>
</g>
<g>
	<polygon class="st2" points="7.6,4 5.4,4 5.4,6.8 6.2,6.5 6.9,6.9 7.6,6.8 	"/>
</g>
<path class="st4" d="M10.2,13.2l-0.8-2.6l1.3,2.6v1.1H2.2v-1.1l1.3-2.7l-0.8,2.7H10.2z"/>
<path class="st2" d="M6.7,11.9L5.4,7.4l-1.6,5.3h5.3L7.8,9.3L6.7,11.9z"/>
<g class="st5">
	<polygon class="st2" points="6,3.3 8.5,0.7 10,0.7 7.5,3.3 	"/>
	<path class="st2" d="M9.4,1L7.4,3.1H6.6L8.6,1H9.4 M10.6,0.5H8.4l-3,3.1h2.2L10.6,0.5L10.6,0.5z"/>
</g>
</svg>
