<svg width="16" height="16" viewBox="0 0 16 16" fill="none" xmlns="http://www.w3.org/2000/svg">
<path opacity="0.5" d="M7.4999 11.3998V8.2998H4.4999V11.3998C4.4999 13.0998 3.0999 14.4998 1.3999 14.4998H10.6999C8.8999 14.4998 7.4999 13.0998 7.4999 11.3998Z" fill="white"/>
<path d="M8.2999 9.79922H3.6999C3.1999 9.79922 2.8999 9.49922 2.8999 8.99922C2.8999 8.59922 3.1999 8.19922 3.6999 8.19922H8.2999C8.6999 8.19922 9.0999 8.49922 9.0999 8.99922C9.0999 9.49922 8.7999 9.79922 8.2999 9.79922Z" fill="white"/>
<path d="M10.5999 16H1.3999V15.5C1.3999 14.9 1.7999 14.5 2.3999 14.5H9.6999C10.2999 14.5 10.6999 14.9 10.6999 15.5V16H10.5999Z" fill="white"/>
<path d="M6.0001 7.8C7.04944 7.8 7.9001 6.94934 7.9001 5.9C7.9001 4.85066 7.04944 4 6.0001 4C4.95076 4 4.1001 4.85066 4.1001 5.9C4.1001 6.94934 4.95076 7.8 6.0001 7.8Z" fill="white"/>
<path d="M14.7999 6.89961L14.6999 4.59961L9.8999 6.49961L14.7999 6.89961Z" fill="white"/>
<path d="M14.0999 1.59922L12.3999 0.199219L9.3999 4.19922L14.0999 1.59922Z" fill="white"/>
<path d="M13.9002 11.7996L14.9002 9.79961L10.2002 8.59961L13.9002 11.7996Z" fill="white"/>
</svg>
