<?xml version="1.0" encoding="utf-8"?>
<!-- Generator: Adobe Illustrator 25.0.0, SVG Export Plug-In . SVG Version: 6.00 Build 0)  -->
<svg version="1.1" id="PawnNoiseEmitterComponent_x5F_64"
	 xmlns="http://www.w3.org/2000/svg" xmlns:xlink="http://www.w3.org/1999/xlink" x="0px" y="0px" viewBox="0 0 64 64"
	 style="enable-background:new 0 0 64 64;" xml:space="preserve">
<style type="text/css">
	.st0{fill:url(#SVGID_1_);enable-background:new    ;}
	.st1{fill:url(#SVGID_2_);}
	.st2{fill:url(#SVGID_3_);}
	.st3{fill:none;stroke:url(#SVGID_4_);stroke-miterlimit:10;}
	.st4{fill:none;stroke:url(#SVGID_5_);stroke-miterlimit:10;}
	.st5{fill:url(#SVGID_6_);}
	.st6{fill:url(#SVGID_7_);}
	.st7{fill:url(#SVGID_8_);}
	.st8{fill:url(#SVGID_9_);}
	.st9{fill:none;}
</style>
<g>
	<linearGradient id="SVGID_1_" gradientUnits="userSpaceOnUse" x1="26.1133" y1="27.9776" x2="26.1133" y2="52.3647">
		<stop  offset="0.2807" style="stop-color:#242424"/>
		<stop  offset="0.3899" style="stop-color:#595959"/>
		<stop  offset="1" style="stop-color:#8A8A8A"/>
	</linearGradient>
	<path class="st0" d="M32.2,40.2V28H20v12.2c0,6.7-3,12.2-9.7,12.2h31.7C35.2,52.4,32.2,46.9,32.2,40.2z"/>
	<linearGradient id="SVGID_2_" gradientUnits="userSpaceOnUse" x1="26.1133" y1="27.3028" x2="26.1133" y2="33.5378">
		<stop  offset="0" style="stop-color:#FFFFFF"/>
		<stop  offset="0.8342" style="stop-color:#808080"/>
		<stop  offset="1" style="stop-color:#4A4A4A"/>
	</linearGradient>
	<path class="st1" d="M35.3,34.1H17c-1.8,0-3-1.2-3-3c0-1.8,1.2-3,3-3h18.3c1.8,0,3,1.2,3,3C38.3,32.9,37.1,34.1,35.3,34.1z"/>
	<linearGradient id="SVGID_3_" gradientUnits="userSpaceOnUse" x1="26.1133" y1="52.3647" x2="26.1133" y2="58.4615">
		<stop  offset="0" style="stop-color:#BFBFBF"/>
		<stop  offset="0.7005" style="stop-color:#808080"/>
		<stop  offset="1" style="stop-color:#333333"/>
	</linearGradient>
	<path class="st2" d="M44.4,58.5H7.8v-3c0-1.8,1.2-3,3-3h30.5c1.8,0,3,1.2,3,3V58.5z"/>
	
		<linearGradient id="SVGID_4_" gradientUnits="userSpaceOnUse" x1="-102.9656" y1="52.894" x2="-76.2467" y2="52.894" gradientTransform="matrix(1.2776 0 0 1 140.4942 0)">
		<stop  offset="0" style="stop-color:#E6E6E6;stop-opacity:0"/>
		<stop  offset="0.508" style="stop-color:#FFFFFF"/>
		<stop  offset="1" style="stop-color:#FFFFFF;stop-opacity:0"/>
	</linearGradient>
	<line class="st3" x1="8.9" y1="52.9" x2="43.1" y2="52.9"/>
	
		<linearGradient id="SVGID_5_" gradientUnits="userSpaceOnUse" x1="-97.0398" y1="28.3738" x2="-81.6395" y2="28.3738" gradientTransform="matrix(1.2776 0 0 1 140.4942 0)">
		<stop  offset="0" style="stop-color:#E6E6E6;stop-opacity:0"/>
		<stop  offset="0.508" style="stop-color:#FFFFFF"/>
		<stop  offset="1" style="stop-color:#FFFFFF;stop-opacity:0"/>
	</linearGradient>
	<line class="st4" x1="16.5" y1="28.4" x2="36.2" y2="28.4"/>
	<linearGradient id="SVGID_6_" gradientUnits="userSpaceOnUse" x1="40.2309" y1="18.2968" x2="58.3606" y2="18.2968">
		<stop  offset="0" style="stop-color:#F2F2F2"/>
		<stop  offset="1" style="stop-color:#F2F2F2;stop-opacity:0"/>
	</linearGradient>
	<polygon class="st5" points="38.3,18.4 55.4,15.2 55.4,21.3 	"/>
	<linearGradient id="SVGID_7_" gradientUnits="userSpaceOnUse" x1="38.0806" y1="15.7671" x2="55.2476" y2="3.5737">
		<stop  offset="0" style="stop-color:#F2F2F2"/>
		<stop  offset="0.9978" style="stop-color:#F2F2F2;stop-opacity:0"/>
	</linearGradient>
	<polygon class="st6" points="37.9,15.4 50.4,3.3 53.8,8.4 	"/>
	<linearGradient id="SVGID_8_" gradientUnits="userSpaceOnUse" x1="37.8879" y1="20.8684" x2="55.1352" y2="32.9014">
		<stop  offset="0" style="stop-color:#F2F2F2"/>
		<stop  offset="1" style="stop-color:#F2F2F2;stop-opacity:0"/>
	</linearGradient>
	<polygon class="st7" points="37.9,21.2 50.4,33.3 53.8,28.2 	"/>
	<radialGradient id="SVGID_9_" cx="28.1483" cy="15.5016" r="11.1529" gradientUnits="userSpaceOnUse">
		<stop  offset="0" style="stop-color:#FFFFFF"/>
		<stop  offset="0.2421" style="stop-color:#CCCCCC"/>
		<stop  offset="0.6136" style="stop-color:#838383"/>
		<stop  offset="0.7861" style="stop-color:#666666"/>
		<stop  offset="1" style="stop-color:#808080"/>
	</radialGradient>
	<path class="st8" d="M26.4,26.7c4.3,0,7.8-3.5,7.8-7.8S30.7,11,26.4,11s-7.8,3.5-7.8,7.8S22,26.7,26.4,26.7z"/>
	<rect x="0" class="st9" width="64" height="64"/>
</g>
</svg>
