<svg width="16" height="16" viewBox="0 0 16 16" fill="none" xmlns="http://www.w3.org/2000/svg">
<path opacity="0.5" d="M9.4999 10.3998V7.2998H6.4999V10.3998C6.4999 12.0998 5.0999 13.4998 3.3999 13.4998H12.6999C10.8999 13.4998 9.4999 12.0998 9.4999 10.3998Z" fill="white"/>
<path d="M10.2999 8.79922H5.6999C5.1999 8.79922 4.8999 8.49922 4.8999 7.99922C4.8999 7.59922 5.1999 7.19922 5.6999 7.19922H10.2999C10.6999 7.19922 11.0999 7.49922 11.0999 7.99922C11.0999 8.49922 10.7999 8.79922 10.2999 8.79922Z" fill="white"/>
<path d="M12.5999 15H3.3999V14.5C3.3999 13.9 3.7999 13.5 4.3999 13.5H11.6999C12.2999 13.5 12.6999 13.9 12.6999 14.5V15H12.5999Z" fill="white"/>
<path d="M7.99961 6.8C9.04895 6.8 9.89961 5.94934 9.89961 4.9C9.89961 3.85066 9.04895 3 7.99961 3C6.95027 3 6.09961 3.85066 6.09961 4.9C6.09961 5.94934 6.95027 6.8 7.99961 6.8Z" fill="white"/>
<path opacity="0.5" d="M13.8001 6C13.8001 7.6 13.1001 9.1 12.1001 10.2L12.9001 11C14.2001 9.7 15.0001 8 15.0001 6C15.0001 4 14.2001 2.3 12.9001 1L12.1001 1.8C13.2001 2.9 13.8001 4.4 13.8001 6Z" fill="white"/>
<path opacity="0.5" d="M2.2 6C2.2 7.6 2.9 9.1 3.9 10.2L3.1 11C1.8 9.7 1 8 1 6C1 4 1.8 2.3 3.1 1L3.9 1.8C2.8 2.9 2.2 4.4 2.2 6Z" fill="white"/>
</svg>
