<svg width="16" height="16" viewBox="0 0 16 16" fill="none" xmlns="http://www.w3.org/2000/svg">
<path opacity="0.5" d="M10 10V6H6V10C6 12.2 4.2 14 2 14H14C11.8 14 10 12.2 10 10Z" fill="white"/>
<path d="M11 8H5C4.4 8 4 7.6 4 7C4 6.4 4.4 6 5 6H11C11.6 6 12 6.4 12 7C12 7.6 11.6 8 11 8Z" fill="white"/>
<path d="M14 16H2V15C2 14.4 2.4 14 3 14H13C13.6 14 14 14.4 14 15V16Z" fill="white"/>
<path d="M8 5.5C9.38071 5.5 10.5 4.38071 10.5 3C10.5 1.61929 9.38071 0.5 8 0.5C6.61929 0.5 5.5 1.61929 5.5 3C5.5 4.38071 6.61929 5.5 8 5.5Z" fill="white"/>
</svg>
