<svg width="16" height="16" viewBox="0 0 16 16" fill="none" xmlns="http://www.w3.org/2000/svg">
<path opacity="0.5" d="M13.2002 7.4998C13.2002 6.9998 13.1002 6.5998 13.0002 6.1998L12.2002 6.9998C12.2002 7.1998 12.2002 7.2998 12.2002 7.4998C12.2002 10.0998 10.1002 12.2998 7.4002 12.2998C4.7002 12.2998 2.6002 10.1998 2.6002 7.4998C2.6002 4.7998 4.7002 2.6998 7.4002 2.6998C7.60019 2.6998 7.7002 2.6998 7.9002 2.6998L8.8002 1.7998C8.4002 1.7998 8.0002 1.7998 7.5002 1.7998C4.3002 1.7998 1.7002 4.3998 1.7002 7.5998C1.7002 9.89981 3.0002 11.7998 4.9002 12.7998V15.9998H8.9002V12.9998C11.4002 12.3998 13.2002 10.1998 13.2002 7.4998Z" fill="white"/>
<path fill-rule="evenodd" clip-rule="evenodd" d="M14.8 1.9002L13.1 0.200195L8.6 4.7002C8.3 4.6002 7.9 4.5002 7.5 4.5002C5.8 4.5002 4.5 5.8002 4.5 7.5002C4.5 9.2002 5.8 10.5002 7.5 10.5002C9.2 10.5002 10.5 9.2002 10.5 7.5002C10.5 7.1002 10.4 6.7002 10.3 6.4002L14.8 1.9002Z" fill="white"/>
</svg>
