<?xml version="1.0" encoding="utf-8"?>
<!-- Generator: Adobe Illustrator 24.3.0, SVG Export Plug-In . SVG Version: 6.00 Build 0)  -->
<svg version="1.1" id="PhysicsHandleComponent_x5F_64"
	 xmlns="http://www.w3.org/2000/svg" xmlns:xlink="http://www.w3.org/1999/xlink" x="0px" y="0px" viewBox="0 0 64 64"
	 style="enable-background:new 0 0 64 64;" xml:space="preserve">
<style type="text/css">
	.st0{fill:url(#SVGID_1_);}
	.st1{fill:url(#SVGID_2_);}
	.st2{fill:none;}
</style>
<g>
	<linearGradient id="SVGID_1_" gradientUnits="userSpaceOnUse" x1="29.6585" y1="32" x2="55.481" y2="32">
		<stop  offset="2.538071e-03" style="stop-color:#666666"/>
		<stop  offset="1" style="stop-color:#B3B3B3"/>
	</linearGradient>
	<path class="st0" d="M29.7,10.9v10.1c0,0.3,0,0.6,0,0.9v4.5l9.8,0c1.2,0,3.2,0.9,3.2,3.3c0,1-0.4,1.8-0.9,2.3
		c1.1,0.3,2.4,1.3,2.4,3.2c0,1.9-1.2,2.9-2.4,3.2c0.6,0.5,1,1.3,1,2.4c0,2.2-1.7,3.2-3,3.3c0.4,0.5,0.7,1.2,0.7,2.1
		c0,2.4-2,3.3-3.2,3.3h-7.6v3.7h25.8V10.9H29.7z"/>
	<g>
		<g>
			
				<linearGradient id="SVGID_2_" gradientUnits="userSpaceOnUse" x1="34.0956" y1="25.0867" x2="33.8786" y2="59.1576" gradientTransform="matrix(0 -1 -1 0 67.6465 67.6465)">
				<stop  offset="0" style="stop-color:#F2F2F2"/>
				<stop  offset="1" style="stop-color:#E6E6E6"/>
			</linearGradient>
			<path class="st1" d="M27.8,20.3c1,1.8-0.8,3.2-0.8,3.2L21,27.4c0.5,0.5,2.9,0.4,3.9,0.5h14.4c0,0,1.7,0,1.7,1.8
				c0,1.8-1.7,1.8-1.7,1.8H24.9c-0.7,0.6-0.6,1.2,0,1.9h15.9c0,0,1.7,0,1.7,1.8c0,1.8-1.7,1.8-1.7,1.8H25c-0.9,0.6-0.9,1.3,0,2h14.5
				c0,0,1.7,0,1.7,1.8c0,1.8-1.7,1.8-1.7,1.8H25c-0.9,0.6-1.1,1.2,0,1.8h12.1c0,0,1.7,0,1.7,1.8c0,1.8-1.7,1.8-1.7,1.8H24h-6.4
				c-5,0-9-4.2-9-9.4V35c0-3.9,1-5.7,5.4-8.9c0.1,0,0.1-0.1,0.2-0.1c5.5-3.2,10.9-6.4,10.9-6.4S26.7,18.8,27.8,20.3z"/>
		</g>
	</g>
	<rect x="0" class="st2" width="64" height="64"/>
</g>
</svg>
