<svg width="16" height="16" viewBox="0 0 16 16" fill="none" xmlns="http://www.w3.org/2000/svg">
<path opacity="0.5" d="M11 9.2C11 6.9 9.1 5 6.8 5C4.5 5 2.8 6.8 2.6 9.2C2.3 12.4 0 16 0 16C0 16 3.6 13.7 6.7 13.5C9.3 13.3 11 11.6 11 9.2Z" fill="white"/>
<path fill-rule="evenodd" clip-rule="evenodd" d="M9.7998 8.60078C9.7998 7.30078 8.7998 6.30078 7.4998 6.30078C6.1998 6.30078 5.2998 7.30078 5.1998 8.60078C5.0998 10.3008 3.7998 12.3008 3.7998 12.3008C3.7998 12.3008 5.7998 11.0008 7.4998 10.9008C8.7998 10.8008 9.7998 9.90078 9.7998 8.60078Z" fill="white"/>
<path d="M14.0001 6.00039L14.1001 5.90039C14.0001 3.70039 12.3001 2.00039 10.1001 1.90039L10.0001 2.00039L4.6001 2.90039C5.8001 2.80039 8.7001 2.70039 11.0001 5.00039C13.3001 7.30039 13.2001 10.2004 13.1001 11.4004L14.0001 6.00039Z" fill="white"/>
<path d="M13.2 0C12.4 0 11.6 0.3 11.1 0.9L11 1C13.2 1.1 14.9 2.8 15 5L15.1 4.9C15.7 4.3 16 3.6 16 2.8V0H13.2Z" fill="white"/>
</svg>
