<?xml version="1.0" encoding="utf-8"?>
<!-- Generator: Adobe Illustrator 25.0.0, SVG Export Plug-In . SVG Version: 6.00 Build 0)  -->
<svg version="1.1" id="PhysicsAsset_x5F_64" xmlns="http://www.w3.org/2000/svg" xmlns:xlink="http://www.w3.org/1999/xlink"
	 x="0px" y="0px" viewBox="0 0 64 64" style="enable-background:new 0 0 64 64;" xml:space="preserve">
<style type="text/css">
	.st0{fill:url(#SVGID_1_);enable-background:new    ;}
	.st1{fill:url(#SVGID_2_);}
	.st2{opacity:0.1;fill:#FFFFFF;}
	.st3{fill:none;}
</style>
<g>
	<linearGradient id="SVGID_1_" gradientUnits="userSpaceOnUse" x1="33.675" y1="13.3606" x2="32.4793" y2="21.8904">
		<stop  offset="0" style="stop-color:#999999"/>
		<stop  offset="1" style="stop-color:#666666"/>
	</linearGradient>
	<path class="st0" d="M32.5,13.5c-1.7,0.1-3.1,1.3-3.1,3.1v6.9l-4.4,1.3v-9.1c0-3.1,3.1-6.1,7.5-6.1s7.9,3.1,7.9,6.1v9.1L36,23.6
		v-6.9C36,14.8,34.7,13.4,32.5,13.5z"/>
	<radialGradient id="SVGID_2_" cx="36.5024" cy="30.9195" r="23.4401" gradientUnits="userSpaceOnUse">
		<stop  offset="0" style="stop-color:#FFFFFF"/>
		<stop  offset="0.3121" style="stop-color:#B3B3B3"/>
		<stop  offset="0.6357" style="stop-color:#6A6A6A"/>
		<stop  offset="0.7861" style="stop-color:#4D4D4D"/>
		<stop  offset="1" style="stop-color:#666666"/>
	</radialGradient>
	<path class="st1" d="M32.7,54.4c9.1,0,16.5-7.4,16.5-16.5s-7.4-16.5-16.5-16.5s-16.5,7.4-16.5,16.5S23.6,54.4,32.7,54.4z"/>
	<path class="st2" d="M32.7,54.4c9.1,0,16.5-7.4,16.5-16.5s-7.4-16.5-16.5-16.5s-16.5,7.4-16.5,16.5S23.6,54.4,32.7,54.4z"/>
	<rect x="0" class="st3" width="64" height="64"/>
</g>
</svg>
