<svg width="16" height="16" viewBox="0 0 16 16" fill="none" xmlns="http://www.w3.org/2000/svg">
<path opacity="0.5" d="M3 0L0 3H13V16L16 13V0H3Z" fill="white"/>
<path opacity="0.5" d="M7.4998 4.90002C7.0998 4.90002 6.7998 5.19998 6.7998 5.59998V6.40002L5.7998 6.70001V5.40002C5.7998 4.70002 6.4998 4 7.4998 4C8.4998 4 9.2998 4.70002 9.2998 5.40002V6.70001L8.2998 6.40002V5.59998C8.1998 5.19998 7.8998 4.90002 7.4998 4.90002Z" fill="white"/>
<path d="M7.5002 14.3002C9.59888 14.3002 11.3002 12.5989 11.3002 10.5002C11.3002 8.4015 9.59888 6.7002 7.5002 6.7002C5.40151 6.7002 3.7002 8.4015 3.7002 10.5002C3.7002 12.5989 5.40151 14.3002 7.5002 14.3002Z" fill="white"/>
<path d="M13 15H1V3H0V16H13V15Z" fill="white"/>
</svg>
