<svg width="16" height="16" viewBox="0 0 16 16" fill="none" xmlns="http://www.w3.org/2000/svg">
<path opacity="0.5" d="M7 1V6H9C9.7 6 10.5 6.6 10.5 7.5C10.5 7.9 10.4 8.2 10.1 8.5C10.3 8.7 10.5 9.1 10.5 9.5C10.5 9.9 10.4 10.3 10.1 10.5C10.3 10.7 10.5 11.1 10.5 11.5C10.5 12.4 9.8 12.9 9.1 13H7V15H15V1H7Z" fill="white"/>
<path d="M5.6 4.2998C6 4.7998 5.5 5.0998 5.5 5.0998L3.3 6.4998V6.9998H9C9 6.9998 9.5 6.9998 9.5 7.4998C9.5 7.9998 9 7.9998 9 7.9998H4.8C4.8 7.9998 4.3 8.1998 4.3 8.4998C4.3 8.7998 4.8 8.9998 4.8 8.9998H9C9 8.9998 9.5 8.9998 9.5 9.4998C9.5 9.9998 8.9 9.9998 8.9 9.9998H4.8C4.8 9.9998 4.3 10.1998 4.3 10.4998C4.3 10.7998 4.8 10.9998 4.8 10.9998H9C9 10.9998 9.5 10.9998 9.5 11.4998C9.4 11.9998 8.9 11.9998 8.9 11.9998H4.5H2C1.1 11.9998 0 11.1998 0 10.2998V8.3998C0 7.2998 0.3 6.7998 1.7 5.9998C3.2 4.9998 4.9 4.1998 4.9 4.1998C4.9 4.1998 5.3 3.8998 5.6 4.2998Z" fill="white"/>
</svg>
