<svg width="16" height="16" viewBox="0 0 16 16" fill="none" xmlns="http://www.w3.org/2000/svg">
<path opacity="0.5" d="M13.2002 7.50078C13.2002 7.00078 13.1002 6.60078 13.0002 6.20078L12.2002 7.00078C12.2002 7.20078 12.2002 7.30078 12.2002 7.50078C12.2002 10.1008 10.1002 12.3008 7.4002 12.3008C4.7002 12.3008 2.6002 10.2008 2.6002 7.50078C2.6002 4.80078 4.7002 2.70078 7.4002 2.70078C7.60019 2.70078 7.7002 2.70078 7.9002 2.70078L8.8002 1.80078C8.4002 1.80078 8.0002 1.80078 7.5002 1.80078C4.3002 1.80078 1.7002 4.40078 1.7002 7.60078C1.7002 9.90078 3.0002 11.8008 4.9002 12.8008V16.0008H8.9002V13.0008C11.4002 12.4008 13.2002 10.2008 13.2002 7.50078Z" fill="white"/>
<path fill-rule="evenodd" clip-rule="evenodd" d="M14.8 1.89922L13.1 0.199219L8.6 4.69922C8.3 4.59922 7.9 4.49922 7.5 4.49922C5.8 4.49922 4.5 5.79922 4.5 7.49922C4.5 9.19922 5.8 10.4992 7.5 10.4992C9.2 10.4992 10.5 9.19922 10.5 7.49922C10.5 7.09922 10.4 6.69922 10.3 6.39922L14.8 1.89922Z" fill="white"/>
</svg>
