<svg width="16" height="16" viewBox="0 0 16 16" fill="none" xmlns="http://www.w3.org/2000/svg">
<path d="M9 7H7V9L9 7Z" fill="white"/>
<path d="M7 11H3V11.5C2.8 11.4 2.7 11.2 2.5 11H3V7H1C1 5.5 1.6 4.1 2.5 3H3V2.5C4.1 1.6 5.5 1 7 1V3H11V2.5C11.2 2.6 11.3 2.8 11.5 3H11V5H13.7C12.8 2.1 10.2 0 7 0C3.1 0 0 3.1 0 7C0 10.9 3.1 14 7 14V13V11Z" fill="white"/>
<path d="M7 3H3V7H7V3Z" fill="white"/>
<path opacity="0.5" d="M12.4998 6.9C12.0998 6.9 11.7998 7.2 11.7998 7.5V8.2L10.7998 8.5V7.3C10.7998 6.6 11.4998 6 12.3998 6C13.2998 6 13.9998 6.7 13.9998 7.3V8.5L12.9998 8.2V7.6C13.1998 7.2 12.8998 6.9 12.4998 6.9Z" fill="white"/>
<path d="M12.5 16C14.433 16 16 14.433 16 12.5C16 10.567 14.433 9 12.5 9C10.567 9 9 10.567 9 12.5C9 14.433 10.567 16 12.5 16Z" fill="white"/>
</svg>
