<svg width="16" height="16" viewBox="0 0 16 16" fill="none" xmlns="http://www.w3.org/2000/svg">
<path opacity="0.5" d="M11 9.2C11 6.9 9.1 5 6.8 5C4.5 5 2.8 6.8 2.6 9.2C2.3 12.4 0 16 0 16C0 16 3.6 13.7 6.7 13.5C9.3 13.3 11 11.6 11 9.2Z" fill="white"/>
<path fill-rule="evenodd" clip-rule="evenodd" d="M9.7998 8.5998C9.7998 7.2998 8.7998 6.2998 7.4998 6.2998C6.1998 6.2998 5.2998 7.2998 5.1998 8.5998C5.0998 10.2998 3.7998 12.2998 3.7998 12.2998C3.7998 12.2998 5.7998 10.9998 7.4998 10.8998C8.7998 10.7998 9.7998 9.8998 9.7998 8.5998Z" fill="white"/>
<path d="M13.9996 6.00039L14.0996 5.90039C13.9996 3.70039 12.2996 2.00039 10.0996 1.90039L9.99961 2.00039L4.59961 2.90039C5.79961 2.80039 8.69961 2.70039 10.9996 5.00039C13.2996 7.30039 13.1996 10.2004 13.0996 11.4004L13.9996 6.00039Z" fill="white"/>
<path d="M13.2 0C12.4 0 11.6 0.3 11.1 0.9L11 1C13.2 1.1 14.9 2.8 15 5L15.1 4.9C15.7 4.3 16 3.6 16 2.8V0H13.2Z" fill="white"/>
</svg>
