<svg width="16" height="16" viewBox="0 0 16 16" fill="none" xmlns="http://www.w3.org/2000/svg">
<path d="M12.4 3.30005V12.7L2.6 11V5L12.4 3.30005ZM14 2L2 4.5V11.5L14 14V2Z" fill="white"/>
<path opacity="0.5" d="M10.9 11L4 9.80005V6L10.9 11Z" fill="white"/>
<path fill-rule="evenodd" clip-rule="evenodd" d="M10.9999 8.30029L6.8999 5.40027L10.9999 4.7002V8.30029Z" fill="white"/>
<path opacity="0.5" d="M1 1H4V0H0V4H1V1Z" fill="white"/>
<path opacity="0.5" d="M15 1V4H16V0H12V1H15Z" fill="white"/>
<path opacity="0.5" d="M15 15H12V16H16V12H15V15Z" fill="white"/>
<path opacity="0.5" d="M1 15V12H0V16H4V15H1Z" fill="white"/>
</svg>
