<?xml version="1.0" encoding="utf-8"?>
<!-- Generator: Adobe Illustrator 25.0.0, SVG Export Plug-In . SVG Version: 6.00 Build 0)  -->
<svg version="1.1" id="PlatformMediaSource_x5F_64" xmlns="http://www.w3.org/2000/svg" xmlns:xlink="http://www.w3.org/1999/xlink"
	 x="0px" y="0px" viewBox="0 0 64 64" style="enable-background:new 0 0 64 64;" xml:space="preserve">
<style type="text/css">
	.st0{fill:url(#SVGID_1_);}
	.st1{fill:url(#SVGID_2_);}
	.st2{fill-rule:evenodd;clip-rule:evenodd;fill:#FFFFFF;}
	.st3{fill-rule:evenodd;clip-rule:evenodd;fill:url(#SVGID_3_);}
	.st4{fill-rule:evenodd;clip-rule:evenodd;fill:url(#SVGID_4_);}
	.st5{fill-rule:evenodd;clip-rule:evenodd;fill:url(#SVGID_5_);}
	.st6{fill-rule:evenodd;clip-rule:evenodd;fill:url(#SVGID_6_);}
	.st7{fill-rule:evenodd;clip-rule:evenodd;fill:#BFBFBF;}
	.st8{fill:url(#SVGID_7_);}
	.st9{fill:url(#SVGID_8_);}
	.st10{fill:url(#SVGID_9_);}
	.st11{fill:url(#SVGID_10_);}
	.st12{fill:#FFFFFF;}
	.st13{fill:none;}
</style>
<g>
	<g>
		<linearGradient id="SVGID_1_" gradientUnits="userSpaceOnUse" x1="24.0214" y1="15.1749" x2="25.909" y2="14.0788">
			<stop  offset="0" style="stop-color:#CCCCCC"/>
			<stop  offset="0.6345" style="stop-color:#666666"/>
			<stop  offset="1" style="stop-color:#808080"/>
		</linearGradient>
		<path class="st0" d="M29.2,21.7L29.2,21.7c-0.5,0.3-1,0.1-1.3-0.3L20.6,8.7c-0.3-0.5-0.1-1,0.3-1.3l0,0c0.5-0.3,1-0.1,1.3,0.3
			l7.3,12.6C29.8,20.9,29.6,21.4,29.2,21.7z"/>
		<linearGradient id="SVGID_2_" gradientUnits="userSpaceOnUse" x1="37.1709" y1="14.0197" x2="38.3887" y2="14.7504">
			<stop  offset="0" style="stop-color:#CCCCCC"/>
			<stop  offset="0.6345" style="stop-color:#666666"/>
			<stop  offset="1" style="stop-color:#808080"/>
		</linearGradient>
		<path class="st1" d="M34,21.7L34,21.7c0.5,0.3,1,0.1,1.3-0.3l7.3-12.6c0.3-0.5,0.1-1-0.3-1.3v0c-0.5-0.3-1-0.1-1.3,0.3l-7.3,12.6
			C33.4,20.9,33.5,21.4,34,21.7z"/>
		<path class="st2" d="M52.9,46.9H16.6c-2.2,0-4-1.8-4-4V22c0-2.2,1.8-4,4-4h36.2c2.2,0,4,1.8,4,4v20.9
			C56.9,45.1,55.1,46.9,52.9,46.9z"/>
		<linearGradient id="SVGID_3_" gradientUnits="userSpaceOnUse" x1="34.7328" y1="19.7931" x2="34.7328" y2="48.6631">
			<stop  offset="0" style="stop-color:#CCCCCC"/>
			<stop  offset="0.7817" style="stop-color:#666666"/>
			<stop  offset="1" style="stop-color:#808080"/>
		</linearGradient>
		<path class="st3" d="M52.9,47.6H16.6c-2.2,0-4-1.8-4-4V22.7c0-2.2,1.8-4,4-4h36.2c2.2,0,4,1.8,4,4v20.9
			C56.9,45.8,55.1,47.6,52.9,47.6z"/>
		<linearGradient id="SVGID_4_" gradientUnits="userSpaceOnUse" x1="31.5644" y1="21.7118" x2="31.3422" y2="44.1562">
			<stop  offset="0" style="stop-color:#4D4D4D"/>
			<stop  offset="1" style="stop-color:#1A1A1A"/>
		</linearGradient>
		<path class="st4" d="M44,44.7H18.9c-1.7,0-3.1-1.4-3.1-3.1V24.5c0-1.7,1.4-3.1,3.1-3.1H44c1.7,0,3.1,1.4,3.1,3.1v17.1
			C47.1,43.3,45.7,44.7,44,44.7z"/>
		<radialGradient id="SVGID_5_" cx="52.1274" cy="25.1222" r="2.9491" gradientUnits="userSpaceOnUse">
			<stop  offset="0" style="stop-color:#808080"/>
			<stop  offset="1" style="stop-color:#4D4D4D"/>
		</radialGradient>
		<circle class="st5" cx="52.1" cy="25.1" r="2.9"/>
		<radialGradient id="SVGID_6_" cx="52.1274" cy="32.469" r="2.9491" gradientUnits="userSpaceOnUse">
			<stop  offset="0" style="stop-color:#808080"/>
			<stop  offset="1" style="stop-color:#4D4D4D"/>
		</radialGradient>
		<circle class="st6" cx="52.1" cy="32.5" r="2.9"/>
		<circle class="st7" cx="52.1" cy="25.1" r="2.3"/>
		<circle class="st7" cx="52.1" cy="32.5" r="2.3"/>
	</g>
	
		<linearGradient id="SVGID_7_" gradientUnits="userSpaceOnUse" x1="45.6487" y1="31.2264" x2="45.3969" y2="12.8433" gradientTransform="matrix(0 1 -1 0 62.9078 0.6195)">
		<stop  offset="0" style="stop-color:#1A1A1A"/>
		<stop  offset="1" style="stop-color:#999999;stop-opacity:0"/>
	</linearGradient>
	<polygon class="st8" points="32,47.6 32,44.7 43.9,44.7 43.9,47.6 	"/>
	<linearGradient id="SVGID_8_" gradientUnits="userSpaceOnUse" x1="14.1979" y1="29.6908" x2="14.0719" y2="20.4951">
		<stop  offset="0" style="stop-color:#333333"/>
		<stop  offset="1" style="stop-color:#F2F2F2;stop-opacity:0"/>
	</linearGradient>
	<rect x="12.6" y="23.6" class="st9" width="3.1" height="5.9"/>
	<g>
		<g>
			<linearGradient id="SVGID_9_" gradientUnits="userSpaceOnUse" x1="21.7081" y1="36.9411" x2="21.0745" y2="53.6274">
				<stop  offset="0" style="stop-color:#4D4D4D"/>
				<stop  offset="1" style="stop-color:#999999"/>
			</linearGradient>
			<path class="st10" d="M5.1,44.6c0,0,14.6,8,16.3,8.9l16.3-8.9l-16.3-6.1L5.1,44.6z"/>
		</g>
		<g>
			<linearGradient id="SVGID_10_" gradientUnits="userSpaceOnUse" x1="21.64" y1="34.1508" x2="21.0063" y2="46.8239">
				<stop  offset="0" style="stop-color:#999999"/>
				<stop  offset="1" style="stop-color:#E6E6E6"/>
			</linearGradient>
			<path class="st11" d="M5.1,38.6c0,0,14.6,8,16.3,8.9l16.3-8.9l-16.3-6.1L5.1,38.6z"/>
		</g>
		<g>
			<path class="st12" d="M5.1,31.9c0,0,14.6,8,16.3,8.9l16.3-8.9l-16.3-6.1L5.1,31.9z"/>
		</g>
	</g>
	<rect x="0" class="st13" width="64" height="64"/>
</g>
</svg>
