<svg width="16" height="16" viewBox="0 0 16 16" fill="none" xmlns="http://www.w3.org/2000/svg">
<path fill-rule="evenodd" clip-rule="evenodd" d="M14 5H12H2C0.9 5 0 5.9 0 7L1.2 6.4C1.4 6.2 1.7 6 2 6H12V14L11 15H12H14C15.1 15 16 14.1 16 13V7C16 5.9 15.1 5 14 5ZM14 13.5C13.2 13.5 12.5 12.8 12.5 12C12.5 11.2 13.2 10.5 14 10.5C14.8 10.5 15.5 11.2 15.5 12C15.5 12.8 14.8 13.5 14 13.5ZM14 9.5C13.2 9.5 12.5 8.8 12.5 8C12.5 7.2 13.2 6.5 14 6.5C14.8 6.5 15.5 7.2 15.5 8C15.5 8.8 14.8 9.5 14 9.5Z" fill="white"/>
<path d="M8.5 5.5L11.5 0.5" stroke="white" stroke-miterlimit="10"/>
<path d="M6.5 5.5L3.5 0.5" stroke="white" stroke-miterlimit="10"/>
<path opacity="0.5" d="M0 13.5C0 13.5 4.9 15.7 5.5 16L11 13.5L9.8 13L5.5 14.9L1.2 13L0 13.5Z" fill="white"/>
<path opacity="0.5" d="M0 11.1C0 11.1 4.9 13.3 5.5 13.6L11 11.1L9.8 10.5L5.5 12.4L1.2 10.5L0 11.1Z" fill="white"/>
<path d="M0 8.7C0 8.7 4.9 10.9 5.5 11.2L11 8.7L5.5 7L0 8.7Z" fill="white"/>
</svg>
