<?xml version="1.0" encoding="utf-8"?>
<!-- Generator: Adobe Illustrator 24.2.3, SVG Export Plug-In . SVG Version: 6.00 Build 0)  -->
<svg version="1.1" id="Layer_1" xmlns="http://www.w3.org/2000/svg" xmlns:xlink="http://www.w3.org/1999/xlink" x="0px" y="0px"
	 viewBox="0 0 64 64" style="enable-background:new 0 0 64 64;" xml:space="preserve">
<style type="text/css">
	.st0{fill:none;}
	.st1{fill:#7F7F7F;}
	.st2{fill:url(#SVGID_1_);}
	.st3{fill-rule:evenodd;clip-rule:evenodd;fill:#FFFFFF;stroke:#BFBFBF;stroke-width:0.5;stroke-miterlimit:10;}
	.st4{fill-rule:evenodd;clip-rule:evenodd;fill:url(#SVGID_2_);}
	.st5{fill-rule:evenodd;clip-rule:evenodd;fill:#FFFFFF;stroke:#BFBFBF;stroke-width:0.25;stroke-miterlimit:10;}
</style>
<g id="PlayerStart_x5F_64">
	<g>
		<rect class="st0" width="64" height="64"/>
		<circle class="st1" cx="46.7" cy="39.1" r="5.7"/>
		
			<linearGradient id="SVGID_1_" gradientUnits="userSpaceOnUse" x1="9.614" y1="196.8005" x2="9.3864" y2="246.1995" gradientTransform="matrix(1 0 0 1 0 -190)">
			<stop  offset="0" style="stop-color:#BFBFBF"/>
			<stop  offset="1" style="stop-color:#808080"/>
		</linearGradient>
		<path class="st2" d="M9.5,6.8L9.5,6.8C8.6,6.8,8,7.5,8,8.4v46.3c0,0.9,0.7,1.5,1.5,1.5l0,0c0.9,0,1.5-0.7,1.5-1.5V8.4
			C11,7.5,10.4,6.8,9.5,6.8z"/>
		<path class="st3" d="M9.9,25.6v-16c0-0.6,0.6-1.1,1.2-0.9l25.6,8c0.9,0.3,0.9,1.5,0,1.8l-25.6,8C10.5,26.7,9.9,26.2,9.9,25.6z"/>
		
			<linearGradient id="SVGID_2_" gradientUnits="userSpaceOnUse" x1="37.4852" y1="218.9703" x2="37.3433" y2="249.7537" gradientTransform="matrix(1 0 0 1 0 -190)">
			<stop  offset="0" style="stop-color:#BFBFBF"/>
			<stop  offset="1" style="stop-color:#545454"/>
		</linearGradient>
		<path class="st4" d="M55.2,40.8c-1.5-4.3-4.9-12-8-12c-4.9,0-4.9,1.3-6.8,1.3c-0.9,0-4.6,0-5.9,0c-1.9,0-1.9-1.3-6.8-1.3
			c-3.1,0-6.5,7.7-8,12c-2.8,8.3-3.1,12,2.8,12c6.5,0,6.5-5.4,14.8-5.4s8.6,5.4,14.8,5.4C58,52.8,58,49.1,55.2,40.8z M33.7,39.9
			h-2.8c-0.3,0-0.5,0.2-0.5,0.5V43c0,0.3-0.2,0.5-0.5,0.5h-1.5c-0.3,0-0.5-0.2-0.5-0.5v-2.5c0-0.3-0.2-0.5-0.5-0.5h-2.5
			c-0.3,0-0.5-0.2-0.5-0.5V38c0-0.3,0.2-0.5,0.5-0.5h2.5c0.3,0,0.5-0.2,0.5-0.5v-2.8c0-0.3,0.2-0.5,0.5-0.5h1.5
			c0.3,0,0.5,0.2,0.5,0.5V37c0,0.3,0.2,0.5,0.5,0.5h2.8c0.3,0,0.5,0.2,0.5,0.5v1.5C34.2,39.7,34,39.9,33.7,39.9z M49.6,44
			c-4.5,2.4-9-1.1-8.5-5.4c0.3-2.9,2.8-5.3,5.7-5.2c3.3,0.1,6.2,3,5.6,6.8C52.1,41.8,51,43.3,49.6,44z"/>
		<circle class="st5" cx="46.7" cy="36.5" r="1.4"/>
		<circle class="st5" cx="49.4" cy="39.2" r="1.4"/>
		<circle class="st5" cx="44" cy="39.2" r="1.4"/>
		<circle class="st5" cx="46.7" cy="41.7" r="1.4"/>
		<path class="st5" d="M33.7,39.9h-2.8c-0.3,0-0.5,0.2-0.5,0.5V43c0,0.3-0.2,0.5-0.5,0.5h-1.5c-0.3,0-0.5-0.2-0.5-0.5v-2.5
			c0-0.3-0.2-0.5-0.5-0.5h-2.5c-0.3,0-0.5-0.2-0.5-0.5V38c0-0.3,0.2-0.5,0.5-0.5h2.5c0.3,0,0.5-0.2,0.5-0.5v-2.8
			c0-0.3,0.2-0.5,0.5-0.5h1.5c0.3,0,0.5,0.2,0.5,0.5V37c0,0.3,0.2,0.5,0.5,0.5h2.8c0.3,0,0.5,0.2,0.5,0.5v1.5
			C34.2,39.7,34,39.9,33.7,39.9z"/>
	</g>
</g>
</svg>
