<svg width="16" height="16" viewBox="0 0 16 16" fill="none" xmlns="http://www.w3.org/2000/svg">
<path fill-rule="evenodd" clip-rule="evenodd" d="M14.8004 8.0004C14.2004 6.3004 13.0004 3.40039 11.7004 3.40039C9.90042 3.40039 9.90042 5.1004 9.10042 5.1004C8.70042 5.1004 7.30042 5.1004 6.80042 5.1004C6.00042 5.1004 6.10042 3.40039 4.30042 3.40039C3.10042 3.40039 1.80042 6.3004 1.20042 8.0004C0.100422 11.1004 0.000422955 12.6004 2.30042 12.6004C4.80042 12.6004 4.70042 9.70039 8.00042 9.70039C11.1004 9.70039 11.2004 12.6004 13.6004 12.6004C15.9004 12.6004 15.9004 11.1004 14.8004 8.0004ZM6.80042 8.1004H5.30042V9.6004H3.80042V8.1004H2.30042V6.6004H3.80042V5.1004H5.30042V6.6004H6.80042V8.1004ZM11.4004 9.40039C10.3004 9.40039 9.30042 8.5004 9.30042 7.3004C9.30042 6.2004 10.2004 5.20039 11.4004 5.20039C12.5004 5.20039 13.5004 6.1004 13.5004 7.3004C13.4004 8.5004 12.5004 9.40039 11.4004 9.40039Z" fill="white"/>
<path fill-rule="evenodd" clip-rule="evenodd" d="M11.3998 6.2998C10.7998 6.2998 10.2998 6.7998 10.2998 7.3998C10.2998 7.9998 10.7998 8.4998 11.3998 8.4998C11.9998 8.4998 12.4998 7.9998 12.4998 7.3998C12.4998 6.7998 11.9998 6.2998 11.3998 6.2998Z" fill="white"/>
</svg>
