<svg width="16" height="16" viewBox="0 0 16 16" fill="none" xmlns="http://www.w3.org/2000/svg">
<path d="M1 0H0V16H1V0Z" fill="white"/>
<path fill-rule="evenodd" clip-rule="evenodd" d="M1 6.5V0.5L10.6 3.5L1 6.5Z" fill="white"/>
<path fill-rule="evenodd" clip-rule="evenodd" d="M15.3001 10.9996C14.8001 9.59963 13.7001 7.09961 12.7001 7.09961C11.1001 7.09961 11.1001 8.49963 10.5001 8.49963C10.2001 8.49963 9.00011 8.49963 8.60011 8.49963C8.00011 8.49963 8.00011 7.09961 6.40011 7.09961C5.40011 7.09961 4.30011 9.59963 3.80011 10.9996C2.90011 13.6996 2.80011 14.8997 4.70011 14.8997C6.80011 14.8997 6.80011 12.4996 9.50011 12.4996C12.2001 12.4996 12.3001 14.8997 14.3001 14.8997C16.2001 14.8997 16.2001 13.6996 15.3001 10.9996ZM8.50011 10.9996H7.00011V12.3997H6.00011V10.9996H4.60011V9.99963H6.00011V8.49963H7.00011V9.99963H8.50011V10.9996ZM12.5001 12.2997C11.5001 12.2997 10.7001 11.4996 10.7001 10.4996C10.7001 9.49963 11.5001 8.59961 12.5001 8.59961C13.5001 8.59961 14.4001 9.39963 14.4001 10.4996C14.4001 11.4996 13.5001 12.2997 12.5001 12.2997Z" fill="white"/>
<path fill-rule="evenodd" clip-rule="evenodd" d="M12.4999 9.7998C12.1999 9.7998 11.8999 10.0998 11.8999 10.3998C11.8999 10.6998 12.1999 10.9998 12.4999 10.9998C12.7999 10.9998 13.0999 10.6998 13.0999 10.3998C13.0999 10.0998 12.7999 9.7998 12.4999 9.7998Z" fill="white"/>
</svg>
