<?xml version="1.0" encoding="utf-8"?>
<!-- Generator: Adobe Illustrator 24.2.3, SVG Export Plug-In . SVG Version: 6.00 Build 0)  -->
<svg version="1.1" id="Layer_1" xmlns="http://www.w3.org/2000/svg" xmlns:xlink="http://www.w3.org/1999/xlink" x="0px" y="0px"
	 viewBox="0 0 64 64" style="enable-background:new 0 0 64 64;" xml:space="preserve">
<style type="text/css">
	.st0{fill:none;}
	.st1{fill:#3D3D3D;}
	.st2{fill:url(#SVGID_1_);}
	.st3{fill:url(#SVGID_2_);}
	.st4{fill:url(#SVGID_3_);}
	.st5{fill:#AFAFAF;}
	.st6{fill:url(#SVGID_4_);}
	.st7{fill:url(#SVGID_5_);}
	.st8{fill:url(#SVGID_6_);}
</style>
<g id="PointLight_x5F_64">
	<g>
		<rect class="st0" width="64" height="64"/>
		<path class="st1" d="M35.2,56.4l-2.3,1.8c-1.4,1.1-3.1,1.1-4.4-0.1l-2.1-1.8L35.2,56.4z"/>
		
			<linearGradient id="SVGID_1_" gradientUnits="userSpaceOnUse" x1="31.2693" y1="194.9029" x2="30.8892" y2="232.2838" gradientTransform="matrix(1 0 0 1 0 -190)">
			<stop  offset="0" style="stop-color:#C9C9C9"/>
			<stop  offset="0.3048" style="stop-color:#FFFFFF"/>
			<stop  offset="0.6818" style="stop-color:#FFFFFF"/>
			<stop  offset="0.8717" style="stop-color:#B3B3B3"/>
			<stop  offset="1" style="stop-color:#808080"/>
		</linearGradient>
		<path class="st2" d="M30.9,4.9c-9.5,0-16,8.5-16,16.6c0,4.8,2.1,8.5,5.5,11.9c1.8,1.8,4.5,4.3,5,7.7c0.1,0.7,0.6,1.2,1.3,1.2h8.5
			c0.7,0,1.2-0.5,1.3-1.1c0.5-3.5,3.5-5.8,5.3-7.7c3.4-3.4,5.5-7.1,5.5-11.9C47,13.4,40.4,4.9,30.9,4.9z"/>
		
			<linearGradient id="SVGID_2_" gradientUnits="userSpaceOnUse" x1="25.6202" y1="240.75" x2="35.8079" y2="240.75" gradientTransform="matrix(1 0 0 1 0 -190)">
			<stop  offset="0" style="stop-color:#1C1C1C"/>
			<stop  offset="0.5722" style="stop-color:#595959"/>
			<stop  offset="1" style="stop-color:#333333"/>
		</linearGradient>
		<path class="st3" d="M35.2,56.7h-9c-0.3,0-0.6-0.3-0.6-0.6V45.4c0-0.3,0.3-0.6,0.6-0.6h9c0.3,0,0.6,0.3,0.6,0.6v10.7
			C35.9,56.4,35.6,56.7,35.2,56.7z"/>
		
			<linearGradient id="SVGID_3_" gradientUnits="userSpaceOnUse" x1="187.5469" y1="270.4358" x2="187.5469" y2="271.9007" gradientTransform="matrix(0.9837 -3.825276e-02 3.885777e-02 0.9992 -164.2782 -215.9616)">
			<stop  offset="0" style="stop-color:#808080"/>
			<stop  offset="0.5187" style="stop-color:#A1A1A1"/>
			<stop  offset="0.5306" style="stop-color:#9E9E9E"/>
			<stop  offset="1" style="stop-color:#333333"/>
		</linearGradient>
		<path class="st4" d="M25.4,47.5L25,47.9c-0.1,0.1-0.1,0.3,0,0.4l0.4,0.3c0.1,0.1,0.4,0.2,0.7,0.2l9.3-0.4c0.3,0,0.5-0.1,0.7-0.2
			l0.4-0.4c0.1-0.1,0.1-0.3,0-0.4l-0.4-0.3c-0.1-0.1-0.4-0.2-0.7-0.2l-9.3,0.4C25.8,47.3,25.5,47.4,25.4,47.5z"/>
		<path class="st5" d="M36,45.2H25.5c-0.3,0-0.6-0.3-0.6-0.6v-1.7c0-0.3,0.3-0.6,0.6-0.6H36c0.3,0,0.6,0.3,0.6,0.6v1.7
			C36.6,44.9,36.4,45.2,36,45.2z"/>
		
			<linearGradient id="SVGID_4_" gradientUnits="userSpaceOnUse" x1="24.9727" y1="233.8652" x2="36.5848" y2="233.8346" gradientTransform="matrix(1 0 0 1 0 -190)">
			<stop  offset="0" style="stop-color:#404040"/>
			<stop  offset="0.5294" style="stop-color:#808080"/>
			<stop  offset="1" style="stop-color:#404040"/>
		</linearGradient>
		<path class="st6" d="M36,45.3H25.5c-0.3,0-0.6-0.3-0.6-0.6V43c0-0.3,0.3-0.6,0.6-0.6H36c0.3,0,0.6,0.3,0.6,0.6v1.7
			C36.6,45.1,36.4,45.3,36,45.3z"/>
		
			<linearGradient id="SVGID_5_" gradientUnits="userSpaceOnUse" x1="187.4324" y1="273.362" x2="187.4324" y2="274.8269" gradientTransform="matrix(0.9837 -3.825276e-02 3.885777e-02 0.9992 -164.2782 -215.9616)">
			<stop  offset="0" style="stop-color:#808080"/>
			<stop  offset="0.5187" style="stop-color:#A1A1A1"/>
			<stop  offset="0.5306" style="stop-color:#9E9E9E"/>
			<stop  offset="1" style="stop-color:#333333"/>
		</linearGradient>
		<path class="st7" d="M25.4,50.4L25,50.8c-0.1,0.1-0.1,0.3,0,0.4l0.4,0.3c0.1,0.1,0.4,0.2,0.7,0.2l9.3-0.4c0.3,0,0.5-0.1,0.7-0.2
			l0.4-0.4c0.1-0.1,0.1-0.3,0-0.4L36.1,50c-0.1-0.1-0.4-0.2-0.7-0.2l-9.3,0.4C25.8,50.2,25.5,50.3,25.4,50.4z"/>
		
			<linearGradient id="SVGID_6_" gradientUnits="userSpaceOnUse" x1="187.3179" y1="276.2883" x2="187.3179" y2="277.7531" gradientTransform="matrix(0.9837 -3.825276e-02 3.885777e-02 0.9992 -164.2782 -215.9616)">
			<stop  offset="0" style="stop-color:#808080"/>
			<stop  offset="0.5187" style="stop-color:#A1A1A1"/>
			<stop  offset="0.5306" style="stop-color:#9E9E9E"/>
			<stop  offset="1" style="stop-color:#333333"/>
		</linearGradient>
		<path class="st8" d="M25.4,53.4L25,53.7c-0.1,0.1-0.1,0.3,0,0.4l0.4,0.3c0.1,0.1,0.4,0.2,0.7,0.2l9.3-0.4c0.3,0,0.5-0.1,0.7-0.2
			l0.4-0.4c0.1-0.1,0.1-0.3,0-0.4l-0.4-0.3c-0.1-0.1-0.4-0.2-0.7-0.2l-9.3,0.4C25.8,53.2,25.5,53.2,25.4,53.4z"/>
	</g>
</g>
</svg>
