<svg width="16" height="16" viewBox="0 0 16 16" fill="none" xmlns="http://www.w3.org/2000/svg">
<path fill-rule="evenodd" clip-rule="evenodd" d="M7.49982 0.200195C6.09982 0.200195 5.29982 0.600195 5.29982 2.0002C5.29982 2.2002 5.19982 3.6002 5.29982 3.8002H5.99982C6.29982 3.8002 6.49982 4.0002 6.49982 4.3002V4.9002C6.89982 5.0002 7.19982 5.1002 7.49982 5.1002C7.79982 5.1002 8.09982 5.0002 8.39982 4.9002V4.3002C8.39982 4.0002 8.59982 3.8002 8.89982 3.8002H9.59982C9.69982 3.6002 9.59982 2.2002 9.59982 2.0002C9.69982 0.600195 8.89982 0.200195 7.49982 0.200195ZM6.09982 3.2002H5.99982V2.0002H7.19982V2.1002C7.19982 2.7002 6.69982 3.2002 6.09982 3.2002ZM8.99982 3.2002H8.89982C8.29982 3.2002 7.79982 2.7002 7.79982 2.1002V2.0002H8.99982V3.2002ZM7.79982 3.8002H7.19982L7.49982 3.2002L7.79982 3.8002Z" fill="white"/>
<path d="M7 8.00098H5V9.00098H7V8.00098Z" fill="white"/>
<path d="M10 8.00098H8V9.00098H10V8.00098Z" fill="white"/>
<path d="M8 6.00098H7V11.001H8V6.00098Z" fill="white"/>
<path d="M10 6.00098H5V7.00098H10V6.00098Z" fill="white"/>
<path fill-rule="evenodd" clip-rule="evenodd" d="M0 6L4.5 6.5L5 5H0V6Z" fill="white"/>
<path fill-rule="evenodd" clip-rule="evenodd" d="M15 6.00098L10.5 6.50098L10 5.00098H15V6.00098Z" fill="white"/>
<path fill-rule="evenodd" clip-rule="evenodd" d="M11.9 13.101L10 10.001L9 12.001L11.2 13.801L13.3 15.901L14 15.201L11.9 13.101Z" fill="white"/>
<path fill-rule="evenodd" clip-rule="evenodd" d="M5 10.001L3.1 13.101L1 15.201L1.7 15.901L3.8 13.801L6 12.001L5 10.001Z" fill="white"/>
</svg>
