<?xml version="1.0" encoding="utf-8"?>
<!-- Generator: Adobe Illustrator 25.0.0, SVG Export Plug-In . SVG Version: 6.00 Build 0)  -->
<svg version="1.1" id="PoseAsset_x5F_64" xmlns="http://www.w3.org/2000/svg" xmlns:xlink="http://www.w3.org/1999/xlink" x="0px"
	 y="0px" viewBox="0 0 64 64" style="enable-background:new 0 0 64 64;" xml:space="preserve">
<style type="text/css">
	.st0{fill:url(#SVGID_1_);}
	.st1{fill:#FFFFFF;}
	.st2{fill:#BFBFBF;}
	.st3{fill:#A5A5A5;}
	.st4{fill-rule:evenodd;clip-rule:evenodd;fill:url(#SVGID_2_);}
	.st5{fill-rule:evenodd;clip-rule:evenodd;fill:url(#SVGID_3_);}
	.st6{fill-rule:evenodd;clip-rule:evenodd;fill:#A5A5A5;}
	.st7{fill-rule:evenodd;clip-rule:evenodd;fill:url(#SVGID_4_);}
	.st8{fill-rule:evenodd;clip-rule:evenodd;fill:url(#SVGID_5_);}
	.st9{fill-rule:evenodd;clip-rule:evenodd;fill:url(#SVGID_6_);}
	.st10{fill-rule:evenodd;clip-rule:evenodd;fill:url(#SVGID_7_);}
	.st11{fill-rule:evenodd;clip-rule:evenodd;fill:url(#SVGID_8_);}
	.st12{fill:none;}
</style>
<g>
	<g>
		<linearGradient id="SVGID_1_" gradientUnits="userSpaceOnUse" x1="31.8419" y1="18.5446" x2="32.0471" y2="35.8489">
			<stop  offset="0" style="stop-color:#383838"/>
			<stop  offset="0.2193" style="stop-color:#BFBFBF"/>
			<stop  offset="1" style="stop-color:#808080"/>
		</linearGradient>
		<path class="st0" d="M32.6,18h-1.4v17.7h1.4V18z"/>
		<path class="st1" d="M36.2,22.2h-8.5c-0.3,0-0.6,0.2-0.6,0.5v0.3c0,0.3,0.2,0.5,0.6,0.5h8.5c0.3,0,0.6-0.2,0.6-0.5v-0.3
			C36.8,22.4,36.5,22.2,36.2,22.2z"/>
		<path class="st2" d="M35.5,24.7h-7c-0.3,0-0.6,0.2-0.6,0.5v0.3c0,0.3,0.2,0.5,0.6,0.5h7c0.3,0,0.6-0.2,0.6-0.5v-0.3
			C36,25,35.8,24.7,35.5,24.7z"/>
		<path class="st3" d="M34.9,27.3H29c-0.3,0-0.6,0.2-0.6,0.5v0.3c0,0.3,0.2,0.5,0.6,0.5h5.9c0.3,0,0.6-0.2,0.6-0.5v-0.3
			C35.4,27.6,35.2,27.3,34.9,27.3z"/>
		<path class="st1" d="M37.4,19.6h-11c-0.4,0-0.6,0.3-0.6,0.6v0.1c0,0.3,0.3,0.6,0.6,0.6h11c0.4,0,0.6-0.3,0.6-0.6v-0.1
			C38.1,19.9,37.8,19.6,37.4,19.6z"/>
	</g>
	
		<linearGradient id="SVGID_2_" gradientUnits="userSpaceOnUse" x1="49.9508" y1="24.6652" x2="50.0594" y2="33.8235" gradientTransform="matrix(0.2394 -0.9709 0.9709 0.2394 3.6205 61.9513)">
		<stop  offset="0" style="stop-color:#FFFFFF"/>
		<stop  offset="0.6346" style="stop-color:#AFAFAF"/>
		<stop  offset="1" style="stop-color:#808080"/>
	</linearGradient>
	<path class="st4" d="M48.4,20.7l-7.2,0.1c-0.1,0-0.2,0-0.2,0.1l-0.5,0.5c-0.1,0.1-0.3,0.1-0.4,0l-0.4-0.3c-0.2-0.1-0.2-0.4-0.1-0.6
		l0-0.1c0.1-0.1,0.1-0.3,0-0.5l0,0c-0.1-0.2-0.1-0.4,0.1-0.6l0.5-0.4c0.1-0.1,0.3-0.1,0.4,0l0.5,0.5c0.1,0.1,0.1,0.1,0.2,0.1
		l7.2-0.1c0.2,0,0.3,0.2,0.3,0.4l0,0.5C48.7,20.5,48.5,20.7,48.4,20.7z"/>
	<ellipse class="st1" cx="40.2" cy="20" rx="1.7" ry="1.6"/>
	<ellipse transform="matrix(0.2394 -0.9709 0.9709 0.2394 17.3032 62.0748)" class="st1" cx="48.3" cy="20" rx="1.7" ry="1.6"/>
	
		<linearGradient id="SVGID_3_" gradientUnits="userSpaceOnUse" x1="49.6446" y1="32.9769" x2="49.7233" y2="39.6074" gradientTransform="matrix(-0.2437 0.9698 0.9698 0.2437 28.1983 -36.8359)">
		<stop  offset="0" style="stop-color:#FFFFFF"/>
		<stop  offset="0.6346" style="stop-color:#AFAFAF"/>
		<stop  offset="1" style="stop-color:#808080"/>
	</linearGradient>
	<path class="st5" d="M54.5,20.5l-5.2,0.1c-0.1,0-0.1,0-0.2,0.1l-0.3,0.5c-0.1,0.1-0.2,0.1-0.3,0l-0.3-0.3c-0.1-0.1-0.1-0.4-0.1-0.6
		l0-0.1c0.1-0.1,0.1-0.3,0-0.5l0,0c-0.1-0.2-0.1-0.4,0.1-0.6l0.3-0.4c0.1-0.1,0.2-0.1,0.3,0l0.3,0.5c0,0.1,0.1,0.1,0.2,0.1l5.2-0.1
		c0.1,0,0.2,0.2,0.2,0.4l0,0.5C54.7,20.3,54.6,20.5,54.5,20.5z"/>
	<path class="st6" d="M35.2,32.8c0.7,0,1.1,1.1,0.7,1.8c-0.8,1.3-2.3,2.2-4.1,2.2s-3.3-0.9-4.1-2.2c-0.4-0.7,0-1.8,0.7-1.8H35.2z"/>
	
		<linearGradient id="SVGID_4_" gradientUnits="userSpaceOnUse" x1="24.0222" y1="39.5236" x2="22.4806" y2="56.4817" gradientTransform="matrix(0.8769 0.4806 -0.4806 0.8769 24.6741 -7.0385)">
		<stop  offset="0" style="stop-color:#FFFFFF"/>
		<stop  offset="0.6346" style="stop-color:#AFAFAF"/>
		<stop  offset="1" style="stop-color:#808080"/>
	</linearGradient>
	<path class="st7" d="M27.6,41.5l-8.3,11.3c-0.2,0.3-0.6,0.4-1,0.2l-0.4-0.2c-0.4-0.2-0.5-0.7-0.3-1l7.8-14.2
		c0.3-0.6,1.2-0.5,1.4,0.2l0.9,3.1C27.8,41.1,27.7,41.3,27.6,41.5z"/>
	
		<linearGradient id="SVGID_5_" gradientUnits="userSpaceOnUse" x1="39.0541" y1="37.834" x2="40.655" y2="57.2823" gradientTransform="matrix(0.9026 -0.4304 0.4304 0.9026 -15.7445 19.7223)">
		<stop  offset="0" style="stop-color:#FFFFFF"/>
		<stop  offset="0.6346" style="stop-color:#AFAFAF"/>
		<stop  offset="1" style="stop-color:#808080"/>
	</linearGradient>
	<path class="st8" d="M35.8,40.6l1.1-3c0.2-0.6,1.1-0.7,1.4-0.1l7,14.6c0.2,0.4,0,0.8-0.4,1l-0.4,0.2c-0.4,0.2-0.8,0.1-1-0.2
		l-7.6-11.8C35.8,41.1,35.8,40.8,35.8,40.6z"/>
	<linearGradient id="SVGID_6_" gradientUnits="userSpaceOnUse" x1="31.907" y1="17.1201" x2="31.9672" y2="7.5618">
		<stop  offset="0" style="stop-color:#B3B3B3"/>
		<stop  offset="1" style="stop-color:#FFFFFF"/>
	</linearGradient>
	<path class="st9" d="M31.9,7.6c-2.3,0-4.1,0.9-4.1,2v4.5c0,0.2,0.2,0.3,0.3,0.3h1.3c0.2,0,0.3,0.2,0.3,0.3v1.6
		c0,0.1,0.1,0.3,0.2,0.3c1.3,0.6,2.6,0.6,3.9,0c0.1-0.1,0.2-0.2,0.2-0.3v-1.6c0-0.2,0.2-0.3,0.3-0.3h1.3c0.2,0,0.3-0.2,0.3-0.3V9.6
		C36,8.5,34.2,7.6,31.9,7.6z M29.5,12.8c-0.3,0.1-0.5-0.1-0.5-0.4v-1.6c0-0.2,0.2-0.4,0.4-0.4H31c0.3,0,0.4,0.2,0.4,0.5
		C31.2,12,30.6,12.6,29.5,12.8z M32.6,14.1h-1.2c-0.1,0-0.2-0.1-0.1-0.1l0.6-0.9c0.1-0.1,0.2-0.1,0.3,0l0.6,0.9
		C32.7,14,32.7,14.1,32.6,14.1z M34.9,12.4c0,0.3-0.3,0.5-0.5,0.4c-1.1-0.3-1.8-0.9-1.9-1.9c0-0.3,0.1-0.5,0.4-0.5h1.6
		c0.2,0,0.4,0.2,0.4,0.4V12.4z"/>
	
		<linearGradient id="SVGID_7_" gradientUnits="userSpaceOnUse" x1="62.5654" y1="48.2818" x2="62.674" y2="57.4401" gradientTransform="matrix(-0.2394 -0.9709 -0.9709 0.2394 86.1472 68.7737)">
		<stop  offset="0" style="stop-color:#FFFFFF"/>
		<stop  offset="0.6346" style="stop-color:#AFAFAF"/>
		<stop  offset="1" style="stop-color:#808080"/>
	</linearGradient>
	<path class="st10" d="M15.5,20.9l7.2,0.1c0.1,0,0.2,0,0.2,0.1l0.5,0.5c0.1,0.1,0.3,0.1,0.4,0l0.4-0.3c0.2-0.1,0.2-0.4,0.1-0.6
		l0-0.1c-0.1-0.1-0.1-0.3,0-0.5l0,0c0.1-0.2,0.1-0.4-0.1-0.6l-0.5-0.4c-0.1-0.1-0.3-0.1-0.4,0l-0.5,0.5c-0.1,0.1-0.1,0.1-0.2,0.1
		l-7.2-0.1c-0.2,0-0.3,0.2-0.3,0.4l0,0.5C15.1,20.7,15.3,20.9,15.5,20.9z"/>
	<ellipse class="st1" cx="23.6" cy="20.2" rx="1.7" ry="1.6"/>
	<ellipse transform="matrix(0.9709 -0.2394 0.2394 0.9709 -4.3884 4.3096)" class="st1" cx="15.5" cy="20.2" rx="1.6" ry="1.7"/>
	
		<linearGradient id="SVGID_8_" gradientUnits="userSpaceOnUse" x1="36.9246" y1="56.5369" x2="37.0032" y2="63.1674" gradientTransform="matrix(0.2437 0.9698 -0.9698 0.2437 61.5694 -30.0135)">
		<stop  offset="0" style="stop-color:#FFFFFF"/>
		<stop  offset="0.6346" style="stop-color:#AFAFAF"/>
		<stop  offset="1" style="stop-color:#808080"/>
	</linearGradient>
	<path class="st11" d="M9.3,20.7l5.2,0.1c0.1,0,0.1,0,0.2,0.1l0.3,0.5c0.1,0.1,0.2,0.1,0.3,0l0.3-0.3c0.1-0.1,0.1-0.4,0.1-0.6l0-0.1
		c-0.1-0.1-0.1-0.3,0-0.5l0,0c0.1-0.2,0.1-0.4-0.1-0.6L15.3,19c-0.1-0.1-0.2-0.1-0.3,0l-0.3,0.5c0,0.1-0.1,0.1-0.2,0.1l-5.2-0.1
		c-0.1,0-0.2,0.2-0.2,0.4l0,0.5C9.1,20.6,9.2,20.7,9.3,20.7z"/>
	<rect x="0" class="st12" width="64" height="64"/>
</g>
</svg>
