<svg width="16" height="16" viewBox="0 0 16 16" fill="none" xmlns="http://www.w3.org/2000/svg">
<path opacity="0.5" d="M3 0L0 3H13V16L16 13V0H3Z" fill="white"/>
<path d="M6.9999 12.7998C9.0999 12.7998 10.7999 11.0998 10.7999 8.99976C10.7999 7.99976 10.3999 6.9998 9.6999 6.2998L4.3999 11.5997C4.9999 12.2997 5.9999 12.7998 6.9999 12.7998Z" fill="white"/>
<path d="M2.5 9C2.5 6.5 4.5 4.5 7 4.5C8.2 4.5 9.4 5.00005 10.2 5.80005L13 3H1V15L3.8 12.2C3 11.4 2.5 10.2 2.5 9Z" fill="white"/>
<path d="M13 15H1V3H0V16H13V15Z" fill="white"/>
</svg>
