<?xml version="1.0" encoding="utf-8"?>
<!-- Generator: Adobe Illustrator 25.0.0, SVG Export Plug-In . SVG Version: 6.00 Build 0)  -->
<svg version="1.1" id="PrecomputedVisibilityOverrideVolume_x5F_64"
	 xmlns="http://www.w3.org/2000/svg" xmlns:xlink="http://www.w3.org/1999/xlink" x="0px" y="0px" viewBox="0 0 64 64"
	 style="enable-background:new 0 0 64 64;" xml:space="preserve">
<style type="text/css">
	.st0{fill:#404040;}
	.st1{fill:none;stroke:#3D3D3D;stroke-width:2;stroke-miterlimit:10;}
	.st2{opacity:0.71;fill:url(#SVGID_1_);enable-background:new    ;}
	.st3{fill:url(#SVGID_2_);}
	.st4{fill:none;stroke:url(#SVGID_3_);stroke-width:2;stroke-linecap:round;stroke-miterlimit:10;}
	.st5{fill:url(#SVGID_4_);}
	.st6{fill-rule:evenodd;clip-rule:evenodd;fill:url(#SVGID_5_);fill-opacity:0.5;}
	.st7{fill:url(#SVGID_6_);}
	.st8{fill-rule:evenodd;clip-rule:evenodd;fill:url(#SVGID_7_);fill-opacity:0.5;}
	.st9{fill-rule:evenodd;clip-rule:evenodd;fill:url(#SVGID_8_);fill-opacity:0.5;}
	.st10{fill:url(#SVGID_9_);}
	.st11{fill:none;}
</style>
<g>
	<g>
		<polygon class="st0" points="9.1,21.2 20.7,8.5 55.7,9.1 55.7,42.4 43.6,54.7 9.9,54.7 		"/>
		<polyline class="st1" points="55.7,42.4 21.4,42.4 21.4,8.5 		"/>
		<line class="st1" x1="22.2" y1="41.5" x2="8.8" y2="54.9"/>
		<g>
			<linearGradient id="SVGID_1_" gradientUnits="userSpaceOnUse" x1="32.5855" y1="8.4686" x2="32.8604" y2="53.5575">
				<stop  offset="0" style="stop-color:#BFBFBF"/>
				<stop  offset="1" style="stop-color:#808080"/>
			</linearGradient>
			<path class="st2" d="M54,8.5H21.1c-0.2,0-0.4,0.1-0.6,0.3l-10,10.4c-0.5,0.5-0.1,1.4,0.6,1.4h31.7c0.5,0,0.8,0.4,0.8,0.8v31.2
				c0,0.8,0.9,1.1,1.4,0.6L55,42.9c0.2-0.2,0.2-0.4,0.2-0.6l-0.4-33C54.8,8.9,54.4,8.5,54,8.5z"/>
			<linearGradient id="SVGID_2_" gradientUnits="userSpaceOnUse" x1="32.1757" y1="7.1843" x2="32.473" y2="55.9474">
				<stop  offset="0" style="stop-color:#BFBFBF"/>
				<stop  offset="1" style="stop-color:#808080"/>
			</linearGradient>
			<path class="st3" d="M53.6,10.7v31.7c0,0.1,0,0.2-0.1,0.3L43.4,52.7c-0.1,0.1-0.2,0.1-0.3,0.1H11.4c-0.2,0-0.4-0.2-0.4-0.4V20.8
				c0-0.1,0-0.2,0.1-0.3l10.1-10.1c0.1-0.1,0.2-0.1,0.3-0.1h31.7C53.4,10.3,53.6,10.5,53.6,10.7z M56.2,7.3H20.3
				c-0.1,0-0.2,0-0.3,0.1L8.1,19.3C8.1,19.4,8,19.5,8,19.6v35.9c0,0.2,0.2,0.4,0.4,0.4h35.9c0.1,0,0.2,0,0.3-0.1l11.9-11.9
				c0.1-0.1,0.1-0.2,0.1-0.3V7.6C56.6,7.4,56.5,7.3,56.2,7.3z"/>
		</g>
		<linearGradient id="SVGID_3_" gradientUnits="userSpaceOnUse" x1="43.3624" y1="20.51" x2="55.4604" y2="8.4121">
			<stop  offset="0" style="stop-color:#9B9B9D;stop-opacity:0.9"/>
			<stop  offset="0.4467" style="stop-color:#BFBFBF"/>
		</linearGradient>
		<line class="st4" x1="54.7" y1="9.1" x2="44.1" y2="19.9"/>
	</g>
	<g>
		<g>
			<linearGradient id="SVGID_4_" gradientUnits="userSpaceOnUse" x1="19.8249" y1="35.797" x2="19.7274" y2="44.1874">
				<stop  offset="0" style="stop-color:#808080"/>
				<stop  offset="1" style="stop-color:#1A1A1A"/>
			</linearGradient>
			<ellipse class="st5" cx="19.8" cy="40" rx="5.3" ry="4.2"/>
			<linearGradient id="SVGID_5_" gradientUnits="userSpaceOnUse" x1="25.3303" y1="37.9352" x2="29.2387" y2="37.9352">
				<stop  offset="0" style="stop-color:#CCCCCC"/>
				<stop  offset="1" style="stop-color:#999999"/>
			</linearGradient>
			<path class="st6" d="M29.2,38.7c0,1-1-0.2-2-0.2c-1,0-2,1.2-2,0.2c0-1,1-2,2-2C28.3,36.8,29.2,37.7,29.2,38.7z"/>
			<linearGradient id="SVGID_6_" gradientUnits="userSpaceOnUse" x1="35.1367" y1="35.797" x2="35.0391" y2="44.1875">
				<stop  offset="0" style="stop-color:#808080"/>
				<stop  offset="1" style="stop-color:#1A1A1A"/>
			</linearGradient>
			<ellipse class="st7" cx="35.1" cy="40" rx="5.6" ry="4.2"/>
			<linearGradient id="SVGID_7_" gradientUnits="userSpaceOnUse" x1="18.8852" y1="36.349" x2="18.8388" y2="27.6205">
				<stop  offset="0" style="stop-color:#FFFFFF"/>
				<stop  offset="1" style="stop-color:#CCCCCC"/>
			</linearGradient>
			<path class="st8" d="M15.8,36.3c0.1,0.1,0.3,0,0.4-0.1c3-4.5,1.3-6.9,4.6-7.6c0,0,1.6-0.4,3.2-0.5c0-0.2-0.1-0.4-0.5-0.5
				c-5.8-0.5-6.1,1.6-9.6,7.1c-0.1,0.1-0.1,0.3,0.1,0.4L15.8,36.3z"/>
			<linearGradient id="SVGID_8_" gradientUnits="userSpaceOnUse" x1="35.2213" y1="36.3805" x2="35.1745" y2="27.5872">
				<stop  offset="0" style="stop-color:#FFFFFF"/>
				<stop  offset="1" style="stop-color:#CCCCCC"/>
			</linearGradient>
			<path class="st9" d="M40.2,35.1c0.1-0.1,0.2-0.3,0.1-0.4c-3.5-5.4-3.8-7.6-9.6-7.1c-0.4,0.1-0.5,0.3-0.5,0.5
				c1.5,0.1,3.2,0.5,3.2,0.5c3.4,0.7,1.7,3.1,4.6,7.6c0.1,0.1,0.3,0.2,0.4,0.1L40.2,35.1z"/>
			<linearGradient id="SVGID_9_" gradientUnits="userSpaceOnUse" x1="27.2845" y1="34.7775" x2="27.2845" y2="47.7434">
				<stop  offset="0" style="stop-color:#E6E6E6"/>
				<stop  offset="1" style="stop-color:#808080"/>
			</linearGradient>
			<path class="st10" d="M41.5,36.7c0-1.8-3.7-1.9-5-1.9c-1.8,0-4.5,0.5-6.1,1.5c-1.3,0.8-2.3,0.3-3.1,0.3c-0.8,0-1.8,0.5-3.1-0.3
				c-1.6-1-4.3-1.5-6.1-1.5c-1.3,0-5,0.1-5,1.9l1.1,0c-0.3,0.6-0.5,1.4-0.5,2.4c0,3.4,1.8,5.9,5.2,5.9s7.2-2.6,7.2-5.9
				c0-0.6-0.1-1.1-0.3-1.5c0.4,0.1,0.9,0,1.5,0c0.6,0,1.1,0,1.5,0c-0.2,0.4-0.3,0.9-0.3,1.5c0,3.4,3.9,5.9,7.2,5.9
				c3.4,0,5.2-2.6,5.2-5.9c0-1-0.2-1.8-0.5-2.4L41.5,36.7z M18.7,43.9c-2.7,0-3.5-2.3-3.5-4.3c0-1.4,0.3-2.6,3.5-2.6
				c2.4,0,6.2,0.9,6.2,2.6C24.9,41.9,21.3,43.9,18.7,43.9z M35.9,43.9c-2.7,0-6.2-2-6.2-4.3c0-1.7,3.8-2.6,6.2-2.6
				c3.2,0,3.5,1.1,3.5,2.6C39.4,41.6,38.5,43.9,35.9,43.9z"/>
		</g>
	</g>
	<rect x="0" class="st11" width="64" height="64"/>
</g>
</svg>
