<svg width="16" height="16" viewBox="0 0 16 16" fill="none" xmlns="http://www.w3.org/2000/svg">
<path opacity="0.5" d="M3 0L0 3H13V16L16 13V0H3Z" fill="white"/>
<path d="M3.7998 9.99976C4.5998 9.99976 5.8998 10.2998 5.8998 10.8998C5.8998 11.6998 4.6998 12.3998 3.7998 12.3998C2.8998 12.3998 2.5998 11.5998 2.5998 10.8998C2.5998 10.3998 2.6998 9.99976 3.7998 9.99976ZM3.7998 9.2998C2.4998 9.2998 1.7998 9.69976 1.7998 10.9998C1.7998 12.2998 2.4998 13.2998 3.7998 13.2998C5.0998 13.2998 6.5998 12.2998 6.5998 10.9998C6.6998 9.69976 5.0998 9.2998 3.7998 9.2998Z" fill="white"/>
<path d="M10.1999 9.99976C11.2999 9.99976 11.3999 10.3998 11.3999 10.8998C11.3999 11.5998 11.0999 12.3998 10.1999 12.3998C9.2999 12.3998 8.0999 11.6998 8.0999 10.8998C8.0999 10.2998 9.3999 9.99976 10.1999 9.99976ZM10.1999 9.2998C8.8999 9.2998 7.3999 9.69976 7.3999 10.9998C7.3999 12.2998 8.9999 13.2998 10.1999 13.2998C11.4999 13.2998 12.1999 12.2998 12.1999 10.9998C12.1999 9.69976 11.3999 9.2998 10.1999 9.2998Z" fill="white"/>
<path opacity="0.5" fill-rule="evenodd" clip-rule="evenodd" d="M7.8002 11.0002C7.8002 11.4002 7.4002 10.9003 7.0002 10.9003C6.6002 10.9003 6.2002 11.4002 6.2002 11.0002C6.2002 10.6002 6.6002 10.2002 7.0002 10.2002C7.4002 10.2002 7.8002 10.6002 7.8002 11.0002Z" fill="white"/>
<path d="M7 10.5002C6.5 10.5002 6.2 10.6003 5.7 10.3003C5.2 10.0003 4.4 9.90027 3.9 9.90027C2.9 9.90027 2.3 10.3003 2.1 10.4003L1.5 9.90027C1.5 9.20027 3.3 9.2002 3.8 9.2002C4.5 9.2002 5.1 9.20022 5.7 9.60022C6.2 9.90022 6.6 10.1002 6.9 10.1002C7.2 10.1002 7.7 9.90022 8.1 9.60022C8.7 9.30022 9.3 9.2002 10 9.2002C10.6 9.2002 12.3 9.30027 12.3 9.90027L11.7 10.5002C11.6 10.4002 10.9 10.0002 9.9 10.0002C9.4 10.0002 8.6 10.1003 8.1 10.4003C7.8 10.6003 7.5 10.5002 7 10.5002Z" fill="white"/>
<path opacity="0.5" fill-rule="evenodd" clip-rule="evenodd" d="M11.6999 9.69995L12.4999 9.30005C12.1999 8.80005 11.8999 8.4 11.6999 8H10.8999C10.9999 8.4 11.1999 8.99995 11.6999 9.69995Z" fill="white"/>
<path opacity="0.5" fill-rule="evenodd" clip-rule="evenodd" d="M3.7 7H3.1C2.6 7.5 2.2 8.20005 1.5 9.30005L2.3 9.69995C3.2 8.19995 3.2 7.4 3.7 7Z" fill="white"/>
<path d="M9 6H2V5H9V3.5L11.9 5.5L9 7.5V6Z" fill="white"/>
<path d="M13 15H1V3H0V16H13V15Z" fill="white"/>
</svg>
