<svg width="16" height="16" viewBox="0 0 16 16" fill="none" xmlns="http://www.w3.org/2000/svg">
<path opacity="0.5" d="M3 0L0 3H13V16L16 13V0H3Z" fill="white"/>
<path d="M3.7998 9.00073C4.5998 9.00073 5.8998 9.30076 5.8998 9.90076C5.8998 10.7008 4.6998 11.4008 3.7998 11.4008C2.8998 11.4008 2.5998 10.6008 2.5998 9.90076C2.5998 9.40076 2.6998 9.00073 3.7998 9.00073ZM3.7998 8.30078C2.4998 8.30078 1.7998 8.70073 1.7998 10.0007C1.7998 11.3007 2.4998 12.3008 3.7998 12.3008C5.0998 12.3008 6.5998 11.3007 6.5998 10.0007C6.6998 8.70073 5.0998 8.30078 3.7998 8.30078Z" fill="white"/>
<path d="M10.1999 9.00073C11.2999 9.00073 11.3999 9.40076 11.3999 9.90076C11.3999 10.6008 11.0999 11.4008 10.1999 11.4008C9.2999 11.4008 8.0999 10.7008 8.0999 9.90076C8.0999 9.30076 9.3999 9.00073 10.1999 9.00073ZM10.1999 8.30078C8.8999 8.30078 7.3999 8.70073 7.3999 10.0007C7.3999 11.3007 8.9999 12.3008 10.1999 12.3008C11.4999 12.3008 12.1999 11.3007 12.1999 10.0007C12.1999 8.70073 11.3999 8.30078 10.1999 8.30078Z" fill="white"/>
<path opacity="0.5" fill-rule="evenodd" clip-rule="evenodd" d="M7.8002 10.0002C7.8002 10.4002 7.4002 9.90027 7.0002 9.90027C6.6002 9.90027 6.2002 10.4002 6.2002 10.0002C6.2002 9.60024 6.6002 9.2002 7.0002 9.2002C7.4002 9.2002 7.8002 9.60024 7.8002 10.0002Z" fill="white"/>
<path fill-rule="evenodd" clip-rule="evenodd" d="M11.6998 8.70039C10.3998 6.80039 10.9998 6.00039 9.5998 5.70039C9.5998 5.70039 8.6998 5.60044 8.2998 5.50044L8.4998 5.30049C10.8998 5.10049 10.9998 6.00049 12.4998 8.30049L11.6998 8.70039Z" fill="white" fill-opacity="0.5"/>
<path fill-rule="evenodd" clip-rule="evenodd" d="M2.3 8.70039C3.6 6.80039 3 6.00039 4.4 5.70039C4.4 5.70039 5.3 5.60044 5.7 5.50044L5.5 5.30049C3.1 5.10049 3 6.00049 1.5 8.30049L2.3 8.70039Z" fill="white" fill-opacity="0.5"/>
<path d="M7 9.50024C6.5 9.50024 6.2 9.60029 5.7 9.30029C5.2 9.00029 4.4 8.90027 3.9 8.90027C2.9 8.90027 2.3 9.30027 2.1 9.40027L1.5 8.90027C1.5 8.20027 3.3 8.2002 3.8 8.2002C4.5 8.2002 5.1 8.20022 5.7 8.60022C6.2 8.90022 6.6 9.10022 6.9 9.10022C7.2 9.10022 7.7 8.90022 8.1 8.60022C8.7 8.30022 9.3 8.2002 10 8.2002C10.6 8.2002 12.3 8.30027 12.3 8.90027L11.7 9.50024C11.6 9.40024 10.9 9.00024 9.9 9.00024C9.4 9.00024 8.6 9.10027 8.1 9.40027C7.8 9.60027 7.5 9.50024 7 9.50024Z" fill="white"/>
<path d="M13 15H1V3H0V16H13V15Z" fill="white"/>
</svg>
