<svg width="16" height="16" viewBox="0 0 16 16" fill="none" xmlns="http://www.w3.org/2000/svg">
<path d="M13 15H1V3H0V16H13V15Z" fill="white"/>
<path d="M15.7 3.39961C15.2 3.09961 14.9 3.49961 14.9 3.49961L13.5 5.79961H13V0.599609C13 0.599609 13 0.0996094 12.5 0.0996094C12 0.0996094 12 0.599609 12 0.599609V4.29961C12 4.29961 11.8 4.79961 11.5 4.79961C11.2 4.79961 11 4.29961 11 4.29961V0.599609C11 0.599609 11 0.0996094 10.5 0.0996094C10 0.0996094 10 0.599609 10 0.599609V4.19961C10 4.19961 9.8 4.69961 9.5 4.69961C9.2 4.69961 9 4.19961 9 4.19961V0.599609C9 0.599609 9 0.0996094 8.5 0.0996094C8 0.0996094 8 0.599609 8 0.599609V4.49961V6.99961C8 7.99961 8.8 8.99961 9.7 8.99961H11.6C12.7 8.99961 13.2 8.69961 14.1 7.39961C15 5.79961 15.9 4.19961 15.9 4.19961C15.9 4.19961 16.1 3.69961 15.7 3.39961Z" fill="white"/>
<path fill-rule="evenodd" clip-rule="evenodd" d="M12 10.1006C10.5 11.2006 8.3 12.6006 6 15.0006C6 15.0006 7.3 10.7006 12 10.1006Z" fill="white"/>
<path fill-rule="evenodd" clip-rule="evenodd" d="M4.59961 4.2002C9.59961 10.1002 6.39961 13.8002 5.49961 15.0002C5.49961 15.0002 7.39961 10.9002 4.59961 4.2002Z" fill="white"/>
<path opacity="0.5" fill-rule="evenodd" clip-rule="evenodd" d="M1 10.6006C4.8 11.2006 4.8 14.3006 4.8 15.0006C4.8 15.0006 3.7 12.4006 1 10.6006Z" fill="white"/>
<path opacity="0.5" fill-rule="evenodd" clip-rule="evenodd" d="M12 13.2002C8.9 13.2002 6.5 14.4002 6.5 15.0002C6.5 15.0002 9.4 14.9002 12 13.2002Z" fill="white"/>
<path fill-rule="evenodd" clip-rule="evenodd" d="M5.6002 13.3002L5.3002 15.0002C4.8002 13.4002 5.5002 10.8002 1.7002 7.7002C6.0002 10.1002 5.6002 13.3002 5.6002 13.3002Z" fill="white"/>
<path opacity="0.5" d="M7 0.1V0H3L0 3H7V0.1Z" fill="white"/>
<path opacity="0.5" d="M14 0V2.8L14.1 2.7V2.6C14.3 2.4 14.8 2 15.3 2C15.5 2 15.8 2.1 16 2.2V0H14Z" fill="white"/>
<path opacity="0.5" d="M13 9.7998V15.9998L16 12.9998V6.2998L14.9 8.1998C14.3 9.1998 13.7 9.5998 13 9.7998Z" fill="white"/>
</svg>
