<svg width="16" height="16" viewBox="0 0 16 16" fill="none" xmlns="http://www.w3.org/2000/svg">
<path opacity="0.5" d="M12.0399 8.68945C11.0999 7.72945 10.0099 6.90945 8.85992 6.18945C8.82992 7.20945 8.48992 8.14945 7.91992 8.90945C8.92992 9.24945 9.90992 9.65945 10.8199 10.2195C11.9099 10.8695 12.9099 11.6995 13.7999 12.6695C14.6799 13.6395 15.4699 14.7395 15.9999 15.9895C15.7699 14.6395 15.2699 13.3395 14.5999 12.0995C13.9199 10.8795 13.0699 9.70945 12.0399 8.68945Z" fill="white"/>
<path d="M4.00012 9.87914C6.14298 9.87914 7.88012 8.14201 7.88012 5.99914C7.88012 3.85628 6.14298 2.11914 4.00012 2.11914C1.85725 2.11914 0.120117 3.85628 0.120117 5.99914C0.120117 8.14201 1.85725 9.87914 4.00012 9.87914Z" fill="white"/>
<path d="M12.5 0L11 2H14L12.5 0Z" fill="white"/>
<path d="M12.5 7L11 5H14L12.5 7Z" fill="white"/>
<path d="M16 3.5L14 2V5L16 3.5Z" fill="white"/>
<path d="M9 3.5L11 2V5L9 3.5Z" fill="white"/>
</svg>
