<?xml version="1.0" encoding="utf-8"?>
<!-- Generator: Adobe Illustrator 25.0.0, SVG Export Plug-In . SVG Version: 6.00 Build 0)  -->
<svg version="1.1" id="ProjectileMovementComponent_x5F_64"
	 xmlns="http://www.w3.org/2000/svg" xmlns:xlink="http://www.w3.org/1999/xlink" x="0px" y="0px" viewBox="0 0 64 64"
	 style="enable-background:new 0 0 64 64;" xml:space="preserve">
<style type="text/css">
	.st0{fill:url(#SVGID_1_);enable-background:new    ;}
	.st1{fill:url(#SVGID_2_);}
	.st2{fill:url(#SVGID_3_);}
	.st3{fill:url(#SVGID_4_);}
	.st4{fill:url(#SVGID_5_);}
	.st5{fill:url(#SVGID_6_);}
	.st6{fill:none;}
</style>
<g>
	<linearGradient id="SVGID_1_" gradientUnits="userSpaceOnUse" x1="26.7114" y1="26.1336" x2="54.7319" y2="55.2639">
		<stop  offset="9.644671e-02" style="stop-color:#666666"/>
		<stop  offset="0.2843" style="stop-color:#CCCCCC"/>
		<stop  offset="0.4237" style="stop-color:#BEBEBE"/>
		<stop  offset="0.6872" style="stop-color:#999999"/>
		<stop  offset="1" style="stop-color:#666666"/>
	</linearGradient>
	<path class="st0" d="M39.5,31.5c-3.4-3.3-7.2-6.1-11.4-8.6c-0.1,3.5-1.3,6.8-3.4,9.4c3.6,1.2,7.1,2.6,10.4,4.5
		c3.9,2.2,7.5,5.1,10.6,8.4c3.1,3.3,6,7.1,7.9,11.5c-0.8-4.7-2.6-9.1-5-13.4C46.2,39,43.2,35,39.5,31.5z"/>
	<g>
		<linearGradient id="SVGID_2_" gradientUnits="userSpaceOnUse" x1="50.3177" y1="8.0231" x2="50.3177" y2="1.933">
			<stop  offset="0" style="stop-color:#E6E6E6"/>
			<stop  offset="1" style="stop-color:#999999"/>
		</linearGradient>
		<path class="st1" d="M50.3,1.9L45.8,8h9.1L50.3,1.9z"/>
		<linearGradient id="SVGID_3_" gradientUnits="userSpaceOnUse" x1="50.3177" y1="25.2484" x2="50.3177" y2="19.1583">
			<stop  offset="0" style="stop-color:#999999"/>
			<stop  offset="1" style="stop-color:#E6E6E6"/>
		</linearGradient>
		<path class="st2" d="M50.3,25.2l-4.6-6.1h9.1L50.3,25.2z"/>
		<linearGradient id="SVGID_4_" gradientUnits="userSpaceOnUse" x1="56.0265" y1="13.5926" x2="63.1563" y2="13.6876">
			<stop  offset="0" style="stop-color:#F2F2F2"/>
			<stop  offset="1" style="stop-color:#999999"/>
		</linearGradient>
		<path class="st3" d="M62,13.6L55.9,9v9.1L62,13.6z"/>
		<linearGradient id="SVGID_5_" gradientUnits="userSpaceOnUse" x1="45.4806" y1="13.5727" x2="37.7804" y2="13.7628">
			<stop  offset="0" style="stop-color:#E6E6E6"/>
			<stop  offset="1" style="stop-color:#999999"/>
		</linearGradient>
		<path class="st4" d="M38.7,13.6L44.8,9v9.1L38.7,13.6z"/>
	</g>
	<radialGradient id="SVGID_6_" cx="23.7968" cy="18.7931" r="18.0953" gradientUnits="userSpaceOnUse">
		<stop  offset="0" style="stop-color:#FFFFFF"/>
		<stop  offset="0.3121" style="stop-color:#B3B3B3"/>
		<stop  offset="0.6357" style="stop-color:#6A6A6A"/>
		<stop  offset="0.7861" style="stop-color:#4D4D4D"/>
		<stop  offset="1" style="stop-color:#666666"/>
	</radialGradient>
	<path class="st5" d="M20.9,36.9c7,0,12.7-5.7,12.7-12.7s-5.7-12.7-12.7-12.7S8.2,17.2,8.2,24.2S13.9,36.9,20.9,36.9z"/>
	<rect x="0" class="st6" width="64" height="64"/>
</g>
</svg>
