<svg width="16" height="16" viewBox="0 0 16 16" fill="none" xmlns="http://www.w3.org/2000/svg">
<path d="M8 10C9.10457 10 10 9.10457 10 8C10 6.89543 9.10457 6 8 6C6.89543 6 6 6.89543 6 8C6 9.10457 6.89543 10 8 10Z" fill="white"/>
<path d="M2.3001 13.7C3.1001 14.5 4.1001 15.1 5.2001 15.5L5.6001 14.6C4.7001 14.3 3.8001 13.7 3.1001 13C2.4001 12.3 1.8001 11.4 1.5001 10.5L0.600098 10.9C0.900098 11.8 1.5001 12.8 2.3001 13.7Z" fill="white"/>
<path d="M13.6999 2.3C12.8999 1.5 11.8999 0.9 10.7999 0.5L10.3999 1.4C11.2999 1.7 12.1999 2.3 12.8999 3C13.5999 3.7 14.1999 4.6 14.4999 5.5L15.3999 5.1C15.0999 4.2 14.4999 3.2 13.6999 2.3Z" fill="white"/>
<path opacity="0.5" d="M3.2998 6.30078L4.1998 6.70078C4.3998 6.20078 4.6998 5.70078 5.0998 5.20078C5.4998 4.70078 5.9998 4.50078 6.5998 4.30078L6.2998 3.30078C5.5998 3.60078 4.9998 3.90078 4.4998 4.50078C3.9998 5.10078 3.5998 5.60078 3.2998 6.30078Z" fill="white"/>
<path opacity="0.5" d="M12.6999 9.70078L11.7999 9.30078C11.5999 9.80078 11.2999 10.3008 10.8999 10.8008C10.4999 11.3008 9.9999 11.5008 9.3999 11.7008L9.7999 12.6008C10.4999 12.4008 11.0999 12.0008 11.5999 11.5008C12.0999 11.0008 12.3999 10.4008 12.6999 9.70078Z" fill="white"/>
<path opacity="0.5" d="M4.4998 11.5004C4.9998 12.0004 5.5998 12.4004 6.2998 12.6004L6.6998 11.7004C6.1998 11.5004 5.6998 11.2004 5.1998 10.8004C4.6998 10.4004 4.4998 9.90039 4.2998 9.40039L3.2998 9.70039C3.5998 10.4004 3.8998 11.0004 4.4998 11.5004Z" fill="white"/>
<path opacity="0.5" d="M11.4999 4.50078C10.9999 3.90078 10.3999 3.60078 9.6999 3.30078L9.3999 4.30078C9.8999 4.50078 10.3999 4.80078 10.8999 5.20078C11.3999 5.60078 11.5999 6.10078 11.7999 6.70078L12.6999 6.30078C12.3999 5.60078 12.0999 5.00078 11.4999 4.50078Z" fill="white"/>
<path d="M0.5 5.2L1.4 5.6C1.7 4.7 2.3 3.8 3 3.1C3.7 2.4 4.6 1.8 5.5 1.5L5.2 0.5C4.2 0.9 3.2 1.5 2.3 2.3C1.4 3.1 0.9 4.2 0.5 5.2Z" fill="white"/>
<path d="M15.5 10.8004L14.6 10.4004C14.3 11.3004 13.7 12.2004 13 12.9004C12.3 13.6004 11.4 14.2004 10.5 14.5004L10.9 15.4004C11.9 15.0004 12.9 14.4004 13.8 13.6004C14.7 12.8004 15.1 11.8004 15.5 10.8004Z" fill="white"/>
</svg>
