<svg width="16" height="16" viewBox="0 0 16 16" fill="none" xmlns="http://www.w3.org/2000/svg">
<path d="M8 10C9.10457 10 10 9.10457 10 8C10 6.89543 9.10457 6 8 6C6.89543 6 6 6.89543 6 8C6 9.10457 6.89543 10 8 10Z" fill="white"/>
<path d="M2.3001 13.7C3.1001 14.5 4.1001 15.1 5.2001 15.5L5.6001 14.6C4.7001 14.3 3.8001 13.7 3.1001 13C2.4001 12.3 1.8001 11.4 1.5001 10.5L0.600098 10.9C0.900098 11.8 1.5001 12.8 2.3001 13.7Z" fill="white"/>
<path d="M13.6999 2.30005C12.8999 1.50005 11.8999 0.9 10.7999 0.5L10.3999 1.40002C11.2999 1.70002 12.1999 2.3 12.8999 3C13.5999 3.7 14.1999 4.6 14.4999 5.5L15.3999 5.09998C15.0999 4.19998 14.4999 3.20005 13.6999 2.30005Z" fill="white"/>
<path opacity="0.5" d="M4.4999 11.5007C4.9999 12.0007 5.5999 12.4007 6.2999 12.6007L6.6999 11.7007C6.1999 11.5007 5.6999 11.2008 5.1999 10.8008C4.6999 10.4008 4.4999 9.90078 4.2999 9.30078L3.3999 9.70068C3.5999 10.4007 3.8999 11.0007 4.4999 11.5007Z" fill="white"/>
<path opacity="0.5" d="M11.4998 4.50037C10.9998 4.00037 10.3998 3.60039 9.6998 3.40039L9.2998 4.30042C9.7998 4.50042 10.2998 4.80032 10.7998 5.20032C11.2998 5.60032 11.4998 6.10032 11.6998 6.70032L12.5998 6.30042C12.3998 5.60041 12.0998 5.00037 11.4998 4.50037Z" fill="white"/>
<path opacity="0.5" d="M3.2998 6.30042L4.1998 6.70032C4.3998 6.20032 4.6998 5.70032 5.0998 5.20032C5.4998 4.70032 5.9998 4.50042 6.5998 4.30042L6.1998 3.40039C5.4998 3.60039 4.8998 4.00037 4.3998 4.50037C3.8998 5.00037 3.5998 5.60041 3.2998 6.30042Z" fill="white"/>
<path opacity="0.5" d="M12.6999 9.70068L11.7999 9.30078C11.5999 9.80078 11.2999 10.3008 10.8999 10.8008C10.4999 11.3008 9.9999 11.5007 9.3999 11.7007L9.7999 12.6007C10.4999 12.4007 11.0999 12.0007 11.5999 11.5007C12.0999 11.0007 12.3999 10.4007 12.6999 9.70068Z" fill="white"/>
<path d="M0.5 5.19958L1.4 5.59961C1.7 4.69961 2.3 3.79961 3 3.09961C3.7 2.39961 4.6 1.79963 5.5 1.49963L5.1 0.599609C4.1 0.999609 3.1 1.59966 2.2 2.39966C1.3 3.19966 0.9 4.19958 0.5 5.19958Z" fill="white"/>
<path d="M15.5 10.7994L14.6 10.3994C14.3 11.2994 13.7 12.1994 13 12.8994C12.3 13.5994 11.4 14.1994 10.5 14.4994L10.9 15.3994C11.9 14.9994 12.9 14.3994 13.8 13.5994C14.7 12.7994 15.1 11.7994 15.5 10.7994Z" fill="white"/>
</svg>
