<svg width="16" height="16" viewBox="0 0 16 16" fill="none" xmlns="http://www.w3.org/2000/svg">
<path d="M12 4H4V11H12V4Z" fill="white"/>
<path d="M6.5 3H5.5L5 0.5H6L6.5 3Z" fill="white"/>
<path d="M9.5 3H10.5L11 0.5H10L9.5 3Z" fill="white"/>
<path d="M6.5 12H5.5L5 14.5H6L6.5 12Z" fill="white"/>
<path d="M9.5 12H10.5L11 14.5H10L9.5 12Z" fill="white"/>
<path d="M15.7998 8V7L13.2998 7V8H15.7998Z" fill="white"/>
<path d="M15.1525 2.24589L13.0312 4.36719L13.6676 5.00358L15.7889 2.88228L15.1525 2.24589Z" fill="white"/>
<path d="M13.6325 10.0316L12.9961 10.668L15.1174 12.7893L15.7538 12.1529L13.6325 10.0316Z" fill="white"/>
<path d="M2.7998 8L2.7998 7L0.299805 7L0.299805 8L2.7998 8Z" fill="white"/>
<path d="M0.882484 2.21127L0.246094 2.84766L2.36739 4.96896L3.00378 4.33257L0.882484 2.21127Z" fill="white"/>
<path d="M2.33224 9.99589L0.210938 12.1172L0.847328 12.7536L2.96863 10.6323L2.33224 9.99589Z" fill="white"/>
</svg>
