<svg width="16" height="16" viewBox="0 0 16 16" fill="none" xmlns="http://www.w3.org/2000/svg">
<path d="M12 4H4V11H12V4Z" fill="white"/>
<path d="M6.5 3H5.5L5 0.5H6L6.5 3Z" fill="white"/>
<path d="M9.5 3H10.5L11 0.5H10L9.5 3Z" fill="white"/>
<path d="M6.5 12H5.5L5 14.5H6L6.5 12Z" fill="white"/>
<path d="M9.5 12H10.5L11 14.5H10L9.5 12Z" fill="white"/>
<path d="M15.8 8V7L13.3 7V8H15.8Z" fill="white"/>
<path d="M15.1527 2.24613L13.0314 4.36743L13.6678 5.00382L15.7891 2.88252L15.1527 2.24613Z" fill="white"/>
<path d="M13.6324 10.0316L12.996 10.668L15.1173 12.7893L15.7537 12.1529L13.6324 10.0316Z" fill="white"/>
<path d="M2.79999 8L2.79999 7L0.299988 7L0.299988 8L2.79999 8Z" fill="white"/>
<path d="M0.882514 2.21078L0.246124 2.84717L2.36742 4.96847L3.00381 4.33208L0.882514 2.21078Z" fill="white"/>
<path d="M2.33199 9.99613L0.210693 12.1174L0.847084 12.7538L2.96838 10.6325L2.33199 9.99613Z" fill="white"/>
</svg>
