<?xml version="1.0" encoding="utf-8"?>
<!-- Generator: Adobe Illustrator 24.3.0, SVG Export Plug-In . SVG Version: 6.00 Build 0)  -->
<svg version="1.1" id="RectLight_x5F_64" xmlns="http://www.w3.org/2000/svg" xmlns:xlink="http://www.w3.org/1999/xlink" x="0px"
	 y="0px" viewBox="0 0 64 64" style="enable-background:new 0 0 64 64;" xml:space="preserve">
<style type="text/css">
	.st0{fill:url(#SVGID_1_);}
	.st1{fill:url(#SVGID_2_);}
	.st2{fill:#CCCCCC;}
	.st3{fill:none;}
</style>
<g>
	<g>
		
			<radialGradient id="SVGID_1_" cx="32.5117" cy="32.0952" r="22.8033" gradientTransform="matrix(1.152 0 0 1.1122 -5.2876 -4.0266)" gradientUnits="userSpaceOnUse">
			<stop  offset="0" style="stop-color:#F2F2F2"/>
			<stop  offset="0.368" style="stop-color:#E2E2E2"/>
			<stop  offset="1" style="stop-color:#666666"/>
		</radialGradient>
		<rect x="18.4" y="20" class="st0" width="27.5" height="23.2"/>
		<linearGradient id="SVGID_2_" gradientUnits="userSpaceOnUse" x1="32.1661" y1="20.0458" x2="32.1661" y2="43.2937">
			<stop  offset="0" style="stop-color:#E6E6E6"/>
			<stop  offset="0.9949" style="stop-color:#808080"/>
		</linearGradient>
		<path class="st1" d="M44.9,21v21.2H19.4V21H44.9 M45.9,20H18.4v23.2h27.5V20L45.9,20z"/>
	</g>
	<path class="st2" d="M27.8,18.2h-3l-1.5-7.5h3L27.8,18.2z"/>
	<path class="st2" d="M36.7,18.2h3l1.5-7.5h-3L36.7,18.2z"/>
	<path class="st2" d="M27.8,45.1h-3l-1.5,7.5h3L27.8,45.1z"/>
	<path class="st2" d="M36.7,45.1h3l1.5,7.5h-3L36.7,45.1z"/>
	<path class="st2" d="M56.1,33v-3h-7.5v3H56.1z"/>
	<path class="st2" d="M53.7,15.9l-6.3,6.3l1.9,1.9l6.3-6.3L53.7,15.9z"/>
	<path class="st2" d="M49.3,39.2l-1.9,1.9l6.3,6.3l1.9-1.9L49.3,39.2z"/>
	<path class="st2" d="M15.9,33.1v-3H8.4v3H15.9z"/>
	<path class="st2" d="M10.6,15.9l-1.9,1.9l6.3,6.3l1.9-1.9L10.6,15.9z"/>
	<path class="st2" d="M15,39.2l-6.3,6.3l1.9,1.9l6.3-6.3L15,39.2z"/>
	<rect x="0" class="st3" width="64" height="64"/>
</g>
</svg>
