<?xml version="1.0" encoding="utf-8"?>
<!-- Generator: Adobe Illustrator 25.0.0, SVG Export Plug-In . SVG Version: 6.00 Build 0)  -->
<svg version="1.1" id="ReflectionCapture_x5F_64" xmlns="http://www.w3.org/2000/svg" xmlns:xlink="http://www.w3.org/1999/xlink"
	 x="0px" y="0px" viewBox="0 0 64 64" style="enable-background:new 0 0 64 64;" xml:space="preserve">
<style type="text/css">
	.st0{fill:#3F3F3F;}
	.st1{fill:url(#SVGID_1_);enable-background:new    ;}
	.st2{fill-rule:evenodd;clip-rule:evenodd;fill:url(#SVGID_2_);}
	.st3{opacity:0.5;fill:#FFFFFF;enable-background:new    ;}
	.st4{fill:none;}
</style>
<g>
	<g>
		<g>
			<rect x="15.3" y="15.3" class="st0" width="33.5" height="33.5"/>
		</g>
		<g>
			<linearGradient id="SVGID_1_" gradientUnits="userSpaceOnUse" x1="15.2596" y1="48.7404" x2="32" y2="32">
				<stop  offset="0" style="stop-color:#E6E6E6"/>
				<stop  offset="1" style="stop-color:#808080"/>
			</linearGradient>
			<path class="st1" d="M48.7,48.7H15.3V15.3L48.7,48.7z"/>
			<linearGradient id="SVGID_2_" gradientUnits="userSpaceOnUse" x1="40.3702" y1="23.6298" x2="48.7404" y2="15.2596">
				<stop  offset="0" style="stop-color:#CCCCCC"/>
				<stop  offset="1" style="stop-color:#E6E6E6"/>
			</linearGradient>
			<path class="st2" d="M48.7,32L32,15.3h16.7V32z"/>
		</g>
	</g>
	<path class="st3" d="M9.7,53.9v-8.7c0-0.2-0.2-0.4-0.4-0.4H7c-0.2,0-0.4,0.2-0.4,0.4V57c0,0.2,0.2,0.4,0.4,0.4h11.9
		c0.2,0,0.4-0.2,0.4-0.4v-2.3c0-0.2-0.2-0.4-0.4-0.4h-8.7C9.9,54.3,9.7,54.1,9.7,53.9z"/>
	<path class="st3" d="M10.1,9.7h8.7c0.2,0,0.4-0.2,0.4-0.4V7c0-0.2-0.2-0.4-0.4-0.4H7C6.7,6.5,6.5,6.7,6.5,7v11.9
		c0,0.2,0.2,0.4,0.4,0.4h2.3c0.2,0,0.4-0.2,0.4-0.4v-8.7C9.7,9.9,9.9,9.7,10.1,9.7z"/>
	<path class="st3" d="M54.3,10.1v8.7c0,0.2,0.2,0.4,0.4,0.4H57c0.2,0,0.4-0.2,0.4-0.4V7c0-0.2-0.2-0.4-0.4-0.4H45.1
		c-0.2,0-0.4,0.2-0.4,0.4v2.3c0,0.2,0.2,0.4,0.4,0.4h8.7C54.1,9.7,54.3,9.9,54.3,10.1z"/>
	<path class="st3" d="M53.9,54.3h-8.7c-0.2,0-0.4,0.2-0.4,0.4V57c0,0.2,0.2,0.4,0.4,0.4H57c0.2,0,0.4-0.2,0.4-0.4V45.1
		c0-0.2-0.2-0.4-0.4-0.4h-2.3c-0.2,0-0.4,0.2-0.4,0.4v8.7C54.3,54.1,54.1,54.3,53.9,54.3z"/>
	<rect x="0" class="st4" width="64" height="64"/>
</g>
</svg>
