<?xml version="1.0" encoding="utf-8"?>
<!-- Generator: Adobe Illustrator 24.3.0, SVG Export Plug-In . SVG Version: 6.00 Build 0)  -->
<svg version="1.1" id="ReverbEffect_x5F_64" xmlns="http://www.w3.org/2000/svg" xmlns:xlink="http://www.w3.org/1999/xlink"
	 x="0px" y="0px" viewBox="0 0 64 64" style="enable-background:new 0 0 64 64;" xml:space="preserve">
<style type="text/css">
	.st0{fill:none;}
	.st1{fill:url(#SVGID_1_);}
	.st2{fill:url(#SVGID_2_);}
	.st3{fill:url(#SVGID_3_);}
	.st4{fill:url(#SVGID_4_);}
	.st5{fill:url(#SVGID_5_);}
	.st6{fill:url(#SVGID_6_);}
</style>
<g>
	<rect x="0" class="st0" width="64" height="64"/>
	<g>
		
			<linearGradient id="SVGID_1_" gradientUnits="userSpaceOnUse" x1="14.0104" y1="16.2944" x2="14.0378" y2="32.3512" gradientTransform="matrix(0.7071 -0.7071 0.7071 0.7071 -11.9931 42.026)">
			<stop  offset="0" style="stop-color:#808080"/>
			<stop  offset="0.508" style="stop-color:#D9D9D9"/>
			<stop  offset="1" style="stop-color:#808080"/>
		</linearGradient>
		<path class="st1" d="M24.1,51.7l-1.9,1.9c-2.6,2.6-6.9,2.6-9.5,0l-1.8-1.8c-2.6-2.6-2.6-6.9,0-9.5l1.9-1.9L24.1,51.7z"/>
		
			<linearGradient id="SVGID_2_" gradientUnits="userSpaceOnUse" x1="24.6525" y1="7.9845" x2="24.5327" y2="40.3288" gradientTransform="matrix(0.7071 -0.7071 0.7071 0.7071 -11.9931 42.026)">
			<stop  offset="0" style="stop-color:#808080"/>
			<stop  offset="0.5053" style="stop-color:#D7D8D9"/>
			<stop  offset="0.5421" style="stop-color:#D9D9D9"/>
			<stop  offset="1" style="stop-color:#808080"/>
		</linearGradient>
		<path class="st2" d="M36.8,50.1l-12.7,1.5L12.8,40.3l1.5-12.7c0.1-0.9,1.2-1.3,1.8-0.6l21.3,21.3C38,49,37.6,50,36.8,50.1z"/>
		
			<linearGradient id="SVGID_3_" gradientUnits="userSpaceOnUse" x1="15.0734" y1="24.3171" x2="18.7039" y2="24.3171" gradientTransform="matrix(0.7071 -0.7071 0.7071 0.7071 -11.9931 42.026)">
			<stop  offset="0" style="stop-color:#4D4D4D;stop-opacity:0"/>
			<stop  offset="0.9893" style="stop-color:#4D4D4D;stop-opacity:0.5"/>
		</linearGradient>
		<polygon class="st3" points="21.5,54.2 24.1,51.7 12.8,40.3 10.2,42.9 		"/>
	</g>
	
		<linearGradient id="SVGID_4_" gradientUnits="userSpaceOnUse" x1="17.9658" y1="26.7104" x2="34.8107" y2="10.4293" gradientTransform="matrix(-1 0 0 -1 74.2038 53.4494)">
		<stop  offset="0" style="stop-color:#808080;stop-opacity:0"/>
		<stop  offset="0.5" style="stop-color:#B3B3B3"/>
	</linearGradient>
	<path class="st4" d="M43.3,36.4l11.3-11.3l2.8,2.8L46.2,39.2l3,3l-9.7,0.8l0.8-9.7L43.3,36.4z"/>
	<linearGradient id="SVGID_5_" gradientUnits="userSpaceOnUse" x1="30.3691" y1="34.2369" x2="46.5657" y2="17.777">
		<stop  offset="0" style="stop-color:#CCCCCC;stop-opacity:0"/>
		<stop  offset="0.5" style="stop-color:#F2F2F2"/>
	</linearGradient>
	<path class="st5" d="M43.1,24.2L31.8,35.4L29,32.6l11.3-11.3l-3-3l9.7-0.8l-0.8,9.7L43.1,24.2z"/>
	
		<linearGradient id="SVGID_6_" gradientUnits="userSpaceOnUse" x1="37.5985" y1="43.4687" x2="53.4001" y2="28.1939" gradientTransform="matrix(-1 0 0 -1 74.2038 53.4494)">
		<stop  offset="0" style="stop-color:#808080;stop-opacity:0"/>
		<stop  offset="0.5" style="stop-color:#B3B3B3"/>
	</linearGradient>
	<path class="st6" d="M25.2,18.3L36.4,7l2.8,2.8L28,21.1l3,3l-9.7,0.8l0.8-9.7L25.2,18.3z"/>
</g>
</svg>
