<svg width="16" height="16" viewBox="0 0 16 16" fill="none" xmlns="http://www.w3.org/2000/svg">
<path d="M0 13L2 11V6L10 14H5L3 16L0 13Z" fill="white"/>
<path opacity="0.5" d="M9.99 0.719766L9.28 0.00976562L5.67 3.62977L4.25 2.20977L4 5.99977L7.79 5.74977L6.37 4.32977L9.99 0.719766Z" fill="white"/>
<path d="M7 8.28977L7.71 8.99977L11.32 5.37977L12.74 6.79977L12.99 3.00977L9.2 3.25977L10.62 4.67977L7 8.28977Z" fill="white"/>
<path opacity="0.5" d="M15.99 6.71977L15.28 6.00977L11.67 9.62977L10.25 8.20977L10 11.9998L13.79 11.7498L12.37 10.3298L15.99 6.71977Z" fill="white"/>
</svg>
