<svg width="16" height="16" viewBox="0 0 16 16" fill="none" xmlns="http://www.w3.org/2000/svg">
<path d="M12.5 0L11 2H14L12.5 0Z" fill="white"/>
<path d="M12.5 7L11 5H14L12.5 7Z" fill="white"/>
<path d="M16 3.5L14 2V5L16 3.5Z" fill="white"/>
<path d="M9 3.5L11 2V5L9 3.5Z" fill="white"/>
<path opacity="0.5" d="M5.5 12.5C6.60457 12.5 7.5 11.6046 7.5 10.5C7.5 9.39543 6.60457 8.5 5.5 8.5C4.39543 8.5 3.5 9.39543 3.5 10.5C3.5 11.6046 4.39543 12.5 5.5 12.5Z" fill="white"/>
<path d="M1.09 10.43C1.09 9.23 1.54 8.19 2.45 7.3L3.98 8.83V5H0.14L1.68 6.53C0.56 7.63 0 8.93 0 10.43C0 11.93 0.53 13.2 1.59 14.26C2.63 15.3 3.88 15.82 5.34 15.84V14.75C4.18 14.73 3.19 14.31 2.36 13.49C1.51 12.65 1.09 11.63 1.09 10.43Z" fill="white"/>
<path d="M10.9998 10.5704C10.9998 9.07039 10.4698 7.80039 9.40978 6.74039C8.34978 5.68039 7.06978 5.15039 5.57978 5.15039C5.55978 5.15039 5.54979 5.15039 5.52979 5.15039V6.23039C5.54979 6.23039 5.55978 6.23039 5.57978 6.23039C6.76978 6.23039 7.78979 6.65039 8.63979 7.50039C9.48979 8.35039 9.91979 9.37039 9.91979 10.5604C9.91979 11.7604 9.46979 12.8004 8.55979 13.6904L7.02979 12.1604V16.0004H10.8698L9.32978 14.4704C10.4398 13.3704 10.9998 12.0704 10.9998 10.5704Z" fill="white"/>
</svg>
