<svg width="64" height="64" viewBox="0 0 64 64" fill="none" xmlns="http://www.w3.org/2000/svg">
<path d="M50.3 6.8999H7V50.1999H50.3V6.8999Z" fill="url(#paint0_linear_6488_8088)"/>
<path fill-rule="evenodd" clip-rule="evenodd" d="M44.3 43.2L37 26.7L31.7 36.6L23.9 16L13.1 43.2H44.3Z" fill="url(#paint1_linear_6488_8088)"/>
<path fill-rule="evenodd" clip-rule="evenodd" d="M23.8 15.8999L27.1 24.5999L24.8 22.3999L23.5 26.4999L22.5 22.0999L21.1 22.8999L23.8 15.8999Z" fill="white"/>
<path fill-rule="evenodd" clip-rule="evenodd" d="M37 26.7L39.7 32.7999L38.2 31.4999L37.4 33.7999L36.5 30.8999L34.2 31.7L37 26.7Z" fill="white"/>
<path opacity="0.71" fill-rule="evenodd" clip-rule="evenodd" d="M36.5 28.5999L31.5 39.4999L25.3 22.7L25.7 20.7L31.6 36.4999L35.2 29.8999L36.5 28.5999Z" fill="white"/>
<path fill-rule="evenodd" clip-rule="evenodd" d="M47.7 46.3L43.6 34.0001L50.4 47.3V52.7001H7V47.3L13.8 33.8L9.70001 46.3H47.7Z" fill="url(#paint2_linear_6488_8088)"/>
<path d="M50.3 47.3H7V52.7001H50.3V47.3Z" fill="#BFBFBF"/>
<path d="M54.8 58.3H33.1C32.3044 58.3 31.5413 57.9839 30.9787 57.4213C30.4161 56.8587 30.1 56.0956 30.1 55.3V37C30.1 36.2044 30.4161 35.4413 30.9787 34.8787C31.5413 34.3161 32.3044 34 33.1 34H54.8C55.5957 34 56.3587 34.3161 56.9213 34.8787C57.4839 35.4413 57.8 36.2044 57.8 37V55.2C57.8134 55.6023 57.7457 56.0032 57.601 56.3788C57.4563 56.7544 57.2374 57.097 56.9575 57.3863C56.6776 57.6755 56.3423 57.9055 55.9716 58.0625C55.601 58.2194 55.2025 58.3002 54.8 58.3Z" fill="url(#paint3_linear_6488_8088)"/>
<path d="M52.14 36.5H35.86C35.1089 36.5 34.5 37.1089 34.5 37.86V54.14C34.5 54.8911 35.1089 55.5 35.86 55.5H52.14C52.8911 55.5 53.5 54.8911 53.5 54.14V37.86C53.5 37.1089 52.8911 36.5 52.14 36.5Z" fill="#333333"/>
<path d="M52.14 37.23C52.3071 37.23 52.4673 37.2963 52.5855 37.4145C52.7036 37.5326 52.77 37.6929 52.77 37.86V54.14C52.77 54.3071 52.7036 54.4673 52.5855 54.5854C52.4673 54.7036 52.3071 54.77 52.14 54.77H48.75V50C48.7616 49.8052 48.7319 49.6102 48.6626 49.4277C48.5934 49.2453 48.4862 49.0797 48.3483 48.9417C48.2103 48.8037 48.0446 48.6966 47.8622 48.6273C47.6798 48.5581 47.4847 48.5283 47.29 48.54C45.83 48.54 45.1 50.36 42.9 50.36C40.7 50.36 39.35 48.74 39.35 45.98C39.35 43.22 40.71 41.6 42.9 41.6C45.09 41.6 45.46 43.42 46.9 43.42C47.3335 43.455 47.764 43.3234 48.104 43.0522C48.444 42.781 48.6678 42.3904 48.73 41.96V37.21L52.14 37.23ZM46.92 51.48C46.92 51.02 46.56 50.38 45.83 51.12C45.0333 51.8523 43.9816 52.2435 42.9 52.21C40.4 52.21 37.79 50.02 37.79 46C37.79 41.98 40.4 39.79 42.9 39.79C43.9816 39.7564 45.0333 40.1477 45.83 40.88C46.56 41.62 46.92 40.98 46.92 40.52V37.23H35.86C35.6929 37.23 35.5327 37.2963 35.4145 37.4145C35.2964 37.5326 35.23 37.6929 35.23 37.86V54.14C35.23 54.3071 35.2964 54.4673 35.4145 54.5854C35.5327 54.7036 35.6929 54.77 35.86 54.77H46.92V51.48Z" fill="url(#paint4_linear_6488_8088)"/>
<path opacity="0.2" d="M52.14 37.78C52.1509 37.7783 52.162 37.7791 52.1725 37.7826C52.183 37.786 52.1925 37.7918 52.2003 37.7996C52.2081 37.8074 52.214 37.817 52.2174 37.8275C52.2208 37.8379 52.2217 37.8491 52.22 37.86V54.14C52.2217 54.1509 52.2208 54.162 52.2174 54.1725C52.214 54.183 52.2081 54.1925 52.2003 54.2003C52.1925 54.2081 52.183 54.214 52.1725 54.2174C52.162 54.2208 52.1509 54.2217 52.14 54.22H49.3V50C49.3098 49.7347 49.2648 49.4702 49.1677 49.2231C49.0707 48.9761 48.9237 48.7516 48.736 48.5639C48.5483 48.3762 48.3239 48.2293 48.0768 48.1322C47.8297 48.0352 47.5653 47.9902 47.3 48C46.5561 48.071 45.8549 48.3795 45.3 48.88C44.6551 49.4605 43.8271 49.7967 42.96 49.83C41.06 49.83 39.96 48.43 39.96 45.99C39.96 43.55 41.06 42.15 42.96 42.15C43.7542 42.1665 44.5094 42.4974 45.06 43.07C45.5612 43.6061 46.2476 43.9315 46.98 43.98C47.5572 44.0144 48.1258 43.8262 48.5685 43.4542C49.0112 43.0822 49.2945 42.5546 49.36 41.98V37.78H52.2H52.14ZM46.44 37.78V40.52C46.4456 40.5531 46.4456 40.5869 46.44 40.62C46.3863 40.5849 46.336 40.5447 46.29 40.5C45.8495 40.0807 45.33 39.7534 44.7617 39.5371C44.1934 39.3207 43.5877 39.2197 42.98 39.24C40.24 39.24 37.32 41.61 37.32 46C37.32 50.39 40.24 52.76 42.98 52.76C43.5877 52.7802 44.1934 52.6792 44.7617 52.4629C45.33 52.2465 45.8495 51.9192 46.29 51.5C46.336 51.4552 46.3863 51.4151 46.44 51.38C46.4456 51.4131 46.4456 51.4469 46.44 51.48V54.22H35.92C35.9091 54.2217 35.8979 54.2208 35.8875 54.2174C35.877 54.214 35.8674 54.2081 35.8596 54.2003C35.8518 54.1925 35.846 54.183 35.8426 54.1725C35.8392 54.162 35.8383 54.1509 35.84 54.14V37.86C35.8383 37.8491 35.8392 37.8379 35.8426 37.8275C35.846 37.817 35.8518 37.8074 35.8596 37.7996C35.8674 37.7918 35.877 37.786 35.8875 37.7826C35.8979 37.7791 35.9091 37.7783 35.92 37.78H46.44ZM52.2 37.23H48.81V42C48.7478 42.4304 48.524 42.821 48.184 43.0922C47.844 43.3635 47.4135 43.4949 46.98 43.46C45.52 43.46 45.16 41.64 42.98 41.64C40.8 41.64 39.43 43.26 39.43 46.02C39.43 48.78 40.79 50.4 42.98 50.4C45.17 50.4 45.91 48.58 47.37 48.58C47.5648 48.5683 47.7598 48.5981 47.9422 48.6673C48.1246 48.7366 48.2903 48.8437 48.4283 48.9817C48.5662 49.1197 48.6734 49.2853 48.7426 49.4677C48.8119 49.6502 48.8416 49.8452 48.83 50.04V54.79H52.22C52.3871 54.79 52.5473 54.7236 52.6655 54.6054C52.7836 54.4873 52.85 54.3271 52.85 54.16V37.88C52.85 37.7129 52.7836 37.5526 52.6655 37.4345C52.5473 37.3163 52.3871 37.25 52.22 37.25L52.2 37.23ZM46.98 37.23H35.92C35.7529 37.23 35.5927 37.2963 35.4745 37.4145C35.3564 37.5326 35.29 37.6929 35.29 37.86V54.14C35.29 54.3071 35.3564 54.4673 35.4745 54.5854C35.5927 54.7036 35.7529 54.77 35.92 54.77H46.98V51.48C46.98 51.17 46.82 50.78 46.49 50.78C46.2538 50.8122 46.039 50.9339 45.89 51.12C45.0933 51.8523 44.0416 52.2435 42.96 52.21C40.46 52.21 37.85 50.02 37.85 46C37.85 41.98 40.46 39.79 42.96 39.79C44.0416 39.7564 45.0933 40.1477 45.89 40.88C46.039 41.066 46.2538 41.1877 46.49 41.22C46.82 41.22 46.98 40.83 46.98 40.52V37.23Z" fill="white"/>
<defs>
<linearGradient id="paint0_linear_6488_8088" x1="28.7" y1="50.2499" x2="28.6" y2="6.8499" gradientUnits="userSpaceOnUse">
<stop stop-color="#333333"/>
<stop offset="1" stop-color="#808080"/>
</linearGradient>
<linearGradient id="paint1_linear_6488_8088" x1="28.95" y1="15.33" x2="28.7" y2="43.06" gradientUnits="userSpaceOnUse">
<stop stop-color="white"/>
<stop offset="1" stop-color="#999999"/>
</linearGradient>
<linearGradient id="paint2_linear_6488_8088" x1="28.71" y1="52.3501" x2="28.66" y2="33.89" gradientUnits="userSpaceOnUse">
<stop offset="0.39" stop-color="#E6E6E6"/>
<stop offset="1" stop-color="#404040"/>
</linearGradient>
<linearGradient id="paint3_linear_6488_8088" x1="44.06" y1="57.73" x2="43.83" y2="33.69" gradientUnits="userSpaceOnUse">
<stop stop-color="#333333"/>
<stop offset="1" stop-color="#4D4D4D"/>
</linearGradient>
<linearGradient id="paint4_linear_6488_8088" x1="49.87" y1="35.82" x2="38.13" y2="56.18" gradientUnits="userSpaceOnUse">
<stop stop-color="#F2F2F2"/>
<stop offset="1" stop-color="#4F4F4F"/>
</linearGradient>
</defs>
</svg>
