<?xml version="1.0" encoding="utf-8"?>
<!-- Generator: Adobe Illustrator 24.2.3, SVG Export Plug-In . SVG Version: 6.00 Build 0)  -->
<svg version="1.1" id="Layer_1" xmlns="http://www.w3.org/2000/svg" xmlns:xlink="http://www.w3.org/1999/xlink" x="0px" y="0px"
	 viewBox="0 0 64 64" style="enable-background:new 0 0 64 64;" xml:space="preserve">
<style type="text/css">
	.st0{fill:none;}
	.st1{fill:url(#SVGID_1_);}
	.st2{fill:url(#SVGID_2_);}
	.st3{fill:url(#SVGID_3_);}
	.st4{fill:#FFFFFF;}
	.st5{opacity:0.5;fill:#FFFFFF;enable-background:new    ;}
</style>
<g id="SceneCapture2D_x5F_64">
	<g>
		<rect class="st0" width="64" height="64"/>
		
			<radialGradient id="SVGID_1_" cx="26.1367" cy="215.7974" r="36.2941" gradientTransform="matrix(1 0 0 1 0 -190)" gradientUnits="userSpaceOnUse">
			<stop  offset="0" style="stop-color:#999999"/>
			<stop  offset="1" style="stop-color:#333333"/>
		</radialGradient>
		<rect x="15.3" y="15.4" class="st1" width="34.3" height="34.3"/>
		
			<radialGradient id="SVGID_2_" cx="25.6352" cy="216.2" r="9.1583" gradientTransform="matrix(1 0 0 1 0 -190)" gradientUnits="userSpaceOnUse">
			<stop  offset="0" style="stop-color:#FFFFFF"/>
			<stop  offset="1" style="stop-color:#FFFFFF;stop-opacity:0"/>
		</radialGradient>
		<path class="st2" d="M25.6,35.4c5.1,0,9.2-4.1,9.2-9.2S30.7,17,25.6,17s-9.2,4.1-9.2,9.2S20.6,35.4,25.6,35.4z"/>
		
			<linearGradient id="SVGID_3_" gradientUnits="userSpaceOnUse" x1="24.4558" y1="222.1006" x2="35.0456" y2="246.369" gradientTransform="matrix(1 0 0 1 0 -190)">
			<stop  offset="0" style="stop-color:#F2F2F2"/>
			<stop  offset="1" style="stop-color:#808080"/>
		</linearGradient>
		<path class="st3" d="M38.7,27.6l-8.8,17.6l-7.4-10l-8.8,12.7H49L38.7,27.6z"/>
		<path class="st4" d="M47.9,16.1v31.8H16.1V16.1H47.9z M51.1,12.9H12.9v38.2h38.2V12.9z"/>
		<path class="st4" d="M25.6,31.4c3.2,0,5.7-2.6,5.7-5.7S28.7,20,25.6,20s-5.7,2.6-5.7,5.7S22.5,31.4,25.6,31.4z"/>
		<path class="st5" d="M9.7,9.7h9.5V6.5H6.5v12.7h3.2V9.7z"/>
		<path class="st5" d="M54.3,9.7v9.5h3.2V6.5H44.7v3.2H54.3z"/>
		<path class="st5" d="M54.3,54.3h-9.5v3.2h12.7V44.7h-3.2V54.3z"/>
		<path class="st5" d="M9.7,54.3v-9.5H6.5v12.7h12.7v-3.2H9.7z"/>
	</g>
</g>
</svg>
