<?xml version="1.0" encoding="utf-8"?>
<!-- Generator: Adobe Illustrator 24.3.0, SVG Export Plug-In . SVG Version: 6.00 Build 0)  -->
<svg version="1.1" id="SceneCaptureCube_x5F_64" xmlns="http://www.w3.org/2000/svg" xmlns:xlink="http://www.w3.org/1999/xlink"
	 x="0px" y="0px" viewBox="0 0 64 64" style="enable-background:new 0 0 64 64;" xml:space="preserve">
<style type="text/css">
	.st0{fill:none;}
	.st1{fill:#B2B2B2;enable-background:new    ;}
	.st2{fill:url(#SVGID_1_);enable-background:new    ;}
	.st3{fill:url(#SVGID_2_);}
</style>
<rect x="0" class="st0" width="64" height="64"/>
<g>
	<path class="st1" d="M10.2,19.6H7.1V7h12.6v3.1h-9.4V19.6z M54.2,10.2v9.4h3.1V7H44.8v3.1H54.2z M54.2,54.1h-9.4v3.1h12.6V44.7
		h-3.1V54.1z M10.2,54.1v-9.4H7.1v12.6h12.6v-3.1H10.2z"/>
	<linearGradient id="SVGID_1_" gradientUnits="userSpaceOnUse" x1="28.6122" y1="22.1498" x2="51.8405" y2="44.1556">
		<stop  offset="0" style="stop-color:#999999"/>
		<stop  offset="1" style="stop-color:#4D4D4D"/>
	</linearGradient>
	<path class="st2" d="M51,45l-12.6,7.5V11.7L51,22.4V45z"/>
	<linearGradient id="SVGID_2_" gradientUnits="userSpaceOnUse" x1="14.6199" y1="18.2609" x2="44.3082" y2="46.3867">
		<stop  offset="0" style="stop-color:#F2F2F2"/>
		<stop  offset="1" style="stop-color:#B3B3B3"/>
	</linearGradient>
	<path class="st3" d="M13.4,19.6v26.7l25.1,6.3V11.7L13.4,19.6z"/>
</g>
</svg>
