<svg width="16" height="16" viewBox="0 0 16 16" fill="none" xmlns="http://www.w3.org/2000/svg">
<path d="M9 10V8H12.5L10.5 3.59L8.5 8.5L6 0L3 10H9Z" fill="#C0C0C0"/>
<path opacity="0.5" d="M0 11V13H9V11H1L2.5 6L0 11Z" fill="#C0C0C0"/>
<path d="M15 9V11.5C14 11.5 14 11 13 11C12.7348 11 12.4804 11.1054 12.2929 11.2929C12.1054 11.4804 12 11.7348 12 12V13C12 13.2652 12.1054 13.5196 12.2929 13.7071C12.4804 13.8946 12.7348 14 13 14C14 14 14 13.5 15 13.5V16H16V9H15Z" fill="#C0C0C0"/>
<path d="M14 15H12.5C12.1022 15 11.7206 14.842 11.4393 14.5607C11.158 14.2794 11 13.8978 11 13.5V11.5C11 11.1022 11.158 10.7206 11.4393 10.4393C11.7206 10.158 12.1022 10 12.5 10H14V9H10V16H14V15Z" fill="#C0C0C0"/>
</svg>
