<?xml version="1.0" encoding="utf-8"?>
<!-- Generator: Adobe Illustrator 25.0.0, SVG Export Plug-In . SVG Version: 6.00 Build 0)  -->
<svg version="1.1" id="Skeleton_x5F_64" xmlns="http://www.w3.org/2000/svg" xmlns:xlink="http://www.w3.org/1999/xlink" x="0px"
	 y="0px" viewBox="0 0 64 64" style="enable-background:new 0 0 64 64;" xml:space="preserve">
<style type="text/css">
	.st0{fill:url(#SVGID_1_);}
	.st1{fill:#FFFFFF;}
	.st2{fill:#BFBFBF;}
	.st3{fill:#A5A5A5;}
	.st4{fill-rule:evenodd;clip-rule:evenodd;fill:url(#SVGID_2_);}
	.st5{fill-rule:evenodd;clip-rule:evenodd;fill:url(#SVGID_3_);}
	.st6{fill-rule:evenodd;clip-rule:evenodd;fill:url(#SVGID_4_);}
	.st7{fill-rule:evenodd;clip-rule:evenodd;fill:url(#SVGID_5_);}
	.st8{fill-rule:evenodd;clip-rule:evenodd;fill:#A5A5A5;}
	.st9{fill-rule:evenodd;clip-rule:evenodd;fill:url(#SVGID_6_);}
	.st10{fill-rule:evenodd;clip-rule:evenodd;fill:url(#SVGID_7_);}
	.st11{fill-rule:evenodd;clip-rule:evenodd;fill:url(#SVGID_8_);}
	.st12{fill:none;}
</style>
<g>
	<g>
		<g>
			<g>
				<linearGradient id="SVGID_1_" gradientUnits="userSpaceOnUse" x1="31.1098" y1="19.5567" x2="31.315" y2="36.861">
					<stop  offset="0" style="stop-color:#383838"/>
					<stop  offset="0.2193" style="stop-color:#BFBFBF"/>
					<stop  offset="1" style="stop-color:#808080"/>
				</linearGradient>
				<path class="st0" d="M31.9,19h-1.4v17.7h1.4V19z"/>
				<path class="st1" d="M35.5,23.2H27c-0.3,0-0.6,0.2-0.6,0.5v0.3c0,0.3,0.2,0.5,0.6,0.5h8.5c0.3,0,0.6-0.2,0.6-0.5v-0.3
					C36,23.4,35.8,23.2,35.5,23.2z"/>
				<path class="st2" d="M34.8,25.8h-7c-0.3,0-0.6,0.2-0.6,0.5v0.3c0,0.3,0.2,0.5,0.6,0.5h7c0.3,0,0.6-0.2,0.6-0.5v-0.3
					C35.3,26,35.1,25.8,34.8,25.8z"/>
				<path class="st3" d="M34.2,28.3h-5.9c-0.3,0-0.6,0.2-0.6,0.5v0.3c0,0.3,0.2,0.5,0.6,0.5h5.9c0.3,0,0.6-0.2,0.6-0.5v-0.3
					C34.7,28.6,34.5,28.3,34.2,28.3z"/>
				<path class="st1" d="M36.7,20.6h-11c-0.4,0-0.6,0.3-0.6,0.6v0.1c0,0.3,0.3,0.6,0.6,0.6h11c0.4,0,0.6-0.3,0.6-0.6v-0.1
					C37.4,20.9,37.1,20.6,36.7,20.6z"/>
			</g>
			<linearGradient id="SVGID_2_" gradientUnits="userSpaceOnUse" x1="22.6695" y1="20.2423" x2="22.7777" y2="29.3666">
				<stop  offset="0" style="stop-color:#FFFFFF"/>
				<stop  offset="0.6346" style="stop-color:#AFAFAF"/>
				<stop  offset="1" style="stop-color:#808080"/>
			</linearGradient>
			<path class="st4" d="M22,29.1l1.8-7c0-0.1,0.1-0.1,0.1-0.2l0.6-0.4c0.1-0.1,0.2-0.2,0.1-0.4l-0.2-0.5c-0.1-0.2-0.3-0.3-0.5-0.2
				l-0.1,0c-0.2,0.1-0.3,0-0.5-0.1l0,0c-0.1-0.2-0.4-0.2-0.6-0.1l-0.5,0.4c-0.1,0.1-0.2,0.3-0.1,0.4l0.3,0.6c0,0.1,0.1,0.2,0,0.2
				l-1.8,7c0,0.2,0.1,0.4,0.3,0.4l0.4,0.1C21.7,29.4,21.9,29.3,22,29.1z"/>
			<linearGradient id="SVGID_3_" gradientUnits="userSpaceOnUse" x1="39.5267" y1="20.2347" x2="39.6353" y2="29.3929">
				<stop  offset="0" style="stop-color:#FFFFFF"/>
				<stop  offset="0.6346" style="stop-color:#AFAFAF"/>
				<stop  offset="1" style="stop-color:#808080"/>
			</linearGradient>
			<path class="st5" d="M40.3,29.1l-1.8-7c0-0.1-0.1-0.1-0.1-0.2l-0.6-0.4c-0.1-0.1-0.2-0.2-0.1-0.4l0.2-0.5
				c0.1-0.2,0.3-0.3,0.5-0.2l0.1,0c0.2,0.1,0.3,0,0.5-0.1l0,0c0.1-0.2,0.4-0.2,0.6-0.1l0.5,0.4c0.1,0.1,0.2,0.3,0.1,0.4l-0.3,0.6
				c0,0.1-0.1,0.2,0,0.2l1.8,7c0,0.2-0.1,0.4-0.3,0.4l-0.4,0.1C40.6,29.4,40.4,29.3,40.3,29.1z"/>
		</g>
		<ellipse class="st1" cx="23.7" cy="20.9" rx="1.7" ry="1.6"/>
		<ellipse class="st1" cx="38.7" cy="21.2" rx="1.7" ry="1.6"/>
		<ellipse class="st1" cx="41.5" cy="30.1" rx="1.7" ry="1.6"/>
		<ellipse class="st1" cx="21" cy="30.1" rx="1.7" ry="1.6"/>
		<linearGradient id="SVGID_4_" gradientUnits="userSpaceOnUse" x1="19.8808" y1="29.7395" x2="19.9889" y2="38.8637">
			<stop  offset="0" style="stop-color:#FFFFFF"/>
			<stop  offset="0.6346" style="stop-color:#AFAFAF"/>
			<stop  offset="1" style="stop-color:#808080"/>
		</linearGradient>
		<path class="st6" d="M19.2,38.6l1.8-7c0-0.1,0.1-0.1,0.1-0.2l0.6-0.4c0.1-0.1,0.2-0.2,0.1-0.4l-0.2-0.5c-0.1-0.2-0.3-0.3-0.5-0.2
			l-0.1,0c-0.2,0.1-0.3,0-0.5-0.1l0,0c-0.1-0.2-0.4-0.2-0.6-0.1l-0.5,0.4c-0.1,0.1-0.2,0.3-0.1,0.4l0.3,0.6c0,0.1,0.1,0.2,0,0.2
			l-1.8,7c0,0.2,0.1,0.4,0.3,0.4l0.4,0.1C18.9,38.9,19.1,38.8,19.2,38.6z"/>
		
			<linearGradient id="SVGID_5_" gradientUnits="userSpaceOnUse" x1="59.1806" y1="29.7395" x2="59.2888" y2="38.8637" gradientTransform="matrix(-1 0 0 1 101.6343 0)">
			<stop  offset="0" style="stop-color:#FFFFFF"/>
			<stop  offset="0.6346" style="stop-color:#AFAFAF"/>
			<stop  offset="1" style="stop-color:#808080"/>
		</linearGradient>
		<path class="st7" d="M43.1,38.6l-1.8-7c0-0.1-0.1-0.1-0.1-0.2l-0.6-0.4c-0.1-0.1-0.2-0.2-0.1-0.4l0.2-0.5c0.1-0.2,0.3-0.3,0.5-0.2
			l0.1,0c0.2,0.1,0.3,0,0.5-0.1l0,0c0.1-0.2,0.4-0.2,0.6-0.1l0.5,0.4c0.1,0.1,0.2,0.3,0.1,0.4l-0.3,0.6c0,0.1-0.1,0.2,0,0.2l1.8,7
			c0,0.2-0.1,0.4-0.3,0.4l-0.4,0.1C43.4,38.9,43.2,38.8,43.1,38.6z"/>
		<path class="st8" d="M34.4,33.8c0.7,0,1.1,1.1,0.7,1.8c-0.8,1.3-2.3,2.2-4.1,2.2c-1.8,0-3.3-0.9-4.1-2.2c-0.4-0.7,0-1.8,0.7-1.8
			H34.4z"/>
		<ellipse class="st1" cx="44.1" cy="39.4" rx="1.7" ry="1.6"/>
		<ellipse class="st1" cx="18.6" cy="38.9" rx="1.7" ry="1.6"/>
		<linearGradient id="SVGID_6_" gradientUnits="userSpaceOnUse" x1="26.4671" y1="39.2557" x2="24.9255" y2="56.2137">
			<stop  offset="0" style="stop-color:#FFFFFF"/>
			<stop  offset="0.6346" style="stop-color:#AFAFAF"/>
			<stop  offset="1" style="stop-color:#808080"/>
		</linearGradient>
		<path class="st9" d="M28.4,40.9l-1.8,13.9c0,0.4-0.4,0.6-0.8,0.6h-0.5c-0.4,0-0.8-0.3-0.8-0.7V38.5c0-0.7,0.8-1,1.3-0.5l2.3,2.3
			C28.3,40.4,28.4,40.7,28.4,40.9z"/>
		<linearGradient id="SVGID_7_" gradientUnits="userSpaceOnUse" x1="35.8529" y1="37.0515" x2="37.4538" y2="56.4997">
			<stop  offset="0" style="stop-color:#FFFFFF"/>
			<stop  offset="0.6346" style="stop-color:#AFAFAF"/>
			<stop  offset="1" style="stop-color:#808080"/>
		</linearGradient>
		<path class="st10" d="M34.4,40.3l2.3-2.3c0.5-0.5,1.3-0.2,1.3,0.5v16.2c0,0.4-0.3,0.7-0.8,0.7h-0.5c-0.4,0-0.7-0.3-0.8-0.6
			l-1.8-13.9C34.1,40.7,34.2,40.4,34.4,40.3z"/>
	</g>
	<linearGradient id="SVGID_8_" gradientUnits="userSpaceOnUse" x1="31.175" y1="18.1322" x2="31.2351" y2="8.5739">
		<stop  offset="0" style="stop-color:#B3B3B3"/>
		<stop  offset="1" style="stop-color:#FFFFFF"/>
	</linearGradient>
	<path class="st11" d="M31.2,8.6c-2.3,0-4.1,0.9-4.1,2v4.5c0,0.2,0.2,0.3,0.3,0.3h1.3c0.2,0,0.3,0.2,0.3,0.3v1.6
		c0,0.1,0.1,0.3,0.2,0.3c1.3,0.6,2.6,0.6,3.9,0c0.1-0.1,0.2-0.2,0.2-0.3v-1.6c0-0.2,0.2-0.3,0.3-0.3H35c0.2,0,0.3-0.2,0.3-0.3v-4.5
		C35.3,9.5,33.5,8.6,31.2,8.6z M28.8,13.8c-0.3,0.1-0.5-0.1-0.5-0.4v-1.6c0-0.2,0.2-0.4,0.4-0.4h1.6c0.3,0,0.4,0.2,0.4,0.5
		C30.5,13,29.8,13.6,28.8,13.8z M31.8,15.1h-1.2c-0.1,0-0.2-0.1-0.1-0.1l0.6-0.9c0.1-0.1,0.2-0.1,0.3,0L32,15
		C32,15,31.9,15.1,31.8,15.1z M34.2,13.4c0,0.3-0.3,0.5-0.5,0.4c-1.1-0.3-1.8-0.9-1.9-1.9c0-0.3,0.1-0.5,0.4-0.5h1.6
		c0.2,0,0.4,0.2,0.4,0.4V13.4z"/>
	<rect x="0" class="st12" width="64" height="64"/>
</g>
</svg>
