<svg width="16" height="16" viewBox="0 0 16 16" fill="none" xmlns="http://www.w3.org/2000/svg">
<path d="M10.96 6.39961L13.99 4.34961L10.53 5.47961C10.38 5.25961 10.19 5.07961 9.99002 4.89961L11.88 2.01961L9.26002 4.42961C9.03002 4.32961 8.78002 4.24961 8.52002 4.20961L8.00002 1.09961L7.48002 4.20961C7.23002 4.24961 6.98002 4.31961 6.76002 4.41961L4.13002 2.01961L6.01002 4.89961C5.81002 5.06961 5.62002 5.25961 5.47002 5.47961L2.01002 4.34961L5.04002 6.39961C4.98002 6.59961 4.94002 6.81961 4.93002 7.03961L1.52002 7.33961L4.85002 7.80961C5.74002 7.67961 6.78002 7.58961 8.00002 7.58961C9.22002 7.58961 10.26 7.67961 11.16 7.80961L14.49 7.33961L11.08 7.03961C11.06 6.81961 11.02 6.60961 10.96 6.39961Z" fill="white"/>
<path opacity="0.5" d="M16 14C16 14 14 10.91 8 10.91C2 10.91 0 14 0 14C0 14 1.5 9 8 9C14.5 9 16 14 16 14Z" fill="white"/>
</svg>
