<svg width="16" height="16" viewBox="0 0 16 16" fill="none" xmlns="http://www.w3.org/2000/svg">
<path d="M11 6.39961L14 4.29961L10.5 5.39961C10.3 5.19961 10.2 4.99961 10 4.79961L11.9 1.99961L9.3 4.39961C9 4.29961 8.8 4.29961 8.5 4.19961L8 1.09961L7.5 4.19961C7.2 4.19961 7 4.29961 6.8 4.39961L4.1 1.99961L6 4.89961C5.8 5.09961 5.6 5.29961 5.5 5.49961L2 4.29961L5 6.39961C5 6.59961 4.9 6.79961 4.9 6.99961L1.5 7.29961L4.8 7.79961C5.7 7.69961 6.8 7.59961 8 7.59961C9.2 7.59961 10.3 7.69961 11.2 7.79961L14.5 7.29961L11.1 6.99961C11.1 6.79961 11 6.59961 11 6.39961Z" fill="white"/>
<path opacity="0.5" d="M16 14C16 14 14 10.9 8 10.9C2 10.9 0 14 0 14C0 14 1.5 9 8 9C14.5 9 16 14 16 14Z" fill="white"/>
</svg>
