<svg width="16" height="16" viewBox="0 0 16 16" fill="none" xmlns="http://www.w3.org/2000/svg">
<path d="M8 0.299805C3.6 0.299805 0 3.8998 0 8.2998C0 8.6998 -9.68575e-08 9.19981 0.0999999 9.59981H1.1C1 9.19981 1 8.6998 1 8.2998C1 4.3998 4.1 1.2998 8 1.2998C11.9 1.2998 15 4.3998 15 8.2998C15 8.7998 15 9.19981 14.9 9.59981H15.9C16 9.19981 16 8.6998 16 8.2998C16 3.8998 12.4 0.299805 8 0.299805Z" fill="white"/>
<path opacity="0.5" d="M1.1 9.59981C1 9.19981 1 8.6998 1 8.2998C1 4.3998 4.1 1.2998 8 1.2998C11.9 1.2998 15 4.3998 15 8.2998C15 8.7998 15 9.19981 14.9 9.59981C14.9 9.59981 12 7.59981 8 7.59981C4 7.59981 1.1 9.59981 1.1 9.59981Z" fill="white"/>
<path d="M8.6 12.3008H7.5V16.0008H8.6V12.3008Z" fill="white"/>
<path d="M11.5991 10.8247L10.8213 11.6025L13.2254 14.0067L14.0032 13.2289L11.5991 10.8247Z" fill="white"/>
<path d="M5.17234 11.5864L4.39453 10.8086L1.91968 13.2834L2.69749 14.0613L5.17234 11.5864Z" fill="white"/>
<path d="M8.00039 10.1004C9.16019 10.1004 10.1004 9.16019 10.1004 8.0004C10.1004 6.8406 9.16019 5.90039 8.00039 5.90039C6.84059 5.90039 5.90039 6.8406 5.90039 8.0004C5.90039 9.16019 6.84059 10.1004 8.00039 10.1004Z" fill="white"/>
</svg>
