<svg width="16" height="16" viewBox="0 0 16 16" fill="none" xmlns="http://www.w3.org/2000/svg">
<path d="M8 0.299805C3.6 0.299805 0 3.8998 0 8.2998C0 8.6998 0 9.19981 0.1 9.5998H1.1C1 9.19981 1 8.6998 1 8.2998C1 4.3998 4.1 1.2998 8 1.2998C11.9 1.2998 15 4.3998 15 8.2998C15 8.7998 15 9.19981 14.9 9.5998H15.9C16 9.19981 16 8.6998 16 8.2998C16 3.8998 12.4 0.299805 8 0.299805Z" fill="white"/>
<path opacity="0.5" d="M1.1 9.60078C1 9.20078 1 8.70078 1 8.30078C1 4.40078 4.1 1.30078 8 1.30078C11.9 1.30078 15 4.40078 15 8.30078C15 8.80078 15 9.20078 14.9 9.60078C14.9 9.60078 12 7.60078 8 7.60078C4 7.60078 1.1 9.60078 1.1 9.60078Z" fill="white"/>
<path d="M8.6 12.3008H7.5V16.0008H8.6V12.3008Z" fill="white"/>
<path d="M11.6006 10.8257L10.8228 11.6035L13.2269 14.0077L14.0047 13.2298L11.6006 10.8257Z" fill="white"/>
<path d="M5.17039 11.5884L4.39258 10.8105L1.91773 13.2854L2.69554 14.0632L5.17039 11.5884Z" fill="white"/>
<path d="M7.9999 10.1004C9.1597 10.1004 10.0999 9.16019 10.0999 8.00039C10.0999 6.84059 9.1597 5.90039 7.9999 5.90039C6.8401 5.90039 5.8999 6.84059 5.8999 8.00039C5.8999 9.16019 6.8401 10.1004 7.9999 10.1004Z" fill="white"/>
</svg>
