<?xml version="1.0" encoding="utf-8"?>
<!-- Generator: Adobe Illustrator 24.2.3, SVG Export Plug-In . SVG Version: 6.00 Build 0)  -->
<svg version="1.1" id="Layer_1" xmlns="http://www.w3.org/2000/svg" xmlns:xlink="http://www.w3.org/1999/xlink" x="0px" y="0px"
	 viewBox="0 0 64 64" style="enable-background:new 0 0 64 64;" xml:space="preserve">
<style type="text/css">
	.st0{fill:none;}
	.st1{fill:#E5E5E5;}
	.st2{opacity:0.5;fill:url(#SVGID_1_);enable-background:new    ;}
	.st3{fill:url(#SVGID_2_);}
	.st4{fill:url(#SVGID_3_);}
	.st5{fill:url(#SVGID_4_);}
	.st6{fill:#FFFFFF;}
</style>
<g id="SkyLight_x5F_64">
	<g>
		<rect class="st0" width="64" height="64"/>
		<path class="st1" d="M32.2,5.6C17.4,5.6,5.3,17.7,5.3,32.5c0,1.3,0,3,0.3,4.4H9c-0.3-1.3-0.3-3-0.3-4.4C8.7,19.4,19.1,9,32.2,9
			s23.5,10.4,23.5,23.5c0,1.7,0,3-0.3,4.4h3.4c0.3-1.3,0.3-3,0.3-4.4C59,17.7,46.9,5.6,32.2,5.6z"/>
		
			<radialGradient id="SVGID_1_" cx="32.2" cy="212.95" r="19.3242" fx="32.1143" fy="222.2279" gradientTransform="matrix(1 0 0 1 0 -190)" gradientUnits="userSpaceOnUse">
			<stop  offset="0.3529" style="stop-color:#FFFFFF"/>
			<stop  offset="0.728" style="stop-color:#808080"/>
			<stop  offset="1" style="stop-color:#3B3B3B"/>
		</radialGradient>
		<path class="st2" d="M9,36.9c-0.3-1.3-0.3-3-0.3-4.4C8.7,19.4,19.1,9,32.2,9s23.5,10.4,23.5,23.5c0,1.7,0,3-0.3,4.4
			c0,0-9.7-6.7-23.2-6.7S9,36.9,9,36.9z"/>
		
			<linearGradient id="SVGID_2_" gradientUnits="userSpaceOnUse" x1="32.3121" y1="235.9371" x2="32.3879" y2="248.3705" gradientTransform="matrix(1 0 0 1 0 -190)">
			<stop  offset="0" style="stop-color:#FFFFFF"/>
			<stop  offset="0.5187" style="stop-color:#B3B3B3"/>
			<stop  offset="1" style="stop-color:#808080"/>
		</linearGradient>
		<path class="st3" d="M32.8,45.9h-0.9c-0.8,0-1.4,0.6-1.4,1.4V57c0,0.8,0.6,1.4,1.4,1.4h0.9c0.8,0,1.4-0.6,1.4-1.4v-9.7
			C34.2,46.6,33.6,45.9,32.8,45.9z"/>
		
			<linearGradient id="SVGID_3_" gradientUnits="userSpaceOnUse" x1="47.0207" y1="231.5427" x2="47.0791" y2="241.113" gradientTransform="matrix(1 0 0 1 0 -190)">
			<stop  offset="0" style="stop-color:#FFFFFF"/>
			<stop  offset="0.5187" style="stop-color:#B3B3B3"/>
			<stop  offset="1" style="stop-color:#808080"/>
		</linearGradient>
		<path class="st4" d="M43.3,42l-0.6,0.6c-0.5,0.5-0.5,1.4,0,2l6.1,6.1c0.5,0.5,1.4,0.5,2,0l0.6-0.6c0.5-0.5,0.5-1.4,0-2L45.2,42
			C44.7,41.4,43.8,41.4,43.3,42z"/>
		
			<linearGradient id="SVGID_4_" gradientUnits="userSpaceOnUse" x1="17.1648" y1="231.5208" x2="17.2242" y2="241.2605" gradientTransform="matrix(1 0 0 1 0 -190)">
			<stop  offset="0" style="stop-color:#FFFFFF"/>
			<stop  offset="0.5187" style="stop-color:#B3B3B3"/>
			<stop  offset="1" style="stop-color:#808080"/>
		</linearGradient>
		<path class="st5" d="M21.7,42.6L21,41.9c-0.5-0.5-1.4-0.5-2,0l-6.3,6.3c-0.5,0.5-0.5,1.4,0,2l0.6,0.6c0.5,0.5,1.4,0.5,2,0l6.3-6.3
			C22.2,44,22.2,43.1,21.7,42.6z"/>
		<path class="st6" d="M32.2,38.8c4.4,0,7.9-3.5,7.9-7.9S36.6,23,32.2,23s-7.9,3.5-7.9,7.9S27.8,38.8,32.2,38.8z"/>
	</g>
</g>
</svg>
