<?xml version="1.0" encoding="utf-8"?>
<!-- Generator: Adobe Illustrator 24.3.0, SVG Export Plug-In . SVG Version: 6.00 Build 0)  -->
<svg version="1.1" id="SlatePrushAsset_x5F_64" xmlns="http://www.w3.org/2000/svg" xmlns:xlink="http://www.w3.org/1999/xlink"
	 x="0px" y="0px" viewBox="0 0 64 64" style="enable-background:new 0 0 64 64;" xml:space="preserve">
<style type="text/css">
	.st0{fill:none;}
	.st1{fill:url(#SVGID_1_);}
	.st2{fill:#999999;enable-background:new    ;}
	.st3{opacity:0.3;enable-background:new    ;}
	.st4{fill:url(#SVGID_2_);}
	.st5{fill:url(#SVGID_3_);}
	.st6{fill:url(#SVGID_4_);enable-background:new    ;}
	.st7{fill:url(#SVGID_5_);enable-background:new    ;}
</style>
<g>
	<rect x="0" class="st0" width="64" height="64"/>
	<linearGradient id="SVGID_1_" gradientUnits="userSpaceOnUse" x1="29.3217" y1="18.9094" x2="41.311" y2="49.7754">
		<stop  offset="0" style="stop-color:#666666"/>
		<stop  offset="1" style="stop-color:#1A1A1A"/>
	</linearGradient>
	<rect x="21.5" y="21.9" class="st1" width="27.6" height="24.8"/>
	<path class="st2" d="M49.1,46.7h-11l2.5-2.8h5.8v-6.9l2.8-3.3V46.7z M21.5,38.5l2.8-0.8v-13h16.5l2.8-2.8H21.5V38.5z"/>
	<path class="st3" d="M49.1,29.6c-2.7,3.4-5.2,6.6-6.6,8.1c-2.2,2.2-6.2,5.5-7.8,6.8c-0.4,0.3-1,0.3-1.4-0.1l-1.7-1.7
		c-0.4-0.4-0.4-1-0.1-1.4c1.4-1.7,4.7-5.7,6.8-7.8c1.8-1.8,7-5.2,10.8-8.1"/>
	<path class="st3" d="M33.1,46.7c0-0.1-0.1-0.3-0.1-0.4c-0.1-0.3-0.2-0.5-0.4-0.7l-1.2-1.2c-0.3-0.3-2.8,2.3-3.2,2.3"/>
	<linearGradient id="SVGID_2_" gradientUnits="userSpaceOnUse" x1="9.9087" y1="22.1663" x2="19.3678" y2="46.5186">
		<stop  offset="0" style="stop-color:#F2F2F2"/>
		<stop  offset="1" style="stop-color:#CCCCCC"/>
	</linearGradient>
	<path class="st4" d="M18.8,21.9h-8.3v24.8h8.3V21.9z"/>
	<linearGradient id="SVGID_3_" gradientUnits="userSpaceOnUse" x1="25.8762" y1="4.9357" x2="33.7281" y2="25.1501">
		<stop  offset="0" style="stop-color:#F2F2F2"/>
		<stop  offset="1" style="stop-color:#CCCCCC"/>
	</linearGradient>
	<path class="st5" d="M49.1,10.9H10.5v8.3h38.6V10.9z"/>
	<linearGradient id="SVGID_4_" gradientUnits="userSpaceOnUse" x1="31.646" y1="42.1698" x2="56.8466" y2="19.3441">
		<stop  offset="0" style="stop-color:#F2F2F2"/>
		<stop  offset="1" style="stop-color:#999999"/>
	</linearGradient>
	<path class="st6" d="M33.3,43l-1.7-1.7c-0.4-0.4-0.4-1-0.1-1.4c1.4-1.7,4.7-5.7,6.8-7.8C41.1,29.4,53,20.3,53,20.3
		c0.3-0.3,0.8-0.3,1.4,0c0.3,0.3,0.3,0.8,0,1.4c0,0-9.1,11.9-11.9,14.6c-2.2,2.2-6.2,5.5-7.8,6.8C34.3,43.5,33.6,43.4,33.3,43z"/>
	<linearGradient id="SVGID_5_" gradientUnits="userSpaceOnUse" x1="30.4358" y1="45.5606" x2="17.3052" y2="56.5797">
		<stop  offset="0" style="stop-color:#F2F2F2"/>
		<stop  offset="1" style="stop-color:#CCCCCC"/>
	</linearGradient>
	<path class="st7" d="M31.2,44.3L30,43.1c-0.3-0.3-0.7-0.5-1.2-0.5c-1.4,0.1-4.6,0.8-5.9,5.8C21.8,52.3,16,55,16,55s5.2,0,7.2,0
		s5.8-1.1,7.7-5c1.2-2.5,0.9-4.3,0.7-5.1C31.5,44.7,31.4,44.5,31.2,44.3z"/>
</g>
</svg>
