<svg width="16" height="16" viewBox="0 0 16 16" fill="none" xmlns="http://www.w3.org/2000/svg">
<path opacity="0.5" d="M14 13H10L10.9 12H13V9.5L14 8.3V13ZM4 10L5 9.7V5H11L12 4H4V10Z" fill="white"/>
<path d="M3 4H0V13H3V4Z" fill="white"/>
<path d="M14 0H0V3H14V0Z" fill="white"/>
<path opacity="0.5" d="M8.4999 11.8992L7.3999 10.7992C7.3999 10.7992 9.0999 8.69922 10.0999 7.69922C11.0999 6.69922 15.3999 3.39922 15.3999 3.39922C15.4999 3.29922 15.6999 3.29922 15.8999 3.39922C15.9999 3.49922 15.9999 3.69922 15.8999 3.89922C15.8999 3.89922 12.5999 8.19922 11.5999 9.19922C10.5999 10.1992 8.4999 11.8992 8.4999 11.8992Z" fill="white"/>
<path d="M7.6 12.1993L6.9 11.4993C6.9 11.4993 5.1 11.1993 4.5 13.5993C4.1 14.9993 2 15.9993 2 15.9993C2 15.9993 3.9 15.9993 4.6 15.9993C5.3 15.9993 6.7 15.5993 7.4 14.1993C8 12.9993 7.6 12.1993 7.6 12.1993Z" fill="white"/>
</svg>
