<svg width="16" height="16" viewBox="0 0 16 16" fill="none" xmlns="http://www.w3.org/2000/svg">
<path opacity="0.5" d="M4 10L5 9.7V5H11L12 4H4V10Z" fill="white"/>
<path opacity="0.5" d="M14 8.30078L13 9.50078V12.0008H10.9L10 13.0008H14V8.30078Z" fill="white"/>
<path d="M14 0H0V3H14V0Z" fill="white"/>
<path d="M3 4H0V13H3V4Z" fill="white"/>
<path opacity="0.5" d="M8.50039 11.8992L7.40039 10.7992C7.40039 10.7992 9.10039 8.69922 10.1004 7.69922C11.1004 6.69922 15.4004 3.39922 15.4004 3.39922C15.5004 3.29922 15.7004 3.29922 15.9004 3.39922C16.0004 3.49922 16.0004 3.69922 15.9004 3.89922C15.9004 3.89922 12.6004 8.19922 11.6004 9.19922C10.6004 10.1992 8.50039 11.8992 8.50039 11.8992Z" fill="white"/>
<path d="M7.6 12.1993L6.9 11.4993C6.9 11.4993 5.1 11.1993 4.5 13.5993C4.1 14.9993 2 15.9993 2 15.9993C2 15.9993 3.9 15.9993 4.6 15.9993C5.3 15.9993 6.7 15.5993 7.4 14.1993C8 12.9993 7.6 12.1993 7.6 12.1993Z" fill="white"/>
</svg>
