<?xml version="1.0" encoding="utf-8"?>
<!-- Generator: Adobe Illustrator 24.3.0, SVG Export Plug-In . SVG Version: 6.00 Build 0)  -->
<svg version="1.1" id="SoundConcurrency_x5F_64" xmlns="http://www.w3.org/2000/svg" xmlns:xlink="http://www.w3.org/1999/xlink"
	 x="0px" y="0px" viewBox="0 0 64 64" style="enable-background:new 0 0 64 64;" xml:space="preserve">
<style type="text/css">
	.st0{fill:url(#SVGID_1_);}
	.st1{fill:url(#SVGID_2_);}
	.st2{fill:url(#SVGID_3_);}
	.st3{fill:#7F7F7F;enable-background:new    ;}
	.st4{fill:#BFBFBF;enable-background:new    ;}
	.st5{fill:url(#SVGID_4_);}
	.st6{fill:url(#SVGID_5_);}
	.st7{fill:url(#SVGID_6_);}
	.st8{fill:url(#SVGID_7_);}
	.st9{fill:url(#SVGID_8_);}
	.st10{fill:url(#SVGID_9_);}
	.st11{fill:url(#SVGID_10_);}
	.st12{fill:url(#SVGID_11_);}
	.st13{fill:url(#SVGID_12_);}
	.st14{fill:none;}
</style>
<g>
	<g>
		<g>
			
				<linearGradient id="SVGID_1_" gradientUnits="userSpaceOnUse" x1="34.5075" y1="31.2375" x2="34.5247" y2="41.3222" gradientTransform="matrix(0 1 -1 0 82.0665 -23.6197)">
				<stop  offset="0" style="stop-color:#808080"/>
				<stop  offset="0.508" style="stop-color:#D9D9D9"/>
				<stop  offset="1" style="stop-color:#808080"/>
			</linearGradient>
			<path class="st0" d="M40.7,13.8V13c0-2.8,2.3-5,5-5h0c2.8,0,5,2.3,5,5v0.8H40.7z"/>
			
				<linearGradient id="SVGID_2_" gradientUnits="userSpaceOnUse" x1="41.2036" y1="26.0282" x2="41.1284" y2="46.3453" gradientTransform="matrix(0 1 -1 0 82.0665 -23.6197)">
				<stop  offset="0" style="stop-color:#808080"/>
				<stop  offset="0.5053" style="stop-color:#D7D8D9"/>
				<stop  offset="0.5421" style="stop-color:#D9D9D9"/>
				<stop  offset="1" style="stop-color:#808080"/>
			</linearGradient>
			<path class="st1" d="M35.8,20.1l4.9-6.3h10.1l4.9,6.3c0.3,0.4,0,1.1-0.5,1.1H36.3C35.8,21.2,35.4,20.6,35.8,20.1z"/>
			
				<linearGradient id="SVGID_3_" gradientUnits="userSpaceOnUse" x1="35.1865" y1="36.2876" x2="37.467" y2="36.2876" gradientTransform="matrix(0 1 -1 0 82.0665 -23.6197)">
				<stop  offset="0" style="stop-color:#4D4D4D;stop-opacity:0"/>
				<stop  offset="0.9893" style="stop-color:#4D4D4D;stop-opacity:0.5"/>
			</linearGradient>
			<polygon class="st2" points="40.7,11.6 40.7,13.8 50.8,13.8 50.8,11.6 			"/>
		</g>
		<g>
			<path class="st3" d="M54.6,23.4c-2.1,3.4-5.5,5.1-8.8,5.1c-3.3,0-6.7-1.7-8.8-5.1c2.8,2.1,5.8,3.1,8.8,3.1
				C48.8,26.5,51.8,25.5,54.6,23.4z"/>
			<path class="st4" d="M50.3,22.4c-1.1,1.3-2.8,2-4.5,2c-1.7,0-3.4-0.7-4.5-2C42.7,23.2,48.9,23.2,50.3,22.4z"/>
		</g>
	</g>
	<g>
		<g>
			
				<linearGradient id="SVGID_4_" gradientUnits="userSpaceOnUse" x1="58.7548" y1="14.8245" x2="58.7721" y2="24.9092" gradientTransform="matrix(-1 0 0 -1 111.8618 65.7718)">
				<stop  offset="0" style="stop-color:#808080"/>
				<stop  offset="0.508" style="stop-color:#D9D9D9"/>
				<stop  offset="1" style="stop-color:#808080"/>
			</linearGradient>
			<path class="st5" d="M50.2,40.9H51c2.8,0,5,2.3,5,5v0c0,2.8-2.3,5-5,5h-0.8V40.9z"/>
			
				<linearGradient id="SVGID_5_" gradientUnits="userSpaceOnUse" x1="65.439" y1="9.6032" x2="65.3638" y2="29.9203" gradientTransform="matrix(-1 0 0 -1 111.8618 65.7718)">
				<stop  offset="0" style="stop-color:#808080"/>
				<stop  offset="0.5053" style="stop-color:#D7D8D9"/>
				<stop  offset="0.5421" style="stop-color:#D9D9D9"/>
				<stop  offset="1" style="stop-color:#808080"/>
			</linearGradient>
			<path class="st6" d="M43.9,35.9l6.3,4.9V51l-6.3,4.9c-0.4,0.3-1.1,0-1.1-0.5V36.5C42.8,35.9,43.4,35.6,43.9,35.9z"/>
			
				<linearGradient id="SVGID_6_" gradientUnits="userSpaceOnUse" x1="59.4219" y1="19.8625" x2="61.7024" y2="19.8625" gradientTransform="matrix(-1 0 0 -1 111.8618 65.7718)">
				<stop  offset="0" style="stop-color:#4D4D4D;stop-opacity:0"/>
				<stop  offset="0.9893" style="stop-color:#4D4D4D;stop-opacity:0.5"/>
			</linearGradient>
			<polygon class="st7" points="52.4,40.9 50.2,40.9 50.2,51 52.4,51 			"/>
		</g>
		<g>
			<path class="st3" d="M40.6,54.7c-3.4-2.1-5.1-5.5-5.1-8.8c0-3.3,1.7-6.7,5.1-8.8c-2.1,2.8-3.1,5.8-3.1,8.8S38.5,51.9,40.6,54.7z"
				/>
			<path class="st4" d="M41.6,50.4c-1.3-1.1-2-2.8-2-4.5s0.7-3.4,2-4.5C40.8,42.8,40.8,49,41.6,50.4z"/>
		</g>
	</g>
	<g>
		<g>
			
				<linearGradient id="SVGID_7_" gradientUnits="userSpaceOnUse" x1="41.1285" y1="11.2757" x2="41.1458" y2="21.3604" gradientTransform="matrix(0 -1 1 0 3.144 94.2408)">
				<stop  offset="0" style="stop-color:#808080"/>
				<stop  offset="0.508" style="stop-color:#D9D9D9"/>
				<stop  offset="1" style="stop-color:#808080"/>
			</linearGradient>
			<path class="st8" d="M24.5,50.2V51c0,2.8-2.3,5-5,5h0c-2.8,0-5-2.3-5-5v-0.8H24.5z"/>
			
				<linearGradient id="SVGID_8_" gradientUnits="userSpaceOnUse" x1="47.8247" y1="6.0665" x2="47.7494" y2="26.3835" gradientTransform="matrix(0 -1 1 0 3.144 94.2408)">
				<stop  offset="0" style="stop-color:#808080"/>
				<stop  offset="0.5053" style="stop-color:#D7D8D9"/>
				<stop  offset="0.5421" style="stop-color:#D9D9D9"/>
				<stop  offset="1" style="stop-color:#808080"/>
			</linearGradient>
			<path class="st9" d="M29.5,43.9l-4.9,6.3H14.4l-4.9-6.3c-0.3-0.4,0-1.1,0.5-1.1h18.9C29.5,42.8,29.8,43.4,29.5,43.9z"/>
			
				<linearGradient id="SVGID_9_" gradientUnits="userSpaceOnUse" x1="41.8076" y1="16.3258" x2="44.088" y2="16.3258" gradientTransform="matrix(0 -1 1 0 3.144 94.2408)">
				<stop  offset="0" style="stop-color:#4D4D4D;stop-opacity:0"/>
				<stop  offset="0.9893" style="stop-color:#4D4D4D;stop-opacity:0.5"/>
			</linearGradient>
			<polygon class="st10" points="24.5,52.4 24.5,50.2 14.4,50.2 14.4,52.4 			"/>
		</g>
		<g>
			<path class="st3" d="M10.7,40.6c2.1-3.4,5.5-5.1,8.8-5.1c3.3,0,6.7,1.7,8.8,5.1c-2.8-2.1-5.8-3.1-8.8-3.1S13.5,38.5,10.7,40.6z"
				/>
			<path class="st4" d="M14.9,41.6c1.1-1.3,2.8-2,4.5-2s3.4,0.7,4.5,2C22.5,40.8,16.4,40.8,14.9,41.6z"/>
		</g>
	</g>
	<g>
		<g>
			
				<linearGradient id="SVGID_10_" gradientUnits="userSpaceOnUse" x1="28.6037" y1="17.2035" x2="28.621" y2="27.2882" gradientTransform="matrix(1 0 0 1 -16.325 -4.1507)">
				<stop  offset="0" style="stop-color:#808080"/>
				<stop  offset="0.508" style="stop-color:#D9D9D9"/>
				<stop  offset="1" style="stop-color:#808080"/>
			</linearGradient>
			<path class="st11" d="M15.2,23.1h-0.8c-2.8,0-5-2.3-5-5v0c0-2.8,2.3-5,5-5h0.8V23.1z"/>
			
				<linearGradient id="SVGID_11_" gradientUnits="userSpaceOnUse" x1="35.2879" y1="11.9822" x2="35.2127" y2="32.2992" gradientTransform="matrix(1 0 0 1 -16.325 -4.1507)">
				<stop  offset="0" style="stop-color:#808080"/>
				<stop  offset="0.5053" style="stop-color:#D7D8D9"/>
				<stop  offset="0.5421" style="stop-color:#D9D9D9"/>
				<stop  offset="1" style="stop-color:#808080"/>
			</linearGradient>
			<path class="st12" d="M21.5,28.1l-6.3-4.9V13l6.3-4.9c0.4-0.3,1.1,0,1.1,0.5v18.9C22.6,28.1,22,28.4,21.5,28.1z"/>
			
				<linearGradient id="SVGID_12_" gradientUnits="userSpaceOnUse" x1="29.2708" y1="22.2415" x2="31.5513" y2="22.2415" gradientTransform="matrix(1 0 0 1 -16.325 -4.1507)">
				<stop  offset="0" style="stop-color:#4D4D4D;stop-opacity:0"/>
				<stop  offset="0.9893" style="stop-color:#4D4D4D;stop-opacity:0.5"/>
			</linearGradient>
			<rect x="12.9" y="13" class="st13" width="2.3" height="10.1"/>
		</g>
		<g>
			<path class="st3" d="M24.8,9.3c3.4,2.1,5.1,5.5,5.1,8.8c0,3.3-1.7,6.7-5.1,8.8c2.1-2.8,3.1-5.8,3.1-8.8
				C27.9,15.1,26.9,12.1,24.8,9.3z"/>
			<path class="st4" d="M23.8,13.6c1.3,1.1,2,2.8,2,4.5s-0.7,3.4-2,4.5C24.6,21.2,24.6,15,23.8,13.6z"/>
		</g>
	</g>
	<rect x="0" class="st14" width="64" height="64"/>
</g>
</svg>
