<?xml version="1.0" encoding="utf-8"?>
<!-- Generator: Adobe Illustrator 25.0.0, SVG Export Plug-In . SVG Version: 6.00 Build 0)  -->
<svg version="1.1" id="SoundEffectSourcePresetChain_x5F_64"
	 xmlns="http://www.w3.org/2000/svg" xmlns:xlink="http://www.w3.org/1999/xlink" x="0px" y="0px" viewBox="0 0 64 64"
	 style="enable-background:new 0 0 64 64;" xml:space="preserve">
<style type="text/css">
	.st0{fill:url(#SVGID_1_);}
	.st1{fill:none;stroke:#3F3F3F;stroke-miterlimit:10;}
	.st2{fill:url(#SVGID_2_);}
	.st3{fill:url(#SVGID_3_);}
	.st4{fill:url(#SVGID_4_);}
	.st5{fill:url(#SVGID_5_);}
	.st6{fill:url(#SVGID_6_);}
	.st7{fill:url(#SVGID_7_);}
	.st8{fill:none;}
</style>
<g>
	<linearGradient id="SVGID_1_" gradientUnits="userSpaceOnUse" x1="9.7684" y1="31.9507" x2="57.0764" y2="31.631">
		<stop  offset="0" style="stop-color:#808080;stop-opacity:0"/>
		<stop  offset="0.2487" style="stop-color:#666666"/>
		<stop  offset="0.6904" style="stop-color:#666666"/>
		<stop  offset="1" style="stop-color:#999999;stop-opacity:0"/>
	</linearGradient>
	<polygon class="st0" points="56.3,51.7 8.7,43.7 8.7,19.6 56.3,11.6 	"/>
	<polyline class="st1" points="24,31.5 25.1,31.5 28,24.6 28.6,38 30.5,31.6 32.2,31.6 	"/>
	<polyline class="st1" points="47.4,31.8 48.6,31.8 51.4,25 52,38.3 53.9,32 55.7,32 	"/>
	<g>
		<linearGradient id="SVGID_2_" gradientUnits="userSpaceOnUse" x1="13.0632" y1="25.8844" x2="13.0829" y2="37.3979">
			<stop  offset="0" style="stop-color:#808080"/>
			<stop  offset="0.508" style="stop-color:#D9D9D9"/>
			<stop  offset="1" style="stop-color:#808080"/>
		</linearGradient>
		<path class="st2" d="M16.4,37.4h-1c-3.2,0-5.8-2.6-5.8-5.8v0c0-3.2,2.6-5.8,5.8-5.8h1V37.4z"/>
		<linearGradient id="SVGID_3_" gradientUnits="userSpaceOnUse" x1="20.6944" y1="19.9233" x2="20.6085" y2="43.119">
			<stop  offset="0" style="stop-color:#808080"/>
			<stop  offset="0.5053" style="stop-color:#D7D8D9"/>
			<stop  offset="0.5421" style="stop-color:#D9D9D9"/>
			<stop  offset="1" style="stop-color:#808080"/>
		</linearGradient>
		<path class="st3" d="M23.6,43l-7.2-5.6V25.9l7.2-5.6c0.5-0.4,1.2,0,1.2,0.6v21.6C24.9,43.1,24.1,43.4,23.6,43z"/>
		<linearGradient id="SVGID_4_" gradientUnits="userSpaceOnUse" x1="13.8248" y1="31.6362" x2="16.4283" y2="31.6362">
			<stop  offset="0" style="stop-color:#4D4D4D;stop-opacity:0"/>
			<stop  offset="0.9893" style="stop-color:#4D4D4D;stop-opacity:0.5"/>
		</linearGradient>
		<rect x="13.8" y="25.9" class="st4" width="2.6" height="11.5"/>
	</g>
	<g>
		<linearGradient id="SVGID_5_" gradientUnits="userSpaceOnUse" x1="35.6" y1="25.8844" x2="35.6198" y2="37.3979">
			<stop  offset="0" style="stop-color:#808080"/>
			<stop  offset="0.508" style="stop-color:#D9D9D9"/>
			<stop  offset="1" style="stop-color:#808080"/>
		</linearGradient>
		<path class="st5" d="M39,37.4h-1c-3.2,0-5.8-2.6-5.8-5.8v0c0-3.2,2.6-5.8,5.8-5.8h1V37.4z"/>
		<linearGradient id="SVGID_6_" gradientUnits="userSpaceOnUse" x1="43.2313" y1="19.9233" x2="43.1454" y2="43.119">
			<stop  offset="0" style="stop-color:#808080"/>
			<stop  offset="0.5053" style="stop-color:#D7D8D9"/>
			<stop  offset="0.5421" style="stop-color:#D9D9D9"/>
			<stop  offset="1" style="stop-color:#808080"/>
		</linearGradient>
		<path class="st6" d="M46.2,43L39,37.4V25.9l7.2-5.6c0.5-0.4,1.2,0,1.2,0.6v21.6C47.4,43.1,46.7,43.4,46.2,43z"/>
		<linearGradient id="SVGID_7_" gradientUnits="userSpaceOnUse" x1="36.3616" y1="31.6362" x2="38.9652" y2="31.6362">
			<stop  offset="0" style="stop-color:#4D4D4D;stop-opacity:0"/>
			<stop  offset="0.9893" style="stop-color:#4D4D4D;stop-opacity:0.5"/>
		</linearGradient>
		<rect x="36.4" y="25.9" class="st7" width="2.6" height="11.5"/>
	</g>
	<rect x="0" class="st8" width="64" height="64"/>
</g>
</svg>
