<?xml version="1.0" encoding="utf-8"?>
<!-- Generator: Adobe Illustrator 24.3.0, SVG Export Plug-In . SVG Version: 6.00 Build 0)  -->
<svg version="1.1" id="SoundMix_x5F_64_1_" xmlns="http://www.w3.org/2000/svg" xmlns:xlink="http://www.w3.org/1999/xlink" x="0px"
	 y="0px" viewBox="0 0 64 64" style="enable-background:new 0 0 64 64;" xml:space="preserve">
<style type="text/css">
	.st0{fill:none;}
	.st1{fill:url(#SVGID_1_);}
	.st2{fill:url(#SVGID_2_);}
	.st3{fill:url(#SVGID_3_);}
	.st4{fill:url(#SVGID_4_);}
	.st5{fill:url(#SVGID_5_);}
	.st6{fill:url(#SVGID_6_);}
	.st7{fill:url(#SVGID_7_);}
	.st8{fill:url(#SVGID_8_);}
	.st9{fill:url(#SVGID_9_);}
</style>
<g>
	<rect x="0" class="st0" width="64" height="64"/>
	<g>
		<linearGradient id="SVGID_1_" gradientUnits="userSpaceOnUse" x1="12.0458" y1="24.4146" x2="12.0723" y2="39.8381">
			<stop  offset="0" style="stop-color:#808080"/>
			<stop  offset="0.508" style="stop-color:#D9D9D9"/>
			<stop  offset="1" style="stop-color:#808080"/>
		</linearGradient>
		<path class="st1" d="M16.6,39.8h-2.3c-3.7,0-6.7-3-6.7-6.7v-2c0-3.7,3-6.7,6.7-6.7h2.3V39.8z"/>
		<linearGradient id="SVGID_2_" gradientUnits="userSpaceOnUse" x1="22.2683" y1="16.4317" x2="22.1533" y2="47.5011">
			<stop  offset="0" style="stop-color:#808080"/>
			<stop  offset="0.5053" style="stop-color:#D7D8D9"/>
			<stop  offset="0.5421" style="stop-color:#D9D9D9"/>
			<stop  offset="1" style="stop-color:#808080"/>
		</linearGradient>
		<path class="st2" d="M26.2,47.4l-9.6-7.6V24.4l9.6-7.6c0.7-0.5,1.7,0,1.7,0.8v28.9C27.8,47.4,26.9,47.9,26.2,47.4z"/>
		<linearGradient id="SVGID_3_" gradientUnits="userSpaceOnUse" x1="13.0668" y1="32.1206" x2="16.5541" y2="32.1206">
			<stop  offset="0" style="stop-color:#4D4D4D;stop-opacity:0"/>
			<stop  offset="0.9893" style="stop-color:#4D4D4D;stop-opacity:0.5"/>
		</linearGradient>
		<rect x="13.1" y="24.4" class="st3" width="3.5" height="15.4"/>
	</g>
	<linearGradient id="SVGID_4_" gradientUnits="userSpaceOnUse" x1="38.0186" y1="52.021" x2="38.1449" y2="12.9894">
		<stop  offset="0" style="stop-color:#999999"/>
		<stop  offset="1" style="stop-color:#808080"/>
	</linearGradient>
	<path class="st4" d="M38.1,54.4L38.1,54.4c-0.9,0-1.6-0.7-1.6-1.6V11.5c0-0.9,0.7-1.6,1.6-1.6l0,0c0.9,0,1.6,0.7,1.6,1.6v41.2
		C39.7,53.6,39,54.4,38.1,54.4z"/>
	<linearGradient id="SVGID_5_" gradientUnits="userSpaceOnUse" x1="38.037" y1="52.689" x2="38.1272" y2="24.8416">
		<stop  offset="0.7817" style="stop-color:#999999"/>
		<stop  offset="0.8258" style="stop-color:#919191"/>
		<stop  offset="0.8941" style="stop-color:#7B7B7B"/>
		<stop  offset="0.9777" style="stop-color:#585858"/>
		<stop  offset="1" style="stop-color:#4D4D4D"/>
	</linearGradient>
	<path class="st5" d="M38.1,54.4L38.1,54.4c-0.9,0-1.6-0.7-1.6-1.6V24.3c0-0.9,0.7-1.6,1.6-1.6l0,0c0.9,0,1.6,0.7,1.6,1.6v28.4
		C39.7,53.6,39,54.4,38.1,54.4z"/>
	<linearGradient id="SVGID_6_" gradientUnits="userSpaceOnUse" x1="38.0758" y1="24.8492" x2="38.0899" y2="20.4958">
		<stop  offset="0" style="stop-color:#E6E6E6"/>
		<stop  offset="0.8832" style="stop-color:#B3B3B3"/>
		<stop  offset="1" style="stop-color:#F2F2F2"/>
	</linearGradient>
	<path class="st6" d="M43.2,25.1H33c-0.4,0-0.8-0.3-0.8-0.8v-3.4c0-0.4,0.3-0.8,0.8-0.8h10.2c0.4,0,0.8,0.3,0.8,0.8v3.4
		C43.9,24.8,43.6,25.1,43.2,25.1z"/>
	<linearGradient id="SVGID_7_" gradientUnits="userSpaceOnUse" x1="51.5796" y1="51.9004" x2="51.7059" y2="12.8688">
		<stop  offset="0" style="stop-color:#999999"/>
		<stop  offset="1" style="stop-color:#808080"/>
	</linearGradient>
	<path class="st7" d="M51.6,54.2L51.6,54.2c-0.9,0-1.6-0.7-1.6-1.6V11.4c0-0.9,0.7-1.6,1.6-1.6h0c0.9,0,1.6,0.7,1.6,1.6v41.2
		C53.3,53.5,52.6,54.2,51.6,54.2z"/>
	<linearGradient id="SVGID_8_" gradientUnits="userSpaceOnUse" x1="51.6183" y1="53.3013" x2="51.6687" y2="37.7259">
		<stop  offset="0.7107" style="stop-color:#999999"/>
		<stop  offset="0.7691" style="stop-color:#919191"/>
		<stop  offset="0.8596" style="stop-color:#7B7B7B"/>
		<stop  offset="0.9704" style="stop-color:#585858"/>
		<stop  offset="1" style="stop-color:#4D4D4D"/>
	</linearGradient>
	<path class="st8" d="M51.6,54.2L51.6,54.2c-0.9,0-1.6-0.7-1.6-1.6V38.1c0-0.9,0.7-1.6,1.6-1.6h0c0.9,0,1.6,0.7,1.6,1.6v14.5
		C53.3,53.5,52.6,54.2,51.6,54.2z"/>
	<linearGradient id="SVGID_9_" gradientUnits="userSpaceOnUse" x1="51.6368" y1="38.1268" x2="51.6509" y2="33.7733">
		<stop  offset="5.076142e-03" style="stop-color:#E6E6E6"/>
		<stop  offset="0.9086" style="stop-color:#B3B3B3"/>
		<stop  offset="1" style="stop-color:#F2F2F2"/>
	</linearGradient>
	<path class="st9" d="M56.7,38.4H46.6c-0.4,0-0.8-0.3-0.8-0.8v-3.4c0-0.4,0.3-0.8,0.8-0.8h10.2c0.4,0,0.8,0.3,0.8,0.8v3.4
		C57.5,38,57.2,38.4,56.7,38.4z"/>
</g>
</svg>
