<svg width="16" height="16" viewBox="0 0 16 16" fill="none" xmlns="http://www.w3.org/2000/svg">
<path opacity="0.5" d="M7 8.40078V5.00078L9.5 4.00078L8.9 9.00078L8.6 6.80078L8 8.50078V8.40078H7ZM9.7 3.90078L10.3 10.3008L10.8 4.00078H11.2L11.7 10.8008L12.2 5.30078H12.6L13.1 9.60078L13.8 4.50078L14.5 9.10078L14.8 7.20078L15.4 8.30078H16V1.30078L9.7 3.90078ZM15 8.60078L14.5 12.0008L13.8 7.40078L13.1 12.8008L12.4 7.20078L11.9 13.2008H11.5L11 6.50078L10.5 12.5008H10.1L9.5 6.80078L8.8 12.1008L8.4 8.60078L8.2 9.10078L7.8 8.80078H7V12.0008L16 15.6008V8.80078H15.2L15 8.60078Z" fill="white"/>
<path d="M0 6H2.5L6 2.5V14.5L2.5 11H0V6Z" fill="white"/>
</svg>
