<?xml version="1.0" encoding="utf-8"?>
<!-- Generator: Adobe Illustrator 25.0.0, SVG Export Plug-In . SVG Version: 6.00 Build 0)  -->
<svg version="1.1" id="SoundSourceBus_x5F_64" xmlns="http://www.w3.org/2000/svg" xmlns:xlink="http://www.w3.org/1999/xlink"
	 x="0px" y="0px" viewBox="0 0 64 64" style="enable-background:new 0 0 64 64;" xml:space="preserve">
<style type="text/css">
	.st0{fill:url(#SVGID_1_);}
	.st1{fill:url(#SVGID_2_);}
	.st2{fill:url(#SVGID_3_);}
	.st3{fill:url(#SVGID_4_);}
	.st4{fill:url(#SVGID_5_);}
	.st5{fill:url(#SVGID_6_);}
	.st6{fill:url(#SVGID_7_);}
	.st7{fill:none;stroke:#000000;stroke-miterlimit:10;}
	.st8{fill:url(#SVGID_8_);}
	.st9{fill:url(#SVGID_9_);}
	.st10{fill:url(#SVGID_10_);}
	.st11{fill:url(#SVGID_11_);}
	.st12{fill:url(#SVGID_12_);}
	.st13{fill:none;}
</style>
<g>
	<linearGradient id="SVGID_1_" gradientUnits="userSpaceOnUse" x1="53.7252" y1="31.2486" x2="40.4026" y2="31.4573">
		<stop  offset="0" style="stop-color:#4D4D4D"/>
		<stop  offset="1" style="stop-color:#999999"/>
	</linearGradient>
	<polyline class="st0" points="40.8,31.7 41.4,32.1 42.3,31.5 42.9,35.3 44,29.5 45.1,38.2 46.2,29.1 47.3,39 48.4,29.9 49.5,36 
		50.6,30.1 51.7,35.1 52.4,31.4 52.6,31.7 53.9,31.7 53.9,31.1 52.9,31.1 52.1,30 51.7,32 50.6,27 49.5,32.6 48.4,25.8 47.3,33.8 
		46.2,23.7 45.1,33.2 44.1,25.5 42.9,31.8 42.5,29.5 41.1,31.2 41,31.1 	"/>
	<g>
		<linearGradient id="SVGID_2_" gradientUnits="userSpaceOnUse" x1="13.8293" y1="38.7785" x2="13.8468" y2="49.0221">
			<stop  offset="0" style="stop-color:#808080"/>
			<stop  offset="0.508" style="stop-color:#D9D9D9"/>
			<stop  offset="1" style="stop-color:#808080"/>
		</linearGradient>
		<path class="st1" d="M16.8,49h-1.1c-2.7,0-4.9-2.2-4.9-4.9v-0.4c0-2.7,2.2-4.9,4.9-4.9h1.1V49z"/>
		<linearGradient id="SVGID_3_" gradientUnits="userSpaceOnUse" x1="20.6187" y1="33.4755" x2="20.5423" y2="54.112">
			<stop  offset="0" style="stop-color:#808080"/>
			<stop  offset="0.5053" style="stop-color:#D7D8D9"/>
			<stop  offset="0.5421" style="stop-color:#D9D9D9"/>
			<stop  offset="1" style="stop-color:#808080"/>
		</linearGradient>
		<path class="st2" d="M23.2,54l-6.4-5V38.8l6.4-5c0.4-0.4,1.1,0,1.1,0.5v19.2C24.3,54.1,23.7,54.4,23.2,54z"/>
		<linearGradient id="SVGID_4_" gradientUnits="userSpaceOnUse" x1="14.507" y1="43.8961" x2="16.8233" y2="43.8961">
			<stop  offset="0" style="stop-color:#4D4D4D;stop-opacity:0"/>
			<stop  offset="0.9893" style="stop-color:#4D4D4D;stop-opacity:0.5"/>
		</linearGradient>
		<rect x="14.5" y="38.8" class="st3" width="2.3" height="10.2"/>
	</g>
	<g>
		<linearGradient id="SVGID_5_" gradientUnits="userSpaceOnUse" x1="13.8293" y1="14.9863" x2="13.8468" y2="25.2299">
			<stop  offset="0" style="stop-color:#808080"/>
			<stop  offset="0.508" style="stop-color:#D9D9D9"/>
			<stop  offset="1" style="stop-color:#808080"/>
		</linearGradient>
		<path class="st4" d="M16.8,25.2h-1.1c-2.7,0-4.9-2.2-4.9-4.9v-0.4c0-2.7,2.2-4.9,4.9-4.9h1.1V25.2z"/>
		<linearGradient id="SVGID_6_" gradientUnits="userSpaceOnUse" x1="20.6187" y1="9.6833" x2="20.5423" y2="30.3198">
			<stop  offset="0" style="stop-color:#808080"/>
			<stop  offset="0.5053" style="stop-color:#D7D8D9"/>
			<stop  offset="0.5421" style="stop-color:#D9D9D9"/>
			<stop  offset="1" style="stop-color:#808080"/>
		</linearGradient>
		<path class="st5" d="M23.2,30.2l-6.4-5V15l6.4-5c0.4-0.4,1.1,0,1.1,0.5v19.2C24.3,30.3,23.7,30.6,23.2,30.2z"/>
		<linearGradient id="SVGID_7_" gradientUnits="userSpaceOnUse" x1="14.507" y1="20.1039" x2="16.8233" y2="20.1039">
			<stop  offset="0" style="stop-color:#4D4D4D;stop-opacity:0"/>
			<stop  offset="0.9893" style="stop-color:#4D4D4D;stop-opacity:0.5"/>
		</linearGradient>
		<rect x="14.5" y="15" class="st6" width="2.3" height="10.2"/>
	</g>
	<path class="st7" d="M24.7,18.3"/>
	<linearGradient id="SVGID_8_" gradientUnits="userSpaceOnUse" x1="32.1069" y1="24.2016" x2="25.2551" y2="24.309">
		<stop  offset="0" style="stop-color:#4D4D4D"/>
		<stop  offset="1" style="stop-color:#999999"/>
	</linearGradient>
	<polyline class="st8" points="25.4,20.1 32.2,29.7 32.2,26.8 25.4,18.8 	"/>
	
		<linearGradient id="SVGID_9_" gradientUnits="userSpaceOnUse" x1="32.1069" y1="22.5208" x2="25.2551" y2="22.6282" gradientTransform="matrix(1 0 0 -1 0 61.1757)">
		<stop  offset="0" style="stop-color:#4D4D4D"/>
		<stop  offset="1" style="stop-color:#999999"/>
	</linearGradient>
	<polyline class="st9" points="25.4,42.8 32.2,33.1 32.2,36 25.4,44.1 	"/>
	<g>
		<linearGradient id="SVGID_10_" gradientUnits="userSpaceOnUse" x1="30.9078" y1="26.2402" x2="30.9254" y2="36.4838">
			<stop  offset="0" style="stop-color:#808080"/>
			<stop  offset="0.508" style="stop-color:#D9D9D9"/>
			<stop  offset="1" style="stop-color:#808080"/>
		</linearGradient>
		<path class="st10" d="M33.9,36.5h-1.1c-2.7,0-4.9-2.2-4.9-4.9v-0.4c0-2.7,2.2-4.9,4.9-4.9h1.1V36.5z"/>
		<linearGradient id="SVGID_11_" gradientUnits="userSpaceOnUse" x1="37.6973" y1="20.9372" x2="37.6209" y2="41.5737">
			<stop  offset="0" style="stop-color:#808080"/>
			<stop  offset="0.5053" style="stop-color:#D7D8D9"/>
			<stop  offset="0.5421" style="stop-color:#D9D9D9"/>
			<stop  offset="1" style="stop-color:#808080"/>
		</linearGradient>
		<path class="st11" d="M40.3,41.5l-6.4-5V26.2l6.4-5c0.4-0.4,1.1,0,1.1,0.5V41C41.4,41.5,40.7,41.9,40.3,41.5z"/>
		<linearGradient id="SVGID_12_" gradientUnits="userSpaceOnUse" x1="31.5856" y1="31.3578" x2="33.9019" y2="31.3578">
			<stop  offset="0" style="stop-color:#4D4D4D;stop-opacity:0"/>
			<stop  offset="0.9893" style="stop-color:#4D4D4D;stop-opacity:0.5"/>
		</linearGradient>
		<rect x="31.6" y="26.2" class="st12" width="2.3" height="10.2"/>
	</g>
	<rect x="0" class="st13" width="64" height="64"/>
</g>
</svg>
