<?xml version="1.0" encoding="utf-8"?>
<!-- Generator: Adobe Illustrator 24.3.0, SVG Export Plug-In . SVG Version: 6.00 Build 0)  -->
<svg version="1.1" id="SoundCue_x5F_64_-_UPLOAD" xmlns="http://www.w3.org/2000/svg" xmlns:xlink="http://www.w3.org/1999/xlink"
	 x="0px" y="0px" viewBox="0 0 64 64" style="enable-background:new 0 0 64 64;" xml:space="preserve">
<style type="text/css">
	.st0{fill:none;}
	.st1{fill:url(#SVGID_1_);}
	.st2{fill:url(#SVGID_2_);}
	.st3{fill:url(#SVGID_3_);}
	.st4{fill:#FFFFFF;}
</style>
<g>
	<rect x="0" class="st0" width="64" height="64"/>
	<g>
		<linearGradient id="SVGID_1_" gradientUnits="userSpaceOnUse" x1="12.0458" y1="24.4146" x2="12.0723" y2="39.8381">
			<stop  offset="0" style="stop-color:#808080"/>
			<stop  offset="0.508" style="stop-color:#D9D9D9"/>
			<stop  offset="1" style="stop-color:#808080"/>
		</linearGradient>
		<path class="st1" d="M16.6,39.8h-2.3c-3.7,0-6.7-3-6.7-6.7v-2c0-3.7,3-6.7,6.7-6.7h2.3V39.8z"/>
		<linearGradient id="SVGID_2_" gradientUnits="userSpaceOnUse" x1="22.2683" y1="16.4317" x2="22.1533" y2="47.5011">
			<stop  offset="0" style="stop-color:#808080"/>
			<stop  offset="0.5053" style="stop-color:#D7D8D9"/>
			<stop  offset="0.5421" style="stop-color:#D9D9D9"/>
			<stop  offset="1" style="stop-color:#808080"/>
		</linearGradient>
		<path class="st2" d="M26.2,47.4l-9.6-7.6V24.4l9.6-7.6c0.7-0.5,1.7,0,1.7,0.8v28.9C27.8,47.4,26.9,47.9,26.2,47.4z"/>
		<linearGradient id="SVGID_3_" gradientUnits="userSpaceOnUse" x1="13.0668" y1="32.1206" x2="16.5541" y2="32.1206">
			<stop  offset="0" style="stop-color:#4D4D4D;stop-opacity:0"/>
			<stop  offset="0.9893" style="stop-color:#4D4D4D;stop-opacity:0.5"/>
		</linearGradient>
		<rect x="13.1" y="24.4" class="st3" width="3.5" height="15.4"/>
	</g>
	<g>
		<path class="st4" d="M28.7,30.8l5.9-0.2l0,0l0.1,0l0.7,0.4l-0.3,0.1l1-2.3l0.3-0.8l0.2,0.8l1.3,6.1L37,35c0.3-2,0.6-4.1,1-6.1
			l1.1-6.1l0.6-3.1l0.4,3.2l2.2,16.4l-1,0l2.2-18.6l0.5-4.4l0.5,4.4l2.2,20l-1,0l2.2-17.1l0.4-3.3l0.6,3.3L51,36.5l-1,0L52.2,25
			l0.5-2.4l0.5,2.4c0.4,1.7,0.7,3.3,1,5l1,5l-0.5,0l1.2-5.7l0.1-0.3l0.2,0.2l1,1.5l-0.1,0l2.2,0.1l-2.2,0.1l0,0l0,0l-1.1-1.4
			l0.2-0.1l-0.9,5.7l-0.2,1.3l-0.3-1.3l-1.2-5c-0.4-1.7-0.8-3.3-1.2-5l1,0L51,36.6l-0.5,2.7L50,36.6l-2.2-12.8l1,0l-2.2,17.1
			l-0.5,4.2l-0.5-4.2l-2.2-20l1,0l-2.2,18.6l-0.5,4l-0.5-4L39.1,23l1,0L39,29.1c-0.3,2-0.7,4-1.2,6.1l-0.5,2.3L37,35.2L36.1,29
			l0.5,0.1l-1.2,2.3l-0.1,0.2l-0.2-0.1L34.5,31l0.1,0L28.7,30.8z"/>
	</g>
</g>
</svg>
