<?xml version="1.0" encoding="utf-8"?>
<!-- Generator: Adobe Illustrator 24.3.0, SVG Export Plug-In . SVG Version: 6.00 Build 0)  -->
<svg version="1.1" id="SoundEffectSourcePreset_x5F_64"
	 xmlns="http://www.w3.org/2000/svg" xmlns:xlink="http://www.w3.org/1999/xlink" x="0px" y="0px" viewBox="0 0 64 64"
	 style="enable-background:new 0 0 64 64;" xml:space="preserve">
<style type="text/css">
	.st0{fill:none;}
	.st1{fill:url(#SVGID_1_);}
	.st2{fill:url(#SVGID_2_);}
	.st3{fill:url(#SVGID_3_);}
	.st4{fill:url(#SVGID_4_);}
</style>
<g>
	<rect x="0" class="st0" width="64" height="64"/>
	<g>
		<linearGradient id="SVGID_1_" gradientUnits="userSpaceOnUse" x1="12.0458" y1="24.4146" x2="12.0723" y2="39.8381">
			<stop  offset="0" style="stop-color:#808080"/>
			<stop  offset="0.508" style="stop-color:#D9D9D9"/>
			<stop  offset="1" style="stop-color:#808080"/>
		</linearGradient>
		<path class="st1" d="M16.6,39.8h-2.3c-3.7,0-6.7-3-6.7-6.7v-2c0-3.7,3-6.7,6.7-6.7h2.3V39.8z"/>
		<linearGradient id="SVGID_2_" gradientUnits="userSpaceOnUse" x1="22.2683" y1="16.4317" x2="22.1533" y2="47.5011">
			<stop  offset="0" style="stop-color:#808080"/>
			<stop  offset="0.5053" style="stop-color:#D7D8D9"/>
			<stop  offset="0.5421" style="stop-color:#D9D9D9"/>
			<stop  offset="1" style="stop-color:#808080"/>
		</linearGradient>
		<path class="st2" d="M26.2,47.4l-9.6-7.6V24.4l9.6-7.6c0.7-0.5,1.7,0,1.7,0.8v28.9C27.8,47.4,26.9,47.9,26.2,47.4z"/>
		<linearGradient id="SVGID_3_" gradientUnits="userSpaceOnUse" x1="13.0668" y1="32.1206" x2="16.5541" y2="32.1206">
			<stop  offset="0" style="stop-color:#4D4D4D;stop-opacity:0"/>
			<stop  offset="0.9893" style="stop-color:#4D4D4D;stop-opacity:0.5"/>
		</linearGradient>
		<rect x="13.1" y="24.4" class="st3" width="3.5" height="15.4"/>
	</g>
	<linearGradient id="SVGID_4_" gradientUnits="userSpaceOnUse" x1="28.5087" y1="32.2553" x2="58.1268" y2="32.0552">
		<stop  offset="0" style="stop-color:#808080"/>
		<stop  offset="0.1827" style="stop-color:#B3B3B3"/>
		<stop  offset="0.6904" style="stop-color:#808080"/>
		<stop  offset="1" style="stop-color:#999999;stop-opacity:0"/>
	</linearGradient>
	<polygon class="st4" points="57.6,49.1 27.8,39.1 27.8,25 57.6,15 	"/>
	<g>
		<path d="M30.2,32l4.8-0.1l0,0l0,0l0.5,0.3l-0.2,0.1l0.9-1.9l0.3-0.6l0.1,0.6l1,5l-0.6,0c0.2-1.7,0.5-3.3,0.8-5l0.9-5l0.4-2.4
			l0.3,2.4L41.3,39l-0.7,0l1.8-15.2l0.4-3.3l0.4,3.3l1.8,16.4l-0.7,0l1.8-14.1l0.3-2.5l0.4,2.5l1.8,10.5l-0.7,0l1.8-9.4l0.3-1.8
			l0.4,1.8c0.3,1.4,0.6,2.7,0.8,4.1l0.8,4.1l-0.4,0l1-4.7l0-0.2l0.1,0.1l0.9,1.2l0,0l1.8,0l-1.8,0l0,0l0,0l-0.9-1.1l0.1,0l-0.8,4.7
			l-0.2,1l-0.2-1l-1-4.1c-0.3-1.4-0.7-2.7-1-4.1l0.7,0l-1.8,9.4l-0.4,2l-0.3-2l-1.8-10.5l0.7,0l-1.8,14.1l-0.4,3.1l-0.3-3.2
			l-1.8-16.4l0.7,0l-1.8,15.2L41,42l-0.4-3l-1.8-13.5l0.7,0l-0.9,5c-0.3,1.7-0.6,3.3-0.9,5l-0.4,1.8L37,35.6l-0.8-5.1l0.4,0.1
			l-0.9,1.9l-0.1,0.2l-0.1-0.1L35,32.1l0.1,0L30.2,32z"/>
	</g>
</g>
</svg>
