<svg width="16" height="16" viewBox="0 0 16 16" fill="none" xmlns="http://www.w3.org/2000/svg">
<path d="M0 13L2 11V6L10 14H5L3 16L0 13Z" fill="white"/>
<path opacity="0.5" d="M15 7L14.47 6.92C14.28 5.73 13.64 4.46 12.59 3.41C11.54 2.36 10.27 1.72 9.08 1.53L9 1C10.33 1.21 11.73 1.92 12.9 3.1C14.07 4.28 14.79 5.67 15 7Z" fill="white"/>
<path opacity="0.5" d="M16 4L15.65 3.94C15.52 3.14 15.1 2.3 14.4 1.6C13.7 0.9 12.86 0.47 12.06 0.35L12 0C12.88 0.14 13.82 0.62 14.6 1.4C15.38 2.18 15.86 3.12 16 4Z" fill="white"/>
<path opacity="0.5" d="M13.6301 9.66914L12.9901 9.56914C12.7601 8.11914 11.9801 6.57914 10.7001 5.29914C9.42008 4.01914 7.88008 3.23914 6.43008 3.00914L6.33008 2.36914C7.94008 2.62914 9.66008 3.49914 11.0801 4.91914C12.5001 6.33914 13.3801 8.05914 13.6301 9.66914Z" fill="white"/>
<path opacity="0.5" d="M12.1299 12.8691L11.3399 12.7491C11.0599 10.9591 10.0899 9.05914 8.51988 7.48914C6.94988 5.91914 5.03988 4.93914 3.24988 4.65914L3.12988 3.86914C5.11988 4.17914 7.22988 5.25914 8.98988 7.00914C10.7499 8.75914 11.8199 10.8791 12.1299 12.8691Z" fill="white"/>
</svg>
