<?xml version="1.0" encoding="utf-8"?>
<!-- Generator: Adobe Illustrator 24.3.0, SVG Export Plug-In . SVG Version: 6.00 Build 0)  -->
<svg version="1.1" id="SoundAttenuation_x5F_64" xmlns="http://www.w3.org/2000/svg" xmlns:xlink="http://www.w3.org/1999/xlink"
	 x="0px" y="0px" viewBox="0 0 64 64" style="enable-background:new 0 0 64 64;" xml:space="preserve">
<style type="text/css">
	.st0{fill:url(#SVGID_1_);}
	.st1{fill:url(#SVGID_2_);}
	.st2{fill:url(#SVGID_3_);}
	.st3{fill:url(#SVGID_4_);}
	.st4{fill:#999999;enable-background:new    ;}
	.st5{fill:#666666;enable-background:new    ;}
	.st6{fill:#CCCCCC;enable-background:new    ;}
	.st7{fill:#FFFFFF;enable-background:new    ;}
	.st8{fill:none;}
</style>
<g>
	
		<linearGradient id="SVGID_1_" gradientUnits="userSpaceOnUse" x1="27.2275" y1="37.3741" x2="49.988" y2="15.3755" gradientTransform="matrix(1.0501 -5.006482e-02 -5.006482e-02 1.0501 -1.0289 1.0289)">
		<stop  offset="0" style="stop-color:#999999;stop-opacity:0.5"/>
		<stop  offset="1" style="stop-color:#999999;stop-opacity:0"/>
	</linearGradient>
	<polygon class="st0" points="55.9,19.1 37.7,49.3 14.9,27.4 45.3,8.5 	"/>
	<g>
		
			<linearGradient id="SVGID_2_" gradientUnits="userSpaceOnUse" x1="14.0104" y1="16.2944" x2="14.0379" y2="32.3512" gradientTransform="matrix(0.7071 -0.7071 0.7071 0.7071 -11.9931 42.026)">
			<stop  offset="0" style="stop-color:#808080"/>
			<stop  offset="0.508" style="stop-color:#D9D9D9"/>
			<stop  offset="1" style="stop-color:#808080"/>
		</linearGradient>
		<path class="st1" d="M24.1,51.7l-1.9,1.9c-2.6,2.6-6.9,2.6-9.5,0l-1.8-1.8c-2.6-2.6-2.6-6.9,0-9.5l1.9-1.9L24.1,51.7z"/>
		
			<linearGradient id="SVGID_3_" gradientUnits="userSpaceOnUse" x1="24.6525" y1="7.9845" x2="24.5328" y2="40.3288" gradientTransform="matrix(0.7071 -0.7071 0.7071 0.7071 -11.9931 42.026)">
			<stop  offset="0" style="stop-color:#808080"/>
			<stop  offset="0.5053" style="stop-color:#D7D8D9"/>
			<stop  offset="0.5421" style="stop-color:#D9D9D9"/>
			<stop  offset="1" style="stop-color:#808080"/>
		</linearGradient>
		<path class="st2" d="M36.8,50.1l-12.7,1.5L12.8,40.3l1.5-12.7c0.1-0.9,1.2-1.3,1.8-0.6l21.3,21.3C38,49,37.6,50,36.8,50.1z"/>
		
			<linearGradient id="SVGID_4_" gradientUnits="userSpaceOnUse" x1="15.0735" y1="24.3171" x2="18.7039" y2="24.3171" gradientTransform="matrix(0.7071 -0.7071 0.7071 0.7071 -11.9931 42.026)">
			<stop  offset="0" style="stop-color:#4D4D4D;stop-opacity:0"/>
			<stop  offset="0.9893" style="stop-color:#4D4D4D;stop-opacity:0.5"/>
		</linearGradient>
		<polygon class="st3" points="21.5,54.2 24.1,51.7 12.8,40.3 10.2,42.9 		"/>
	</g>
	<g>
		<path class="st4" d="M53.3,27.1L52.5,27c-0.4-0.1-0.7-0.4-0.8-0.7c-0.6-3-2.3-6.1-4.9-8.7s-5.7-4.3-8.7-4.9
			c-0.4-0.1-0.7-0.4-0.7-0.8l-0.1-0.8c3.5,0.6,7.3,2.4,10.4,5.6C50.8,19.9,52.7,23.5,53.3,27.1z"/>
		<path class="st5" d="M55.9,19.1L55,19c-0.3-2.1-1.5-4.4-3.3-6.2c-1.9-1.9-4.1-3-6.2-3.3l-0.2-0.9c2.3,0.4,4.8,1.6,6.9,3.7
			C54.3,14.3,55.6,16.8,55.9,19.1z"/>
		<path class="st6" d="M49.6,34.2L48.6,34c-0.4-0.1-0.7-0.4-0.8-0.7c-0.7-3.7-2.8-7.5-6-10.7c-3.2-3.2-7-5.2-10.7-6
			c-0.4-0.1-0.7-0.4-0.7-0.8l-0.2-1.1c4.3,0.7,8.8,3,12.6,6.8C46.6,25.3,49,29.9,49.6,34.2z"/>
		<path class="st7" d="M45.7,42.7l-1.1-0.2c-0.6-0.1-1.1-0.6-1.2-1.1c-0.9-4.5-3.4-9.1-7.3-13c-3.9-3.9-8.5-6.4-13-7.3
			c-0.6-0.1-1-0.6-1.1-1.2l-0.2-1.1c5.3,0.8,10.9,3.7,15.6,8.3C42,31.8,44.8,37.4,45.7,42.7z"/>
	</g>
	<rect x="0" class="st8" width="64" height="64"/>
</g>
</svg>
