<?xml version="1.0" encoding="utf-8"?>
<!-- Generator: Adobe Illustrator 25.0.0, SVG Export Plug-In . SVG Version: 6.00 Build 0)  -->
<svg version="1.1" id="SoundClass_x5F_64" xmlns="http://www.w3.org/2000/svg" xmlns:xlink="http://www.w3.org/1999/xlink" x="0px"
	 y="0px" viewBox="0 0 64 64" style="enable-background:new 0 0 64 64;" xml:space="preserve">
<style type="text/css">
	.st0{fill:#7F7F7F;}
	.st1{fill:url(#SVGID_1_);}
	.st2{fill:url(#SVGID_2_);}
	.st3{fill:url(#SVGID_3_);}
	.st4{fill:url(#SVGID_4_);}
	.st5{fill:url(#SVGID_5_);}
	.st6{fill:url(#SVGID_6_);}
	.st7{fill:url(#SVGID_7_);}
	.st8{fill:url(#SVGID_8_);}
	.st9{fill:url(#SVGID_9_);}
	.st10{fill:#7F7F7F;enable-background:new    ;}
	.st11{fill:#BFBFBF;enable-background:new    ;}
	.st12{fill:none;}
</style>
<g>
	<g>
		<rect x="11.3" y="36.6" class="st0" width="42.2" height="3.1"/>
		
			<rect x="44.1" y="43.5" transform="matrix(-1.836970e-16 1 -1 -1.836970e-16 97.0221 -6.9103)" class="st0" width="15.7" height="3.1"/>
		
			<rect x="24.5" y="43.5" transform="matrix(-1.836970e-16 1 -1 -1.836970e-16 77.4497 12.6621)" class="st0" width="15.7" height="3.1"/>
		
			<rect x="5" y="43.5" transform="matrix(-1.836970e-16 1 -1 -1.836970e-16 57.8772 32.2346)" class="st0" width="15.7" height="3.1"/>
	</g>
	<linearGradient id="SVGID_1_" gradientUnits="userSpaceOnUse" x1="12.8213" y1="48.7194" x2="12.8213" y2="41.9857">
		<stop  offset="0" style="stop-color:#4D4D4D"/>
		<stop  offset="0.5736" style="stop-color:#808080"/>
	</linearGradient>
	<polygon class="st1" points="11.3,48.7 11.3,42 14.4,42 14.4,48.7 	"/>
	<linearGradient id="SVGID_2_" gradientUnits="userSpaceOnUse" x1="32.3938" y1="48.7194" x2="32.3938" y2="41.9857">
		<stop  offset="0" style="stop-color:#4D4D4D"/>
		<stop  offset="0.5736" style="stop-color:#808080"/>
	</linearGradient>
	<polygon class="st2" points="30.9,48.7 30.9,42 33.9,42 33.9,48.7 	"/>
	<linearGradient id="SVGID_3_" gradientUnits="userSpaceOnUse" x1="12.8213" y1="57.0061" x2="12.8213" y2="48.283">
		<stop  offset="0" style="stop-color:#FFFFFF"/>
		<stop  offset="1" style="stop-color:#B3B3B3"/>
	</linearGradient>
	<path class="st3" d="M19,48.3H6.7c-0.8,0-1.5,0.7-1.5,1.5v5.8c0,0.8,0.7,1.5,1.5,1.5H19c0.8,0,1.5-0.7,1.5-1.5v-5.8
		C20.4,48.9,19.8,48.3,19,48.3z"/>
	<linearGradient id="SVGID_4_" gradientUnits="userSpaceOnUse" x1="51.9662" y1="48.7194" x2="51.9662" y2="41.9857">
		<stop  offset="0" style="stop-color:#4D4D4D"/>
		<stop  offset="0.5736" style="stop-color:#808080"/>
	</linearGradient>
	<polygon class="st4" points="50.4,48.7 50.4,42 53.5,42 53.5,48.7 	"/>
	<linearGradient id="SVGID_5_" gradientUnits="userSpaceOnUse" x1="32.3938" y1="57.0061" x2="32.3938" y2="48.283">
		<stop  offset="0" style="stop-color:#FFFFFF"/>
		<stop  offset="1" style="stop-color:#B3B3B3"/>
	</linearGradient>
	<path class="st5" d="M38.6,48.3H26.2c-0.8,0-1.5,0.7-1.5,1.5v5.8c0,0.8,0.7,1.5,1.5,1.5h12.3c0.8,0,1.5-0.7,1.5-1.5v-5.8
		C40,48.9,39.4,48.3,38.6,48.3z"/>
	<linearGradient id="SVGID_6_" gradientUnits="userSpaceOnUse" x1="51.9662" y1="57.0061" x2="51.9662" y2="48.283">
		<stop  offset="0" style="stop-color:#FFFFFF"/>
		<stop  offset="1" style="stop-color:#B3B3B3"/>
	</linearGradient>
	<path class="st6" d="M58.1,48.3H45.8c-0.8,0-1.5,0.7-1.5,1.5v5.8c0,0.8,0.7,1.5,1.5,1.5h12.3c0.8,0,1.5-0.7,1.5-1.5v-5.8
		C59.6,48.9,58.9,48.3,58.1,48.3z"/>
	<g>
		<g>
			
				<linearGradient id="SVGID_7_" gradientUnits="userSpaceOnUse" x1="39.0279" y1="17.1546" x2="39.0508" y2="30.4917" gradientTransform="matrix(1 0 0 1 -16.325 -4.1507)">
				<stop  offset="0" style="stop-color:#808080"/>
				<stop  offset="0.508" style="stop-color:#D9D9D9"/>
				<stop  offset="1" style="stop-color:#808080"/>
			</linearGradient>
			<path class="st7" d="M26.6,26.3h-2.7c-2.8,0-5-2.3-5-5V18c0-2.8,2.3-5,5-5h2.7V26.3z"/>
			
				<linearGradient id="SVGID_8_" gradientUnits="userSpaceOnUse" x1="47.8674" y1="10.2536" x2="47.7679" y2="37.1175" gradientTransform="matrix(1 0 0 1 -16.325 -4.1507)">
				<stop  offset="0" style="stop-color:#808080"/>
				<stop  offset="0.5053" style="stop-color:#D7D8D9"/>
				<stop  offset="0.5421" style="stop-color:#D9D9D9"/>
				<stop  offset="1" style="stop-color:#808080"/>
			</linearGradient>
			<path class="st8" d="M34.9,32.9l-8.3-6.5V13l8.3-6.5c0.6-0.5,1.4,0,1.4,0.7v25C36.4,32.9,35.5,33.3,34.9,32.9z"/>
			
				<linearGradient id="SVGID_9_" gradientUnits="userSpaceOnUse" x1="39.9114" y1="23.8188" x2="42.9267" y2="23.8188" gradientTransform="matrix(1 0 0 1 -16.325 -4.1507)">
				<stop  offset="0" style="stop-color:#4D4D4D;stop-opacity:0"/>
				<stop  offset="0.9893" style="stop-color:#4D4D4D;stop-opacity:0.5"/>
			</linearGradient>
			<rect x="23.6" y="13" class="st9" width="3" height="13.3"/>
		</g>
		<g>
			<path class="st10" d="M39.2,8c4.4,2.8,6.7,7.3,6.7,11.6c0,4.4-2.3,8.9-6.7,11.6c2.8-3.7,4.1-7.6,4.1-11.6S42,11.7,39.2,8z"/>
			<path class="st11" d="M37.9,13.7c1.8,1.4,2.7,3.7,2.7,6s-0.9,4.5-2.7,6C39,23.7,39,15.6,37.9,13.7z"/>
		</g>
	</g>
	<rect x="0" class="st12" width="64" height="64"/>
</g>
</svg>
