<svg width="16" height="16" viewBox="0 0 16 16" fill="none" xmlns="http://www.w3.org/2000/svg">
<path d="M0 2H2L4 0V7L2 5H0V2Z" fill="white"/>
<path d="M14 0V2L16 4H9L11 2V0H14Z" fill="white"/>
<path d="M16 14H14L12 16V9L14 11H16V14Z" fill="white"/>
<path d="M2 16V14L0 12H7L5 14V16H2Z" fill="white"/>
<path opacity="0.5" d="M5 0C6.98 0.83 7.99 2.19 8 3.5C8 4.81 6.98 6.17 5 7C6.24 5.88 6.84 4.7 6.84 3.5C6.84 2.3 6.24 1.11 5 0Z" fill="white"/>
<path opacity="0.5" d="M5 2C5.66 2.36 6 2.94 6 3.5C6 4.06 5.66 4.64 5 5C5.41 4.52 5.41 2.48 5 2Z" fill="white"/>
<path opacity="0.5" d="M16 5C15.17 6.98 13.81 7.99 12.5 8C11.19 8 9.83 6.98 9 5C10.12 6.24 11.3 6.84 12.5 6.84C13.7 6.84 14.89 6.24 16 5Z" fill="white"/>
<path opacity="0.5" d="M14 5C13.64 5.66 13.06 6 12.5 6C11.94 6 11.36 5.66 11 5C11.48 5.41 13.52 5.41 14 5Z" fill="white"/>
<path opacity="0.5" d="M11 16C9.02 15.17 8.01 13.81 8 12.5C8 11.19 9.02 9.83 11 9C9.76 10.12 9.16 11.3 9.16 12.5C9.16 13.7 9.76 14.89 11 16Z" fill="white"/>
<path opacity="0.5" d="M11 14C10.34 13.64 10 13.06 10 12.5C10 11.94 10.34 11.36 11 11C10.59 11.48 10.59 13.52 11 14Z" fill="white"/>
<path opacity="0.5" d="M0 11C0.83 9.02 2.19 8.01 3.5 8C4.81 8 6.17 9.02 7 11C5.88 9.76 4.7 9.16 3.5 9.16C2.3 9.16 1.11 9.76 0 11Z" fill="white"/>
<path opacity="0.5" d="M2 11C2.36 10.34 2.94 10 3.5 10C4.06 10 4.64 10.34 5 11C4.52 10.59 2.48 10.59 2 11Z" fill="white"/>
</svg>
