<svg width="16" height="16" viewBox="0 0 16 16" fill="none" xmlns="http://www.w3.org/2000/svg">
<path d="M0 2H2.5L5 0V7L2.5 5H0V2Z" fill="white"/>
<path d="M0 11H2.5L5 9V16L2.5 14H0V11Z" fill="white"/>
<path opacity="0.5" d="M8.1002 5.80039L8.4002 8.10039L9.1002 1.90039L6.2002 2.70039L7.5002 7.70039L8.1002 5.80039Z" fill="white"/>
<path opacity="0.5" d="M9.9002 9.4L10.6002 2L11.4002 10L12.1002 3.5L12.9002 8.9L13.6002 3.1L14.4002 8.4L14.6002 6.4L15.3002 7.8H16.0002V0L9.2002 1.9L9.9002 9.4Z" fill="white"/>
<path opacity="0.5" d="M7.1 7.9998L5.7 2.7998L5 2.9998V12.9998L5.7 13.1998L7.1 7.9998Z" fill="white"/>
<path opacity="0.5" d="M15.0002 8.19961L14.9002 8.09961L14.4002 12.0996L13.6002 6.89961L12.9002 13.0996L12.2002 6.79961L11.4002 13.4996L10.6002 6.09961L9.8002 12.9996L9.1002 6.29961L8.4002 12.3996L7.9002 8.19961L7.7002 8.69961L7.5002 8.49961L6.2002 13.2996L16.0002 15.9996V8.19961H15.0002Z" fill="white"/>
</svg>
