<?xml version="1.0" encoding="utf-8"?>
<!-- Generator: Adobe Illustrator 25.0.0, SVG Export Plug-In . SVG Version: 6.00 Build 0)  -->
<svg version="1.1" id="SphereReflectionCapture_x5F_64"
	 xmlns="http://www.w3.org/2000/svg" xmlns:xlink="http://www.w3.org/1999/xlink" x="0px" y="0px" viewBox="0 0 64 64"
	 style="enable-background:new 0 0 64 64;" xml:space="preserve">
<style type="text/css">
	.st0{fill:url(#SVGID_1_);}
	.st1{fill:url(#SVGID_2_);}
	.st2{fill:url(#SVGID_3_);}
	.st3{fill:url(#SVGID_4_);}
	.st4{fill:none;}
</style>
<g>
	<linearGradient id="SVGID_1_" gradientUnits="userSpaceOnUse" x1="51.7924" y1="15.5285" x2="0.9127" y2="58.6552">
		<stop  offset="0.4569" style="stop-color:#E6E6E6"/>
		<stop  offset="1" style="stop-color:#666666"/>
	</linearGradient>
	<path class="st0" d="M32.2,10.5c11.9,0,21.6,9.8,21.6,21.6s-9.8,21.6-21.6,21.6c-11.9,0-21.6-9.8-21.6-21.6S20.3,10.5,32.2,10.5z
		 M32.2,6.2C17.8,6.2,6.3,17.7,6.3,32.1S17.8,58,32.2,58c14.4,0,25.9-11.5,25.9-25.9S46.6,6.2,32.2,6.2z"/>
	<radialGradient id="SVGID_2_" cx="39.081" cy="22.4403" r="20.1462" gradientUnits="userSpaceOnUse">
		<stop  offset="0" style="stop-color:#CCCCCC"/>
		<stop  offset="1" style="stop-color:#4D4D4D"/>
	</radialGradient>
	<circle class="st1" cx="32.2" cy="32.1" r="22.7"/>
	<radialGradient id="SVGID_3_" cx="36.948" cy="22.9535" r="30.7001" gradientUnits="userSpaceOnUse">
		<stop  offset="0" style="stop-color:#FFFFFF"/>
		<stop  offset="0.3121" style="stop-color:#B3B3B3"/>
		<stop  offset="0.6357" style="stop-color:#6A6A6A"/>
		<stop  offset="0.7861" style="stop-color:#4D4D4D"/>
		<stop  offset="1" style="stop-color:#666666"/>
	</radialGradient>
	<path class="st2" d="M32,53.7c11.9,0,21.6-9.7,21.6-21.6S43.9,10.5,32,10.5s-21.6,9.7-21.6,21.6S20.1,53.7,32,53.7z"/>
	<radialGradient id="SVGID_4_" cx="39.9291" cy="24.3628" r="7.2137" gradientUnits="userSpaceOnUse">
		<stop  offset="0.4569" style="stop-color:#FFFFFF"/>
		<stop  offset="1" style="stop-color:#F2F2F2;stop-opacity:0"/>
	</radialGradient>
	<path class="st3" d="M39.9,31.6c4,0,7.2-3.2,7.2-7.2c0-4-3.2-7.2-7.2-7.2s-7.2,3.2-7.2,7.2C32.7,28.3,35.9,31.6,39.9,31.6z"/>
	<rect x="0" class="st4" width="64" height="64"/>
</g>
</svg>
