<svg width="16" height="16" viewBox="0 0 16 16" fill="none" xmlns="http://www.w3.org/2000/svg">
<path d="M7.9999 2.90039C10.7999 2.90039 13.0999 5.20037 13.0999 8.00037C13.0999 10.8004 10.7999 13.1003 7.9999 13.1003C5.1999 13.1003 2.8999 10.8004 2.8999 8.00037C2.8999 5.20037 5.1999 2.90039 7.9999 2.90039ZM7.9999 1.90039C4.5999 1.90039 1.8999 4.60037 1.8999 8.00037C1.8999 11.4004 4.5999 14.1003 7.9999 14.1003C11.3999 14.1003 14.0999 11.4004 14.0999 8.00037C14.0999 4.60037 11.3999 1.90039 7.9999 1.90039Z" fill="white"/>
<path opacity="0.5" d="M9.4 9.90027C7.6 9.90027 6.1 8.40022 6.1 6.60022C6.1 5.70022 6.5 4.8002 7.1 4.2002C5.6 4.7002 4.5 6.1002 4.5 7.7002C4.5 9.8002 6.2 11.4003 8.2 11.4003C9.9 11.4003 11.3 10.3002 11.8 8.7002C11.2 9.5002 10.3 9.90027 9.4 9.90027Z" fill="white"/>
<path d="M9.8001 7.90002C10.739 7.90002 11.5001 7.13884 11.5001 6.19995C11.5001 5.26107 10.739 4.5 9.8001 4.5C8.86121 4.5 8.1001 5.26107 8.1001 6.19995C8.1001 7.13884 8.86121 7.90002 9.8001 7.90002Z" fill="white"/>
<path opacity="0.5" d="M1 4H0V0H4V1H1V4ZM15 1V4H16V0H12V1H15ZM15 15H12V16H16V12H15V15ZM1 15V12H0V16H4V15H1Z" fill="white"/>
</svg>
