<svg width="16" height="16" viewBox="0 0 16 16" fill="none" xmlns="http://www.w3.org/2000/svg">
<path d="M4.5 8.5C6.70914 8.5 8.5 6.70914 8.5 4.5C8.5 2.29086 6.70914 0.5 4.5 0.5C2.29086 0.5 0.5 2.29086 0.5 4.5C0.5 6.70914 2.29086 8.5 4.5 8.5Z" fill="white"/>
<path opacity="0.5" fill-rule="evenodd" clip-rule="evenodd" d="M15.8 6L11.7 5.2L14.5 0.199997L9.4 3.8C9.4 4 9.5 4.3 9.5 4.5C9.5 7.3 7.3 9.5 4.5 9.5C4 9.5 3.6 9.4 3.1 9.3L0 14L5.6 11.8L8 16L9.5 10.5L15.2 11.5L11.2 7.9L15.8 6Z" fill="white"/>
</svg>
