<?xml version="1.0" encoding="utf-8"?>
<!-- Generator: Adobe Illustrator 24.2.3, SVG Export Plug-In . SVG Version: 6.00 Build 0)  -->
<svg version="1.1" id="Layer_1" xmlns="http://www.w3.org/2000/svg" xmlns:xlink="http://www.w3.org/1999/xlink" x="0px" y="0px"
	 viewBox="0 0 64 64" style="enable-background:new 0 0 64 64;" xml:space="preserve">
<style type="text/css">
	.st0{fill:none;}
	.st1{fill:url(#SVGID_1_);}
	.st2{fill:#FFFFFF;}
	.st3{fill:#BFBFBF;}
</style>
<g id="SpotLight_x5F_64">
	<g>
		<rect class="st0" width="64" height="64"/>
		
			<linearGradient id="SVGID_1_" gradientUnits="userSpaceOnUse" x1="28.9035" y1="218.3604" x2="11.5508" y2="201.1098" gradientTransform="matrix(1 0 0 1 0 -190)">
			<stop  offset="0" style="stop-color:#BFBFBF"/>
			<stop  offset="1" style="stop-color:#808080"/>
		</linearGradient>
		<path class="st1" d="M20.8,35.8l15.5-15.5c0.7-0.7,0.6-2-0.3-2.6L21.7,8.4C21,8,20.1,8.1,19.6,8.6L9.1,19.1
			c-0.6,0.6-0.6,1.4-0.2,2.1l9.4,14.3C18.8,36.4,20.1,36.5,20.8,35.8z"/>
		<path class="st2" d="M46.3,48.5L32.1,34.3c-0.2-0.2-0.2-0.4,0-0.6l2.1-2.1c0.2-0.2,0.4-0.2,0.6,0L49,45.8c0.2,0.2,0.4,0.2,0.6,0
			l4.4-4.4c0.3-0.3,0.7-0.1,0.7,0.3l0.8,12.8c0,0.3-0.2,0.5-0.4,0.4l-12.8-0.8c-0.4,0-0.5-0.5-0.3-0.7l4.4-4.4
			C46.4,48.9,46.4,48.7,46.3,48.5z"/>
		<path class="st3" d="M38.7,18.8h15.9c0.5,0,0.7,0.6,0.4,0.9l-5,5c-0.1,0.1-0.2,0.2-0.4,0.2H38.7c-0.3,0-0.5-0.2-0.5-0.5v-5
			C38.1,19,38.4,18.8,38.7,18.8z"/>
		<path class="st3" d="M19.2,38.1V54c0,0.5,0.6,0.7,0.9,0.4l5-5c0.1-0.1,0.2-0.2,0.2-0.4V38.1c0-0.3-0.2-0.5-0.5-0.5h-5
			C19.4,37.6,19.2,37.8,19.2,38.1z"/>
	</g>
</g>
</svg>
