<?xml version="1.0" encoding="utf-8"?>
<!-- Generator: Adobe Illustrator 24.3.0, SVG Export Plug-In . SVG Version: 6.00 Build 0)  -->
<svg version="1.1" id="SpringArmComponent_x5F_64" xmlns="http://www.w3.org/2000/svg" xmlns:xlink="http://www.w3.org/1999/xlink"
	 x="0px" y="0px" viewBox="0 0 64 64" style="enable-background:new 0 0 64 64;" xml:space="preserve">
<style type="text/css">
	.st0{fill:none;}
	.st1{fill-rule:evenodd;clip-rule:evenodd;fill:url(#SVGID_1_);}
	.st2{fill-rule:evenodd;clip-rule:evenodd;fill:url(#SVGID_2_);}
	.st3{fill-rule:evenodd;clip-rule:evenodd;fill:url(#SVGID_3_);}
	.st4{fill-rule:evenodd;clip-rule:evenodd;fill:url(#SVGID_4_);}
	.st5{fill:url(#SVGID_5_);}
	.st6{opacity:0.5;}
	.st7{fill-rule:evenodd;clip-rule:evenodd;fill:#FFFFFF;}
	.st8{fill:#FFFFFF;}
</style>
<g>
	<rect x="0" class="st0" width="64" height="64"/>
	<g>
		<linearGradient id="SVGID_1_" gradientUnits="userSpaceOnUse" x1="35.1941" y1="16.1042" x2="49.9391" y2="16.1042">
			<stop  offset="0" style="stop-color:#808080"/>
			<stop  offset="1" style="stop-color:#4D4D4D"/>
		</linearGradient>
		<path class="st1" d="M41.5,19.9c2.3,0.9,4,0.9,4.9,0c0.6-1.4-1.1-4-4-6.3c-2.9-2.3-6.3-2.6-7.2-1.1c0,0,0,0,0,0.3
			c0-0.6,0-0.9,0.3-1.4c1.1-1.7,5.2-1.1,9.2,1.7c4,2.9,6.3,6.3,4.9,8C48.4,22.5,44.9,21.9,41.5,19.9z"/>
		<linearGradient id="SVGID_2_" gradientUnits="userSpaceOnUse" x1="31.4717" y1="21.8672" x2="45.9036" y2="21.8672">
			<stop  offset="0" style="stop-color:#999999"/>
			<stop  offset="1" style="stop-color:#808080"/>
		</linearGradient>
		<path class="st2" d="M37.8,25.6c2.3,0.9,4,0.9,4.9,0c0.9-1.4-0.9-4-4-6.3c-3.1-2.3-6.3-2.6-7.2-1.1c0,0,0,0,0,0.3
			c0-0.6,0-0.9,0.3-1.4c0.9-1.7,5.2-0.9,8.9,1.7c3.7,2.6,6.3,6.3,4.9,8C44.6,28.2,41.2,27.6,37.8,25.6z"/>
		<linearGradient id="SVGID_3_" gradientUnits="userSpaceOnUse" x1="27.4634" y1="27.5938" x2="42.1816" y2="27.5938">
			<stop  offset="0" style="stop-color:#E6E6E6"/>
			<stop  offset="1" style="stop-color:#999999"/>
		</linearGradient>
		<path class="st3" d="M34,31.4c2.3,0.9,4,0.9,4.9,0c0.6-1.4-1.1-4-4-6s-6.3-2.6-7.4-1.4c0,0,0,0,0,0.3c0-0.6,0-0.9,0.3-1.4
			c1.1-1.7,5.4-0.9,9.2,1.7c3.7,2.6,6.3,6.3,4.9,8C40.9,33.9,37.5,33.4,34,31.4z"/>
		<linearGradient id="SVGID_4_" gradientUnits="userSpaceOnUse" x1="29.0532" y1="27.9333" x2="32.9431" y2="37.9474">
			<stop  offset="0" style="stop-color:#FFFFFF"/>
			<stop  offset="1" style="stop-color:#E6E6E6"/>
		</linearGradient>
		<path class="st4" d="M30,37.1c2.3,0.9,4,0.9,4.9,0c0.9-1.4-0.9-4-4-6s-6-2.6-7.2-1.4c0,0,0,0,0,0.3c0-0.6,0-0.9,0.3-1.4
			c1.1-1.7,5.4-0.9,9.2,1.7c3.7,2.6,6.3,6.3,4.9,8C37.2,39.7,33.8,39.1,30,37.1z"/>
		<radialGradient id="SVGID_5_" cx="24.0277" cy="43.7022" r="9.1626" gradientUnits="userSpaceOnUse">
			<stop  offset="0" style="stop-color:#FFFFFF"/>
			<stop  offset="1" style="stop-color:#B3B3B3"/>
		</radialGradient>
		<path class="st5" d="M24,52.9c5.1,0,9.2-4.1,9.2-9.2s-4.1-9.2-9.2-9.2s-9.2,4.1-9.2,9.2S19,52.9,24,52.9z"/>
	</g>
	<g class="st6">
		<path class="st7" d="M41.5,19.9c2.3,0.9,4,0.9,4.9,0c0.6-1.4-1.1-4-4-6.3c-2.9-2.3-6.3-2.6-7.2-1.1c0,0,0,0,0,0.3
			c0-0.6,0-0.9,0.3-1.4c1.1-1.7,5.2-1.1,9.2,1.7c4,2.9,6.3,6.3,4.9,8C48.4,22.5,44.9,21.9,41.5,19.9z"/>
		<path class="st7" d="M37.8,25.6c2.3,0.9,4,0.9,4.9,0c0.9-1.4-0.9-4-4-6.3c-3.1-2.3-6.3-2.6-7.2-1.1c0,0,0,0,0,0.3
			c0-0.6,0-0.9,0.3-1.4c0.9-1.7,5.2-0.9,8.9,1.7c3.7,2.6,6.3,6.3,4.9,8C44.6,28.2,41.2,27.6,37.8,25.6z"/>
		<path class="st7" d="M34,31.4c2.3,0.9,4,0.9,4.9,0c0.6-1.4-1.1-4-4-6s-6.3-2.6-7.4-1.4c0,0,0,0,0,0.3c0-0.6,0-0.9,0.3-1.4
			c1.1-1.7,5.4-0.9,9.2,1.7c3.7,2.6,6.3,6.3,4.9,8C40.9,33.9,37.5,33.4,34,31.4z"/>
		<path class="st7" d="M30,37.1c2.3,0.9,4,0.9,4.9,0c0.9-1.4-0.9-4-4-6s-6-2.6-7.2-1.4c0,0,0,0,0,0.3c0-0.6,0-0.9,0.3-1.4
			c1.1-1.7,5.4-0.9,9.2,1.7c3.7,2.6,6.3,6.3,4.9,8C37.2,39.7,33.8,39.1,30,37.1z"/>
		<path class="st8" d="M24,52.9c5.1,0,9.2-4.1,9.2-9.2s-4.1-9.2-9.2-9.2s-9.2,4.1-9.2,9.2S19,52.9,24,52.9z"/>
	</g>
</g>
</svg>
