<svg width="16" height="16" viewBox="0 0 16 16" fill="none" xmlns="http://www.w3.org/2000/svg">
<path fill-rule="evenodd" clip-rule="evenodd" d="M7.0999 9.40005C7.8999 9.70005 8.4999 9.70005 8.7999 9.40005C9.0999 8.90005 8.4999 8.00005 7.3999 7.30005C6.2999 6.60005 5.2999 6.40005 4.8999 6.80005C4.8999 6.80005 4.8999 6.80005 4.8999 6.90005C4.8999 6.70005 4.8999 6.60005 4.9999 6.40005C5.3999 5.80005 6.8999 6.10005 8.1999 7.00005C9.4999 7.90005 10.3999 9.20005 9.8999 9.80005C9.5999 10.3 8.3999 10.1 7.0999 9.40005Z" fill="white"/>
<path fill-rule="evenodd" clip-rule="evenodd" d="M8.5002 7.40005C9.3002 7.70005 9.9002 7.70005 10.2002 7.40005C10.4002 6.90005 9.8002 6.00005 8.8002 5.30005C7.8002 4.60005 6.6002 4.40005 6.2002 4.80005C6.2002 4.80005 6.2002 4.80005 6.2002 4.90005C6.2002 4.70005 6.2002 4.60005 6.3002 4.40005C6.7002 3.80005 8.2002 4.10005 9.5002 5.00005C10.8002 5.90005 11.7002 7.20005 11.2002 7.80005C10.9002 8.30005 9.7002 8.10005 8.5002 7.40005Z" fill="white"/>
<path fill-rule="evenodd" clip-rule="evenodd" d="M9.79961 5.40005C10.5996 5.70005 11.1996 5.70005 11.4996 5.40005C11.7996 4.90005 11.1996 4.00005 10.0996 3.20005C8.99961 2.40005 7.89961 2.30005 7.59961 2.80005C7.59961 2.80005 7.59961 2.80005 7.59961 2.90005C7.59961 2.70005 7.59961 2.60005 7.69961 2.40005C7.99961 1.80005 9.49961 2.10005 10.7996 3.00005C12.0996 3.90005 12.9996 5.20005 12.4996 5.80005C12.1996 6.30005 10.9996 6.10005 9.79961 5.40005Z" fill="white"/>
<path fill-rule="evenodd" clip-rule="evenodd" d="M11.0999 3.4C11.8999 3.7 12.4999 3.7 12.7999 3.4C12.9999 2.9 12.3999 2 11.3999 1.2C10.3999 0.4 9.1999 0.3 8.8999 0.8C8.8999 0.8 8.8999 0.8 8.8999 0.9C8.8999 0.7 8.8999 0.6 8.9999 0.4C9.3999 -0.2 10.7999 0 12.1999 1C13.5999 2 14.3999 3.2 13.8999 3.8C13.4999 4.3 12.2999 4.1 11.0999 3.4Z" fill="white"/>
<path d="M4.9998 15.2008C6.76712 15.2008 8.1998 13.7681 8.1998 12.0008C8.1998 10.2335 6.76712 8.80078 4.9998 8.80078C3.23249 8.80078 1.7998 10.2335 1.7998 12.0008C1.7998 13.7681 3.23249 15.2008 4.9998 15.2008Z" fill="white"/>
</svg>
