<?xml version="1.0" encoding="utf-8"?>
<!-- Generator: Adobe Illustrator 25.0.0, SVG Export Plug-In . SVG Version: 6.00 Build 0)  -->
<svg version="1.1" id="StreamMediaSource_x5F_64" xmlns="http://www.w3.org/2000/svg" xmlns:xlink="http://www.w3.org/1999/xlink"
	 x="0px" y="0px" viewBox="0 0 64 64" style="enable-background:new 0 0 64 64;" xml:space="preserve">
<style type="text/css">
	.st0{fill:url(#SVGID_1_);}
	.st1{fill:url(#SVGID_2_);}
	.st2{fill-rule:evenodd;clip-rule:evenodd;fill:#FFFFFF;}
	.st3{fill-rule:evenodd;clip-rule:evenodd;fill:url(#SVGID_3_);}
	.st4{fill-rule:evenodd;clip-rule:evenodd;fill:url(#SVGID_4_);}
	.st5{fill-rule:evenodd;clip-rule:evenodd;fill:url(#SVGID_5_);}
	.st6{fill-rule:evenodd;clip-rule:evenodd;fill:url(#SVGID_6_);}
	.st7{fill-rule:evenodd;clip-rule:evenodd;fill:#BFBFBF;}
	.st8{opacity:0.5;}
	.st9{enable-background:new    ;}
	.st10{fill:#FFFFFF;}
	.st11{fill:#FFFFFF;enable-background:new    ;}
	.st12{fill:none;}
</style>
<g>
	<g>
		<linearGradient id="SVGID_1_" gradientUnits="userSpaceOnUse" x1="24.0214" y1="15.1121" x2="25.909" y2="14.016">
			<stop  offset="0" style="stop-color:#CCCCCC"/>
			<stop  offset="0.6345" style="stop-color:#666666"/>
			<stop  offset="1" style="stop-color:#808080"/>
		</linearGradient>
		<path class="st0" d="M29.2,21.6L29.2,21.6c-0.5,0.3-1,0.1-1.3-0.3L20.6,8.7c-0.3-0.5-0.1-1,0.3-1.3l0,0c0.5-0.3,1-0.1,1.3,0.3
			l7.3,12.6C29.8,20.8,29.6,21.4,29.2,21.6z"/>
		<linearGradient id="SVGID_2_" gradientUnits="userSpaceOnUse" x1="37.1709" y1="13.9569" x2="38.3887" y2="14.6876">
			<stop  offset="0" style="stop-color:#CCCCCC"/>
			<stop  offset="0.6345" style="stop-color:#666666"/>
			<stop  offset="1" style="stop-color:#808080"/>
		</linearGradient>
		<path class="st1" d="M34,21.6L34,21.6c0.5,0.3,1,0.1,1.3-0.3l7.3-12.6c0.3-0.5,0.1-1-0.3-1.3v0c-0.5-0.3-1-0.1-1.3,0.3l-7.3,12.6
			C33.4,20.8,33.5,21.4,34,21.6z"/>
		<path class="st2" d="M52.9,46.9H16.6c-2.2,0-4-1.8-4-4V22c0-2.2,1.8-4,4-4h36.2c2.2,0,4,1.8,4,4v20.9
			C56.9,45.1,55.1,46.9,52.9,46.9z"/>
		<linearGradient id="SVGID_3_" gradientUnits="userSpaceOnUse" x1="34.7328" y1="19.7303" x2="34.7328" y2="48.6003">
			<stop  offset="0" style="stop-color:#CCCCCC"/>
			<stop  offset="0.7817" style="stop-color:#666666"/>
			<stop  offset="1" style="stop-color:#808080"/>
		</linearGradient>
		<path class="st3" d="M52.9,47.6H16.6c-2.2,0-4-1.8-4-4V22.7c0-2.2,1.8-4,4-4h36.2c2.2,0,4,1.8,4,4v20.9
			C56.9,45.8,55.1,47.6,52.9,47.6z"/>
		<linearGradient id="SVGID_4_" gradientUnits="userSpaceOnUse" x1="31.4523" y1="21.5609" x2="31.4523" y2="44.5608">
			<stop  offset="0" style="stop-color:#4D4D4D"/>
			<stop  offset="1" style="stop-color:#1A1A1A"/>
		</linearGradient>
		<path class="st4" d="M44,44.7H18.9c-1.7,0-3.1-1.4-3.1-3.1V24.4c0-1.7,1.4-3.1,3.1-3.1H44c1.7,0,3.1,1.4,3.1,3.1v17.1
			C47.1,43.3,45.7,44.7,44,44.7z"/>
		<radialGradient id="SVGID_5_" cx="52.1274" cy="25.0593" r="2.9491" gradientUnits="userSpaceOnUse">
			<stop  offset="0" style="stop-color:#808080"/>
			<stop  offset="1" style="stop-color:#4D4D4D"/>
		</radialGradient>
		<circle class="st5" cx="52.1" cy="25.1" r="2.9"/>
		<radialGradient id="SVGID_6_" cx="52.1274" cy="32.4062" r="2.9491" gradientUnits="userSpaceOnUse">
			<stop  offset="0" style="stop-color:#808080"/>
			<stop  offset="1" style="stop-color:#4D4D4D"/>
		</radialGradient>
		<circle class="st6" cx="52.1" cy="32.4" r="2.9"/>
		<circle class="st7" cx="52.1" cy="25.1" r="2.3"/>
		<circle class="st7" cx="52.1" cy="32.4" r="2.3"/>
	</g>
	<g class="st8">
		<path d="M28.5,43.6c2.5,0,4.5-2,4.5-4.5s-2-4.5-4.5-4.5c-2.5,0-4.5,2-4.5,4.5S26,43.6,28.5,43.6z"/>
		<path class="st9" d="M20.4,47.1l2.3-2.3c-1.3-1.6-2.3-3.6-2.3-5.8c0-2.3,1-4.2,2.3-5.8l-2.3-2.3c-1.9,1.9-3.2,4.9-3.2,8.1
			S18.4,45.2,20.4,47.1z"/>
		<path class="st9" d="M36.6,30.9l-2.3,2.3c1.3,1.6,2.3,3.6,2.3,5.8c0,2.3-1,4.2-2.3,5.8l2.3,2.3c1.9-1.9,3.2-4.9,3.2-8.1
			S38.5,33.2,36.6,30.9z"/>
		<path class="st9" d="M44.1,47.6c1.4-2.6,2.1-5.5,2.1-8.5c0-4.9-1.9-9.4-5.2-12.6l-2.3,2.3C41.4,31.3,43,34.8,43,39
			c0,3.3-1,6.2-2.7,8.5"/>
		<path class="st9" d="M16.6,47.6c-1.7-2.4-2.7-5.3-2.7-8.6c0-3.9,1.6-7.8,4.2-10.4l-2.3-2.3c-3.2,3.2-5.2,7.8-5.2,12.6
			s0.5,5.3,3.7,8.5"/>
	</g>
	<g>
		<path class="st10" d="M27.2,42.7c2.5,0,4.5-2,4.5-4.5s-2-4.5-4.5-4.5c-2.5,0-4.5,2-4.5,4.5S24.7,42.7,27.2,42.7z"/>
		<path class="st11" d="M19.1,46.3l2.3-2.3c-1.3-1.6-2.3-3.6-2.3-5.8c0-2.3,1-4.2,2.3-5.8l-2.3-2.3c-1.9,1.9-3.2,4.9-3.2,8.1
			S17.2,44.3,19.1,46.3z"/>
		<path class="st11" d="M35.3,30.1L33,32.3c1.3,1.6,2.3,3.6,2.3,5.8c0,2.3-1,4.2-2.3,5.8l2.3,2.3c1.9-1.9,3.2-4.9,3.2-8.1
			S37.2,32.3,35.3,30.1z"/>
		<path class="st11" d="M37.5,27.8c2.6,2.6,4.2,6.1,4.2,10.4s-1.6,7.8-4.2,10.4l2.3,2.3C43,47.6,45,43,45,38.2s-1.9-9.4-5.2-12.6
			L37.5,27.8z"/>
		<path class="st11" d="M12.6,38.2c0-3.9,1.6-7.8,4.2-10.4l-2.3-2.3c-3.2,3.2-5.2,7.8-5.2,12.6s1.9,9.4,5.2,12.6l2.3-2.3
			C14.2,45.9,12.6,42.4,12.6,38.2z"/>
	</g>
	<rect x="0" class="st12" width="64" height="64"/>
</g>
</svg>
