<svg width="16" height="16" viewBox="0 0 16 16" fill="none" xmlns="http://www.w3.org/2000/svg">
<path fill-rule="evenodd" clip-rule="evenodd" d="M14 5H12H2C0.9 5 0 5.9 0 7H1L1.2 6.4C1.4 6.2 1.7 6 2 6H12V14V15H13H14C15.1 15 16 14.1 16 13V7C16 5.9 15.1 5 14 5ZM14 13.5C13.2 13.5 12.5 12.8 12.5 12C12.5 11.2 13.2 10.5 14 10.5C14.8 10.5 15.5 11.2 15.5 12C15.5 12.8 14.8 13.5 14 13.5ZM14 9.5C13.2 9.5 12.5 8.8 12.5 8C12.5 7.2 13.2 6.5 14 6.5C14.8 6.5 15.5 7.2 15.5 8C15.5 8.8 14.8 9.5 14 9.5Z" fill="white"/>
<path d="M8.5 5.5L11.5 0.5" stroke="white" stroke-miterlimit="10"/>
<path d="M6.5 5.5L3.5 0.5" stroke="white" stroke-miterlimit="10"/>
<path d="M5.5001 13.5002C6.2733 13.5002 6.9001 12.8734 6.9001 12.1002C6.9001 11.327 6.2733 10.7002 5.5001 10.7002C4.7269 10.7002 4.1001 11.327 4.1001 12.1002C4.1001 12.8734 4.7269 13.5002 5.5001 13.5002Z" fill="white"/>
<path opacity="0.5" d="M3 14.6006L3.7 13.9006C3.3 13.4006 3 12.8006 3 12.1006C3 11.4006 3.3 10.8006 3.7 10.3006L3 9.60059C2.4 10.2006 2 11.1006 2 12.1006C2 13.1006 2.4 14.0006 3 14.6006Z" fill="white"/>
<path opacity="0.5" d="M7.9998 9.60059L7.2998 10.3006C7.6998 10.8006 7.9998 11.4006 7.9998 12.1006C7.9998 12.8006 7.6998 13.4006 7.2998 13.9006L7.9998 14.6006C8.5998 14.0006 8.9998 13.1006 8.9998 12.1006C8.9998 11.1006 8.5998 10.3006 7.9998 9.60059Z" fill="white"/>
<path opacity="0.5" d="M8.7002 8.9002C9.5002 9.7002 10.0002 10.8002 10.0002 12.1002C10.0002 13.4002 9.5002 14.5002 8.7002 15.3002L9.4002 16.0002C10.4002 15.0002 11.0002 13.6002 11.0002 12.1002C11.0002 10.6002 10.4002 9.2002 9.4002 8.2002L8.7002 8.9002Z" fill="white"/>
<path opacity="0.5" d="M1 12.1002C1 10.9002 1.5 9.7002 2.3 8.9002L1.6 8.2002C0.6 9.2002 0 10.6002 0 12.1002C0 13.6002 0.6 15.0002 1.6 16.0002L2.3 15.3002C1.5 14.5002 1 13.4002 1 12.1002Z" fill="white"/>
</svg>
