<svg width="64" height="64" viewBox="0 0 64 64" fill="none" xmlns="http://www.w3.org/2000/svg">
<path d="M50.6 54.46H16.24V8.72H36.85L50.6 23.27V54.46Z" fill="url(#paint0_linear)"/>
<path d="M36.77 11.15L47.7 22.89H36.82L36.77 11.15Z" fill="url(#paint1_linear)"/>
<path d="M22.0684 28.59H21.1247V22.3347L19.2324 23.0297V22.1774L21.9212 21.1678H22.0684V28.59Z" fill="black"/>
<path d="M23.8237 39.86H18.9838V39.1853L21.5407 36.3443C21.9195 35.9147 22.18 35.5664 22.322 35.2992C22.4675 35.0286 22.5402 34.7496 22.5402 34.4621C22.5402 34.0765 22.4235 33.7603 22.1901 33.5134C21.9567 33.2665 21.6456 33.143 21.2566 33.143C20.7899 33.143 20.4263 33.2766 20.1659 33.5438C19.9088 33.8076 19.7803 34.1763 19.7803 34.6498H18.8418C18.8418 33.97 19.0599 33.4204 19.4962 33.001C19.9359 32.5816 20.5227 32.3719 21.2566 32.3719C21.9432 32.3719 22.4861 32.5529 22.8852 32.9147C23.2842 33.2733 23.4838 33.7518 23.4838 34.3505C23.4838 35.0776 23.0204 35.9435 22.0937 36.948L20.1152 39.094H23.8237V39.86Z" fill="black"/>
<path d="M20.3485 46.9801H21.0537C21.4968 46.9733 21.8451 46.8566 22.0988 46.63C22.3525 46.4034 22.4793 46.0973 22.4793 45.7118C22.4793 44.8459 22.0481 44.413 21.1856 44.413C20.7798 44.413 20.4551 44.5297 20.2116 44.7631C19.9714 44.9931 19.8514 45.2992 19.8514 45.6813H18.9128C18.9128 45.0962 19.1259 44.6109 19.552 44.2253C19.9816 43.8364 20.5261 43.6419 21.1856 43.6419C21.8823 43.6419 22.4286 43.8262 22.8243 44.1949C23.22 44.5635 23.4178 45.0759 23.4178 45.7321C23.4178 46.0534 23.313 46.3645 23.1033 46.6656C22.897 46.9666 22.6146 47.1915 22.2561 47.3403C22.6619 47.4688 22.9748 47.6819 23.1946 47.9795C23.4178 48.2772 23.5295 48.6407 23.5295 49.0703C23.5295 49.7332 23.313 50.2591 22.8801 50.648C22.4472 51.037 21.884 51.2315 21.1907 51.2315C20.4973 51.2315 19.9325 51.0438 19.4962 50.6683C19.0633 50.2929 18.8468 49.7974 18.8468 49.1819H19.7905C19.7905 49.5708 19.9173 49.882 20.171 50.1154C20.4246 50.3487 20.7645 50.4654 21.1907 50.4654C21.6439 50.4654 21.9906 50.347 22.2307 50.1103C22.4708 49.8735 22.5909 49.5336 22.5909 49.0906C22.5909 48.661 22.459 48.3313 22.1952 48.1013C21.9314 47.8713 21.5509 47.7529 21.0537 47.7462H20.3485V46.9801Z" fill="black"/>
<path d="M46 25.83H27.23V28.98H46V25.83Z" fill="#3F3F3F"/>
<path d="M46.16 37.16H27.39V40.31H46.16V37.16Z" fill="#3F3F3F"/>
<path d="M46.16 48.48H27.39V51.63H46.16V48.48Z" fill="#3F3F3F"/>
<path opacity="0.3" d="M39.79 9.60001L39.21 22.48L50.77 22.05L39.79 9.60001Z" fill="black"/>
<path d="M50.79 58.47H11.1V6.38H34.91L50.79 22.96V58.47Z" fill="#333333"/>
<path d="M52.85 19.7V57.06H12.61V5.32001H40.17" fill="url(#paint2_linear)"/>
<path opacity="0.7" d="M40.17 5.32001L38.59 21L52.85 19.7L40.17 5.32001Z" fill="black"/>
<path d="M40.19 5.32001L40.16 19.62L52.84 19.69L40.19 5.32001Z" fill="url(#paint3_linear)"/>
<path opacity="0.8" d="M19.1384 27.58H18.1947V21.3247L16.3024 22.0197V21.1674L18.9912 20.1579H19.1384V27.58Z" fill="black"/>
<path opacity="0.8" d="M20.8937 40.1H16.0538V39.4253L18.6107 36.5842C18.9896 36.1547 19.25 35.8064 19.392 35.5392C19.5375 35.2686 19.6102 34.9896 19.6102 34.7021C19.6102 34.3165 19.4935 34.0003 19.2601 33.7534C19.0268 33.5065 18.7156 33.383 18.3266 33.383C17.8599 33.383 17.4963 33.5166 17.2359 33.7838C16.9789 34.0476 16.8503 34.4163 16.8503 34.8898H15.9118C15.9118 34.21 16.1299 33.6604 16.5662 33.241C17.0059 32.8216 17.5927 32.6119 18.3266 32.6119C19.0132 32.6119 19.5561 32.7928 19.9552 33.1547C20.3543 33.5132 20.5538 33.9918 20.5538 34.5905C20.5538 35.3176 20.0904 36.1835 19.1637 37.188L17.1852 39.3339H20.8937V40.1Z" fill="black"/>
<path opacity="0.8" d="M17.4185 48.4801H18.1237C18.5668 48.4733 18.9151 48.3566 19.1688 48.13C19.4225 47.9034 19.5493 47.5973 19.5493 47.2118C19.5493 46.3459 19.1181 45.913 18.2556 45.913C17.8498 45.913 17.5251 46.0297 17.2816 46.2631C17.0414 46.4931 16.9214 46.7992 16.9214 47.1813H15.9828C15.9828 46.5962 16.1959 46.1109 16.622 45.7253C17.0516 45.3364 17.5961 45.1419 18.2556 45.1419C18.9523 45.1419 19.4986 45.3262 19.8943 45.6949C20.29 46.0635 20.4878 46.5759 20.4878 47.2321C20.4878 47.5534 20.383 47.8645 20.1733 48.1656C19.967 48.4666 19.6846 48.6915 19.3261 48.8403C19.7319 48.9688 20.0448 49.1819 20.2646 49.4795C20.4878 49.7772 20.5995 50.1407 20.5995 50.5703C20.5995 51.2332 20.383 51.7591 19.9501 52.148C19.5172 52.537 18.954 52.7315 18.2607 52.7315C17.5674 52.7315 17.0025 52.5438 16.5662 52.1683C16.1333 51.7929 15.9169 51.2974 15.9169 50.6819H16.8605C16.8605 51.0708 16.9873 51.382 17.241 51.6154C17.4946 51.8487 17.8345 51.9654 18.2607 51.9654C18.7139 51.9654 19.0606 51.847 19.3007 51.6103C19.5408 51.3735 19.6609 51.0336 19.6609 50.5906C19.6609 50.161 19.529 49.8313 19.2652 49.6013C19.0014 49.3713 18.6209 49.2529 18.1237 49.2462H17.4185V48.4801Z" fill="black"/>
<g opacity="0.8">
<path opacity="0.8" d="M23.18 26C24.5984 23.9247 26.7742 22.4885 29.24 22C31.7354 21.4436 34.3366 21.596 36.75 22.44C37.95 22.84 39.02 23.37 40.01 23.73C40.9675 24.0908 41.9874 24.2574 43.01 24.22C45.2893 23.9624 47.5331 23.4526 49.7 22.7C47.8789 24.3773 45.6637 25.5674 43.26 26.16C41.9316 26.4225 40.5594 26.3608 39.26 25.98C38.05 25.63 37 25.14 36 24.8C33.9461 24.085 31.7706 23.7858 29.6 23.92C27.3171 24.0521 25.1065 24.7683 23.18 26Z" fill="#303030"/>
</g>
<g opacity="0.8">
<path opacity="0.8" d="M23.18 38.22C24.6022 36.1486 26.7762 34.7136 29.24 34.22C31.7362 33.6736 34.3347 33.8258 36.75 34.66C38 35 39 35.56 40 35.91C40.9569 36.274 41.9767 36.4439 43 36.41C45.2763 36.1485 47.5167 35.6353 49.68 34.88C47.864 36.5645 45.6469 37.7557 43.24 38.34C41.9124 38.6058 40.5402 38.5475 39.24 38.17C38.05 37.82 37 37.33 36 37C33.9456 36.2868 31.771 35.9843 29.6 36.11C27.3154 36.2564 25.1059 36.9826 23.18 38.22Z" fill="#303030"/>
</g>
<g opacity="0.8">
<path opacity="0.8" d="M23.18 50.41C24.5991 48.3355 26.7746 46.8995 29.24 46.41C31.7357 45.8583 34.3357 46.0107 36.75 46.85C37.95 47.26 39.02 47.78 40.01 48.14C40.9669 48.5039 41.9867 48.6739 43.01 48.64C45.2855 48.3734 47.5253 47.8604 49.69 47.11C47.874 48.7944 45.6569 49.9856 43.25 50.57C41.9224 50.8358 40.5502 50.7774 39.25 50.4C38.05 50 37 49.52 36 49.18C33.9456 48.4667 31.771 48.1643 29.6 48.29C27.3145 48.4394 25.1049 49.169 23.18 50.41Z" fill="#303030"/>
</g>
<defs>
<linearGradient id="paint0_linear" x1="17.36" y1="53.25" x2="50.19" y2="8.98" gradientUnits="userSpaceOnUse">
<stop stop-color="#B3B3B3"/>
<stop offset="1" stop-color="#F2F2F2"/>
</linearGradient>
<linearGradient id="paint1_linear" x1="36.77" y1="17.02" x2="47.71" y2="17.02" gradientUnits="userSpaceOnUse">
<stop stop-color="#666666"/>
<stop offset="1" stop-color="#999999"/>
</linearGradient>
<linearGradient id="paint2_linear" x1="32.33" y1="7.13001" x2="32.96" y2="56.49" gradientUnits="userSpaceOnUse">
<stop stop-color="white"/>
<stop offset="1" stop-color="#B3B3B3"/>
</linearGradient>
<linearGradient id="paint3_linear" x1="50.99" y1="8.44001" x2="36.66" y2="21.48" gradientUnits="userSpaceOnUse">
<stop stop-color="#CCCCCC"/>
<stop offset="1" stop-color="#808080"/>
</linearGradient>
</defs>
</svg>
