<?xml version="1.0" encoding="utf-8"?>
<!-- Generator: Adobe Illustrator 25.0.0, SVG Export Plug-In . SVG Version: 6.00 Build 0)  -->
<svg version="1.1" id="SubsurfaceProfile_x5F_64" xmlns="http://www.w3.org/2000/svg" xmlns:xlink="http://www.w3.org/1999/xlink"
	 x="0px" y="0px" viewBox="0 0 64 64" style="enable-background:new 0 0 64 64;" xml:space="preserve">
<style type="text/css">
	.st0{fill:url(#SVGID_1_);enable-background:new    ;}
	.st1{fill:#FFFFFF;}
	.st2{fill:url(#SVGID_2_);enable-background:new    ;}
	.st3{fill:url(#SVGID_3_);enable-background:new    ;}
	.st4{fill:none;}
</style>
<g>
	<linearGradient id="SVGID_1_" gradientUnits="userSpaceOnUse" x1="31.8468" y1="22.3167" x2="32.1532" y2="48.156">
		<stop  offset="0" style="stop-color:#CCCCCC"/>
		<stop  offset="1" style="stop-color:#808080"/>
	</linearGradient>
	<path class="st0" d="M52.3,47.9H22.1L11.7,22.6h25.6L52.3,47.9z"/>
	<path class="st1" d="M44.4,35.2C44.7,35.2,44.7,35.2,44.4,35.2l-7.1-12.7H25.2c0.3,0.8,0.3,1.3,0.3,2c0.3,4.8-3.8,9.1-8.4,10.7
		C24.9,35.2,32.8,35.2,44.4,35.2z"/>
	<linearGradient id="SVGID_2_" gradientUnits="userSpaceOnUse" x1="34.5788" y1="34.6185" x2="34.7389" y2="48.1254">
		<stop  offset="0" style="stop-color:#4D4D4D"/>
		<stop  offset="1" style="stop-color:#B3B3B3"/>
	</linearGradient>
	<path class="st2" d="M52.3,47.9H22.1L17,35.5l27.4-1L52.3,47.9z"/>
	<linearGradient id="SVGID_3_" gradientUnits="userSpaceOnUse" x1="33.8806" y1="12.2411" x2="34.1548" y2="35.3674">
		<stop  offset="0" style="stop-color:#808080"/>
		<stop  offset="0.4772" style="stop-color:#FFFFFF"/>
		<stop  offset="0.72" style="stop-color:#AEAEAE"/>
		<stop  offset="1" style="stop-color:#4D4D4D"/>
	</linearGradient>
	<path class="st3" d="M45.2,12.4H19.6c0,0,5.3,5.1,5.8,12.2c0.3,4.8-3.8,9.4-8.4,11c7.9,0,15.7-0.3,27.4-0.3
		C56.1,27.6,50,16,45.2,12.4z"/>
	<rect x="0" class="st4" width="64" height="64"/>
</g>
</svg>
