<svg width="16" height="16" viewBox="0 0 16 16" fill="none" xmlns="http://www.w3.org/2000/svg">
<path opacity="0.5" d="M16 15H4.1L0 5H10.1L16 15Z" fill="white"/>
<path opacity="0.5" d="M13.2001 1H3.1001C3.1001 1 5.2001 3 5.4001 5.8C5.5001 7.7 3.9001 9.4 2.1001 10C5.2001 10 8.3001 10 12.9001 10C17.5001 7 15.1001 2.4 13.2001 1Z" fill="white"/>
<path d="M12.9001 10C13.0001 10 13.0001 10 12.9001 10L10.1001 5H5.3001C5.4001 5.3 5.4001 5.5 5.4001 5.8C5.5001 7.7 3.9001 9.4 2.1001 10C5.2001 10 8.3001 10 12.9001 10Z" fill="white"/>
</svg>
