<svg width="16" height="16" viewBox="0 0 16 16" fill="none" xmlns="http://www.w3.org/2000/svg">
<path d="M7.50039 3.30078C5.20039 3.30078 3.40039 5.10078 3.40039 7.40078C3.40039 9.70078 5.60039 10.8008 7.50039 15.3008C9.40039 10.8008 11.6004 9.70078 11.6004 7.40078C11.6004 5.10078 9.80039 3.30078 7.50039 3.30078ZM7.50039 9.40078C6.50039 9.40078 5.60039 8.60078 5.60039 7.50078C5.60039 6.40078 6.40039 5.60078 7.50039 5.60078C8.50039 5.60078 9.40039 6.40078 9.40039 7.50078C9.40039 8.60078 8.50039 9.40078 7.50039 9.40078Z" fill="white"/>
<path opacity="0.5" d="M3.3 3.9L1.3 1.9L2 1.2L4 3.2C3.8 3.4 3.5 3.7 3.3 3.9ZM11.7 3.9L13.7 1.9L13 1.2L11 3.2C11.2 3.4 11.5 3.7 11.7 3.9ZM7.5 2C7.7 2 7.9 2 8 2V0H7V2C7.1 2 7.3 2 7.5 2ZM13 7C13 7.1 13 7.3 13 7.5C13 7.7 13 7.9 13 8H15V7H13ZM2 7.5C2 7.3 2 7.1 2 7H0V8H2C2 7.8 2 7.6 2 7.5Z" fill="white"/>
</svg>
