<svg width="16" height="16" viewBox="0 0 16 16" fill="none" xmlns="http://www.w3.org/2000/svg">
<path d="M4.7 8.9C7.0196 8.9 8.9 7.0196 8.9 4.7C8.9 2.3804 7.0196 0.5 4.7 0.5C2.3804 0.5 0.5 2.3804 0.5 4.7C0.5 7.0196 2.3804 8.9 4.7 8.9Z" fill="white"/>
<path opacity="0.5" d="M8.4002 8.2998C7.4002 9.1998 6.2002 9.7998 4.7002 9.7998C3.9002 9.7998 3.1002 9.5998 2.4002 9.2998C2.3002 9.3998 2.2002 9.5998 2.2002 9.7998C2.2002 10.6998 4.3002 11.4998 6.9002 11.4998C9.5002 11.4998 11.6002 10.7998 11.6002 9.7998C11.5002 9.0998 10.2002 8.4998 8.4002 8.2998Z" fill="white"/>
<path opacity="0.5" d="M9 11H16V15H9V11Z" fill="white"/>
<path d="M16 11H9V15H16V11Z" fill="white"/>
<path d="M14.9292 7.07184L8.44531 9.43164L8.95831 10.8412L15.4422 8.48139L14.9292 7.07184Z" fill="white"/>
</svg>
