<svg width="16" height="16" viewBox="0 0 16 16" fill="none" xmlns="http://www.w3.org/2000/svg">
<path opacity="0.5" fill-rule="evenodd" clip-rule="evenodd" d="M2.5 16.0009C6.2 14.0009 8 14.5009 8 14.5009C8 14.5009 9.8 14.0009 13.5 16.0009C9.8 16.0009 6.2 16.0009 2.5 16.0009Z" fill="white"/>
<path d="M7.99961 6.70039C9.04895 6.70039 9.89961 5.84973 9.89961 4.80039C9.89961 3.75105 9.04895 2.90039 7.99961 2.90039C6.95027 2.90039 6.09961 3.75105 6.09961 4.80039C6.09961 5.84973 6.95027 6.70039 7.99961 6.70039Z" fill="white"/>
<path opacity="0.5" d="M11.2999 1.40039L10.3999 2.30039C10.9999 2.90039 11.3999 3.70039 11.3999 4.70039C11.3999 5.70039 10.9999 6.50039 10.3999 7.10039L11.2999 8.00039C12.0999 7.20039 12.6999 6.00039 12.6999 4.70039C12.6999 3.50039 12.1999 2.30039 11.2999 1.40039Z" fill="white"/>
<path opacity="0.5" d="M4.6998 4.80039C4.6998 3.90039 5.0998 3.00039 5.6998 2.40039L4.6998 1.40039C3.8998 2.20039 3.2998 3.40039 3.2998 4.70039C3.2998 6.00039 3.7998 7.20039 4.6998 8.00039L5.5998 7.10039C4.9998 6.50039 4.6998 5.70039 4.6998 4.80039Z" fill="white"/>
<path d="M8.5999 7.20117H7.3999V11.0012H8.5999V7.20117Z" fill="white"/>
<path d="M15 1V12H1V1H15ZM16 0H0V13H16V0Z" fill="white"/>
</svg>
