<svg width="16" height="16" viewBox="0 0 16 16" fill="none" xmlns="http://www.w3.org/2000/svg">
<path fill-rule="evenodd" clip-rule="evenodd" d="M12 6V7.5C12 9.7 10.2 11.5 8 11.5C5.8 11.5 4 9.7 4 7.5V6H3V7.5C3 9.9 4.8 12 7.1 12.4C7.2 13.2 7.4 15.2 5 16C8 16 8 16 11 16C8.6 15.2 8.8 13.2 8.9 12.4C11.2 12 13 9.9 13 7.5V6H12Z" fill="white"/>
<path opacity="0.5" d="M10.6998 2.4V7.6C10.6998 8.9 9.5998 10 8.2998 10H7.6998C6.3998 10 5.2998 8.9 5.2998 7.6V2.4C5.2998 1.1 6.3998 0 7.6998 0H8.2998C9.5998 0 10.6998 1.1 10.6998 2.4Z" fill="white"/>
<path d="M11 15H5V16H11V15Z" fill="white"/>
</svg>
