<svg width="16" height="16" viewBox="0 0 16 16" fill="none" xmlns="http://www.w3.org/2000/svg">
<path fill-rule="evenodd" clip-rule="evenodd" d="M7.1998 14.8996C5.9998 13.5996 4.69981 11.3996 4.7998 10.3996C4.9998 8.8996 5.9998 8.9996 5.9998 8.9996C5.9998 8.9996 3.9998 7.8996 3.6998 7.1996C3.3998 6.5996 2.1998 5.9996 1.7998 4.9996C2.8998 2.6996 5.2998 1.09961 7.9998 1.09961C9.1998 1.09961 10.3998 1.3996 11.3998 1.9996C10.9998 2.7996 10.2998 3.89961 9.4998 4.59961C8.5998 5.39961 10.4998 6.49961 9.8998 7.29961C9.3998 7.89961 8.9998 7.09961 8.5998 6.29961C8.2998 5.69961 7.2998 5.8996 6.6998 5.8996C4.4998 5.9996 5.2998 9.29961 7.0998 8.79961C8.2998 8.49961 8.9998 8.3996 10.0998 9.1996C10.7998 9.7996 10.8998 10.9996 10.0998 12.0996C9.4998 12.8996 9.4998 14.0996 9.3998 14.8996C8.8998 14.9996 8.4998 14.9996 7.9998 14.9996C7.6998 14.9996 7.3998 14.9996 7.1998 14.8996Z" fill="white"/>
<path opacity="0.5" fill-rule="evenodd" clip-rule="evenodd" d="M8 0.5C12.1 0.5 15.5 3.9 15.5 8C15.5 12.1 12.1 15.5 8 15.5C3.9 15.5 0.5 12.1 0.5 8C0.5 3.9 3.9 0.5 8 0.5Z" fill="white"/>
</svg>
