<?xml version="1.0" encoding="utf-8"?>
<!-- Generator: Adobe Illustrator 24.2.3, SVG Export Plug-In . SVG Version: 6.00 Build 0)  -->
<svg version="1.1" id="Layer_1" xmlns="http://www.w3.org/2000/svg" xmlns:xlink="http://www.w3.org/1999/xlink" x="0px" y="0px"
	 viewBox="0 0 64 64" style="enable-background:new 0 0 64 64;" xml:space="preserve">
<style type="text/css">
	.st0{fill:none;}
	.st1{fill:url(#SVGID_1_);}
	.st2{fill:#FFFFFF;}
	.st3{fill:#FFFFFF;stroke:#666666;stroke-width:0.5;stroke-miterlimit:10;}
	.st4{opacity:0.5;fill:#FFFFFF;enable-background:new    ;}
</style>
<g id="TargetPoint_x5F_64">
	<g>
		<rect class="st0" width="64" height="64"/>
		
			<radialGradient id="SVGID_1_" cx="31.9" cy="222" r="19.9" gradientTransform="matrix(1 0 0 1 0 -190)" gradientUnits="userSpaceOnUse">
			<stop  offset="0" style="stop-color:#666666"/>
			<stop  offset="1" style="stop-color:#333333"/>
		</radialGradient>
		<circle class="st1" cx="31.9" cy="32" r="19.9"/>
		<g>
			<path class="st2" d="M54.6,31.1H32.8V9.3l-0.9-2l-0.9,2v21.8H9.2l-2,0.9l2,0.9H31v21.8l0.9,2l0.9-2V32.9h21.8l2-0.9L54.6,31.1z"
				/>
			<path class="st3" d="M31.9,33.9c1,0,1.9-0.8,1.9-1.9s-0.8-1.9-1.9-1.9c-1,0-1.9,0.8-1.9,1.9C30,33.1,30.9,33.9,31.9,33.9z"/>
			<path class="st4" d="M29.4,50.7v-5c-5.5-1-10.1-5.5-11.1-11.1h-5C14.2,43.1,20.8,49.7,29.4,50.7z"/>
			<path class="st4" d="M13.2,29.5h5c1-5.5,5.5-10.1,11.1-11.1v-5C20.8,14.3,14.2,20.9,13.2,29.5z"/>
			<path class="st4" d="M50.6,34.5h-5c-1,5.5-5.5,10.1-11.1,11.1v5C43,49.7,49.5,43.1,50.6,34.5z"/>
			<path class="st4" d="M34.4,13.3v5c5.5,1,10.1,5.5,11.1,11.1h5C49.5,20.9,43,14.3,34.4,13.3z"/>
		</g>
	</g>
</g>
</svg>
