<svg width="16" height="16" viewBox="0 0 16 16" fill="none" xmlns="http://www.w3.org/2000/svg">
<path opacity="0.5" fill-rule="evenodd" clip-rule="evenodd" d="M1 10H11L12 11V16H16V8H1V10Z" fill="white"/>
<path fill-rule="evenodd" clip-rule="evenodd" d="M1 10H2V9H15V15H12V16H16V8H1V10Z" fill="white"/>
<path d="M8.6 11.9996C9.2 11.9996 9.7 12.4996 9.7 13.0996V13.9996C9.7 14.5996 9.2 15.0996 8.6 15.0996H8V15.9996H8.6C9.7 15.9996 10.6 15.0996 10.6 13.9996V13.0996C10.6 11.9996 9.7 11.0996 8.6 11.0996H6C4.9 11.0996 4 11.9996 4 13.0996V13.7996H4.9V13.0996C4.9 12.4996 5.4 11.9996 6 11.9996H8.6Z" fill="white"/>
<path d="M2.59961 14.9996C1.99961 14.9996 1.49961 14.4996 1.49961 13.8996V12.9996C1.49961 12.4996 1.99961 11.9996 2.59961 11.9996H3.19961V11.0996H2.59961C1.49961 11.0996 0.599609 11.9996 0.599609 13.0996V13.9996C0.599609 15.0996 1.49961 15.9996 2.59961 15.9996H5.19961C6.29961 15.9996 7.19961 15.0996 7.19961 13.9996V13.1996H6.29961V13.8996C6.29961 14.5996 5.79961 15.0996 5.09961 15.0996H2.59961V14.9996Z" fill="white"/>
<path fill-rule="evenodd" clip-rule="evenodd" d="M12.3002 3.5998L10.2002 4.3998V2.0998L12.3002 1.2998V3.5998ZM9.2002 2.4998L7.2002 3.2998V5.5998L9.3002 4.7998L9.2002 2.4998ZM4.1002 6.7998L6.1002 5.9998V3.6998L4.1002 4.4998V6.7998ZM13.4002 0.899805V3.1998L15.5002 2.3998L14.7002 0.299805L13.4002 0.899805ZM3.1002 4.8998L0.200195 5.9998L1.0002 7.9998L3.1002 7.1998V4.8998Z" fill="white"/>
</svg>
