<?xml version="1.0" encoding="utf-8"?>
<!-- Generator: Adobe Illustrator 24.3.0, SVG Export Plug-In . SVG Version: 6.00 Build 0)  -->
<svg version="1.1" id="TemplateSequence_x5F_64" xmlns="http://www.w3.org/2000/svg" xmlns:xlink="http://www.w3.org/1999/xlink"
	 x="0px" y="0px" viewBox="0 0 64 64" style="enable-background:new 0 0 64 64;" xml:space="preserve">
<style type="text/css">
	.st0{fill:none;}
	.st1{fill:#7F7F7F;}
	.st2{fill:#FFFFFF;}
	.st3{fill:url(#SVGID_1_);stroke:#FFFFFF;stroke-miterlimit:10;}
	.st4{fill:#5B5B5B;}
	.st5{fill:url(#SVGID_2_);}
	.st6{fill:url(#SVGID_3_);}
</style>
<g>
	<rect x="0" class="st0" width="64" height="64"/>
	<g>
		<path class="st1" d="M9.9,56.5h46.3c0.9,0,1.6-0.7,1.6-1.6V32.9c0-0.9-0.7-1.6-1.6-1.6H9.9c-0.9,0-1.6,0.7-1.6,1.6v21.9
			C8.3,55.7,9,56.5,9.9,56.5z"/>
		<g>
			<g>
				<rect x="8.8" y="27" class="st1" width="48.6" height="6.7"/>
				<path class="st2" d="M56.9,27.5v5.7H9.3v-5.7H56.9 M57.9,26.5H8.3v7.7h49.6V26.5L57.9,26.5z"/>
			</g>
			<polygon class="st2" points="18.8,33.7 12.5,33.7 16.6,26.9 22.9,26.9 			"/>
			<polygon class="st2" points="30.1,33.7 23.8,33.7 27.9,26.9 34.2,26.9 			"/>
			<polygon class="st2" points="41.4,33.7 35,33.7 39.1,26.9 45.5,26.9 			"/>
			<polygon class="st2" points="53,33.7 46.6,33.7 50.7,26.9 57.1,26.9 			"/>
		</g>
		<linearGradient id="SVGID_1_" gradientUnits="userSpaceOnUse" x1="33.1416" y1="37.7861" x2="33.0838" y2="52.8653">
			<stop  offset="0" style="stop-color:#FFFFFF"/>
			<stop  offset="1" style="stop-color:#C2C2C2"/>
		</linearGradient>
		<path class="st3" d="M17.2,52.8H49c0.6,0,1.1-0.5,1.1-1.1V39c0-0.6-0.5-1.1-1.1-1.1H17.2c-0.6,0-1.1,0.5-1.1,1.1v12.7
			C16,52.3,16.6,52.8,17.2,52.8z"/>
		<g>
			<g>
				
					<rect x="6.8" y="12.7" transform="matrix(0.9639 -0.2662 0.2662 0.9639 -3.1508 8.8575)" class="st1" width="48.6" height="6.7"/>
				<path class="st2" d="M53.3,7l1.5,5.5L8.9,25.1l-1.5-5.5L53.3,7 M54,5.7L6.2,18.9l2.1,7.4L56,13.2L54,5.7L54,5.7z"/>
			</g>
			<polygon class="st2" points="16.5,16.6 10.3,18.3 16.1,23.8 22.2,22.1 			"/>
			<polygon class="st2" points="27.3,13.6 21.2,15.3 27,20.7 33.1,19.1 			"/>
			<polygon class="st2" points="38.2,10.6 32.1,12.3 37.8,17.7 44,16.1 			"/>
			<polygon class="st2" points="49.4,7.5 43.3,9.2 49,14.7 55.1,13 			"/>
		</g>
	</g>
	<g>
		<path class="st4" d="M31.6,59.3H12.7c-3.7,0-6.7-3-6.7-6.7v-2.7c0-3.7,3-6.7,6.7-6.7h18.9c3.7,0,6.7,3,6.7,6.7v2.7
			C38.3,56.3,35.3,59.3,31.6,59.3z"/>
		<g>
			<g>
				
					<linearGradient id="SVGID_2_" gradientUnits="userSpaceOnUse" x1="-56.4693" y1="-12.7458" x2="-40.9578" y2="-28.2573" gradientTransform="matrix(0 1 -1 0 -5.0737 100.2947)">
					<stop  offset="0" style="stop-color:#E6E6E6"/>
					<stop  offset="1" style="stop-color:#B3B3B3"/>
				</linearGradient>
				<path class="st5" d="M10.6,59.1c-4,0-7.2-3.5-7.2-7.7s3.2-7.7,7.2-7.7h10.3l-1.3,0.9c-1,0.7-1.8,1.6-2.4,2.7l-0.1,0.3h-6.5
					c-1.9,0-3.5,1.7-3.5,3.8s1.6,3.8,3.5,3.8h9.9c1.9,0,3.5-1.7,3.5-3.8c0-0.9-0.3-1.9-0.9-2.6l-0.6-0.7l0.9-0.1c0.1,0,0.2,0,0.3,0
					H27l0.1,0.3c0.4,1,0.6,2,0.6,3.1c0,4.3-3.2,7.7-7.2,7.7H10.6z"/>
				<path class="st4" d="M19.4,44.2c-1,0.7-1.9,1.7-2.5,2.9h-6.2c-2.2,0-4,1.9-4,4.3c0,2.4,1.8,4.3,4,4.3h9.9c2.2,0,4-1.9,4-4.3
					c0-1.1-0.4-2.1-1-2.9c0.1,0,0.2,0,0.3,0h2.9c0.4,0.9,0.6,1.9,0.6,2.9c0,4-3,7.2-6.7,7.2h-9.9c-3.7,0-6.7-3.2-6.7-7.2
					s3-7.2,6.7-7.2H19.4 M22.5,43.2h-3.1h-8.7c-4.2,0-7.7,3.7-7.7,8.2c0,4.5,3.5,8.2,7.7,8.2h9.9c4.2,0,7.7-3.7,7.7-8.2
					c0-1.1-0.2-2.2-0.6-3.3l-0.3-0.6h-0.7h-2.9c-0.1,0-0.2,0-0.4,0l-1.9,0.2l1.2,1.4c0.5,0.6,0.8,1.4,0.8,2.3c0,1.8-1.4,3.3-3,3.3
					h-9.9c-1.7,0-3-1.5-3-3.3c0-1.8,1.4-3.3,3-3.3h6.2h0.6l0.3-0.5c0.5-1,1.3-1.9,2.2-2.5L22.5,43.2L22.5,43.2z"/>
			</g>
			<g>
				
					<linearGradient id="SVGID_3_" gradientUnits="userSpaceOnUse" x1="-56.8112" y1="-26.3581" x2="-41.2998" y2="-41.8694" gradientTransform="matrix(0 1 -1 0 -5.0737 100.2947)">
					<stop  offset="0" style="stop-color:#E6E6E6"/>
					<stop  offset="1" style="stop-color:#B3B3B3"/>
				</linearGradient>
				<path class="st6" d="M23.3,59.1l1.3-0.9c1-0.7,1.8-1.6,2.4-2.7l0.1-0.3h6.7c1.9,0,3.5-1.7,3.5-3.8s-1.6-3.8-3.5-3.8h-9.9
					c-1.9,0-3.5,1.7-3.5,3.8c0,0.9,0.3,1.8,0.9,2.5l0.5,0.7L21,54.8c-0.2,0-0.4,0.1-0.5,0.1h-3l-0.1-0.3c-0.4-1-0.6-2-0.6-3.1
					c0-4.3,3.2-7.7,7.2-7.7h9.9c4,0,7.2,3.5,7.2,7.7s-3.2,7.7-7.2,7.7H23.3z"/>
				<path class="st4" d="M33.8,44.2c3.7,0,6.7,3.2,6.7,7.2s-3,7.2-6.7,7.2h-8.9c1-0.7,1.9-1.7,2.5-2.9h6.4c2.2,0,4-1.9,4-4.3
					c0-2.4-1.8-4.3-4-4.3h-9.9c-2.2,0-4,1.9-4,4.3c0,1.1,0.4,2.1,1,2.9c-0.1,0-0.3,0-0.4,0h-2.7c-0.4-0.9-0.6-1.9-0.6-2.9
					c0-4,3-7.2,6.7-7.2H33.8 M33.8,43.2h-9.9c-4.2,0-7.7,3.7-7.7,8.2c0,1.1,0.2,2.2,0.6,3.3l0.3,0.6h0.7h2.7c0.2,0,0.4,0,0.6-0.1
					l1.7-0.3l-1.1-1.3c-0.5-0.6-0.8-1.4-0.8-2.2c0-1.8,1.4-3.3,3-3.3h9.9c1.7,0,3,1.5,3,3.3c0,1.8-1.4,3.3-3,3.3h-6.4h-0.6l-0.3,0.5
					c-0.5,1-1.3,1.9-2.2,2.5l-2.5,1.8h3.1h8.9c4.2,0,7.7-3.7,7.7-8.2C41.5,46.9,38.1,43.2,33.8,43.2L33.8,43.2z"/>
			</g>
		</g>
	</g>
</g>
</svg>
