<?xml version="1.0" encoding="utf-8"?>
<!-- Generator: Adobe Illustrator 24.3.0, SVG Export Plug-In . SVG Version: 6.00 Build 0)  -->
<svg version="1.1" id="TextureRenderTargetCube_x5F_64"
	 xmlns="http://www.w3.org/2000/svg" xmlns:xlink="http://www.w3.org/1999/xlink" x="0px" y="0px" viewBox="0 0 64 64"
	 style="enable-background:new 0 0 64 64;" xml:space="preserve">
<style type="text/css">
	.st0{opacity:0.5;fill:url(#SVGID_1_);enable-background:new    ;}
	.st1{fill:url(#SVGID_2_);enable-background:new    ;}
	.st2{fill:url(#SVGID_3_);}
	.st3{fill:url(#SVGID_4_);}
	.st4{fill:url(#SVGID_5_);}
	.st5{fill:url(#SVGID_6_);}
	.st6{fill:url(#SVGID_7_);}
	.st7{fill:none;}
</style>
<g>
	<g>
		<linearGradient id="SVGID_1_" gradientUnits="userSpaceOnUse" x1="11.3145" y1="31.9997" x2="34.6981" y2="31.9997">
			<stop  offset="0" style="stop-color:#1A1A1A"/>
			<stop  offset="1" style="stop-color:#333333"/>
		</linearGradient>
		<path class="st0" d="M34.7,10.4v43.2l-23.4-9V19.4L34.7,10.4z"/>
	</g>
	<linearGradient id="SVGID_2_" gradientUnits="userSpaceOnUse" x1="34.6981" y1="31.9997" x2="52.6855" y2="31.9997">
		<stop  offset="0" style="stop-color:#808080"/>
		<stop  offset="1" style="stop-color:#333333"/>
	</linearGradient>
	<path class="st1" d="M52.7,42.8l-18,10.8V10.4l18,11.1V42.8z"/>
	<linearGradient id="SVGID_3_" gradientUnits="userSpaceOnUse" x1="11.3145" y1="41.3656" x2="16.1111" y2="41.3656">
		<stop  offset="0" style="stop-color:#FFFFFF"/>
		<stop  offset="1" style="stop-color:#CCCCCC"/>
	</linearGradient>
	<path class="st2" d="M16.1,46.4l-4.8-1.8v-8.3l4.8,0.8V46.4z"/>
	<linearGradient id="SVGID_4_" gradientUnits="userSpaceOnUse" x1="11.3145" y1="22.6335" x2="16.1111" y2="22.6335">
		<stop  offset="0" style="stop-color:#FFFFFF"/>
		<stop  offset="1" style="stop-color:#CCCCCC"/>
	</linearGradient>
	<path class="st3" d="M16.1,26.9l-4.8,0.8v-8.3l4.8-1.8V26.9z"/>
	<linearGradient id="SVGID_5_" gradientUnits="userSpaceOnUse" x1="16.1113" y1="32.0003" x2="23.606" y2="32.0003">
		<stop  offset="0" style="stop-color:#FFFFFF"/>
		<stop  offset="1" style="stop-color:#CCCCCC"/>
	</linearGradient>
	<path class="st4" d="M23.6,38l-7.5-0.9V26.9l7.5-0.9V38z"/>
	<linearGradient id="SVGID_6_" gradientUnits="userSpaceOnUse" x1="23.606" y1="45.7906" x2="34.6983" y2="45.7906">
		<stop  offset="0" style="stop-color:#FFFFFF"/>
		<stop  offset="1" style="stop-color:#CCCCCC"/>
	</linearGradient>
	<path class="st5" d="M34.7,53.6l-11.1-4.3V38l11.1,1.2V53.6z"/>
	<linearGradient id="SVGID_7_" gradientUnits="userSpaceOnUse" x1="23.606" y1="18.2093" x2="34.6983" y2="18.2093">
		<stop  offset="0" style="stop-color:#FFFFFF"/>
		<stop  offset="1" style="stop-color:#CCCCCC"/>
	</linearGradient>
	<path class="st6" d="M34.7,24.8L23.6,26V14.7l11.1-4.3V24.8z"/>
	<rect x="0" class="st7" width="64" height="64"/>
</g>
</svg>
