<svg width="16" height="16" viewBox="0 0 16 16" fill="none" xmlns="http://www.w3.org/2000/svg">
<path fill-rule="evenodd" clip-rule="evenodd" d="M9 4.90002C9 5.10002 9 5.19995 8.9 5.19995C8.8 5.29995 8.8 5.30005 8.7 5.30005C8.6 5.30005 8.5 5.29995 8.5 5.19995C8.4 5.09995 8.4 5.00002 8 4.90002V4H6V11H7.4C7.5 11.4 7.7 11.4 7.7 11.4C7.8 11.5 7.8 11.5 7.8 11.6C7.8 11.7 7.8 11.8 7.7 11.8C7.6 11.9 7.5 11.9 7.4 11.9H3.6C3.5 11.9 3.3 11.9 3.3 11.8C3.2 11.7 3.2 11.7 3.2 11.6C3.2 11.5 3.2 11.4 3.3 11.4C3.4 11.3 3.5 11.3 3.6 11H5V4H3V4.90002C2.6 5.10002 2.6 5.19995 2.5 5.19995C2.4 5.29995 2.4 5.30005 2.3 5.30005C2.2 5.30005 2.1 5.29995 2.1 5.19995C2.1 5.09995 2 5.00002 2 4.90002V3H9V4.90002ZM14 7H12V11H13V12H11V7H9V6H11V4H12V6H14V7Z" fill="white"/>
<g opacity="0.5">
<path opacity="0.5" d="M15 2V13H1V2H15ZM16 1H0V14H16V1Z" fill="white"/>
</g>
</svg>
