<?xml version="1.0" encoding="utf-8"?>
<!-- Generator: Adobe Illustrator 24.3.0, SVG Export Plug-In . SVG Version: 6.00 Build 0)  -->
<svg version="1.1" id="TimeCodeSynchronizer_x5F_64"
	 xmlns="http://www.w3.org/2000/svg" xmlns:xlink="http://www.w3.org/1999/xlink" x="0px" y="0px" viewBox="0 0 64 64"
	 style="enable-background:new 0 0 64 64;" xml:space="preserve">
<style type="text/css">
	.st0{fill:none;}
	.st1{fill:#DDDDDD;}
	.st2{fill:url(#SVGID_1_);}
	.st3{fill:url(#SVGID_2_);}
	.st4{fill:url(#SVGID_3_);}
	.st5{fill:none;stroke:url(#SVGID_4_);stroke-miterlimit:10;}
	.st6{fill:none;stroke:url(#SVGID_5_);stroke-miterlimit:10;}
	.st7{fill:url(#SVGID_6_);}
	.st8{fill:url(#SVGID_7_);}
	.st9{fill-rule:evenodd;clip-rule:evenodd;fill:url(#SVGID_8_);}
	.st10{fill:#CCCCCC;}
	.st11{fill-rule:evenodd;clip-rule:evenodd;fill:url(#SVGID_9_);}
	.st12{fill-rule:evenodd;clip-rule:evenodd;fill:url(#SVGID_10_);}
</style>
<g>
	<rect x="0" class="st0" width="64" height="64"/>
	<g>
		<path class="st1" d="M33.6,55.9H9.4c-1.8,0-3-1.2-3-2.9V29.7c0-1.7,1.2-2.9,3-2.9h24.2c1.8,0,3,1.2,3,2.9V53
			C36.7,54.7,35.5,55.9,33.6,55.9z"/>
		<path class="st1" d="M38.6,39.5v2.9c0,0.5,0.2,1,0.6,1.3l11.5,9.1c0.9,0.7,2.2,0,2.2-1.3V30.4c0-1.3-1.2-2-2.2-1.3l-11.5,9.1
			C38.8,38.5,38.6,39,38.6,39.5z"/>
		<linearGradient id="SVGID_1_" gradientUnits="userSpaceOnUse" x1="21.615" y1="27.2455" x2="21.4451" y2="57.6657">
			<stop  offset="0" style="stop-color:#B3B3B3"/>
			<stop  offset="1" style="stop-color:#666666"/>
		</linearGradient>
		<path class="st2" d="M33.6,56.9H9.4c-1.8,0-3-1.2-3-2.9V30.7c0-1.7,1.2-2.9,3-2.9h24.2c1.8,0,3,1.2,3,2.9V54
			C36.7,55.8,35.5,56.9,33.6,56.9z"/>
		<linearGradient id="SVGID_2_" gradientUnits="userSpaceOnUse" x1="56.8569" y1="42.2241" x2="22.4667" y2="42.3235">
			<stop  offset="0" style="stop-color:#B3B3B3"/>
			<stop  offset="0.5936" style="stop-color:#666666"/>
		</linearGradient>
		<path class="st3" d="M38.6,40.8v2.9c0,0.5,0.2,1,0.6,1.3l11.5,9.1c0.9,0.7,2.2,0,2.2-1.3V31.7c0-1.3-1.2-2-2.2-1.3l-11.5,9.1
			C38.8,39.8,38.6,40.3,38.6,40.8z"/>
		<linearGradient id="SVGID_3_" gradientUnits="userSpaceOnUse" x1="21.5446" y1="50.1012" x2="21.5164" y2="55.144">
			<stop  offset="0" style="stop-color:#000000;stop-opacity:0"/>
			<stop  offset="0.2075" style="stop-color:#000000;stop-opacity:0.3609"/>
			<stop  offset="0.2299" style="stop-color:#000000;stop-opacity:0.4"/>
			<stop  offset="1" style="stop-color:#000000;stop-opacity:0"/>
		</linearGradient>
		<path class="st4" d="M35.4,55.1H7.7c-0.7,0-1.3-0.6-1.3-1.3v-2.3c0-0.7,0.6-1.3,1.3-1.3h27.7c0.7,0,1.3,0.6,1.3,1.3v2.3
			C36.7,54.5,36.1,55.1,35.4,55.1z"/>
		<linearGradient id="SVGID_4_" gradientUnits="userSpaceOnUse" x1="52.2845" y1="51.735" x2="52.2845" y2="51.735">
			<stop  offset="0" style="stop-color:#B3B3B3"/>
			<stop  offset="1" style="stop-color:#DDDDDD;stop-opacity:0"/>
		</linearGradient>
		<path class="st5" d="M52.3,51.7"/>
		<linearGradient id="SVGID_5_" gradientUnits="userSpaceOnUse" x1="52.2845" y1="30.1509" x2="52.2845" y2="30.1509">
			<stop  offset="0" style="stop-color:#B3B3B3"/>
			<stop  offset="1" style="stop-color:#DDDDDD;stop-opacity:0"/>
		</linearGradient>
		<path class="st6" d="M52.3,30.2"/>
		<linearGradient id="SVGID_6_" gradientUnits="userSpaceOnUse" x1="52.4769" y1="30.0379" x2="52.5126" y2="51.8088">
			<stop  offset="0" style="stop-color:#DDDDDD"/>
			<stop  offset="1" style="stop-color:#FFFFFF;stop-opacity:0"/>
		</linearGradient>
		<rect x="52.1" y="30.1" class="st7" width="0.7" height="21.7"/>
		<linearGradient id="SVGID_7_" gradientUnits="userSpaceOnUse" x1="36.3001" y1="28.1751" x2="36.3373" y2="50.8735">
			<stop  offset="0" style="stop-color:#DDDDDD"/>
			<stop  offset="1" style="stop-color:#FFFFFF;stop-opacity:0"/>
		</linearGradient>
		<polygon class="st8" points="36.7,50.9 36,50.9 36,28.2 36.7,29.3 		"/>
	</g>
	<g>
		<radialGradient id="SVGID_8_" cx="47.8657" cy="14.8931" r="10.396" gradientUnits="userSpaceOnUse">
			<stop  offset="0" style="stop-color:#666666"/>
			<stop  offset="1" style="stop-color:#4D4D4D"/>
		</radialGradient>
		<path class="st9" d="M47.9,25.3c-5.7,0-10.4-4.7-10.4-10.4S42.1,4.5,47.9,4.5s10.4,4.7,10.4,10.4S53.6,25.3,47.9,25.3z"/>
		<path class="st10" d="M47.9,5.5c5.2,0,9.4,4.2,9.4,9.4s-4.2,9.4-9.4,9.4s-9.4-4.2-9.4-9.4S42.7,5.5,47.9,5.5 M47.9,3.5
			c-6.3,0-11.4,5.1-11.4,11.4c0,6.3,5.1,11.4,11.4,11.4s11.4-5.1,11.4-11.4C59.3,8.6,54.2,3.5,47.9,3.5L47.9,3.5z"/>
	</g>
	<g>
		<g>
			<radialGradient id="SVGID_9_" cx="47.7358" cy="11.615" r="2.4241" gradientUnits="userSpaceOnUse">
				<stop  offset="0" style="stop-color:#666666"/>
				<stop  offset="1" style="stop-color:#4D4D4D"/>
			</radialGradient>
			<path class="st11" d="M47.7,15C47.7,15,47.7,15,47.7,15l0-6.9L47.7,15L47.7,15z"/>
			<path class="st10" d="M47.7,7.1c-0.6,0-1,0.5-1,1V15c0,0.6,0.5,1,1,1s1-0.5,1-1V8.2C48.8,7.6,48.3,7.1,47.7,7.1L47.7,7.1z"/>
		</g>
		<g>
			
				<radialGradient id="SVGID_10_" cx="57.729" cy="18.1181" r="2.4083" gradientTransform="matrix(0 1 -0.9969 0 69.1923 -42.7248)" gradientUnits="userSpaceOnUse">
				<stop  offset="0" style="stop-color:#666666"/>
				<stop  offset="1" style="stop-color:#4D4D4D"/>
			</radialGradient>
			<polygon class="st12" points="47.7,15 54.5,15 54.5,15 			"/>
			<path class="st10" d="M54.5,14h-6.8c-0.6,0-1,0.5-1,1s0.5,1,1,1h6.8c0.6,0,1-0.5,1-1S55.1,14,54.5,14L54.5,14z"/>
		</g>
	</g>
</g>
</svg>
