<svg width="16" height="16" viewBox="0 0 16 16" fill="none" xmlns="http://www.w3.org/2000/svg">
<path opacity="0.5" d="M8 16H2C1.4 16 1 15.6 1 15V9C1 8.4 1.4 8 2 8H8C8.6 8 9 8.4 9 9V15C9 15.6 8.6 16 8 16Z" fill="white"/>
<path opacity="0.5" d="M9.90039 11.3996V12.5996L14.0004 15.3996V8.59961L9.90039 11.3996Z" fill="white"/>
<path d="M12 0C9.8 0 8 1.8 8 4C8 6.2 9.8 8 12 8C14.2 8 16 6.2 16 4C16 1.8 14.2 0 12 0ZM12 7.1C10.3 7.1 8.9 5.7 8.9 4C8.9 2.3 10.3 0.9 12 0.9C13.7 0.9 15.1 2.3 15.1 4C15.1 5.7 13.7 7.1 12 7.1Z" fill="white"/>
<path d="M13.7996 4.89922H11.0996V2.19922H11.9996V3.99922H13.7996V4.89922Z" fill="white"/>
</svg>
