<?xml version="1.0" encoding="utf-8"?>
<!-- Generator: Adobe Illustrator 24.3.0, SVG Export Plug-In . SVG Version: 6.00 Build 0)  -->
<svg version="1.1" id="TouchInterface_x5F_64" xmlns="http://www.w3.org/2000/svg" xmlns:xlink="http://www.w3.org/1999/xlink"
	 x="0px" y="0px" viewBox="0 0 64 64" style="enable-background:new 0 0 64 64;" xml:space="preserve">
<style type="text/css">
	.st0{fill-rule:evenodd;clip-rule:evenodd;fill:#F2F2F2;}
	.st1{fill-rule:evenodd;clip-rule:evenodd;fill:url(#SVGID_1_);}
	.st2{fill:url(#SVGID_2_);enable-background:new    ;}
	.st3{fill-rule:evenodd;clip-rule:evenodd;fill:url(#SVGID_3_);}
	.st4{fill:none;}
</style>
<g>
	<path class="st0" d="M46.7,8.9H18.2c-1.7,0-2.8,1.1-2.8,2.8v39.9c0,1.7,1.1,2.8,2.8,2.8h28.5c1.7,0,2.8-1.1,2.8-2.8V11.7
		C49.5,10,48.4,8.9,46.7,8.9z M46.7,43.1H18.2V11.7h28.5V43.1z"/>
	<g>
		<g>
			<linearGradient id="SVGID_1_" gradientUnits="userSpaceOnUse" x1="32.3257" y1="55.2" x2="32.5262" y2="9.4829">
				<stop  offset="0" style="stop-color:#F2F2F2"/>
				<stop  offset="1" style="stop-color:#B3B3B3"/>
			</linearGradient>
			<path class="st1" d="M46.7,9.5H18.2c-1.7,0-2.8,1.1-2.8,2.8v39.9c0,1.7,1.1,2.8,2.8,2.8h28.5c1.7,0,2.8-1.1,2.8-2.8V12.4
				C49.5,10.7,48.4,9.5,46.7,9.5z M46.7,43.7H18.2V12.4h28.5V43.7z"/>
			<linearGradient id="SVGID_2_" gradientUnits="userSpaceOnUse" x1="32.3588" y1="43.3743" x2="32.4909" y2="13.247">
				<stop  offset="0" style="stop-color:#999999"/>
				<stop  offset="1" style="stop-color:#666666"/>
			</linearGradient>
			<path class="st2" d="M46.7,12.4H18.2v31.3h28.5V12.4z"/>
		</g>
		<radialGradient id="SVGID_3_" cx="31.8876" cy="49.4528" r="3.5677" gradientUnits="userSpaceOnUse">
			<stop  offset="0" style="stop-color:#666666"/>
			<stop  offset="1" style="stop-color:#4D4D4D"/>
		</radialGradient>
		<circle class="st3" cx="31.9" cy="49.5" r="3.6"/>
	</g>
	<rect x="0" class="st4" width="64" height="64"/>
</g>
</svg>
