<?xml version="1.0" encoding="utf-8"?>
<!-- Generator: Adobe Illustrator 25.0.0, SVG Export Plug-In . SVG Version: 6.00 Build 0)  -->
<svg version="1.1" id="TriggerBase_x5F_64" xmlns="http://www.w3.org/2000/svg" xmlns:xlink="http://www.w3.org/1999/xlink" x="0px"
	 y="0px" viewBox="0 0 64 64" style="enable-background:new 0 0 64 64;" xml:space="preserve">
<style type="text/css">
	.st0{fill:url(#SVGID_1_);enable-background:new    ;}
	.st1{fill:url(#SVGID_2_);}
	.st2{fill:url(#SVGID_3_);}
	.st3{fill:url(#SVGID_4_);enable-background:new    ;}
	.st4{fill:#FFFFFF;}
	.st5{fill:none;}
</style>
<g>
	<radialGradient id="SVGID_1_" cx="32.2562" cy="41.7892" r="18.3555" gradientUnits="userSpaceOnUse">
		<stop  offset="0" style="stop-color:#F2F2F2"/>
		<stop  offset="1" style="stop-color:#B3B3B3"/>
	</radialGradient>
	<path class="st0" d="M49.3,29.2v2.3c1.4,1.7,2.6,4,2.6,6c0,6.8-8.8,12.5-19.6,12.5s-19.6-5.7-19.6-12.5c0-2.3,0.9-4.3,2.6-6v-2.3
		c-3.4,2.6-5.7,6-5.7,9.7c0,7.9,10.2,15.5,22.7,15.5S55,46.8,55,38.9C55,35.2,52.7,31.8,49.3,29.2z"/>
	<radialGradient id="SVGID_2_" cx="32.9442" cy="28.6571" r="22.3545" gradientUnits="userSpaceOnUse">
		<stop  offset="0" style="stop-color:#666666"/>
		<stop  offset="1" style="stop-color:#333333"/>
	</radialGradient>
	<ellipse class="st1" cx="32.5" cy="36.6" rx="20.4" ry="13.9"/>
	
		<radialGradient id="SVGID_3_" cx="32.1384" cy="36.2927" r="14.4946" gradientTransform="matrix(1 -4.464241e-03 2.810380e-03 0.6295 -0.1017 13.589)" gradientUnits="userSpaceOnUse">
		<stop  offset="0.7462" style="stop-color:#000000;stop-opacity:0.5"/>
		<stop  offset="1" style="stop-color:#000000;stop-opacity:0"/>
	</radialGradient>
	<path class="st2" d="M45.3,30.4c0-4.5-5.8-8.2-13.1-8.2s-13.1,3.7-13.1,8.2c0,0.6,0.1,1.1,0.3,1.6l-0.3,0.1c0,0,0,2.6,0,4.8
		c0,4.5,5.7,8.2,13.1,8.2s13.1-3.7,13.1-8.2c0-2,0-4.8,0-4.8L45.1,32C45.2,31.5,45.3,30.9,45.3,30.4z"/>
	<g>
		<radialGradient id="SVGID_4_" cx="32.2562" cy="34.901" r="10.9172" gradientUnits="userSpaceOnUse">
			<stop  offset="0" style="stop-color:#CCCCCC"/>
			<stop  offset="1" style="stop-color:#666666"/>
		</radialGradient>
		<path class="st3" d="M45.3,34.9c0,4.5-5.7,8.2-13.1,8.2c-7.4,0-13.1-3.7-13.1-8.2c0-2.3,0-4.8,0-4.8l13.1-3.4l13.1,3.4
			C45.3,30.1,45.3,32.9,45.3,34.9z"/>
		<path class="st4" d="M32.3,37.5c7.2,0,13.1-3.7,13.1-8.2c0-4.5-5.8-8.2-13.1-8.2s-13.1,3.7-13.1,8.2C19.2,33.8,25,37.5,32.3,37.5z
			"/>
	</g>
	<rect x="0" class="st5" width="64" height="64"/>
</g>
</svg>
