<svg width="16" height="16" viewBox="0 0 16 16" fill="none" xmlns="http://www.w3.org/2000/svg">
<path d="M13 6V6.5C14.1 7.3 14.9 8.3 14.9 9.5C14.9 12 11.8 14 8 14C4.2 14 1.1 12 1.1 9.6C1.1 8.4 1.8 7.4 3 6.6V6C1.2 6.9 0 8.4 0 10C0 12.8 3.6 15.1 8 15.1C12.4 15.1 16 12.8 16 10C16 8.4 14.8 7 13 6Z" fill="white"/>
<path opacity="0.5" d="M9 12H7C5.3 12 4 10.7 4 9V3.5C4 1.6 5.6 0 7.5 0H8.5C10.4 0 12 1.6 12 3.5V9C12 10.7 10.7 12 9 12Z" fill="white"/>
<path d="M9.2 3.0998C9.2 2.9998 9.1 2.8998 9 2.7998C9.1 2.8998 9.2 2.9998 9.2 3.0998Z" fill="white"/>
<path d="M8.7 2H7C7 2 9 3 9 4.5V7.5L10 9V3.6C10 2.7 9.4 2 8.7 2Z" fill="white"/>
</svg>
