<?xml version="1.0" encoding="utf-8"?>
<!-- Generator: Adobe Illustrator 25.0.0, SVG Export Plug-In . SVG Version: 6.00 Build 0)  -->
<svg version="1.1" id="TriggerSphere_x5F_64" xmlns="http://www.w3.org/2000/svg" xmlns:xlink="http://www.w3.org/1999/xlink"
	 x="0px" y="0px" viewBox="0 0 64 64" style="enable-background:new 0 0 64 64;" xml:space="preserve">
<style type="text/css">
	.st0{fill:url(#SVGID_1_);enable-background:new    ;}
	.st1{fill:url(#SVGID_2_);}
	.st2{opacity:0.5;fill:url(#SVGID_3_);}
	.st3{fill:url(#SVGID_4_);}
	.st4{fill:none;}
</style>
<g>
	<g>
		<radialGradient id="SVGID_1_" cx="32.2562" cy="41.9124" r="18.3555" gradientUnits="userSpaceOnUse">
			<stop  offset="0" style="stop-color:#F2F2F2"/>
			<stop  offset="1" style="stop-color:#B3B3B3"/>
		</radialGradient>
		<path class="st0" d="M49.3,29.3v2.3c1.4,1.7,2.6,4,2.6,6c0,6.8-8.8,12.5-19.6,12.5s-19.6-5.7-19.6-12.5c0-2.3,0.9-4.3,2.6-6v-2.3
			c-3.4,2.6-5.7,6-5.7,9.7c0,7.9,10.2,15.5,22.7,15.5S55,46.9,55,39C55,35.3,52.7,31.9,49.3,29.3z"/>
		<radialGradient id="SVGID_2_" cx="32.2794" cy="28.4473" r="22.7644" gradientUnits="userSpaceOnUse">
			<stop  offset="0" style="stop-color:#666666"/>
			<stop  offset="1" style="stop-color:#333333"/>
		</radialGradient>
		<ellipse class="st1" cx="32.5" cy="36.7" rx="20.4" ry="13.9"/>
	</g>
	
		<radialGradient id="SVGID_3_" cx="32.3688" cy="35.7056" r="13.5715" gradientTransform="matrix(0.9999 -1.457705e-02 9.443201e-03 0.6477 -0.3337 13.0493)" gradientUnits="userSpaceOnUse">
		<stop  offset="0.7944" style="stop-color:#000000"/>
		<stop  offset="1" style="stop-color:#000000;stop-opacity:0"/>
	</radialGradient>
	<path class="st2" d="M32.3,44.4c7.3,0,13.2-3.4,13.2-7.7S39.6,29,32.3,29S19,32.5,19,36.7S25,44.4,32.3,44.4z"/>
	<radialGradient id="SVGID_4_" cx="35.597" cy="20.6512" r="20.9885" gradientUnits="userSpaceOnUse">
		<stop  offset="0" style="stop-color:#FFFFFF"/>
		<stop  offset="0.3121" style="stop-color:#B3B3B3"/>
		<stop  offset="0.6357" style="stop-color:#6A6A6A"/>
		<stop  offset="0.7861" style="stop-color:#4D4D4D"/>
		<stop  offset="1" style="stop-color:#666666"/>
	</radialGradient>
	<path class="st3" d="M32.2,41.7c8.1,0,14.8-6.6,14.8-14.8s-6.6-14.8-14.8-14.8s-14.8,6.6-14.8,14.8S24.1,41.7,32.2,41.7z"/>
	<rect x="0" class="st4" width="64" height="64"/>
</g>
</svg>
