<svg width="16" height="16" viewBox="0 0 16 16" fill="none" xmlns="http://www.w3.org/2000/svg">
<path opacity="0.5" d="M12.5999 7.69971C12.5999 9.29971 10.5999 10.5997 7.9999 10.5997C5.3999 10.5997 3.3999 9.29971 3.3999 7.69971C3.3999 6.89971 3.3999 5.99976 3.3999 5.99976L7.9999 4.7998L12.5999 5.99976C12.5999 5.99976 12.5999 6.99971 12.5999 7.69971Z" fill="white"/>
<path d="M7.9999 8.30005C10.5404 8.30005 12.5999 7.00165 12.5999 5.40002C12.5999 3.7984 10.5404 2.5 7.9999 2.5C5.45939 2.5 3.3999 3.7984 3.3999 5.40002C3.3999 7.00165 5.45939 8.30005 7.9999 8.30005Z" fill="white"/>
<path d="M14 5.7002V6.50024C14.5 7.10024 14.9 7.90022 14.9 8.60022C14.9 11.0002 11.8 13.0002 8 13.0002C4.2 13.0002 1.1 11.0002 1.1 8.60022C1.1 7.80022 1.4 7.10024 2 6.50024V5.7002C0.8 6.6002 0 7.80022 0 9.10022C0 11.9002 3.6 14.2002 8 14.2002C12.4 14.2002 16 11.9002 16 9.10022C16 7.80022 15.2 6.6002 14 5.7002Z" fill="white"/>
</svg>
