<svg width="16" height="16" viewBox="0 0 16 16" fill="none" xmlns="http://www.w3.org/2000/svg">
<path d="M14 6.7002V7.50024C14.5 8.10024 14.9 8.90034 14.9 9.60034C14.9 12.0003 11.8 14.0002 8 14.0002C4.2 14.0002 1.1 12.0003 1.1 9.60034C1.1 8.80034 1.4 8.10024 2 7.50024V6.7002C0.8 7.6002 0 8.80034 0 10.1003C0 12.9003 3.6 15.2002 8 15.2002C12.4 15.2002 16 12.9003 16 10.1003C16 8.80034 15.2 7.6002 14 6.7002Z" fill="white"/>
<path opacity="0.5" d="M4.9 0L3 2H11V10L13 8V0H4.9Z" fill="white"/>
<path d="M11 9H4V2H3V10H11V9Z" fill="white"/>
</svg>
