<svg width="16" height="16" viewBox="0 0 16 16" fill="none" xmlns="http://www.w3.org/2000/svg">
<path d="M14.6 7.09961L14.4 7.99961C14.7 8.49961 14.9 8.99961 14.9 9.59961C14.9 11.9996 11.8 13.9996 8 13.9996C4.2 13.9996 1.1 11.9996 1.1 9.59961C1.1 8.99961 1.3 8.49961 1.6 7.99961L1.4 7.09961C0.5 7.99961 0 8.99961 0 10.0996C0 12.8996 3.6 15.1996 8 15.1996C12.4 15.1996 16 12.8996 16 10.0996C16 8.99961 15.5 7.99961 14.6 7.09961Z" fill="white"/>
<path opacity="0.5" d="M8 0.5C5 0.5 2.5 3 2.5 6C2.5 9 5 11.5 8 11.5C11 11.5 13.5 9 13.5 6C13.5 3 11 0.5 8 0.5Z" fill="white"/>
<path d="M9.5998 6.19961C10.5939 6.19961 11.3998 5.39372 11.3998 4.39961C11.3998 3.4055 10.5939 2.59961 9.5998 2.59961C8.60569 2.59961 7.7998 3.4055 7.7998 4.39961C7.7998 5.39372 8.60569 6.19961 9.5998 6.19961Z" fill="white"/>
</svg>
