<?xml version="1.0" encoding="utf-8"?>
<!-- Generator: Adobe Illustrator 25.0.0, SVG Export Plug-In . SVG Version: 6.00 Build 0)  -->
<svg version="1.1" id="TriggerVolume_x5F_64_1_" xmlns="http://www.w3.org/2000/svg" xmlns:xlink="http://www.w3.org/1999/xlink"
	 x="0px" y="0px" viewBox="0 0 64 64" style="enable-background:new 0 0 64 64;" xml:space="preserve">
<style type="text/css">
	.st0{fill:url(#SVGID_1_);enable-background:new    ;}
	.st1{fill:url(#SVGID_2_);}
	.st2{opacity:0.7;fill:url(#SVGID_3_);enable-background:new    ;}
	.st3{fill:url(#SVGID_4_);enable-background:new    ;}
	.st4{fill:url(#SVGID_5_);enable-background:new    ;}
	.st5{fill:none;stroke:url(#SVGID_6_);stroke-miterlimit:10;}
	.st6{fill:none;stroke:url(#SVGID_7_);stroke-miterlimit:10;}
	.st7{fill:none;stroke:#898989;stroke-miterlimit:10;}
	.st8{fill:none;}
</style>
<g>
	<g>
		<radialGradient id="SVGID_1_" cx="32.2562" cy="41.8056" r="18.3555" gradientUnits="userSpaceOnUse">
			<stop  offset="0" style="stop-color:#F2F2F2"/>
			<stop  offset="1" style="stop-color:#B3B3B3"/>
		</radialGradient>
		<path class="st0" d="M49.3,29.2v2.3c1.4,1.7,2.6,4,2.6,6C51.8,44.3,43,50,32.3,50s-19.6-5.7-19.6-12.5c0-2.3,0.9-4.3,2.6-6v-2.3
			c-3.4,2.6-5.7,6-5.7,9.7c0,7.9,10.2,15.5,22.7,15.5S55,46.8,55,38.9C55,35.2,52.7,31.8,49.3,29.2z"/>
		<radialGradient id="SVGID_2_" cx="33.8833" cy="27.9595" r="23.3822" gradientUnits="userSpaceOnUse">
			<stop  offset="0" style="stop-color:#666666"/>
			<stop  offset="1" style="stop-color:#333333"/>
		</radialGradient>
		<ellipse class="st1" cx="32.5" cy="36.6" rx="20.4" ry="13.9"/>
	</g>
	<linearGradient id="SVGID_3_" gradientUnits="userSpaceOnUse" x1="32.5635" y1="31.1637" x2="32.5635" y2="42.9894">
		<stop  offset="0" style="stop-color:#1A1A1A"/>
		<stop  offset="1" style="stop-color:#000000;stop-opacity:0"/>
	</linearGradient>
	<polygon class="st2" points="34.6,10.5 16.5,17.5 16,35.4 34.6,43.9 49.1,34.1 48.5,19.1 	"/>
	<g>
		<linearGradient id="SVGID_4_" gradientUnits="userSpaceOnUse" x1="33.8934" y1="25.0938" x2="17.1548" y2="25.0285">
			<stop  offset="0" style="stop-color:#4D4D4D"/>
			<stop  offset="1" style="stop-color:#333333"/>
		</linearGradient>
		<path class="st3" d="M34.6,8.4v33.4l-18.1-7V15.3L34.6,8.4z"/>
		<linearGradient id="SVGID_5_" gradientUnits="userSpaceOnUse" x1="34.601" y1="25.0966" x2="48.5251" y2="25.0966">
			<stop  offset="0" style="stop-color:#4D4D4D"/>
			<stop  offset="1" style="stop-color:#333333"/>
		</linearGradient>
		<path class="st4" d="M48.5,33.5l-13.9,8.4V8.4L48.5,17V33.5z"/>
	</g>
	<linearGradient id="SVGID_6_" gradientUnits="userSpaceOnUse" x1="16.4142" y1="33.4333" x2="48.5697" y2="33.4333">
		<stop  offset="0" style="stop-color:#4D4D4D"/>
		<stop  offset="9.607756e-02" style="stop-color:#545454;stop-opacity:0.8325"/>
		<stop  offset="0.347" style="stop-color:#616161;stop-opacity:0.3951"/>
		<stop  offset="0.5736" style="stop-color:#666666;stop-opacity:0"/>
		<stop  offset="0.9873" style="stop-color:#666666"/>
	</linearGradient>
	<polyline class="st5" points="16.5,34.8 32.7,32 48.5,33.5 	"/>
	<linearGradient id="SVGID_7_" gradientUnits="userSpaceOnUse" x1="17.1528" y1="16.6065" x2="48.1998" y2="16.6065">
		<stop  offset="0" style="stop-color:#4D4D4D"/>
		<stop  offset="3.453219e-02" style="stop-color:#505050;stop-opacity:0.9326"/>
		<stop  offset="0.3061" style="stop-color:#606060;stop-opacity:0.4029"/>
		<stop  offset="0.5127" style="stop-color:#666666;stop-opacity:0"/>
		<stop  offset="0.9873" style="stop-color:#666666"/>
	</linearGradient>
	<polyline class="st6" points="17.2,15.8 32.7,17.4 48.2,17.1 	"/>
	<polygon class="st7" points="16.5,15.6 34.6,8.4 48.5,17 48.5,33.5 34.6,41.8 16.5,34.8 	"/>
	<line class="st7" x1="34.6" y1="8.4" x2="34.6" y2="41.8"/>
	<rect x="0" class="st8" width="64" height="64"/>
</g>
</svg>
