<svg width="16" height="16" viewBox="0 0 16 16" fill="none" xmlns="http://www.w3.org/2000/svg">
<path d="M14 6.7002V7.50024C14.5 8.10024 14.9 8.90022 14.9 9.60022C14.9 12.0002 11.8 14.0002 8 14.0002C4.2 14.0002 1.1 12.0002 1.1 9.60022C1.1 8.80022 1.4 8.10024 2 7.50024V6.7002C0.8 7.6002 0 8.80022 0 10.1002C0 12.9002 3.6 15.2002 8 15.2002C12.4 15.2002 16 12.9002 16 10.1002C16 8.80022 15.2 7.6002 14 6.7002Z" fill="white"/>
<path d="M9 0L3 3V9.5L9 12V0Z" fill="white"/>
<path opacity="0.5" d="M13 9.30005L9 12V0L13 3V9.30005Z" fill="white"/>
</svg>
