<svg width="16" height="16" viewBox="0 0 16 16" fill="none" xmlns="http://www.w3.org/2000/svg">
<path opacity="0.5" d="M1 1H4V0H0V3H1V1Z" fill="white"/>
<path opacity="0.5" d="M15 1V3H16V0H12V1H15Z" fill="white"/>
<path opacity="0.5" d="M15 15H12V16H16V13H15V15Z" fill="white"/>
<path opacity="0.5" d="M1 15V13H0V16H4V15H1Z" fill="white"/>
<path opacity="0.5" d="M8.5 10.5C9.60457 10.5 10.5 9.60457 10.5 8.5C10.5 7.39543 9.60457 6.5 8.5 6.5C7.39543 6.5 6.5 7.39543 6.5 8.5C6.5 9.60457 7.39543 10.5 8.5 10.5Z" stroke="white" stroke-miterlimit="10"/>
<path opacity="0.5" fill-rule="evenodd" clip-rule="evenodd" d="M11 4H5L6 2H10L11 4Z" fill="white"/>
<path fill-rule="evenodd" clip-rule="evenodd" d="M13.6 4H2.4C1.6 4 1 4.6 1 5.4V11.5C1 12.4 1.6 13 2.4 13H13.5C14.3 13 14.9 12.4 14.9 11.6V5.4C15 4.6 14.4 4 13.6 4ZM3 7.5C2.2 7.5 1.5 6.8 1.5 6C1.5 5.2 2.2 4.5 3 4.5C3.8 4.5 4.5 5.2 4.5 6C4.5 6.8 3.8 7.5 3 7.5ZM8.5 12C6.6 12 5 10.4 5 8.5C5 6.6 6.6 5 8.5 5C10.4 5 12 6.6 12 8.5C12 10.4 10.4 12 8.5 12Z" fill="white"/>
</svg>
