<?xml version="1.0" encoding="utf-8"?>
<!-- Generator: Adobe Illustrator 25.0.0, SVG Export Plug-In . SVG Version: 6.00 Build 0)  -->
<svg version="1.1" id="UserWidget_x5F_64" xmlns="http://www.w3.org/2000/svg" xmlns:xlink="http://www.w3.org/1999/xlink" x="0px"
	 y="0px" viewBox="0 0 64 64" style="enable-background:new 0 0 64 64;" xml:space="preserve">
<style type="text/css">
	.st0{fill:url(#SVGID_1_);}
	.st1{opacity:0.7;fill:#FFFFFF;}
	.st2{fill:url(#SVGID_2_);enable-background:new    ;}
	.st3{fill:none;}
</style>
<g>
	<linearGradient id="SVGID_1_" gradientUnits="userSpaceOnUse" x1="31.9421" y1="14.5901" x2="31.9421" y2="49.5186">
		<stop  offset="0" style="stop-color:#808080"/>
		<stop  offset="0.591" style="stop-color:#505050"/>
		<stop  offset="1" style="stop-color:#333333"/>
	</linearGradient>
	<path class="st0" d="M54.2,13.5H9.7v36h44.5V13.5z"/>
	<path class="st1" d="M52.6,14H24.3c-0.5,0-0.9,0.3-0.9,0.8v5.7c0,0.4,0.4,0.8,0.9,0.8h28.3c0.5,0,0.9-0.3,0.9-0.8v-5.7
		C53.5,14.4,53.1,14,52.6,14z"/>
	<path class="st1" d="M17.6,14h-6.3c-0.5,0-0.9,0.4-0.9,0.9V48c0,0.5,0.4,0.9,0.9,0.9h6.3c0.5,0,0.9-0.4,0.9-0.9V14.9
		C18.4,14.4,18,14,17.6,14z"/>
	<path class="st1" d="M52.7,27h-6.2c-0.5,0-0.8,0.4-0.8,0.9V48c0,0.5,0.4,0.9,0.8,0.9h6.2c0.5,0,0.8-0.4,0.8-0.9V27.9
		C53.5,27.4,53.1,27,52.7,27z"/>
	<linearGradient id="SVGID_2_" gradientUnits="userSpaceOnUse" x1="31.9816" y1="29.0494" x2="32.0672" y2="44.9022">
		<stop  offset="0" style="stop-color:#B3B3B3"/>
		<stop  offset="1" style="stop-color:#4D4D4D"/>
	</linearGradient>
	<path class="st2" d="M42.1,33.8c0,5-6,5.5-10.1,11.1c-4-5.5-10.1-6-10.1-11.1s6-7.1,10.1-1C36,26.8,42.1,28.8,42.1,33.8z"/>
	<rect x="0" class="st3" width="64" height="64"/>
</g>
</svg>
