<?xml version="1.0" encoding="utf-8"?>
<!-- Generator: Adobe Illustrator 24.3.0, SVG Export Plug-In . SVG Version: 6.00 Build 0)  -->
<svg version="1.1" id="UserDefinedCaptureProtocal_x5F_64"
	 xmlns="http://www.w3.org/2000/svg" xmlns:xlink="http://www.w3.org/1999/xlink" x="0px" y="0px" viewBox="0 0 64 64"
	 style="enable-background:new 0 0 64 64;" xml:space="preserve">
<style type="text/css">
	.st0{fill:none;}
	.st1{fill:#B2B2B2;enable-background:new    ;}
	.st2{fill-rule:evenodd;clip-rule:evenodd;fill:#CCCCCC;enable-background:new    ;}
	.st3{fill-rule:evenodd;clip-rule:evenodd;fill:url(#SVGID_1_);enable-background:new    ;}
	.st4{fill-rule:evenodd;clip-rule:evenodd;fill:#E6E6E6;}
	.st5{fill-rule:evenodd;clip-rule:evenodd;fill:url(#SVGID_2_);}
	.st6{fill-rule:evenodd;clip-rule:evenodd;fill:url(#SVGID_3_);}
	.st7{fill-rule:evenodd;clip-rule:evenodd;fill:url(#SVGID_4_);}
	.st8{fill-rule:evenodd;clip-rule:evenodd;fill:url(#SVGID_5_);}
	.st9{fill:url(#SVGID_6_);}
</style>
<rect x="0" class="st0" width="64" height="64"/>
<path class="st1" d="M10.2,10h9.4V6.9H7.1v9.4h3.1V10z"/>
<path class="st2" d="M39.6,21.6H24.8c-0.9,0-1.5-1.3-1.1-2.3l1.9-4.9c0.2-0.5,0.6-0.9,1.1-0.9h11c0.5,0,0.9,0.3,1.1,0.9l1.9,4.9
	C41.1,20.3,40.5,21.6,39.6,21.6z"/>
<path class="st1" d="M54.2,10v6.3h3.1V6.9H44.8V10H54.2z"/>
<path class="st1" d="M54.2,54h-9.4v3.1h12.6v-9.4h-3.1V54z"/>
<path class="st1" d="M10.2,54v-6.3H7.1v9.4h12.6V54H10.2z"/>
<linearGradient id="SVGID_1_" gradientUnits="userSpaceOnUse" x1="32.2157" y1="21.5531" x2="32.2157" y2="13.6053">
	<stop  offset="0" style="stop-color:#808080"/>
	<stop  offset="1" style="stop-color:#4D4D4D"/>
</linearGradient>
<path class="st3" d="M39.6,22.2H24.8c-0.9,0-1.5-1.3-1.1-2.3l1.9-4.9c0.2-0.5,0.6-0.9,1.1-0.9h11c0.5,0,0.9,0.3,1.1,0.9l1.9,4.9
	C41.1,20.9,40.5,22.2,39.6,22.2z"/>
<path class="st4" d="M49.8,18.6H14.6c-2.5,0-4.4,1.9-4.4,4.4v19.1c0,2.8,1.9,4.7,4.4,4.7h34.8c2.5,0,4.4-1.9,4.4-4.4V23
	C54.2,20.5,52.3,18.6,49.8,18.6z"/>
<linearGradient id="SVGID_2_" gradientUnits="userSpaceOnUse" x1="32.0759" y1="47.6942" x2="32.0759" y2="19.4447">
	<stop  offset="0.4518" style="stop-color:#E6E6E6"/>
	<stop  offset="1" style="stop-color:#666666"/>
</linearGradient>
<path class="st5" d="M49.8,19.4H14.6c-2.5,0-4.4,1.9-4.4,4.4V43c0,2.8,1.9,4.7,4.4,4.7h34.8c2.5,0,4.4-1.9,4.4-4.4V23.8
	C54.2,21.3,52.3,19.4,49.8,19.4z"/>
<radialGradient id="SVGID_3_" cx="16.5788" cy="25.7698" r="4.5004" gradientUnits="userSpaceOnUse">
	<stop  offset="0.6193" style="stop-color:#808080"/>
	<stop  offset="1" style="stop-color:#4D4D4D"/>
</radialGradient>
<circle class="st6" cx="16.6" cy="25.8" r="4.5"/>
<radialGradient id="SVGID_4_" cx="33.7456" cy="33.3321" r="11.1643" gradientUnits="userSpaceOnUse">
	<stop  offset="0.6193" style="stop-color:#808080"/>
	<stop  offset="1" style="stop-color:#4D4D4D"/>
</radialGradient>
<circle class="st7" cx="33.7" cy="33.3" r="11.2"/>
<g>
	<radialGradient id="SVGID_5_" cx="33.7456" cy="33.3321" r="8.5793" gradientUnits="userSpaceOnUse">
		<stop  offset="0" style="stop-color:#808080"/>
		<stop  offset="1" style="stop-color:#4D4D4D"/>
	</radialGradient>
	<circle class="st8" cx="33.7" cy="33.3" r="8.6"/>
	<linearGradient id="SVGID_6_" gradientUnits="userSpaceOnUse" x1="33.7456" y1="41.9113" x2="33.7456" y2="24.7528">
		<stop  offset="0" style="stop-color:#CCCCCC"/>
		<stop  offset="1" style="stop-color:#808080"/>
	</linearGradient>
	<path class="st9" d="M33.7,26.8c3.6,0,6.6,3,6.6,6.6s-3,6.6-6.6,6.6s-6.6-3-6.6-6.6S30.1,26.8,33.7,26.8 M33.7,24.8
		c-4.7,0-8.6,3.8-8.6,8.6s3.8,8.6,8.6,8.6s8.6-3.8,8.6-8.6S38.5,24.8,33.7,24.8L33.7,24.8z"/>
</g>
</svg>
