<?xml version="1.0" encoding="utf-8"?>
<!-- Generator: Adobe Illustrator 24.3.0, SVG Export Plug-In . SVG Version: 6.00 Build 0)  -->
<svg version="1.1" id="UserDefinedStruct_x5F_64" xmlns="http://www.w3.org/2000/svg" xmlns:xlink="http://www.w3.org/1999/xlink"
	 x="0px" y="0px" viewBox="0 0 64 64" style="enable-background:new 0 0 64 64;" xml:space="preserve">
<style type="text/css">
	.st0{fill:#7F7F7F;}
	.st1{fill:url(#SVGID_1_);}
	.st2{fill:url(#SVGID_2_);}
	.st3{fill:url(#SVGID_3_);}
	.st4{fill:url(#SVGID_4_);}
	.st5{fill:url(#SVGID_5_);}
	.st6{fill:url(#SVGID_6_);}
	.st7{fill:url(#SVGID_7_);}
	.st8{fill:none;}
</style>
<g>
	<polygon class="st0" points="46.2,47.9 16.2,47.9 16.2,16.4 47.7,16.4 47.7,26.3 44.7,26.3 44.7,19.4 19.2,19.4 19.2,44.9 
		46.2,44.9 	"/>
	
		<linearGradient id="SVGID_1_" gradientUnits="userSpaceOnUse" x1="21.0389" y1="28.522" x2="21.2005" y2="32.7224" gradientTransform="matrix(-1 0 0 -1 67.2954 53.4547)">
		<stop  offset="0" style="stop-color:#1A1A1A;stop-opacity:0.5"/>
		<stop  offset="1" style="stop-color:#1A1A1A;stop-opacity:0"/>
	</linearGradient>
	<polygon class="st1" points="44.7,24.7 47.7,24.7 47.7,20.8 44.7,20.8 	"/>
	<linearGradient id="SVGID_2_" gradientUnits="userSpaceOnUse" x1="36.0004" y1="28.9245" x2="56.9144" y2="29.064">
		<stop  offset="0" style="stop-color:#CCCCCC"/>
		<stop  offset="1" style="stop-color:#FFFFFF"/>
	</linearGradient>
	<path class="st2" d="M55.9,33.7H36.4c-0.4,0-0.7-0.3-0.7-0.7V25c0-0.4,0.3-0.7,0.7-0.7h19.6c0.4,0,0.7,0.3,0.7,0.7V33
		C56.6,33.4,56.3,33.7,55.9,33.7z"/>
	<linearGradient id="SVGID_3_" gradientUnits="userSpaceOnUse" x1="17.5921" y1="32.9299" x2="17.7536" y2="37.1302">
		<stop  offset="0" style="stop-color:#1A1A1A;stop-opacity:0.5"/>
		<stop  offset="1" style="stop-color:#1A1A1A;stop-opacity:0"/>
	</linearGradient>
	<rect x="16.2" y="33.1" class="st3" width="3" height="4"/>
	
		<linearGradient id="SVGID_4_" gradientUnits="userSpaceOnUse" x1="35.0651" y1="15.2621" x2="35.2267" y2="19.4625" gradientTransform="matrix(0 -1 1 0 16.2787 53.0347)">
		<stop  offset="0" style="stop-color:#1A1A1A;stop-opacity:0.5"/>
		<stop  offset="1" style="stop-color:#1A1A1A;stop-opacity:0"/>
	</linearGradient>
	<polygon class="st4" points="31.7,16.4 31.7,19.4 35.7,19.4 35.7,16.4 	"/>
	
		<linearGradient id="SVGID_5_" gradientUnits="userSpaceOnUse" x1="37.8908" y1="17.9554" x2="38.0523" y2="22.1557" gradientTransform="matrix(0 1 -1 0 54.1117 8.4067)">
		<stop  offset="0" style="stop-color:#1A1A1A;stop-opacity:0.5"/>
		<stop  offset="1" style="stop-color:#1A1A1A;stop-opacity:0"/>
	</linearGradient>
	<polygon class="st5" points="36,47.9 36,44.9 32,44.9 32,47.9 	"/>
	<linearGradient id="SVGID_6_" gradientUnits="userSpaceOnUse" x1="9.2273" y1="23.2306" x2="32.2784" y2="23.3843">
		<stop  offset="0" style="stop-color:#CCCCCC"/>
		<stop  offset="1" style="stop-color:#FFFFFF"/>
	</linearGradient>
	<path class="st6" d="M31.2,33.7H9.6C9.3,33.7,9,33.4,9,33V13.6c0-0.4,0.3-0.7,0.7-0.7h21.6c0.4,0,0.7,0.3,0.7,0.7V33
		C31.9,33.4,31.6,33.7,31.2,33.7z"/>
	<linearGradient id="SVGID_7_" gradientUnits="userSpaceOnUse" x1="36.0004" y1="46.3138" x2="56.9144" y2="46.4532">
		<stop  offset="0" style="stop-color:#CCCCCC"/>
		<stop  offset="1" style="stop-color:#FFFFFF"/>
	</linearGradient>
	<path class="st7" d="M55.9,51.1H36.4c-0.4,0-0.7-0.3-0.7-0.7v-8.1c0-0.4,0.3-0.7,0.7-0.7h19.6c0.4,0,0.7,0.3,0.7,0.7v8.1
		C56.6,50.8,56.3,51.1,55.9,51.1z"/>
	<rect x="0" class="st8" width="64" height="64"/>
</g>
</svg>
