<?xml version="1.0" encoding="utf-8"?>
<!-- Generator: Adobe Illustrator 24.3.0, SVG Export Plug-In . SVG Version: 6.00 Build 0)  -->
<svg version="1.1" id="Layer_1" xmlns="http://www.w3.org/2000/svg" xmlns:xlink="http://www.w3.org/1999/xlink" x="0px" y="0px"
	 viewBox="0 0 64 64" style="enable-background:new 0 0 64 64;" xml:space="preserve">
<style type="text/css">
	.st0{fill:none;}
	.st1{enable-background:new    ;}
	.st2{fill:url(#SVGID_1_);}
	.st3{fill:#BFBFBF;}
	.st4{fill:none;stroke:#BFBFBF;stroke-width:2;stroke-miterlimit:10;}
	.st5{fill:url(#SVGID_2_);}
	.st6{fill:url(#SVGID_3_);}
</style>
<g id="VectorField_x5F_64">
	<rect class="st0" width="64" height="64"/>
	<g>
		<g>
			<g class="st1">
				
					<linearGradient id="SVGID_1_" gradientUnits="userSpaceOnUse" x1="32.3763" y1="58.3224" x2="32.0951" y2="7.8528" gradientTransform="matrix(1 0 0 -1 0 66)">
					<stop  offset="0" style="stop-color:#999999"/>
					<stop  offset="1" style="stop-color:#4D4D4D"/>
				</linearGradient>
				<polygon class="st2" points="6.6,45.9 6.6,14.8 32.3,5.6 57.9,14.8 57.9,45.9 32.3,58.7 				"/>
				<path class="st3" d="M32.3,6.6l24.5,8.9v29.7L32.3,57.6L7.6,45.3V15.5L32.3,6.6 M32.3,4.5l-0.7,0.2L6.9,13.6l-1.3,0.5v1.4v29.7
					v1.2L6.7,47l24.8,12.3l0.9,0.4l0.9-0.5L57.8,47l1.1-0.6v-1.2V15.5v-1.4l-1.3-0.5L33,4.8L32.3,4.5L32.3,4.5z"/>
			</g>
			<polyline class="st4" points="7.6,15.5 32.3,26 56.9,15.5 			"/>
			<line class="st4" x1="32.3" y1="57.6" x2="32.3" y2="26"/>
		</g>
		<g>
			
				<linearGradient id="SVGID_2_" gradientUnits="userSpaceOnUse" x1="19.3389" y1="37.2948" x2="19.5343" y2="18.8365" gradientTransform="matrix(1 0 0 -1 0 66)">
				<stop  offset="0" style="stop-color:#F2F2F2"/>
				<stop  offset="1.488471e-02" style="stop-color:#F1F1F1"/>
				<stop  offset="1" style="stop-color:#999999"/>
			</linearGradient>
			<polygon class="st5" points="9.4,35.8 23,42.3 23,47.5 29.5,42.6 23,32 23,37.2 9.4,30.7 			"/>
		</g>
		<g>
			
				<linearGradient id="SVGID_3_" gradientUnits="userSpaceOnUse" x1="45.7" y1="38.2485" x2="45.7" y2="16.665" gradientTransform="matrix(1 0 0 -1 0 66)">
				<stop  offset="0" style="stop-color:#F2F2F2"/>
				<stop  offset="1.488471e-02" style="stop-color:#F1F1F1"/>
				<stop  offset="1" style="stop-color:#999999"/>
			</linearGradient>
			<polygon class="st6" points="35.7,45.1 49.4,38.8 49.3,42.6 55.7,33.1 49.3,29.4 49.4,33.4 35.7,39.7 			"/>
		</g>
	</g>
</g>
</svg>
