<svg width="16" height="16" viewBox="0 0 16 16" fill="none" xmlns="http://www.w3.org/2000/svg">
<path opacity="0.5" d="M3 0L0 3H13V16L16 13V0H3Z" fill="white"/>
<path d="M13 15H1V3H0V16H13V15Z" fill="white"/>
<path d="M4 12H2V11H4V9L6.9 11.5L4 14V12Z" fill="white"/>
<path d="M4 6H2V5H4V3L6.9 5.5L4 8V6Z" fill="white"/>
<path d="M9.6 11.7L7.5 13.8L8.2 14.5L10.3 12.4L11.7 13.8L12 10L8.2 10.3L9.6 11.7Z" fill="white"/>
<path d="M9.6 5.7L7.5 7.8L8.2 8.5L10.3 6.4L11.7 7.8L12 4L8.2 4.3L9.6 5.7Z" fill="white"/>
</svg>
