<svg width="16" height="16" viewBox="0 0 16 16" fill="none" xmlns="http://www.w3.org/2000/svg">
<path d="M8 2.2998C3.6 2.2998 0 5.8998 0 10.2998C0 10.6998 0 11.1998 0.1 11.5998H1.1C1 11.1998 1 10.6998 1 10.2998C1 6.3998 4.1 3.2998 8 3.2998C11.9 3.2998 15 6.3998 15 10.2998C15 10.7998 15 11.1998 14.9 11.5998H15.9C16 11.1998 16 10.6998 16 10.2998C16 5.8998 12.4 2.2998 8 2.2998Z" fill="white"/>
<path opacity="0.5" d="M1.1 11.5998C1 11.1998 1 10.6998 1 10.2998C1 6.3998 4.1 3.2998 8 3.2998C11.9 3.2998 15 6.3998 15 10.2998C15 10.7998 15 11.1998 14.9 11.5998C14.9 11.5998 12 9.5998 8 9.5998C4 9.5998 1.1 11.5998 1.1 11.5998Z" fill="white"/>
<path d="M11.0002 14C11.0002 14 10.5002 14 10.4002 14H6.4002H3.7002C3.2002 14 2.7002 13.9 2.7002 13.3C2.7002 12.9 3.2002 12.4 4.2002 12.5C2.8002 10.2 5.9002 8.8 7.3002 11.3C6.5002 9.6 7.6002 8 9.2002 8C10.5002 8 11.8002 9.4 10.8002 11C11.8002 10.8 12.8002 11.4 12.8002 12.5C12.8002 13.6 12.1002 14 11.0002 14Z" fill="white"/>
</svg>
