<svg width="16" height="16" viewBox="0 0 16 16" fill="none" xmlns="http://www.w3.org/2000/svg">
<path d="M8 2.30005C3.6 2.30005 0 5.90005 0 10.3C0 10.7 0 11.2 0.1 11.6H1.1C1 11.2 1 10.7 1 10.3C1 6.40005 4.1 3.30005 8 3.30005C11.9 3.30005 15 6.40005 15 10.3C15 10.8 15 11.2 14.9 11.6H15.9C16 11.2 16 10.7 16 10.3C16 5.90005 12.4 2.30005 8 2.30005Z" fill="white"/>
<path opacity="0.5" d="M1.1 11.6C1 11.2 1 10.7 1 10.3C1 6.40005 4.1 3.30005 8 3.30005C11.9 3.30005 15 6.40005 15 10.3C15 10.8 15 11.2 14.9 11.6C14.9 11.6 12 9.60005 8 9.60005C4 9.60005 1.1 11.6 1.1 11.6Z" fill="white"/>
<path d="M11 14C11 14 10.5 14 10.4 14H6.40001H3.70001C3.20001 14 2.70001 13.9 2.70001 13.3C2.70001 12.9 3.20001 12.4 4.20001 12.5C2.80001 10.2 5.90001 8.8 7.30001 11.3C6.50001 9.6 7.60001 8 9.20001 8C10.5 8 11.8 9.4 10.8 11C11.8 10.8 12.8 11.4 12.8 12.5C12.8 13.6 12.1 14 11 14Z" fill="white"/>
</svg>
