<svg width="16" height="16" viewBox="0 0 16 16" fill="none" xmlns="http://www.w3.org/2000/svg">
<path opacity="0.5" d="M3 0L0 3H13V16L16 13V0H3Z" fill="white"/>
<path d="M13 15H1V3H0V16H13V15Z" fill="white"/>
<path d="M7.49961 9.89966C8.27281 9.89966 8.89961 9.27283 8.89961 8.49963C8.89961 7.72644 8.27281 7.09961 7.49961 7.09961C6.72641 7.09961 6.09961 7.72644 6.09961 8.49963C6.09961 9.27283 6.72641 9.89966 7.49961 9.89966Z" fill="white"/>
<path d="M7.9002 4H7.2002V5.69995H7.9002V4Z" fill="white"/>
<path d="M7.9002 11.2998H7.2002V12.9998H7.9002V11.2998Z" fill="white"/>
<path d="M4.76562 8.83477V8.13477H3.06555V8.83477H4.76562Z" fill="white"/>
<path d="M12.0352 8.86504V8.16504H10.3351V8.86504H12.0352Z" fill="white"/>
<path d="M4.1811 4.81109L3.75684 5.23535L5.24181 6.72033L5.66607 6.29607L4.1811 4.81109Z" fill="white"/>
<path d="M9.79926 10.3668L9.375 10.791L10.8599 12.2759L11.2842 11.8516L9.79926 10.3668Z" fill="white"/>
<path d="M5.26323 10.3042L3.77832 11.7891L4.20256 12.2133L5.68747 10.7284L5.26323 10.3042Z" fill="white"/>
<path d="M10.8511 4.69868L9.36621 6.18359L9.79045 6.60784L11.2754 5.12293L10.8511 4.69868Z" fill="white"/>
</svg>
