<?xml version="1.0" encoding="utf-8"?>
<!-- Generator: Adobe Illustrator 24.2.3, SVG Export Plug-In . SVG Version: 6.00 Build 0)  -->
<svg version="1.1" id="Volume_x5F_64" xmlns="http://www.w3.org/2000/svg" xmlns:xlink="http://www.w3.org/1999/xlink" x="0px"
	 y="0px" viewBox="0 0 64 64" style="enable-background:new 0 0 64 64;" xml:space="preserve">
<style type="text/css">
	.st0{fill:none;}
	.st1{fill:#404040;}
	.st2{fill:none;stroke:#666666;stroke-width:2;stroke-miterlimit:10;}
	.st3{opacity:0.71;fill:url(#SVGID_1_);enable-background:new    ;}
	.st4{fill:url(#SVGID_2_);}
	.st5{fill:none;stroke:url(#SVGID_3_);stroke-width:2;stroke-linecap:round;stroke-miterlimit:10;}
</style>
<g id="_x36_4x64_x5F_EmptyBg">
	<rect x="0" class="st0" width="64" height="64"/>
</g>
<g>
	<polygon class="st1" points="9.1,21.2 20.7,8.5 55.7,9 55.7,42.3 43.6,54.7 9.9,54.7 	"/>
	<polyline class="st2" points="55.7,42.3 21.4,42.3 21.4,8.5 	"/>
	<line class="st2" x1="22.2" y1="41.4" x2="8.8" y2="54.8"/>
	<g>
		<linearGradient id="SVGID_1_" gradientUnits="userSpaceOnUse" x1="32.5855" y1="8.4064" x2="32.8604" y2="53.4954">
			<stop  offset="0" style="stop-color:#BFBFBF"/>
			<stop  offset="1" style="stop-color:#808080"/>
		</linearGradient>
		<path class="st3" d="M54,8.5H21.1c-0.2,0-0.4,0.1-0.6,0.3l-10,10.4c-0.5,0.5-0.1,1.4,0.6,1.4h31.7c0.5,0,0.8,0.4,0.8,0.8v31.2
			c0,0.8,0.9,1.1,1.4,0.6L55,42.9c0.2-0.2,0.2-0.4,0.2-0.6l-0.4-33C54.8,8.8,54.4,8.5,54,8.5z"/>
		<linearGradient id="SVGID_2_" gradientUnits="userSpaceOnUse" x1="32.1757" y1="7.1222" x2="32.473" y2="55.8853">
			<stop  offset="0" style="stop-color:#BFBFBF"/>
			<stop  offset="1" style="stop-color:#808080"/>
		</linearGradient>
		<path class="st4" d="M53.6,10.6v31.7c0,0.1,0,0.2-0.1,0.3L43.4,52.7c-0.1,0.1-0.2,0.1-0.3,0.1H11.4c-0.2,0-0.4-0.2-0.4-0.4V20.7
			c0-0.1,0-0.2,0.1-0.3l10.1-10.1c0.1-0.1,0.2-0.1,0.3-0.1h31.7C53.4,10.2,53.6,10.4,53.6,10.6z M56.2,7.2H20.3
			c-0.1,0-0.2,0-0.3,0.1L8.1,19.2C8.1,19.3,8,19.4,8,19.5v35.9c0,0.2,0.2,0.4,0.4,0.4h35.9c0.1,0,0.2,0,0.3-0.1l11.9-11.9
			c0.1-0.1,0.1-0.2,0.1-0.3V7.6C56.6,7.4,56.5,7.2,56.2,7.2z"/>
	</g>
	<linearGradient id="SVGID_3_" gradientUnits="userSpaceOnUse" x1="43.3624" y1="20.4478" x2="55.4604" y2="8.3499">
		<stop  offset="0" style="stop-color:#9B9B9D;stop-opacity:0.9"/>
		<stop  offset="0.4467" style="stop-color:#BFBFBF"/>
	</linearGradient>
	<line class="st5" x1="54.7" y1="9" x2="44.1" y2="19.8"/>
</g>
</svg>
