<svg width="16" height="16" viewBox="0 0 16 16" fill="none" xmlns="http://www.w3.org/2000/svg">
<path d="M16 1H5V4H16V1Z" fill="white"/>
<path d="M3 1H0V14H3V1Z" fill="white"/>
<path d="M8 9V10C8 10.6 7.6 11 7 11H5C4.4 11 4 10.6 4 10V9C4 8.4 4.4 8 5 8H7C7.6 8 8 8.4 8 9Z" fill="white"/>
<path d="M16 6V7C16 7.6 15.6 8 15 8H13C12.4 8 12 7.6 12 7V6C12 5.4 12.4 5 13 5H15C15.6 5 16 5.4 16 6Z" fill="white"/>
<path d="M16 12V13C16 13.6 15.6 14 15 14H13C12.4 14 12 13.6 12 13V12C12 11.4 12.4 11 13 11H15C15.6 11 16 11.4 16 12Z" fill="white"/>
<path opacity="0.5" d="M14 7V6H10C9.5 6 9 6.5 9 7V9H8V10H9V12C9 12.6 9.5 13 10 13H14V12H10.6C10.3 12 10 11.7 10 11.4V7.6C10 7.3 10.3 7 10.6 7H14Z" fill="white"/>
</svg>
