<?xml version="1.0" encoding="utf-8"?>
<!-- Generator: Adobe Illustrator 25.0.0, SVG Export Plug-In . SVG Version: 6.00 Build 0)  -->
<svg version="1.1" id="Widget_x5F_64" xmlns="http://www.w3.org/2000/svg" xmlns:xlink="http://www.w3.org/1999/xlink" x="0px"
	 y="0px" viewBox="0 0 64 64" style="enable-background:new 0 0 64 64;" xml:space="preserve">
<style type="text/css">
	.st0{fill:url(#SVGID_1_);}
	.st1{opacity:0.7;fill:#FFFFFF;}
	.st2{opacity:0.5;fill:#FFFFFF;}
	.st3{fill:url(#SVGID_2_);}
	.st4{fill:url(#SVGID_3_);}
	.st5{fill:none;}
</style>
<g>
	<linearGradient id="SVGID_1_" gradientUnits="userSpaceOnUse" x1="31.9421" y1="14.5901" x2="31.9421" y2="49.5186">
		<stop  offset="0" style="stop-color:#808080"/>
		<stop  offset="0.591" style="stop-color:#505050"/>
		<stop  offset="1" style="stop-color:#333333"/>
	</linearGradient>
	<path class="st0" d="M54.2,13.5H9.7v36h44.5V13.5z"/>
	<path class="st1" d="M52.6,14H24.3c-0.5,0-0.9,0.3-0.9,0.8v5.7c0,0.4,0.4,0.8,0.9,0.8h28.3c0.5,0,0.9-0.3,0.9-0.8v-5.7
		C53.5,14.4,53.1,14,52.6,14z"/>
	<path class="st1" d="M17.6,14h-6.3c-0.5,0-0.9,0.4-0.9,0.9V48c0,0.5,0.4,0.9,0.9,0.9h6.3c0.5,0,0.9-0.4,0.9-0.9V14.9
		C18.4,14.4,18,14,17.6,14z"/>
	<path class="st1" d="M52.7,27h-6.2c-0.5,0-0.8,0.4-0.8,0.9V48c0,0.5,0.4,0.9,0.8,0.9h6.2c0.5,0,0.8-0.4,0.8-0.9V27.9
		C53.5,27.4,53.1,27,52.7,27z"/>
	<path class="st2" d="M38.6,44.4l-2.2-1c0,0-0.7-0.1-0.9-1.9L35,38.4h-3h-3l-0.4,3.1c-0.2,1.8-0.9,1.9-0.9,1.9l-2.2,1
		c-3.8,1.3-3.5,5.1-3.5,5.1L32,48.9l10.1,0.6C42.1,49.5,42.4,45.7,38.6,44.4z"/>
	<path class="st2" d="M36.8,34c0.9-5.7-4.8-5.9-4.8-5.9s-5.7,0.1-4.8,5.9c0,0-1.6-0.1-1,2.2c0,0,0.4,1.1,1.3,1.5
		c0,0,0.3,3.2,3.2,4.8c0.2,0.1,0.4,0.2,0.7,0.2H32h0.7c0.2,0,0.5-0.1,0.7-0.2c2.9-1.7,3.2-4.8,3.2-4.8c0.8-0.4,1.3-1.5,1.3-1.5
		C38.4,33.9,36.8,34,36.8,34z"/>
	<linearGradient id="SVGID_2_" gradientUnits="userSpaceOnUse" x1="31.944" y1="39.0218" x2="32.001" y2="49.568">
		<stop  offset="0" style="stop-color:#333333"/>
		<stop  offset="2.259088e-02" style="stop-color:#363636"/>
		<stop  offset="0.2044" style="stop-color:#4B4B4B"/>
		<stop  offset="0.4066" style="stop-color:#5A5A5A"/>
		<stop  offset="0.6436" style="stop-color:#636363"/>
		<stop  offset="1" style="stop-color:#666666"/>
	</linearGradient>
	<path class="st3" d="M38.6,45.1l-2.2-1c0,0-0.7-0.1-0.9-1.9L35,39h-3h-3l-0.4,3.1c-0.2,1.8-0.9,1.9-0.9,1.9l-2.2,1
		c-3.8,1.3-3.5,4.4-3.5,4.4H32h10.1C42.1,49.5,42.4,46.4,38.6,45.1z"/>
	<radialGradient id="SVGID_3_" cx="32" cy="35.7379" r="6.6541" gradientUnits="userSpaceOnUse">
		<stop  offset="0" style="stop-color:#999999"/>
		<stop  offset="1" style="stop-color:#808080"/>
	</radialGradient>
	<path class="st4" d="M36.8,34.3c0.9-5.7-4.8-5.9-4.8-5.9s-5.7,0.1-4.8,5.9c0,0-1.6-0.1-1,2.2c0,0,0.4,1.1,1.3,1.5
		c0,0,0.3,3.2,3.2,4.8c0.2,0.1,0.4,0.2,0.7,0.2H32h0.7c0.2,0,0.5-0.1,0.7-0.2c2.9-1.7,3.2-4.8,3.2-4.8c0.8-0.4,1.3-1.5,1.3-1.5
		C38.4,34.2,36.8,34.3,36.8,34.3z"/>
	<rect x="0" class="st5" width="64" height="64"/>
</g>
</svg>
