<svg width="16" height="16" viewBox="0 0 16 16" fill="none" xmlns="http://www.w3.org/2000/svg">
<path d="M16 13L11 10V12H0V14H11V16L16 13Z" fill="white"/>
<path d="M9.2 0H8.4C8.4 0 9.4 1.19995 9.4 2.19995C9.4 3.19995 8.6 4 7.5 4H7H1C0.7 4 0.5 4.2 0.5 4.5C0.5 4.8 0.7 5 1 5H7H7.5C9 5 10.1 3.69995 10.1 2.19995C10.1 1.29995 9.7 0.6 9.2 0Z" fill="white"/>
<path d="M12.2 0H10.9C11.6 0.6 12 1.5 12 2.5C12 4.4 10.4 6 8.5 6H8H1C0.7 6 0.5 6.2 0.5 6.5C0.5 6.8 0.7 7 1 7H8H8.5C11 7 13 5 13 2.5C13 1.6 12.7 0.7 12.2 0Z" fill="white"/>
<path d="M15.2 0H14C14.6 0.8 15 1.9 15 3C15 5.8 12.8 8 10 8C9.4 8 9.1 8 8.5 8H8H1C0.7 8 0.5 8.2 0.5 8.5C0.5 8.8 0.7 9 1 9H8H8.5C9.1 9 9.4 9 10 9C13.3 9 16 6.3 16 3C16 1.9 15.7 0.9 15.2 0Z" fill="white"/>
</svg>
