<svg width="16" height="16" viewBox="0 0 16 16" fill="none" xmlns="http://www.w3.org/2000/svg">
<path fill-rule="evenodd" clip-rule="evenodd" d="M8.85018 5.14603C8.47348 3.89034 8.72461 2.50909 9.60359 1.50454C10.6081 0.499999 11.9894 0.248864 13.2451 0.751137L11.1104 2.8858C10.6081 3.38807 10.6081 4.39261 11.1104 4.89489C11.6127 5.39716 12.6172 5.39716 13.1195 4.89489L15.2542 2.76023C15.7564 4.01591 15.3797 5.39716 14.5008 6.40171C13.4962 7.40625 12.115 7.65739 10.9848 7.28069L8.85018 5.14603Z" fill="white"/>
<path opacity="0.5" d="M9.9804 8.03399L4.58097 13.4334C4.58097 13.9357 4.4554 14.5635 3.95313 14.9402C3.19972 15.6937 1.81847 15.6937 1.06506 14.9402C0.311648 14.1868 0.311648 12.8056 1.06506 12.0522C1.56733 11.5499 2.0696 11.4243 2.69744 11.4243L8.09688 6.0249L9.9804 8.03399ZM3.19972 12.8056C2.82301 12.4289 2.19517 12.4289 1.81847 12.8056C1.44176 13.1823 1.44176 13.8101 1.81847 14.1868C2.19517 14.5635 2.82301 14.5635 3.19972 14.1868C3.57642 13.8101 3.57642 13.1823 3.19972 12.8056Z" fill="white"/>
</svg>
