<svg width="16" height="16" viewBox="0 0 16 16" fill="none" xmlns="http://www.w3.org/2000/svg">
<path fill-rule="evenodd" clip-rule="evenodd" d="M12 7.99988C14 9.59988 15 11.0999 14.5 11.7999C14.1 12.5999 12.3 12.3999 9.89995 11.3999C9.59995 13.8999 8.79995 15.5999 7.89995 15.5999C6.99995 15.5999 6.19995 13.9999 5.89995 11.4999C3.59995 12.3999 1.79995 12.5999 1.29995 11.7999C0.999952 11.0999 1.99995 9.59988 3.99995 7.99988C1.99995 6.39988 0.999952 4.89989 1.39995 4.19989C1.79995 3.39989 3.59995 3.59988 5.99995 4.49988C6.39995 1.99988 7.09995 0.399902 7.99995 0.399902C8.89995 0.399902 9.69995 2.09988 9.99995 4.49988C12.3 3.59988 14.1 3.39989 14.6 4.19989C15 4.99989 14 6.49988 12 7.99988ZM4.19995 7.79987C4.69995 7.49987 5.19995 7.09989 5.69995 6.69989C5.69995 5.99989 5.79995 5.29987 5.89995 4.79987C3.69995 3.89987 1.99995 3.6999 1.69995 4.3999C1.29995 4.9999 2.39995 6.39987 4.19995 7.79987ZM5.89995 11.1999C5.79995 10.5999 5.69995 9.99987 5.69995 9.29987C5.09995 8.99987 4.59995 8.59989 4.19995 8.19989C2.29995 9.69989 1.29995 10.9999 1.69995 11.6999C2.09995 12.2999 3.79995 12.0999 5.89995 11.1999ZM5.69995 7.09985C5.19995 7.39985 4.79995 7.69988 4.39995 7.99988C4.79995 8.29988 5.19995 8.5999 5.69995 8.8999C5.69995 8.5999 5.69995 8.29988 5.69995 7.99988C5.69995 7.69988 5.69995 7.39985 5.69995 7.09985ZM6.09995 6.8999C6.09995 7.2999 6.09995 7.59988 6.09995 7.99988C6.09995 8.39988 6.09995 8.79985 6.19995 9.09985C6.49995 9.29985 6.79995 9.49989 7.09995 9.69989C7.39995 9.89989 7.69995 10.0999 8.09995 10.1999C8.39995 9.99989 8.69995 9.89989 9.09995 9.69989C9.39995 9.49989 9.69995 9.29985 9.99995 9.09985C9.99995 8.79985 9.99995 8.39988 9.99995 7.99988C9.99995 7.59988 9.99995 7.1999 9.99995 6.8999C9.69995 6.6999 9.39995 6.49987 9.09995 6.29987C8.79995 6.09987 8.39995 5.89987 8.09995 5.79987C7.79995 5.99987 7.49995 6.09987 7.09995 6.29987C6.69995 6.49987 6.29995 6.6999 6.09995 6.8999ZM7.69995 5.59985C7.19995 5.29985 6.69995 5.0999 6.29995 4.8999C6.19995 5.3999 6.19995 5.89988 6.09995 6.49988C6.29995 6.29988 6.59995 6.19988 6.89995 5.99988C7.09995 5.89988 7.39995 5.69985 7.69995 5.59985ZM6.09995 9.49988C6.09995 10.0999 6.19995 10.5999 6.19995 11.0999C6.69995 10.8999 7.09995 10.6999 7.59995 10.3999C7.29995 10.2999 6.99995 10.0999 6.79995 9.99988C6.59995 9.79988 6.29995 9.69988 6.09995 9.49988ZM9.69995 11.3999C9.09995 11.1999 8.59995 10.8999 7.99995 10.5999C7.39995 10.8999 6.79995 11.1999 6.29995 11.3999C6.59995 13.7999 7.29995 15.2999 7.99995 15.2999C8.69995 15.2999 9.39995 13.7999 9.69995 11.3999ZM6.29995 4.59985C6.89995 4.79985 7.39995 5.0999 7.99995 5.3999C8.59995 5.0999 9.19995 4.79985 9.69995 4.59985C9.39995 2.29985 8.79995 0.69989 7.99995 0.69989C7.19995 0.69989 6.59995 2.19985 6.29995 4.59985ZM7.99995 7.19989C8.39995 7.19989 8.79995 7.49988 8.79995 7.99988C8.79995 8.39988 8.49995 8.79987 7.99995 8.79987C7.59995 8.79987 7.19995 8.49988 7.19995 7.99988C7.19995 7.59988 7.59995 7.19989 7.99995 7.19989ZM8.29995 10.3999C8.79995 10.6999 9.29995 10.8999 9.69995 11.0999C9.79995 10.5999 9.79995 10.0999 9.89995 9.49988C9.69995 9.69988 9.39995 9.79988 9.09995 9.99988C8.89995 10.0999 8.59995 10.2999 8.29995 10.3999ZM9.89995 6.49988C9.89995 5.89988 9.79995 5.3999 9.69995 4.8999C9.19995 5.0999 8.79995 5.29985 8.29995 5.59985C8.49995 5.69985 8.79995 5.89988 9.09995 5.99988C9.39995 6.19988 9.69995 6.29988 9.89995 6.49988ZM9.99995 4.79987C10.1 5.39987 10.2 5.99989 10.2 6.69989C10.8 7.09989 11.3 7.39987 11.8 7.79987C13.7 6.39987 14.7 4.99987 14.3 4.29987C13.9 3.69987 12.2 3.89987 9.99995 4.79987ZM11.8 8.19989C11.3 8.59989 10.8 8.89987 10.2 9.29987C10.2 9.99987 10.1 10.5999 9.99995 11.1999C12.2 12.0999 13.9 12.3999 14.3 11.6999C14.7 10.9999 13.7 9.69989 11.8 8.19989ZM10.2 8.8999C10.6 8.5999 11.1 8.29988 11.5 7.99988C11.1 7.69988 10.7 7.39985 10.2 7.09985C10.2 7.39985 10.2 7.69988 10.2 7.99988C10.3 8.29988 10.3 8.5999 10.2 8.8999Z" fill="white" stroke="white" stroke-width="0.5083" stroke-miterlimit="10"/>
</svg>
