<svg width="16" height="16" viewBox="0 0 16 16" fill="none" xmlns="http://www.w3.org/2000/svg">
<path opacity="0.5" d="M15.1001 8.10039H12.4001L11.1001 5.90039C11.1001 5.90039 11.4001 6.70039 11.1001 7.30039L10.6001 8.10039L11.2001 9.20039C11.3001 9.40039 11.6001 9.60039 12.0001 9.60039H15.0001C15.4001 9.60039 15.8001 9.30039 15.8001 8.80039C15.8001 8.40039 15.5001 8.10039 15.1001 8.10039Z" fill="white"/>
<path opacity="0.5" d="M5.80005 11.0996C5.40005 10.8996 5.10005 10.4996 5.00005 10.0996L3.90005 11.9996H1.10005C0.700049 11.9996 0.300049 12.2996 0.300049 12.7996C0.300049 13.1996 0.600049 13.5996 1.10005 13.5996H4.10005C4.40005 13.5996 4.70005 13.4996 4.80005 13.1996L6.00005 11.2996L5.80005 11.0996Z" fill="white"/>
<path fill-rule="evenodd" clip-rule="evenodd" d="M4.3001 6.60043L6.0001 4.60043L7.7001 5.40043L5.5001 9.10043C5.4001 9.70043 5.6001 10.3004 6.2001 10.7004L6.3001 10.8004L9.4001 12.6004V15.2004C9.4001 15.6004 9.7001 16.0004 10.2001 16.0004C10.6001 16.0004 11.0001 15.7004 11.0001 15.2004V12.2004C11.0001 12.0004 10.9001 11.8004 10.7001 11.6004C10.7001 11.6004 10.7001 11.6004 10.6001 11.5004C10.6001 11.5004 10.6001 11.5004 10.5001 11.4004L8.6001 10.3004L10.2001 7.50043L10.6001 6.70043C10.9001 6.20043 10.8001 5.60043 10.4001 5.30043L9.3001 4.60043L9.1001 4.50043C9.0001 4.50043 8.9001 4.40043 8.9001 4.40043L6.2001 3.00043C5.8001 2.80043 5.4001 3.00043 5.2001 3.30043L3.2001 5.60043C2.9001 5.90043 2.9001 6.30043 3.2001 6.60043C3.5001 6.90043 4.0001 6.90043 4.3001 6.60043Z" fill="white"/>
<path d="M12 5C13.1046 5 14 4.10457 14 3C14 1.89543 13.1046 1 12 1C10.8954 1 10 1.89543 10 3C10 4.10457 10.8954 5 12 5Z" fill="white"/>
</svg>
