<svg width="20" height="20" viewBox="0 0 20 20" fill="none" xmlns="http://www.w3.org/2000/svg">
<path d="M0.400391 9.9999C0.400391 7.4999 1.30039 5.2999 3.10039 3.5999C4.90039 1.7999 7.10039 0.899902 9.70039 0.899902C10.9004 0.899902 12.0004 1.0999 13.1004 1.4999L11.3004 2.8999C10.8004 2.7999 10.3004 2.6999 9.70039 2.6999C7.60039 2.6999 5.90039 3.3999 4.40039 4.8999C3.00039 6.2999 2.30039 7.9999 2.20039 9.9999V10.5999C2.20039 12.5999 3.00039 14.2999 4.40039 15.6999C5.90039 17.1999 7.60039 17.8999 9.70039 17.8999C11.8004 17.8999 13.6004 17.0999 15.1004 15.5999L12.5004 12.9999H19.1004V19.5999L16.5004 16.9999C14.6004 18.8999 12.4004 19.8999 9.80039 19.8999C7.20039 19.8999 5.00039 18.9999 3.20039 17.1999C1.40039 15.3999 0.500389 13.2999 0.500389 10.7999V9.9999H0.400391Z" fill="white"/>
<path opacity="0.5" d="M10.1998 14.6L3.7998 10.3L5.4998 7.8L9.4998 11L16.5998 1L18.6998 2.4L10.1998 14.6Z" fill="white"/>
</svg>
