<svg width="16" height="16" viewBox="0 0 16 16" fill="none" xmlns="http://www.w3.org/2000/svg">
<path fill-rule="evenodd" clip-rule="evenodd" d="M3.6 13.2999L0.9 15.9999C0.9 15.9999 0.7 15.9999 0.3 15.6999C-5.96046e-08 15.2999 0 15.0999 0 15.0999L2.7 12.3999L3.6 13.2999Z" fill="white"/>
<path d="M6 6.89999C7.7 6.89999 9.1 8.3 9.1 10C9.1 11.7 7.7 13.1 6 13.1C4.3 13.1 2.9 11.7 2.9 10C2.9 8.3 4.3 6.89999 6 6.89999ZM6 6C3.8 6 2 7.8 2 10C2 12.2 3.8 14 6 14C8.2 14 10 12.2 10 10C10 7.8 8.2 6 6 6Z" fill="white"/>
<path opacity="0.5" fill-rule="evenodd" clip-rule="evenodd" d="M11 5H16V12.1C16 12.6 15.6 13 15.1 13H10.5C10.9 12.2 11.2 11.3 11.2 10.3C11.2 7.39999 8.9 4.99999 6 4.79999V0.899994C6 0.399994 6.4 0 6.9 0H11V5ZM12 4H16L12 0V4Z" fill="white"/>
</svg>
