<svg width="16" height="16" viewBox="0 0 16 16" fill="none" xmlns="http://www.w3.org/2000/svg">
<path d="M11 6.4001L14 4.3001L10.5 5.4001C10.3 5.2001 10.2 5.0001 10 4.8001L11.9 1.9001L9.3 4.3001C9.1 4.2001 8.8 4.1001 8.6 4.1001L8 1.1001L7.5 4.2001C7.2 4.2001 7 4.3001 6.8 4.4001L4.1 2.0001L6 4.9001C5.8 5.1001 5.6 5.3001 5.5 5.5001L2 4.3001L5 6.4001C5 6.6001 4.9 6.8001 4.9 7.0001L1.5 7.3001L4.8 7.8001C5.7 7.7001 6.7 7.6001 8 7.6001C9.3 7.6001 10.3 7.7001 11.2 7.8001L14.5 7.3001L11.1 7.0001C11.1 6.8001 11 6.6001 11 6.4001Z" fill="white"/>
<path opacity="0.5" d="M16 14.9999C16 14.9999 15.9 14.6999 15.8 14.1999C15.2 12.3999 13.1 9.3999 8 9.3999C2.9 9.3999 0.9 12.3999 0.2 14.1999C0.1 14.6999 0 14.9999 0 14.9999C0 14.9999 3.4 14.9999 8 14.9999C13 14.9999 16 14.9999 16 14.9999Z" fill="white"/>
<path d="M16 15C16 15 14 10.1 8 10.1C2 10.1 0 15 0 15C0 15 1.5 9 8 9C14.5 9 16 15 16 15Z" fill="white"/>
</svg>
