<svg width="16" height="16" viewBox="0 0 16 16" fill="none" xmlns="http://www.w3.org/2000/svg">
<g clip-path="url(#clip0)">
<path opacity="0.5" d="M8 0L4.5 6H9.5L3 14L5.5 8H0.5L8 0Z" fill="white"/>
<path fill-rule="evenodd" clip-rule="evenodd" d="M14.29 8.22L15.85 6.66C16.0149 7.11196 16.0469 7.60166 15.9424 8.07125C15.8378 8.54083 15.601 8.97068 15.26 9.31C14.9291 9.64451 14.5102 9.8784 14.0518 9.98459C13.5934 10.0908 13.1143 10.0649 12.67 9.91L8.33001 14.26C8.34244 14.4904 8.30611 14.7208 8.22339 14.9362C8.14068 15.1516 8.01345 15.3471 7.85001 15.51C7.53318 15.8034 7.11501 15.9627 6.68327 15.9544C6.25152 15.9461 5.83977 15.7709 5.53442 15.4656C5.22907 15.1602 5.05388 14.7485 5.0456 14.3167C5.03732 13.885 5.1966 13.4668 5.49001 13.15C5.65982 12.9823 5.86398 12.8534 6.08842 12.7723C6.31286 12.6912 6.55222 12.6597 6.79001 12.68L11.1 8.37C10.9405 7.92058 10.9112 7.43522 11.0156 6.96989C11.12 6.50456 11.3538 6.07821 11.69 5.74C12.0343 5.39357 12.4722 5.15512 12.95 5.05387C13.4278 4.95263 13.9248 4.99298 14.38 5.17L12.81 6.73C12.614 6.92841 12.5041 7.19609 12.5041 7.475C12.5041 7.75392 12.614 8.02159 12.81 8.22C12.9037 8.32312 13.018 8.40551 13.1454 8.46189C13.2729 8.51827 13.4107 8.54739 13.55 8.54739C13.6894 8.54739 13.8272 8.51827 13.9546 8.46189C14.082 8.40551 14.1963 8.32312 14.29 8.22ZM7.23001 13.78C7.08414 13.6355 6.88683 13.5548 6.68148 13.5557C6.47612 13.5567 6.27955 13.6391 6.13501 13.785C5.99047 13.9309 5.90979 14.1282 5.91073 14.3335C5.91167 14.5389 5.99414 14.7355 6.14001 14.88C6.21084 14.9529 6.29557 15.0108 6.38918 15.0504C6.48279 15.0899 6.58339 15.1103 6.68501 15.1103C6.78664 15.1103 6.88723 15.0899 6.98084 15.0504C7.07446 15.0108 7.15918 14.9529 7.23001 14.88C7.30318 14.8083 7.36131 14.7227 7.401 14.6283C7.44068 14.5339 7.46112 14.4324 7.46112 14.33C7.46112 14.2276 7.44068 14.1262 7.401 14.0317C7.36131 13.9373 7.30318 13.8517 7.23001 13.78Z" fill="white"/>
</g>
<defs>
<clipPath id="clip0">
<rect width="16" height="16" fill="white"/>
</clipPath>
</defs>
</svg>
