<svg width="16" height="16" viewBox="0 0 16 16" fill="none" xmlns="http://www.w3.org/2000/svg">
<path opacity="0.5" d="M14.2 13.5999H11.8V14.7999H14.2V13.5999Z" fill="white"/>
<path opacity="0.5" d="M13.4 16H12.6L12 15H14L13.4 16Z" fill="white"/>
<path d="M13 6.3999C11.4 6.3999 10 7.8999 10 9.3999C10 10.1999 10.5 10.8999 11.1 11.4999C11.5 11.8999 11.8 12.4999 12.2 12.9999H13.8C14.2 12.3999 14.5 11.7999 14.9 11.4999C15.5 10.8999 16 10.1999 16 9.3999C16 7.8999 14.6 6.3999 13 6.3999Z" fill="white"/>
<path d="M5.3 12.1V11.5H2.7V12.1C2.7 13.6 1.4 15 0 15H8C6.6 15 5.3 13.6 5.3 12.1Z" fill="white"/>
<path d="M6.60002 10.2H1.40002V10.8H6.60002V10.2Z" fill="white"/>
<path d="M8 15H0V16H8V15Z" fill="white"/>
<path d="M3.99998 9.8C5.04932 9.8 5.89998 8.94934 5.89998 7.9C5.89998 6.85066 5.04932 6 3.99998 6C2.95063 6 2.09998 6.85066 2.09998 7.9C2.09998 8.94934 2.95063 9.8 3.99998 9.8Z" fill="white"/>
<path d="M8.9 0L5 1.8V5.5L8.9 7V0Z" fill="white"/>
<path opacity="0.5" d="M12 5.5L8.90002 7V0L12 1.8V5.5Z" fill="white"/>
</svg>
