<svg width="16" height="16" viewBox="0 0 16 16" fill="none" xmlns="http://www.w3.org/2000/svg">
<path opacity="0.5" d="M9.2 5.7L7 5.2C6.8 5.3 6.7 5.4 6.6 5.6L8 7L7.5 7.5L6 6C5.9 6.1 5.7 6.2 5.6 6.3L6.2 8.7L5.5 9L4.9 6.6C4.3 6.7 3.7 6.6 3.3 6.2C2.9 5.8 2.8 5.2 3 4.6L0.5 4L0.8 3.3L3.2 3.9C3.3 3.8 3.4 3.6 3.4 3.5L2 2L2.5 1.5L3.9 2.9C4 2.8 4.2 2.7 4.3 2.6L3.8 0.3L4.5 0L5 2.1C5.9 1.7 6.8 1.7 7.3 2.2C7.8 2.7 7.8 3.6 7.4 4.5L9.5 5L9.2 5.7Z" fill="white"/>
<path d="M8 10.5V12.5C8 12.8 7.8 13 7.5 13H4.5C4.2 13 4 12.8 4 12.5V10.5C4 10.2 4.2 10 4.5 10H7.5C7.8 10 8 10.2 8 10.5Z" fill="white"/>
<path d="M16 7.5V9.5C16 9.8 15.8 10 15.5 10H12.5C12.2 10 12 9.8 12 9.5V7.5C12 7.2 12.2 7 12.5 7H15.5C15.8 7 16 7.2 16 7.5Z" fill="white"/>
<path d="M16 13.5V15.5C16 15.8 15.8 16 15.5 16H12.5C12.2 16 12 15.8 12 15.5V13.5C12 13.2 12.2 13 12.5 13H15.5C15.8 13 16 13.2 16 13.5Z" fill="white"/>
<path opacity="0.5" d="M14 9V8H10C9.5 8 9 8.5 9 9V11H8V12H9V14C9 14.6 9.5 15 10 15H14V14H10.6C10.3 14 10 13.7 10 13.4V9.6C10 9.3 10.3 9 10.6 9H14Z" fill="white"/>
</svg>
