<svg width="16" height="16" viewBox="0 0 16 16" fill="none" xmlns="http://www.w3.org/2000/svg">
<path fill-rule="evenodd" clip-rule="evenodd" d="M9.59003 13.3099L6.90003 15.9999C6.67582 15.964 6.4728 15.8465 6.33003 15.6699C5.99003 15.3399 6.00003 15.0999 6.00003 15.0999L8.69003 12.4099L9.59003 13.3099Z" fill="white"/>
<path d="M12 7.5C12.4945 7.5 12.9778 7.64662 13.3889 7.92133C13.8 8.19603 14.1205 8.58646 14.3097 9.04327C14.4989 9.50009 14.5484 10.0028 14.452 10.4877C14.3555 10.9727 14.1174 11.4181 13.7678 11.7678C13.4181 12.1174 12.9727 12.3555 12.4877 12.452C12.0028 12.5484 11.5001 12.4989 11.0433 12.3097C10.5865 12.1205 10.196 11.8 9.92133 11.3889C9.64663 10.9778 9.5 10.4945 9.5 10C9.5 9.33696 9.76339 8.70108 10.2322 8.23224C10.7011 7.7634 11.337 7.5 12 7.5ZM12 6.25C11.2583 6.25 10.5333 6.46996 9.91661 6.88202C9.29993 7.29407 8.81929 7.87972 8.53546 8.56494C8.25163 9.25016 8.17736 10.0041 8.32206 10.7316C8.46675 11.459 8.82391 12.1272 9.34835 12.6517C9.8728 13.1761 10.541 13.5332 11.2684 13.6779C11.9958 13.8226 12.7498 13.7484 13.4351 13.4645C14.1203 13.1807 14.706 12.7001 15.118 12.0834C15.5301 11.4667 15.75 10.7417 15.75 10C15.75 9.00544 15.3549 8.05159 14.6517 7.34833C13.9484 6.64507 12.9946 6.25 12 6.25Z" fill="white"/>
<path fill-rule="evenodd" clip-rule="evenodd" d="M13.93 3H8.27L5.93 0.369995C5.83211 0.255804 5.71104 0.163769 5.57483 0.0999756C5.43862 0.0361817 5.29039 0.00209463 5.14 0H1C0.734784 0 0.480429 0.105371 0.292892 0.292908C0.105356 0.480444 0 0.734784 0 1V3V12.92C0.00260268 13.0644 0.0336407 13.207 0.0913391 13.3395C0.149038 13.4719 0.232267 13.5917 0.336273 13.692C0.44028 13.7923 0.563028 13.8711 0.697502 13.924C0.831976 13.9768 0.975542 14.0027 1.12 14H5.12C5.69 13.47 6.41 12.79 7.06 12.15C6.76444 11.4346 6.62796 10.6634 6.66 9.89001C6.7396 8.48939 7.35526 7.17311 8.3793 6.21423C9.40333 5.25536 10.7572 4.72745 12.16 4.73999C12.7008 4.74675 13.2373 4.83787 13.75 5.01001C14.1897 5.20857 14.6142 5.43919 15.02 5.70001V4C15.0206 3.86075 14.992 3.72293 14.9363 3.59534C14.8805 3.46775 14.7986 3.35323 14.696 3.25909C14.5934 3.16496 14.4723 3.09326 14.3404 3.04865C14.2085 3.00403 14.0687 2.98747 13.93 3V3Z" fill="white"/>
</svg>
