<svg width="16" height="16" viewBox="0 0 16 16" fill="none" xmlns="http://www.w3.org/2000/svg">
<path d="M7.5 15C3.3 15 0 11.7 0 7.5C0 3.3 3.3 0 7.5 0C11.7 0 15 3.3 15 7.5C15 11.7 11.7 15 7.5 15ZM7.5 1C3.9 1 1 3.9 1 7.5C1 11.1 3.9 14 7.5 14C11.1 14 14 11.1 14 7.5C14 3.9 11.1 1 7.5 1Z" fill="white"/>
<path fill-rule="evenodd" clip-rule="evenodd" d="M14.1 8.1999C14.1 8.1999 13.1 9.2999 11.2 9.9999C11.3 9.2999 11.4 8.5999 11.5 7.7999H14.4V7.0999H11.5C11.5 6.2999 11.4 5.5999 11.2 4.8999C13.1 5.5999 14.1 6.6999 14.1 6.6999L14.6 6.2999V6.1999C14.3 5.8999 13.1 4.7999 11 4.0999C10.3 1.9999 9.20002 0.799902 8.90002 0.499902H8.80002L8.20002 0.899902C8.20002 0.899902 9.30002 1.8999 10 3.7999C9.40002 3.6999 8.70002 3.5999 7.90002 3.4999V0.599902H7.10002V3.4999C6.30002 3.4999 5.60002 3.5999 4.90002 3.7999C5.60002 1.8999 6.70002 0.899902 6.70002 0.899902L6.30002 0.399902H6.20002C5.90002 0.699902 4.70002 1.8999 4.10002 4.0999C1.90002 4.6999 0.700024 5.8999 0.400024 6.1999V6.2999L0.900024 6.6999C0.900024 6.6999 1.90002 5.5999 3.80002 4.8999C3.70002 5.5999 3.60002 6.2999 3.50002 7.0999H0.600024V7.8999H3.50002C3.50002 8.6999 3.60002 9.3999 3.80002 10.0999C1.90002 9.2999 0.900024 8.2999 0.900024 8.1999L0.400024 8.6999V8.7999C0.700024 9.0999 1.90002 10.2999 4.00002 10.8999C4.70002 12.9999 5.80002 14.1999 6.10002 14.4999H6.20002L6.60002 13.9999C6.60002 13.9999 5.50002 12.9999 4.80002 11.0999C5.50002 11.1999 6.20002 11.2999 7.00002 11.3999V14.2999H7.80002V11.3999C8.60002 11.3999 9.30002 11.2999 10 11.0999C9.30002 12.9999 8.20002 13.9999 8.20002 13.9999L8.60003 14.4999H8.70002C9.00002 14.1999 10.2 12.9999 10.8 10.8999C12.9 10.1999 14.1 9.0999 14.4 8.7999V8.6999L14.1 8.1999ZM7.10002 10.6999C6.20002 10.6999 5.40002 10.4999 4.60002 10.2999C4.50002 9.5999 4.30002 8.7999 4.30002 7.8999H7.10002V10.6999ZM7.10002 7.0999H4.30002C4.30002 6.1999 4.50002 5.3999 4.70002 4.5999C5.40002 4.3999 6.20002 4.2999 7.20002 4.1999V7.0999H7.10002ZM10.3 10.2999C9.60003 10.4999 8.80002 10.5999 7.80002 10.6999V7.8999H10.6C10.7 8.7999 10.5 9.5999 10.3 10.2999ZM7.90002 7.0999V4.2999C8.80002 4.2999 9.60002 4.4999 10.4 4.6999C10.6 5.3999 10.7 6.1999 10.8 7.1999H7.90002V7.0999Z" fill="white" fill-opacity="0.5"/>
</svg>
