<svg width="16" height="16" viewBox="0 0 16 16" fill="none" xmlns="http://www.w3.org/2000/svg">
<path d="M10.6254 9.80592C12.4218 8.00953 12.8967 5.57186 11.6861 4.36125C10.4755 3.15064 8.03782 3.62551 6.24143 5.4219C4.44503 7.2183 3.97017 9.65596 5.18078 10.8666C6.39139 12.0772 8.82905 11.6023 10.6254 9.80592Z" fill="white"/>
<path opacity="0.5" d="M5.49995 6.40001L3.09995 3.90001L3.99995 3.00001L6.29995 5.30001C5.99995 5.70001 5.69995 6.00001 5.49995 6.40001ZM7.99995 4.20001L7.09995 0.700012L5.99995 1.10001L6.89995 4.80001C7.29995 4.60001 7.59995 4.40001 7.99995 4.20001ZM11.2 9.10001L14.9 10L15.3 8.80001L11.8 8.00001C11.6 8.40001 11.4 8.70001 11.2 9.10001ZM5.09995 7.00001L1.09995 6.00001L0.699951 7.10001L4.69995 8.10001C4.69995 7.80001 4.89995 7.40001 5.09995 7.00001ZM10.6 9.70001C10.3 10 9.99995 10.3 9.59995 10.5L12 12.9L12.9 12L10.6 9.70001ZM7.79995 11.3L8.79995 15.3L9.99995 14.9L8.99995 10.9C8.59995 11.1 8.19995 11.3 7.79995 11.3Z" fill="white"/>
</svg>
