<svg width="16" height="16" viewBox="0 0 16 16" fill="none" xmlns="http://www.w3.org/2000/svg">
<g clip-path="url(#clip0)">
<path opacity="0.5" d="M12.1 4.90002C12.1 4.90002 10.8 3.70002 8.60005 3.10002C6.00005 2.30002 3.00005 3.70002 3.00005 3.70002C3.00005 3.70002 5.60005 1.40002 8.80005 2.10002C11.4 2.70002 12.1 4.90002 12.1 4.90002ZM10.7 0.400017C7.90005 -0.699983 5.40005 0.900017 5.40005 0.900017C5.40005 0.900017 7.60005 -0.0999833 10.1 0.800017C12.5 1.70002 13.4 3.40002 13.4 3.40002C13.4 3.40002 13.5 1.50002 10.7 0.400017ZM5.20005 14C8.50005 13.8 9.80005 10.6 9.80005 10.6C9.80005 10.6 7.70005 12.9 4.90005 12.9C2.60005 12.9 0.800049 12 0.800049 12C0.800049 12 2.50005 14.1 5.20005 14ZM7.50005 15.8C10.1 15.1 10.5 12.6 10.5 12.6C10.5 12.6 9.80005 14.5 7.50005 15.2C5.30005 15.9 3.50005 15.2 3.50005 15.2C3.50005 15.2 4.90005 16.5 7.50005 15.8Z" fill="white"/>
<path d="M8.2 11H2.8C2.3 11 2 10.7 2 10.2V5.8C2 5.3 2.3 5 2.8 5H8.3C8.7 5 9 5.3 9 5.8V10.3C9 10.7 8.7 11 8.2 11Z" fill="white"/>
<path d="M10.2 7.50005V8.50005L14 11.2V4.80005L10.2 7.50005Z" fill="white"/>
</g>
<defs>
<clipPath id="clip0">
<rect width="16" height="16" fill="white"/>
</clipPath>
</defs>
</svg>
