<svg width="16" height="16" viewBox="0 0 16 16" fill="none" xmlns="http://www.w3.org/2000/svg">
<path fill-rule="evenodd" clip-rule="evenodd" d="M12.33 1.1L10.28 1.9L10.25 4.23L12.3 3.43L12.33 1.1Z" fill="white"/>
<path fill-rule="evenodd" clip-rule="evenodd" d="M9.25003 2.3L7.19003 3.11L7.16003 5.44L9.22003 4.63L9.25003 2.3Z" fill="white"/>
<path fill-rule="evenodd" clip-rule="evenodd" d="M4.07996 6.64L6.12996 5.84L6.15996 3.51L4.10996 4.31L4.07996 6.64Z" fill="white"/>
<path fill-rule="evenodd" clip-rule="evenodd" d="M13.36 0.699998L13.33 3.03L15.38 2.22L14.58 0.169998L13.36 0.699998Z" fill="white"/>
<path fill-rule="evenodd" clip-rule="evenodd" d="M3.07994 4.71L0.189941 5.79L0.999941 7.85L3.04994 7.05L3.07994 4.71Z" fill="white"/>
<path d="M16 8H1V16H16V8Z" fill="white" fill-opacity="0.5"/>
<path d="M15 9V15H2V9H15ZM16 8H1V16H16V8Z" fill="white"/>
</svg>
