<svg width="16" height="16" viewBox="0 0 16 16" fill="none" xmlns="http://www.w3.org/2000/svg">
<path d="M4.5 8.5C6.70914 8.5 8.5 6.70914 8.5 4.5C8.5 2.29086 6.70914 0.5 4.5 0.5C2.29086 0.5 0.5 2.29086 0.5 4.5C0.5 6.70914 2.29086 8.5 4.5 8.5Z" fill="white"/>
<path opacity="0.5" fill-rule="evenodd" clip-rule="evenodd" d="M15.8 5.99995L11.7 5.19995L14.5 0.199951L9.4 3.79996C9.4 3.99996 9.5 4.29995 9.5 4.49995C9.5 7.29995 7.3 9.49995 4.5 9.49995C4 9.49995 3.6 9.39996 3.1 9.29996L0 14L5.6 11.8L8 16L9.5 10.5L15.2 11.5L11.2 7.89996L15.8 5.99995Z" fill="white"/>
</svg>
