<svg width="16" height="16" viewBox="0 0 16 16" fill="none" xmlns="http://www.w3.org/2000/svg">
<path opacity="0.5" d="M4 9.32C4.42763 9.31802 4.84622 9.44302 5.20275 9.67915C5.55927 9.91529 5.83768 10.2519 6.0027 10.6465C6.16772 11.041 6.21192 11.4756 6.12971 11.8952C6.0475 12.3149 5.84257 12.7007 5.54089 13.0038C5.23921 13.3069 4.85436 13.5136 4.43509 13.5977C4.01582 13.6819 3.581 13.6397 3.18573 13.4765C2.79046 13.3133 2.45252 13.0365 2.21473 12.6811C1.97694 12.3256 1.85001 11.9076 1.85 11.48C1.85 10.9089 2.07619 10.361 2.47911 9.95617C2.88203 9.55138 3.42887 9.32264 4 9.32ZM4 8C3.30777 8 2.63108 8.20527 2.05551 8.58986C1.47993 8.97444 1.03133 9.52107 0.766423 10.1606C0.501516 10.8001 0.432205 11.5039 0.567253 12.1828C0.702301 12.8618 1.03564 13.4854 1.52513 13.9749C2.01461 14.4644 2.63825 14.7977 3.31719 14.9327C3.99612 15.0678 4.69985 14.9985 5.33939 14.7336C5.97894 14.4687 6.52556 14.0201 6.91015 13.4445C7.29473 12.8689 7.5 12.1922 7.5 11.5C7.5 10.5717 7.13125 9.6815 6.47487 9.02513C5.8185 8.36875 4.92826 8 4 8Z" fill="white"/>
<path opacity="0.5" d="M12 14.98C13.933 14.98 15.5 13.413 15.5 11.48C15.5 9.547 13.933 7.98 12 7.98C10.067 7.98 8.5 9.547 8.5 11.48C8.5 13.413 10.067 14.98 12 14.98Z" fill="white"/>
<path d="M8 7.5C9.933 7.5 11.5 5.933 11.5 4C11.5 2.067 9.933 0.5 8 0.5C6.067 0.5 4.5 2.067 4.5 4C4.5 5.933 6.067 7.5 8 7.5Z" fill="white"/>
</svg>
