<svg xmlns="http://www.w3.org/2000/svg" viewBox="0 0 20 20"><defs><style>.cls-1{opacity:0.7;}.cls-2,.cls-3{fill:#fff;}.cls-3{opacity:0.5;}.cls-4{fill:none;}</style></defs><g id="Layer_2" data-name="Layer 2"><g id="Layer_4" data-name="Layer 4" class="cls-1"><path class="cls-2" d="M7.58,17.36,2.47,12.24C1.19,11,3.11,9.05,4.39,7.77s3.19-3.2,4.47-1.92L14,11l.64-1.92L10.14,4.57c-1.92-1.92-5.55-1.48-8,1s-2.88,6.07-1,8L5.67,18Z"/><path class="cls-3" d="M19.74,7.77l-.64-.64a.9.9,0,0,0-.64-.27,1.89,1.89,0,0,1-1.38-.47L14.71,4a1.87,1.87,0,0,1-.47-1.37A.89.89,0,0,0,14,2l-.64-.64a.91.91,0,0,0-1.28,0L11.42,2a.91.91,0,0,0,0,1.28l.64.64a.89.89,0,0,0,.64.26,1.87,1.87,0,0,1,1.37.47L16.44,7a1.89,1.89,0,0,1,.47,1.38.9.9,0,0,0,.27.64l.64.64a.91.91,0,0,0,1.28,0l.64-.64A.91.91,0,0,0,19.74,7.77Z"/><rect class="cls-3" x="12.94" y="5.9" width="2.71" height="1.81" transform="translate(-0.63 12.1) rotate(-45)"/><rect class="cls-3" x="7.69" y="9.91" width="5.21" height="1.81" transform="translate(-4.63 10.44) rotate(-45)"/><path class="cls-3" d="M5.88,12.66l2.61,2.61.59-.59a1,1,0,0,0,0-1.41l-1.19-1.2a1,1,0,0,0-1.42,0Z"/><rect class="cls-4" width="20" height="20"/></g></g></svg>