<svg width="16" height="16" viewBox="0 0 16 16" fill="none" xmlns="http://www.w3.org/2000/svg">
<path d="M12 1V5C11.9918 5.14874 11.9504 5.29375 11.879 5.42446C11.8075 5.55517 11.7078 5.66827 11.587 5.75549C11.4663 5.8427 11.3275 5.90183 11.181 5.92857C11.0344 5.9553 10.8838 5.94896 10.74 5.91C9.60001 5.63 9.12 5.06 7.5 5.06H7.38C6.75891 5.14584 6.18531 5.43986 5.75299 5.89397C5.32067 6.34809 5.05521 6.93544 5 7.56V8.5C5.05696 9.12394 5.32301 9.71034 5.755 10.1641C6.187 10.6179 6.75962 10.9124 7.38 11H7.5C9.12 11 9.60001 10.42 10.74 10.14C10.88 10.1015 11.0266 10.0939 11.1698 10.1177C11.313 10.1416 11.4493 10.1963 11.5692 10.2782C11.6891 10.36 11.7897 10.467 11.8641 10.5916C11.9385 10.7163 11.9849 10.8556 12 11V15H15V1H12Z" fill="#C0C0C0"/>
<path d="M10 12.43C9.08649 12.9428 8.04612 13.1855 7 13.13C6.00776 13.0579 5.07 12.6487 4.34241 11.9702C3.61481 11.2917 3.14114 10.3848 3 9.4V6.6C3.14114 5.61521 3.61481 4.7083 4.34241 4.02982C5.07 3.35133 6.00776 2.94208 7 2.87C8.04612 2.81447 9.08649 3.05722 10 3.57V1H1V15H10V12.43Z" fill="#C0C0C0"/>
</svg>
