<svg width="16" height="16" viewBox="0 0 16 16" fill="none" xmlns="http://www.w3.org/2000/svg">
<path d="M9 1.45V14.55L1 11.48V4.48L9 1.45ZM10 0L0 3.83V12.17L10 16V0Z" fill="white"/>
<path d="M1.88 12.34V11.64C1.88752 11.3567 1.95202 11.0778 2.06967 10.82C2.18731 10.5622 2.35569 10.3307 2.56474 10.1394C2.7738 9.94807 3.01926 9.80082 3.28647 9.70643C3.55367 9.61204 3.83716 9.57244 4.12 9.59C5.98 9.67 8.12 11.76 8.12 13.59V14.83L1.88 12.34Z" fill="white"/>
<path d="M5.93995 6.87C5.93995 8.22 5.04995 9.31 4.11995 9.3C3.18995 9.29 2.77995 8.48 2.77995 7.49C2.7623 7.01371 2.87849 6.542 3.11534 6.12839C3.3522 5.71478 3.70022 5.37584 4.11995 5.15C5.04995 4.78 5.93995 5.52 5.93995 6.87Z" fill="white"/>
<path opacity="0.5" d="M11 3.99L15 2.45V11.65L11.6 5.38L11 6.55V13.08L16 15V13.5V1L11 2.92V3.99Z" fill="white"/>
</svg>
