<svg width="16" height="16" viewBox="0 0 16 16" fill="none" xmlns="http://www.w3.org/2000/svg">
<path d="M15.8 4.00006L11 0.800049V3.20007H10.3999C8.3499 3.20007 7.00996 5.43006 5.70996 7.59006C4.70996 9.28006 3.5499 11.2001 2.3999 11.2001H0V12.8H2.3999C4.3999 12.8 5.79009 10.5701 7.09009 8.41006C8.09009 6.72006 9.2499 4.80005 10.3999 4.80005H11V7.20007L15.8 4.00006Z" fill="white"/>
<path opacity="0.5" d="M11 15.2V12.7999H10.3999C9.79303 12.7497 9.20617 12.5592 8.68555 12.2433C8.16492 11.9275 7.72477 11.495 7.3999 10.9799C7.6399 10.5999 7.87009 10.2199 8.09009 9.83994L8.29004 9.51993C8.97004 10.5199 9.66988 11.2 10.3799 11.2H10.98V8.79993L15.78 11.9999L11 15.2ZM2.3999 3.19995H0V4.79993H2.3999C3.1299 4.79993 3.86006 5.57994 4.56006 6.58994L4.68994 6.37994C4.93994 5.95994 5.18996 5.53992 5.45996 5.10992C5.13514 4.57415 4.68898 4.1222 4.15747 3.79044C3.62596 3.45868 3.0239 3.25642 2.3999 3.19995Z" fill="white"/>
</svg>
