<svg width="16" height="16" viewBox="0 0 16 16" fill="none" xmlns="http://www.w3.org/2000/svg">
<path d="M1 10H15C15 11.5913 14.3679 13.1174 13.2426 14.2426C12.1174 15.3679 10.5913 16 9 16H7C5.4087 16 3.88258 15.3679 2.75736 14.2426C1.63214 13.1174 1 11.5913 1 10Z" fill="white"/>
<path opacity="0.5" d="M3.65002 0C3.65002 0 5.73002 1.38 5.73002 2.77C5.73002 4.16 3.65002 4.85 3.65002 6.23C3.78408 7.27639 4.25843 8.24969 5.00002 9C5.00002 9 2.27002 8.31 2.27002 6.23C2.27002 4.15 4.35002 4.15 4.35002 2.77C4.30763 1.80865 4.06943 0.866074 3.65002 0Z" fill="white"/>
<path opacity="0.5" d="M7.65002 0C7.65002 0 9.73002 1.38 9.73002 2.77C9.73002 4.16 7.65002 4.85 7.65002 6.23C7.78408 7.27639 8.25843 8.24969 9.00002 9C9.00002 9 6.27002 8.31 6.27002 6.23C6.27002 4.15 8.35002 4.15 8.35002 2.77C8.30763 1.80865 8.06943 0.866074 7.65002 0V0Z" fill="white"/>
<path opacity="0.5" d="M11.65 0C11.65 0 13.73 1.38 13.73 2.77C13.73 4.16 11.65 4.85 11.65 6.23C11.784 7.27639 12.2584 8.24969 13 9C13 9 10.23 8.31 10.23 6.23C10.23 4.15 12.31 4.15 12.31 2.77C12.2801 1.81146 12.0556 0.869015 11.65 0V0Z" fill="white"/>
</svg>
