<svg width="16" height="16" viewBox="0 0 16 16" fill="none" xmlns="http://www.w3.org/2000/svg">
<path opacity="0.5" d="M11 14H13V15H11V14ZM11 10H13V5V3H11H6V5H11V10Z" fill="white"/>
<path d="M15 13H3V1C3 0.4 3.4 0 4 0C4.6 0 5 0.4 5 1V11H15C15.6 11 16 11.4 16 12C16 12.6 15.6 13 15 13Z" fill="white"/>
<path d="M6 5H11V10H13V3H6V5Z" fill="white"/>
<path d="M1 5H2V3H1C0.4 3 0 3.4 0 4C0 4.6 0.4 5 1 5Z" fill="white"/>
<path d="M13 15V14H11V15C11 15.6 11.4 16 12 16C12.6 16 13 15.6 13 15Z" fill="white"/>
</svg>
