<svg width="16" height="16" viewBox="0 0 16 16" fill="none" xmlns="http://www.w3.org/2000/svg">
<path opacity="0.5" d="M0.50005 13.5C0.40005 11.6 0.70005 9.69995 1.90005 7.89995C2.20005 7.39995 2.60005 7.09995 3.00005 6.79995C3.50005 6.49995 4.00005 6.29995 4.50005 6.09995C5.50005 5.79995 6.60005 5.69995 7.60005 5.89995C8.70005 6.09995 9.70005 6.59995 10.4001 7.39995C11.1 8.19995 11.6001 8.99995 12.1001 9.79995C12.6001 10.6 13.0001 11.4 13.5001 11.9C13.6001 11.9999 13.8 12.2 13.9001 12.3C14.0001 12.4 14.1001 12.6 14.3001 12.8C14.6001 13.1 15.0001 13.4 15.4001 13.6C14.9001 13.8 14.4001 13.9 13.8001 13.8C13.5001 13.8 13.2001 13.7 13.0001 13.6C12.8001 13.4 12.6 13.2 12.4001 13C11.6 12.2 11.2001 11.3 10.7001 10.5C10.2001 9.69995 9.80005 8.89995 9.20005 8.39995C8.60005 7.79995 8.00005 7.49995 7.20005 7.29995C6.50005 7.19995 5.70005 7.19995 5.00005 7.49995C4.60005 7.59995 4.20005 7.79995 3.90005 7.99995C3.60005 8.29995 3.30005 8.59995 3.00005 8.79995C1.80005 9.99995 1.00005 11.7 0.50005 13.5Z" fill="white"/>
<path d="M4.8787 4.50004L7 6.62134L9.1213 4.50004L7 2.37874L4.8787 4.50004Z" fill="white"/>
<path opacity="0.5" d="M0.299927 4.5H13.6999" stroke="white" stroke-width="0.5" stroke-miterlimit="10"/>
<path d="M1.49998 5.89985C2.27317 5.89985 2.89998 5.27305 2.89998 4.49985C2.89998 3.72665 2.27317 3.09985 1.49998 3.09985C0.726777 3.09985 0.0999756 3.72665 0.0999756 4.49985C0.0999756 5.27305 0.726777 5.89985 1.49998 5.89985Z" fill="white"/>
<path d="M12.5 5.89985C13.2732 5.89985 13.9 5.27305 13.9 4.49985C13.9 3.72665 13.2732 3.09985 12.5 3.09985C11.7268 3.09985 11.1 3.72665 11.1 4.49985C11.1 5.27305 11.7268 5.89985 12.5 5.89985Z" fill="white"/>
</svg>
