<svg width="16" height="16" viewBox="0 0 16 16" fill="none" xmlns="http://www.w3.org/2000/svg">
<path d="M10.5767 10.2256C12.3731 8.4292 12.848 5.99154 11.6374 4.78093C10.4268 3.57031 7.98912 4.04518 6.19272 5.84158C4.39633 7.63797 3.92146 10.0756 5.13207 11.2862C6.34269 12.4969 8.78035 12.022 10.5767 10.2256Z" fill="white"/>
<path opacity="0.5" d="M5.49995 6.8001L3.09995 4.4001L3.99995 3.5001L6.29995 5.8001C5.99995 6.2001 5.69995 6.5001 5.49995 6.8001ZM7.99995 4.6001L7.09995 1.1001L5.99995 1.6001L6.89995 5.3001C7.29995 5.0001 7.59995 4.8001 7.99995 4.6001ZM11.2 9.6001L14.9 10.5001L15.3 9.3001L11.8 8.4001C11.6 8.9001 11.4 9.2001 11.2 9.6001ZM5.09995 7.5001L1.09995 6.5001L0.699951 7.7001L4.69995 8.7001C4.69995 8.2001 4.89995 7.9001 5.09995 7.5001ZM10.6 10.2001C10.3 10.5001 9.99995 10.8001 9.59995 11.0001L12 13.4001L12.9 12.5001L10.6 10.2001ZM7.79995 11.8001L8.79995 15.8001L9.99995 15.4001L8.99995 11.4001C8.59995 11.6001 8.19995 11.7001 7.79995 11.8001Z" fill="white"/>
</svg>
