<svg width="16" height="16" viewBox="0 0 16 16" fill="none" xmlns="http://www.w3.org/2000/svg">
<path opacity="0.5" d="M7 12L4 9L5 5L11 11L7 12Z" fill="white"/>
<path opacity="0.5" d="M2 16L0 14L3 10L6 13L2 16Z" fill="white"/>
<path d="M15.71 7.58001C15.71 7.58001 11.19 8.02001 11.19 8.07001C11.11 7.93001 11.04 7.79001 10.96 7.66001C10.88 7.53001 10.78 7.42001 10.7 7.31001L14.36 1.64001L8.71996 5.32001C8.59914 5.20659 8.47229 5.09977 8.33996 5.00001C8.19996 5.00001 8.04996 4.88001 7.90996 4.80001L8.53996 0.290009L6.45996 4.29001L9.04996 7.00001L11.2 9.10001L11.66 9.55001L15.71 7.58001Z" fill="white"/>
</svg>
