<svg width="20" height="20" viewBox="0 0 20 20" fill="none" xmlns="http://www.w3.org/2000/svg">
<path opacity="0.5" d="M6 19H19V18H8L6 19Z" fill="white"/>
<path opacity="0.5" d="M11 15H19V14H12L11 15Z" fill="white"/>
<path opacity="0.5" d="M15 11H19V10H16L15 11Z" fill="white"/>
<path opacity="0.5" d="M10 2H1V3H9L10 2Z" fill="white"/>
<path opacity="0.5" d="M6 6H1V7H5L6 6Z" fill="white"/>
<path d="M15.681 1.21858L17.8023 3.3399C17.9898 3.52744 18.0952 3.78173 18.0952 4.04694C18.0952 4.31216 17.9898 4.56658 17.8023 4.75412L7.25228 15.3041L3.71675 11.7686L14.2668 1.21858C14.4543 1.03104 14.7086 0.925558 14.9738 0.925558C15.239 0.925558 15.4934 1.03104 15.681 1.21858Z" fill="white"/>
<path d="M5.96 16.56L2.44 13.04L0 19L5.96 16.56Z" fill="white"/>
</svg>
