<svg width="16" height="16" viewBox="0 0 16 16" fill="none" xmlns="http://www.w3.org/2000/svg">
<g clip-path="url(#clip0)">
<path fill-rule="evenodd" clip-rule="evenodd" d="M14.2901 8.22L15.8501 6.66C16.015 7.11196 16.0471 7.60166 15.9425 8.07125C15.838 8.54083 15.6012 8.97068 15.2601 9.31C14.9292 9.64451 14.5103 9.8784 14.0519 9.98459C13.5935 10.0908 13.1144 10.0649 12.6701 9.91L8.33013 14.26C8.34256 14.4904 8.30623 14.7208 8.22352 14.9362C8.1408 15.1516 8.01357 15.3471 7.85013 15.51C7.5333 15.8034 7.11513 15.9627 6.68339 15.9544C6.25164 15.9461 5.83989 15.7709 5.53454 15.4656C5.2292 15.1602 5.054 14.7485 5.04572 14.3167C5.03744 13.885 5.19672 13.4668 5.49013 13.15C5.65994 12.9823 5.8641 12.8534 6.08854 12.7723C6.31298 12.6912 6.55235 12.6597 6.79013 12.68L11.1001 8.37C10.9406 7.92058 10.9114 7.43522 11.0157 6.96989C11.1201 6.50456 11.3539 6.07821 11.6901 5.74C12.0344 5.39357 12.4723 5.15512 12.9501 5.05387C13.4279 4.95263 13.9249 4.99298 14.3801 5.17L12.8101 6.73C12.6141 6.92841 12.5042 7.19609 12.5042 7.475C12.5042 7.75392 12.6141 8.02159 12.8101 8.22C12.9039 8.32312 13.0181 8.40551 13.1455 8.46189C13.273 8.51827 13.4108 8.54739 13.5501 8.54739C13.6895 8.54739 13.8273 8.51827 13.9547 8.46189C14.0822 8.40551 14.1964 8.32312 14.2901 8.22ZM7.23013 13.78C7.08426 13.6355 6.88695 13.5548 6.6816 13.5557C6.47625 13.5567 6.27968 13.6391 6.13513 13.785C5.99059 13.9309 5.90991 14.1282 5.91085 14.3335C5.91179 14.5389 5.99426 14.7355 6.14013 14.88C6.21096 14.9529 6.29569 15.0108 6.3893 15.0504C6.48291 15.0899 6.58351 15.1103 6.68513 15.1103C6.78676 15.1103 6.88735 15.0899 6.98097 15.0504C7.07458 15.0108 7.1593 14.9529 7.23013 14.88C7.30331 14.8083 7.36144 14.7227 7.40112 14.6283C7.4408 14.5339 7.46125 14.4324 7.46125 14.33C7.46125 14.2276 7.4408 14.1262 7.40112 14.0317C7.36144 13.9373 7.30331 13.8517 7.23013 13.78Z" fill="white"/>
<path d="M0.000110524 10V9.58C-0.0271775 9.04751 0.0576024 8.51523 0.248967 8.01756C0.440332 7.5199 0.734021 7.06795 1.11104 6.69093C1.48806 6.31391 1.94001 6.02022 2.43768 5.82886C2.93534 5.63749 3.46762 5.55271 4.00011 5.58C4.5326 5.55271 5.06488 5.63749 5.56255 5.82886C6.06021 6.02022 6.51216 6.31391 6.88918 6.69093C7.2662 7.06795 7.55989 7.5199 7.75125 8.01756C7.94262 8.51523 8.0274 9.04751 8.00011 9.58V10H0.000110524ZM4.00011 0.349998C3.57488 0.349998 3.1592 0.476094 2.80563 0.712339C2.45207 0.948584 2.1765 1.28437 2.01377 1.67723C1.85104 2.07009 1.80846 2.50238 1.89142 2.91944C1.97438 3.3365 2.17915 3.71959 2.47983 4.02028C2.78051 4.32096 3.16361 4.52573 3.58067 4.60869C3.99773 4.69165 4.43002 4.64907 4.82288 4.48634C5.21574 4.32361 5.55153 4.04804 5.78777 3.69447C6.02402 3.34091 6.15011 2.92523 6.15011 2.5C6.15011 2.21766 6.0945 1.93808 5.98645 1.67723C5.8784 1.41638 5.72004 1.17936 5.52039 0.979719C5.32074 0.780073 5.08373 0.621705 4.82288 0.513657C4.56203 0.40561 4.28245 0.349998 4.00011 0.349998Z" fill="white"/>
</g>
<defs>
<clipPath id="clip0">
<rect width="16" height="16" fill="white"/>
</clipPath>
</defs>
</svg>
