<svg width="16" height="16" viewBox="0 0 16 16" fill="none" xmlns="http://www.w3.org/2000/svg">
<path fill-rule="evenodd" clip-rule="evenodd" d="M10 15.1V11.3C9.6 11.2 9.3 11 9 10.9V12H1V1H9V2.2C9.3 2 9.6 1.9 10 1.8V0.9C10 0.4 9.6 0 9.1 0H0.9C0.4 0 0 0.4 0 0.9V15C0 15.6 0.4 16 0.9 16H9C9.6 16 10 15.6 10 15.1ZM5 15.5C4.2 15.5 3.5 14.8 3.5 14C3.5 13.2 4.2 12.5 5 12.5C5.8 12.5 6.5 13.2 6.5 14C6.5 14.8 5.8 15.5 5 15.5Z" fill="white"/>
<path fill-rule="evenodd" clip-rule="evenodd" d="M15.8 7.0001C15.8 6.8001 15.9 6.6001 15.9 6.5001C15.9 6.3001 15.9 6.1001 15.8 6.0001L14.5 5.8001C14.4 5.5001 14.3 5.2001 14.2 5.0001L15 3.9001C14.8 3.6001 14.5 3.4001 14.2 3.1001L13.1 3.9001C12.8 3.7001 12.6 3.6001 12.3 3.6001L12 2.2001C11.8 2.2001 11.7 2.1001 11.5 2.1001C11.3 2.1001 11.1 2.1001 11 2.2001L10.8 3.5001C10.5 3.6001 10.2 3.7001 9.99998 3.8001L8.89998 3.1001C8.59998 3.3001 8.29998 3.6001 8.09998 3.9001L8.89998 5.0001C8.79998 5.2001 8.59998 5.5001 8.59998 5.8001L7.19998 6.0001C7.19998 6.2001 7.09998 6.4001 7.09998 6.5001C7.09998 6.7001 7.09998 6.9001 7.19998 7.0001L8.49998 7.2001C8.59998 7.5001 8.69998 7.8001 8.79998 8.0001L8.09998 9.1001C8.29998 9.4001 8.59998 9.6001 8.89998 9.9001L9.99998 9.1001C10.3 9.3001 10.5 9.4001 10.8 9.4001L11 10.7001C11.2 10.7001 11.4 10.8001 11.5 10.8001C11.7 10.8001 11.9 10.8001 12 10.7001L12.2 9.4001C12.5 9.3001 12.8 9.2001 13 9.1001L14.1 9.9001C14.4 9.7001 14.6 9.4001 14.9 9.1001L14.1 8.0001C14.3 7.7001 14.4 7.5001 14.4 7.2001L15.8 7.0001ZM11.5 8.4001C10.5 8.4001 9.59998 7.6001 9.59998 6.5001C9.59998 5.5001 10.4 4.6001 11.5 4.6001C12.6 4.6001 13.4 5.4001 13.4 6.5001C13.4 7.5001 12.5 8.4001 11.5 8.4001Z" fill="white"/>
</svg>
