<svg width="16" height="16" viewBox="0 0 16 16" fill="none" xmlns="http://www.w3.org/2000/svg">
<path fill-rule="evenodd" clip-rule="evenodd" d="M6 5H1C0.4 5 0 5.5 0 6V15C0 15.6 0.5 16 1 16H6C6.6 16 7 15.5 7 15V6C7 5.5 6.5 5 6 5ZM3.5 15.5C2.9 15.5 2.5 15.1 2.5 14.5C2.5 13.9 2.9 13.5 3.5 13.5C4.1 13.5 4.5 13.9 4.5 14.5C4.5 15.1 4.1 15.5 3.5 15.5ZM6 13H1V6H6V13Z" fill="white"/>
<path fill-rule="evenodd" clip-rule="evenodd" d="M1 0V4H2V1H15V10H8V11H16V3V0H1Z" fill="white"/>
<path opacity="0.5" fill-rule="evenodd" clip-rule="evenodd" d="M8 12.4999V13.9999C9.8 13.9999 11.7 13.9999 13.5 13.9999C9.8 11.9999 8 12.4999 8 12.4999Z" fill="white"/>
</svg>
