<svg xmlns="http://www.w3.org/2000/svg" viewBox="0 0 20 20"><defs><style>.cls-1{opacity:0.7;}.cls-2,.cls-3,.cls-4{fill:#fff;}.cls-2,.cls-4{fill-rule:evenodd;}.cls-4{opacity:0.5;}.cls-5{fill:none;}</style></defs><g id="Layer_2" data-name="Layer 2"><g id="Layer_4" data-name="Layer 4" class="cls-1"><g id="Collision"><path class="cls-2" d="M16,12a4,4,0,1,0,4,4A4,4,0,0,0,16,12Zm2.15,1.92-.07-.07A.23.23,0,0,1,18.15,13.92ZM16,19a3,3,0,1,1,1.7-5.47l-4.14,4.14.78.78,4.14-4.13A3,3,0,0,1,19,16,3,3,0,0,1,16,19Z"/><circle class="cls-3" cx="4.5" cy="4.5" r="4.3"/><path class="cls-4" d="M17,6.44l-4.41-.9,3-5.38L10.15,4.08a6.15,6.15,0,0,1,.07.75,5.38,5.38,0,0,1-5.38,5.38A5.07,5.07,0,0,1,3.38,10L0,15.05l6-2.31L8.61,17.2l1.64-5.94,2.66.46L15,11.07,12.08,8.42Z"/><rect class="cls-5" width="20" height="20"/></g></g></g></svg>