<svg width="16" height="16" viewBox="0 0 16 16" fill="none" xmlns="http://www.w3.org/2000/svg">
<g clip-path="url(#clip0)">
<path d="M7.66998 4.2L15.78 12C15.9072 12.1354 15.9781 12.3142 15.9781 12.5C15.9781 12.6858 15.9072 12.8646 15.78 13L15.03 13.76C14.8958 13.8895 14.7165 13.9619 14.53 13.9619C14.3434 13.9619 14.1642 13.8895 14.03 13.76L6.47998 5.39L7.66998 4.2Z" fill="white" fill-opacity="0.5"/>
<path d="M0.339951 5.33C0.529951 5.11 1.19995 4.75 1.43995 4.97C1.92404 4.82793 2.38052 4.60477 2.78995 4.31C3.12995 3.94 2.78995 2.8 3.08995 2.48L4.35995 1.21C4.99995 0.609996 7.22995 -0.680004 11.62 0.449996L11.53 0.999996C11.53 0.999996 8.63995 0.329996 7.07995 1.86C7.07995 1.86 6.71995 3.18 7.01995 3.57L7.18995 3.73L5.99995 4.89C5.14971 4.77317 4.28369 4.88358 3.48995 5.21C3.17995 5.5 2.85995 6.45 3.07995 6.6C3.29995 6.75 2.81995 7.41 2.59995 7.6L2.19995 7.86L0.199951 5.86L0.339951 5.33Z" fill="white"/>
<path opacity="0.5" d="M7.05012 9.05C6.40012 9.8 5.87012 10.45 5.87012 10.45L7.00012 11.58L8.41012 10.41L7.05012 9.05Z" fill="white"/>
<path opacity="0.5" d="M14.4001 2.55C14.4001 2.55 12.2801 4.19 10.5801 5.55L11.8701 6.84C13.2601 5.14 14.8701 3.02 14.8701 3.02C14.9364 2.95369 14.9736 2.86376 14.9736 2.77C14.9736 2.67623 14.9364 2.5863 14.8701 2.52C14.8038 2.45369 14.7138 2.41644 14.6201 2.41644C14.5263 2.41644 14.4364 2.45369 14.3701 2.52L14.4001 2.55Z" fill="white"/>
<path d="M6 11.88L5.29 11.08C5.29 11.08 3.42 10.77 2.72 13.3C2.27 14.92 0 16 0 16H2.81C3.43557 15.9861 4.0455 15.8018 4.57412 15.467C5.10274 15.1322 5.53003 14.6596 5.81 14.1C6.00555 13.7677 6.12412 13.3958 6.157 13.0116C6.18988 12.6274 6.13624 12.2407 6 11.88Z" fill="white"/>
</g>
<defs>
<clipPath id="clip0">
<rect width="16" height="16" fill="white"/>
</clipPath>
</defs>
</svg>
