<svg xmlns="http://www.w3.org/2000/svg" viewBox="0 0 20 20"><defs><style>.cls-1{opacity:0.7;}.cls-2,.cls-3{fill:#fff;}.cls-3{fill-rule:evenodd;opacity:0.5;}.cls-4{fill:none;}</style></defs><g id="Layer_2" data-name="Layer 2"><g id="Layer_4" data-name="Layer 4" class="cls-1"><g id="Collision"><circle class="cls-2" cx="4.5" cy="4.5" r="4.3"/><path class="cls-3" d="M17,6.44l-4.41-.9,3-5.38L10.15,4.08a6.15,6.15,0,0,1,.07.75,5.38,5.38,0,0,1-5.38,5.38A5.07,5.07,0,0,1,3.38,10L0,15.05l6-2.31L8.61,17.2l1.64-5.94,6.13,1.07-4.3-3.91Z"/><polygon class="cls-2" points="10.5 17.43 12.11 15.18 14.36 17.43 17.75 12.29 19.5 13.57 14.36 20 10.5 17.43"/><rect class="cls-4" width="20" height="20"/></g></g></g></svg>