<svg width="20" height="20" viewBox="0 0 20 20" fill="none" xmlns="http://www.w3.org/2000/svg">
<path opacity="0.5" d="M12 12H16C16.2652 12 16.5196 12.1054 16.7071 12.2929C16.8946 12.4804 17 12.7348 17 13V16C17 16.2652 16.8946 16.5196 16.7071 16.7071C16.5196 16.8946 16.2652 17 16 17H3C2.73478 17 2.48043 16.8946 2.29289 16.7071C2.10536 16.5196 2 16.2652 2 16V13C2 12.7348 2.10536 12.4804 2.29289 12.2929C2.48043 12.1054 2.73478 12 3 12H5L6 10H2C1.46957 10 0.960858 10.2107 0.585785 10.5858C0.210712 10.9609 0 11.4696 0 12V17C0 17.5304 0.210712 18.0391 0.585785 18.4142C0.960858 18.7893 1.46957 19 2 19H17C17.5304 19 18.0391 18.7893 18.4142 18.4142C18.7893 18.0391 19 17.5304 19 17V12C19 11.4696 18.7893 10.9609 18.4142 10.5858C18.0391 10.2107 17.5304 10 17 10H15L12 12Z" fill="white"/>
<path d="M6 14L14.27 3.44L11.97 1.15002L19.97 0L18.82 8L16.53 5.71002L6 14Z" fill="white"/>
<path opacity="0.5" d="M2 5C1.46957 5 0.960858 5.21074 0.585785 5.58582C0.210712 5.96089 0 6.46957 0 7V8H2C2 7.73478 2.10536 7.48044 2.29289 7.29291C2.48043 7.10537 2.73478 7 3 7H7L8 5H2Z" fill="white"/>
<path opacity="0.5" d="M2 0C1.46957 0 0.960858 0.210743 0.585785 0.585815C0.210712 0.960888 0 1.46957 0 2V3H2C2 2.73478 2.10536 2.48044 2.29289 2.29291C2.48043 2.10537 2.73478 2 3 2H9L10 0H2Z" fill="white"/>
</svg>
