<svg xmlns="http://www.w3.org/2000/svg" viewBox="0 0 20 20"><defs><style>.cls-1{opacity:0.7;}.cls-2,.cls-4{fill:#fff;}.cls-2{opacity:0.5;}.cls-3{fill:none;}</style></defs><g id="Layer_2" data-name="Layer 2"><g id="Layer_4" data-name="Layer 4" class="cls-1"><g id="ExportAll"><path class="cls-2" d="M12,12h4a1,1,0,0,1,1,1v3a1,1,0,0,1-1,1H3a1,1,0,0,1-1-1V13a1,1,0,0,1,1-1H5l1-2H2a2,2,0,0,0-2,2v5a2,2,0,0,0,2,2H17a2,2,0,0,0,2-2V12a2,2,0,0,0-2-2H15Z"/><rect class="cls-3" width="20" height="20"/><polygon class="cls-4" points="6 14 14.27 3.44 11.97 1.15 20 0 18.85 8.03 16.56 5.74 6 14"/></g></g></g></svg>