<svg width="16" height="16" viewBox="0 0 16 16" fill="none" xmlns="http://www.w3.org/2000/svg">
<path opacity="0.5" d="M13.4 13H2.6L5 8L0 15H16L11 8L13.4 13Z" fill="white"/>
<path d="M8 0C4 0 0 4.5 0 4.5C0 4.5 4 9 8 9C12 9 16 4.5 16 4.5C16 4.5 12 0 8 0ZM8 8.3C5.9 8.3 4.2 6.6 4.2 4.5C4.2 2.4 5.9 0.699997 8 0.699997C10.1 0.699997 11.8 2.4 11.8 4.5C11.8 6.6 10.1 8.3 8 8.3Z" fill="white"/>
<path fill-rule="evenodd" clip-rule="evenodd" d="M5.90005 1.80005C6.50005 1.80005 7.00005 2.30004 7.00005 2.90004C7.00005 3.50004 6.50005 4.00005 5.90005 4.00005C5.30005 4.00005 4.80005 3.50004 4.80005 2.90004C4.80005 2.30004 5.30005 1.80005 5.90005 1.80005Z" fill="white"/>
</svg>
