<svg width="16" height="16" viewBox="0 0 16 16" fill="none" xmlns="http://www.w3.org/2000/svg">
<path fill-rule="evenodd" clip-rule="evenodd" d="M12.3 8C12.2 8 11.6 8 11.5 8H6.09995C6.09995 8 2.59995 8 2.49995 8C1.89995 8 1.19995 7.80001 1.19995 7.10001C1.19995 6.60001 1.79995 5.80001 3.19995 6.10001C1.29995 3.00001 5.39995 1.2 7.29995 4.5C6.19995 2.1 7.59995 0 9.69995 0C11.4 0 13.2 1.89999 11.9 3.89999C13.2 3.59999 14.6 4.49999 14.6 5.89999C14.7 7.29999 13.7 8 12.3 8Z" fill="white"/>
<path opacity="0.5" d="M14 11H2C1.7 11 1.5 10.8 1.5 10.5C1.5 10.2 1.7 10 2 10H14C14.3 10 14.5 10.2 14.5 10.5C14.5 10.8 14.3 11 14 11Z" fill="white"/>
<path opacity="0.5" d="M14 13H2C1.7 13 1.5 12.8 1.5 12.5C1.5 12.2 1.7 12 2 12H14C14.3 12 14.5 12.2 14.5 12.5C14.5 12.8 14.3 13 14 13Z" fill="white"/>
<path opacity="0.5" d="M14 15H2C1.7 15 1.5 14.8 1.5 14.5C1.5 14.2 1.7 14 2 14H14C14.3 14 14.5 14.2 14.5 14.5C14.5 14.8 14.3 15 14 15Z" fill="white"/>
</svg>
