<svg width="16" height="16" viewBox="0 0 16 16" fill="none" xmlns="http://www.w3.org/2000/svg">
<path d="M10.43 0.999959H2.5C2.17348 0.997323 1.84967 1.05914 1.54712 1.18197C1.24457 1.30479 0.969279 1.48616 0.737 1.71566C0.50472 1.94515 0.320012 2.21833 0.193542 2.51937C0.0670734 2.82041 0.00130601 3.1434 0 3.46993V6.52999C0.00130601 6.85651 0.0670734 7.17951 0.193542 7.48055C0.320012 7.78159 0.50472 8.05477 0.737 8.28426C0.969279 8.51375 1.24457 8.69513 1.54712 8.81795C1.84967 8.94078 2.17348 9.00259 2.5 8.99996L1.5 13L5.83002 8.99996H10.5C10.8265 9.00259 11.1503 8.94078 11.4529 8.81795C11.7554 8.69513 12.0307 8.51375 12.263 8.28426C12.4953 8.05477 12.68 7.78159 12.8065 7.48055C12.9329 7.17951 12.9987 6.85651 13 6.52999V3.52999C12.9921 2.85451 12.7175 2.20946 12.2361 1.73555C11.7547 1.26165 11.1055 0.997274 10.43 0.999959V0.999959Z" fill="white"/>
<path opacity="0.5" d="M13.9999 4.05005V7.53003C13.9986 7.85655 13.9329 8.17955 13.8064 8.48059C13.6799 8.78163 13.4952 9.05481 13.2629 9.2843C13.0307 9.51379 12.7554 9.69517 12.4528 9.81799C12.1503 9.94082 11.8265 10.0026 11.4999 10H7.82996L5.66992 12H10.1699L14.4999 16L13.4999 12C13.8265 12.0026 14.1503 11.9408 14.4528 11.818C14.7554 11.6952 15.0307 11.5138 15.2629 11.2843C15.4952 11.0548 15.6799 10.7816 15.8064 10.4806C15.9329 10.1795 15.9986 9.85655 15.9999 9.53003V6.46997C15.9969 5.89779 15.7961 5.34425 15.4316 4.9032C15.0671 4.46214 14.5613 4.16079 13.9999 4.05005Z" fill="white"/>
</svg>
