<svg width="16" height="16" viewBox="0 0 16 16" fill="none" xmlns="http://www.w3.org/2000/svg">
<path d="M7.5 0.5C11.4 0.5 14.5 3.6 14.5 7.5C14.5 11.4 11.4 14.5 7.5 14.5C3.6 14.5 0.5 11.4 0.5 7.5C0.5 3.6 3.6 0.5 7.5 0.5ZM7.5 0C3.4 0 0 3.4 0 7.5C0 11.6 3.4 15 7.5 15C11.6 15 15 11.6 15 7.5C15 3.4 11.6 0 7.5 0Z" fill="white"/>
<path opacity="0.5" d="M14.8 9H0.199951C0.899951 12.4 3.89995 15 7.49995 15C11.1 15 14.2 12.4 14.8 9Z" fill="white"/>
<path d="M10.5432 2.86001L9.93701 2.51001L9.18701 3.80901L9.79321 4.15901L10.5432 2.86001Z" fill="white"/>
<path d="M5.0625 2.51011L4.4563 2.86011L5.2063 4.15911L5.8125 3.80911L5.0625 2.51011Z" fill="white"/>
<path d="M2.9136 4.47437L2.5636 5.08057L3.8626 5.83057L4.2126 5.22437L2.9136 4.47437Z" fill="white"/>
<path d="M3.43335 7.86675V7.16675H1.93335L1.93335 7.86675H3.43335Z" fill="white"/>
<path d="M13 7.1001H11.5V7.8001H13V7.1001Z" fill="white"/>
<path d="M12.5 4.5L6 8V9H8L12.5 4.5Z" fill="white"/>
<path d="M7.8001 2H7.1001V3.5H7.8001V2Z" fill="white"/>
</svg>
