<svg width="16" height="16" viewBox="0 0 16 16" fill="none" xmlns="http://www.w3.org/2000/svg">
<path opacity="0.5" fill-rule="evenodd" clip-rule="evenodd" d="M2.5 15.9999C6.2 13.9999 8 14.4999 8 14.4999C8 14.4999 9.8 13.9999 13.5 15.9999C9.8 15.9999 6.2 15.9999 2.5 15.9999Z" fill="white"/>
<path d="M15 1V12H1V1H15ZM16 0H0V13H16V0Z" fill="white"/>
<path fill-rule="evenodd" clip-rule="evenodd" d="M13.4001 6.00005C12.9001 4.70005 11.9001 2.30005 10.9001 2.30005C9.40007 2.30005 9.40007 3.70005 8.80007 3.70005C8.50007 3.70005 7.40007 3.70005 7.00007 3.70005C6.40007 3.70005 6.40007 2.30005 5.00007 2.30005C4.00007 2.30005 3.00007 4.60005 2.50007 6.00005C1.70007 8.50005 1.60007 9.70005 3.40007 9.70005C5.40007 9.70005 5.40007 7.40005 7.90007 7.40005C10.4001 7.40005 10.5001 9.70005 12.4001 9.70005C14.3001 9.70005 14.3001 8.50005 13.4001 6.00005ZM7.00007 6.00005H6.00007V7.00005H5.00007V6.00005H4.00007V5.00005H5.00007V4.00005H6.00007V5.00005H7.00007V6.00005ZM10.5001 7.20005C9.60007 7.20005 8.80007 6.50005 8.80007 5.50005C8.80007 4.60005 9.50007 3.80005 10.5001 3.80005C11.5001 3.80005 12.2001 4.50005 12.2001 5.50005C12.2001 6.40005 11.4001 7.20005 10.5001 7.20005Z" fill="white"/>
<path fill-rule="evenodd" clip-rule="evenodd" d="M10.5 5C10.2 5 10 5.2 10 5.5C10 5.8 10.2 6 10.5 6C10.8 6 11 5.8 11 5.5C11 5.2 10.8 5 10.5 5Z" fill="white"/>
</svg>
