<svg width="16" height="16" viewBox="0 0 16 16" fill="none" xmlns="http://www.w3.org/2000/svg">
<path opacity="0.5" d="M12.2 2H9.9H9.1H6.9H6.1H3.8H3L0 14H1.2H4.9H6.2H9.8H11.1H14.8H16L13 2H12.2Z" fill="white"/>
<path d="M12.2 2H9.9H9.1H6.9H6.1H3.8H3L0 14H1.2H4.9H6.1H9.8H11H14.7H16L13 2H12.2ZM9.2 2.60001L9.3 4.60001H6.7L6.8 2.60001H9.2ZM9.3 5.39999L9.5 8H6.5L6.7 5.39999H9.3ZM3.7 2.60001H6L5.8 4.60001H3.2L3.7 2.60001ZM3.1 5.39999H5.8L5.5 8H2.5L3.1 5.39999ZM1.5 12.6L2.3 9H5.4L5.1 12.6H1.5ZM6.2 12.6L6.4 9H9.5L9.7 12.6H6.2ZM14.5 12.6H11L10.7 9H13.8L14.5 12.6ZM13.5 8H10.5L10.2 5.39999H12.9L13.5 8ZM12.8 4.60001H10.2L10 2.60001H12.4L12.8 4.60001Z" fill="white"/>
</svg>
