<svg width="16" height="16" viewBox="0 0 16 16" fill="none" xmlns="http://www.w3.org/2000/svg">
<path opacity="0.5" d="M11.4999 0.500007C10.7457 0.498592 10.0064 0.71045 9.36744 1.11114C8.72843 1.51183 8.21574 2.08502 7.88851 2.76457C7.56128 3.44413 7.43284 4.20235 7.51803 4.95176C7.60321 5.70117 7.89854 6.41123 8.36994 7.00001L9.16994 6.40001C8.77937 5.9265 8.54344 5.34458 8.49398 4.73277C8.44453 4.12096 8.58393 3.5087 8.89339 2.97861C9.20284 2.44852 9.66744 2.0261 10.2245 1.76836C10.7816 1.51062 11.4043 1.42996 12.0087 1.53726C12.613 1.64456 13.1699 1.93466 13.6042 2.36841C14.0385 2.80217 14.3293 3.3587 14.4374 3.96292C14.5454 4.56714 14.4656 5.18996 14.2085 5.74736C13.9515 6.30475 13.5296 6.76989 12.9999 7.08001V8.20001C13.8553 7.84866 14.5626 7.21179 15.0013 6.39775C15.4401 5.58371 15.5832 4.6428 15.4064 3.73512C15.2296 2.82743 14.7437 2.00905 14.0315 1.41923C13.3193 0.829404 12.4247 0.504573 11.4999 0.500007Z" fill="white"/>
<path d="M11 6C11 6.66304 10.7366 7.29893 10.2678 7.76777C9.79893 8.23661 9.16304 8.5 8.5 8.5C7.83696 8.5 7.20107 8.23661 6.73223 7.76777C6.26339 7.29893 6 6.66304 6 6V3H1.46C1.07359 3.00262 0.703757 3.15728 0.430519 3.43052C0.157282 3.70376 0.0026198 4.07359 0 4.46L0 14.54C0.0026198 14.9264 0.157282 15.2962 0.430519 15.5695C0.703757 15.8427 1.07359 15.9974 1.46 16H10.54C10.9264 15.9974 11.2962 15.8427 11.5695 15.5695C11.8427 15.2962 11.9974 14.9264 12 14.54V4.46C11.9979 4.15324 11.9006 3.85471 11.7214 3.6057C11.5423 3.35668 11.2902 3.16948 11 3.07V6ZM10 13H2V12H10V13ZM10 11H2V10H10V11Z" fill="white"/>
</svg>
