<svg width="16" height="16" viewBox="0 0 16 16" fill="none" xmlns="http://www.w3.org/2000/svg">
<g clip-path="url(#clip0_8449:15139)">
<path d="M8.70582 1.23168L3.30031 6.63719C3.13445 6.80305 3.13445 7.07195 3.30031 7.23781L8.70582 12.6433C8.87167 12.8092 9.14058 12.8092 9.30643 12.6433L14.7119 7.23781C14.8778 7.07195 14.8778 6.80305 14.7119 6.63719L9.30643 1.23168C9.14058 1.06583 8.87167 1.06583 8.70582 1.23168Z" stroke="white" stroke-width="0.849395"/>
<path d="M5.65874 8.63413V5.23655H9.00536V1.49072L8.3853 1.61813L6.45718 3.53776L4.75839 5.23655H4.80935L3.55225 6.49366L3.63719 7.46197L5.65874 9.48353L8.20693 12.0317H9.05632V8.63413H5.65874Z" fill="white"/>
<path d="M1.97091 13.1255L-2 17.0964L-1.09636 18L2.87455 14.0164L4.66909 15.8236L5 11L0.176364 11.3182L1.97091 13.1255Z" fill="white"/>
</g>
<defs>
<clipPath id="clip0_8449:15139">
<rect width="16" height="16" fill="white"/>
</clipPath>
</defs>
</svg>
