<svg width="16" height="16" viewBox="0 0 16 16" fill="none" xmlns="http://www.w3.org/2000/svg">
<path opacity="0.5" fill-rule="evenodd" clip-rule="evenodd" d="M15 15L13 11L16 15V16H0V15L3 11L1 15H15Z" fill="white"/>
<path d="M9 13L6.5 6L3 14H13L10.5 9L9 13Z" fill="white"/>
<path d="M12 0C11.2089 0 10.4355 0.234596 9.77772 0.674122C9.11993 1.11365 8.60723 1.73836 8.30448 2.46927C8.00173 3.20017 7.92252 4.00444 8.07686 4.78036C8.2312 5.55629 8.61216 6.26902 9.17157 6.82843C9.73098 7.38784 10.4437 7.7688 11.2196 7.92314C11.9956 8.07748 12.7998 7.99827 13.5307 7.69552C14.2616 7.39277 14.8864 6.88008 15.3259 6.22228C15.7654 5.56448 16 4.79113 16 4C16 2.93913 15.5786 1.92172 14.8284 1.17157C14.0783 0.421427 13.0609 0 12 0V0ZM12 7.11C11.3849 7.11 10.7836 6.9276 10.2722 6.58587C9.76074 6.24414 9.36213 5.75842 9.12674 5.19015C8.89135 4.62187 8.82976 3.99655 8.94976 3.39327C9.06976 2.78999 9.36596 2.23584 9.8009 1.8009C10.2358 1.36596 10.79 1.06976 11.3933 0.949758C11.9966 0.829758 12.6219 0.891346 13.1901 1.12673C13.7584 1.36212 14.2441 1.76074 14.5859 2.27218C14.9276 2.78361 15.11 3.3849 15.11 4C15.11 4.82482 14.7823 5.61586 14.1991 6.1991C13.6159 6.78234 12.8248 7.11 12 7.11Z" fill="white"/>
<path d="M13.7801 4.89H11.1101V2.22H12.0001V4H13.7801V4.89Z" fill="white"/>
</svg>
