<svg width="16" height="16" viewBox="0 0 16 16" fill="none" xmlns="http://www.w3.org/2000/svg">
<path d="M5.55 5L6.55 3.5L7.25 5H11V0H3V5H5.55ZM8 1H10V4H8V1Z" fill="white"/>
<path opacity="0.5" fill-rule="evenodd" clip-rule="evenodd" d="M15 15L13 11L16 15V16H0V15L3 11L1 15H15Z" fill="white"/>
<path d="M9 13L6.5 6L3 14H13L10.5 9L9 13Z" fill="white"/>
<path opacity="0.5" d="M5.54 5H3V0H1V10.95L2.16 8.58L3 9L5.54 5Z" fill="white"/>
<path opacity="0.5" d="M7.25 5L8.74 8H9.47L10.68 6.63L14 9.98V2L12 0H11V5H7.25Z" fill="white"/>
</svg>
