<svg xmlns="http://www.w3.org/2000/svg" viewBox="0 0 16 16"><defs><style>.cls-1{fill:#fff;}.cls-2{fill:none;}</style></defs><g id="Layer_2" data-name="Layer 2"><g id="Layer_6" data-name="Layer 6"><g id="LightBulbOffSolid"><path class="cls-1" d="M8,1a4.19,4.19,0,0,1,4,3.94A3.89,3.89,0,0,1,10.45,7.7,5,5,0,0,0,9.13,10H6.87a4.91,4.91,0,0,0-1.3-2.28A4.19,4.19,0,0,1,4,4.94,4.19,4.19,0,0,1,8,1M8,0A5.15,5.15,0,0,0,3,4.94H3A5.09,5.09,0,0,0,4.86,8.43,3.79,3.79,0,0,1,6,11h4a3.8,3.8,0,0,1,1.14-2.57A4.92,4.92,0,0,0,13,4.94h0A5.15,5.15,0,0,0,8,0Z"/><rect class="cls-2" width="16" height="16"/><rect class="cls-1" x="6" y="12" width="4" height="2"/><polygon class="cls-1" points="9 16 7 16 6 15 10 15 9 16"/></g></g></g></svg>