<svg width="16" height="16" viewBox="0 0 16 16" fill="none" xmlns="http://www.w3.org/2000/svg">
<path d="M8 1C10.3 1 12 3.1 12 4.9C12 5.8 11.5 6.7 10.5 7.7C9.9 8.2 9.4 9.1 9.1 10H6.9C6.7 9.2 6.2 8.4 5.6 7.7C4.8 6.9 4 6 4 4.9C4 3.1 5.7 1 8 1ZM8 0C5.2 0 3 2.5 3 4.9C3 6.3 3.9 7.4 4.9 8.4C5.5 9 6 10 6 11H10C10 10 10.6 9 11.1 8.4C12.1 7.4 13 6.3 13 4.9C13 2.5 10.8 0 8 0Z" fill="white"/>
<path opacity="0.5" d="M10 12H6V14H10V12Z" fill="white"/>
<path opacity="0.5" d="M8.8 16H7.2L6.5 15H9.5L8.8 16Z" fill="white"/>
</svg>
