<svg width="16" height="16" viewBox="0 0 16 16" fill="none" xmlns="http://www.w3.org/2000/svg">
<path d="M16 7H10V9H16V7Z" fill="white"/>
<path d="M16 4H10V6H16V4Z" fill="white"/>
<path d="M16 1H10V3H16V1Z" fill="white"/>
<path d="M2.2 9.5C2.2 9.6 2.2 9.79999 2.2 9.89999H0V9H2.2C2.2 9.2 2.2 9.4 2.2 9.5Z" fill="white"/>
<path d="M9.79995 12.2L11.4 13.7999L10.8 14.3999L9.19995 12.7999C9.49995 12.6999 9.69995 12.5 9.79995 12.2Z" fill="white"/>
<path d="M6.49998 13.8C6.59998 13.8 6.79998 13.8 6.89998 13.8V16.0001H6.09998V13.8C6.19998 13.8 6.39998 13.8 6.49998 13.8Z" fill="white"/>
<path d="M3.79998 12.7999L2.19998 14.3999L1.59998 13.7999L3.19998 12.2C3.29998 12.5 3.49998 12.6999 3.79998 12.7999Z" fill="white"/>
<path d="M3.19998 6.80008L1.59998 5.2001L2.19998 4.6001L3.79998 6.2001C3.49998 6.3001 3.29998 6.50008 3.19998 6.80008Z" fill="white"/>
<path d="M6.49998 5.20001C6.39998 5.20001 6.19998 5.20001 6.09998 5.20001V3H6.99998V5.20001C6.79998 5.20001 6.59998 5.20001 6.49998 5.20001Z" fill="white"/>
<path d="M6.50005 11.7001C7.71508 11.7001 8.70005 10.7151 8.70005 9.50006C8.70005 8.28503 7.71508 7.30005 6.50005 7.30005C5.28502 7.30005 4.30005 8.28503 4.30005 9.50006C4.30005 10.7151 5.28502 11.7001 6.50005 11.7001Z" fill="white"/>
</svg>
