<svg width="16" height="16" viewBox="0 0 16 16" fill="none" xmlns="http://www.w3.org/2000/svg">
<path d="M6.50005 11.7C7.71508 11.7 8.70005 10.7151 8.70005 9.50005C8.70005 8.28502 7.71508 7.30005 6.50005 7.30005C5.28502 7.30005 4.30005 8.28502 4.30005 9.50005C4.30005 10.7151 5.28502 11.7 6.50005 11.7Z" fill="white"/>
<path d="M2.2 9.5001C2.2 9.6001 2.2 9.8001 2.2 9.9001H0V9.1001H2.2C2.2 9.2001 2.2 9.4001 2.2 9.5001Z" fill="white"/>
<path d="M9.79995 12.2L11.4 13.8L10.8 14.4L9.19995 12.8C9.49995 12.7 9.69995 12.5 9.79995 12.2Z" fill="white"/>
<path d="M6.49998 13.8C6.59998 13.8 6.79998 13.8 6.89998 13.8V16H6.09998V13.8C6.19998 13.8 6.39998 13.8 6.49998 13.8Z" fill="white"/>
<path d="M3.79998 12.8L2.19998 14.4L1.59998 13.8L3.19998 12.2C3.29998 12.5 3.49998 12.7 3.79998 12.8Z" fill="white"/>
<path d="M3.19998 6.8001L1.59998 5.2001L2.19998 4.6001L3.79998 6.2001C3.49998 6.3001 3.29998 6.5001 3.19998 6.8001Z" fill="white"/>
<path d="M6.49998 5.2C6.39998 5.2 6.19998 5.2 6.09998 5.2V3H6.99998V5.2C6.79998 5.2 6.59998 5.2 6.49998 5.2Z" fill="white"/>
<path d="M15 10H10V8V4H11C11.6 4 12 4.4 12 5V6.5C12 7.3 12.7 8 13.5 8H15V10Z" fill="white"/>
<path d="M10 1V3H11.5C12.3 3 13 3.7 13 4.5V6C13 6.6 13.4 7 14 7H15V1H10Z" fill="white"/>
</svg>
