<svg width="16" height="16" viewBox="0 0 16 16" fill="none" xmlns="http://www.w3.org/2000/svg">
<path opacity="0.5" d="M8 0.5C3.9 0.5 0.5 3.9 0.5 8C0.5 12.1 3.9 15.5 8 15.5C12.1 15.5 15.5 12.1 15.5 8C15.5 3.9 12.1 0.5 8 0.5Z" fill="white"/>
<path d="M8.5 13.4C5.2 13.4 2.5 10.7 2.5 7.4C2.5 4.2 5 1.6 8.2 1.5C8.1 1.5 8 1.5 7.9 1.5C4.4 1.5 1.5 4.4 1.5 8C1.5 11.6 4.4 14.5 8 14.5C11.6 14.5 14.5 11.6 14.5 8C14.5 7.9 14.5 7.8 14.5 7.7C14.3 10.9 11.7 13.4 8.5 13.4Z" fill="white"/>
<path d="M10.6 6.8999C11.4284 6.8999 12.1 6.22833 12.1 5.3999C12.1 4.57148 11.4284 3.8999 10.6 3.8999C9.77155 3.8999 9.09998 4.57148 9.09998 5.3999C9.09998 6.22833 9.77155 6.8999 10.6 6.8999Z" fill="white"/>
</svg>
