<svg width="16" height="16" viewBox="0 0 16 16" fill="none" xmlns="http://www.w3.org/2000/svg">
<path d="M8 9C9.65685 9 11 7.65685 11 6C11 4.34315 9.65685 3 8 3C6.34315 3 5 4.34315 5 6C5 7.65685 6.34315 9 8 9Z" fill="white"/>
<path opacity="0.5" d="M15.5 6C15.5008 6.98483 15.3068 7.96009 14.9292 8.86968C14.5517 9.77926 13.998 10.6052 13.3 11.3L11.79 9.79C12.7951 8.78481 13.3598 7.42151 13.3598 6C13.3598 4.57848 12.7951 3.21518 11.79 2.21L13.3 0.699997C13.998 1.39479 14.5517 2.22073 14.9292 3.13032C15.3068 4.0399 15.5008 5.01516 15.5 6ZM2.64 6C2.63893 5.29596 2.77709 4.59866 3.04653 3.94822C3.31598 3.29778 3.71138 2.70704 4.21 2.21L2.7 0.699997C2.00216 1.39498 1.44844 2.22092 1.07061 3.13044C0.692786 4.03995 0.498291 5.01513 0.498291 6C0.498291 6.98487 0.692786 7.96004 1.07061 8.86956C1.44844 9.77907 2.00216 10.605 2.7 11.3L4.21 9.79C3.71138 9.29295 3.31598 8.70221 3.04653 8.05177C2.77709 7.40134 2.63893 6.70404 2.64 6Z" fill="white"/>
<path d="M9 10H7V16H9V10Z" fill="white"/>
</svg>
