<svg xmlns="http://www.w3.org/2000/svg" viewBox="0 0 20 20"><defs><style>.cls-1{opacity:0.7;}.cls-2,.cls-3,.cls-4{fill:#fff;}.cls-2,.cls-4{fill-rule:evenodd;}.cls-2{opacity:0.5;}.cls-5{fill:none;}</style></defs><g id="Layer_2" data-name="Layer 2"><g id="Layer_4" data-name="Layer 4" class="cls-1"><polygon class="cls-2" points="4 16 10 20 10 15 4 11 4 16"/><polygon class="cls-2" points="20 9.18 11 15 11 20 20 13.54 20 9.18"/><path class="cls-3" d="M13.61,4.75,4.5,9.69l6,4,9.11-5.94Zm0,1.13,4,2L14.35,10,10.62,7.51Zm-7.2,3.9,3.2-1.73,3.81,2.54L10.51,12.5Z"/><path class="cls-4" d="M7.07.16,11,3.47,7.07,6.79V4.56C3.39,4.56.79,6.22,0,10.93,0,4.65,3.52,2.35,7.07,2.35Z"/><rect class="cls-5" width="20" height="20"/></g></g></svg>