<svg width="16" height="16" viewBox="0 0 16 16" fill="none" xmlns="http://www.w3.org/2000/svg">
<path d="M7 0C3.1 0 0 3.1 0 7C0 10.9 3.1 14 7 14C8.5 14 9.9 13.5 11 12.7V11.4C9.9 12.4 8.5 12.9 7 12.9C3.7 12.9 1 10.2 1 6.89999C1 3.59999 3.7 0.899994 7 0.899994C10.3 0.899994 13 3.59999 13 6.89999H14C14 3.09999 10.9 0 7 0Z" fill="white"/>
<path opacity="0.5" d="M7 3V0.5C8.5 0.5 9.9 0.999994 11 1.89999V3H7ZM7 11H11V7H7V11ZM7 3H3V7H7V3ZM13.5 7C13.5 5.5 13 4.1 12.1 3H11V7H13.5ZM3 12.1C4.1 13 5.5 13.5 7 13.5V11H3V12.1ZM0.5 7C0.5 8.5 1 9.9 1.9 11H3V7H0.5ZM1.9 3H3V1.89999C2.6 2.19999 2.2 2.6 1.9 3Z" fill="white"/>
<path fill-rule="evenodd" clip-rule="evenodd" d="M15 10H13V8H15V10ZM15 15V11H14H13H12V12H13V15H12V16H13H15H16V15H15Z" fill="white"/>
</svg>
