<svg width="16" height="16" viewBox="0 0 16 16" fill="none" xmlns="http://www.w3.org/2000/svg">
<path d="M5.89996 5.39992C5.69996 5.89992 5.09996 6.09992 4.59996 5.89992C4.09996 5.69992 3.89996 5.09992 4.09996 4.59992C4.29996 4.09992 4.89996 3.79992 5.39996 4.09992C5.89996 4.29992 6.09996 4.89992 5.89996 5.39992Z" fill="white"/>
<path d="M8.6 4.5L10 3.6C9.9 3.2 9.7 2.8 9.5 2.4L7.9 2.8C7.7 2.5 7.5 2.3 7.2 2.1L7.6 0.5C7.4 0.4 7.2 0.3 7 0.2C6.8 0.1 6.6 0.1 6.4 0L5.5 1.4C5.1 1.3 4.8 1.3 4.4 1.4L3.6 0C3.2 0.1 2.8 0.3 2.4 0.5L2.8 2.1C2.5 2.3 2.3 2.5 2.1 2.8L0.5 2.4C0.4 2.6 0.3 2.8 0.2 3C0.1 3.2 0.1 3.4 0 3.6L1.4 4.4C1.3 4.8 1.3 5.1 1.4 5.5L0 6.4C0.1 6.8 0.3 7.2 0.5 7.6L2.1 7.2C2.3 7.5 2.6 7.7 2.9 8L2.4 9.5C2.6 9.6 2.8 9.7 3 9.8C3.2 9.9 3.4 9.9 3.6 10L4.4 8.6C4.8 8.7 5.1 8.7 5.5 8.6L6.4 10C6.8 9.9 7.2 9.7 7.6 9.5L7.2 7.9C7.5 7.7 7.8 7.4 8 7.1L9.6 7.5C9.6 7.4 9.7 7.2 9.8 7C9.9 6.8 9.9 6.6 10 6.4L8.6 5.5C8.7 5.2 8.7 4.8 8.6 4.5ZM7.5 6C6.9 7.4 5.3 8.1 3.9 7.5C2.6 6.9 1.9 5.3 2.5 4C3 2.6 4.6 1.9 6 2.5C7.4 3.1 8.1 4.6 7.5 6Z" fill="white"/>
<path opacity="0.5" d="M12 11C11.7 10.7 11.2 10.7 11 11C10.7 11.3 10.7 11.8 11 12C11.3 12.3 11.8 12.3 12 12C12.3 11.7 12.3 11.3 12 11ZM11.8 11.8C11.6 12 11.3 12 11.1 11.8C10.9 11.6 10.9 11.3 11.1 11.1C11.3 10.9 11.6 10.9 11.8 11.1C12 11.3 12 11.6 11.8 11.8ZM15.5 12C15.5 11.7 15.5 11.3 15.5 11L14.3 10.8C14.2 10.5 14.1 10.3 14 10L14.7 9C14.6 8.9 14.5 8.7 14.4 8.6C14.3 8.5 14.1 8.4 14 8.3L13 9C12.8 8.9 12.5 8.7 12.2 8.7L12 7.5C11.7 7.5 11.3 7.5 11 7.5L10.8 8.7C10.5 8.8 10.3 8.9 10 9L9 8.3C8.9 8.4 8.8 8.5 8.7 8.7C8.5 8.8 8.5 8.9 8.3 9L9 10C8.9 10.2 8.8 10.5 8.7 10.8L7.5 11C7.5 11.3 7.5 11.7 7.5 12L8.7 12.2C8.8 12.5 8.9 12.7 9 13L8.3 14C8.4 14.1 8.5 14.3 8.6 14.4C8.7 14.5 8.9 14.6 9 14.7L10 14C10.2 14.1 10.5 14.3 10.8 14.3L11 15.5C11.3 15.5 11.7 15.5 12 15.5L12.2 14.3C12.5 14.2 12.7 14.1 13 14L14 14.7C14.1 14.6 14.3 14.5 14.4 14.4C14.5 14.3 14.6 14.1 14.7 14L14 13C14.1 12.8 14.3 12.5 14.3 12.2L15.5 12ZM13.1 13.1C12.2 14 10.8 14 10 13.1C9.1 12.2 9.1 10.8 10 10C10.9 9.1 12.3 9.1 13.1 10C13.9 10.9 13.9 12.2 13.1 13.1Z" fill="white"/>
<path d="M5.79998 14.0001C5.79998 14.0001 5.79998 13.9001 5.89998 13.9001L6.49998 13.7001V12.4001L5.89998 12.2001C5.79998 12.1001 5.79998 12.0001 5.69998 11.9001L5.79998 11.2001L4.59998 10.6001L4.09998 11.0001C3.99998 11.0001 3.89998 11.0001 3.79998 11.0001L3.29998 10.6001L2.19998 11.3001L2.39998 12.0001L2.29998 12.1001C2.29998 12.1001 2.29998 12.2001 2.19998 12.2001L1.59998 12.4001V13.7001L2.19998 13.9001C2.29998 14.0001 2.29998 14.1001 2.39998 14.2001L2.29998 14.9001L3.49998 15.5001L3.89998 15.0001C3.99998 15.0001 4.09998 15.0001 4.19998 15.0001L4.69998 15.4001L5.79998 14.7001L5.59998 14.0001C5.69998 14.0001 5.79998 14.0001 5.79998 14.0001ZM3.49998 14.0001C2.99998 13.7001 2.69998 13.0001 2.99998 12.5001C3.29998 12.0001 3.99998 11.7001 4.49998 12.0001C4.99998 12.3001 5.29998 13.0001 4.99998 13.5001C4.69998 14.1001 3.99998 14.3001 3.49998 14.0001Z" fill="white"/>
</svg>
