<svg width="16" height="16" viewBox="0 0 16 16" fill="none" xmlns="http://www.w3.org/2000/svg">
<path d="M0 10V9.09998C0 6.59998 1.8 5.09998 4 5.09998C6.2 5.09998 8 6.59998 8 9.09998V10H0ZM4 0.5C2.8 0.5 1.8 1.50001 1.8 2.70001C1.8 3.90001 2.8 4.90002 4 4.90002C5.2 4.90002 6.2 3.90001 6.2 2.70001C6.2 1.40001 5.2 0.5 4 0.5Z" fill="white"/>
<path opacity="0.5" d="M9 10.0001V9.30005C9 7.40005 10.3 6.30005 12 6.30005C13.6 6.30005 15 7.40005 15 9.30005V10.0001H9ZM12 2.80005C11.1 2.80005 10.4 3.50009 10.4 4.40009C10.4 5.30009 11.1 6.00006 12 6.00006C12.9 6.00006 13.6 5.30009 13.6 4.40009C13.6 3.50009 12.9 2.80005 12 2.80005Z" fill="white"/>
<path d="M15 15H0V14H4V11H5V14H11V11H12V14H15V15Z" fill="white"/>
</svg>
