<svg width="16" height="16" viewBox="0 0 16 16" fill="none" xmlns="http://www.w3.org/2000/svg">
<path opacity="0.5" fill-rule="evenodd" clip-rule="evenodd" d="M13.93 3H8.27L5.93 0.369999C5.83211 0.255808 5.71104 0.163758 5.57483 0.0999641C5.43862 0.0361703 5.29039 0.00209463 5.14 0H1C0.734784 0 0.480429 0.105356 0.292892 0.292892C0.105356 0.480429 0 0.734784 0 1V3V12.92C0.00379112 13.1003 0.0535362 13.2767 0.144531 13.4325C0.235526 13.5882 0.364758 13.7182 0.519997 13.81L3.29 10.21L1.13 7H10V14H13.88C14.0245 14.0027 14.168 13.9768 14.3025 13.924C14.437 13.8711 14.5597 13.7923 14.6637 13.692C14.7677 13.5917 14.851 13.4719 14.9087 13.3395C14.9664 13.207 14.9974 13.0645 15 12.92V4C15.0003 3.86257 14.9723 3.72655 14.9178 3.60043C14.8632 3.4743 14.7832 3.36078 14.6828 3.26694C14.5824 3.17311 14.4637 3.10098 14.3342 3.05505C14.2047 3.00912 14.0671 2.99038 13.93 3Z" fill="white"/>
<path d="M6.91986 11.71L1.79986 15.68L1.35986 15.2L5.54986 10.27L3.78986 8.58L8.99986 8L8.41986 13.38L6.91986 11.71Z" fill="white"/>
</svg>
