<svg xmlns="http://www.w3.org/2000/svg" viewBox="0 0 20 20"><defs><style>.cls-1{opacity:0.7;}.cls-2,.cls-3{fill:#fff;}.cls-2{opacity:0.5;}.cls-4{fill:none;}</style></defs><g id="Layer_2" data-name="Layer 2"><g id="Layer_4" data-name="Layer 4" class="cls-1"><path class="cls-2" d="M9.34,13.11,7.83,11.6s2.4-2.95,3.83-4.38S19.2,1.07,19.2,1.07a.47.47,0,0,1,.66,0h0a.45.45,0,0,1,0,.66S15.1,7.88,13.67,9.31,9.34,13.11,9.34,13.11Z"/><path class="cls-3" d="M8,13.51l-.94-1.07s-2.5-.41-3.44,3C3,17.56,0,19,0,19H3.75a4.58,4.58,0,0,0,4-2.53A3.45,3.45,0,0,0,8,13.51Z"/><rect class="cls-4" width="20" height="20"/></g></g></svg>