<svg width="16" height="16" viewBox="0 0 16 16" fill="none" xmlns="http://www.w3.org/2000/svg">
<path fill-rule="evenodd" clip-rule="evenodd" d="M10.6999 7.7C10.3999 6.7 10.5999 5.6 11.2999 4.8C12.0999 4 13.1999 3.8 14.1999 4.2L12.4999 5.9C12.0999 6.3 12.0999 7.1 12.4999 7.5C12.8999 7.9 13.6999 7.9 14.0999 7.5L15.7999 5.8C16.1999 6.8 15.8999 7.9 15.1999 8.7C14.3999 9.5 13.2999 9.7 12.3999 9.4L10.6999 7.7Z" fill="white"/>
<path opacity="0.5" d="M11.6 9.9999L7.30005 14.2999C7.30005 14.6999 7.20005 15.1999 6.80005 15.4999C6.20005 16.0999 5.10005 16.0999 4.50005 15.4999C3.90005 14.8999 3.90005 13.7999 4.50005 13.1999C4.90005 12.7999 5.30005 12.6999 5.80005 12.6999L10.1 8.3999L11.6 9.9999ZM6.20005 13.7999C5.90005 13.4999 5.40005 13.4999 5.10005 13.7999C4.80005 14.0999 4.80005 14.5999 5.10005 14.8999C5.40005 15.1999 5.90005 15.1999 6.20005 14.8999C6.50005 14.5999 6.50005 14.0999 6.20005 13.7999Z" fill="white"/>
<path d="M8 8H0V9H8V8Z" fill="white"/>
<path d="M8 6H0V7H8V6Z" fill="white"/>
<path d="M8 4H0V5H8V4Z" fill="white"/>
<path d="M8 2H0V3H8V2Z" fill="white"/>
<path d="M8 0H0V1H8V0Z" fill="white"/>
</svg>
