<svg width="16" height="16" viewBox="0 0 16 16" fill="none" xmlns="http://www.w3.org/2000/svg">
<path d="M8.5 9.85C8.66652 9.84009 8.83348 9.84009 9 9.85V9.35C8.83523 9.382 8.66785 9.39874 8.5 9.4C7.77462 9.35698 7.09307 9.0385 6.59469 8.50968C6.09631 7.98087 5.81875 7.28166 5.81875 6.555C5.81875 5.82834 6.09631 5.12913 6.59469 4.60032C7.09307 4.0715 7.77462 3.75302 8.5 3.71C8.66816 3.71455 8.83554 3.73464 9 3.77V0L0 3V13L3.56 14.19C3.65732 12.9662 4.22762 11.8285 5.1499 11.0182C6.07218 10.208 7.27387 9.78892 8.5 9.85Z" fill="white"/>
<path opacity="0.5" d="M10 0.5V4.15C10.4183 4.40163 10.7644 4.75718 11.0046 5.1821C11.2449 5.60702 11.3711 6.08686 11.3711 6.575C11.3711 7.06314 11.2449 7.54298 11.0046 7.9679C10.7644 8.39282 10.4183 8.74837 10 9V10.1C10.8295 10.3089 11.5836 10.747 12.176 11.3641C12.7683 11.9813 13.1752 12.7526 13.35 13.59L16 12V4L10 0.5Z" fill="white"/>
</svg>
