<svg width="16" height="16" viewBox="0 0 16 16" fill="none" xmlns="http://www.w3.org/2000/svg">
<g clip-path="url(#clip0)">
<path fill-rule="evenodd" clip-rule="evenodd" d="M7.93 10.8L0 5.60001V10.8L7.93 16V10.8Z" fill="white"/>
<path opacity="0.5" d="M16 5.60001L9 10.8V16L16 10.8V5.60001Z" fill="white"/>
<path fill-rule="evenodd" clip-rule="evenodd" d="M12.7699 5.00001C12.797 4.82448 12.8137 4.64751 12.8199 4.47001C12.8115 4.31258 12.7948 4.1557 12.7699 4.00001L11.4399 3.80001C11.3695 3.50291 11.2513 3.21922 11.0899 2.96001L11.8999 1.88001C11.6773 1.60067 11.4222 1.34889 11.1399 1.13001L10.0599 1.93001C9.79816 1.77602 9.51512 1.66145 9.21993 1.59001L8.99993 0.230013C8.83443 0.201242 8.66754 0.181214 8.49993 0.170013C8.33231 0.181045 8.1654 0.201074 7.99993 0.230013L7.79993 1.56001C7.51069 1.63519 7.23431 1.75316 6.97993 1.91001L5.84993 1.10001C5.57059 1.32261 5.31881 1.57775 5.09993 1.86001L5.89993 3.00001C5.74432 3.25384 5.62958 3.53055 5.55993 3.82001L4.22993 4.00001C4.20337 4.17896 4.18668 4.35923 4.17993 4.54001C4.18939 4.69404 4.20607 4.84755 4.22993 5.00001L5.55993 5.19001C5.62958 5.47948 5.74432 5.75619 5.89993 6.01001L5.09993 7.14001C5.31881 7.42228 5.57059 7.67741 5.84993 7.90001L6.93993 7.09001C7.19329 7.24883 7.46998 7.36693 7.75993 7.44001L7.99993 8.77001C8.17862 8.80043 8.35892 8.82047 8.53993 8.83001C8.69415 8.81747 8.84766 8.79745 8.99993 8.77001L9.18993 7.44001C9.48512 7.36858 9.76816 7.25401 10.0299 7.10001L11.1099 7.90001C11.3922 7.68113 11.6473 7.42935 11.8699 7.15001L11.0599 6.07001C11.2213 5.81081 11.3395 5.52711 11.4099 5.23001L12.7699 5.00001ZM8.49993 6.38001C8.12768 6.38199 7.76323 6.27342 7.45275 6.06805C7.14227 5.86268 6.89975 5.56976 6.75592 5.22641C6.6121 4.88307 6.57344 4.50475 6.64484 4.13941C6.71625 3.77407 6.89451 3.43815 7.15703 3.17423C7.41955 2.9103 7.75451 2.73026 8.11947 2.6569C8.48442 2.58355 8.86294 2.62019 9.20705 2.76218C9.55116 2.90418 9.84536 3.14513 10.0524 3.45451C10.2594 3.76389 10.3699 4.12776 10.3699 4.50001C10.3699 4.99689 10.1732 5.47357 9.82283 5.82585C9.47242 6.17813 8.9968 6.37737 8.49993 6.38001Z" fill="white"/>
</g>
<defs>
<clipPath id="clip0">
<rect width="16" height="16" fill="white"/>
</clipPath>
</defs>
</svg>
