<svg width="16" height="17" viewBox="0 0 16 17" fill="none" xmlns="http://www.w3.org/2000/svg">
<path d="M4 3C4 2.66 4 2.39 4 2.25C3.98323 2.12891 3.92352 2.01787 3.83174 1.93711C3.73997 1.85635 3.62224 1.81124 3.5 1.81C3.38349 1.80311 3.26846 1.8389 3.17643 1.91068C3.0844 1.98247 3.02168 2.08532 3 2.2C2.97138 2.49264 2.97138 2.78737 3 3.08V4.93C2.95384 5.23828 2.95384 5.55172 3 5.86C3.03084 5.95922 3.0937 6.04543 3.17874 6.10513C3.26377 6.16484 3.3662 6.19469 3.47 6.19C3.53731 6.19406 3.60474 6.18446 3.66824 6.16178C3.73174 6.13911 3.79 6.10382 3.83951 6.05804C3.88902 6.01227 3.92876 5.95695 3.95634 5.89542C3.98392 5.83389 3.99877 5.76742 4 5.7C4 5.54 4 5.11 4 4.85H5V5.18C5.04607 5.5736 4.96922 5.97181 4.78 6.32C4.64818 6.5386 4.45949 6.7173 4.23406 6.83706C4.00864 6.95682 3.75493 7.01314 3.5 7C3.2916 7.00537 3.08437 6.96723 2.89152 6.88803C2.69868 6.80883 2.52447 6.6903 2.38 6.54C2.07 6.19 2 5.9 2 5V3C2 2.1 2.07 1.81 2.38 1.46C2.52447 1.30971 2.69868 1.19118 2.89152 1.11198C3.08437 1.03277 3.2916 0.994638 3.5 1C3.75049 0.986855 4.0001 1.03891 4.22446 1.15109C4.44881 1.26327 4.64022 1.43172 4.78 1.64C4.96288 1.96145 5.03986 2.33233 5 2.7V3H4Z" fill="white"/>
<path d="M11 4H9V6H8V4H6V3H8V1H9V3H11V4Z" fill="white"/>
<path d="M15 4H13V6H12V4H10V3H12V1H13V3H15V4Z" fill="white"/>
<path fill-rule="evenodd" clip-rule="evenodd" d="M7.93 11.8L0 6.6V11.8L7.93 17V11.8Z" fill="white"/>
<path opacity="0.5" d="M16 6.6L9 11.8V17L16 11.8V6.6Z" fill="white"/>
</svg>
