<svg width="16" height="16" viewBox="0 0 16 16" fill="none" xmlns="http://www.w3.org/2000/svg">
<path d="M8 0C7.20888 0 6.43552 0.234596 5.77772 0.674122C5.11992 1.11365 4.60723 1.73836 4.30448 2.46927C4.00173 3.20017 3.92252 4.00444 4.07686 4.78036C4.2312 5.55629 4.61216 6.26902 5.17157 6.82843C5.73098 7.38784 6.44372 7.7688 7.21964 7.92314C7.99556 8.07748 8.79983 7.99827 9.53074 7.69552C10.2616 7.39277 10.8864 6.88008 11.3259 6.22228C11.7654 5.56448 12 4.79113 12 4C12 2.93913 11.5786 1.92172 10.8284 1.17157C10.0783 0.421427 9.06087 0 8 0V0ZM8 7.11C7.3849 7.11 6.78362 6.9276 6.27218 6.58587C5.76074 6.24414 5.36212 5.75842 5.12674 5.19015C4.89135 4.62187 4.82976 3.99655 4.94976 3.39327C5.06976 2.78999 5.36596 2.23584 5.8009 1.8009C6.23584 1.36596 6.78999 1.06976 7.39327 0.949758C7.99655 0.829758 8.62187 0.891346 9.19015 1.12673C9.75843 1.36212 10.2441 1.76074 10.5859 2.27218C10.9276 2.78361 11.11 3.3849 11.11 4C11.11 4.82482 10.7823 5.61586 10.1991 6.1991C9.61587 6.78234 8.82483 7.11 8 7.11Z" fill="white"/>
<path d="M9.78011 4.89H7.11011V2.22H8.00011V4H9.78011V4.89Z" fill="white"/>
<path fill-rule="evenodd" clip-rule="evenodd" d="M7.93 10.8L0 5.6V10.8L7.93 16V10.8Z" fill="white"/>
<path opacity="0.5" d="M16 5.6L9 10.8V16L16 10.8V5.6Z" fill="white"/>
</svg>
