<svg width="16" height="16" viewBox="0 0 16 16" fill="none" xmlns="http://www.w3.org/2000/svg">
<path opacity="0.5" fill-rule="evenodd" clip-rule="evenodd" d="M2 0V6.8C2 6.8 5 6 6.5 8C8 6 11 6 12 8L12.5 9H16V0H2Z" fill="white"/>
<path fill-rule="evenodd" clip-rule="evenodd" d="M2 0V6.8C2.32876 6.72503 2.6633 6.6782 3 6.66V1H15V8H12L12.48 9H16V0H2Z" fill="white"/>
<path opacity="0.5" fill-rule="evenodd" clip-rule="evenodd" d="M14 12H16V10H13L14 12Z" fill="white"/>
<path fill-rule="evenodd" clip-rule="evenodd" d="M12.2599 12C11.7599 10.58 10.6899 8.09 9.63994 8.09C8.06994 8.09 8.07994 9.53 7.43994 9.53H5.50994C4.86994 9.53 4.92994 8.09 3.35994 8.09C2.35994 8.09 1.21994 10.57 0.739942 12C-0.160058 14.65 -0.260058 15.93 1.66994 15.93C3.81994 15.93 3.74994 13.5 6.49994 13.5C9.24994 13.5 9.25994 15.93 11.2799 15.93C13.2999 15.93 13.1999 14.67 12.2599 12ZM5.48994 12H3.99994V13.39H2.99994V12H1.57994V11H2.99994V9.47H3.99994V11H5.48994V12ZM9.48994 13.35C9.12405 13.35 8.76637 13.2415 8.46214 13.0382C8.15791 12.8349 7.92079 12.546 7.78077 12.208C7.64074 11.8699 7.60411 11.4979 7.67549 11.1391C7.74687 10.7802 7.92307 10.4506 8.18179 10.1919C8.44052 9.93313 8.77016 9.75693 9.12902 9.68555C9.48789 9.61416 9.85986 9.6508 10.1979 9.79082C10.5359 9.93085 10.8249 10.168 11.0282 10.4722C11.2314 10.7764 11.3399 11.1341 11.3399 11.5C11.3399 11.9889 11.1464 12.458 10.8016 12.8046C10.4568 13.1513 9.98886 13.3474 9.49994 13.35H9.48994Z" fill="white"/>
<path fill-rule="evenodd" clip-rule="evenodd" d="M9.48009 10.78C9.35508 10.778 9.23231 10.8133 9.1274 10.8813C9.02249 10.9493 8.94018 11.047 8.89096 11.1619C8.84174 11.2768 8.82783 11.4038 8.851 11.5267C8.87417 11.6495 8.93337 11.7627 9.02106 11.8518C9.10876 11.9409 9.22098 12.0019 9.34346 12.0271C9.46593 12.0522 9.59311 12.0403 9.70881 11.9929C9.82451 11.9456 9.9235 11.8648 9.99318 11.761C10.0629 11.6572 10.1001 11.535 10.1001 11.41C10.1001 11.2446 10.0351 11.0859 9.91911 10.968C9.80312 10.8502 9.64543 10.7826 9.48009 10.78Z" fill="white"/>
</svg>
