<svg width="16" height="16" viewBox="0 0 16 16" fill="none" xmlns="http://www.w3.org/2000/svg">
<path d="M8 0C3.58 0 0 2.69 0 6C0 8.42 1.90997 10.5 4.65997 11.45L2.53998 16L7.60999 12H8C12.42 12 16 9.31 16 6C16 2.69 12.42 0 8 0ZM8.84003 10.71C8.61383 10.8978 8.329 11.0007 8.03497 11.0007C7.74094 11.0007 7.45618 10.8978 7.22998 10.71C7.12349 10.621 7.03853 10.5092 6.98138 10.3828C6.92424 10.2564 6.89643 10.1187 6.90002 9.97998C6.89637 9.83983 6.9241 9.70067 6.9812 9.57263C7.0383 9.44459 7.12327 9.33092 7.22998 9.23999C7.45933 9.05912 7.74289 8.96082 8.03497 8.96082C8.32706 8.96082 8.61068 9.05912 8.84003 9.23999C8.94673 9.33092 9.03171 9.44459 9.08881 9.57263C9.14591 9.70067 9.17364 9.83983 9.16998 9.97998C9.17358 10.1187 9.14577 10.2564 9.08862 10.3828C9.03148 10.5092 8.94651 10.621 8.84003 10.71V10.71ZM10.76 5.31006C10.5903 5.62341 10.3707 5.90708 10.11 6.15002L9.41998 6.80005C9.23943 6.95829 9.09895 7.15701 9.01001 7.38C8.92346 7.62402 8.87948 7.88111 8.88 8.14001H7.15002C7.1342 7.66851 7.20186 7.19791 7.34998 6.75C7.48354 6.40076 7.70796 6.09349 8 5.85999C8.25171 5.65608 8.47979 5.4247 8.67999 5.17004C8.82789 4.97406 8.90853 4.73551 8.90997 4.48999C8.90997 3.87999 8.65 3.56995 8.12 3.56995C8.00905 3.56721 7.89895 3.59025 7.79834 3.63708C7.69773 3.68392 7.60931 3.75331 7.53998 3.83997C7.38081 4.04589 7.29621 4.29981 7.29999 4.56006H5.29999C5.28368 4.20895 5.34311 3.85834 5.47424 3.53223C5.60538 3.20611 5.80516 2.91212 6.06 2.67004C6.64961 2.18832 7.40031 1.94876 8.15997 2C8.90793 1.95395 9.64815 2.17353 10.25 2.62C10.5028 2.83961 10.7018 3.11427 10.8318 3.42285C10.9619 3.73143 11.0194 4.06573 11 4.40002C10.9889 4.71746 10.9069 5.02841 10.76 5.31006V5.31006Z" fill="white"/>
</svg>
