<svg width="16" height="16" viewBox="0 0 16 16" fill="none" xmlns="http://www.w3.org/2000/svg">
<path opacity="0.5" d="M0.5 16H12.5C11.5 13.7 9.2 12 6.5 12C3.8 12 1.5 13.7 0.5 16Z" fill="white"/>
<path d="M7.1 7.4L5 9.5L0 4.5L5 11L8.5 8.9C8.5 8.9 8.1 8.8 7.6 8.3C7.1 7.8 7.1 7.4 7.1 7.4Z" fill="white"/>
<path d="M12.4524 6.83689C13.8192 5.47007 14.1991 3.63391 13.3009 2.73571C12.4027 1.83751 10.5665 2.21741 9.1997 3.58423C7.83288 4.95105 7.45299 6.78721 8.35118 7.68541C9.24938 8.58361 11.0855 8.20371 12.4524 6.83689Z" fill="white"/>
<path opacity="0.5" d="M8.6 4.3L6.8 2.5L7.5 1.8L9.3 3.6C9 3.8 8.8 4 8.6 4.3ZM10.5 2.6L9.8 0L9 0.299999L9.7 3.1C9.9 2.9 10.2 2.8 10.5 2.6ZM12.9 6.3L15.7 7L16 6.1L13.4 5.5C13.2 5.8 13.1 6.1 12.9 6.3ZM8.3 4.8L5.3 4L5 4.8L8 5.6C8 5.3 8.2 5 8.3 4.8ZM12.5 6.8C12.3 7 12 7.2 11.8 7.4L13.6 9.2L14.3 8.5L12.5 6.8ZM10.4 8L11.2 11L12.1 10.7L11.3 7.7C11 7.8 10.7 7.9 10.4 8Z" fill="white"/>
</svg>
