<svg width="16" height="16" viewBox="0 0 16 16" fill="none" xmlns="http://www.w3.org/2000/svg">
<path fill-rule="evenodd" clip-rule="evenodd" d="M7.5 0C3.4 0 0 3.4 0 7.5C0 11.6 3.4 15 7.5 15C11.6 15 15 11.6 15 7.5C15 3.4 11.6 0 7.5 0ZM7.5 13.6C4.1 13.6 1.4 10.9 1.4 7.5C1.4 4.1 4.1 1.4 7.5 1.4C10.9 1.4 13.6 4.1 13.6 7.5C13.6 10.9 10.9 13.6 7.5 13.6Z" fill="white"/>
<path fill-rule="evenodd" clip-rule="evenodd" d="M8.10002 2.69995H6.90002V7.99995L10 11L10.9 10.1L8.10002 7.49995V2.69995Z" fill="white"/>
</svg>
