<svg width="16" height="16" viewBox="0 0 16 16" fill="none" xmlns="http://www.w3.org/2000/svg">
<path d="M1.19995 4.99995L3.89995 6.19995C4.09995 5.69995 4.39995 5.19995 4.79995 4.79995C5.19995 4.39995 5.69995 4.09995 6.19995 3.89995L4.99995 1.19995C4.09995 1.49995 3.39995 1.99995 2.69995 2.69995C1.99995 3.39995 1.49995 4.09995 1.19995 4.99995Z" fill="white"/>
<path d="M14.7999 11L12.0999 9.80005C11.8999 10.3 11.5999 10.8 11.1999 11.2C10.7999 11.6 10.2999 11.9 9.79993 12.1L10.9999 14.8C11.7999 14.4 12.5999 13.9 13.2999 13.3C13.9999 12.6 14.4999 11.9 14.7999 11Z" fill="white"/>
<path d="M2.69995 13.3C3.39995 14 4.09995 14.5 4.99995 14.8L6.19995 12.1C5.69995 11.9 5.19995 11.6 4.79995 11.2C4.39995 10.8 4.09995 10.3 3.89995 9.80005L1.19995 11C1.49995 11.9 1.99995 12.6 2.69995 13.3Z" fill="white"/>
<path d="M13.2999 2.69995C12.5999 1.99995 11.8999 1.49995 10.9999 1.19995L9.79993 3.89995C10.2999 4.09995 10.7999 4.39995 11.1999 4.79995C11.5999 5.19995 11.8999 5.69995 12.0999 6.19995L14.7999 4.99995C14.4999 4.09995 13.9999 3.39995 13.2999 2.69995Z" fill="white"/>
<path opacity="0.5" d="M11 14.9L9.8 12.2C9.2 12.4 8.6 12.6 8 12.6C7.4 12.6 6.7 12.5 6.2 12.2L5 14.9C5.9 15.3 7 15.5 8 15.5C9 15.5 10.1 15.3 11 14.9Z" fill="white"/>
<path opacity="0.5" d="M5 1.1L6.2 3.8C6.7 3.6 7.3 3.5 8 3.5C8.7 3.5 9.3 3.6 9.8 3.9L11 1.1C10.1 0.7 9 0.5 8 0.5C7 0.5 5.9 0.7 5 1.1Z" fill="white"/>
<path opacity="0.5" d="M12.5 8C12.5 8.7 12.4 9.3 12.1 9.8L14.8 11C15.2 10.1 15.4 9 15.4 8C15.4 7 15.2 5.9 14.8 5L12.1 6.2C12.4 6.7 12.5 7.3 12.5 8Z" fill="white"/>
<path opacity="0.5" d="M3.5 8C3.5 7.3 3.6 6.7 3.9 6.2L1.1 5C0.7 5.9 0.5 7 0.5 8C0.5 9 0.7 10.1 1.1 11L3.8 9.8C3.6 9.3 3.5 8.7 3.5 8Z" fill="white"/>
</svg>
