<svg width="16" height="16" viewBox="0 0 16 16" fill="none" xmlns="http://www.w3.org/2000/svg">
<path d="M8 2C9.18669 2 10.3467 2.35189 11.3334 3.01118C12.3201 3.67047 13.0892 4.60754 13.5433 5.7039C13.9974 6.80026 14.1162 8.00666 13.8847 9.17054C13.6532 10.3344 13.0818 11.4035 12.2426 12.2426C11.4035 13.0818 10.3344 13.6532 9.17054 13.8847C8.00666 14.1162 6.80026 13.9974 5.7039 13.5433C4.60755 13.0892 3.67047 12.3201 3.01119 11.3334C2.3519 10.3467 2 9.18669 2 8C2 6.4087 2.63214 4.88258 3.75736 3.75736C4.88258 2.63214 6.4087 2 8 2ZM8 1C6.61553 1 5.26216 1.41054 4.11101 2.17971C2.95987 2.94888 2.06266 4.04213 1.53285 5.32122C1.00303 6.6003 0.86441 8.00776 1.13451 9.36563C1.4046 10.7235 2.07129 11.9708 3.05026 12.9497C4.02922 13.9287 5.2765 14.5954 6.63437 14.8655C7.99224 15.1356 9.3997 14.997 10.6788 14.4672C11.9579 13.9373 13.0511 13.0401 13.8203 11.889C14.5895 10.7378 15 9.38447 15 8C15 6.14348 14.2625 4.36301 12.9497 3.05025C11.637 1.7375 9.85652 1 8 1Z" fill="white"/>
<path opacity="0.5" d="M9.55991 10.17C8.81597 10.1616 8.09132 9.93217 7.47815 9.51079C6.86499 9.0894 6.39103 8.49515 6.11657 7.80363C5.84211 7.11211 5.77954 6.35458 5.93684 5.6274C6.09414 4.90022 6.46419 4.23627 6.99991 3.72C6.30089 3.93605 5.66967 4.32931 5.16763 4.86154C4.66559 5.39377 4.30982 6.04686 4.13491 6.7573C3.96 7.46773 3.9719 8.21134 4.16946 8.91581C4.36702 9.62029 4.74352 10.2616 5.26234 10.7775C5.78115 11.2934 6.42464 11.6663 7.13022 11.8598C7.8358 12.0534 8.57947 12.0611 9.2889 11.8822C9.99833 11.7032 10.6494 11.3438 11.1788 10.8387C11.7081 10.3337 12.0978 9.70024 12.3099 9C11.9562 9.37311 11.5296 9.66951 11.0565 9.87078C10.5834 10.0721 10.074 10.1739 9.55991 10.17Z" fill="white"/>
<path d="M10.0001 7.94C11.0715 7.94 11.9401 7.07143 11.9401 6C11.9401 4.92857 11.0715 4.06 10.0001 4.06C8.92863 4.06 8.06006 4.92857 8.06006 6C8.06006 7.07143 8.92863 7.94 10.0001 7.94Z" fill="white"/>
</svg>
