<svg width="16" height="16" viewBox="0 0 16 16" fill="none" xmlns="http://www.w3.org/2000/svg">
<path opacity="0.5" fill-rule="evenodd" clip-rule="evenodd" d="M8.26001 0L3.8999 4.40002L1.12012 2.22998L0 2.75V8.28003L1.13989 8.82996L3.87988 6.68994L6.17993 8.96997C6.59996 8.33239 7.1792 7.81537 7.86011 7.46997L5.41992 5.53003L8.26001 3.28003V7.28003C8.81665 7.07396 9.40649 6.97222 10 6.97998H11V1.08997L8.26001 0ZM1.12012 7.25V3.92004L2.77002 5.55005L1.12012 7.25Z" fill="white"/>
<path d="M11.0001 16L7.62012 13.5L11.0001 11V16Z" fill="white"/>
<path d="M12 11V6L15.38 8.5L12 11Z" fill="white"/>
<path d="M12.5 9L10.81 8.84998C10.2876 8.77278 9.75446 8.81378 9.24998 8.96997C8.75105 9.18608 8.32272 9.53769 8.01341 9.98486C7.7041 10.432 7.52619 10.9569 7.49998 11.5C7.484 10.9246 7.60041 10.3533 7.84007 9.82996C8.08887 9.27665 8.51931 8.82511 9.06004 8.55005C9.60824 8.29364 10.2049 8.15724 10.81 8.15002L12.5 8V9Z" fill="white"/>
<path d="M10.5 13L12.1899 13.15C12.7124 13.2272 13.2455 13.1862 13.75 13.03C14.2489 12.8139 14.6773 12.4623 14.9866 12.0151C15.2959 11.568 15.4738 11.0431 15.5 10.5C15.516 11.0754 15.3996 11.6467 15.1599 12.17C14.9111 12.7234 14.4807 13.1749 13.9399 13.45C13.3917 13.7064 12.7951 13.8428 12.1899 13.85L10.5 14V13Z" fill="white"/>
</svg>
