<svg width="16" height="16" viewBox="0 0 16 16" fill="none" xmlns="http://www.w3.org/2000/svg">
<path opacity="0.5" fill-rule="evenodd" clip-rule="evenodd" d="M0 0V15H7L6 14H1V4H15V6.25L16 7V0H0Z" fill="white"/>
<path fill-rule="evenodd" clip-rule="evenodd" d="M3.73999 8.1602C3.81824 8.06648 3.87606 7.95744 3.90991 7.84013C3.96204 7.68567 3.98582 7.52306 3.97998 7.36015V6.36015C3.97182 6.20443 4.02184 6.05129 4.12012 5.93022C4.18927 5.86946 4.27032 5.82374 4.35815 5.79619C4.44599 5.76863 4.53842 5.75981 4.62988 5.77019H4.83008L4.8999 5.62016C4.93971 5.55007 4.96046 5.47078 4.95996 5.39018C4.96543 5.33366 4.95535 5.27665 4.93066 5.22551C4.90598 5.17437 4.86773 5.13102 4.82007 5.10014C4.71876 5.04558 4.60503 5.01807 4.48999 5.02019H4.32007C4.0102 5.00587 3.70318 5.08606 3.43994 5.25017C3.32936 5.32363 3.23697 5.42115 3.16943 5.53544C3.10189 5.64974 3.06106 5.7779 3.05005 5.9102C3.03972 6.0233 3.03972 6.13707 3.05005 6.25017V7.25017C3.05571 7.39023 3.03179 7.52995 2.97998 7.6602C2.93061 7.7589 2.86276 7.84718 2.78003 7.92021C2.68793 7.98856 2.58214 8.03632 2.46997 8.06022C2.34046 8.07613 2.20959 8.07613 2.08008 8.06022H2V8.84013H2.05005C2.17957 8.82433 2.31042 8.82433 2.43994 8.84013C2.55051 8.86875 2.65542 8.91612 2.75 8.98015C2.83503 9.05099 2.90329 9.13979 2.94995 9.24016C3.00176 9.37041 3.02568 9.51013 3.02002 9.65019V10.7201C3.02154 10.8858 3.04515 11.0506 3.09009 11.2101C3.13492 11.3506 3.21393 11.4777 3.32007 11.5801C3.43508 11.6873 3.57127 11.7691 3.71997 11.8201C3.91514 11.8752 4.11728 11.9022 4.32007 11.9002H4.95996V11.1502H4.62988C4.53522 11.1635 4.43892 11.1561 4.34741 11.1285C4.2559 11.1008 4.17158 11.0536 4.1001 10.9902C4.01632 10.8665 3.97416 10.7193 3.97998 10.5701V9.57011C3.98582 9.4072 3.96204 9.24459 3.90991 9.09013C3.87606 8.97283 3.81824 8.8639 3.73999 8.77018C3.66696 8.68745 3.57868 8.61948 3.47998 8.57011L3.16992 8.44011L3.47998 8.30021C3.57528 8.27175 3.66377 8.22409 3.73999 8.1602V8.1602Z" fill="white"/>
<path d="M11.0001 16L7.62012 13.5L11.0001 11V16Z" fill="white"/>
<path d="M12 11V6L15.38 8.5L12 11Z" fill="white"/>
<path d="M12.5 9L10.81 8.84998C10.2876 8.77278 9.75446 8.81378 9.24998 8.96997C8.75105 9.18608 8.32272 9.53769 8.01341 9.98486C7.7041 10.432 7.52619 10.9569 7.49998 11.5C7.484 10.9246 7.60041 10.3533 7.84007 9.82996C8.08887 9.27665 8.51931 8.82511 9.06004 8.55005C9.60824 8.29364 10.2049 8.15724 10.81 8.15002L12.5 8V9Z" fill="white"/>
<path d="M10.5 13L12.1899 13.15C12.7124 13.2272 13.2455 13.1862 13.75 13.03C14.2489 12.8139 14.6773 12.4623 14.9866 12.0151C15.2959 11.568 15.4738 11.0431 15.5 10.5C15.516 11.0754 15.3996 11.6467 15.1599 12.17C14.9111 12.7234 14.4807 13.1749 13.9399 13.45C13.3917 13.7064 12.7951 13.8428 12.1899 13.85L10.5 14V13Z" fill="white"/>
</svg>
