<svg width="20" height="20" viewBox="0 0 20 20" fill="none" xmlns="http://www.w3.org/2000/svg">
<path fill-rule="evenodd" clip-rule="evenodd" d="M8 1.17004L1 7.00004L8 12.83V8.00001H12.83C13.4226 7.99812 14.0097 8.11381 14.5573 8.3404C15.1048 8.56698 15.602 8.89994 16.02 9.32001C16.8603 10.1651 17.3319 11.3083 17.3319 12.5C17.3319 13.6917 16.8603 14.835 16.02 15.68C15.602 16.1001 15.1048 16.433 14.5573 16.6596C14.0097 16.8862 13.4226 17.0019 12.83 17H11C10.7348 17 10.4804 17.1054 10.2929 17.2929C10.1054 17.4804 10 17.7348 10 18C10 18.2652 10.1054 18.5196 10.2929 18.7071C10.4804 18.8947 10.7348 19 11 19H12.83C13.6841 19.0016 14.53 18.8345 15.3194 18.5085C16.1088 18.1824 16.826 17.7038 17.43 17.1C18.6464 15.8781 19.3293 14.2242 19.3293 12.5C19.3293 10.7759 18.6464 9.1219 17.43 7.90001C16.826 7.29622 16.1088 6.81758 15.3194 6.49154C14.53 6.1655 13.6841 5.99847 12.83 6.00001H8V1.17004Z" fill="white"/>
</svg>
