<svg width="12" height="12" viewBox="0 0 12 12" fill="none" xmlns="http://www.w3.org/2000/svg">
<path d="M7.26308 8.44735C6.98694 8.44735 6.76308 8.67121 6.76308 8.94735C6.76308 9.22349 6.98694 9.44735 7.26308 9.44735V8.44735ZM4.66927 3.40617C4.86453 3.2109 4.86453 2.89432 4.66927 2.69906C4.474 2.5038 4.15742 2.5038 3.96216 2.69906L4.66927 3.40617ZM2.21045 5.15788L1.8569 4.80432C1.66163 4.99958 1.66163 5.31617 1.8569 5.51143L2.21045 5.15788ZM3.96216 7.61669C4.15742 7.81195 4.474 7.81195 4.66927 7.61669C4.86453 7.42143 4.86453 7.10485 4.66927 6.90958L3.96216 7.61669ZM7.89466 8.44735H7.26308V9.44735H7.89466V8.44735ZM3.96216 2.69906L1.8569 4.80432L2.564 5.51143L4.66927 3.40617L3.96216 2.69906ZM1.8569 5.51143L3.96216 7.61669L4.66927 6.90958L2.564 4.80432L1.8569 5.51143ZM2.21045 5.65788H7.89466V4.65788H2.21045V5.65788ZM9.2894 7.05261C9.2894 7.8229 8.66495 8.44735 7.89466 8.44735V9.44735C9.21723 9.44735 10.2894 8.37519 10.2894 7.05261H9.2894ZM10.2894 7.05261C10.2894 5.73004 9.21724 4.65788 7.89466 4.65788V5.65788C8.66495 5.65788 9.2894 6.28232 9.2894 7.05261H10.2894Z" fill="white"/>
</svg>
