<svg width="16" height="16" viewBox="0 0 16 16" fill="none" xmlns="http://www.w3.org/2000/svg">
<path d="M5 15H1C0.4 15 0 14.6 0 14V10C0 9.4 0.4 9 1 9H5C5.6 9 6 9.4 6 10V14C6 14.6 5.6 15 5 15Z" fill="white"/>
<path d="M7 11.6V12.4L10 14.5V9.5L7 11.6Z" fill="white"/>
<path opacity="0.5" d="M12 10.8H11.5C11.1 10.8 10.7 10.5 10.7 10C10.7 9.50002 11 9.20002 11.5 9.20002H12C13.2 9.20002 14.2 8.20002 14.2 7.00002C14.2 5.80002 13.2 4.80002 12 4.80002H5.79995L7.49995 6.50002C7.79995 6.80002 7.79995 7.30002 7.49995 7.60002C7.19995 7.90002 6.69995 7.90002 6.39995 7.60002L3.39995 4.60002C3.39995 4.50002 3.29995 4.40002 3.29995 4.30002C3.29995 4.20002 3.19995 4.10002 3.19995 4.00002C3.19995 3.90002 3.19995 3.80002 3.29995 3.70002C3.29995 3.60002 3.39995 3.50002 3.49995 3.50002L6.49995 0.500024C6.79995 0.200024 7.29995 0.200024 7.59995 0.500024C7.89995 0.800024 7.89995 1.30002 7.59995 1.60002L5.79995 3.20002H12C14.1 3.20002 15.8 4.90002 15.8 7.00002C15.8 9.10002 14.1 10.8 12 10.8Z" fill="white"/>
</svg>
