<svg width="20" height="20" viewBox="0 0 20 20" fill="none" xmlns="http://www.w3.org/2000/svg">
<path opacity="0.5" d="M18 10.76V18H16V11.41C16.6974 11.303 17.3729 11.0835 18 10.76V10.76ZM15 9.67L14.36 11H15.6L15 9.67ZM12.53 11C11.3824 10.5315 10.3933 9.74367 9.68 8.73L10.84 7.24V7.18L8.97 7.42C8.92 7.29 8.87 7.14 8.82 7H4V1H2V18H4V11H12.53Z" fill="white"/>
<path d="M16 11.41V18H4V11H12.53C13.0517 11.2176 13.5997 11.3655 14.16 11.44L14.36 11H15.6L15.79 11.44L16 11.41ZM8.5 5.00005C8.49969 4.10448 8.68705 3.21878 9.05 2.40005L10.81 2.62005L9.74 1.23005L9.89 1.05005H4V7.05005H8.82C8.60576 6.3879 8.49775 5.69599 8.5 5.00005V5.00005Z" fill="white"/>
<path d="M18.42 1.03007L15.75 4.55007V4.61007L20 4.04007V5.96007L15.75 5.45007V5.51007L18.45 8.89007L16.68 9.90007L14.99 5.96007H14.93L13.1 9.93007L11.49 8.91007L14.17 5.48007V5.42007L10 5.96007V4.04007L14.14 4.58007V4.52007L11.49 1.08007L13.21 0.100068L14.96 4.01007H15.01L16.73 0.0700684L18.42 1.03007Z" fill="white"/>
</svg>
