<svg width="16" height="16" viewBox="0 0 16 16" fill="none" xmlns="http://www.w3.org/2000/svg">
<path opacity="0.5" d="M11 9V12H13V3L11 1H10V6H2V1H0V14H2V9H11Z" fill="white"/>
<path d="M10 12H11V9H2V14H3L4 12H10Z" fill="white"/>
<path d="M2 1V6H10V1H2ZM9 5H8V2H9V5Z" fill="white"/>
<path d="M6.5 16C7.32843 16 8 15.3284 8 14.5C8 13.6716 7.32843 13 6.5 13C5.67157 13 5 13.6716 5 14.5C5 15.3284 5.67157 16 6.5 16Z" fill="white"/>
<path d="M10.5 16C11.3284 16 12 15.3284 12 14.5C12 13.6716 11.3284 13 10.5 13C9.67157 13 9 13.6716 9 14.5C9 15.3284 9.67157 16 10.5 16Z" fill="white"/>
<path d="M14.5 16C15.3284 16 16 15.3284 16 14.5C16 13.6716 15.3284 13 14.5 13C13.6716 13 13 13.6716 13 14.5C13 15.3284 13.6716 16 14.5 16Z" fill="white"/>
</svg>
