<svg width="16" height="16" viewBox="0 0 16 16" fill="none" xmlns="http://www.w3.org/2000/svg">
<path opacity="0.5" fill-rule="evenodd" clip-rule="evenodd" d="M2.5 15.9999C6.2 13.9999 8 14.4999 8 14.4999C8 14.4999 9.8 13.9999 13.5 15.9999C9.8 15.9999 6.2 15.9999 2.5 15.9999Z" fill="white"/>
<path d="M15 1V12H1V1H15ZM16 0H0V13H16V0Z" fill="white"/>
<path d="M3.80005 3.8C3.80005 3.3 4.00005 2.8 4.30005 2.5C4.60005 2.2 5.10005 2 5.70005 2C6.30005 2 6.70005 2.2 7.10005 2.5C7.50005 2.8 7.60005 3.3 7.60005 3.8V4.2C7.60005 4.7 7.40005 5.2 7.10005 5.5C6.80005 5.8 6.30005 6 5.70005 6C5.10005 6 4.70005 5.8 4.30005 5.5C3.90005 5.2 3.80005 4.7 3.80005 4.2V3.8ZM5.10005 4.3C5.10005 4.5 5.20005 4.7 5.30005 4.8C5.40005 4.9 5.60005 5 5.80005 5C6.20005 5 6.40005 4.7 6.40005 4.2V3.89999C6.40005 3.69999 6.30005 3.49999 6.20005 3.39999C6.10005 3.29999 5.90005 3.2 5.70005 3.2C5.50005 3.2 5.40005 3.29999 5.20005 3.39999C5.00005 3.49999 5.00005 3.69999 5.00005 3.89999V4.3H5.10005ZM6.10005 10.1L5.20005 9.60001L9.40005 2.89999L10.3 3.39999L6.10005 10.1ZM7.90005 8.60001C7.90005 8.10001 8.10005 7.6 8.40005 7.3C8.70005 7 9.20005 6.8 9.80005 6.8C10.4 6.8 10.8 7 11.2 7.3C11.6 7.6 11.7 8.10001 11.7 8.60001V9C11.7 9.5 11.5 10 11.2 10.3C10.9 10.6 10.4 10.8 9.80005 10.8C9.20005 10.8 8.80005 10.6 8.40005 10.3C8.00005 10 7.90005 9.5 7.90005 9V8.60001ZM9.10005 9.10001C9.10005 9.30001 9.20005 9.40001 9.30005 9.60001C9.40005 9.70001 9.60005 9.8 9.80005 9.8C10.2 9.8 10.4 9.6 10.4 9.3V8.7C10.4 8.5 10.3 8.3 10.2 8.2C10.1 8.1 9.90005 8 9.70005 8C9.50005 8 9.40005 8.1 9.20005 8.2C9.00005 8.3 9.00005 8.5 9.00005 8.7V9.10001H9.10005Z" fill="white"/>
</svg>
