<svg width="20" height="20" viewBox="0 0 20 20" fill="none" xmlns="http://www.w3.org/2000/svg">
<path fill-rule="evenodd" clip-rule="evenodd" d="M6.59981 14.9999L1.8998 19.6999C1.8998 19.6999 1.4998 19.6999 0.899796 19.0999C0.299796 18.4999 0.299805 18.0999 0.299805 18.0999L4.9998 13.3999L6.59981 14.9999Z" fill="white"/>
<path d="M11 16.5C15.1421 16.5 18.5 13.1421 18.5 9C18.5 4.85786 15.1421 1.5 11 1.5C6.85786 1.5 3.5 4.85786 3.5 9C3.5 13.1421 6.85786 16.5 11 16.5Z" stroke="white" stroke-width="1.25" stroke-miterlimit="10"/>
<path opacity="0.5" d="M11 14.5C14.0376 14.5 16.5 12.0376 16.5 9C16.5 5.96243 14.0376 3.5 11 3.5C7.96243 3.5 5.5 5.96243 5.5 9C5.5 12.0376 7.96243 14.5 11 14.5Z" fill="white"/>
</svg>
