<svg width="16" height="16" viewBox="0 0 16 16" fill="none" xmlns="http://www.w3.org/2000/svg">
<path d="M12 8.72999L5 2.73999L5.09 11.95L7.13 9.12999L9.12 13.26L10.59 12.55L8.62 8.45999L12 8.72999Z" fill="white"/>
<path d="M2 2.40002C2 2.29394 2.04217 2.1922 2.11719 2.11719C2.1922 2.04217 2.29394 2 2.40002 2H6V0H2.40002C1.76432 0.00263237 1.15533 0.256293 0.705811 0.705811C0.256293 1.15533 0.00263237 1.76432 0 2.40002V6H2V2.40002Z" fill="white"/>
<path d="M2.40002 14C2.29394 14 2.1922 13.9578 2.11719 13.8828C2.04217 13.8078 2 13.7061 2 13.6V10H0V13.6C0.00263237 14.2357 0.256293 14.8447 0.705811 15.2942C1.15533 15.7437 1.76432 15.9974 2.40002 16H6V14H2.40002Z" fill="white"/>
<path d="M14 13.6C14 13.7061 13.9578 13.8078 13.8828 13.8828C13.8078 13.9578 13.7061 14 13.6 14H10V16H13.6C14.2357 15.9974 14.8447 15.7437 15.2942 15.2942C15.7437 14.8447 15.9974 14.2357 16 13.6V10H14V13.6Z" fill="white"/>
<path d="M13.6 0H10V2H13.6C13.7061 2 13.8078 2.04217 13.8828 2.11719C13.9578 2.1922 14 2.29394 14 2.40002V6H16V2.40002C15.9974 1.76432 15.7437 1.15533 15.2942 0.705811C14.8447 0.256293 14.2357 0.00263237 13.6 0V0Z" fill="white"/>
</svg>
