<svg width="16" height="16" viewBox="0 0 16 16" fill="none" xmlns="http://www.w3.org/2000/svg">
<path d="M8 11H6V15H8V11Z" fill="white"/>
<path opacity="0.5" d="M16 12H10V14H16V12Z" fill="white"/>
<path d="M6 12H0V14H6V12Z" fill="white"/>
<path opacity="0.5" d="M14.9 6.00012C14.9 7.90012 14.1 9.60015 12.9 10.9001L12.2 10.2001C13.3 9.10013 13.9 7.70012 13.9 6.00012C13.9 4.30012 13.2 2.90011 12.2 1.80011L12.9 1.1001C14.1 2.4001 14.9 4.10012 14.9 6.00012ZM3.79998 1.80011L3.09998 1.1001C1.89998 2.3001 1.09998 4.10012 1.09998 6.00012C1.09998 7.90012 1.89998 9.60015 3.09998 10.9001L3.79998 10.2001C2.69998 9.10013 2.09998 7.70012 2.09998 6.00012C2.09998 4.30012 2.79998 2.90011 3.79998 1.80011ZM4.99998 9.00012L5.69998 8.30011C5.09998 7.70011 4.69998 6.90012 4.69998 6.00012C4.69998 5.10012 5.09998 4.30013 5.69998 3.70013L4.99998 3.00012C4.19998 3.80012 3.79998 4.80012 3.79998 6.00012C3.79998 7.20012 4.19998 8.20012 4.99998 9.00012ZM11 3.00012L10.3 3.70013C10.9 4.30013 11.3 5.10012 11.3 6.00012C11.3 6.90012 10.9 7.70011 10.3 8.30011L11 9.00012C11.8 8.20012 12.2 7.20012 12.2 6.00012C12.2 4.80012 11.8 3.80012 11 3.00012Z" fill="white"/>
<path d="M7.99995 7.79993C8.99406 7.79993 9.79995 6.99405 9.79995 5.99994C9.79995 5.00583 8.99406 4.19995 7.99995 4.19995C7.00584 4.19995 6.19995 5.00583 6.19995 5.99994C6.19995 6.99405 7.00584 7.79993 7.99995 7.79993Z" fill="white"/>
</svg>
