<svg width="20" height="20" viewBox="0 0 20 20" fill="none" xmlns="http://www.w3.org/2000/svg">
<path d="M12 0H9H8H5H4H1H0V13H1H4H5H8H9H12H13V0H12ZM8 1V4H5V1H8ZM8 5V8H5V5H8ZM1 1H4V4H1V1ZM1 5H4V8H1V5ZM1 12V9H4V12H1ZM5 12V9H8V12H5ZM12 12H9V9H12V12ZM12 8H9V5H12V8ZM12 4H9V1H12V4Z" fill="white"/>
<path d="M14 13.1C11 13.1 8 16.5 8 16.5C8 16.5 11 19.9 14 19.9C17 19.9 20 16.5 20 16.5C20 16.5 17 13.1 14 13.1ZM14 19.4C12.4 19.4 11.1 18.1 11.1 16.5C11.1 14.9 12.4 13.6 14 13.6C15.6 13.6 16.9 14.9 16.9 16.5C16.9 18.1 15.6 19.4 14 19.4Z" fill="white"/>
<path fill-rule="evenodd" clip-rule="evenodd" d="M12.4001 14.5C12.9001 14.5 13.2001 14.9 13.2001 15.3C13.2001 15.8 12.8001 16.1 12.4001 16.1C11.9001 16.1 11.6001 15.7 11.6001 15.3C11.6001 14.8 12.0001 14.5 12.4001 14.5Z" fill="white"/>
</svg>
