<svg width="16" height="16" viewBox="0 0 16 16" fill="none" xmlns="http://www.w3.org/2000/svg">
<path d="M3.09998 9.70007L0 11.9001L0.800049 12.9001L3.90002 10.5001L3.09998 9.70007Z" fill="white"/>
<path d="M12.7999 2.40002L10.8999 3.80002L11.7999 4.40002L13.6998 2.90002L12.7999 2.40002Z" fill="white"/>
<path d="M3.19995 2.40002L2.30005 2.90002L4.19995 4.40002L5.09998 3.80002L3.19995 2.40002Z" fill="white"/>
<path d="M12.9001 9.70007L12.1001 10.5001L15.2001 12.9001L16.0001 11.9001L12.9001 9.70007Z" fill="white"/>
<g opacity="0.5">
<path opacity="0.5" d="M12.8 7.00007C12.8 9.70007 10.6 12.3001 8 12.3001C5.4 12.3001 3.19995 9.70007 3.19995 7.00007C3.19995 6.80007 3.69995 7.60007 4.19995 8.10007C4.99995 8.90007 6.4 9.50007 8 9.50007C9.5 9.50007 10.9 8.90007 11.8 8.10007C12.3 7.60007 12.8 6.80007 12.8 7.00007Z" fill="white"/>
</g>
<path d="M8 4.60005C10.2 4.60005 11.8 5.60005 11.8 6.50005C11.8 7.40005 10.2 8.40005 8 8.40005C5.8 8.40005 4.19995 7.40005 4.19995 6.50005C4.19995 5.60005 5.8 4.60005 8 4.60005ZM8 3.80005C5.3 3.80005 3.19995 5.10005 3.19995 6.70005C3.19995 8.30005 5.4 9.60005 8 9.60005C10.6 9.60005 12.8 8.30005 12.8 6.70005C12.8 5.10005 10.6 3.80005 8 3.80005Z" fill="white"/>
</svg>
