<svg width="16" height="16" viewBox="0 0 16 16" fill="none" xmlns="http://www.w3.org/2000/svg">
<path d="M8.99995 3.40005C8.69995 3.40005 8.49995 3.30005 8.19995 3.30005C5.69995 3.30005 3.69995 5.30005 3.69995 7.80005C3.69995 10.3 5.69995 12.3 8.19995 12.3C8.49995 12.3 8.69995 12.3 8.99995 12.2V3.40005Z" fill="white"/>
<path d="M10 3.80005V12C11.6 11.3 12.7 9.70005 12.7 7.90005C12.7 6.10005 11.6 4.50005 10 3.80005Z" fill="white"/>
<path opacity="0.5" d="M9.5 0L0 3V13L9.5 16L16 12V4L9.5 0ZM1 3.7L9 1.2V14.8L1 12.3V3.7ZM15 11.4L10 14.5V1.5L15 4.6V11.4Z" fill="white"/>
</svg>
