<svg width="16" height="16" viewBox="0 0 16 16" fill="none" xmlns="http://www.w3.org/2000/svg">
<path d="M9 0H7V5H9V0Z" fill="white"/>
<path d="M3.93879 11.404L0.756836 14.5859L2.17104 16.0001L5.35299 12.8182L3.93879 11.404Z" fill="white"/>
<path d="M11.9972 11.3967L10.583 12.8109L13.765 15.9929L15.1792 14.5787L11.9972 11.3967Z" fill="white"/>
<path opacity="0.5" d="M8.0001 10.9C9.04944 10.9 9.9001 10.0493 9.9001 8.99998C9.9001 7.95063 9.04944 7.09998 8.0001 7.09998C6.95076 7.09998 6.1001 7.95063 6.1001 8.99998C6.1001 10.0493 6.95076 10.9 8.0001 10.9Z" fill="white"/>
<path opacity="0.5" d="M7.9999 14.1C5.1999 14.1 2.8999 11.8 2.8999 9.00002C2.8999 6.20002 5.1999 3.90002 7.9999 3.90002C10.7999 3.90002 13.0999 6.20002 13.0999 9.00002C13.0999 11.8 10.7999 14.1 7.9999 14.1ZM7.9999 5.10002C5.8999 5.10002 4.0999 6.90002 4.0999 9.00002C4.0999 11.1 5.7999 12.9 7.9999 12.9C10.1999 12.9 11.8999 11.2 11.8999 9.00002C11.8999 6.80002 10.0999 5.10002 7.9999 5.10002Z" fill="white"/>
</svg>
