<svg width="16" height="16" viewBox="0 0 16 16" fill="none" xmlns="http://www.w3.org/2000/svg">
<path opacity="0.5" fill-rule="evenodd" clip-rule="evenodd" d="M0 0V15H16V0H0ZM15 14H1V1H15V14Z" fill="white"/>
<path opacity="0.5" d="M15 1H1V4H15V1Z" fill="white"/>
<path d="M4.49005 5.00011C4.6051 4.998 4.71876 5.02551 4.82007 5.08007C4.86773 5.11095 4.90598 5.15442 4.93066 5.20556C4.95535 5.2567 4.96555 5.31358 4.96008 5.37011C4.96058 5.45071 4.93989 5.53 4.90009 5.60009L4.83008 5.75011H4.63007C4.5386 5.73974 4.44599 5.74856 4.35815 5.77611C4.27032 5.80367 4.18921 5.84939 4.12006 5.91015C4.02178 6.03122 3.97188 6.18436 3.98004 6.34008V7.34008C3.98588 7.50299 3.96216 7.6656 3.91003 7.82006C3.87618 7.93736 3.8183 8.04641 3.74005 8.14013C3.66968 8.22565 3.58076 8.294 3.48004 8.34008L3.17004 8.48009L3.48004 8.6101C3.57874 8.65947 3.66702 8.72744 3.74005 8.81017C3.8183 8.90389 3.87618 9.01281 3.91003 9.13012C3.96216 9.28458 3.98588 9.44718 3.98004 9.6101V10.6102C3.97422 10.7594 4.01626 10.9065 4.10004 11.0301C4.17152 11.0936 4.25596 11.1407 4.34747 11.1683C4.43898 11.196 4.53541 11.2034 4.63007 11.1901H5.00006V11.9401H4.36005C4.15726 11.9421 3.95524 11.9153 3.76007 11.8602C3.61137 11.8092 3.47506 11.7274 3.36005 11.6202C3.25391 11.5179 3.1749 11.3906 3.13007 11.2501C3.08512 11.0906 3.06158 10.9258 3.06006 10.7601V9.69005C3.06572 9.54999 3.04186 9.41039 2.99005 9.28014C2.94068 9.18145 2.87277 9.09316 2.79004 9.02013C2.69546 8.95611 2.59061 8.90874 2.48004 8.88012C2.35052 8.86431 2.21961 8.86431 2.09009 8.88012V8.88012V8.10009C2.2196 8.11599 2.35053 8.11599 2.48004 8.10009C2.59222 8.07618 2.69794 8.02842 2.79004 7.96007C2.87277 7.88704 2.94068 7.79876 2.99005 7.70006C3.04186 7.56981 3.06572 7.43021 3.06006 7.29015V6.29015C3.04973 6.17705 3.04973 6.06316 3.06006 5.95006C3.07107 5.81776 3.1119 5.68973 3.17944 5.57543C3.24698 5.46113 3.33949 5.36362 3.45007 5.29015C3.71331 5.12605 4.02021 5.04586 4.33008 5.06017L4.49005 5.00011Z" fill="white"/>
<path d="M7.24987 9.51016C7.2513 9.70739 7.17597 9.89747 7.03985 10.0402C6.96978 10.1085 6.88687 10.1621 6.79589 10.1982C6.70492 10.2342 6.60772 10.2519 6.50988 10.2502C6.30922 10.2542 6.11505 10.1788 5.96984 10.0402C5.89927 9.9713 5.84341 9.88873 5.8056 9.79764C5.76779 9.70655 5.74884 9.60879 5.74987 9.51016C5.74669 9.40828 5.76457 9.30684 5.80243 9.21219C5.84028 9.11755 5.89727 9.0317 5.96984 8.96012C6.11505 8.82156 6.30922 8.7461 6.50988 8.75016C6.60772 8.74838 6.70492 8.76599 6.79589 8.80203C6.88687 8.83808 6.96978 8.89181 7.03985 8.96012C7.17994 9.10839 7.25549 9.30625 7.24987 9.51016V9.51016Z" fill="white"/>
<path d="M10.2499 9.51016C10.2513 9.70739 10.176 9.89747 10.0399 10.0402C9.96978 10.1085 9.88687 10.1621 9.79589 10.1982C9.70492 10.2342 9.60772 10.2519 9.50988 10.2502C9.30922 10.2542 9.11505 10.1788 8.96984 10.0402C8.89927 9.9713 8.84341 9.88873 8.8056 9.79764C8.76779 9.70655 8.74884 9.60879 8.74987 9.51016C8.74669 9.40828 8.76457 9.30684 8.80243 9.21219C8.84028 9.11755 8.89727 9.0317 8.96984 8.96012C9.11505 8.82156 9.30922 8.7461 9.50988 8.75016C9.60772 8.74838 9.70492 8.76599 9.79589 8.80203C9.88687 8.83808 9.96978 8.89181 10.0399 8.96012C10.1799 9.10839 10.2555 9.30625 10.2499 9.51016V9.51016Z" fill="white"/>
<path d="M13.2499 9.51016C13.2513 9.70739 13.176 9.89747 13.0399 10.0402C12.9698 10.1085 12.8869 10.1621 12.7959 10.1982C12.7049 10.2342 12.6077 10.2519 12.5099 10.2502C12.3092 10.2542 12.1151 10.1788 11.9698 10.0402C11.8993 9.9713 11.8434 9.88873 11.8056 9.79764C11.7678 9.70655 11.7488 9.60879 11.7499 9.51016C11.7467 9.40828 11.7646 9.30684 11.8024 9.21219C11.8403 9.11755 11.8973 9.0317 11.9698 8.96012C12.1151 8.82156 12.3092 8.7461 12.5099 8.75016C12.6077 8.74838 12.7049 8.76599 12.7959 8.80203C12.8869 8.83808 12.9698 8.89181 13.0399 8.96012C13.1799 9.10839 13.2555 9.30625 13.2499 9.51016V9.51016Z" fill="white"/>
</svg>
