<svg width="16" height="16" viewBox="0 0 16 16" fill="none" xmlns="http://www.w3.org/2000/svg">
<path opacity="0.5" d="M9.19998 6.20001L6.99998 5.70001C6.89998 5.80001 6.79998 5.99998 6.69998 6.09998L8.09998 7.5L7.49998 8L5.99998 6.5C5.89998 6.6 5.69998 6.70001 5.59998 6.70001L6.19998 9.09998L5.49998 9.40002L4.89998 7C4.29998 7.2 3.59998 7.10001 3.29998 6.70001C2.99998 6.30001 2.79998 5.69998 2.99998 5.09998L0.599976 4.5L0.899976 3.79999L3.29998 4.40002C3.39998 4.30002 3.49998 4.1 3.49998 4L1.99998 2.5L2.49998 2L3.89998 3.40002C3.99998 3.30002 4.19998 3.19998 4.29998 3.09998L3.69998 0.799988L4.39998 0.5L4.89998 2.59998C5.79998 2.19998 6.69998 2.20001 7.19998 2.70001C7.69998 3.20001 7.69998 4.1 7.29998 5L9.39997 5.5L9.19998 6.20001Z" fill="white"/>
<path d="M9 13.2L6.8 10.9999L13.6 4.19995L15.8 6.39996L9 13.2ZM7.8 14.2999L5.7 12.2L4.5 15.4999L7.8 14.2999Z" fill="white"/>
</svg>
