<svg width="16" height="16" viewBox="0 0 16 16" fill="none" xmlns="http://www.w3.org/2000/svg">
<g clip-path="url(#clip0)">
<path d="M0.000110524 16V15.08C-0.0271775 14.5475 0.0576024 14.0152 0.248967 13.5176C0.440332 13.0199 0.734021 12.568 1.11104 12.1909C1.48806 11.8139 1.94001 11.5202 2.43768 11.3289C2.93534 11.1375 3.46762 11.0527 4.00011 11.08C4.5326 11.0527 5.06488 11.1375 5.56255 11.3289C6.06021 11.5202 6.51216 11.8139 6.88918 12.1909C7.2662 12.568 7.55989 13.0199 7.75125 13.5176C7.94262 14.0152 8.0274 14.5475 8.00011 15.08V16H0.000110524ZM4.00011 6.46001C3.57248 6.45803 3.15389 6.58303 2.79737 6.81917C2.44084 7.05531 2.16243 7.39196 1.99742 7.78647C1.8324 8.18098 1.78819 8.61559 1.8704 9.03525C1.95261 9.4549 2.15754 9.84071 2.45922 10.1438C2.7609 10.4469 3.14575 10.6536 3.56502 10.7378C3.98429 10.8219 4.41911 10.7797 4.81438 10.6165C5.20965 10.4533 5.54759 10.1765 5.78538 9.82108C6.02317 9.46566 6.15011 9.04765 6.15011 8.62001C6.15012 8.04888 5.92392 7.50098 5.521 7.09619C5.11808 6.6914 4.57124 6.46266 4.00011 6.46001Z" fill="white"/>
<path opacity="0.5" d="M11 0C8.24 0 6 1.51 6 3.38C6 4.74 7.2 5.91 8.92 6.44L7 10C7 10 10.92 6.75 11 6.75C13.76 6.75 16 5.24 16 3.38C16 1.52 13.76 0 11 0Z" fill="white"/>
</g>
<defs>
<clipPath id="clip0">
<rect width="16" height="16" fill="white"/>
</clipPath>
</defs>
</svg>
