<svg width="20" height="20" viewBox="0 0 20 20" fill="none" xmlns="http://www.w3.org/2000/svg">
<path opacity="0.5" d="M19 3H10V5H19V3Z" fill="white"/>
<path opacity="0.5" d="M19 9H10V11H19V9Z" fill="white"/>
<path opacity="0.5" d="M19 15H10V17H19V15Z" fill="white"/>
<path fill-rule="evenodd" clip-rule="evenodd" d="M6.21 1.32007L3.09 4.45007L1.79 3.15007L0.5 4.45007L3.09 7.03007L7.5 2.62007L6.21 1.32007Z" fill="white"/>
<path fill-rule="evenodd" clip-rule="evenodd" d="M6.31995 7.18018L3.03995 10.4602L1.67995 9.10018L0.319946 10.4602L3.03995 13.1802L7.67995 8.54018L6.31995 7.18018Z" fill="white"/>
<path fill-rule="evenodd" clip-rule="evenodd" d="M6.31995 13.1802L3.03995 16.4602L1.67995 15.1002L0.319946 16.4602L3.03995 19.1802L7.67995 14.5402L6.31995 13.1802Z" fill="white"/>
</svg>
