<svg width="16" height="16" viewBox="0 0 16 16" fill="none" xmlns="http://www.w3.org/2000/svg">
<path opacity="0.5" fill-rule="evenodd" clip-rule="evenodd" d="M10 10H5.41005L3.05005 14H12.95L11.69 11.87L10 13V10Z" fill="white"/>
<path d="M12.85 11.1L15 14.68C14.9594 14.774 14.8925 14.8542 14.8074 14.911C14.7222 14.9678 14.6224 14.9987 14.52 15H1.52C1.41091 15.0068 1.30238 14.9797 1.20929 14.9224C1.1162 14.8651 1.0431 14.7804 1 14.68L5.86 6.51L6 6.27V2C6 1.79 6 1.57 6 1.35C6 1.13 6 1.12 6 1H10.12C10.12 1.12 10.12 1.25 10.12 1.35C10.12 1.45 10.12 1.79 10.12 2V2.4L11.17 1.14C11.17 0.54 11.17 0 10.6 0H5.6C4.68 0 5 1.16 5 2V6L0 14.48C0 14.8831 0.160142 15.2697 0.445198 15.5548C0.730253 15.8399 1.11687 16 1.52 16H14.52C14.9162 15.9896 15.2926 15.8248 15.569 15.5409C15.8455 15.257 16.0001 14.8763 16 14.48L13.68 10.55L12.85 11.1Z" fill="white"/>
<path d="M14.83 0.0599976L12.11 4.72H16L10.94 10.94L12.94 6.28H9L14.83 0.0599976Z" fill="white"/>
</svg>
