<svg width="16" height="16" viewBox="0 0 16 16" fill="none" xmlns="http://www.w3.org/2000/svg">
<path fill-rule="evenodd" clip-rule="evenodd" d="M8 0.5C3.9 0.5 0.5 3.9 0.5 8C0.5 12.1 3.9 15.5 8 15.5C12.1 15.5 15.5 12.1 15.5 8C15.5 3.9 12.1 0.5 8 0.5ZM8 14.1C4.6 14.1 1.9 11.4 1.9 8C1.9 4.6 4.6 1.90002 8 1.90002C11.4 1.90002 14.1 4.6 14.1 8C14.1 11.4 11.4 14.1 8 14.1Z" fill="white"/>
<path fill-rule="evenodd" clip-rule="evenodd" d="M8.60003 3.19995H7.40002V8.49994L10.5 11.4999L11.4 10.5999L8.60003 7.99994V3.19995Z" fill="white"/>
</svg>
