<svg width="17" height="17" viewBox="0 0 17 17" fill="none" xmlns="http://www.w3.org/2000/svg">
<path fill-rule="evenodd" clip-rule="evenodd" d="M5.5 12.9L1.4 17C1.4 17 1 17 0.5 16.5C0 16 0 15.6 0 15.6L4.1 11.5L5.5 12.9Z" fill="white"/>
<path d="M9 14.5C12.5899 14.5 15.5 11.5899 15.5 8C15.5 4.41015 12.5899 1.5 9 1.5C5.41015 1.5 2.5 4.41015 2.5 8C2.5 11.5899 5.41015 14.5 9 14.5Z" stroke="white" stroke-width="1.0833" stroke-miterlimit="10"/>
<path opacity="0.5" d="M5 6H13V7H5V6ZM7 8H11V9H7V8ZM8 10H10V11H8V10Z" fill="white"/>
</svg>
