<svg width="16" height="16" viewBox="0 0 16 16" fill="none" xmlns="http://www.w3.org/2000/svg">
<path fill-rule="evenodd" clip-rule="evenodd" d="M16 4.75L8.5 9.51L1 4.75L8.5 0L16 4.75Z" fill="white"/>
<path opacity="0.5" fill-rule="evenodd" clip-rule="evenodd" d="M8.49991 11.41L4.28991 8.73999C4.20457 9.0665 4.16089 9.40251 4.15991 9.73999C4.15991 10.891 4.61716 11.9949 5.43107 12.8088C6.24498 13.6227 7.34887 14.08 8.49991 14.08C9.65095 14.08 10.7548 13.6227 11.5688 12.8088C12.3827 11.9949 12.8399 10.891 12.8399 9.73999C12.8389 9.40251 12.7953 9.0665 12.7099 8.73999L8.49991 11.41Z" fill="white"/>
<path fill-rule="evenodd" clip-rule="evenodd" d="M3 16H0L1 7H2L3 16Z" fill="white"/>
</svg>
