<svg width="16" height="16" viewBox="0 0 16 16" fill="none" xmlns="http://www.w3.org/2000/svg">
<path fill-rule="evenodd" clip-rule="evenodd" d="M7.49995 11.6C7.79995 11.6 8.09995 11.6 8.39995 11.5C8.09995 14 7.49995 16 7.49995 16C7.49995 16 6.89995 14 6.59995 11.5C6.89995 11.6 7.19995 11.6 7.49995 11.6ZM9.69995 6.3L9.09995 3.1C9.69995 2.8 10.1 2.4 10.1 2C10.1 1.2 8.89995 0.5 7.49995 0.5C5.99995 0.5 4.89995 1.2 4.89995 2C4.89995 2.5 5.29995 2.9 5.89995 3.1L5.29995 6.3C4.09995 6.7 3.19995 7.5 3.19995 8.3C3.19995 9.6 5.09995 10.7 7.39995 10.7C9.69995 10.7 11.6 9.6 11.6 8.3C11.7 7.5 10.9 6.8 9.69995 6.3Z" fill="white"/>
</svg>
