<svg xmlns="http://www.w3.org/2000/svg" viewBox="0 0 64 64">
<defs><style>.cls-1{fill:#1a1a1a;}.cls-2,.cls-4{fill:#fff;}.cls-2{fill-rule:evenodd;}.cls-3{fill:none;}</style></defs>
<path class="cls-1" d="M35.5,5.5A23,23,0,1,1,21.68,46.88L7.26,61.3s-1.23,0-2.9-1.66-1.66-2.9-1.66-2.9L17.12,42.32A23,23,0,0,1,35.5,5.5m0-2.25A25.28,25.28,0,0,0,10.25,28.5,25,25,0,0,0,14.2,42.06L1.1,55.15l-.63.63,0,.89c0,.52.1,2.38,2.32,4.57s4,2.31,4.49,2.31h.93l.66-.65L21.94,49.8a25,25,0,0,0,13.56,4,25.25,25.25,0,0,0,0-50.5Z"/>
<path class="cls-2" d="M21.44,47.13,7.26,61.3s-1.23,0-2.9-1.66-1.66-2.9-1.66-2.9L16.87,42.56Z"/>
<rect class="cls-3" width="64" height="64"/>
<circle fill="black" cx="35.5" cy="28.5" r="22.27"/>
<path class="cls-4" d="M35.5,7A21.54,21.54,0,1,1,14,28.5,21.56,21.56,0,0,1,35.5,7m0-1.46a23,23,0,1,0,23,23,23,23,0,0,0-23-23Z"/>
<path class="cls-2" d="M49.84,31.9a14.56,14.56,0,0,1-7.93,9.79L39.48,39,35.4,43.06a14.39,14.39,0,0,1-11.36-6,7.07,7.07,0,0,0,1.32.21A1.17,1.17,0,0,0,26.7,36V25.44a1.75,1.75,0,0,0-2.21-1.74c-1.82.41-3.23,4.92-3.23,4.92A14.49,14.49,0,0,1,33.59,14.26a5.61,5.61,0,0,0-3.1,4.49c0,2.47,1.5,2.18,1.94,1.82V34.84a2.42,2.42,0,0,0,.3.51,2.14,2.14,0,0,0,1.74.87c1.5,0,3.45-1.7,3.45-1.7V23a4,4,0,0,0-1.78-3.08,4.09,4.09,0,0,1,2.93.68,9.73,9.73,0,0,1,.77-.84A14.55,14.55,0,0,1,48,15.58h0s-4.26,3.31-4.26,7.76c0,3.31.09,11.38.09,11.38C45.37,36.24,47.72,34.05,49.84,31.9Z"/>
</svg>