<svg width="20" height="20" viewBox="0 0 20 20" fill="none" xmlns="http://www.w3.org/2000/svg">
<path d="M2.18998 10C2.1875 9.02328 2.38802 8.05671 2.77879 7.16156C3.16955 6.26641 3.74206 5.46223 4.46 4.8L6.99998 7.34V1H0.619974L3.17997 3.54C2.29257 4.36883 1.58649 5.37252 1.1063 6.4878C0.626111 7.60308 0.382241 8.80576 0.389993 10.02C0.371305 11.2029 0.595998 12.377 1.05015 13.4693C1.5043 14.5617 2.17823 15.549 3.03001 16.37C4.86586 18.0697 7.27817 19.0096 9.78001 19H9.99998V17.19H9.78001C7.75922 17.1932 5.80943 16.4447 4.30998 15.09C3.62567 14.4329 3.08423 13.6418 2.71946 12.766C2.35469 11.8902 2.17444 10.9486 2.18998 10Z" fill="white"/>
<path d="M18.6 10.0001C18.6177 8.81585 18.3925 7.64057 17.9385 6.54672C17.4844 5.45287 16.8111 4.46364 15.96 3.64006C14.0903 1.91116 11.6263 0.969236 9.08002 1.01006H9V2.81006H9.08002C11.15 2.77629 13.1554 3.53055 14.69 4.92006C15.3703 5.57759 15.9085 6.36764 16.2714 7.24139C16.6343 8.11515 16.8142 9.05404 16.8 10.0001C16.8054 10.9748 16.6072 11.94 16.218 12.8337C15.8288 13.7274 15.2573 14.53 14.54 15.1901L12 12.6501V19.0001H18.37L15.82 16.4601C16.7046 15.6338 17.4082 14.6332 17.8867 13.5213C18.3652 12.4094 18.6081 11.2105 18.6 10.0001Z" fill="white"/>
</svg>
