<svg width="20" height="20" viewBox="0 0 20 20" fill="none" xmlns="http://www.w3.org/2000/svg">
<g clip-path="url(#clip0_8250:14778)">
<path d="M9.00001 10.61C10.0923 11.6128 11.5172 12.1757 13 12.19V13.55C11.1386 13.549 9.34865 12.833 8.00001 11.55C7.35766 10.9322 6.84876 10.1893 6.50477 9.3672C6.16078 8.54506 5.98899 7.66112 6.00001 6.76998C5.99458 5.85664 6.17729 4.95198 6.53688 4.11238C6.89646 3.27279 7.42516 2.51627 8.08998 1.88998L6.17005 -0.0200195H10.97V4.76999L9.06007 2.85999C8.51864 3.35684 8.08682 3.96124 7.79237 4.63452C7.49792 5.3078 7.34723 6.03513 7.34999 6.76998C7.34259 7.48964 7.48554 8.20292 7.76966 8.86415C8.05379 9.52539 8.47285 10.12 9.00001 10.61ZM20 7.21999C20.0136 6.32701 19.843 5.44081 19.4989 4.61668C19.1548 3.79255 18.6446 3.04816 18 2.42998C16.6264 1.1229 14.796 0.405076 12.9 0.429977H12.83V1.77998H12.9C14.4311 1.75909 15.9122 2.32435 17.04 3.35999C17.5554 3.8543 17.9635 4.44947 18.2388 5.10841C18.5141 5.76735 18.6506 6.47594 18.64 7.18999C18.6409 7.92455 18.4894 8.65132 18.1951 9.32433C17.9007 9.99735 17.47 10.602 16.9301 11.1L15.02 9.17999V14H19.82L17.89 12.09C18.5592 11.4681 19.092 10.7143 19.4552 9.87606C19.8184 9.03786 20.0039 8.13347 20 7.21999Z" fill="white"/>
<path opacity="0.5" d="M9.28006 18.0001C8.56488 18.3289 7.78715 18.4994 7.00003 18.5001C5.54215 18.4975 4.1448 17.9172 3.11392 16.8863C2.08304 15.8554 1.50267 14.458 1.50003 13.0001C1.50071 12.213 1.67126 11.4353 2.00003 10.7201V8.11011C0.713812 9.41207 -0.00516242 11.17 2.79078e-05 13.0001C2.79078e-05 14.8566 0.737566 16.6371 2.05032 17.9499C3.36308 19.2626 5.14351 20.0001 7.00003 20.0001C8.83017 20.0053 10.5881 19.2863 11.89 18.0001H9.28006Z" fill="white"/>
<path opacity="0.5" d="M12.2801 15.0001C11.5649 15.3289 10.7872 15.4994 10 15.5001C8.54215 15.4975 7.1448 14.9172 6.11392 13.8863C5.08304 12.8554 4.50267 11.458 4.50003 10.0001C4.50071 9.21298 4.67126 8.43528 5.00003 7.72011V5.11011C3.71381 6.41207 2.99484 8.16996 3.00003 10.0001C3.00003 11.8566 3.73757 13.6371 5.05032 14.9499C6.36308 16.2626 8.14351 17.0001 10 17.0001C11.8302 17.0053 13.5881 16.2863 14.89 15.0001H12.2801Z" fill="white"/>
</g>
<defs>
<clipPath id="clip0_8250:14778">
<rect width="20" height="20" fill="white"/>
</clipPath>
</defs>
</svg>
