<svg width="16" height="16" viewBox="0 0 16 16" fill="none" xmlns="http://www.w3.org/2000/svg">
<path d="M14.16 11.34C13.8541 11.9456 13.4635 12.5046 13 13.0001C12.021 13.9789 10.7737 14.6456 9.41589 14.9156C8.05805 15.1856 6.65062 15.047 5.37158 14.5171C4.09254 13.9873 2.99933 13.0901 2.23019 11.939C1.46106 10.7878 1.05054 9.43448 1.05054 8.05004C1.05054 6.6656 1.46106 5.31225 2.23019 4.16112C2.99933 3.01 4.09254 2.1128 5.37158 1.58297C6.65062 1.05313 8.05805 0.914462 9.41589 1.1845C10.7737 1.45454 12.021 2.12116 13 3.10006C13.4482 3.54439 13.8319 4.0493 14.14 4.60006" stroke="white" stroke-width="1.5" stroke-miterlimit="10"/>
<path d="M7.90991 4.5L4.40991 8L7.90991 11.5" stroke="white" stroke-width="2" stroke-miterlimit="10" stroke-linecap="round"/>
<path d="M14.4099 8H5.40991" stroke="white" stroke-width="2" stroke-miterlimit="10" stroke-linecap="round"/>
</svg>
