<svg width="20" height="20" viewBox="0 0 20 20" fill="none" xmlns="http://www.w3.org/2000/svg">
<path opacity="0.5" fill-rule="evenodd" clip-rule="evenodd" d="M6 15V5H3V15H6Z" fill="white"/>
<path opacity="0.5" fill-rule="evenodd" clip-rule="evenodd" d="M2 13V7H0V13H2Z" fill="white"/>
<path fill-rule="evenodd" clip-rule="evenodd" d="M7 2V18H20V2H7ZM13.5 15.37C12.4355 15.37 11.395 15.0542 10.51 14.4626C9.62506 13.871 8.93547 13.0302 8.52856 12.0465C8.12166 11.0629 8.01572 9.98063 8.22412 8.93674C8.43252 7.89285 8.94593 6.93423 9.69934 6.18222C10.4527 5.43021 11.4123 4.91862 12.4565 4.71216C13.5008 4.5057 14.5829 4.61367 15.5658 5.0224C16.5487 5.43113 17.3882 6.12225 17.9781 7.0083C18.5681 7.89435 18.882 8.93551 18.88 10C18.88 10.706 18.7408 11.4051 18.4703 12.0573C18.1998 12.7095 17.8034 13.3019 17.3036 13.8007C16.8039 14.2995 16.2108 14.6948 15.5581 14.9641C14.9054 15.2334 14.206 15.3713 13.5 15.37Z" fill="white"/>
<path fill-rule="evenodd" clip-rule="evenodd" d="M13.5 6C12.7089 6 11.9355 6.23461 11.2777 6.67413C10.6199 7.11366 10.1073 7.73836 9.80451 8.46927C9.50176 9.20017 9.42251 10.0044 9.57685 10.7804C9.73119 11.5563 10.1122 12.269 10.6716 12.8284C11.231 13.3878 11.9437 13.7688 12.7197 13.9231C13.4956 14.0775 14.2999 13.9983 15.0308 13.6955C15.7617 13.3928 16.3863 12.8801 16.8259 12.2223C17.2654 11.5645 17.5 10.7911 17.5 10C17.5 8.93913 17.0786 7.92172 16.3284 7.17157C15.5783 6.42142 14.5609 6 13.5 6ZM16 11H13L13 7H14V10H16V11Z" fill="white"/>
</svg>
