<svg width="16" height="16" viewBox="0 0 16 16" fill="none" xmlns="http://www.w3.org/2000/svg">
<path fill-rule="evenodd" clip-rule="evenodd" d="M0 4V12C0 12.2652 0.105357 12.5196 0.292893 12.7071C0.48043 12.8946 0.734784 13 1 13H15C15.2652 13 15.5196 12.8946 15.7071 12.7071C15.8946 12.5196 16 12.2652 16 12V4C16 3.73478 15.8946 3.48043 15.7071 3.29289C15.5196 3.10536 15.2652 3 15 3H1C0.734784 3 0.48043 3.10536 0.292893 3.29289C0.105357 3.48043 0 3.73478 0 4H0ZM10 4H12V6H10V4ZM14 7V9H11V7H14ZM7 4H9V6H7V4ZM10 7V9H8V7H10ZM4 4H6V6H4V4ZM7 7V9H5V7H7ZM1 4H3V6H1V4ZM4 7V9H2V7H4ZM3 12H1V10H3V12ZM12 12H4V10H12V12ZM15 12H13V10H15V12ZM15 6H13V4H15V6Z" fill="white"/>
</svg>
