<svg width="20" height="20" viewBox="0 0 20 20" fill="none" xmlns="http://www.w3.org/2000/svg">
<path fill-rule="evenodd" clip-rule="evenodd" d="M10 5C4 5 0.25 10.5 0.25 10.5C0.25 10.5 4 16 10 16C16 16 19.75 10.5 19.75 10.5C19.75 10.5 16 5 10 5ZM10 15.25C8.74022 15.25 7.53203 14.7496 6.64124 13.8588C5.75044 12.968 5.25 11.7598 5.25 10.5C5.25 9.24022 5.75044 8.03203 6.64124 7.14124C7.53203 6.25044 8.74022 5.75 10 5.75C11.2598 5.75 12.468 6.25044 13.3588 7.14124C14.2496 8.03203 14.75 9.24022 14.75 10.5C14.75 11.7598 14.2496 12.968 13.3588 13.8588C12.468 14.7496 11.2598 15.25 10 15.25Z" fill="white"/>
<path fill-rule="evenodd" clip-rule="evenodd" d="M7.46997 7.19995C7.83332 7.19995 8.1818 7.34439 8.43872 7.60132C8.69565 7.85824 8.83997 8.2066 8.83997 8.56995C8.83997 8.93329 8.69565 9.28177 8.43872 9.5387C8.1818 9.79562 7.83332 9.93994 7.46997 9.93994C7.10662 9.93994 6.75815 9.79562 6.50122 9.5387C6.2443 9.28177 6.09998 8.93329 6.09998 8.56995C6.09998 8.2066 6.2443 7.85824 6.50122 7.60132C6.75815 7.34439 7.10662 7.19995 7.46997 7.19995Z" fill="white"/>
</svg>
