<svg xmlns="http://www.w3.org/2000/svg" viewBox="0 0 16 16"><defs><style>.cls-1,.cls-2{fill:#fff;}.cls-1{fill-opacity:0.5;}.cls-3{fill:none;}</style></defs><g id="Layer_2" data-name="Layer 2"><g id="Layer_3" data-name="Layer 3"><g id="profile"><rect class="cls-1" x="1.5" y="6.5" width="2" height="5" transform="translate(11.5 6.5) rotate(90)"/><rect class="cls-2" x="4.5" y="-4.5" width="2" height="11" transform="translate(6.5 -4.5) rotate(90)"/><rect class="cls-1" x="2.5" y="1.5" width="2" height="7" transform="translate(8.5 1.5) rotate(90)"/><path class="cls-2" d="M10,9.11c-3,0-6,3.39-6,3.39s3,3.39,6,3.39,6-3.39,6-3.39S13,9.11,10,9.11Zm0,6.26a2.87,2.87,0,1,1,2.87-2.87A2.87,2.87,0,0,1,10,15.37ZM8.43,10.46a.85.85,0,1,1-.85.84A.85.85,0,0,1,8.43,10.46Z"/><rect class="cls-3" width="16" height="16"/></g></g></g></svg>