<svg width="16" height="16" viewBox="0 0 16 16" fill="none" xmlns="http://www.w3.org/2000/svg">
<path d="M8.00005 2.5C4.00005 2.5 1.30005 6.5 1.30005 6.5C1.30005 6.5 4.00005 10.5 8.00005 10.5C12 10.5 14.7 6.5 14.7 6.5C14.7 6.5 12 2.5 8.00005 2.5ZM8.00005 10.1C6.00005 10.1 4.40005 8.5 4.40005 6.5C4.40005 4.5 6.00005 2.90002 8.00005 2.90002C10 2.90002 11.6 4.5 11.6 6.5C11.6 8.5 10 10.1 8.00005 10.1Z" fill="white"/>
<path d="M8.9 6.49994C9.39706 6.49994 9.8 6.09697 9.8 5.59991C9.8 5.10286 9.39706 4.69995 8.9 4.69995C8.40294 4.69995 8 5.10286 8 5.59991C8 6.09697 8.40294 6.49994 8.9 6.49994Z" fill="white"/>
<path d="M15 1V12H1V1H15ZM16 0H0V13H16V0Z" fill="white"/>
<path opacity="0.5" fill-rule="evenodd" clip-rule="evenodd" d="M2 15.9999C6 13.3999 8 14.0999 8 14.0999C8 14.0999 10 13.4999 14 15.9999C10 15.9999 6 15.9999 2 15.9999Z" fill="white"/>
</svg>
