<svg width="16" height="16" viewBox="0 0 16 16" fill="none" xmlns="http://www.w3.org/2000/svg">
<path opacity="0.5" d="M1 16.0001C1.1 15.8001 3.69999 10.4001 6.89999 7.2001C9.29999 4.8001 12.5 3.2001 12.6 3.1001L13.4 4.3001C13.4 4.3001 9.7 6.0001 7.2 8.2001C3.9 11.1001 1 16.0001 1 16.0001Z" fill="white"/>
<path opacity="0.5" d="M3 16C3 16 4.50001 14.5 7.10001 13.3C9.20001 12.4 11.1 12 11.1 12L11.3 13.1C11 13.2 9.19999 13.5 7.39999 14C4.99999 14.9 3 16 3 16Z" fill="white"/>
<path opacity="0.5" d="M1.09999 14.8C1.09999 14.7 0.999986 12.7 1.09999 10.9C1.19999 9.29995 1.69998 7.39995 2.29998 5.69995H2.59999L3.29998 5.99995L3.69998 6.29995C2.89998 7.79995 2.09999 8.99995 1.59999 10.7C1.09999 12.5 1.09999 14.8 1.09999 14.8Z" fill="white"/>
<path fill-rule="evenodd" clip-rule="evenodd" d="M0.0999756 5.79995L2.59998 5.99995L3.89996 8.19995L4.79997 5.89995L7.29997 5.29995L5.39996 3.69995L5.69997 1.19995L3.49997 2.49995L1.19997 1.49995L1.79997 3.89995L0.0999756 5.79995Z" fill="white"/>
<path fill-rule="evenodd" clip-rule="evenodd" d="M9.19997 15.3001L11.5 14.3001L13.7 15.6001L13.4 13.1001L15.3 11.4001L12.8 10.9001L11.8 8.6001L10.6 10.8001L8.09998 11.0001L9.79997 12.9001L9.19997 15.3001Z" fill="white"/>
<path fill-rule="evenodd" clip-rule="evenodd" d="M12.1 6.9L13.5 5.1L15.7 5.2L14.5 3.3L15.2 1.2L13.1 1.9L11.3 0.5V2.7L9.40002 4L11.5 4.7L12.1 6.9Z" fill="white"/>
</svg>
