<svg width="16" height="16" viewBox="0 0 16 16" fill="none" xmlns="http://www.w3.org/2000/svg">
<path opacity="0.5" d="M4 9H7L7 4H4V9Z" fill="white"/>
<path d="M8 9H11L11 0H8V9Z" fill="white"/>
<path d="M12 9H15V2H12V9Z" fill="white"/>
<path opacity="0.5" d="M0 9H3L3 6H0L0 9Z" fill="white"/>
<path d="M8.00008 10.5C5.50008 10.5 3.83008 13 3.83008 13C3.83008 13 5.50008 15.5 8.00008 15.5C10.5001 15.5 12.1701 13 12.1701 13C12.1701 13 10.5001 10.5 8.00008 10.5Z" stroke="white" stroke-width="0.97" stroke-miterlimit="10"/>
<path d="M8.00012 14.39C7.72564 14.388 7.45788 14.3048 7.23062 14.1509C7.00335 13.997 6.82675 13.7792 6.72308 13.525C6.6194 13.2709 6.5933 12.9917 6.64806 12.7228C6.70281 12.4538 6.83598 12.207 7.03077 12.0137C7.22556 11.8203 7.47324 11.6889 7.7426 11.636C8.01196 11.5832 8.29092 11.6113 8.54433 11.7168C8.79774 11.8223 9.01424 12.0005 9.16654 12.2288C9.31883 12.4572 9.40011 12.7255 9.40012 13C9.40012 13.1834 9.36384 13.365 9.29336 13.5343C9.22288 13.7036 9.1196 13.8572 8.98947 13.9864C8.85933 14.1156 8.70492 14.2178 8.53512 14.2871C8.36532 14.3564 8.18349 14.3913 8.00012 14.39Z" fill="white"/>
</svg>
