<svg width="16" height="16" viewBox="0 0 16 16" fill="none" xmlns="http://www.w3.org/2000/svg">
<path fill-rule="evenodd" clip-rule="evenodd" d="M13.9 6.80008L15.7 5.00009C16.1 6.10009 15.9 7.30007 15 8.10007C14.2 8.90007 13 9.20008 11.9 8.80008L6.80005 13.9001C6.80005 14.4001 6.60005 15.0001 6.20005 15.4001C5.40005 16.2001 4.20005 16.2001 3.40005 15.4001C2.60005 14.6001 2.60005 13.4001 3.40005 12.6001C3.80005 12.2001 4.40005 12.0001 4.90005 12.1001L10 7.00009C9.60005 6.00009 9.90005 4.70011 10.7 3.90011C11.6 3.00011 12.8 2.8001 13.9 3.2001L12.1 5.00009C11.6 5.50009 11.6 6.3001 12.1 6.7001C12.7 7.3001 13.5 7.30008 13.9 6.80008ZM5.60005 13.4001C5.20005 13.0001 4.70005 13.0001 4.30005 13.4001C3.90005 13.8001 3.90005 14.3001 4.30005 14.7001C4.70005 15.1001 5.20005 15.1001 5.60005 14.7001C6.00005 14.3001 6.00005 13.8001 5.60005 13.4001Z" fill="white"/>
<path opacity="0.5" d="M9.19998 6.20001L6.99998 5.70001C6.89998 5.80001 6.79998 5.99998 6.69998 6.09998L8.09998 7.5L7.49998 8L5.99998 6.5C5.89998 6.6 5.69998 6.70001 5.59998 6.70001L6.19998 9.09998L5.49998 9.40002L4.89998 7C4.29998 7.2 3.59998 7.10001 3.29998 6.70001C2.99998 6.30001 2.79998 5.69998 2.99998 5.09998L0.599976 4.5L0.899976 3.79999L3.29998 4.40002C3.39998 4.30002 3.49998 4.1 3.49998 4L1.99998 2.5L2.49998 2L3.89998 3.40002C3.99998 3.30002 4.19998 3.19998 4.29998 3.09998L3.69998 0.799988L4.39998 0.5L4.89998 2.59998C5.79998 2.19998 6.69998 2.20001 7.19998 2.70001C7.69998 3.20001 7.69998 4.1 7.29998 5L9.39997 5.5L9.19998 6.20001Z" fill="white"/>
</svg>
