<svg width="16" height="16" viewBox="0 0 16 16" fill="none" xmlns="http://www.w3.org/2000/svg">
<path d="M16 15H11V13V9H12C12.6 9 13 9.4 13 10V11.5C13 12.3 13.7 13 14.5 13H16V15ZM11 6V8H12.5C13.3 8 14 8.7 14 9.5V11C14 11.6 14.4 12 15 12H16V6H11Z" fill="white"/>
<path opacity="0.5" d="M4 14V13.5C4 11.6 5.3 10.5 7 10.5C8.6 10.5 10 11.6 10 13.5V14H4ZM7 6.30005C6 6.30005 5.2 7.10005 5.2 8.10005C5.2 9.10005 6 9.90005 7 9.90005C8 9.90005 8.8 9.10005 8.8 8.10005C8.8 7.10005 8 6.30005 7 6.30005Z" fill="white"/>
<path d="M16 1H5V4H16V1Z" fill="white"/>
<path d="M3 1H0V14H3V1Z" fill="white"/>
</svg>
