<svg width="20" height="20" viewBox="0 0 20 20" fill="none" xmlns="http://www.w3.org/2000/svg">
<path fill-rule="evenodd" clip-rule="evenodd" d="M9 18.21C7.55 16.66 5.99993 14.01 6.17993 12.88C6.48993 11.07 7.6499 11.15 7.6499 11.15C7.6499 11.15 5.26011 9.81997 4.86011 8.96997C4.46011 8.11997 3.08008 7.57005 2.58008 6.30005C3.26441 4.91864 4.32042 3.7554 5.62939 2.94104C6.93837 2.12668 8.44837 1.69337 9.98999 1.68994C11.394 1.69981 12.7718 2.07188 13.99 2.77002C13.435 3.93135 12.6686 4.97917 11.73 5.85999C10.67 6.77999 12.96 8.16001 12.25 9.01001C11.54 9.86001 11.25 8.71006 10.7 7.81006C10.32 7.15006 9.20995 7.33 8.44995 7.37C5.85995 7.5 6.7999 11.37 8.8999 10.86C10.3099 10.5 11.1799 10.35 12.4299 11.36C13.3199 12.07 13.4299 13.52 12.4299 14.78C11.7299 15.67 11.7201 17.11 11.5601 18.15C11.0365 18.2547 10.5039 18.3084 9.96997 18.3101C9.64492 18.2962 9.32103 18.2627 9 18.21Z" fill="white"/>
<path opacity="0.5" fill-rule="evenodd" clip-rule="evenodd" d="M9.99976 1.08984C12.3628 1.08984 14.6291 2.02864 16.3 3.69958C17.971 5.37053 18.9097 7.6368 18.9097 9.99988C18.9097 12.363 17.971 14.6292 16.3 16.3002C14.6291 17.9711 12.3628 18.9099 9.99976 18.9099C7.63668 18.9099 5.37041 17.9711 3.69946 16.3002C2.02851 14.6292 1.08984 12.363 1.08984 9.99988C1.08984 7.6368 2.02851 5.37053 3.69946 3.69958C5.37041 2.02864 7.63668 1.08984 9.99976 1.08984Z" fill="white"/>
</svg>
