<svg width="16" height="16" viewBox="0 0 16 16" fill="none" xmlns="http://www.w3.org/2000/svg">
<path fill-rule="evenodd" clip-rule="evenodd" d="M7.17001 14.92C6.00001 13.61 4.63001 11.38 4.79001 10.42C5.05001 8.9 6.00001 9 6.00001 9C6.00001 9 4.00001 7.85 3.68001 7.13C3.36001 6.41 2.18001 6 1.76001 4.88C2.17072 4.02792 2.75225 3.26938 3.46846 2.6515C4.18468 2.03362 5.02028 1.56961 5.92338 1.28827C6.82648 1.00693 7.77777 0.914279 8.71818 1.01607C9.65859 1.11787 10.568 1.41193 11.39 1.88C10.9151 2.85464 10.2681 3.73545 9.48001 4.48C8.59001 5.25 10.48 6.42 9.92001 7.14C9.36001 7.86 9.05001 6.89 8.61001 6.14C8.29001 5.59 7.36001 5.74 6.72001 5.77C4.54001 5.89 5.33001 9.18 7.10001 8.77C7.5874 8.54366 8.12978 8.46289 8.66197 8.53739C9.19417 8.6119 9.69352 8.83851 10.1 9.19C10.292 9.37642 10.4447 9.59948 10.5489 9.84597C10.6532 10.0925 10.7069 10.3574 10.7069 10.625C10.7069 10.8926 10.6532 11.1575 10.5489 11.404C10.4447 11.6505 10.292 11.8736 10.1 12.06C9.63337 12.9384 9.3831 13.9154 9.37001 14.91C8.91716 14.9827 8.45849 15.0129 8.00001 15C7.72204 14.9892 7.44493 14.9625 7.17001 14.92Z" fill="white"/>
<path opacity="0.5" fill-rule="evenodd" clip-rule="evenodd" d="M8 0.5C9.48336 0.5 10.9334 0.939867 12.1668 1.76398C13.4001 2.58809 14.3614 3.75943 14.9291 5.12987C15.4968 6.50032 15.6453 8.00832 15.3559 9.46318C15.0665 10.918 14.3522 12.2544 13.3033 13.3033C12.2544 14.3522 10.918 15.0665 9.46318 15.3559C8.00832 15.6453 6.50032 15.4968 5.12987 14.9291C3.75943 14.3614 2.58809 13.4001 1.76398 12.1668C0.939867 10.9334 0.5 9.48336 0.5 8C0.5 6.01088 1.29018 4.10322 2.6967 2.6967C4.10322 1.29018 6.01088 0.5 8 0.5Z" fill="white"/>
</svg>
