<svg xmlns="http://www.w3.org/2000/svg" viewBox="0 0 20 20"><defs><style>.cls-1,.cls-2{fill:#fff;}.cls-2{opacity:0.5;}.cls-3{fill:none;}</style></defs><g id="Layer_2" data-name="Layer 2"><g id="Layer_4" data-name="Layer 4"><g id="Blueprint"><rect class="cls-1" x="14" y="1" width="6" height="5" rx="1"/><rect class="cls-1" x="0.5" y="5.5" width="5" height="6" rx="1" transform="translate(-5.5 11.5) rotate(-90)"/><path class="cls-1" d="M15,10a5,5,0,1,0,5,5A5,5,0,0,0,15,10Zm2.91,3.4-3.57,4.84-2.49-2.5a.75.75,0,0,1,1.06-1.06l1.26,1.26,2.53-3.43a.75.75,0,0,1,1.21.89Z"/><path class="cls-2" d="M15,3H10.25A1.25,1.25,0,0,0,9,4.25V8H5V9H9v3.26a6.69,6.69,0,0,1,1-1.56v-6A.73.73,0,0,1,10.73,4H15Z"/><rect class="cls-3" width="20" height="20" transform="translate(0 20) rotate(-90)"/></g></g></g></svg>