<svg width="16" height="16" viewBox="0 0 16 16" fill="none" xmlns="http://www.w3.org/2000/svg">
<path d="M9.89 3L13 6.11V9.89L9.89 13H6.11L3 9.89V6.11L6.11 3H9.89ZM10.31 2H5.69L2 5.69V10.31L5.69 14H10.31L14 10.31V5.69L10.31 2Z" fill="black"/>
<path d="M10.28 2L14 5.72V10.28L10.28 14H5.72L2 10.28V5.72L5.72 2H10.28ZM10.69 1H5.31L1 5.31V10.69L5.31 15H10.69L15 10.69V5.31L10.69 1Z" fill="white"/>
<path d="M10.66 1L15 5.34V10.66L10.66 15H5.34L1 10.66V5.34L5.34 1H10.66ZM11.08 0H4.92L0 4.92V11.08L4.92 16H11.08L16 11.08V4.92L11.08 0Z" fill="black"/>
</svg>
