<svg width="20" height="20" viewBox="0 0 20 20" fill="none" xmlns="http://www.w3.org/2000/svg">
<path d="M6.99998 15.0001V17.0001C7.00881 17.1337 6.98901 17.2677 6.94188 17.393C6.89475 17.5183 6.82139 17.6321 6.72671 17.7268C6.63202 17.8215 6.51821 17.8949 6.39287 17.942C6.26754 17.9891 6.13358 18.0089 5.99998 18.0001H2.99998C2.86637 18.0089 2.73241 17.9891 2.60708 17.942C2.48174 17.8949 2.36793 17.8215 2.27324 17.7268C2.17856 17.6321 2.1052 17.5183 2.05807 17.393C2.01094 17.2677 1.99114 17.1337 1.99998 17.0001V15.0001C1.99114 14.8665 2.01094 14.7325 2.05807 14.6072C2.1052 14.4819 2.17856 14.368 2.27324 14.2734C2.36793 14.1787 2.48174 14.1053 2.60708 14.0582C2.73241 14.0111 2.86637 13.9913 2.99998 14.0001H5.99998C6.13358 13.9913 6.26754 14.0111 6.39287 14.0582C6.51821 14.1053 6.63202 14.1787 6.72671 14.2734C6.82139 14.368 6.89475 14.4819 6.94188 14.6072C6.98901 14.7325 7.00881 14.8665 6.99998 15.0001Z" fill="white"/>
<path d="M19 5.00012V7.00012C19 7.26534 18.8946 7.51969 18.7071 7.70723C18.5196 7.89477 18.2652 8.00012 18 8.00012H15C14.7348 8.00012 14.4804 7.89477 14.2929 7.70723C14.1054 7.51969 14 7.26534 14 7.00012V5.00012C14 4.73491 14.1054 4.48055 14.2929 4.29302C14.4804 4.10548 14.7348 4.00012 15 4.00012H18C18.2652 4.00012 18.5196 4.10548 18.7071 4.29302C18.8946 4.48055 19 4.73491 19 5.00012Z" fill="white"/>
<path d="M9.00002 3.7501V7.2501C9.02256 7.47279 8.99783 7.69773 8.92744 7.91021C8.85706 8.12268 8.7426 8.3179 8.59157 8.48309C8.44054 8.64828 8.25633 8.77972 8.051 8.86882C7.84567 8.95791 7.62384 9.00265 7.40002 9.0001H2.60002C2.37621 9.00265 2.15438 8.95791 1.94905 8.86882C1.74372 8.77972 1.55951 8.64828 1.40848 8.48309C1.25745 8.3179 1.14299 8.12268 1.07261 7.91021C1.00222 7.69773 0.977487 7.47279 1.00002 7.2501V3.7501C0.977487 3.52741 1.00222 3.30247 1.07261 3.09C1.14299 2.87753 1.25745 2.68231 1.40848 2.51712C1.55951 2.35193 1.74372 2.22048 1.94905 2.13139C2.15438 2.0423 2.37621 1.99756 2.60002 2.0001H7.40002C7.62384 1.99756 7.84567 2.0423 8.051 2.13139C8.25633 2.22048 8.44054 2.35193 8.59157 2.51712C8.7426 2.68231 8.85706 2.87753 8.92744 3.09C8.99783 3.30247 9.02256 3.52741 9.00002 3.7501Z" fill="white"/>
<path opacity="0.5" d="M15 6.00012L5.09 5.97012L5 5.00012H15V6.00012Z" fill="white"/>
<path opacity="0.5" d="M5 15.0001L5 5.00012H4L4 15.0001H5Z" fill="white"/>
<path opacity="0.5" d="M14.4074 14.0913L7.29395 6.97778L6.58684 7.68489L13.7003 14.7984L14.4074 14.0913Z" fill="white"/>
<path d="M18 14.0001V16.0001C18 16.2653 17.8946 16.5197 17.7071 16.7072C17.5196 16.8948 17.2652 17.0001 17 17.0001H14C13.7348 17.0001 13.4804 16.8948 13.2929 16.7072C13.1054 16.5197 13 16.2653 13 16.0001V14.0001C13 13.7349 13.1054 13.4806 13.2929 13.293C13.4804 13.1055 13.7348 13.0001 14 13.0001H17C17.2652 13.0001 17.5196 13.1055 17.7071 13.293C17.8946 13.4806 18 13.7349 18 14.0001Z" fill="white"/>
</svg>
