<svg width="16" height="16" viewBox="0 0 16 16" fill="none" xmlns="http://www.w3.org/2000/svg">
<g clip-path="url(#clip0)">
<path fill-rule="evenodd" clip-rule="evenodd" d="M4 10.5L0 14.5699C0.0497835 14.9293 0.231594 15.2572 0.51 15.4899C0.742646 15.7683 1.07062 15.9501 1.43 15.9999L5.5 12L4.5 11.5L4 10.5Z" fill="white"/>
<path d="M8.99997 14.0998C7.60141 14.1097 6.2315 13.7034 5.0645 12.9325C3.89751 12.1617 2.98616 11.0612 2.44637 9.77092C1.90659 8.48068 1.76276 7.05904 2.03319 5.68684C2.30362 4.31463 2.97609 3.05386 3.96505 2.0649C4.95401 1.07594 6.21477 0.403478 7.58698 0.133048C8.95919 -0.137382 10.3808 0.00644231 11.6711 0.546227C12.9613 1.08601 14.0618 1.99736 14.8327 3.16436C15.6035 4.33136 16.0099 5.70126 16 7.09983C16 8.95634 15.2625 10.7368 13.9497 12.0496C12.637 13.3623 10.8565 14.0998 8.99997 14.0998ZM8.99997 1.04983C7.81329 1.04983 6.65325 1.45172 5.66655 2.11101C4.67986 2.7703 3.91082 3.70737 3.4567 4.80373C3.00257 5.90008 2.88375 7.10648 3.11526 8.27037C3.34677 9.43426 3.91822 10.5034 4.75733 11.3425C5.59645 12.1816 6.66555 12.753 7.82943 12.9845C8.99332 13.2161 10.1997 13.0972 11.2961 12.6431C12.3924 12.189 13.3295 11.4199 13.9888 10.4332C14.6481 9.44655 15 8.28652 15 7.09983C15.0066 6.3077 14.8563 5.5221 14.5577 4.78837C14.2591 4.05463 13.8182 3.38729 13.2604 2.82483C12.7026 2.26237 12.0389 1.81594 11.3077 1.51129C10.5765 1.20664 9.79213 1.0498 8.99997 1.04983Z" fill="white"/>
<path opacity="0.5" d="M11 3.99983H6.99995C6.98387 3.86464 6.99867 3.72755 7.04324 3.59891C7.08781 3.47026 7.16099 3.35341 7.25726 3.25713C7.35353 3.16086 7.47039 3.08769 7.59903 3.04312C7.72768 2.99855 7.86476 2.98375 7.99995 2.99983H9.99995C10.1343 2.98753 10.2698 3.00496 10.3967 3.05086C10.5236 3.09677 10.6389 3.17003 10.7343 3.26547C10.8297 3.3609 10.903 3.47615 10.9489 3.60306C10.9948 3.72998 11.0122 3.86543 11 3.99983Z" fill="white"/>
<path opacity="0.5" d="M12.43 5.99988H5.57996C5.44735 5.99988 5.32017 5.9472 5.2264 5.85343C5.13263 5.75966 5.07996 5.63249 5.07996 5.49988C5.07996 5.36727 5.13263 5.24009 5.2264 5.14632C5.32017 5.05256 5.44735 4.99988 5.57996 4.99988H12.43C12.5626 4.99988 12.6897 5.05256 12.7835 5.14632C12.8773 5.24009 12.93 5.36727 12.93 5.49988C12.93 5.63249 12.8773 5.75966 12.7835 5.85343C12.6897 5.9472 12.5626 5.99988 12.43 5.99988Z" fill="white"/>
<path opacity="0.5" d="M11 7.0498L10.49 9.9998H7.49L7 7.0498H6L6.42 10.5398C6.43453 10.6849 6.50142 10.8198 6.60817 10.9192C6.71491 11.0186 6.85421 11.0757 7 11.0798H11C11.1447 11.0754 11.2828 11.018 11.3879 10.9184C11.493 10.8188 11.5578 10.6841 11.57 10.5398L12 7.0498H11Z" fill="white"/>
</g>
<defs>
<clipPath id="clip0">
<rect width="16" height="16" fill="white"/>
</clipPath>
</defs>
</svg>
