<svg width="20" height="20" viewBox="0 0 20 20" fill="none" xmlns="http://www.w3.org/2000/svg">
<path fill-rule="evenodd" clip-rule="evenodd" d="M18 14H16V12H14V14H12V16H14V18H16V16H18V14Z" fill="white"/>
<path opacity="0.5" d="M3 2.00001H7C7.29 2.00001 7.35 2.22001 7.39 2.51001L9 12L14.46 2.30001C14.5167 2.20784 14.5961 2.13183 14.6907 2.07928C14.7853 2.02674 14.8918 1.99944 15 2.00001H17V3.00001C17 3.00001 15.82 2.83001 15.51 3.34001L8.11 15.62C8.04003 15.7353 7.94173 15.8307 7.82445 15.8972C7.70717 15.9637 7.57482 15.9991 7.44 16H6.6C6.6 16 4.82 3.79001 4.77 3.34001C4.72 2.89001 3 3.00001 3 3.00001V2.00001Z" fill="white"/>
</svg>
