<svg width="20" height="20" viewBox="0 0 20 20" fill="none" xmlns="http://www.w3.org/2000/svg">
<path opacity="0.5" d="M11.35 5.91944C11.4885 4.62609 11.912 3.37951 12.59 2.26944C12.59 2.26944 12.59 2.34944 12.59 2.38944C12.59 2.7077 12.7164 3.01293 12.9415 3.23797C13.1665 3.46302 13.4718 3.58944 13.79 3.58944C14.1083 3.58944 14.4135 3.46302 14.6385 3.23797C14.8636 3.01293 14.99 2.7077 14.99 2.38944C14.9918 2.16034 14.9325 1.9349 14.8183 1.7363C14.704 1.5377 14.539 1.37311 14.34 1.25944H14.24C13.6682 1.03331 13.0318 1.03331 12.46 1.25944C10.6 1.90944 9.93002 5.02944 9.93002 5.02944L9.83002 5.42944H6.35002L6.00002 6.36944H9.66002L8.34002 13.0894C7.48002 15.4494 6.13002 15.9594 5.40002 16.0894C5.46384 15.9164 5.49766 15.7338 5.50002 15.5494C5.51358 15.2036 5.38973 14.8665 5.15552 14.6116C4.92131 14.3568 4.59577 14.205 4.25002 14.1894C3.94452 14.2294 3.66163 14.3719 3.44768 14.5936C3.23372 14.8153 3.10139 15.103 3.07234 15.4098C3.0433 15.7165 3.11926 16.024 3.28779 16.2819C3.45633 16.5398 3.70744 16.7329 4.00002 16.8294C4.62289 17.0173 5.27863 17.0703 5.92359 16.985C6.56855 16.8996 7.18792 16.6778 7.74046 16.3344C8.29301 15.9909 8.76604 15.5337 9.12806 14.9932C9.49009 14.4526 9.73279 13.8411 9.84002 13.1994L11.09 7.40944H14.68L15.04 6.40944H11.26L11.35 5.91944Z" fill="white"/>
<path fill-rule="evenodd" clip-rule="evenodd" d="M17 13.9994H15V11.9994H13V13.9994H11V15.9994H13V17.9994H15V15.9994H17V13.9994Z" fill="white"/>
</svg>
