<svg width="20" height="20" viewBox="0 0 20 20" fill="none" xmlns="http://www.w3.org/2000/svg">
<path d="M8 2.92L10 12.29L14.55 2.61C14.662 2.4259 14.8189 2.27332 15.0061 2.16661C15.1933 2.05989 15.4045 2.00256 15.62 2H19L18.66 2.89C18.66 2.89 17.17 3.04 17.11 3.63C17.05 4.22 16 15.34 15.93 16.13C15.86 16.92 17.33 17.13 17.33 17.13L17.17 17.99H13.84C13.7241 17.9764 13.612 17.9399 13.5103 17.8826C13.4086 17.8253 13.3194 17.7484 13.2477 17.6562C13.176 17.5641 13.1234 17.4586 13.0929 17.346C13.0624 17.2333 13.0546 17.1157 13.07 17L14.43 5.52L10 14.57C9.8 15.03 9.07 15.72 8.63 15.71H7.75L6.05 4.86L3.54 17.39C3.51941 17.5514 3.44327 17.7005 3.32465 17.8118C3.20603 17.9232 3.05235 17.9897 2.89 18H1L1.11 17.09C1.11 17.09 2.21 17.09 2.3 16.69C2.39 16.29 5.3 3.76 5.41 3.32C5.52 2.88 4.19 2.81 4.19 2.81L4.46 2H6.62C7.09 2 7.92 2.38 8 2.92Z" fill="white"/>
</svg>
