<svg width="16" height="16" viewBox="0 0 16 16" fill="none" xmlns="http://www.w3.org/2000/svg">
<path d="M9.72002 6.0699C9.88111 4.96527 10.299 3.9138 10.94 2.99991C10.94 2.99991 10.94 3.05991 10.94 3.08991C10.94 3.36573 11.0496 3.63026 11.2446 3.8253C11.4397 4.02033 11.7042 4.12991 11.98 4.12991C12.2558 4.12991 12.5204 4.02033 12.7154 3.8253C12.9105 3.63026 13.02 3.36573 13.02 3.08991C13.0204 2.90249 12.9681 2.71873 12.8691 2.5596C12.7701 2.40047 12.6283 2.27237 12.46 2.18991H12.37C11.8725 2.00961 11.3275 2.00961 10.83 2.18991C9.21002 2.63991 8.58002 4.99991 8.58002 4.99991L8.40002 5.1199H5.40002L5.15002 6.1199H8.27002L7.27002 11.4199C7.11348 12.0161 6.79062 12.5555 6.33911 12.9751C5.8876 13.3948 5.32607 13.6773 4.72002 13.7899C4.78153 13.655 4.81227 13.5081 4.81002 13.3599C4.81002 13.0735 4.69624 12.7988 4.4937 12.5962C4.29116 12.3937 4.01646 12.2799 3.73002 12.2799C3.44359 12.2799 3.16889 12.3937 2.96635 12.5962C2.76381 12.7988 2.65002 13.0735 2.65002 13.3599C2.66114 13.605 2.75692 13.8386 2.92104 14.021C3.08517 14.2033 3.30746 14.3231 3.55002 14.3599C7.91002 15.1999 8.55002 11.4499 8.55002 11.4499L9.55002 7.05991H12.55L12.8 6.05991H9.64002L9.72002 6.0699Z" fill="white"/>
</svg>
