<svg width="20" height="20" viewBox="0 0 20 20" fill="none" xmlns="http://www.w3.org/2000/svg">
<path opacity="0.5" d="M10 17H7C5.59 17 5 16.41 5 15V11C5 9.59 5.59 9 7 9V10C6.14 10 6 10.14 6 11V15C6 15.86 6.14 16 7 16H10" fill="white"/>
<path opacity="0.5" d="M13 11C13 10.14 12.86 10 12 10V9C13.41 9 14 9.59 14 11" fill="white"/>
<path fill-rule="evenodd" clip-rule="evenodd" d="M17 14H15V12H13V14H11V16H13V18H15V16H17V14Z" fill="white"/>
<path fill-rule="evenodd" clip-rule="evenodd" d="M4 4C7.8 4 9.6 5.9 10 11C8.8 6.8 7.9 6 4 6V8L0 5L4 2V4Z" fill="white"/>
<path fill-rule="evenodd" clip-rule="evenodd" d="M16 4C12.2 4 10.4 5.9 10 11C11.2 6.8 12.1 6 16 6V8L20 5L16 2V4Z" fill="white"/>
</svg>
