<svg width="16" height="16" viewBox="0 0 16 16" fill="none" xmlns="http://www.w3.org/2000/svg">
<path opacity="0.5" d="M11.63 6.99994C11.7568 5.92285 12.1447 4.89302 12.76 3.99994C12.76 3.99994 12.76 4.06994 12.76 4.09994C12.7861 4.3723 12.9127 4.62517 13.1151 4.8092C13.3176 4.99322 13.5814 5.09518 13.855 5.09518C14.1286 5.09518 14.3924 4.99322 14.5949 4.8092C14.7973 4.62517 14.9239 4.3723 14.95 4.09994C14.9515 3.90588 14.8966 3.71557 14.7918 3.55221C14.687 3.38885 14.537 3.2595 14.36 3.17994H14.27C13.7425 2.99471 13.1675 2.99471 12.64 3.17994C10.94 3.70994 10.33 6.24994 10.33 6.24994L10.24 6.56994H7.06L6.78 7.41994H10.09L8.87 12.8799C8.69671 13.4949 8.35319 14.0483 7.87902 14.4765C7.40486 14.9046 6.81936 15.1901 6.19 15.2999C6.26776 15.1329 6.30192 14.9489 6.28928 14.7651C6.27665 14.5814 6.21765 14.4038 6.11777 14.249C6.0179 14.0942 5.88042 13.9672 5.71817 13.8799C5.55593 13.7927 5.37421 13.7479 5.19 13.7499C4.89507 13.7334 4.60537 13.8329 4.38295 14.0273C4.16052 14.2217 4.02306 14.4955 4 14.7899C4.00625 15.06 4.11163 15.3182 4.29604 15.5156C4.48046 15.7129 4.73103 15.8355 5 15.8599C9.6 16.7099 10.32 12.8599 10.32 12.8599L11.46 8.15994H14.74L15 7.35994H11.54L11.63 6.99994Z" fill="white"/>
<path fill-rule="evenodd" clip-rule="evenodd" d="M6 1.73C2.2 1.73 0.4 3.37 0 7.73C1.2 4.15 2.1 3.46 6 3.46V5.19L10 2.59L6 0V1.73Z" fill="white"/>
</svg>
