<svg width="20" height="20" viewBox="0 0 20 20" fill="none" xmlns="http://www.w3.org/2000/svg">
<path opacity="0.5" d="M8.24 2.81029L10 11.0003L14 2.53029C14.1076 2.3639 14.2559 2.22783 14.431 2.13506C14.606 2.04228 14.8019 1.99588 15 2.00029H18L17.7 2.78029C17.7 2.78029 16.37 2.91029 16.32 3.42029C16.27 3.93029 15.32 13.6703 15.27 14.4203C15.22 15.1703 16.51 15.3003 16.51 15.3003L16.38 16.0503H13.38C13.2724 16.0397 13.1681 16.0068 13.0739 15.9537C12.9797 15.9007 12.8975 15.8286 12.8326 15.7421C12.7677 15.6555 12.7216 15.5565 12.697 15.4512C12.6725 15.3458 12.6701 15.2366 12.69 15.1303L13.89 5.13029L10 13.0003C9.82 13.4003 9.17 14.0003 8.79 14.0003H8L6.49 4.50029L4.26 15.5003C4.23942 15.642 4.1704 15.7723 4.06467 15.8689C3.95894 15.9655 3.82302 16.0225 3.68 16.0303H2L2.09 15.2303C2.09 15.2303 3.09 15.2303 3.16 14.8803C3.23 14.5303 5.79 3.54029 5.92 3.15029C6.05 2.76029 4.84 2.71029 4.84 2.71029L5.08 2.00029H7C7.41 2.00029 8.15 2.34029 8.24 2.81029Z" fill="white"/>
<path fill-rule="evenodd" clip-rule="evenodd" d="M18 14.0002H16V12.0002H14V14.0002H12V16.0002H14V18.0002H16V16.0002H18V14.0002Z" fill="white"/>
</svg>
