<svg width="16" height="16" viewBox="0 0 16 16" fill="none" xmlns="http://www.w3.org/2000/svg">
<path d="M1 7.99956V6.99956C1.62451 6.89501 2.23976 6.7412 2.84 6.53956C3.02865 6.44859 3.18802 6.30655 3.3 6.12956C3.44478 5.91383 3.53723 5.6673 3.57 5.40956C3.6183 5.04164 3.63836 4.67055 3.63 4.29956C3.60615 3.68664 3.64974 3.07296 3.76 2.46956C3.82982 2.152 3.99359 1.86279 4.23 1.63956C4.51974 1.39713 4.86221 1.22589 5.23 1.13956C5.68612 1.03782 6.15275 0.990826 6.62 0.999563H7V1.99956C6.69952 2.01634 6.4103 2.11967 6.16722 2.2971C5.92414 2.47453 5.73757 2.71849 5.63 2.99956C5.5431 3.18346 5.5052 3.3867 5.52 3.58956C5.52 3.86956 5.52 4.40956 5.46 5.19956C5.44584 5.56977 5.38194 5.9364 5.27 6.28956C5.18779 6.5495 5.05527 6.79074 4.88 6.99956C4.62654 7.36597 4.33121 7.70157 4 7.99956" fill="white"/>
<path d="M4 7.99951C4.33723 8.31397 4.63295 8.67019 4.88 9.05951C5.05095 9.2601 5.18319 9.49067 5.27 9.73951C5.38194 10.0927 5.44584 10.4593 5.46 10.8295C5.5 11.6228 5.52 12.1628 5.52 12.4495C5.5061 12.6523 5.54395 12.8553 5.63 13.0395C5.74563 13.3117 5.93533 13.546 6.17752 13.7157C6.41972 13.8854 6.70468 13.9837 7 13.9995V14.9995H6.62C6.15021 15.0156 5.68019 14.9753 5.22 14.8795C4.85378 14.7889 4.51224 14.6181 4.22 14.3795C3.98551 14.1548 3.8221 13.8662 3.75 13.5495C3.64077 12.946 3.59718 12.3324 3.62 11.7195C3.63014 11.3418 3.61007 10.964 3.56 10.5895C3.52723 10.3318 3.43478 10.0852 3.29 9.86951C3.17802 9.69252 3.01865 9.55048 2.83 9.45951C2.23302 9.25838 1.62113 9.10457 1 8.99951V7.99951" fill="white"/>
<path d="M12 7.99955C11.6688 7.70156 11.3735 7.36596 11.12 6.99955C10.947 6.79667 10.8146 6.56242 10.73 6.30955C10.6181 5.95638 10.5542 5.58976 10.54 5.21954C10.54 4.42954 10.48 3.88955 10.48 3.60955C10.4983 3.40004 10.4604 3.18944 10.37 2.99955C10.2624 2.71847 10.0759 2.47452 9.83278 2.29708C9.5897 2.11965 9.30048 2.01632 9 1.99955V0.999545H9.38C9.84979 0.983442 10.3198 1.02373 10.78 1.11955C11.1478 1.20587 11.4903 1.37711 11.78 1.61955C12.0164 1.84278 12.1802 2.13198 12.25 2.44955C12.3603 3.05294 12.4039 3.66662 12.38 4.27955C12.3706 4.6572 12.3907 5.03501 12.44 5.40954C12.4728 5.66728 12.5652 5.91382 12.71 6.12955C12.822 6.30653 12.9813 6.44858 13.17 6.53955C13.767 6.74067 14.3789 6.89448 15 6.99955V7.99955" fill="white"/>
<path d="M15 7.99951V8.99951C14.3755 9.10406 13.7602 9.25787 13.16 9.45951C12.9713 9.55048 12.812 9.69252 12.7 9.86951C12.5552 10.0852 12.4628 10.3318 12.43 10.5895C12.3799 10.964 12.3599 11.3418 12.37 11.7195C12.3928 12.3324 12.3492 12.946 12.24 13.5495C12.1679 13.8662 12.0045 14.1548 11.77 14.3795C11.4778 14.6181 11.1362 14.7889 10.77 14.8795C10.3098 14.9753 9.83979 15.0156 9.37 14.9995H9V13.9995C9.2998 13.9803 9.58791 13.876 9.83056 13.6989C10.0732 13.5218 10.2603 13.2792 10.37 12.9995C10.456 12.8153 10.4939 12.6123 10.48 12.4095C10.48 12.1162 10.5 11.5762 10.54 10.7895C10.5542 10.4193 10.6181 10.0527 10.73 9.69951C10.8168 9.45067 10.9491 9.2201 11.12 9.01951C11.3698 8.64424 11.6654 8.30159 12 7.99951" fill="white"/>
</svg>
