<svg xmlns="http://www.w3.org/2000/svg" viewBox="0 0 20 20"><defs><style>.cls-1,.cls-2{fill:#fff;}.cls-2{opacity:0.5;}.cls-3{fill:none;}</style></defs><g id="Layer_2" data-name="Layer 2"><g id="Layer_4" data-name="Layer 4"><path class="cls-1" d="M19,13v6H1V13H19m0-1H1a1,1,0,0,0-1,1v6a1,1,0,0,0,1,1H19a1,1,0,0,0,1-1V13a1,1,0,0,0-1-1Z"/><rect class="cls-1" x="0.5" y="12.5" width="6.5" height="7"/><rect class="cls-2" x="7" y="12" width="6" height="8"/><path class="cls-2" d="M16.73,6.06,5.9,10H19.2L18,6.66A1,1,0,0,0,16.73,6.06Z"/><path class="cls-2" d="M12.3,1.84a1,1,0,0,0-1.41,0l-7,7,11-4.38Z"/><path class="cls-2" d="M8.41,1.23a1,1,0,0,0-.33-.16L4.46.1A1,1,0,0,0,3.25.8L.86,9.72Z"/><rect class="cls-3" width="20" height="20"/></g></g></svg>