<svg width="20" height="20" viewBox="0 0 20 20" fill="none" xmlns="http://www.w3.org/2000/svg">
<path fill-rule="evenodd" clip-rule="evenodd" d="M6.67001 14.42C5.45001 13.11 4.13001 10.88 4.29001 9.91995C4.55001 8.39995 5.53 8.47 5.53 8.47C5.53 8.47 3.52999 7.34991 3.17999 6.62991C2.82999 5.90991 1.68001 5.44991 1.26001 4.37991C1.67072 3.52783 2.25223 2.76952 2.96844 2.15164C3.68466 1.53376 4.52027 1.0697 5.42337 0.788359C6.32647 0.507021 7.27776 0.414348 8.21817 0.516142C9.15858 0.617937 10.068 0.911843 10.89 1.37991C10.4232 2.36009 9.78287 3.24784 9 4.00003C8.11 4.77003 10 5.93994 9.44 6.65994C8.88 7.37994 8.57 6.40994 8.13 5.65994C7.81 5.10994 6.87999 5.26007 6.23999 5.29007C4.05999 5.41007 4.85 8.70002 6.62 8.24002C7.10738 8.01368 7.64979 7.93285 8.18198 8.00735C8.71417 8.08186 9.2135 8.30845 9.62 8.65994C9.81202 8.84636 9.96469 9.06946 10.0689 9.31595C10.1732 9.56244 10.2269 9.82737 10.2269 10.095C10.2269 10.3626 10.1732 10.6276 10.0689 10.8741C9.96469 11.1205 9.81202 11.3436 9.62 11.5301C9.15335 12.4084 8.9031 13.3854 8.89001 14.3799C8.17668 14.5364 7.43979 14.5534 6.72 14.43L6.67001 14.42Z" fill="white"/>
<path opacity="0.5" fill-rule="evenodd" clip-rule="evenodd" d="M7.5 0C8.98336 0 10.4334 0.439805 11.6668 1.26392C12.9001 2.08803 13.8615 3.25944 14.4291 4.62988C14.9968 6.00033 15.1453 7.50828 14.8559 8.96313C14.5665 10.418 13.8522 11.7543 12.8033 12.8032C11.7544 13.8521 10.418 14.5666 8.96317 14.856C7.50831 15.1453 6.00033 14.9969 4.62988 14.4292C3.25944 13.8615 2.08809 12.9001 1.26398 11.6667C0.439866 10.4334 0 8.98336 0 7.5C0 5.51088 0.790163 3.6033 2.19669 2.19678C3.60321 0.790254 5.51088 0 7.5 0Z" fill="white"/>
<path fill-rule="evenodd" clip-rule="evenodd" d="M15 16V20H11V16H15ZM6.89999 16.72C6.59812 16.7133 6.29722 16.6831 6 16.6299V20H10V16.3C8.99077 16.5813 7.94768 16.7226 6.89999 16.72ZM15 15V12.79C14.3919 13.6517 13.6371 14.3997 12.77 15H15ZM16.76 6.8501C16.765 7.91506 16.6203 8.97535 16.33 10H20V6H16.72C16.7478 6.28247 16.7612 6.56627 16.76 6.8501ZM16 20H20V16H16V20ZM16 15H20V11H16V15Z" fill="white"/>
</svg>
