<svg width="16" height="16" viewBox="0 0 16 16" fill="none" xmlns="http://www.w3.org/2000/svg">
<path fill-rule="evenodd" clip-rule="evenodd" d="M5.33002 11.5301C4.33002 10.5301 3.33002 8.70003 3.43002 7.94003C3.64002 6.72003 4.43002 6.78012 4.43002 6.78012C4.43002 6.78012 2.83002 5.88014 2.55002 5.30014C2.27002 4.72014 1.35002 4.3601 1.02002 3.5101C1.34933 2.82964 1.81513 2.22424 2.38846 1.73153C2.96178 1.23882 3.63036 0.869322 4.3526 0.646084C5.07484 0.422846 5.83532 0.35066 6.58667 0.433926C7.33802 0.517191 8.0642 0.754013 8.72003 1.12997C8.34343 1.91218 7.8246 2.61759 7.19003 3.21005C6.48003 3.83005 8.02002 4.76017 7.55002 5.33017C7.08002 5.90017 6.85003 5.13011 6.50003 4.52011C6.24003 4.08011 5.50002 4.20007 4.99002 4.23007C3.24002 4.32007 3.88004 6.95017 5.29004 6.58017C5.67778 6.40355 6.108 6.34169 6.52979 6.40194C6.95157 6.4622 7.34727 6.6419 7.67004 6.92001C7.97415 7.22548 8.14487 7.63912 8.14487 8.07016C8.14487 8.50119 7.97415 8.91459 7.67004 9.22006C7.29101 9.91721 7.08841 10.6966 7.08002 11.4901C6.72798 11.5628 6.36951 11.5998 6.01004 11.6002C5.78206 11.5921 5.55485 11.5687 5.33002 11.5301Z" fill="white"/>
<path opacity="0.5" fill-rule="evenodd" clip-rule="evenodd" d="M6 0C7.18669 0 8.34674 0.351942 9.33344 1.01123C10.3201 1.67052 11.0891 2.6075 11.5433 3.70386C11.9974 4.80021 12.1162 6.00677 11.8847 7.17065C11.6532 8.33454 11.0818 9.40356 10.2426 10.2427C9.40353 11.0818 8.33442 11.6533 7.17053 11.8848C6.00665 12.1163 4.80024 11.9973 3.70389 11.5432C2.60753 11.0891 1.67046 10.3202 1.01117 9.3335C0.351881 8.3468 0 7.18669 0 6C0 4.4087 0.632136 2.88254 1.75735 1.75732C2.88257 0.632106 4.4087 0 6 0Z" fill="white"/>
<path fill-rule="evenodd" clip-rule="evenodd" d="M10.21 12C10.9064 11.5202 11.5124 10.9209 12 10.23V12H10.21ZM5.51999 13.3799C5.34678 13.389 5.17321 13.389 5 13.3799V16H8V13C7.19513 13.2418 6.36034 13.3696 5.51999 13.3799ZM9 13V16H12V13H9ZM13 12H16V9H13V12ZM13 16H16V13H13V16ZM13.41 5.47998C13.415 6.33243 13.2972 7.18118 13.06 8H16V5H13.39C13.4 5.16 13.41 5.32998 13.41 5.47998Z" fill="white"/>
</svg>
