<svg width="17" height="16" viewBox="0 0 17 16" fill="none" xmlns="http://www.w3.org/2000/svg">
<path opacity="0.5" fill-rule="evenodd" clip-rule="evenodd" d="M11.0001 10.7C12.1001 9.7 12.8001 8.5 13.0001 7.1L7.00005 6.2L10.0001 0.999998C7.80005 -0.300002 5.00005 -0.100002 3.00005 1.7C0.500052 3.9 0.300052 7.7 2.50005 10.2C4.70005 12.6 8.50005 12.8 11.0001 10.7Z" fill="white"/>
<path fill-rule="evenodd" clip-rule="evenodd" d="M13.7 0.8C13.4 0.5 13.2 0.3 12.9 0L9 5.3L15.4 5.5C15.5 3.9 14.9 2.1 13.7 0.8Z" fill="white"/>
<path fill-rule="evenodd" clip-rule="evenodd" d="M17 12H15V10H13V12H11V14H13V16H15V14H17V12Z" fill="white"/>
</svg>
