<svg width="17" height="18" viewBox="0 0 17 18" fill="none" xmlns="http://www.w3.org/2000/svg">
<path fill-rule="evenodd" clip-rule="evenodd" d="M5.5 12.9L1.4 17C1.4 17 1 17 0.5 16.5C0 16 0 15.7 0 15.7L4.1 11.6L5.5 12.9Z" fill="white"/>
<path d="M9 14.5C12.5899 14.5 15.5 11.5899 15.5 8C15.5 4.41015 12.5899 1.5 9 1.5C5.41015 1.5 2.5 4.41015 2.5 8C2.5 11.5899 5.41015 14.5 9 14.5Z" stroke="white" stroke-width="1.0833" stroke-miterlimit="10"/>
<path opacity="0.5" d="M8.9999 3.8999C6.6999 3.8999 4.8999 5.7999 4.8999 7.9999C4.8999 10.2999 6.6999 12.0999 8.9999 12.0999C11.2999 12.0999 13.0999 10.2999 13.0999 7.9999C13.0999 5.7999 11.2999 3.8999 8.9999 3.8999ZM9.9999 10.9999H7.9999V7.9999H9.9999V10.9999ZM9.9999 6.9999H7.9999V4.9999H9.9999V6.9999Z" fill="white"/>
</svg>
