<svg width="20" height="20" viewBox="0 0 20 20" fill="none" xmlns="http://www.w3.org/2000/svg">
<path d="M7.3 1.90002L0 4.10002V12.8L7.3 15L13.1 8.40002L7.3 1.90002ZM5 8.50002L1 11.5V5.50002L5 8.50002ZM1.6 4.70002L6.5 3.20002L5.5 7.60002L1.6 4.70002ZM5.5 9.40002L6.5 13.8L1.6 12.3L5.5 9.40002ZM6.5 9.00002H11.4L7.5 13.4L6.5 9.00002ZM6.5 8.00002L7.5 3.60002L11.4 8.00002H6.5Z" fill="white"/>
<path opacity="0.5" fill-rule="evenodd" clip-rule="evenodd" d="M20 12L16.5 16.2L12.9 12H15.3C15.3 8.1 14.2 4.2 10 3C15.1 3.4 17.6 8.2 17.6 12H20Z" fill="white"/>
</svg>
