<svg width="16" height="16" viewBox="0 0 16 16" fill="none" xmlns="http://www.w3.org/2000/svg">
<path d="M3.1 7.69995L0 9.89996L0.8 10.9L3.9 8.49994L3.1 7.69995Z" fill="white"/>
<path d="M12.7999 0.400024L10.8999 1.79999L11.7999 2.40002L13.6999 0.900024L12.7999 0.400024Z" fill="white"/>
<path d="M3.20005 0.400024L2.30005 0.900024L4.20005 2.40002L5.10005 1.79999L3.20005 0.400024Z" fill="white"/>
<path d="M12.9001 7.69995L12.1001 8.49994L15.2001 10.9L16.0001 9.89996L12.9001 7.69995Z" fill="white"/>
<g opacity="0.5">
<path opacity="0.5" d="M12.8 5.00007C12.8 7.70007 10.6 10.3001 7.99995 10.3001C5.39995 10.3001 3.19995 7.70007 3.19995 5.00007C3.19995 4.80007 3.69995 5.60005 4.19995 6.10005C4.99995 6.90005 6.39995 7.50007 7.99995 7.50007C9.49995 7.50007 10.9 6.90005 11.8 6.10005C12.3 5.60005 12.8 4.80007 12.8 5.00007Z" fill="white"/>
</g>
<path d="M7.99995 2.60004C10.2 2.60004 11.8 3.60006 11.8 4.50006C11.8 5.40006 10.2 6.40009 7.99995 6.40009C5.79995 6.40009 4.19995 5.40006 4.19995 4.50006C4.19995 3.60006 5.79995 2.60004 7.99995 2.60004ZM7.99995 1.80005C5.29995 1.80005 3.19995 3.10007 3.19995 4.70007C3.19995 6.30007 5.39995 7.60004 7.99995 7.60004C10.6 7.60004 12.8 6.30007 12.8 4.70007C12.8 3.10007 10.6 1.80005 7.99995 1.80005Z" fill="white"/>
<path fill-rule="evenodd" clip-rule="evenodd" d="M13.5 12.9C13.5 12.8 13.5 12.7 13.5 12.5C13.5 12.4 13.5 12.3 13.5 12.1L12.6 12C12.5 11.8 12.5 11.6 12.4 11.4L13 10.6C12.8 10.4 12.7 10.2 12.5 10.1L11.7 10.7C11.5 10.6 11.3 10.5 11.1 10.5L11 9.59998C10.9 9.59998 10.8 9.59998 10.6 9.59998C10.5 9.59998 10.3 9.59998 10.2 9.59998L10.1 10.5C9.89995 10.6 9.69995 10.6 9.49995 10.7L8.69995 10.1C8.49995 10.3 8.29995 10.4 8.19995 10.6L8.79995 11.4C8.69995 11.6 8.59995 11.8 8.59995 12L7.69995 12.1C7.69995 12.2 7.69995 12.3 7.69995 12.5C7.69995 12.6 7.69995 12.7 7.69995 12.9L8.59995 13C8.69995 13.2 8.69995 13.4 8.79995 13.6L8.19995 14.4C8.39995 14.6 8.49995 14.8 8.69995 14.9L9.49995 14.3C9.69995 14.4 9.89995 14.5 10.1 14.5L10.2 15.4C10.3 15.4 10.4 15.4 10.6 15.4C10.7 15.4 10.8 15.4 11 15.4L11.1 14.5C11.3 14.4 11.5 14.4 11.7 14.3L12.5 14.9C12.7 14.7 12.9 14.6 13 14.4L12.4 13.6C12.5 13.4 12.6 13.2 12.6 13L13.5 12.9ZM10.5 13.8C9.79995 13.8 9.19995 13.2 9.19995 12.5C9.19995 11.8 9.79995 11.2 10.5 11.2C11.2 11.2 11.8 11.8 11.8 12.5C11.8 13.2 11.2 13.8 10.5 13.8Z" fill="white"/>
</svg>
