<svg width="20" height="20" viewBox="0 0 20 20" fill="none" xmlns="http://www.w3.org/2000/svg">
<path d="M0 19V18.74C0 15.42 2.47 13.5 5.5 13.5C8.5 13.5 11 15.42 11 18.74V19H0Z" fill="white"/>
<path d="M5.50004 12.46C7.1348 12.46 8.46004 11.1348 8.46004 9.50004C8.46004 7.86528 7.1348 6.54004 5.50004 6.54004C3.86528 6.54004 2.54004 7.86528 2.54004 9.50004C2.54004 11.1348 3.86528 12.46 5.50004 12.46Z" fill="white"/>
<path d="M13 19H17V13H13V19ZM16 16H14V14H16V16Z" fill="white"/>
<path fill-rule="evenodd" clip-rule="evenodd" d="M17.17 1.5L14.5 4.17L11.83 1.5L10.5 2.83L13.17 5.5L10.5 8.17L11.83 9.5L14.5 6.83L17.17 9.5L18.5 8.17L15.83 5.5L18.5 2.83L17.17 1.5Z" fill="white"/>
</svg>
