<svg width="20" height="20" viewBox="0 0 20 20" fill="none" xmlns="http://www.w3.org/2000/svg">
<path d="M1.5 1.5V8.43" stroke="white" stroke-width="2" stroke-miterlimit="10" stroke-linecap="round"/>
<path d="M18.5 8.43C18.0955 6.47395 17.0294 4.71697 15.4813 3.45479C13.9331 2.1926 11.9975 1.50228 10 1.5C8.00764 1.49849 6.0754 2.18244 4.52765 3.43703C2.9799 4.69161 1.91087 6.44046 1.5 8.39" stroke="white" stroke-width="2" stroke-miterlimit="10" stroke-linecap="round"/>
<path d="M18.5 18.4999V11.5699" stroke="white" stroke-width="2" stroke-miterlimit="10" stroke-linecap="round"/>
<path d="M1.5 11.5699C1.90455 13.526 2.97061 15.283 4.51874 16.5452C6.06687 17.8073 8.00255 18.4977 10 18.4999C11.9924 18.5015 13.9246 17.8175 15.4724 16.5629C17.0201 15.3083 18.0891 13.5595 18.5 11.6099" stroke="white" stroke-width="2" stroke-miterlimit="10" stroke-linecap="round"/>
<path d="M12.18 6C12.5676 6.20916 12.9216 6.47548 13.23 6.79C13.6551 7.21364 13.9924 7.71703 14.2226 8.27131C14.4527 8.82558 14.5712 9.41984 14.5712 10.02C14.5712 10.6202 14.4527 11.2144 14.2226 11.7687C13.9924 12.323 13.6551 12.8264 13.23 13.25C12.8063 13.6751 12.303 14.0124 11.7487 14.2426C11.1944 14.4727 10.6002 14.5912 10 14.5912C9.39984 14.5912 8.80556 14.4727 8.25128 14.2426C7.69701 14.0124 7.19366 13.6751 6.77002 13.25C6.34491 12.8264 6.00756 12.323 5.7774 11.7687C5.54725 11.2144 5.42883 10.6202 5.42883 10.02C5.42883 9.41984 5.54725 8.82558 5.7774 8.27131C6.00756 7.71703 6.34491 7.21364 6.77002 6.79C7.068 6.49604 7.40438 6.24375 7.77002 6.04" stroke="white" stroke-width="1.5" stroke-miterlimit="10"/>
<path d="M10 5.05005V10.04" stroke="white" stroke-width="1.5" stroke-miterlimit="10" stroke-linecap="round"/>
</svg>
