<svg width="20" height="20" viewBox="0 0 20 20" fill="none" xmlns="http://www.w3.org/2000/svg">
<path d="M10 12H8V14H10V12Z" fill="white"/>
<path d="M10 6H8V8H10V6Z" fill="white"/>
<path d="M13.0001 12.3C12.5001 12.3 11.1001 12.1 10.6001 12V14C11.0001 14.1 12.7001 14.3 13.3001 14.3C14.4001 14.3 17.9001 14 17.9001 9.99995C17.9001 5.99995 14.4001 5.69995 13.4001 5.69995C12.8001 5.69995 11.1001 5.99995 10.6001 5.99995V7.99995C11.0001 7.89995 12.4001 7.69995 12.9001 7.69995C15.0001 7.69995 15.9001 8.49995 15.9001 9.99995C16.0001 11.5 15.1001 12.3 13.0001 12.3Z" fill="white"/>
<path opacity="0.5" d="M3 15H1L4 19.5L7 15H5V5H7L4 0.5L1 5H3V15Z" fill="white"/>
</svg>
