<svg width="20" height="20" viewBox="0 0 20 20" fill="none" xmlns="http://www.w3.org/2000/svg">
<path d="M14 10H12V12H14V10Z" fill="white"/>
<path d="M8 10H6V12H8V10Z" fill="white"/>
<path d="M12.3002 7.0001C12.3002 7.5001 12.1002 8.9001 12.0002 9.4001H14.0002C14.1002 9.0001 14.3002 7.3001 14.3002 6.7001C14.3002 5.6001 14.0002 2.1001 10.0002 2.1001C6.0002 2.1001 5.7002 5.6001 5.7002 6.6001C5.7002 7.2001 6.0002 8.9001 6.0002 9.4001H8.0002C7.9002 8.9001 7.7002 7.5001 7.7002 7.0001C7.7002 4.9001 8.5002 4.0001 10.0002 4.0001C11.5002 4.0001 12.3002 4.9001 12.3002 7.0001Z" fill="white"/>
<path opacity="0.5" d="M15 17V19L19.5 16L15 13V15H5V13L0.5 16L5 19V17H15Z" fill="white"/>
</svg>
