<svg width="16" height="16" viewBox="0 0 16 16" fill="none" xmlns="http://www.w3.org/2000/svg">
<path d="M16 5.90002L15.5 7.03003C15.02 8.17003 14.2299 10.03 11.6399 10.03C10.4799 10.03 9.45988 8.70004 8.37988 7.29004C7.07988 5.60004 5.74996 3.85999 3.70996 3.85999C2.96494 3.89157 2.23871 4.10263 1.59277 4.47522C0.94684 4.84781 0.40036 5.3709 0 6V9.37C0.12 9.19 0.249912 8.95003 0.409912 8.66003C1.21991 7.15003 2.14996 5.66003 3.70996 5.66003C4.87996 5.66003 5.90999 6.99003 6.98999 8.41003C8.27999 10.09 9.60989 11.83 11.6399 11.83C12.4818 11.8624 13.3191 11.6891 14.0789 11.325C14.8386 10.9608 15.498 10.4167 16 9.73999V5.90002Z" fill="white"/>
<path opacity="0.5" d="M15 0H0V16H16V0H15ZM10 1V5H6V1H10ZM6 6H10V10H6V6ZM5 10H1V6H5V10ZM5 1V5H1V1H5ZM1 15V11H5V15H1ZM6 15V11H10V15H6ZM15 15H11V11H15V15ZM15 10H11V6H15V10ZM15 5H11V1H15V5Z" fill="white"/>
</svg>
