<svg width="20" height="20" viewBox="0 0 20 20" fill="none" xmlns="http://www.w3.org/2000/svg">
<path opacity="0.5" d="M0 0V19H19V0H0ZM12 1V6H7V1H12ZM12 12H7V7H12V12ZM13 7H18V12H13V7ZM6 12H1V7H6V12ZM6 1V6H1V1H6ZM1 18V13H6V18H1ZM7 18V13H12V18H7ZM13 18V13H18V18H13ZM18 6H13V1H18V6Z" fill="white"/>
<path d="M18.9998 7.45007L18.5398 8.45007L18.3599 8.88013C17.7599 10.3201 16.7497 12.7301 13.4797 12.7301C12.0197 12.7301 10.7299 11.0501 9.36987 9.27014C7.72987 7.13014 6.02971 4.91016 3.44971 4.91016C2.18493 4.91091 0.963172 5.36901 0.00976562 6.20007V9.67017C0.879766 8.28017 1.92971 7.16016 3.44971 7.16016C4.96971 7.16016 6.20983 8.85014 7.57983 10.6401C9.21983 12.7801 10.9097 14.9901 13.4797 14.9901C14.5465 15.0317 15.6074 14.8131 16.5708 14.3531C17.5342 13.8932 18.3713 13.2057 19.0098 12.3501L18.9998 7.45007Z" fill="white"/>
</svg>
