<svg width="20" height="20" viewBox="0 0 20 20" fill="none" xmlns="http://www.w3.org/2000/svg">
<path d="M18.8002 4.5C18.4002 3.7 17.1002 1.5 14.6002 1.5C11.0002 1.5 9.3002 8 5.7002 8C3.2002 8 1.8002 5.9 1.2002 4.8" stroke="white" stroke-opacity="0.5" stroke-width="1.25" stroke-miterlimit="10"/>
<path d="M18.7998 9.5C18.3998 8.7 17.0998 6.5 14.5998 6.5C10.9998 6.5 9.2998 13 5.6998 13C3.1998 13 1.7998 10.8 1.2998 9.8" stroke="white" stroke-width="1.25" stroke-miterlimit="10"/>
<path d="M18.7998 14.5C18.3998 13.7 17.0998 11.5 14.5998 11.5C10.9998 11.5 9.2998 18 5.6998 18C3.1998 18 1.7998 15.8 1.2998 14.8" stroke="white" stroke-opacity="0.5" stroke-width="1.25" stroke-miterlimit="10"/>
</svg>
