<svg width="20" height="20" viewBox="0 0 20 20" fill="none" xmlns="http://www.w3.org/2000/svg">
<path d="M2 13.5H18" stroke="white" stroke-miterlimit="10"/>
<path d="M6.53521 13.5713L10 17.0361L13.4648 13.5713L10 10.1066L6.53521 13.5713Z" fill="white"/>
<path d="M2.5001 15.4001C3.54944 15.4001 4.4001 14.5494 4.4001 13.5001C4.4001 12.4508 3.54944 11.6001 2.5001 11.6001C1.45076 11.6001 0.600098 12.4508 0.600098 13.5001C0.600098 14.5494 1.45076 15.4001 2.5001 15.4001Z" fill="white"/>
<path d="M17.5001 15.4001C18.5494 15.4001 19.4001 14.5494 19.4001 13.5001C19.4001 12.4508 18.5494 11.6001 17.5001 11.6001C16.4508 11.6001 15.6001 12.4508 15.6001 13.5001C15.6001 14.5494 16.4508 15.4001 17.5001 15.4001Z" fill="white"/>
<path opacity="0.5" d="M4 2H2V5H0L3 9.5L6 5H4V2Z" fill="white"/>
<path opacity="0.5" d="M18 2H16V5H14L17 9.5L20 5H18V2Z" fill="white"/>
</svg>
