<svg width="20" height="20" viewBox="0 0 20 20" fill="none" xmlns="http://www.w3.org/2000/svg">
<path d="M11 0H9V20H11V0Z" fill="white"/>
<path opacity="0.5" d="M9.9998 8.6C9.6998 8.6 9.3998 8.7 9.1998 8.8C8.5998 9.1 8.2998 9.6 7.9998 10C7.4998 10.9 7.1998 11.8 6.9998 12.7C6.7998 13.6 6.5998 14.6 6.2998 15.3C6.1998 14.9 6.0998 14.5 5.9998 14.1C5.6998 12.3 5.5998 10.4 5.3998 8.6C5.2998 7.7 5.1998 6.7 4.9998 5.8C4.8998 5.3 4.7998 4.9 4.4998 4.3C4.4998 4.2 4.3998 4.2 4.3998 4.1C4.3998 4 4.2998 4 4.1998 3.9C3.9998 3.8 3.5998 3.7 3.3998 3.8C2.8998 4.1 2.8998 4.4 2.7998 4.7C2.4998 5.7 2.3998 6.6 2.2998 7.6C2.1998 8.5 2.0998 9.4 1.9998 10.3C1.9998 10.7 1.8998 11.2 1.7998 11.5C1.7998 11.6 1.6998 11.6 1.7998 11.6C1.8998 11.6 1.7998 11.6 1.7998 11.6C1.6998 11.6 1.5998 11.4 1.4998 11.2C1.0998 10.4 0.999805 9.5 0.799805 8.6C0.799805 9.5 0.799802 10.5 0.999802 11.4C1.0998 11.6 1.1998 11.9 1.4998 12.1C1.6998 12.2 1.8998 12.3 2.0998 12.2C2.2998 12.1 2.3998 11.9 2.4998 11.8C2.7998 11.3 2.8998 10.8 2.9998 10.4C3.1998 9.5 3.1998 8.5 3.2998 7.6C3.3998 6.7 3.4998 5.7 3.6998 5V4.9C3.7998 5.2 3.9998 5.6 3.9998 6C4.1998 6.9 4.2998 7.8 4.3998 8.7C4.5998 10.5 4.7998 12.4 4.9998 14.3C5.0998 14.8 5.1998 15.2 5.2998 15.7C5.2998 15.8 5.3998 16 5.4998 16.1C5.4998 16.2 5.6998 16.3 5.7998 16.4C5.9998 16.5 6.1998 16.5 6.2998 16.5C6.8998 16.4 6.9998 16 7.0998 15.8C7.4998 14.8 7.6998 13.9 7.8998 13C8.0998 12.1 8.3998 11.2 8.7998 10.5C8.9998 10.1 9.2998 9.9 9.5998 9.7C9.6998 9.6 9.7998 9.6 9.9998 9.6V8.6Z" fill="white"/>
<path d="M15.7 11C15.3 11 15 11 14.6 10.8C14.2 10.6 13.9 10.4 13.5 10.1C12.8 9.6 12 8.9 10.9 8.7C10.6 8.6 10.3 8.6 10 8.6V9.6C10.2 9.6 10.4 9.6 10.7 9.6C11.5 9.8 12.2 10.3 12.9 10.9C13.3 11.2 13.7 11.5 14.2 11.7C14.7 11.9 15.3 12 15.8 11.9C16.3 11.8 16.8 11.7 17.3 11.4C17.7 11.1 18.1 10.7 18.4 10.3C19 9.5 19.2 8.6 19.6 7.7C19 8.4 18.6 9.3 18 9.9C17.3 10.7 16.5 11 15.7 11Z" fill="white"/>
</svg>
