<svg width="20" height="20" viewBox="0 0 20 20" fill="none" xmlns="http://www.w3.org/2000/svg">
<path d="M6.53521 10.0708L10 13.5356L13.4648 10.0708L10 6.60602L6.53521 10.0708Z" fill="white"/>
<path d="M2.3999 5.19995L17.8999 15" stroke="white" stroke-width="1.0966" stroke-miterlimit="10"/>
<path d="M1.8001 6.59995C2.73898 6.59995 3.5001 5.83884 3.5001 4.89995C3.5001 3.96107 2.73898 3.19995 1.8001 3.19995C0.861214 3.19995 0.100098 3.96107 0.100098 4.89995C0.100098 5.83884 0.861214 6.59995 1.8001 6.59995Z" fill="white"/>
<path d="M18.2 16.7999C19.1389 16.7999 19.9 16.0388 19.9 15.0999C19.9 14.161 19.1389 13.3999 18.2 13.3999C17.2611 13.3999 16.5 14.161 16.5 15.0999C16.5 16.0388 17.2611 16.7999 18.2 16.7999Z" fill="white"/>
<path opacity="0.5" d="M2 17H4V14H6L3 9.5L0 14H2V17Z" fill="white"/>
<path opacity="0.5" d="M18 3H16V6H14L17 10.5L20 6H18V3Z" fill="white"/>
</svg>
