<svg width="20" height="20" viewBox="0 0 20 20" fill="none" xmlns="http://www.w3.org/2000/svg">
<path d="M2.25 16.5C2.52 16.36 2.78 16.22 3.03 16.11L3.4 15.9399L3.73 15.72C4.21 15.65 4.63 15.46 4.99 15.21C5.71 14.72 6.06 13.8199 6.39 12.7899C6.57 12.2699 6.74 11.7199 7.04 11.1799L7.27 10.7799L7.57 10.41C7.76 10.14 8.03 9.95996 8.29 9.75996C8.82 9.39996 9.42 9.16997 10.01 9.06997C10.33 9.07997 10.62 9.12993 10.91 9.22993C11.2 9.30993 11.48 9.40996 11.75 9.50996C11.48 9.64996 11.22 9.77995 10.97 9.89995L10.6 10.07L10.27 10.2899C9.79 10.3699 9.36 10.5499 9 10.7899C8.27 11.2799 7.9 12.1599 7.58 13.1799C7.26 14.1799 6.82 15.4599 5.72 16.2299C5.2 16.5999 4.59 16.83 4.01 16.95C3.69 16.94 3.39 16.8899 3.1 16.7899C2.8 16.7099 2.52 16.61 2.25 16.5Z" fill="white"/>
<path opacity="0.5" fill-rule="evenodd" clip-rule="evenodd" d="M0 9.62998V16.37C0 18.38 1.63 20 3.63 20H10.37C12.38 20 14 18.37 14 16.37V9.62998C14 7.61998 12.37 6 10.37 6H3.63C1.63 6 0 7.62998 0 9.62998ZM10 19H4C2.34 19 1 17.66 1 16V10C1 8.34 2.34 7 4 7H10C11.66 7 13 8.34 13 10V16C13 17.66 11.66 19 10 19Z" fill="white"/>
<path opacity="0.5" fill-rule="evenodd" clip-rule="evenodd" d="M17 14.73V6.63999C17 4.62999 15.37 3.01001 13.37 3.01001H5.28C5.1 3.01001 4.94 3.08 4.81 3.2L4 4.01001H13C14.66 4.01001 16 5.35001 16 7.01001V16.01L16.81 15.2C16.93 15.07 17 14.9 17 14.73Z" fill="white"/>
<path opacity="0.5" fill-rule="evenodd" clip-rule="evenodd" d="M20 11.74V3.62998C20 1.61998 18.37 0 16.37 0H8.26C8.09 0 7.93 0.0699806 7.82 0.17998L7 1H16C17.66 1 19 2.34 19 4V13L19.82 12.18C19.93 12.07 20 11.91 20 11.74Z" fill="white"/>
</svg>
