<svg width="20" height="20" viewBox="0 0 20 20" fill="none" xmlns="http://www.w3.org/2000/svg">
<path d="M11.7498 16.5C11.4798 16.61 11.1998 16.7099 10.9098 16.7899C10.6198 16.8899 10.3198 16.94 9.99977 16.95C9.41977 16.83 8.80977 16.5999 8.28977 16.2299C7.18977 15.4599 6.74977 14.1799 6.42977 13.1799C6.09977 12.1499 5.72977 11.2699 5.00977 10.7899C4.64977 10.5499 4.21977 10.3699 3.73977 10.2899L3.40977 10.07L3.03977 9.89995C2.78977 9.77995 2.52977 9.64996 2.25977 9.50996C2.52977 9.40996 2.80977 9.30993 3.09977 9.22993C3.38977 9.12993 3.68977 9.07997 3.99977 9.06997C4.57977 9.16997 5.18977 9.40996 5.71977 9.75996C5.96977 9.95996 6.24977 10.14 6.43977 10.41L6.73977 10.7799L6.96977 11.1799C7.26977 11.7199 7.43976 12.2699 7.61977 12.7899C7.94977 13.8199 8.29977 14.72 9.01976 15.21C9.37977 15.46 9.79977 15.64 10.2798 15.72L10.6098 15.9399L10.9798 16.11C11.2198 16.22 11.4798 16.36 11.7498 16.5Z" fill="white"/>
<path opacity="0.5" fill-rule="evenodd" clip-rule="evenodd" d="M0 9.62998V16.37C0 18.38 1.63 20 3.63 20H10.37C12.38 20 14 18.37 14 16.37V9.62998C14 7.61998 12.37 6 10.37 6H3.63C1.63 6 0 7.62998 0 9.62998ZM10 19H4C2.34 19 1 17.66 1 16V10C1 8.34 2.34 7 4 7H10C11.66 7 13 8.34 13 10V16C13 17.66 11.66 19 10 19Z" fill="white"/>
<path opacity="0.5" fill-rule="evenodd" clip-rule="evenodd" d="M17 14.73V6.63999C17 4.62999 15.37 3.01001 13.37 3.01001H5.27C5.09 3.01001 4.93 3.08 4.8 3.2L4 4H13C14.66 4 16 5.34 16 7V16L16.81 15.19C16.93 15.07 17 14.9 17 14.73Z" fill="white"/>
<path opacity="0.5" fill-rule="evenodd" clip-rule="evenodd" d="M20 11.74V3.62998C20 1.61998 18.37 0 16.37 0H8.26C8.09 0 7.93 0.0699806 7.82 0.17998L7 1H16C17.66 1 19 2.34 19 4V13L19.82 12.18C19.93 12.07 20 11.91 20 11.74Z" fill="white"/>
</svg>
