<svg width="20" height="20" viewBox="0 0 20 20" fill="none" xmlns="http://www.w3.org/2000/svg">
<path d="M6.46548 6.50039L10.001 10.0359L13.5365 6.50039L10.001 2.96489L6.46548 6.50039Z" fill="white"/>
<path d="M1 6.5H19" stroke="white" stroke-miterlimit="10"/>
<path d="M2.5001 8.39985C3.54944 8.39985 4.4001 7.54919 4.4001 6.49985C4.4001 5.45051 3.54944 4.59985 2.5001 4.59985C1.45076 4.59985 0.600098 5.45051 0.600098 6.49985C0.600098 7.54919 1.45076 8.39985 2.5001 8.39985Z" fill="white"/>
<path d="M17.5001 8.39985C18.5494 8.39985 19.4001 7.54919 19.4001 6.49985C19.4001 5.45051 18.5494 4.59985 17.5001 4.59985C16.4508 4.59985 15.6001 5.45051 15.6001 6.49985C15.6001 7.54919 16.4508 8.39985 17.5001 8.39985Z" fill="white"/>
<path opacity="0.5" d="M0.500237 18C0.400237 16.7 0.400237 15.4 0.700237 14.1C1.20024 12.9 1.80024 11.7 2.70024 10.6C3.60024 9.6 4.70024 8.7 6.00024 8.2C7.30024 7.7 8.60024 7.4 10.0002 7.4C11.3002 7.4 12.7002 7.6 14.0002 8.2C15.3002 8.7 16.4002 9.6 17.3002 10.6C18.2002 11.6 18.9002 12.8 19.3002 14.1C19.6002 15.4 19.7002 16.7 19.5002 18C19.1002 16.8 18.7002 15.6 18.1002 14.5C17.7002 13.4 17.1002 12.3 16.3002 11.4C14.8002 9.6 12.4002 8.6 10.0002 8.6C7.60024 8.6 5.20024 9.5 3.70024 11.4C2.90024 12.3 2.30024 13.4 1.90024 14.5C1.30024 15.6 0.900237 16.8 0.500237 18Z" fill="white"/>
<path d="M8.5999 17.2L8.0999 19H6.3999L8.4999 12H10.5999L12.7999 19H11.0999L10.5999 17.2H8.5999ZM10.3999 16L9.9999 14.5C9.8999 14.1 9.7999 13.6 9.5999 13.1C9.4999 13.5 9.3999 14 9.2999 14.5L8.7999 16H10.3999Z" fill="white"/>
</svg>
