<svg width="20" height="20" viewBox="0 0 20 20" fill="none" xmlns="http://www.w3.org/2000/svg">
<path opacity="0.5" d="M2.5001 19.5C2.2001 18.1 2.1001 16.8 2.1001 15.4C2.2001 14 2.5001 12.7 2.9001 11.3C3.3001 10 3.8001 8.5 5.2001 7.5C5.5001 7.3 5.9001 7.1 6.3001 7C6.7001 6.9 7.1001 6.9 7.5001 6.9C8.2001 6.9 8.9001 7.1 9.6001 7.2C12.4001 8 14.7001 9.8 16.6001 11.9C17.5001 13 18.3001 14.1 19.0001 15.4C19.5001 16.7 19.8001 18.2 19.6001 19.5C19.2001 18.2 18.6001 17 17.8001 15.9C17.2001 14.7 16.5001 13.7 15.6001 12.7C13.9001 10.7 11.7001 9.1 9.3001 8.4C8.7001 8.2 8.1001 8.1 7.4001 8.1C6.8001 8 6.3001 8.2 5.9001 8.5C5.0001 9.1 4.5001 10.4 4.1001 11.6C3.7001 12.8 3.5001 14.2 3.4001 15.5C3.0001 16.8 2.8001 18.1 2.5001 19.5Z" fill="white"/>
<path d="M4.46596 5.50088L8.00146 9.03638L11.537 5.50088L8.00146 1.96538L4.46596 5.50088Z" fill="white"/>
<path d="M1 5.5H19" stroke="white" stroke-miterlimit="10"/>
<path d="M2.5001 7.39985C3.54944 7.39985 4.4001 6.54919 4.4001 5.49985C4.4001 4.45051 3.54944 3.59985 2.5001 3.59985C1.45076 3.59985 0.600098 4.45051 0.600098 5.49985C0.600098 6.54919 1.45076 7.39985 2.5001 7.39985Z" fill="white"/>
<path d="M17.5001 7.39985C18.5494 7.39985 19.4001 6.54919 19.4001 5.49985C19.4001 4.45051 18.5494 3.59985 17.5001 3.59985C16.4508 3.59985 15.6001 4.45051 15.6001 5.49985C15.6001 6.54919 16.4508 7.39985 17.5001 7.39985Z" fill="white"/>
</svg>
