<svg width="20" height="20" viewBox="0 0 20 20" fill="none" xmlns="http://www.w3.org/2000/svg">
<path opacity="0.5" d="M0 7.2C0.5 6.3 1.6 5.7 2.6 5.4C3.7 5.3 4.8 5.4 5.8 5.7C7.8 6.3 9.7 7.3 11.2 8.8C12.7 10.3 13.8 12.2 14.3 14.2C14.6 15.2 14.7 16.3 14.6 17.4C14.3 18.5 13.7 19.5 12.8 20C13.3 19.1 13.4 18.2 13.4 17.2C13.5 16.3 13.4 15.4 13.2 14.5C12.7 12.7 11.8 11 10.4 9.7C9 8.4 7.3 7.4 5.5 6.9C4.6 6.7 3.6 6.6 2.7 6.7C1.8 6.6 0.9 6.7 0 7.2Z" fill="white"/>
<path d="M6.6001 2.59985L17.4001 13.3999" stroke="white" stroke-width="0.75" stroke-miterlimit="10"/>
<path d="M6.0002 3.79995C6.99431 3.79995 7.8002 2.99406 7.8002 1.99995C7.8002 1.00584 6.99431 0.199951 6.0002 0.199951C5.00608 0.199951 4.2002 1.00584 4.2002 1.99995C4.2002 2.99406 5.00608 3.79995 6.0002 3.79995Z" fill="white"/>
<path d="M18.0002 15.8C18.9943 15.8 19.8002 14.9941 19.8002 14C19.8002 13.0058 18.9943 12.2 18.0002 12.2C17.0061 12.2 16.2002 13.0058 16.2002 14C16.2002 14.9941 17.0061 15.8 18.0002 15.8Z" fill="white"/>
<path d="M8.53521 8.07085L12 11.5356L15.4648 8.07085L12 4.60607L8.53521 8.07085Z" fill="white"/>
</svg>
