<svg width="20" height="20" viewBox="0 0 20 20" fill="none" xmlns="http://www.w3.org/2000/svg">
<path d="M6.53521 10.5709L10 14.0356L13.4648 10.5709L10 7.10607L6.53521 10.5709Z" fill="white"/>
<path d="M2.5001 5.4001C3.54944 5.4001 4.4001 4.54944 4.4001 3.5001C4.4001 2.45076 3.54944 1.6001 2.5001 1.6001C1.45076 1.6001 0.600098 2.45076 0.600098 3.5001C0.600098 4.54944 1.45076 5.4001 2.5001 5.4001Z" fill="white"/>
<path d="M17.5001 5.4001C18.5494 5.4001 19.4001 4.54944 19.4001 3.5001C19.4001 2.45076 18.5494 1.6001 17.5001 1.6001C16.4508 1.6001 15.6001 2.45076 15.6001 3.5001C15.6001 4.54944 16.4508 5.4001 17.5001 5.4001Z" fill="white"/>
<path d="M2.5 3.5L10 11L17.5 3.5" stroke="white" stroke-miterlimit="10"/>
<path opacity="0.5" d="M0.600098 19.6C0.300098 18.1 0.100098 16.6 0.100098 15C0.300098 13.5 0.500098 11.8 1.5001 10.4C2.0001 9.7 2.8001 9.1 3.8001 9C4.7001 8.9 5.5001 9 6.3001 9.3C7.8001 9.8 9.2001 10.7 10.4001 11.6H9.6001C10.8001 10.7 12.2001 9.9 13.7001 9.3C14.5001 9 15.3001 8.9 16.2001 9C17.1001 9.1 18.0001 9.7 18.5001 10.4C19.5001 11.8 19.7001 13.5 19.9001 15C19.8001 16.6 19.6001 18.1 19.4001 19.6C19.2001 18.1 19.0001 16.6 18.7001 15.1C18.6001 13.7 18.3001 12.2 17.6001 11.1C17.2001 10.6 16.7001 10.3 16.1001 10.2C15.5001 10.1 14.8001 10.2 14.2001 10.4C12.9001 10.9 11.6001 11.6 10.4001 12.5L10.0001 12.9L9.6001 12.6C8.4001 11.7 7.2001 11 5.8001 10.5C5.1001 10.3 4.5001 10.2 3.9001 10.3C3.3001 10.4 2.8001 10.7 2.4001 11.2C1.7001 12.2 1.4001 13.7 1.3001 15.2C1.0001 16.5 0.900098 18 0.600098 19.6Z" fill="white"/>
</svg>
