<svg width="20" height="20" viewBox="0 0 20 20" fill="none" xmlns="http://www.w3.org/2000/svg">
<path opacity="0.5" d="M2 1H0V19H2V1Z" fill="white"/>
<path opacity="0.5" d="M19 1H17V19H19V1Z" fill="white"/>
<path fill-rule="evenodd" clip-rule="evenodd" d="M9.5 4.5C6.2 4.5 3.5 7.2 3.5 10.5C3.5 13.8 6.2 16.5 9.5 16.5C12.8 16.5 15.5 13.8 15.5 10.5C15.5 7.2 12.8 4.5 9.5 4.5ZM9.5 15.4C6.8 15.4 4.6 13.2 4.6 10.5C4.6 7.8 6.8 5.6 9.5 5.6C12.2 5.6 14.4 7.8 14.4 10.5C14.4 13.2 12.2 15.4 9.5 15.4Z" fill="white"/>
<path fill-rule="evenodd" clip-rule="evenodd" d="M10 6.6001H9V10.9001L11.5 13.3001L12.2 12.6001L10 10.5001V6.6001Z" fill="white"/>
</svg>
