<svg width="20" height="20" viewBox="0 0 20 20" fill="none" xmlns="http://www.w3.org/2000/svg">
<path opacity="0.5" d="M19 1H6V3H19V1Z" fill="white"/>
<path d="M4 1H1V4H4V1Z" fill="white"/>
<path opacity="0.5" d="M4 6H1V9H4V6Z" fill="white"/>
<path opacity="0.5" d="M10 11H6V13H10V11Z" fill="white"/>
<path opacity="0.5" d="M10 6H6V8H10V6Z" fill="white"/>
<path opacity="0.5" fill-rule="evenodd" clip-rule="evenodd" d="M19.0001 8H17.0001L14.6001 6H19.0001V8Z" fill="white"/>
<path d="M4 11H1V14H4V11Z" fill="white"/>
<path opacity="0.5" d="M10 16H6V18H10V16Z" fill="white"/>
<path d="M4 16H1V19H4V16Z" fill="white"/>
<path d="M20 13.8L12 7L12.1 17.5L14.4 14.3L16.7 19L18.4 18.2L16.1 13.5L20 13.8Z" fill="white"/>
</svg>
