<?xml version="1.0" encoding="UTF-8" standalone="no"?>
<!-- Created with Inkscape (http://www.inkscape.org/) -->

<svg
   width="377.95276"
   height="377.95276"
   viewBox="0 0 100 100"
   version="1.1"
   id="svg3331"
   inkscape:version="1.2.2 (732a01da63, 2022-12-09)"
   sodipodi:docname="enter.svg"
   xmlns:inkscape="http://www.inkscape.org/namespaces/inkscape"
   xmlns:sodipodi="http://sodipodi.sourceforge.net/DTD/sodipodi-0.dtd"
   xmlns="http://www.w3.org/2000/svg"
   xmlns:svg="http://www.w3.org/2000/svg">
  <sodipodi:namedview
     id="namedview3333"
     pagecolor="#9f9f9f"
     bordercolor="#000000"
     borderopacity="0.25"
     inkscape:showpageshadow="2"
     inkscape:pageopacity="0"
     inkscape:pagecheckerboard="0"
     inkscape:deskcolor="#d1d1d1"
     inkscape:document-units="mm"
     showgrid="false"
     inkscape:zoom="2.3786088"
     inkscape:cx="83.66235"
     inkscape:cy="260.23615"
     inkscape:window-width="3840"
     inkscape:window-height="2054"
     inkscape:window-x="2549"
     inkscape:window-y="-11"
     inkscape:window-maximized="1"
     inkscape:current-layer="layer1" />
  <defs
     id="defs3328">
    <mask
       id="path-2-outside-1_70_327"
       maskUnits="userSpaceOnUse"
       x="33"
       y="44"
       width="35"
       height="12"
       fill="#000000">
      <rect
         fill="#ffffff"
         x="33"
         y="44"
         width="35"
         height="12"
         id="rect4" />
      <path
         d="M 40.6663,53.842 V 55 H 34.9796 V 53.842 Z M 35.2672,44.2609 V 55 H 33.8437 V 44.2609 Z m 4.6467,4.6173 v 1.1579 h -4.9343 v -1.1579 z m 0.6786,-4.6173 v 1.1654 h -5.6129 v -1.1654 z m 3.0858,4.4624 V 55 h -1.3646 v -7.9805 h 1.2908 z m -0.3246,1.984 -0.5679,-0.0221 c 0.0049,-0.5458 0.086,-1.0498 0.2434,-1.512 0.1573,-0.4671 0.3786,-0.8728 0.6638,-1.217 0.2852,-0.3442 0.6245,-0.6097 1.0179,-0.7966 0.3982,-0.1918 0.8383,-0.2876 1.3202,-0.2876 0.3934,0 0.7474,0.054 1.0621,0.1622 0.3147,0.1033 0.5827,0.2705 0.804,0.5016 0.2262,0.2311 0.3983,0.531 0.5163,0.8998 0.118,0.3639 0.177,0.8089 0.177,1.335 V 55 h -1.3719 v -5.2441 c 0,-0.418 -0.0615,-0.7524 -0.1844,-1.0031 -0.1229,-0.2557 -0.3024,-0.4401 -0.5384,-0.5532 -0.236,-0.118 -0.5262,-0.177 -0.8704,-0.177 -0.3392,0 -0.649,0.0713 -0.9293,0.2139 -0.2754,0.1426 -0.5138,0.3392 -0.7154,0.59 -0.1967,0.2508 -0.3516,0.5384 -0.4647,0.863 -0.1082,0.3196 -0.1623,0.6589 -0.1623,1.0178 z m 10.7418,-3.6878 v 1.0473 h -4.3148 v -1.0473 z m -2.8544,-1.9398 h 1.3645 v 7.9436 c 0,0.2704 0.0418,0.4745 0.1254,0.6122 0.0836,0.1377 0.1917,0.2286 0.3245,0.2729 0.1328,0.0442 0.2754,0.0664 0.4278,0.0664 0.1131,0 0.2311,-0.0099 0.354,-0.0295 0.1279,-0.0246 0.2238,-0.0443 0.2877,-0.059 L 54.1324,55 c -0.1082,0.0344 -0.2508,0.0664 -0.4278,0.0959 -0.1721,0.0344 -0.3811,0.0516 -0.627,0.0516 -0.3343,0 -0.6417,-0.0664 -0.9219,-0.1991 -0.2803,-0.1328 -0.504,-0.3541 -0.6712,-0.6638 -0.1623,-0.3147 -0.2434,-0.7376 -0.2434,-1.2687 z m 7.8578,10.0678 c -0.5556,0 -1.0596,-0.0934 -1.512,-0.2803 -0.4475,-0.1917 -0.8335,-0.4597 -1.158,-0.8039 -0.3196,-0.3442 -0.5655,-0.7523 -0.7376,-1.2244 -0.1721,-0.472 -0.2581,-0.9883 -0.2581,-1.5489 v -0.3098 c 0,-0.649 0.0959,-1.2268 0.2876,-1.7333 0.1918,-0.5113 0.4524,-0.9441 0.7819,-1.2981 0.3294,-0.354 0.7031,-0.622 1.1211,-0.8039 0.4179,-0.182 0.8506,-0.2729 1.2981,-0.2729 0.5704,0 1.0621,0.0983 1.4751,0.295 0.418,0.1967 0.7597,0.472 1.0253,0.8261 0.2655,0.3491 0.4622,0.7621 0.59,1.2391 0.1279,0.472 0.1918,0.9883 0.1918,1.5489 v 0.6122 h -5.9596 v -1.1138 h 4.5951 v -0.1032 c -0.0197,-0.3541 -0.0934,-0.6983 -0.2213,-1.0326 -0.1229,-0.3344 -0.3196,-0.6097 -0.59,-0.8261 -0.2705,-0.2164 -0.6393,-0.3245 -1.1064,-0.3245 -0.3098,0 -0.595,0.0663 -0.8556,0.1991 -0.2606,0.1279 -0.4843,0.3196 -0.6712,0.5753 -0.1868,0.2557 -0.3319,0.5679 -0.4351,0.9367 -0.1033,0.3688 -0.1549,0.7942 -0.1549,1.276 V 51.29 c 0,0.3786 0.0516,0.7351 0.1549,1.0695 0.1081,0.3294 0.263,0.6196 0.4646,0.8703 0.2065,0.2508 0.4549,0.4475 0.745,0.5901 0.295,0.1426 0.6294,0.2139 1.0031,0.2139 0.4819,0 0.89,-0.0984 1.2243,-0.295 0.3344,-0.1967 0.627,-0.4598 0.8778,-0.7893 l 0.826,0.6565 c -0.1721,0.2606 -0.3909,0.5089 -0.6564,0.7449 -0.2655,0.2361 -0.5925,0.4278 -0.981,0.5753 -0.3835,0.1476 -0.8383,0.2213 -1.3645,0.2213 z M 65.253,48.2733 V 55 h -1.3645 v -7.9805 h 1.3276 z m 2.493,-1.2981 -0.0074,1.2686 c -0.1131,-0.0245 -0.2213,-0.0393 -0.3245,-0.0442 -0.0984,-0.0098 -0.2115,-0.0148 -0.3393,-0.0148 -0.3147,0 -0.5925,0.0492 -0.8335,0.1475 -0.2409,0.0984 -0.445,0.2361 -0.6122,0.4131 -0.1671,0.177 -0.2999,0.3884 -0.3983,0.6343 -0.0934,0.2409 -0.1548,0.5065 -0.1843,0.7966 l -0.3836,0.2212 c 0,-0.4818 0.0467,-0.9342 0.1402,-1.3571 0.0983,-0.4229 0.2483,-0.7966 0.4499,-1.1211 0.2016,-0.3294 0.4573,-0.5851 0.767,-0.7671 0.3147,-0.1868 0.6884,-0.2802 1.1212,-0.2802 0.0983,0 0.2114,0.0122 0.3392,0.0368 0.1279,0.0197 0.2164,0.0418 0.2656,0.0664 z"
         id="path6" />
    </mask>
  </defs>
  <g
     inkscape:label="Layer 1"
     inkscape:groupmode="layer"
     id="layer1">
    <rect
       x="20.401329"
       y="33.346645"
       width="59.94138"
       height="29.618078"
       rx="2.9383037"
       stroke="#ffffff"
       stroke-width="1.17532"
       id="rect2-4"
       style="fill:none" />
    <path
       d="m 41.269625,51.54144 v 1.096161 h -5.38304 V 51.54144 Z m -5.11081,-9.069473 v 10.165634 h -1.34747 V 42.471967 Z m 4.39857,4.370738 v 1.096068 h -4.6708 v -1.096068 z m 0.64237,-4.370738 v 1.10317 h -5.31317 v -1.10317 z m 2.92102,4.22411 v 5.941524 h -1.29173 v -7.554342 h 1.22185 z m -0.30733,1.878053 -0.53758,-0.02111 c 0.004,-0.516652 0.0816,-0.993738 0.2304,-1.431259 0.14883,-0.442157 0.35838,-0.826191 0.62835,-1.152013 0.27012,-0.325821 0.59115,-0.57714 0.96355,-0.754061 0.37695,-0.181569 0.79353,-0.272228 1.24969,-0.272228 0.3724,0 0.70749,0.05112 1.00541,0.153555 0.29802,0.09778 0.55157,0.256057 0.76104,0.474815 0.21395,0.218741 0.37702,0.502646 0.48875,0.851751 0.11163,0.344461 0.16744,0.765707 0.16744,1.263712 v 4.950158 h -1.29849 v -4.964061 c 0,-0.39568 -0.0583,-0.712225 -0.17459,-0.949537 -0.11628,-0.242031 -0.28622,-0.416598 -0.50968,-0.523657 -0.22325,-0.111696 -0.49809,-0.167544 -0.82391,-0.167544 -0.32092,0 -0.61433,0.06747 -0.87969,0.202462 -0.26081,0.134987 -0.48635,0.321098 -0.67718,0.558494 -0.18604,0.237416 -0.33273,0.509646 -0.43988,0.816914 -0.10232,0.302531 -0.15348,0.623715 -0.15348,0.96345 z m 10.16819,-3.490871 v 0.991374 h -4.08441 v -0.991374 z m -2.70192,-1.836215 h 1.29162 v 7.519412 c 0,0.255949 0.0397,0.449163 0.11878,0.579509 0.0791,0.130336 0.18139,0.216379 0.30733,0.25831 0.12557,0.04186 0.26081,0.06287 0.40496,0.06287 0.10697,0 0.21859,-0.0093 0.33523,-0.02791 0.12092,-0.02325 0.2118,-0.04194 0.27226,-0.05585 l 0.007,1.054228 c -0.10232,0.03255 -0.23756,0.06285 -0.40496,0.09076 -0.16278,0.03256 -0.36074,0.04884 -0.5935,0.04884 -0.31627,0 -0.60743,-0.06286 -0.87268,-0.188473 -0.26546,-0.12572 -0.47708,-0.335195 -0.63536,-0.628351 -0.15348,-0.297878 -0.2304,-0.698212 -0.2304,-1.200951 z m 7.43819,9.53018 c -0.52593,0 -1.00301,-0.0884 -1.43126,-0.265322 -0.4236,-0.181461 -0.78899,-0.435153 -1.09614,-0.760973 -0.30267,-0.325822 -0.53533,-0.712127 -0.69822,-1.159015 -0.16279,-0.446798 -0.24436,-0.935526 -0.24436,-1.466188 v -0.293264 c 0,-0.614345 0.0909,-1.16129 0.27226,-1.640742 0.18139,-0.483998 0.42825,-0.893684 0.74016,-1.228783 0.31197,-0.335087 0.66556,-0.588785 1.06125,-0.760973 0.39559,-0.172267 0.80516,-0.25831 1.22876,-0.25831 0.53995,0 1.00541,0.09306 1.39634,0.279239 0.3957,0.186184 0.71912,0.446798 0.97056,0.78199 0.25116,0.330472 0.43752,0.721404 0.55848,1.172931 0.12093,0.446794 0.18175,0.935526 0.18175,1.466189 v 0.579508 h -5.64136 v -1.054323 h 4.3497 v -0.09767 c -0.0179,-0.335194 -0.0884,-0.661008 -0.20965,-0.977459 -0.11628,-0.316555 -0.30268,-0.577141 -0.55848,-0.781986 -0.25617,-0.204859 -0.60517,-0.307182 -1.04734,-0.307182 -0.29337,0 -0.5632,0.06275 -0.80988,0.188474 -0.24686,0.121069 -0.45845,0.30253 -0.63537,0.54458 -0.17674,0.242031 -0.31412,0.537575 -0.41186,0.886679 -0.0977,0.349113 -0.14669,0.75179 -0.14669,1.207861 v 0.293264 c 0,0.358386 0.049,0.695849 0.14669,1.01239 0.10232,0.311797 0.24901,0.586514 0.43977,0.823826 0.19534,0.237416 0.43061,0.423603 0.70524,0.55859 0.27906,0.134987 0.59579,0.202462 0.94952,0.202462 0.45616,0 0.84248,-0.09316 1.15892,-0.279239 0.31663,-0.186184 0.59351,-0.435249 0.83092,-0.747153 l 0.78191,0.621443 c -0.16278,0.246683 -0.37004,0.481724 -0.62137,0.705122 -0.25116,0.223499 -0.56085,0.404956 -0.9286,0.54458 -0.36303,0.139709 -0.79353,0.209475 -1.29165,0.209475 z m 5.8255,-6.507119 v 6.367496 h -1.29166 v -7.554342 h 1.2567 z m 2.35985,-1.22878 -0.007,1.200855 c -0.10698,-0.02325 -0.2093,-0.03721 -0.30697,-0.04182 -0.093,-0.0093 -0.20035,-0.01395 -0.32128,-0.01395 -0.29802,0 -0.56084,0.04658 -0.78899,0.139638 -0.2279,0.09316 -0.42124,0.223499 -0.57948,0.391043 -0.15813,0.167544 -0.28407,0.367659 -0.37705,0.600427 -0.0884,0.228043 -0.14669,0.479451 -0.17459,0.754062 l -0.36311,0.209403 c 0,-0.456075 0.044,-0.884315 0.13274,-1.284631 0.093,-0.40032 0.23505,-0.754062 0.42589,-1.061236 0.19069,-0.311797 0.43286,-0.553853 0.72602,-0.726138 0.29802,-0.176809 0.65164,-0.265251 1.06133,-0.265251 0.093,0 0.19999,0.01145 0.32127,0.03471 0.12093,0.01861 0.20465,0.03957 0.25152,0.06286 z"
       fill="#ffffff"
       id="path9"
       style="stroke-width:0.9466" />
  </g>
</svg>
