<svg width="100" height="100" viewBox="0 0 100 100" fill="none" xmlns="http://www.w3.org/2000/svg">
<rect x="35.5839" y="35.5839" width="29.4303" height="29.4303" rx="2.91967" stroke="white" stroke-width="1.16787"/>
<mask id="path-2-outside-1_73_340" maskUnits="userSpaceOnUse" x="43" y="44" width="15" height="12" fill="black">
<rect fill="white" x="43" y="44" width="15" height="12"/>
<path d="M44.9187 45.0366V55H43.598V45.0366H44.9187ZM49.0929 49.5188V50.6H44.6312V49.5188H49.0929ZM49.7703 45.0366V46.1178H44.6312V45.0366H49.7703ZM57.6298 53.9599V55H51.1084V54.0899L54.3725 50.4563C54.7739 50.0092 55.0842 49.6305 55.3031 49.3203C55.5267 49.0055 55.6818 48.725 55.7685 48.4786C55.8597 48.2277 55.9053 47.9723 55.9053 47.7122C55.9053 47.3838 55.8369 47.0872 55.7 46.8226C55.5677 46.5535 55.3716 46.3391 55.1115 46.1794C54.8515 46.0197 54.5367 45.9399 54.1672 45.9399C53.7247 45.9399 53.3552 46.0266 53.0586 46.1999C52.7667 46.3687 52.5477 46.6059 52.4017 46.9116C52.2557 47.2172 52.1827 47.5685 52.1827 47.9654H50.9168C50.9168 47.4043 51.04 46.8911 51.2863 46.4257C51.5327 45.9604 51.8976 45.5909 52.3812 45.3172C52.8648 45.0389 53.4601 44.8998 54.1672 44.8998C54.7968 44.8998 55.3351 45.0115 55.7821 45.2351C56.2292 45.454 56.5714 45.7643 56.8086 46.1657C57.0504 46.5626 57.1713 47.0279 57.1713 47.5617C57.1713 47.8536 57.1211 48.1502 57.0207 48.4513C56.9249 48.7478 56.7903 49.0443 56.617 49.3409C56.4482 49.6374 56.2498 49.9293 56.0217 50.2168C55.7981 50.5042 55.5586 50.787 55.3031 51.0653L52.6344 53.9599H57.6298Z"/>
</mask>
<path d="M44.9187 45.0366V55H43.598V45.0366H44.9187ZM49.0929 49.5188V50.6H44.6312V49.5188H49.0929ZM49.7703 45.0366V46.1178H44.6312V45.0366H49.7703ZM57.6298 53.9599V55H51.1084V54.0899L54.3725 50.4563C54.7739 50.0092 55.0842 49.6305 55.3031 49.3203C55.5267 49.0055 55.6818 48.725 55.7685 48.4786C55.8597 48.2277 55.9053 47.9723 55.9053 47.7122C55.9053 47.3838 55.8369 47.0872 55.7 46.8226C55.5677 46.5535 55.3716 46.3391 55.1115 46.1794C54.8515 46.0197 54.5367 45.9399 54.1672 45.9399C53.7247 45.9399 53.3552 46.0266 53.0586 46.1999C52.7667 46.3687 52.5477 46.6059 52.4017 46.9116C52.2557 47.2172 52.1827 47.5685 52.1827 47.9654H50.9168C50.9168 47.4043 51.04 46.8911 51.2863 46.4257C51.5327 45.9604 51.8976 45.5909 52.3812 45.3172C52.8648 45.0389 53.4601 44.8998 54.1672 44.8998C54.7968 44.8998 55.3351 45.0115 55.7821 45.2351C56.2292 45.454 56.5714 45.7643 56.8086 46.1657C57.0504 46.5626 57.1713 47.0279 57.1713 47.5617C57.1713 47.8536 57.1211 48.1502 57.0207 48.4513C56.9249 48.7478 56.7903 49.0443 56.617 49.3409C56.4482 49.6374 56.2498 49.9293 56.0217 50.2168C55.7981 50.5042 55.5586 50.787 55.3031 51.0653L52.6344 53.9599H57.6298Z" fill="white"/>
<path d="M44.9187 45.0366H45.1522V44.803H44.9187V45.0366ZM44.9187 55V55.2336H45.1522V55H44.9187ZM43.598 55H43.3644V55.2336H43.598V55ZM43.598 45.0366V44.803H43.3644V45.0366H43.598ZM49.0929 49.5188H49.3264V49.2852H49.0929V49.5188ZM49.0929 50.6V50.8335H49.3264V50.6H49.0929ZM44.6312 50.6H44.3977V50.8335H44.6312V50.6ZM44.6312 49.5188V49.2852H44.3977V49.5188H44.6312ZM49.7703 45.0366H50.0039V44.803H49.7703V45.0366ZM49.7703 46.1178V46.3514H50.0039V46.1178H49.7703ZM44.6312 46.1178H44.3977V46.3514H44.6312V46.1178ZM44.6312 45.0366V44.803H44.3977V45.0366H44.6312ZM44.6851 45.0366V55H45.1522V45.0366H44.6851ZM44.9187 54.7664H43.598V55.2336H44.9187V54.7664ZM43.8315 55V45.0366H43.3644V55H43.8315ZM43.598 45.2702H44.9187V44.803H43.598V45.2702ZM48.8593 49.5188V50.6H49.3264V49.5188H48.8593ZM49.0929 50.3664H44.6312V50.8335H49.0929V50.3664ZM44.8648 50.6V49.5188H44.3977V50.6H44.8648ZM44.6312 49.7523H49.0929V49.2852H44.6312V49.7523ZM49.5368 45.0366V46.1178H50.0039V45.0366H49.5368ZM49.7703 45.8842H44.6312V46.3514H49.7703V45.8842ZM44.8648 46.1178V45.0366H44.3977V46.1178H44.8648ZM44.6312 45.2702H49.7703V44.803H44.6312V45.2702ZM57.6298 53.9599H57.8633V53.7263H57.6298V53.9599ZM57.6298 55V55.2336H57.8633V55H57.6298ZM51.1084 55H50.8748V55.2336H51.1084V55ZM51.1084 54.0899L50.9346 53.9338L50.8748 54.0004V54.0899H51.1084ZM54.3725 50.4563L54.5463 50.6123L54.5463 50.6123L54.3725 50.4563ZM55.3031 49.3203L55.1127 49.1851L55.1123 49.1856L55.3031 49.3203ZM55.7685 48.4786L55.5489 48.3988L55.5481 48.4011L55.7685 48.4786ZM55.7 46.8226L55.4904 46.9257L55.4926 46.9299L55.7 46.8226ZM53.0586 46.1999L53.1755 46.4021L53.1765 46.4016L53.0586 46.1999ZM52.1827 47.9654V48.199H52.4163V47.9654H52.1827ZM50.9168 47.9654H50.6832V48.199H50.9168V47.9654ZM52.3812 45.3172L52.4962 45.5205L52.4977 45.5196L52.3812 45.3172ZM55.7821 45.2351L55.6777 45.444L55.6794 45.4448L55.7821 45.2351ZM56.8086 46.1657L56.6075 46.2845L56.6091 46.2872L56.8086 46.1657ZM57.0207 48.4513L56.7991 48.3774L56.7985 48.3795L57.0207 48.4513ZM56.617 49.3409L56.4153 49.223L56.414 49.2253L56.617 49.3409ZM56.0217 50.2168L55.8387 50.0715L55.8373 50.0734L56.0217 50.2168ZM55.3031 51.0653L55.4749 51.2236L55.4752 51.2232L55.3031 51.0653ZM52.6344 53.9599L52.4626 53.8015L52.1013 54.1934H52.6344V53.9599ZM57.3962 53.9599V55H57.8633V53.9599H57.3962ZM57.6298 54.7664H51.1084V55.2336H57.6298V54.7664ZM51.342 55V54.0899H50.8748V55H51.342ZM51.2821 54.246L54.5463 50.6123L54.1987 50.3002L50.9346 53.9338L51.2821 54.246ZM54.5463 50.6123C54.9508 50.1619 55.2676 49.7757 55.494 49.455L55.1123 49.1856C54.9007 49.4854 54.5971 49.8565 54.1987 50.3002L54.5463 50.6123ZM55.4936 49.4556C55.7243 49.1307 55.8923 48.8303 55.9888 48.5562L55.5481 48.4011C55.4712 48.6197 55.329 48.8804 55.1127 49.1851L55.4936 49.4556ZM55.988 48.5585C56.0883 48.2827 56.1389 48.0002 56.1389 47.7122H55.6717C55.6717 47.9443 55.6311 48.1728 55.5489 48.3988L55.988 48.5585ZM56.1389 47.7122C56.1389 47.3503 56.0632 47.0164 55.9075 46.7153L55.4926 46.9299C55.6106 47.1581 55.6717 47.4172 55.6717 47.7122H56.1389ZM55.9097 46.7196C55.7575 46.4101 55.5307 46.1627 55.2338 45.9803L54.9893 46.3784C55.2124 46.5154 55.3779 46.6969 55.4904 46.9257L55.9097 46.7196ZM55.2338 45.9803C54.9299 45.7938 54.5707 45.7063 54.1672 45.7063V46.1735C54.5027 46.1735 54.7731 46.2457 54.9893 46.3784L55.2338 45.9803ZM54.1672 45.7063C53.695 45.7063 53.282 45.7988 52.9408 45.9983L53.1765 46.4016C53.4284 46.2543 53.7544 46.1735 54.1672 46.1735V45.7063ZM52.9417 45.9977C52.6088 46.1902 52.3572 46.4629 52.1909 46.8109L52.6125 47.0123C52.7382 46.749 52.9246 46.5472 53.1755 46.4021L52.9417 45.9977ZM52.1909 46.8109C52.0276 47.153 51.9492 47.5396 51.9492 47.9654H52.4163C52.4163 47.5974 52.4839 47.2815 52.6125 47.0123L52.1909 46.8109ZM52.1827 47.7318H50.9168V48.199H52.1827V47.7318ZM51.1504 47.9654C51.1504 47.4398 51.2654 46.9645 51.4927 46.535L51.0799 46.3165C50.8145 46.8177 50.6832 47.3688 50.6832 47.9654H51.1504ZM51.4927 46.535C51.717 46.1113 52.0492 45.7735 52.4962 45.5204L52.2661 45.1139C51.746 45.4083 51.3483 45.8095 51.0799 46.3165L51.4927 46.535ZM52.4977 45.5196C52.9375 45.2665 53.4902 45.1333 54.1672 45.1333V44.6662C53.43 44.6662 52.792 44.8113 52.2647 45.1147L52.4977 45.5196ZM54.1672 45.1333C54.7697 45.1333 55.2704 45.2403 55.6777 45.444L55.8866 45.0261C55.3998 44.7827 54.8238 44.6662 54.1672 44.6662V45.1333ZM55.6794 45.4448C56.0884 45.6452 56.3951 45.925 56.6075 46.2845L57.0097 46.0469C56.7477 45.6035 56.37 45.2629 55.8849 45.0253L55.6794 45.4448ZM56.6091 46.2872C56.8255 46.6423 56.9377 47.0643 56.9377 47.5617H57.4048C57.4048 46.9915 57.2753 46.4829 57.0081 46.0442L56.6091 46.2872ZM56.9377 47.5617C56.9377 47.8264 56.8923 48.0981 56.7991 48.3774L57.2423 48.5251C57.3499 48.2023 57.4048 47.8808 57.4048 47.5617H56.9377ZM56.7985 48.3795C56.7083 48.6584 56.581 48.9395 56.4153 49.223L56.8186 49.4587C56.9997 49.1491 57.1415 48.8372 57.243 48.5231L56.7985 48.3795ZM56.414 49.2253C56.2515 49.5107 56.0599 49.7928 55.8387 50.0716L56.2046 50.362C56.4396 50.0659 56.6449 49.7641 56.82 49.4564L56.414 49.2253ZM55.8373 50.0734C55.6178 50.3556 55.3824 50.6336 55.1311 50.9073L55.4752 51.2232C55.7348 50.9405 55.9784 50.6528 56.206 50.3602L55.8373 50.0734ZM55.1314 50.907L52.4626 53.8015L52.8061 54.1182L55.4749 51.2236L55.1314 50.907ZM52.6344 54.1934H57.6298V53.7263H52.6344V54.1934Z" fill="white" mask="url(#path-2-outside-1_73_340)"/>
</svg>
