<svg width="100" height="100" viewBox="0 0 100 100" fill="none" xmlns="http://www.w3.org/2000/svg">
<rect x="35.5839" y="35.5839" width="29.4303" height="29.4303" rx="2.91967" stroke="white" stroke-width="1.16787"/>
<mask id="path-2-outside-1_73_350" maskUnits="userSpaceOnUse" x="43.2988" y="44" width="15" height="12" fill="black">
<rect fill="white" x="43.2988" y="44" width="15" height="12"/>
<path d="M45.2175 45.0366V55H43.8968V45.0366H45.2175ZM49.3917 49.5188V50.6H44.9301V49.5188H49.3917ZM50.0692 45.0366V46.1178H44.9301V45.0366H50.0692ZM53.248 49.3956H54.1513C54.5938 49.3956 54.9587 49.3226 55.2461 49.1766C55.5381 49.0261 55.7548 48.8231 55.8962 48.5676C56.0422 48.3076 56.1152 48.0156 56.1152 47.6917C56.1152 47.3085 56.0513 46.9869 55.9236 46.7268C55.7959 46.4668 55.6042 46.2706 55.3488 46.1383C55.0933 46.006 54.7694 45.9399 54.3771 45.9399C54.0212 45.9399 53.7065 46.0106 53.4327 46.152C53.1636 46.2889 52.9515 46.485 52.7963 46.7405C52.6458 46.996 52.5705 47.2971 52.5705 47.6438H51.3046C51.3046 47.1374 51.4323 46.6766 51.6878 46.2615C51.9433 45.8464 52.3014 45.5156 52.7621 45.2693C53.2275 45.0229 53.7658 44.8998 54.3771 44.8998C54.9793 44.8998 55.5062 45.007 55.9578 45.2214C56.4094 45.4312 56.7607 45.746 57.0116 46.1657C57.2625 46.5808 57.388 47.0986 57.388 47.7191C57.388 47.97 57.3287 48.2391 57.2101 48.5265C57.096 48.8094 56.9158 49.074 56.6695 49.3203C56.4277 49.5667 56.1129 49.7697 55.7251 49.9293C55.3374 50.0845 54.872 50.162 54.3292 50.162H53.248V49.3956ZM53.248 50.4357V49.6762H54.3292C54.9633 49.6762 55.4879 49.7514 55.9031 49.902C56.3182 50.0525 56.6444 50.2532 56.8816 50.5042C57.1234 50.7551 57.2922 51.0311 57.388 51.3322C57.4883 51.6287 57.5385 51.9252 57.5385 52.2217C57.5385 52.6871 57.4587 53.0999 57.299 53.4603C57.1439 53.8207 56.9227 54.1264 56.6353 54.3773C56.3524 54.6282 56.0194 54.8175 55.6362 54.9453C55.253 55.073 54.8356 55.1369 54.3839 55.1369C53.9505 55.1369 53.5422 55.0753 53.159 54.9521C52.7804 54.8289 52.4451 54.651 52.1531 54.4183C51.8611 54.1811 51.633 53.8914 51.4688 53.5493C51.3046 53.2026 51.2225 52.808 51.2225 52.3655H52.4884C52.4884 52.7122 52.5637 53.0155 52.7142 53.2756C52.8693 53.5356 53.0883 53.7386 53.3712 53.8846C53.6586 54.026 53.9961 54.0967 54.3839 54.0967C54.7717 54.0967 55.1047 54.0306 55.383 53.8983C55.6658 53.7614 55.8825 53.5561 56.0331 53.2824C56.1882 53.0087 56.2657 52.6643 56.2657 52.2491C56.2657 51.834 56.1791 51.4941 56.0057 51.2295C55.8323 50.9604 55.586 50.7619 55.2667 50.6342C54.9519 50.5019 54.5801 50.4357 54.1513 50.4357H53.248Z"/>
</mask>
<path d="M45.2175 45.0366V55H43.8968V45.0366H45.2175ZM49.3917 49.5188V50.6H44.9301V49.5188H49.3917ZM50.0692 45.0366V46.1178H44.9301V45.0366H50.0692ZM53.248 49.3956H54.1513C54.5938 49.3956 54.9587 49.3226 55.2461 49.1766C55.5381 49.0261 55.7548 48.8231 55.8962 48.5676C56.0422 48.3076 56.1152 48.0156 56.1152 47.6917C56.1152 47.3085 56.0513 46.9869 55.9236 46.7268C55.7959 46.4668 55.6042 46.2706 55.3488 46.1383C55.0933 46.006 54.7694 45.9399 54.3771 45.9399C54.0212 45.9399 53.7065 46.0106 53.4327 46.152C53.1636 46.2889 52.9515 46.485 52.7963 46.7405C52.6458 46.996 52.5705 47.2971 52.5705 47.6438H51.3046C51.3046 47.1374 51.4323 46.6766 51.6878 46.2615C51.9433 45.8464 52.3014 45.5156 52.7621 45.2693C53.2275 45.0229 53.7658 44.8998 54.3771 44.8998C54.9793 44.8998 55.5062 45.007 55.9578 45.2214C56.4094 45.4312 56.7607 45.746 57.0116 46.1657C57.2625 46.5808 57.388 47.0986 57.388 47.7191C57.388 47.97 57.3287 48.2391 57.2101 48.5265C57.096 48.8094 56.9158 49.074 56.6695 49.3203C56.4277 49.5667 56.1129 49.7697 55.7251 49.9293C55.3374 50.0845 54.872 50.162 54.3292 50.162H53.248V49.3956ZM53.248 50.4357V49.6762H54.3292C54.9633 49.6762 55.4879 49.7514 55.9031 49.902C56.3182 50.0525 56.6444 50.2532 56.8816 50.5042C57.1234 50.7551 57.2922 51.0311 57.388 51.3322C57.4883 51.6287 57.5385 51.9252 57.5385 52.2217C57.5385 52.6871 57.4587 53.0999 57.299 53.4603C57.1439 53.8207 56.9227 54.1264 56.6353 54.3773C56.3524 54.6282 56.0194 54.8175 55.6362 54.9453C55.253 55.073 54.8356 55.1369 54.3839 55.1369C53.9505 55.1369 53.5422 55.0753 53.159 54.9521C52.7804 54.8289 52.4451 54.651 52.1531 54.4183C51.8611 54.1811 51.633 53.8914 51.4688 53.5493C51.3046 53.2026 51.2225 52.808 51.2225 52.3655H52.4884C52.4884 52.7122 52.5637 53.0155 52.7142 53.2756C52.8693 53.5356 53.0883 53.7386 53.3712 53.8846C53.6586 54.026 53.9961 54.0967 54.3839 54.0967C54.7717 54.0967 55.1047 54.0306 55.383 53.8983C55.6658 53.7614 55.8825 53.5561 56.0331 53.2824C56.1882 53.0087 56.2657 52.6643 56.2657 52.2491C56.2657 51.834 56.1791 51.4941 56.0057 51.2295C55.8323 50.9604 55.586 50.7619 55.2667 50.6342C54.9519 50.5019 54.5801 50.4357 54.1513 50.4357H53.248Z" fill="white"/>
<path d="M45.2175 45.0366H45.4511V44.803H45.2175V45.0366ZM45.2175 55V55.2336H45.4511V55H45.2175ZM43.8968 55H43.6632V55.2336H43.8968V55ZM43.8968 45.0366V44.803H43.6632V45.0366H43.8968ZM49.3917 49.5188H49.6253V49.2852H49.3917V49.5188ZM49.3917 50.6V50.8335H49.6253V50.6H49.3917ZM44.9301 50.6H44.6965V50.8335H44.9301V50.6ZM44.9301 49.5188V49.2852H44.6965V49.5188H44.9301ZM50.0692 45.0366H50.3027V44.803H50.0692V45.0366ZM50.0692 46.1178V46.3514H50.3027V46.1178H50.0692ZM44.9301 46.1178H44.6965V46.3514H44.9301V46.1178ZM44.9301 45.0366V44.803H44.6965V45.0366H44.9301ZM44.9839 45.0366V55H45.4511V45.0366H44.9839ZM45.2175 54.7664H43.8968V55.2336H45.2175V54.7664ZM44.1304 55V45.0366H43.6632V55H44.1304ZM43.8968 45.2702H45.2175V44.803H43.8968V45.2702ZM49.1581 49.5188V50.6H49.6253V49.5188H49.1581ZM49.3917 50.3664H44.9301V50.8335H49.3917V50.3664ZM45.1637 50.6V49.5188H44.6965V50.6H45.1637ZM44.9301 49.7523H49.3917V49.2852H44.9301V49.7523ZM49.8356 45.0366V46.1178H50.3027V45.0366H49.8356ZM50.0692 45.8842H44.9301V46.3514H50.0692V45.8842ZM45.1637 46.1178V45.0366H44.6965V46.1178H45.1637ZM44.9301 45.2702H50.0692V44.803H44.9301V45.2702ZM53.248 49.3956V49.162H53.0144V49.3956H53.248ZM55.2461 49.1766L55.3519 49.3849L55.3532 49.3842L55.2461 49.1766ZM55.8962 48.5676L55.6925 48.4532L55.6919 48.4545L55.8962 48.5676ZM53.4327 46.152L53.5386 46.3602L53.54 46.3595L53.4327 46.152ZM52.7963 46.7405L52.5967 46.6193L52.5951 46.6219L52.7963 46.7405ZM52.5705 47.6438V47.8774H52.8041V47.6438H52.5705ZM51.3046 47.6438H51.071V47.8774H51.3046V47.6438ZM51.6878 46.2615L51.4889 46.1391L51.6878 46.2615ZM52.7621 45.2693L52.6528 45.0628L52.652 45.0633L52.7621 45.2693ZM55.9578 45.2214L55.8576 45.4324L55.8594 45.4332L55.9578 45.2214ZM57.0116 46.1657L56.8111 46.2856L56.8117 46.2865L57.0116 46.1657ZM57.2101 48.5265L56.9942 48.4374L56.9934 48.4392L57.2101 48.5265ZM56.6695 49.3203L56.5043 49.1552L56.5028 49.1567L56.6695 49.3203ZM55.7251 49.9293L55.8119 50.1462L55.8141 50.1453L55.7251 49.9293ZM53.248 50.162H53.0144V50.3956H53.248V50.162ZM53.248 50.4357H53.0144V50.6693H53.248V50.4357ZM53.248 49.6762V49.4426H53.0144V49.6762H53.248ZM56.8816 50.5042L56.7119 50.6646L56.7134 50.6662L56.8816 50.5042ZM57.388 51.3322L57.1654 51.403L57.1667 51.407L57.388 51.3322ZM57.299 53.4603L57.0855 53.3657L57.0845 53.368L57.299 53.4603ZM56.6353 54.3773L56.4816 54.2013L56.4803 54.2026L56.6353 54.3773ZM53.159 54.9521L53.0868 55.1742L53.0875 55.1745L53.159 54.9521ZM52.1531 54.4183L52.0058 54.5996L52.0075 54.601L52.1531 54.4183ZM51.4688 53.5493L51.2577 53.6493L51.2582 53.6504L51.4688 53.5493ZM51.2225 52.3655V52.1319H50.9889V52.3655H51.2225ZM52.4884 52.3655H52.722V52.1319H52.4884V52.3655ZM52.7142 53.2756L52.5121 53.3926L52.5136 53.3952L52.7142 53.2756ZM53.3712 53.8846L53.264 54.0922L53.268 54.0942L53.3712 53.8846ZM55.383 53.8983L55.4833 54.1092L55.4847 54.1085L55.383 53.8983ZM56.0331 53.2824L55.8298 53.1672L55.8284 53.1698L56.0331 53.2824ZM56.0057 51.2295L55.8093 51.356L55.8103 51.3575L56.0057 51.2295ZM55.2667 50.6342L55.1761 50.8495L55.1799 50.851L55.2667 50.6342ZM53.248 49.6292H54.1513V49.162H53.248V49.6292ZM54.1513 49.6292C54.6175 49.6292 55.0218 49.5525 55.3519 49.3849L55.1404 48.9684C54.8956 49.0927 54.57 49.162 54.1513 49.162V49.6292ZM55.3532 49.3842C55.6809 49.2152 55.934 48.9815 56.1006 48.6807L55.6919 48.4545C55.5755 48.6646 55.3953 48.8369 55.1391 48.969L55.3532 49.3842ZM56.0999 48.6819C56.2671 48.384 56.3488 48.0521 56.3488 47.6917H55.8816C55.8816 47.9791 55.8173 48.2311 55.6925 48.4533L56.0999 48.6819ZM56.3488 47.6917C56.3488 47.2838 56.2809 46.9245 56.1332 46.6238L55.7139 46.8298C55.8217 47.0492 55.8816 47.3332 55.8816 47.6917H56.3488ZM56.1332 46.6238C55.9836 46.3193 55.7564 46.0864 55.4562 45.9309L55.2414 46.3457C55.4521 46.4549 55.6081 46.6143 55.7139 46.8298L56.1332 46.6238ZM55.4562 45.9309C55.1577 45.7763 54.7939 45.7063 54.3771 45.7063V46.1735C54.745 46.1735 55.0289 46.2357 55.2414 46.3457L55.4562 45.9309ZM54.3771 45.7063C53.9897 45.7063 53.6372 45.7835 53.3255 45.9445L53.54 46.3595C53.7757 46.2377 54.0527 46.1735 54.3771 46.1735V45.7063ZM53.3269 45.9438C53.0194 46.1002 52.7746 46.3263 52.5967 46.6193L52.996 46.8617C53.1283 46.6438 53.3078 46.4776 53.5386 46.3602L53.3269 45.9438ZM52.5951 46.6219C52.42 46.919 52.337 47.2625 52.337 47.6438H52.8041C52.8041 47.3317 52.8716 47.073 52.9976 46.8591L52.5951 46.6219ZM52.5705 47.4102H51.3046V47.8774H52.5705V47.4102ZM51.5381 47.6438C51.5381 47.1789 51.6548 46.7608 51.8867 46.3839L51.4889 46.1391C51.2098 46.5925 51.071 47.0959 51.071 47.6438H51.5381ZM51.8867 46.3839C52.1189 46.0065 52.4453 45.7036 52.8723 45.4753L52.652 45.0633C52.1575 45.3277 51.7676 45.6862 51.4889 46.1391L51.8867 46.3839ZM52.8714 45.4757C53.298 45.2499 53.7977 45.1333 54.3771 45.1333V44.6662C53.7338 44.6662 53.1569 44.796 52.6528 45.0628L52.8714 45.4757ZM54.3771 45.1333C54.9516 45.1333 55.443 45.2356 55.8576 45.4324L56.058 45.0104C55.5693 44.7784 55.0069 44.6662 54.3771 44.6662V45.1333ZM55.8594 45.4332C56.2694 45.6237 56.5847 45.9068 56.8111 46.2856L57.2121 46.0459C56.9367 45.5852 56.5495 45.2387 56.0562 45.0096L55.8594 45.4332ZM56.8117 46.2865C57.0352 46.6564 57.1544 47.1295 57.1544 47.7191H57.6216C57.6216 47.0677 57.4898 46.5053 57.2115 46.0449L56.8117 46.2865ZM57.1544 47.7191C57.1544 47.933 57.1038 48.1717 56.9942 48.4374L57.426 48.6156C57.5536 48.3065 57.6216 48.0069 57.6216 47.7191H57.1544ZM56.9934 48.4392C56.8927 48.689 56.7316 48.9279 56.5043 49.1552L56.8346 49.4855C57.1 49.2201 57.2993 48.9297 57.4267 48.6139L56.9934 48.4392ZM56.5028 49.1567C56.2873 49.3762 56.0009 49.5632 55.6362 49.7134L55.8141 50.1453C56.2249 49.9762 56.5681 49.7571 56.8362 49.4839L56.5028 49.1567ZM55.6384 49.7125C55.2851 49.8538 54.8508 49.9284 54.3292 49.9284V50.3956C54.8933 50.3956 55.3896 50.3151 55.8119 50.1462L55.6384 49.7125ZM54.3292 49.9284H53.248V50.3956H54.3292V49.9284ZM53.4816 50.162V49.3956H53.0144V50.162H53.4816ZM53.4816 50.4357V49.6762H53.0144V50.4357H53.4816ZM53.248 49.9097H54.3292V49.4426H53.248V49.9097ZM54.3292 49.9097C54.947 49.9097 55.4423 49.9834 55.8234 50.1216L55.9827 49.6824C55.5335 49.5195 54.9796 49.4426 54.3292 49.4426V49.9097ZM55.8234 50.1216C56.2136 50.263 56.5057 50.4465 56.7119 50.6646L57.0513 50.3437C56.7831 50.06 56.4228 49.842 55.9827 49.6824L55.8234 50.1216ZM56.7134 50.6662C56.9329 50.894 57.0816 51.1395 57.1654 51.403L57.6106 51.2613C57.5028 50.9227 57.3139 50.6161 57.0498 50.3421L56.7134 50.6662ZM57.1667 51.407C57.2594 51.6808 57.305 51.9521 57.305 52.2217H57.7721C57.7721 51.8984 57.7173 51.5766 57.6092 51.2573L57.1667 51.407ZM57.305 52.2217C57.305 52.6603 57.2298 53.04 57.0855 53.3657L57.5126 53.5549C57.6876 53.1599 57.7721 52.7139 57.7721 52.2217H57.305ZM57.0845 53.368C56.9428 53.6973 56.742 53.9741 56.4816 54.2013L56.7889 54.5532C57.1033 54.2787 57.3451 53.9442 57.5136 53.5527L57.0845 53.368ZM56.4803 54.2026C56.2226 54.4311 55.9177 54.6052 55.5623 54.7237L55.71 55.1668C56.1211 55.0298 56.4822 54.8253 56.7903 54.552L56.4803 54.2026ZM55.5623 54.7237C55.2056 54.8426 54.8134 54.9033 54.3839 54.9033V55.3704C54.8577 55.3704 55.3004 55.3034 55.71 55.1668L55.5623 54.7237ZM54.3839 54.9033C53.9729 54.9033 53.5889 54.8449 53.2305 54.7297L53.0875 55.1745C53.4956 55.3056 53.9281 55.3704 54.3839 55.3704V54.9033ZM53.2313 54.73C52.8774 54.6149 52.5673 54.4498 52.2987 54.2357L52.0075 54.601C52.3228 54.8522 52.6833 55.043 53.0868 55.1742L53.2313 54.73ZM52.3004 54.2371C52.0354 54.0218 51.8288 53.7596 51.6794 53.4482L51.2582 53.6504C51.4372 54.0233 51.6868 54.3405 52.0058 54.5996L52.3004 54.2371ZM51.6799 53.4493C51.5326 53.1383 51.456 52.7787 51.456 52.3655H50.9889C50.9889 52.8373 51.0766 53.2669 51.2577 53.6493L51.6799 53.4493ZM51.2225 52.599H52.4884V52.1319H51.2225V52.599ZM52.2548 52.3655C52.2548 52.7468 52.338 53.0918 52.5121 53.3926L52.9164 53.1585C52.7894 52.9392 52.722 52.6775 52.722 52.3655H52.2548ZM52.5136 53.3952C52.6922 53.6947 52.9445 53.9272 53.264 54.0922L53.4783 53.677C53.2321 53.55 53.0464 53.3765 52.9148 53.1559L52.5136 53.3952ZM53.268 54.0942C53.5936 54.2544 53.9678 54.3303 54.3839 54.3303V53.8632C54.0245 53.8632 53.7235 53.7977 53.4743 53.675L53.268 54.0942ZM54.3839 54.3303C54.7977 54.3303 55.1666 54.2598 55.4833 54.1092L55.2827 53.6873C55.0428 53.8014 54.7457 53.8632 54.3839 53.8632V54.3303ZM55.4847 54.1085C55.8109 53.9507 56.0637 53.7114 56.2377 53.395L55.8284 53.1698C55.7014 53.4009 55.5208 53.5721 55.2813 53.688L55.4847 54.1085ZM56.2363 53.3976C56.4167 53.0793 56.4993 52.6921 56.4993 52.2491H56.0322C56.0322 52.6364 55.9597 52.9381 55.8299 53.1673L56.2363 53.3976ZM56.4993 52.2491C56.4993 51.8025 56.406 51.4144 56.2011 51.1015L55.8103 51.3575C55.9521 51.5739 56.0322 51.8655 56.0322 52.2491H56.4993ZM56.2021 51.103C56.0005 50.79 55.7143 50.5616 55.3534 50.4173L55.1799 50.851C55.4577 50.9622 55.6642 51.1307 55.8093 51.356L56.2021 51.103ZM55.3572 50.4188C55.0074 50.2719 54.6035 50.2022 54.1513 50.2022V50.6693C54.5567 50.6693 54.8964 50.7319 55.1762 50.8495L55.3572 50.4188ZM54.1513 50.2022H53.248V50.6693H54.1513V50.2022Z" fill="white" mask="url(#path-2-outside-1_73_350)"/>
</svg>
