<?xml version="1.0" encoding="UTF-8" standalone="no"?>
<!-- Created with Inkscape (http://www.inkscape.org/) -->

<svg
   width="377.95276"
   height="377.95276"
   viewBox="0 0 100 100"
   version="1.1"
   id="svg3331"
   inkscape:version="1.2.2 (732a01da63, 2022-12-09)"
   sodipodi:docname="git.svg"
   xmlns:inkscape="http://www.inkscape.org/namespaces/inkscape"
   xmlns:sodipodi="http://sodipodi.sourceforge.net/DTD/sodipodi-0.dtd"
   xmlns="http://www.w3.org/2000/svg"
   xmlns:svg="http://www.w3.org/2000/svg">
  <sodipodi:namedview
     id="namedview3333"
     pagecolor="#9f9f9f"
     bordercolor="#000000"
     borderopacity="0.25"
     inkscape:showpageshadow="2"
     inkscape:pageopacity="0"
     inkscape:pagecheckerboard="0"
     inkscape:deskcolor="#d1d1d1"
     inkscape:document-units="mm"
     showgrid="false"
     inkscape:zoom="2.3786088"
     inkscape:cx="162.70015"
     inkscape:cy="168.58594"
     inkscape:window-width="3840"
     inkscape:window-height="2054"
     inkscape:window-x="2549"
     inkscape:window-y="-11"
     inkscape:window-maximized="1"
     inkscape:current-layer="layer1" />
  <defs
     id="defs3328" />
  <g
     inkscape:label="Layer 1"
     inkscape:groupmode="layer"
     id="layer1">
    <circle
       cx="50.778542"
       cy="49.777435"
       r="31.346127"
       stroke="#ffffff"
       stroke-width="1.45625"
       id="circle23594"
       style="fill:none" />
    <path
       d="m 43.57083,74.451828 c 0.720787,-0.170042 0,5.405988 0,5.405988 0,0 4.685026,1.080939 7.928476,1.080939 3.243477,0 8.649099,-1.080939 8.649099,-1.080939 0,0 0.360517,-4.605503 0.360517,-7.928684 0,-3.603849 -3.24345,-7.156159 -2.883069,-7.207696 4.782659,-0.683289 9.755766,-1.761128 12.506087,-5.733146 0.97043,-1.401465 1.82541,-2.913782 2.269696,-4.35763 1.441521,-4.685 0.360379,-10.090773 -3.243615,-15.136163 0,0 0.830109,-2.547631 0.720925,-4.3244 -0.104333,-1.697487 -0.720925,-3.60385 -0.720925,-3.60385 0,0 -3.319644,0.267324 -5.045377,0.891088 -1.800268,0.65064 -3.603858,2.712762 -3.603858,2.712762 0,0 -2.52269,-1.631609 -7.568068,-1.801926 -5.045406,-0.170315 -8.649237,1.44154 -8.649237,1.44154 l -3.603857,-2.162524 c 0,0 -4.508499,-1.796881 -5.045378,-1.080795 -1.081169,1.441971 -1.201169,6.486568 -0.720789,7.928105 0.480408,1.44154 -3.964073,3.243463 -3.603694,13.33424 0.720761,9.370005 14.054723,11.732472 14.41524,11.892699 0.360543,0.160236 -0.72076,1.27122 -1.081141,2.16231 -0.360245,0.890727 -0.360245,1.537042 -0.360245,2.521395 v 0.0013 c 0,0.266751 -1.521829,0.444212 -3.091305,0.556218 -2.101342,0.150075 -4.081158,-0.932025 -5.197687,-2.718524 0,0 -2.883096,-4.134553 -5.766166,-4.324618 -2.883069,-0.190066 -2.882933,0.720769 -2.882933,0.720769 l 0.468148,0.312091 c 1.848321,1.232229 3.842114,2.440384 4.93761,4.372909 2.153456,3.798819 5.470595,6.960331 9.786904,6.298881 0.520616,-0.07979 0.892983,-0.141276 1.024642,-0.172331 z"
       stroke="#ffffff"
       stroke-width="1.44154"
       stroke-linecap="round"
       id="path23596"
       style="fill:none" />
  </g>
</svg>
