<?xml version="1.0" encoding="UTF-8" standalone="no"?>
<!-- Created with Inkscape (http://www.inkscape.org/) -->

<svg
   width="377.95276"
   height="377.95276"
   viewBox="0 0 100 100"
   version="1.1"
   id="svg3331"
   inkscape:version="1.2.2 (732a01da63, 2022-12-09)"
   sodipodi:docname="wasd.svg"
   xmlns:inkscape="http://www.inkscape.org/namespaces/inkscape"
   xmlns:sodipodi="http://sodipodi.sourceforge.net/DTD/sodipodi-0.dtd"
   xmlns="http://www.w3.org/2000/svg"
   xmlns:svg="http://www.w3.org/2000/svg">
  <sodipodi:namedview
     id="namedview3333"
     pagecolor="#9f9f9f"
     bordercolor="#000000"
     borderopacity="0.25"
     inkscape:showpageshadow="2"
     inkscape:pageopacity="0"
     inkscape:pagecheckerboard="0"
     inkscape:deskcolor="#d1d1d1"
     inkscape:document-units="mm"
     showgrid="false"
     inkscape:zoom="1.6819304"
     inkscape:cx="137.63946"
     inkscape:cy="178.66375"
     inkscape:window-width="1649"
     inkscape:window-height="1147"
     inkscape:window-x="4311"
     inkscape:window-y="464"
     inkscape:window-maximized="0"
     inkscape:current-layer="layer1" />
  <defs
     id="defs3328" />
  <g
     inkscape:label="Layer 1"
     inkscape:groupmode="layer"
     id="layer1">
    <rect
       x="35.283989"
       y="16.861923"
       width="29.667759"
       height="29.667759"
       rx="2.9432275"
       stroke="#ffffff"
       stroke-width="1.17729"
       id="rect2"
       style="fill:none" />
    <rect
       x="35.283989"
       y="49.590706"
       width="29.667759"
       height="29.667759"
       rx="2.9432275"
       stroke="#ffffff"
       stroke-width="1.17729"
       id="rect13"
       style="fill:none" />
    <rect
       x="2.3189702"
       y="49.590706"
       width="29.667759"
       height="29.667759"
       rx="2.9432275"
       stroke="#ffffff"
       stroke-width="1.17729"
       id="rect24"
       style="fill:none" />
    <rect
       x="68.248024"
       y="49.590706"
       width="29.667759"
       height="29.667759"
       rx="2.9432275"
       stroke="#ffffff"
       stroke-width="1.17729"
       id="rect35"
       style="fill:none" />
    <path
       style="fill:#ffffff;fill-opacity:1;stroke-width:0.0133484"
       d="m 46.707124,36.425103 c 0,-0.0038 -2.397546,-9.895735 -2.422928,-9.995138 l -0.0095,-0.03811 h 0.654619 c 0.611909,0 0.655068,0.0014 0.661538,0.02286 0.0038,0.01145 0.361113,1.558604 0.79405,3.435002 l 0.787132,3.41161 0.09449,0.632921 c 0.05198,0.348235 0.09825,0.647971 0.102825,0.666334 l 0.0083,0.03429 0.01145,-0.03429 c 0.0065,-0.01905 0.07152,-0.291466 0.144818,-0.607355 0.119026,-0.512715 0.239231,-0.946486 1.126369,-4.064571 l 0.993136,-3.49059 0.547891,-0.0036 0.54789,-0.0036 0.01372,0.04343 c 0.0077,0.02286 0.448636,1.617281 0.979982,3.540808 0.818846,2.964236 0.986256,3.585231 1.098434,4.074476 0.07277,0.317375 0.135332,0.57722 0.139029,0.577256 0.0037,3.9e-5 0.05399,-0.304801 0.111821,-0.677307 l 0.105155,-0.677383 0.777058,-3.437212 0.777062,-3.437214 0.656192,-0.0034 c 0.360924,-0.0019 0.656296,0.0011 0.656414,0.0077 1.19e-4,0.0038 -0.54462,2.264184 -1.210531,5.019097 l -1.210746,5.008999 h -0.597275 c -0.557303,0 -0.597735,-0.0016 -0.60417,-0.02286 -0.0038,-0.01145 -0.469475,-1.660219 -1.034848,-3.660823 -0.900716,-3.187199 -1.037172,-3.682006 -1.102498,-3.997818 -0.07871,-0.380622 -0.08611,-0.412207 -0.0943,-0.404015 -0.0028,0.0028 -0.03852,0.169926 -0.07929,0.371476 -0.07075,0.349379 -0.12356,0.534889 -1.150619,4.040415 l -1.076457,3.674157 H 47.305 c -0.329072,0 -0.598334,-0.0027 -0.598334,-0.0077 z"
       id="path542" />
    <path
       style="fill:#ffffff;fill-opacity:1;stroke-width:0.0377549"
       d="m 49.758292,69.257288 c -0.03124,-0.0077 -0.184062,-0.03047 -0.339778,-0.05676 -0.574376,-0.09221 -1.206488,-0.344046 -1.692462,-0.674183 -0.351587,-0.23889 -0.774432,-0.716362 -0.950475,-1.073514 -0.160782,-0.326138 -0.262434,-0.718494 -0.263538,-1.016894 l -6.55e-4,-0.179453 h 0.641835 0.641834 v 0.130303 c 0,0.789438 0.610305,1.483205 1.529068,1.738208 0.348884,0.09678 1.31613,0.120778 1.699004,0.04229 1.01224,-0.208027 1.5305,-0.863731 1.414292,-1.789223 -0.05514,-0.438955 -0.217515,-0.710952 -0.578152,-0.968281 -0.338521,-0.241555 -0.628666,-0.363095 -1.762952,-0.738878 -1.326875,-0.439485 -1.909442,-0.717998 -2.456412,-1.174286 -0.557155,-0.464823 -0.859771,-1.186099 -0.810979,-1.932939 0.09922,-1.518332 1.471252,-2.556449 3.377947,-2.555764 1.550931,5.33e-4 2.722985,0.668545 3.270719,1.864093 0.135407,0.295657 0.244983,0.727371 0.244983,0.965383 v 0.153163 H 53.08074 52.438906 v -0.130306 c 0,-0.408585 -0.216408,-0.921644 -0.514486,-1.21974 -0.383148,-0.383135 -0.948308,-0.573636 -1.705207,-0.574817 -1.212443,-0.0019 -1.94462,0.476023 -2.082379,1.35915 -0.07259,0.465393 0.04815,0.880114 0.341721,1.173677 0.34816,0.348236 0.860962,0.596269 1.864819,0.902212 1.441938,0.439449 2.125799,0.770921 2.670705,1.294494 0.750475,0.721085 0.962186,1.922423 0.506869,2.876111 -0.488006,1.022152 -1.697551,1.616745 -3.257774,1.601503 -0.246509,-0.0023 -0.473701,-0.0077 -0.504847,-0.01524 z"
       id="path544" />
    <path
       style="fill:#ffffff;fill-opacity:1;stroke-width:0.0377549"
       d="M 12.986309,68.588974 C 13.107507,68.271978 13.968046,66.01214 14.89864,63.5674 l 1.691993,-4.444963 0.566322,1.15e-4 0.566323,1.15e-4 1.906622,4.987738 c 1.048641,2.743254 1.912285,5.002522 1.919208,5.02062 0.0069,0.01905 -0.284304,0.03429 -0.647174,0.03429 h -0.659756 l -0.05532,-0.141732 c -0.03047,-0.07772 -0.247497,-0.672508 -0.482386,-1.321431 L 19.27739,66.522301 h -2.118607 -2.118605 l -0.476276,1.311981 -0.476272,1.311982 -0.660837,0.01145 -0.660832,0.01145 z m 5.887701,-3.153367 c -0.0018,-0.06592 -1.682037,-4.641141 -1.7098,-4.655924 -0.02286,-0.01145 -1.544591,4.09688 -1.703348,4.599268 l -0.02668,0.08497 h 1.720392 c 0.946216,0 1.720031,-0.01145 1.719597,-0.02668 z"
       id="path546" />
    <path
       style="fill:#ffffff;fill-opacity:1;stroke-width:0.0377549"
       d="m 79.622406,64.147439 v -5.026336 l 1.387485,5.73e-4 c 1.99489,8.76e-4 2.44194,0.04876 3.199734,0.34252 1.359953,0.527041 2.294303,1.739048 2.573436,3.338229 0.08364,0.479452 0.09589,2.145232 0.01902,2.586128 -0.360239,2.063775 -1.572495,3.326607 -3.536222,3.683797 -0.267046,0.04878 -0.693428,0.06592 -1.991569,0.08192 l -1.651784,0.01905 z m 3.586715,3.865382 c 1.195495,-0.267845 1.980684,-1.120985 2.26621,-2.46196 0.05775,-0.271655 0.08467,-0.571961 0.100824,-1.12792 0.03587,-1.238486 -0.08559,-1.999461 -0.430608,-2.696773 -0.148406,-0.299848 -0.233442,-0.41472 -0.518945,-0.700777 -0.68244,-0.683784 -1.235001,-0.846206 -2.880468,-0.846853 l -0.802293,-3.05e-4 v 3.968672 3.968711 l 0.991063,-0.01905 c 0.730812,-0.01525 1.065433,-0.0381 1.27423,-0.08306 z"
       id="path548" />
  </g>
</svg>
