<svg width="20" height="20" viewBox="0 0 20 20" fill="none" xmlns="http://www.w3.org/2000/svg">
<g clip-path="url(#clip0)">
<path opacity="0.5" d="M2.91992 6.49008L5.91992 1.9801L7.42993 3.9801L8.42993 3.40009C8.53463 3.32208 8.64501 3.2519 8.76001 3.19009L6.36011 0.0900879L-0.0600586 3.40009L1.93994 7.0101L2.91992 6.49008Z" fill="white"/>
<path d="M11.0701 2.53C12.0281 2.56204 12.9427 2.93707 13.6475 3.58679C14.3522 4.23651 14.8002 5.11773 14.9099 6.07001C14.9099 6.12001 14.9099 6.24001 14.9099 6.38L15.99 7L18.8999 3.29999L12.4099 0L9.82007 2.73001C10.2257 2.6068 10.6462 2.5395 11.0701 2.53Z" fill="white"/>
<path opacity="0.5" d="M4.20999 6.91989L9.01999 9.76989L9.66999 9.39989L5.99999 4.13989L4.20999 6.91989Z" fill="white"/>
<path opacity="0.5" d="M10.77 3.74991C10.233 3.74925 9.70578 3.89274 9.24316 4.16538C8.78055 4.43802 8.39943 4.82981 8.13989 5.2999L10.7 8.64991L13.8 6.80991C13.8081 6.40839 13.7355 6.00934 13.5864 5.63642C13.4374 5.26349 13.2149 4.92429 12.9324 4.63892C12.6498 4.35355 12.3128 4.12781 11.9414 3.9751C11.57 3.82239 11.1716 3.74582 10.77 3.74991Z" fill="white"/>
<path d="M9 11.64L2 7V13L9 17.78V11.64Z" fill="white"/>
<path opacity="0.5" d="M16 7L9 11.64V17.78L16 12.98V7Z" fill="white"/>
<path d="M20 16H18V14H16V16H14V18H16V20H18V18H20V16Z" fill="white"/>
</g>
<defs>
<clipPath id="clip0">
<rect width="20" height="20" fill="white"/>
</clipPath>
</defs>
</svg>
