<svg width="16" height="16" viewBox="0 0 16 16" fill="none" xmlns="http://www.w3.org/2000/svg">
<path opacity="0.5" d="M13 5H2V14H13V5Z" fill="white"/>
<path d="M8 4L6.33008 2.32996C6.12022 2.12059 5.83646 2.00212 5.54004 2H1.12012C0.823075 2 0.538166 2.11796 0.328125 2.328C0.118084 2.53804 0 2.82295 0 3.12V4H8Z" fill="white"/>
<path d="M14.8799 5H0V12.88C0 13.177 0.118084 13.462 0.328125 13.672C0.538166 13.882 0.823075 14 1.12012 14H3.6499C3.6499 12.26 5.11 11 7.5 11C9.89 11 11.3401 12.29 11.3401 14H14.8799C15.1769 14 15.4618 13.882 15.6719 13.672C15.8819 13.462 16 13.177 16 12.88V6.12C16 5.82295 15.8819 5.53804 15.6719 5.328C15.4618 5.11796 15.1769 5 14.8799 5ZM7.5 9.92004C7.12069 9.91807 6.75046 9.80372 6.43604 9.59155C6.12161 9.37938 5.87719 9.07891 5.7334 8.72791C5.58961 8.3769 5.55296 7.99117 5.62817 7.61938C5.70338 7.2476 5.8871 6.90643 6.15601 6.63892C6.42492 6.3714 6.76699 6.18949 7.13916 6.11621C7.51133 6.04293 7.89682 6.08156 8.24707 6.22717C8.59732 6.37278 8.89664 6.6188 9.10718 6.93433C9.31771 7.24985 9.42993 7.62069 9.42993 8C9.42729 8.51013 9.22274 8.99849 8.86108 9.35828C8.49942 9.71806 8.01014 9.92005 7.5 9.92004V9.92004Z" fill="white"/>
</svg>
