<svg width="64" height="64" viewBox="0 0 64 64" fill="none" xmlns="http://www.w3.org/2000/svg">
<path d="M1.23074 12.3077C1.23074 9.58874 3.43488 7.38461 6.15379 7.38461H22.7534C24.1748 7.38461 25.5269 7.99895 26.4618 9.06966L28.7567 11.698C29.0022 11.9792 29.1069 12.3565 29.0413 12.7239L27.559 21.0246H1.23071L1.23074 12.3077Z" fill="url(#paint0_linear)"/>
<path d="M1.23074 9.92227C1.23075 8.52074 2.3669 7.38461 3.76841 7.38461H23.8374C24.57 7.38461 25.267 7.70129 25.7489 8.25323L28.9449 11.9135C29.0714 12.0585 29.1254 12.2529 29.0916 12.4423L27.559 21.0246H1.23071L1.23074 9.92227Z" fill="url(#paint1_linear)"/>
<path fill-rule="evenodd" clip-rule="evenodd" d="M23.8374 7.70184H3.76841C2.54209 7.70184 1.54796 8.69594 1.54796 9.92227L1.54793 20.7074H27.2934L28.7793 12.3865C28.7962 12.2919 28.7692 12.1946 28.706 12.1222L25.5099 8.46184C25.0883 7.97889 24.4785 7.70184 23.8374 7.70184ZM27.559 21.0246L29.0916 12.4423C29.1254 12.2529 29.0714 12.0585 28.9449 11.9135L25.7489 8.25323C25.267 7.70129 24.57 7.38461 23.8374 7.38461H3.76841C2.3669 7.38461 1.23075 8.52074 1.23074 9.92227L1.23071 21.0246H27.559Z" fill="url(#paint2_linear)"/>
<path d="M1.23071 18.1697C1.23071 17.4689 1.79879 16.9009 2.49955 16.9009H24.1189C24.8898 16.9009 25.6189 16.5505 26.1005 15.9485L28.9546 12.3809C29.075 12.2304 29.2572 12.1428 29.45 12.1428H60.2315C61.6332 12.1428 62.7692 13.2789 62.7692 14.6805V52.4283C62.7692 52.7786 62.4849 53.0627 62.1347 53.0627H1.86513C1.51475 53.0627 1.23071 52.7786 1.23071 52.4283V18.1697Z" fill="url(#paint3_linear)"/>
<path fill-rule="evenodd" clip-rule="evenodd" d="M62.4522 52.4283V14.6805C62.4522 13.4541 61.4578 12.46 60.2315 12.46H29.45C29.3536 12.46 29.2625 12.5038 29.2023 12.579L26.3482 16.1467C25.8064 16.8239 24.9862 17.2181 24.1189 17.2181H2.49955C1.97398 17.2181 1.54792 17.6441 1.54792 18.1697V52.4283C1.54792 52.6035 1.68994 52.7454 1.86513 52.7454H62.1347C62.3101 52.7454 62.4522 52.6035 62.4522 52.4283ZM2.49955 16.9009C1.79879 16.9009 1.23071 17.4689 1.23071 18.1697V52.4283C1.23071 52.7786 1.51475 53.0627 1.86513 53.0627H62.1347C62.4849 53.0627 62.7692 52.7786 62.7692 52.4283V14.6805C62.7692 13.2789 61.6332 12.1428 60.2315 12.1428H29.45C29.2572 12.1428 29.075 12.2304 28.9546 12.3809L26.1005 15.9485C25.6189 16.5505 24.8898 16.9009 24.1189 16.9009H2.49955Z" fill="url(#paint4_linear)"/>
<path d="M1.23071 52.3077H62.7692C62.7692 52.8332 62.3433 53.2593 61.8178 53.2593H2.18234C1.65677 53.2593 1.23071 52.8332 1.23071 52.3077Z" fill="#878787"/>
<path d="M31.5 21C29.9272 21 28.3896 21.4736 27.0818 22.3608C25.7741 23.248 24.7548 24.509 24.1529 25.9843C23.551 27.4597 23.3935 29.0829 23.7003 30.6491C24.0072 32.2154 24.7646 33.6541 25.8768 34.7832C26.9889 35.9124 28.4059 36.6814 29.9485 36.9929C31.4912 37.3045 33.0902 37.1446 34.5433 36.5335C35.9964 35.9224 37.2384 34.8875 38.1122 33.5598C38.9861 32.232 39.4525 30.6709 39.4525 29.074C39.4525 26.9326 38.6146 24.8791 37.1232 23.3649C35.6319 21.8508 33.6091 21 31.5 21V21ZM17 53H46C45.7544 49.3274 44.0962 45.9002 41.3834 43.4581C38.6706 41.016 35.1207 39.7549 31.5 39.9471C27.8793 39.7549 24.3294 41.016 21.6166 43.4581C18.9038 45.9002 17.2456 49.3274 17 53V53Z" fill="black" fill-opacity="0.4"/>
<defs>
<linearGradient id="paint0_linear" x1="15.1879" y1="7.38461" x2="15.1879" y2="21.0246" gradientUnits="userSpaceOnUse">
<stop offset="0.349258" stop-color="#878787"/>
<stop offset="1" stop-color="#464646"/>
</linearGradient>
<linearGradient id="paint1_linear" x1="15.1879" y1="7.38461" x2="15.1879" y2="21.0246" gradientUnits="userSpaceOnUse">
<stop offset="0.349258" stop-color="#BEBEBE"/>
<stop offset="1" stop-color="#464646"/>
</linearGradient>
<linearGradient id="paint2_linear" x1="15.1661" y1="7.38461" x2="15.1661" y2="17.2181" gradientUnits="userSpaceOnUse">
<stop stop-color="#DAB277" stop-opacity="0.21"/>
<stop offset="1" stop-opacity="0"/>
</linearGradient>
<linearGradient id="paint3_linear" x1="44.371" y1="10.7153" x2="1.23068" y2="53.0627" gradientUnits="userSpaceOnUse">
<stop stop-color="#C5C5C5"/>
<stop offset="1" stop-color="white"/>
</linearGradient>
<linearGradient id="paint4_linear" x1="31.9999" y1="12.1428" x2="31.9999" y2="53.0627" gradientUnits="userSpaceOnUse">
<stop stop-color="white"/>
<stop offset="0.84496" stop-color="white" stop-opacity="0"/>
</linearGradient>
</defs>
</svg>
