<svg width="16" height="16" viewBox="0 0 16 16" fill="none" xmlns="http://www.w3.org/2000/svg">
<path opacity="0.5" d="M6 5V2.62C5.99914 2.19007 5.83051 1.77746 5.53 1.47C5.22988 1.1707 4.82384 1.00182 4.39999 1H1.60001C1.17616 1.00182 0.770117 1.1707 0.470001 1.47C0.169495 1.77746 0.000860635 2.19007 0 2.62V13.38C0.000860635 13.8099 0.169495 14.2225 0.470001 14.53C0.770117 14.8293 1.17616 14.9982 1.60001 15H4.39999C4.82384 14.9982 5.22988 14.8293 5.53 14.53C5.83051 14.2225 5.99914 13.8099 6 13.38V11H2V5H6Z" fill="white"/>
<path opacity="0.5" d="M10 2.62V3L11 3.5L12 3C12 2.45 11.45 2 12 2H14C14.2652 2 14.5196 2.10536 14.7071 2.29289C14.8946 2.48043 15 2.73478 15 3V13C15 13.2652 14.8946 13.5196 14.7071 13.7071C14.5196 13.8946 14.2652 14 14 14H12C11.7348 14 11.4804 13.8946 11.2929 13.7071C11.1054 13.5196 11 13.2652 11 13V12.5L10 13V13.38C10.0009 13.8099 10.1695 14.2225 10.47 14.53C10.7701 14.8293 11.1762 14.9982 11.6 15H14.4C14.8238 14.9982 15.2299 14.8293 15.53 14.53C15.8305 14.2225 15.9991 13.8099 16 13.38V2.62C15.9991 2.19007 15.8305 1.77746 15.53 1.47C15.2299 1.1707 14.8238 1.00182 14.4 1H11.6C11.1762 1.00182 10.7701 1.1707 10.47 1.47C10.1695 1.77746 10.0009 2.19007 10 2.62Z" fill="white"/>
<path d="M3 9V7H9V5L14 8L9 11V9H3Z" fill="white"/>
</svg>
