<svg width="16" height="16" viewBox="0 0 16 16" fill="none" xmlns="http://www.w3.org/2000/svg">
<path fill-rule="evenodd" clip-rule="evenodd" d="M9.59003 13.31L6.90003 16C6.67582 15.9641 6.4728 15.8466 6.33003 15.67C5.99003 15.34 6.00003 15.1 6.00003 15.1L8.69003 12.41L9.59003 13.31Z" fill="white"/>
<path d="M12 7.5C12.663 7.5 13.2989 7.76339 13.7678 8.23223C14.2366 8.70107 14.5 9.33696 14.5 10C14.5 10.663 14.2366 11.2989 13.7678 11.7678C13.2989 12.2366 12.663 12.5 12 12.5C11.337 12.5 10.7011 12.2366 10.2322 11.7678C9.76339 11.2989 9.5 10.663 9.5 10C9.5 9.33696 9.76339 8.70107 10.2322 8.23223C10.7011 7.76339 11.337 7.5 12 7.5ZM12 6.25C11.0054 6.25 10.0516 6.64509 9.34835 7.34835C8.64509 8.05161 8.25 9.00544 8.25 10C8.25 10.9946 8.64509 11.9484 9.34835 12.6516C10.0516 13.3549 11.0054 13.75 12 13.75C12.9946 13.75 13.9484 13.3549 14.6516 12.6516C15.3549 11.9484 15.75 10.9946 15.75 10C15.75 9.00544 15.3549 8.05161 14.6516 7.34835C13.9484 6.64509 12.9946 6.25 12 6.25Z" fill="white"/>
<path opacity="0.5" fill-rule="evenodd" clip-rule="evenodd" d="M13.93 3.00001H0V12.92C0.00260268 13.0645 0.0336407 13.207 0.0913391 13.3395C0.149038 13.4719 0.232267 13.5917 0.336273 13.692C0.44028 13.7923 0.563028 13.8711 0.697502 13.924C0.831976 13.9768 0.975542 14.0027 1.12 14H5.12C5.69 13.47 6.41 12.79 7.06 12.15C6.76444 11.4346 6.62795 10.6634 6.66 9.89001C6.73959 8.48938 7.35526 7.17313 8.3793 6.21426C9.40334 5.25539 10.7572 4.72747 12.16 4.74001C12.7008 4.74677 13.2373 4.83787 13.75 5.01001C14.1828 5.20944 14.6006 5.44004 15 5.70001V4.00001C15.0003 3.86259 14.9723 3.72656 14.9178 3.60044C14.8632 3.47431 14.7832 3.36079 14.6828 3.26696C14.5824 3.17312 14.4637 3.10099 14.3342 3.05506C14.2047 3.00913 14.0671 2.99039 13.93 3.00001Z" fill="white"/>
<path opacity="0.5" fill-rule="evenodd" clip-rule="evenodd" d="M7.38 2L5.93 0.369999C5.83211 0.255808 5.71103 0.163758 5.57483 0.0999641C5.43862 0.0361703 5.29039 0.00209463 5.14 0H1C0.734784 0 0.480429 0.105356 0.292892 0.292892C0.105356 0.480429 0 0.734784 0 1V2H7.38Z" fill="white"/>
</svg>
