<?xml version="1.0" encoding="UTF-8" standalone="no"?>
<svg
   xmlns:dc="http://purl.org/dc/elements/1.1/"
   xmlns:cc="http://creativecommons.org/ns#"
   xmlns:rdf="http://www.w3.org/1999/02/22-rdf-syntax-ns#"
   xmlns:svg="http://www.w3.org/2000/svg"
   xmlns="http://www.w3.org/2000/svg"
   xmlns:sodipodi="http://sodipodi.sourceforge.net/DTD/sodipodi-0.dtd"
   xmlns:inkscape="http://www.inkscape.org/namespaces/inkscape"
   width="700pt"
   height="700pt"
   version="1.1"
   viewBox="0 0 700 700"
   id="svg4"
   sodipodi:docname="Action.svg"
   inkscape:version="1.0.2-2 (e86c870879, 2021-01-15)">
  <metadata
     id="metadata10">
    <rdf:RDF>
      <cc:Work
         rdf:about="">
        <dc:format>image/svg+xml</dc:format>
        <dc:type
           rdf:resource="http://purl.org/dc/dcmitype/StillImage" />
        <dc:title></dc:title>
      </cc:Work>
    </rdf:RDF>
  </metadata>
  <defs
     id="defs8" />
  <sodipodi:namedview
     pagecolor="#3b3f3e"
     bordercolor="#666666"
     borderopacity="1"
     objecttolerance="10"
     gridtolerance="10"
     guidetolerance="10"
     inkscape:pageopacity="0"
     inkscape:pageshadow="2"
     inkscape:window-width="2560"
     inkscape:window-height="1369"
     id="namedview6"
     showgrid="false"
     inkscape:zoom="0.63791133"
     inkscape:cx="361.06353"
     inkscape:cy="508.90792"
     inkscape:window-x="1912"
     inkscape:window-y="-8"
     inkscape:window-maximized="1"
     inkscape:current-layer="svg4" />
  <path
     d="M 125.9475,174.43157 H 48.568294 v -63.83722 c 0,-16.933286 6.831819,-33.167396 18.990314,-45.142043 C 79.72192,53.482767 96.212679,46.75712 113.41327,46.75712 h 142.22665 z m 151.30494,0 L 406.94239,46.75712 H 317.02773 L 187.33778,174.43157 Z m 151.30494,0 L 558.24733,46.75712 H 468.33267 L 338.64272,174.43157 Z M 614.22399,52.082968 489.94396,174.43157 H 653.7856 V 110.59435 C 653.73249,98.098055 649.95468,85.896026 642.92499,75.493598 635.8953,65.091536 625.91708,56.950405 614.23263,52.076889 Z M 48.565823,216.98971 H 653.7856 v 361.74427 c 0,16.93328 -6.83182,33.16739 -18.99032,45.14203 -12.16331,11.96954 -28.65406,18.69519 -45.85466,18.69519 H 113.4108 c -17.200591,0 -33.69098,-6.72565 -45.854662,-18.69519 C 55.397643,611.90173 48.565823,595.66726 48.565823,578.73398 Z M 264.71574,476.59442 c 0,11.28545 4.55459,22.11078 12.66021,30.09469 8.11044,7.97965 19.10642,12.46346 30.56978,12.46346 8.11525,-0.0379 16.05685,-2.3227 22.91312,-6.59749 L 441.3127,444.67605 c 12.71826,-7.76114 20.45643,-21.44566 20.45643,-36.17442 0,-14.72877 -7.73891,-28.41304 -20.45643,-36.17443 L 330.85885,304.44817 c -8.75209,-5.38628 -19.17311,-7.50945 -29.3828,-5.98951 -10.20438,1.51993 -19.52143,6.58326 -26.2616,14.27765 -6.74499,7.69463 -10.46981,17.51207 -10.49871,27.67252 z"
     id="path2"
     style="fill:#ffffff;stroke-width:1.22551" />
  <path
     style="fill:#ffffff;fill-opacity:0.5;stroke-width:2.88168;stroke-dasharray:2.88168, 8.64507"
     d="m 300.3182,517.54277 c -13.81467,-2.63992 -26.7308,-13.36365 -31.85768,-26.45014 -2.59802,-6.63151 -2.76753,-11.74875 -2.76753,-83.54797 v -76.48379 l 4.05168,-8.12244 c 4.40054,-8.8218 10.72596,-15.07437 20.31258,-20.07871 4.85735,-2.53559 8.54525,-3.20577 17.74872,-3.22539 10.2321,-0.0218 12.56975,0.49149 19.60432,4.30453 20.92058,11.33985 115.918,70.65597 120.94109,75.51529 8.48281,8.20622 11.87385,16.64246 11.866,29.52012 -0.006,8.82508 -0.6901,12.00942 -3.87017,17.99874 -2.12499,4.00218 -6.09624,9.2065 -8.82499,11.56515 -6.19678,5.35629 -115.82603,72.94463 -123.74236,76.28933 -7.53818,3.18491 -15.92482,4.15553 -23.46166,2.71528 z"
     id="path835" />
</svg>
