<?xml version="1.0" encoding="UTF-8" standalone="no"?>
<svg
   viewBox="0 0 85 85"
   x="0px"
   y="0px"
   version="1.1"
   id="svg8"
   sodipodi:docname="chassis.svg"
   width="85"
   height="85"
   inkscape:version="1.2.2 (732a01da63, 2022-12-09)"
   xmlns:inkscape="http://www.inkscape.org/namespaces/inkscape"
   xmlns:sodipodi="http://sodipodi.sourceforge.net/DTD/sodipodi-0.dtd"
   xmlns="http://www.w3.org/2000/svg"
   xmlns:svg="http://www.w3.org/2000/svg">
  <defs
     id="defs12" />
  <sodipodi:namedview
     id="namedview10"
     pagecolor="#bf0707"
     bordercolor="#3e9159"
     borderopacity="0.24705882"
     inkscape:showpageshadow="2"
     inkscape:pageopacity="0"
     inkscape:pagecheckerboard="0"
     inkscape:deskcolor="#d1d1d1"
     showgrid="false"
     inkscape:zoom="7.8530447"
     inkscape:cx="62.268842"
     inkscape:cy="55.519867"
     inkscape:window-width="2560"
     inkscape:window-height="1334"
     inkscape:window-x="2549"
     inkscape:window-y="-11"
     inkscape:window-maximized="1"
     inkscape:current-layer="svg8" />
  <path
     fill="#000000"
     fill-rule="evenodd"
     d="m 14.260769,62.309322 h 11.498676 c 1.411233,0 2.555262,1.080398 2.555262,2.413136 v 16.89195 c 0,1.332738 -1.144029,2.413136 -2.555262,2.413136 H 14.260769 c -1.411232,0 -2.555261,-1.080398 -2.555261,-2.413136 v -16.89195 c 0,-1.332738 1.144029,-2.413136 2.555261,-2.413136 z m 44.717074,0 h 11.498676 c 1.411232,0 2.555261,1.080398 2.555261,2.413136 v 16.89195 c 0,1.332738 -1.144029,2.413136 -2.555261,2.413136 H 58.977843 c -1.411233,0 -2.555262,-1.080398 -2.555262,-2.413136 v -16.89195 c 0,-1.332738 1.144029,-2.413136 2.555262,-2.413136 z M 14.260769,1.9809322 h 11.498676 c 1.411233,0 2.555262,1.080397 2.555262,2.4131356 V 21.286018 c 0,1.332738 -1.144029,2.413136 -2.555262,2.413136 H 14.260769 c -1.411232,0 -2.555261,-1.080398 -2.555261,-2.413136 V 4.3940678 c 0,-1.3327386 1.144029,-2.4131356 2.555261,-2.4131356 z m 44.717074,0 h 11.498676 c 1.411232,0 2.555261,1.080397 2.555261,2.4131356 V 21.286018 c 0,1.332738 -1.144029,2.413136 -2.555261,2.413136 H 58.977843 c -1.411233,0 -2.555262,-1.080398 -2.555262,-2.413136 V 4.3940678 c 0,-1.3327386 1.144029,-2.4131356 2.555262,-2.4131356 z"
     id="path2"
     style="stroke-width:1.2416;fill:#ffffff;fill-opacity:1"
     sodipodi:nodetypes="ssssssssssssssssssssssssssssssssssss" />
  <path
     fill="#000000"
     fill-rule="evenodd"
     d="m 52.752315,11.171816 v 2.390526 c 0,0.682941 -0.57252,1.217873 -1.27874,1.217873 h -17.8846 c -0.71067,0 -1.27875,-0.54526 -1.27875,-1.217873 v -2.390526 c 0,-0.682941 0.57252,-1.217873 1.27875,-1.217873 h 17.8846 c 0.71067,0 1.27874,0.54526 1.27874,1.217873 z m -20.44209,62.718918 v -2.39053 c 0,-0.682939 0.57252,-1.21787 1.27875,-1.21787 h 17.8846 c 0.71067,0 1.27874,0.545259 1.27874,1.21787 v 2.39053 c 0,0.68294 -0.57252,1.21787 -1.27874,1.21787 h -17.8846 c -0.71067,0 -1.27875,-0.54526 -1.27875,-1.21787 z m 8.95539,-54.284248 h 2.53131 c 0.72317,0 1.28961,0.538516 1.28961,1.202791 v 43.443982 c 0,0.655951 -0.57738,1.202803 -1.28961,1.202803 h -2.53131 c -0.72317,0 -1.28961,-0.538516 -1.28961,-1.202803 V 20.809277 c 0,-0.655938 0.57738,-1.202791 1.28961,-1.202791 z"
     id="path2-5"
     style="stroke-width:1.2416;fill:#ffffff;fill-opacity:0.75"
     sodipodi:nodetypes="sssssssssssssssssssssssssss" />
</svg>
