<?xml version="1.0" encoding="UTF-8" standalone="no"?>
<svg
   xmlns:dc="http://purl.org/dc/elements/1.1/"
   xmlns:cc="http://creativecommons.org/ns#"
   xmlns:rdf="http://www.w3.org/1999/02/22-rdf-syntax-ns#"
   xmlns:svg="http://www.w3.org/2000/svg"
   xmlns="http://www.w3.org/2000/svg"
   xmlns:sodipodi="http://sodipodi.sourceforge.net/DTD/sodipodi-0.dtd"
   xmlns:inkscape="http://www.inkscape.org/namespaces/inkscape"
   width="700pt"
   height="700pt"
   version="1.1"
   viewBox="0 0 700 700"
   id="svg156"
   sodipodi:docname="chess-board.svg"
   inkscape:version="1.0.2-2 (e86c870879, 2021-01-15)">
  <metadata
     id="metadata160">
    <rdf:RDF>
      <cc:Work
         rdf:about="">
        <dc:format>image/svg+xml</dc:format>
        <dc:type
           rdf:resource="http://purl.org/dc/dcmitype/StillImage" />
        <dc:title></dc:title>
      </cc:Work>
    </rdf:RDF>
  </metadata>
  <sodipodi:namedview
     pagecolor="#503c2f"
     bordercolor="#666666"
     borderopacity="1"
     objecttolerance="10"
     gridtolerance="10"
     guidetolerance="10"
     inkscape:pageopacity="0"
     inkscape:pageshadow="2"
     inkscape:window-width="2560"
     inkscape:window-height="1369"
     id="namedview158"
     showgrid="false"
     inkscape:zoom="0.90214286"
     inkscape:cx="466.66667"
     inkscape:cy="466.66667"
     inkscape:window-x="1912"
     inkscape:window-y="-8"
     inkscape:window-maximized="1"
     inkscape:current-layer="svg156" />
  <defs
     id="defs68">
    <symbol
       id="v"
       overflow="visible">
      <path
         d="m11.484-0.6875c-0.59375 0.3125-1.2148 0.54688-1.8594 0.70312-0.63672 0.15625-1.3047 0.23438-2 0.23438-2.0859 0-3.7344-0.58203-4.9531-1.75-1.2109-1.1641-1.8125-2.7422-1.8125-4.7344 0-2 0.60156-3.5781 1.8125-4.7344 1.2188-1.1641 2.8672-1.75 4.9531-1.75 0.69531 0 1.3633 0.078125 2 0.23438 0.64453 0.15625 1.2656 0.38672 1.8594 0.6875v2.5938c-0.59375-0.40625-1.1836-0.70312-1.7656-0.89062-0.58594-0.19531-1.1953-0.29688-1.8281-0.29688-1.1562 0-2.0625 0.37109-2.7188 1.1094-0.65625 0.74219-0.98438 1.7578-0.98438 3.0469 0 1.293 0.32812 2.3086 0.98438 3.0469 0.65625 0.73047 1.5625 1.0938 2.7188 1.0938 0.63281 0 1.2422-0.09375 1.8281-0.28125 0.58203-0.1875 1.1719-0.48438 1.7656-0.89062z"
         id="path2" />
    </symbol>
    <symbol
       id="c"
       overflow="visible">
      <path
         d="m8.4062-6.8281c-0.26172-0.11328-0.52344-0.20312-0.78125-0.26562-0.26172-0.0625-0.52344-0.09375-0.78125-0.09375-0.77344 0-1.3672 0.25-1.7812 0.75-0.41797 0.49219-0.625 1.1992-0.625 2.125v4.3125h-3v-9.375h3v1.5469c0.38281-0.61328 0.82812-1.0625 1.3281-1.3438s1.0977-0.42188 1.7969-0.42188c0.09375 0 0.19531 0.007812 0.3125 0.015625 0.125 0 0.29688 0.015625 0.51562 0.046875z"
         id="path5" />
    </symbol>
    <symbol
       id="a"
       overflow="visible">
      <path
         d="m10.797-4.7188v0.85938h-7c0.070313 0.71094 0.32031 1.2422 0.75 1.5938 0.4375 0.34375 1.0469 0.51562 1.8281 0.51562 0.63281 0 1.2812-0.09375 1.9375-0.28125 0.66406-0.1875 1.3477-0.46875 2.0469-0.84375v2.3125c-0.71094 0.26172-1.418 0.46094-2.125 0.59375-0.71094 0.14453-1.4219 0.21875-2.1406 0.21875-1.6875 0-3.0078-0.42969-3.9531-1.2969-0.9375-0.86328-1.4062-2.0703-1.4062-3.625 0-1.5312 0.45703-2.7344 1.375-3.6094 0.92578-0.875 2.2031-1.3125 3.8281-1.3125 1.4688 0 2.6445 0.44531 3.5312 1.3281 0.88281 0.88672 1.3281 2.0703 1.3281 3.5469zm-3.0781-0.98438c0-0.57031-0.16797-1.0312-0.5-1.375-0.33594-0.35156-0.76562-0.53125-1.2969-0.53125-0.58594 0-1.0586 0.16797-1.4219 0.5-0.36719 0.32422-0.58984 0.79297-0.67188 1.4062z"
         id="path8" />
    </symbol>
    <symbol
       id="k"
       overflow="visible">
      <path
         d="m5.6406-4.2188c-0.625 0-1.0938 0.10938-1.4062 0.32812-0.3125 0.21094-0.46875 0.51562-0.46875 0.92188 0 0.38672 0.125 0.6875 0.375 0.90625 0.25 0.21094 0.60156 0.3125 1.0625 0.3125 0.5625 0 1.0352-0.20312 1.4219-0.60938 0.38281-0.40625 0.57812-0.91016 0.57812-1.5156v-0.34375zm4.5781-1.125v5.3438h-3.0156v-1.3906c-0.40625 0.57422-0.85938 0.99219-1.3594 1.25s-1.1094 0.39062-1.8281 0.39062c-0.98047 0-1.7734-0.28125-2.375-0.84375-0.60547-0.57031-0.90625-1.3125-0.90625-2.2188 0-1.0938 0.375-1.8945 1.125-2.4062 0.75781-0.51953 1.9531-0.78125 3.5781-0.78125h1.7656v-0.23438c0-0.47656-0.1875-0.82812-0.5625-1.0469s-0.96094-0.32812-1.75-0.32812c-0.64844 0-1.2461 0.070313-1.7969 0.20312-0.55469 0.125-1.0625 0.3125-1.5312 0.5625v-2.2812c0.63281-0.15625 1.2734-0.26953 1.9219-0.34375 0.64453-0.082031 1.2969-0.125 1.9531-0.125 1.6875 0 2.9062 0.33594 3.6562 1 0.75 0.66797 1.125 1.75 1.125 3.25z"
         id="path11" />
    </symbol>
    <symbol
       id="b"
       overflow="visible">
      <path
         d="m4.7188-12.031v2.6562h3.0781v2.1406h-3.0781v3.9844c0 0.42969 0.082031 0.71875 0.25 0.875 0.17578 0.15625 0.51953 0.23438 1.0312 0.23438h1.5469v2.1406h-2.5781c-1.1797 0-2.0156-0.24219-2.5156-0.73438-0.49219-0.5-0.73438-1.3359-0.73438-2.5156v-3.9844h-1.5v-2.1406h1.5v-2.6562z"
         id="path14" />
    </symbol>
    <symbol
       id="f"
       overflow="visible">
      <path
         d="m7.8125-8v-5.0156h3.0156v13.016h-3.0156v-1.3594c-0.40625 0.55469-0.85938 0.96094-1.3594 1.2188s-1.0742 0.39062-1.7188 0.39062c-1.1562 0-2.1094-0.45703-2.8594-1.375-0.74219-0.92578-1.1094-2.1094-1.1094-3.5469 0-1.4453 0.36719-2.6289 1.1094-3.5469 0.75-0.91406 1.7031-1.375 2.8594-1.375 0.64453 0 1.2188 0.13281 1.7188 0.39062 0.5 0.25 0.95312 0.65234 1.3594 1.2031zm-1.9688 6.0625c0.63281 0 1.1172-0.23438 1.4531-0.70312 0.34375-0.46875 0.51562-1.1445 0.51562-2.0312 0-0.89453-0.17188-1.5781-0.51562-2.0469-0.33594-0.46875-0.82031-0.70312-1.4531-0.70312-0.63672 0-1.125 0.23438-1.4688 0.70312-0.33594 0.46875-0.5 1.1523-0.5 2.0469 0 0.88672 0.16406 1.5625 0.5 2.0312 0.34375 0.46875 0.83203 0.70312 1.4688 0.70312z"
         id="path17" />
    </symbol>
    <symbol
       id="j"
       overflow="visible">
      <path
         d="m6.4219-1.9375c0.64453 0 1.1328-0.23438 1.4688-0.70312 0.34375-0.46875 0.51562-1.1445 0.51562-2.0312 0-0.89453-0.17188-1.5781-0.51562-2.0469-0.33594-0.46875-0.82422-0.70312-1.4688-0.70312-0.63672 0-1.125 0.23438-1.4688 0.70312s-0.51562 1.1523-0.51562 2.0469c0 0.88672 0.17188 1.5625 0.51562 2.0312s0.83203 0.70312 1.4688 0.70312zm-1.9844-6.0625c0.41406-0.55078 0.875-0.95312 1.375-1.2031 0.5-0.25781 1.0781-0.39062 1.7344-0.39062 1.1445 0 2.0859 0.46094 2.8281 1.375 0.75 0.91797 1.125 2.1016 1.125 3.5469 0 1.4375-0.375 2.6211-1.125 3.5469-0.74219 0.91797-1.6836 1.375-2.8281 1.375-0.65625 0-1.2344-0.13281-1.7344-0.39062s-0.96094-0.66406-1.375-1.2188v1.3594h-3v-13.016h3z"
         id="path20" />
    </symbol>
    <symbol
       id="i"
       overflow="visible">
      <path
         d="m0.20312-9.375h3l2.5156 6.3594 2.1562-6.3594h2.9844l-3.9375 10.266c-0.39844 1.0391-0.85938 1.7695-1.3906 2.1875-0.52344 0.41406-1.2148 0.625-2.0781 0.625h-1.7344v-1.9688h0.9375c0.50781 0 0.87891-0.085937 1.1094-0.25 0.22656-0.15625 0.40625-0.44531 0.53125-0.85938l0.09375-0.26562z"
         id="path23" />
    </symbol>
    <symbol
       id="e"
       overflow="visible">
      <path
         d="m9.0156-9.0781v2.4375c-0.40625-0.28125-0.82031-0.48438-1.2344-0.60938-0.40625-0.13281-0.82812-0.20312-1.2656-0.20312-0.84375 0-1.5 0.24609-1.9688 0.73438-0.46094 0.48047-0.6875 1.1641-0.6875 2.0469 0 0.875 0.22656 1.5586 0.6875 2.0469 0.46875 0.48047 1.125 0.71875 1.9688 0.71875 0.46875 0 0.91016-0.066406 1.3281-0.20312 0.42578-0.13281 0.81641-0.34375 1.1719-0.625v2.4531c-0.46875 0.17969-0.94922 0.30469-1.4375 0.39062-0.48047 0.09375-0.96094 0.14062-1.4375 0.14062-1.6992 0-3.0273-0.42969-3.9844-1.2969-0.94922-0.875-1.4219-2.082-1.4219-3.625 0-1.5508 0.47266-2.7578 1.4219-3.625 0.95703-0.86328 2.2852-1.2969 3.9844-1.2969 0.48828 0 0.96875 0.042969 1.4375 0.125 0.47656 0.085938 0.95703 0.21484 1.4375 0.39062z"
         id="path26" />
    </symbol>
    <symbol
       id="d"
       overflow="visible">
      <path
         d="m5.9062-7.4531c-0.66797 0-1.1797 0.24219-1.5312 0.71875-0.34375 0.46875-0.51562 1.1562-0.51562 2.0625 0 0.89844 0.17188 1.5859 0.51562 2.0625 0.35156 0.46875 0.86328 0.70312 1.5312 0.70312 0.64453 0 1.1406-0.23438 1.4844-0.70312 0.35156-0.47656 0.53125-1.1641 0.53125-2.0625 0-0.90625-0.17969-1.5938-0.53125-2.0625-0.34375-0.47656-0.83984-0.71875-1.4844-0.71875zm0-2.1406c1.6016 0 2.8594 0.4375 3.7656 1.3125 0.91406 0.86719 1.375 2.0703 1.375 3.6094 0 1.5312-0.46094 2.7344-1.375 3.6094-0.90625 0.875-2.1641 1.3125-3.7656 1.3125-1.625 0-2.8984-0.4375-3.8125-1.3125-0.90625-0.875-1.3594-2.0781-1.3594-3.6094 0-1.5391 0.45312-2.7422 1.3594-3.6094 0.91406-0.875 2.1875-1.3125 3.8125-1.3125z"
         id="path29" />
    </symbol>
    <symbol
       id="u"
       overflow="visible">
      <path
         d="m4.4375-1.3594v4.9219h-3v-12.938h3v1.375c0.41406-0.55078 0.875-0.95312 1.375-1.2031 0.5-0.25781 1.0781-0.39062 1.7344-0.39062 1.1445 0 2.0859 0.46094 2.8281 1.375 0.75 0.91797 1.125 2.1016 1.125 3.5469 0 1.4375-0.375 2.6211-1.125 3.5469-0.74219 0.91797-1.6836 1.375-2.8281 1.375-0.65625 0-1.2344-0.13281-1.7344-0.39062s-0.96094-0.66406-1.375-1.2188zm1.9844-6.0625c-0.63672 0-1.125 0.23438-1.4688 0.70312s-0.51562 1.1523-0.51562 2.0469c0 0.88672 0.17188 1.5625 0.51562 2.0312s0.83203 0.70312 1.4688 0.70312c0.64453 0 1.1328-0.23438 1.4688-0.70312 0.34375-0.46875 0.51562-1.1445 0.51562-2.0312 0-0.89453-0.17188-1.5781-0.51562-2.0469-0.33594-0.46875-0.82422-0.70312-1.4688-0.70312z"
         id="path32" />
    </symbol>
    <symbol
       id="h"
       overflow="visible">
      <path
         d="m1.3438-3.6562v-5.7188h3.0156v0.9375c0 0.51172-0.007813 1.1523-0.015625 1.9219-0.011719 0.76172-0.015625 1.2734-0.015625 1.5312 0 0.75 0.019531 1.293 0.0625 1.625 0.039063 0.33594 0.10938 0.57422 0.20312 0.71875 0.125 0.19922 0.28516 0.35156 0.48438 0.45312 0.19531 0.10547 0.42578 0.15625 0.6875 0.15625 0.625 0 1.1133-0.23828 1.4688-0.71875 0.35156-0.47656 0.53125-1.1445 0.53125-2v-4.625h3v9.375h-3v-1.3594c-0.44922 0.55469-0.92969 0.96094-1.4375 1.2188-0.5 0.25781-1.0586 0.39062-1.6719 0.39062-1.0859 0-1.9062-0.33203-2.4688-1-0.5625-0.66406-0.84375-1.6328-0.84375-2.9062z"
         id="path35" />
    </symbol>
    <symbol
       id="t"
       overflow="visible">
      <path
         d="m8.7656-9.0781v2.2812c-0.64844-0.26953-1.2656-0.47266-1.8594-0.60938-0.59375-0.13281-1.1562-0.20312-1.6875-0.20312-0.57422 0-1 0.074219-1.2812 0.21875-0.27344 0.13672-0.40625 0.35547-0.40625 0.65625 0 0.24219 0.10156 0.42188 0.3125 0.54688 0.20703 0.125 0.58203 0.21875 1.125 0.28125l0.53125 0.078125c1.5312 0.19922 2.5625 0.52344 3.0938 0.96875 0.53125 0.44922 0.79688 1.1484 0.79688 2.0938 0 1-0.37109 1.7578-1.1094 2.2656-0.73047 0.5-1.8281 0.75-3.2969 0.75-0.61719 0-1.2578-0.054688-1.9219-0.15625-0.65625-0.09375-1.3359-0.23828-2.0312-0.4375v-2.2812c0.59375 0.29297 1.2031 0.51172 1.8281 0.65625 0.63281 0.14844 1.2734 0.21875 1.9219 0.21875 0.58203 0 1.0195-0.078125 1.3125-0.23438 0.30078-0.16406 0.45312-0.41016 0.45312-0.73438 0-0.25781-0.10547-0.45312-0.3125-0.57812-0.19922-0.13281-0.60547-0.23828-1.2188-0.3125l-0.51562-0.078125c-1.3359-0.16406-2.2734-0.47266-2.8125-0.92188-0.53125-0.45703-0.79688-1.1445-0.79688-2.0625 0-0.98828 0.33594-1.7227 1.0156-2.2031 0.67578-0.47656 1.7188-0.71875 3.125-0.71875 0.55078 0 1.1289 0.042969 1.7344 0.125 0.61328 0.085938 1.2812 0.21484 2 0.39062z"
         id="path38" />
    </symbol>
    <symbol
       id="s"
       overflow="visible">
      <path
         d="m1.4375-13.016h3v13.016h-3z"
         id="path41" />
    </symbol>
    <symbol
       id="g"
       overflow="visible">
      <path
         d="m1.4375-9.375h3v9.375h-3zm0-3.6406h3v2.4375h-3z"
         id="path44" />
    </symbol>
    <symbol
       id="r"
       overflow="visible">
      <path
         d="m7.6094-13.016v1.9531h-1.6562c-0.42969 0-0.72656 0.078125-0.89062 0.23438-0.16797 0.15625-0.25 0.42188-0.25 0.79688v0.65625h2.5625v2.1406h-2.5625v7.2344h-3v-7.2344h-1.4844v-2.1406h1.4844v-0.65625c0-1.0195 0.28516-1.7695 0.85938-2.25 0.57031-0.48828 1.4531-0.73438 2.6406-0.73438z"
         id="path47" />
    </symbol>
    <symbol
       id="q"
       overflow="visible">
      <path
         d="m10.125-7.8125c0.38281-0.58203 0.83594-1.0234 1.3594-1.3281 0.51953-0.30078 1.0938-0.45312 1.7188-0.45312 1.0703 0 1.8906 0.33594 2.4531 1 0.5625 0.65625 0.84375 1.6211 0.84375 2.8906v5.7031h-3.0156v-4.8906c0.007813-0.070313 0.015625-0.14453 0.015625-0.21875 0.007812-0.082031 0.015625-0.19531 0.015625-0.34375 0-0.65625-0.10156-1.1328-0.29688-1.4375-0.19922-0.30078-0.51562-0.45312-0.95312-0.45312-0.5625 0-1 0.23438-1.3125 0.70312s-0.47656 1.1484-0.48438 2.0312v4.6094h-3.0156v-4.8906c0-1.0312-0.089844-1.6953-0.26562-2-0.17969-0.30078-0.49609-0.45312-0.95312-0.45312-0.57422 0-1.0156 0.24219-1.3281 0.71875-0.3125 0.46875-0.46875 1.1406-0.46875 2.0156v4.6094h-3.0156v-9.375h3.0156v1.375c0.36328-0.53125 0.78516-0.92578 1.2656-1.1875 0.47656-0.26953 1.0039-0.40625 1.5781-0.40625 0.64453 0 1.2109 0.15625 1.7031 0.46875 0.5 0.3125 0.87891 0.75 1.1406 1.3125z"
         id="path50" />
    </symbol>
    <symbol
       id="p"
       overflow="visible">
      <path
         d="m10.859-5.7031v5.7031h-3.0156v-4.3594c0-0.8125-0.023438-1.3672-0.0625-1.6719-0.03125-0.3125-0.089844-0.53906-0.17188-0.6875-0.11719-0.19531-0.27734-0.34766-0.48438-0.45312-0.19922-0.11328-0.42969-0.17188-0.6875-0.17188-0.625 0-1.1172 0.24609-1.4688 0.73438-0.35547 0.48047-0.53125 1.1484-0.53125 2v4.6094h-3v-13.016h3v5.0156c0.44531-0.55078 0.92578-0.95312 1.4375-1.2031 0.50781-0.25781 1.0703-0.39062 1.6875-0.39062 1.082 0 1.8984 0.33594 2.4531 1 0.5625 0.65625 0.84375 1.6211 0.84375 2.8906z"
         id="path53" />
    </symbol>
    <symbol
       id="o"
       overflow="visible">
      <path
         d="m1.5781-12.5h3.5938l4.5469 8.5781v-8.5781h3.0469v12.5h-3.5938l-4.5469-8.5781v8.5781h-3.0469z"
         id="path56" />
    </symbol>
    <symbol
       id="n"
       overflow="visible">
      <path
         d="m10.859-5.7031v5.7031h-3.0156v-4.375c0-0.80078-0.023438-1.3516-0.0625-1.6562-0.03125-0.3125-0.089844-0.53906-0.17188-0.6875-0.11719-0.19531-0.27734-0.34766-0.48438-0.45312-0.19922-0.11328-0.42969-0.17188-0.6875-0.17188-0.625 0-1.1172 0.24609-1.4688 0.73438-0.35547 0.48047-0.53125 1.1484-0.53125 2v4.6094h-3v-9.375h3v1.375c0.44531-0.55078 0.92578-0.95312 1.4375-1.2031 0.50781-0.25781 1.0703-0.39062 1.6875-0.39062 1.082 0 1.8984 0.33594 2.4531 1 0.5625 0.65625 0.84375 1.6211 0.84375 2.8906z"
         id="path59" />
    </symbol>
    <symbol
       id="m"
       overflow="visible">
      <path
         d="m1.5781-12.5h5.3438c1.5938 0 2.8125 0.35547 3.6562 1.0625 0.85156 0.71094 1.2812 1.7148 1.2812 3.0156 0 1.3125-0.42969 2.3242-1.2812 3.0312-0.84375 0.71094-2.0625 1.0625-3.6562 1.0625h-2.125v4.3281h-3.2188zm3.2188 2.3438v3.4844h1.7812c0.625 0 1.1016-0.14844 1.4375-0.45312 0.34375-0.30078 0.51562-0.73438 0.51562-1.2969 0-0.55078-0.17188-0.97656-0.51562-1.2812-0.33594-0.30078-0.8125-0.45312-1.4375-0.45312z"
         id="path62" />
    </symbol>
    <symbol
       id="l"
       overflow="visible">
      <path
         d="m1.4375-9.375h3v9.2031c0 1.2578-0.30469 2.2188-0.90625 2.875-0.60547 0.66406-1.4805 1-2.625 1h-1.4688v-1.9688h0.51562c0.5625 0 0.94531-0.13281 1.1562-0.39062 0.21875-0.25 0.32812-0.75781 0.32812-1.5156zm0-3.6406h3v2.4375h-3z"
         id="path65" />
    </symbol>
  </defs>
  <path
     d="M 249.60754,250.93265 H 451.5301 V 445.17088 H 249.60754 Z"
     id="path70"
     style="stroke-width:1.40851;fill:#ffffff" />
  <path
     d="M 681.09854,29.994766 C 673.71027,22.888169 663.68523,18.90049 653.24012,18.90049 h -0.0116 L 47.661969,19.089356 C 25.907182,19.094725 8.2741432,36.065343 8.2741432,56.986601 V 639.68749 c 0,10.05285 4.1513328,19.69596 11.5453458,26.80187 7.393871,7.10121 17.413308,11.09428 27.858421,11.09428 h 0.01681 l 605.56665,-0.18886 c 21.75048,-0.006 39.38208,-16.97599 39.38208,-37.89725 l -0.006,-582.714713 c 0,-10.052841 -4.15133,-19.690433 -11.54535,-26.796339 z M 249.60754,639.4257 V 445.18746 H 47.684977 V 250.93541 H 249.60754 V 56.932008 l 201.93693,-0.06475 V 250.93973 H 653.23725 V 445.19177 H 451.54447 v 194.23825"
     id="path72"
     style="stroke-width:1.40851;fill:#ffffff" />
</svg>
