<?xml version="1.0" encoding="UTF-8" standalone="no"?>
<svg
   xmlns:dc="http://purl.org/dc/elements/1.1/"
   xmlns:cc="http://creativecommons.org/ns#"
   xmlns:rdf="http://www.w3.org/1999/02/22-rdf-syntax-ns#"
   xmlns:svg="http://www.w3.org/2000/svg"
   xmlns="http://www.w3.org/2000/svg"
   xmlns:sodipodi="http://sodipodi.sourceforge.net/DTD/sodipodi-0.dtd"
   xmlns:inkscape="http://www.inkscape.org/namespaces/inkscape"
   width="700pt"
   height="700pt"
   version="1.1"
   viewBox="0 0 700 700"
   id="svg4"
   sodipodi:docname="critical.svg"
   inkscape:version="1.0.2-2 (e86c870879, 2021-01-15)">
  <metadata
     id="metadata10">
    <rdf:RDF>
      <cc:Work
         rdf:about="">
        <dc:format>image/svg+xml</dc:format>
        <dc:type
           rdf:resource="http://purl.org/dc/dcmitype/StillImage" />
        <dc:title></dc:title>
      </cc:Work>
    </rdf:RDF>
  </metadata>
  <defs
     id="defs8" />
  <sodipodi:namedview
     pagecolor="#554d45"
     bordercolor="#666666"
     borderopacity="1"
     objecttolerance="10"
     gridtolerance="10"
     guidetolerance="10"
     inkscape:pageopacity="0"
     inkscape:pageshadow="2"
     inkscape:window-width="1920"
     inkscape:window-height="1009"
     id="namedview6"
     showgrid="false"
     inkscape:zoom="0.63791133"
     inkscape:cx="389.9896"
     inkscape:cy="515.33594"
     inkscape:window-x="-8"
     inkscape:window-y="-8"
     inkscape:window-maximized="1"
     inkscape:current-layer="svg4" />
  <path
     d="m 2.1332147,212.56822 v 275.69621 c 0,8.29374 3.4545707,16.58303 10.3635883,22.80197 L 208.73628,687.27187 c 5.52924,5.52924 13.12833,8.98368 21.42231,8.98368 h 235.62818 c 6.90914,0 14.51293,-2.76462 20.03772,-8.29373 L 682.06397,511.75635 c 6.90914,-5.52924 11.74831,-13.81877 11.74831,-23.49241 V 212.56773 c 0,-8.29374 -3.45457,-16.58303 -10.36359,-22.80197 L 487.20921,13.560295 C 481.67997,8.031055 474.08088,4.576608 465.7869,4.576608 H 230.15872 c -7.59897,0 -14.51293,2.76462 -20.73187,7.598969 L 13.879052,188.38104 C 6.2800829,194.60023 2.1307444,202.89397 2.1307444,212.5676 Z M 217.72738,285.12298 c -12.43789,-11.74831 -12.43789,-31.78517 0,-43.53384 l 21.42231,-21.42232 c 11.74831,-12.43789 31.78516,-12.43789 43.53384,0 l 64.95122,64.95122 65.64536,-64.95122 c 11.74831,-12.43789 31.09596,-12.43789 43.53385,0 l 21.42231,21.42232 c 11.74831,11.7483 11.74831,31.78516 0,43.53384 l -64.95121,64.95121 64.95121,65.64537 c 11.74831,11.74831 11.74831,31.09595 0,43.53384 l -21.42231,21.42232 c -12.43789,11.7483 -31.78517,11.7483 -43.53385,0 l -65.64536,-64.95122 -64.95122,64.95122 c -11.7483,11.7483 -31.78516,11.7483 -43.53384,0 L 217.72738,459.2534 c -12.43789,-12.43789 -12.43789,-31.78516 0,-43.53384 l 64.95121,-65.64537 z"
     fill-rule="evenodd"
     id="path2"
     style="fill:#ffffff;stroke-width:1.23514" />
</svg>
