<?xml version="1.0" encoding="UTF-8" standalone="no"?>
<svg
   xmlns:dc="http://purl.org/dc/elements/1.1/"
   xmlns:cc="http://creativecommons.org/ns#"
   xmlns:rdf="http://www.w3.org/1999/02/22-rdf-syntax-ns#"
   xmlns:svg="http://www.w3.org/2000/svg"
   xmlns="http://www.w3.org/2000/svg"
   xmlns:sodipodi="http://sodipodi.sourceforge.net/DTD/sodipodi-0.dtd"
   xmlns:inkscape="http://www.inkscape.org/namespaces/inkscape"
   width="700pt"
   height="700pt"
   version="1.1"
   viewBox="0 0 700 700"
   id="svg134"
   sodipodi:docname="External.svg"
   inkscape:version="1.0.2-2 (e86c870879, 2021-01-15)">
  <metadata
     id="metadata138">
    <rdf:RDF>
      <cc:Work
         rdf:about="">
        <dc:format>image/svg+xml</dc:format>
        <dc:type
           rdf:resource="http://purl.org/dc/dcmitype/StillImage" />
        <dc:title />
      </cc:Work>
    </rdf:RDF>
  </metadata>
  <sodipodi:namedview
     pagecolor="#ffffff"
     bordercolor="#666666"
     borderopacity="1"
     objecttolerance="10"
     gridtolerance="10"
     guidetolerance="10"
     inkscape:pageopacity="0"
     inkscape:pageshadow="2"
     inkscape:window-width="2560"
     inkscape:window-height="1369"
     id="namedview136"
     showgrid="false"
     inkscape:pagecheckerboard="true"
     inkscape:zoom="0.45107143"
     inkscape:cx="158.68527"
     inkscape:cy="346.99033"
     inkscape:window-x="1912"
     inkscape:window-y="-8"
     inkscape:window-maximized="1"
     inkscape:current-layer="svg134"
     inkscape:document-rotation="0" />
  <defs
     id="defs62">
    <symbol
       id="t"
       overflow="visible">
      <path
         d="m10.859-0.65625c-0.5625 0.29297-1.1484 0.51172-1.75 0.65625-0.60547 0.15625-1.2422 0.23438-1.9062 0.23438-1.9688 0-3.5273-0.54688-4.6719-1.6406-1.1484-1.1016-1.7188-2.5977-1.7188-4.4844 0-1.8945 0.57031-3.3906 1.7188-4.4844 1.1445-1.1016 2.7031-1.6562 4.6719-1.6562 0.66406 0 1.3008 0.078125 1.9062 0.23438 0.60156 0.14844 1.1875 0.36719 1.75 0.65625v2.4375c-0.5625-0.38281-1.1211-0.66406-1.6719-0.84375-0.55469-0.17578-1.1328-0.26562-1.7344-0.26562-1.0859 0-1.9375 0.35156-2.5625 1.0469-0.625 0.6875-0.9375 1.6484-0.9375 2.875 0 1.2188 0.3125 2.1797 0.9375 2.875 0.625 0.6875 1.4766 1.0312 2.5625 1.0312 0.60156 0 1.1797-0.085937 1.7344-0.26562 0.55078-0.17578 1.1094-0.45703 1.6719-0.84375z"
         id="path2" />
    </symbol>
    <symbol
       id="d"
       overflow="visible">
      <path
         d="m7.9375-6.4531c-0.24219-0.11328-0.48438-0.19531-0.73438-0.25-0.25-0.050781-0.49609-0.078125-0.73438-0.078125-0.73047 0-1.293 0.23438-1.6875 0.70312-0.39844 0.46094-0.59375 1.125-0.59375 2v4.0781h-2.8281v-8.8594h2.8281v1.4531c0.36328-0.58203 0.78125-1.0039 1.25-1.2656 0.47656-0.26953 1.0469-0.40625 1.7031-0.40625 0.09375 0 0.19531 0.007813 0.3125 0.015625 0.11328 0.011719 0.27344 0.027344 0.48438 0.046875z"
         id="path5" />
    </symbol>
    <symbol
       id="a"
       overflow="visible">
      <path
         d="m10.203-4.4531v0.8125h-6.625c0.070313 0.65625 0.3125 1.1523 0.71875 1.4844 0.41406 0.33594 0.99219 0.5 1.7344 0.5 0.59375 0 1.2031-0.085938 1.8281-0.26562 0.625-0.17578 1.2656-0.44141 1.9219-0.79688v2.1875c-0.66797 0.25-1.3398 0.4375-2.0156 0.5625-0.66797 0.13281-1.3359 0.20312-2 0.20312-1.6055 0-2.8516-0.40625-3.7344-1.2188-0.88672-0.82031-1.3281-1.9688-1.3281-3.4375 0-1.4453 0.42969-2.582 1.2969-3.4062 0.875-0.83203 2.0781-1.25 3.6094-1.25 1.3945 0 2.5078 0.42188 3.3438 1.2656 0.83203 0.83594 1.25 1.9531 1.25 3.3594zm-2.9062-0.9375c0-0.53906-0.15625-0.97266-0.46875-1.2969-0.3125-0.33203-0.72656-0.5-1.2344-0.5-0.55469 0-1 0.15625-1.3438 0.46875-0.33594 0.30469-0.54688 0.74609-0.64062 1.3281z"
         id="path8" />
    </symbol>
    <symbol
       id="k"
       overflow="visible">
      <path
         d="m5.3281-3.9844c-0.58594 0-1.0273 0.10156-1.3281 0.29688-0.30469 0.19922-0.45312 0.49609-0.45312 0.89062 0 0.35547 0.11719 0.63672 0.35938 0.84375 0.23828 0.19922 0.57031 0.29688 1 0.29688 0.53906 0 0.98828-0.1875 1.3438-0.5625 0.36328-0.38281 0.54688-0.86328 0.54688-1.4375v-0.32812zm4.3281-1.0781v5.0625h-2.8594v-1.3125c-0.375 0.54297-0.80469 0.9375-1.2812 1.1875-0.46875 0.23828-1.043 0.35938-1.7188 0.35938-0.92969 0-1.6797-0.26562-2.25-0.79688-0.5625-0.53906-0.84375-1.2383-0.84375-2.0938 0-1.0391 0.35156-1.8008 1.0625-2.2812 0.71875-0.48828 1.8438-0.73438 3.375-0.73438h1.6562v-0.21875c0-0.44531-0.17969-0.77344-0.53125-0.98438-0.34375-0.20703-0.89062-0.3125-1.6406-0.3125-0.61719 0-1.1836 0.0625-1.7031 0.1875-0.52344 0.11719-1.0078 0.29297-1.4531 0.53125v-2.1562c0.60156-0.14453 1.2109-0.25391 1.8281-0.32812 0.61328-0.082031 1.2266-0.125 1.8438-0.125 1.5938 0 2.7422 0.32031 3.4531 0.95312 0.70703 0.625 1.0625 1.6484 1.0625 3.0625z"
         id="path11" />
    </symbol>
    <symbol
       id="c"
       overflow="visible">
      <path
         d="m4.4531-11.375v2.5156h2.9219v2.0312h-2.9219v3.75c0 0.41797 0.078125 0.69922 0.23438 0.84375 0.16406 0.13672 0.49219 0.20312 0.98438 0.20312h1.4531v2.0312h-2.4219c-1.125 0-1.9219-0.23438-2.3906-0.70312-0.46094-0.46875-0.6875-1.2578-0.6875-2.375v-3.75h-1.4062v-2.0312h1.4062v-2.5156z"
         id="path14" />
    </symbol>
    <symbol
       id="j"
       overflow="visible">
      <path
         d="m7.3906-7.5625v-4.75h2.8438v12.312h-2.8438v-1.2812c-0.39844 0.52344-0.82812 0.90625-1.2969 1.1562-0.46875 0.23828-1.0117 0.35938-1.625 0.35938-1.0938 0-1.9922-0.42969-2.6875-1.2969-0.69922-0.875-1.0469-1.9922-1.0469-3.3594 0-1.3633 0.34766-2.4766 1.0469-3.3438 0.69531-0.875 1.5938-1.3125 2.6875-1.3125 0.61328 0 1.1562 0.125 1.625 0.375 0.46875 0.24219 0.89844 0.62109 1.2969 1.1406zm-1.875 5.7344c0.61328 0 1.0781-0.21875 1.3906-0.65625 0.32031-0.44531 0.48438-1.0938 0.48438-1.9375s-0.16406-1.4844-0.48438-1.9219c-0.3125-0.44531-0.77734-0.67188-1.3906-0.67188-0.59375 0-1.0547 0.22656-1.375 0.67188-0.32422 0.4375-0.48438 1.0781-0.48438 1.9219s0.16016 1.4922 0.48438 1.9375c0.32031 0.4375 0.78125 0.65625 1.375 0.65625z"
         id="path17" />
    </symbol>
    <symbol
       id="i"
       overflow="visible">
      <path
         d="m6.0781-1.8281c0.60156 0 1.0625-0.21875 1.375-0.65625 0.32031-0.44531 0.48438-1.0938 0.48438-1.9375s-0.16406-1.4844-0.48438-1.9219c-0.3125-0.44531-0.77344-0.67188-1.375-0.67188-0.60547 0-1.0742 0.22656-1.4062 0.67188-0.32422 0.4375-0.48438 1.0781-0.48438 1.9219 0 0.83594 0.16016 1.4766 0.48438 1.9219 0.33203 0.44922 0.80078 0.67188 1.4062 0.67188zm-1.8906-5.7344c0.39453-0.51953 0.82812-0.89844 1.2969-1.1406 0.47656-0.25 1.0234-0.375 1.6406-0.375 1.0938 0 1.9883 0.4375 2.6875 1.3125 0.70703 0.86719 1.0625 1.9805 1.0625 3.3438 0 1.3672-0.35547 2.4844-1.0625 3.3594-0.69922 0.86719-1.5938 1.2969-2.6875 1.2969-0.61719 0-1.1641-0.12109-1.6406-0.35938-0.46875-0.25-0.90234-0.63281-1.2969-1.1562v1.2812h-2.8281v-12.312h2.8281z"
         id="path20" />
    </symbol>
    <symbol
       id="h"
       overflow="visible">
      <path
         d="m0.20312-8.8594h2.8281l2.375 6.0156 2.0312-6.0156h2.8281l-3.7188 9.7031c-0.375 0.97656-0.8125 1.6641-1.3125 2.0625-0.5 0.39453-1.1562 0.59375-1.9688 0.59375h-1.6406v-1.8594h0.89062c0.47656 0 0.82812-0.078125 1.0469-0.23438s0.38281-0.43359 0.5-0.82812l0.078125-0.23438z"
         id="path23" />
    </symbol>
    <symbol
       id="e"
       overflow="visible">
      <path
         d="m0.90625-11.812h9.9375v1.8438l-6.3438 7.6719h6.5156v2.2969h-10.281v-1.8438l6.3281-7.6719h-6.1562z"
         id="path26" />
    </symbol>
    <symbol
       id="s"
       overflow="visible">
      <path
         d="m1.6562-3.0625h2.8438v3.0625h-2.8438z"
         id="path29" />
    </symbol>
    <symbol
       id="g"
       overflow="visible">
      <path
         d="m10.266-5.3906v5.3906h-2.8438v-4.1094c0-0.78125-0.023437-1.3125-0.0625-1.5938-0.03125-0.28906-0.089844-0.50781-0.17188-0.65625-0.10547-0.17578-0.25781-0.31641-0.45312-0.42188-0.1875-0.10156-0.40234-0.15625-0.64062-0.15625-0.59375 0-1.0625 0.23047-1.4062 0.6875-0.33594 0.46094-0.5 1.0898-0.5 1.8906v4.3594h-2.8281v-12.312h2.8281v4.75c0.42578-0.51953 0.87891-0.89844 1.3594-1.1406 0.48828-0.25 1.0195-0.375 1.5938-0.375 1.0195 0 1.7969 0.32031 2.3281 0.95312 0.53125 0.625 0.79688 1.5391 0.79688 2.7344z"
         id="path32" />
    </symbol>
    <symbol
       id="b"
       overflow="visible">
      <path
         d="m5.5781-7.0469c-0.625 0-1.1055 0.22656-1.4375 0.67188-0.33594 0.44922-0.5 1.1016-0.5 1.9531 0 0.84375 0.16406 1.4961 0.5 1.9531 0.33203 0.44922 0.8125 0.67188 1.4375 0.67188 0.61328 0 1.082-0.22266 1.4062-0.67188 0.33203-0.45703 0.5-1.1094 0.5-1.9531 0-0.85156-0.16797-1.5039-0.5-1.9531-0.32422-0.44531-0.79297-0.67188-1.4062-0.67188zm0-2.0312c1.5195 0 2.707 0.41406 3.5625 1.2344 0.86328 0.82422 1.2969 1.9648 1.2969 3.4219 0 1.4609-0.43359 2.6016-1.2969 3.4219-0.85547 0.82422-2.043 1.2344-3.5625 1.2344-1.5312 0-2.7305-0.41016-3.5938-1.2344-0.85547-0.82031-1.2812-1.9609-1.2812-3.4219 0-1.457 0.42578-2.5977 1.2812-3.4219 0.86328-0.82031 2.0625-1.2344 3.5938-1.2344z"
         id="path35" />
    </symbol>
    <symbol
       id="f"
       overflow="visible">
      <path
         d="m1.2656-3.4531v-5.4062h2.8438v0.89062c0 0.48047-0.007813 1.0859-0.015625 1.8125v1.4375c0 0.71875 0.015625 1.2344 0.046875 1.5469 0.039063 0.3125 0.10938 0.54297 0.20312 0.6875 0.11328 0.17969 0.26562 0.32031 0.45312 0.42188 0.1875 0.09375 0.39844 0.14062 0.64062 0.14062 0.59375 0 1.0547-0.22266 1.3906-0.67188 0.34375-0.45703 0.51562-1.0859 0.51562-1.8906v-4.375h2.8281v8.8594h-2.8281v-1.2812c-0.42969 0.52344-0.88281 0.90625-1.3594 1.1562-0.48047 0.23828-1.0078 0.35938-1.5781 0.35938-1.0234 0-1.8047-0.3125-2.3438-0.9375-0.53125-0.63281-0.79688-1.5508-0.79688-2.75z"
         id="path38" />
    </symbol>
    <symbol
       id="r"
       overflow="visible">
      <path
         d="m7.1875-12.312v1.8594h-1.5625c-0.39844 0-0.67969 0.074219-0.84375 0.21875-0.15625 0.14844-0.23438 0.39844-0.23438 0.75v0.625h2.4219v2.0312h-2.4219v6.8281h-2.8281v-6.8281h-1.4062v-2.0312h1.4062v-0.625c0-0.95703 0.26562-1.6641 0.79688-2.125 0.53906-0.46875 1.3789-0.70312 2.5156-0.70312z"
         id="path41" />
    </symbol>
    <symbol
       id="q"
       overflow="visible">
      <path
         d="m9.5781-7.3906c0.35156-0.55078 0.77344-0.96875 1.2656-1.25 0.5-0.28906 1.0469-0.4375 1.6406-0.4375 1.0078 0 1.7812 0.32031 2.3125 0.95312 0.53906 0.625 0.8125 1.5391 0.8125 2.7344v5.3906h-2.8594v-4.625c0.007812-0.0625 0.015625-0.12891 0.015625-0.20312v-0.32812c0-0.625-0.09375-1.0781-0.28125-1.3594-0.17969-0.28125-0.47656-0.42188-0.89062-0.42188-0.53125 0-0.94922 0.22656-1.25 0.67188-0.29297 0.4375-0.44531 1.0781-0.45312 1.9219v4.3438h-2.8438v-4.625c0-0.97656-0.085937-1.6094-0.25-1.8906-0.16797-0.28125-0.46875-0.42188-0.90625-0.42188-0.54297 0-0.96484 0.22656-1.2656 0.67188-0.29297 0.44922-0.4375 1.0859-0.4375 1.9062v4.3594h-2.8438v-8.8594h2.8438v1.2969c0.35156-0.5 0.75391-0.875 1.2031-1.125 0.44531-0.25781 0.94531-0.39062 1.5-0.39062 0.60156 0 1.1406 0.15234 1.6094 0.45312 0.46875 0.29297 0.82812 0.70312 1.0781 1.2344z"
         id="path44" />
    </symbol>
    <symbol
       id="p"
       overflow="visible">
      <path
         d="m1.4844-11.812h3.4062l4.2969 8.1094v-8.1094h2.8906v11.812h-3.4062l-4.2969-8.1094v8.1094h-2.8906z"
         id="path47" />
    </symbol>
    <symbol
       id="o"
       overflow="visible">
      <path
         d="m10.266-5.3906v5.3906h-2.8438v-4.125c0-0.76953-0.023437-1.2969-0.0625-1.5781-0.03125-0.28906-0.089844-0.50781-0.17188-0.65625-0.10547-0.17578-0.25781-0.31641-0.45312-0.42188-0.1875-0.10156-0.40234-0.15625-0.64062-0.15625-0.59375 0-1.0625 0.23047-1.4062 0.6875-0.33594 0.46094-0.5 1.0898-0.5 1.8906v4.3594h-2.8281v-8.8594h2.8281v1.2969c0.42578-0.51953 0.87891-0.89844 1.3594-1.1406 0.48828-0.25 1.0195-0.375 1.5938-0.375 1.0195 0 1.7969 0.32031 2.3281 0.95312 0.53125 0.625 0.79688 1.5391 0.79688 2.7344z"
         id="path50" />
    </symbol>
    <symbol
       id="n"
       overflow="visible">
      <path
         d="m1.4844-11.812h5.0625c1.5 0 2.6484 0.33594 3.4531 1 0.80078 0.66797 1.2031 1.6211 1.2031 2.8594 0 1.2422-0.40234 2.1953-1.2031 2.8594-0.80469 0.66797-1.9531 1-3.4531 1h-2.0156v4.0938h-3.0469zm3.0469 2.2031v3.2969h1.6875c0.59375 0 1.0469-0.14062 1.3594-0.42188 0.32031-0.28906 0.48438-0.69531 0.48438-1.2188 0-0.53125-0.16406-0.9375-0.48438-1.2188-0.3125-0.28906-0.76562-0.4375-1.3594-0.4375z"
         id="path53" />
    </symbol>
    <symbol
       id="m"
       overflow="visible">
      <path
         d="m1.3594-8.8594h2.8281v8.7031c0 1.1875-0.28906 2.0938-0.85938 2.7188-0.5625 0.625-1.3867 0.9375-2.4688 0.9375h-1.3906v-1.8594h0.48438c0.53906 0 0.91016-0.125 1.1094-0.375 0.19531-0.24219 0.29688-0.71484 0.29688-1.4219zm0-3.4531h2.8281v2.3125h-2.8281z"
         id="path56" />
    </symbol>
    <symbol
       id="l"
       overflow="visible">
      <path
         d="m8.5156-8.5781v2.2969c-0.38672-0.25781-0.77344-0.45312-1.1562-0.57812-0.38672-0.125-0.78906-0.1875-1.2031-0.1875-0.79297 0-1.4141 0.23047-1.8594 0.6875-0.4375 0.46094-0.65625 1.1055-0.65625 1.9375 0 0.82422 0.21875 1.4688 0.65625 1.9375 0.44531 0.46094 1.0664 0.6875 1.8594 0.6875 0.4375 0 0.85156-0.0625 1.25-0.1875 0.40625-0.13281 0.77344-0.33203 1.1094-0.59375v2.3125c-0.4375 0.16797-0.88672 0.28906-1.3438 0.375-0.46094 0.082031-0.91797 0.125-1.375 0.125-1.5938 0-2.8438-0.41016-3.75-1.2344-0.89844-0.82031-1.3438-1.9609-1.3438-3.4219 0-1.457 0.44531-2.5977 1.3438-3.4219 0.90625-0.82031 2.1562-1.2344 3.75-1.2344 0.46875 0 0.92578 0.042969 1.375 0.125 0.44531 0.085937 0.89453 0.21094 1.3438 0.375z"
         id="path59" />
    </symbol>
  </defs>
  <path
     d="M 653.09568,43.79516 C 627.98861,18.68133 597.73583,6.120194 562.36267,6.120194 H 134.30791 c -35.371475,0 -65.617496,12.560292 -90.73808,37.674966 C 18.456001,68.915744 5.8948637,99.161772 5.8948637,134.53325 V 562.588 c 0,35.37148 12.5602923,65.61751 37.6749663,90.73809 25.120584,25.12059 55.366605,37.68003 90.73808,37.68003 h 428.05476 c 35.37147,0 65.61749,-12.56029 90.73301,-37.68003 25.12059,-25.12058 37.68004,-55.36661 37.68004,-90.73809 l -0.007,-428.05475 c 0,-35.371478 -12.56029,-65.624261 -37.67496,-90.73809 z m -76.46959,319.02721 c 0,12.48108 -5.79859,21.24821 -17.38935,26.30779 -3.86578,1.48429 -7.59292,2.2297 -11.14865,2.2297 -8.02169,0 -14.71078,-2.83006 -20.061,-8.47024 L 463.81973,318.68224 225.71881,556.80005 c -5.65353,5.64694 -12.33603,8.47025 -20.06776,8.47025 -7.73174,0 -14.42066,-2.82348 -20.06776,-8.47025 l -45.47881,-45.48556 c -5.64694,-5.64019 -8.47025,-12.34261 -8.47025,-20.06101 0,-7.72481 2.82348,-14.41406 8.47025,-20.061 L 378.22229,233.07467 314.01492,168.86731 c -9.21567,-8.62207 -11.29371,-19.01903 -6.24714,-31.20864 5.05317,-11.5906 13.82688,-17.39611 26.3078,-17.39611 l 214.01894,-0.0135 c 7.72481,0 14.41406,2.83005 20.06775,8.47682 5.64019,5.64019 8.46366,12.33603 8.46366,20.06101 z"
     id="path64"
     style="fill:#ffffff;fill-opacity:1;stroke-width:1.68878" />
</svg>
