<?xml version="1.0" encoding="UTF-8" standalone="no"?>
<svg
   xmlns:dc="http://purl.org/dc/elements/1.1/"
   xmlns:cc="http://creativecommons.org/ns#"
   xmlns:rdf="http://www.w3.org/1999/02/22-rdf-syntax-ns#"
   xmlns:svg="http://www.w3.org/2000/svg"
   xmlns="http://www.w3.org/2000/svg"
   xmlns:sodipodi="http://sodipodi.sourceforge.net/DTD/sodipodi-0.dtd"
   xmlns:inkscape="http://www.inkscape.org/namespaces/inkscape"
   width="700pt"
   height="700pt"
   version="1.1"
   viewBox="0 0 700 700"
   id="svg4"
   sodipodi:docname="Keyboard.svg"
   inkscape:version="1.0.2-2 (e86c870879, 2021-01-15)">
  <metadata
     id="metadata10">
    <rdf:RDF>
      <cc:Work
         rdf:about="">
        <dc:format>image/svg+xml</dc:format>
        <dc:type
           rdf:resource="http://purl.org/dc/dcmitype/StillImage" />
        <dc:title />
      </cc:Work>
    </rdf:RDF>
  </metadata>
  <defs
     id="defs8" />
  <sodipodi:namedview
     pagecolor="#2a3881"
     bordercolor="#666666"
     borderopacity="1"
     objecttolerance="10"
     gridtolerance="10"
     guidetolerance="10"
     inkscape:pageopacity="0"
     inkscape:pageshadow="2"
     inkscape:window-width="2560"
     inkscape:window-height="1369"
     id="namedview6"
     showgrid="false"
     inkscape:pagecheckerboard="false"
     inkscape:zoom="0.90214285"
     inkscape:cx="422.32808"
     inkscape:cy="557.08656"
     inkscape:window-x="1912"
     inkscape:window-y="-8"
     inkscape:window-maximized="1"
     inkscape:current-layer="svg4"
     inkscape:document-rotation="0" />
  <path
     d="m 548.98218,21.821851 v 49.370547 c 0,27.781512 -21.59467,49.370542 -49.37054,49.370542 H 203.38836 c -54.27516,0 -98.7411,44.46594 -98.7411,98.74111 H 55.27672 c -27.352694,0 -49.3705476,22.01785 -49.3705476,49.37054 v 345.59383 c 0,27.35269 22.0178536,49.37055 49.3705476,49.37055 h 592.44656 c 27.3527,0 49.37055,-22.01786 49.37055,-49.37055 V 268.67459 c 0,-27.35269 -22.01785,-49.37054 -49.37055,-49.37054 H 154.01782 c 0,-27.77588 21.59467,-49.37055 49.37054,-49.37055 h 296.22328 c 54.27516,0 98.7411,-44.46171 98.7411,-98.741102 V 21.821851 Z M 55.27672,268.67459 h 49.37054 v 24.68527 H 55.27672 Z m 98.7411,0 h 98.74109 v 24.68527 h -98.74109 z m 148.11163,0 h 98.7411 v 24.68527 h -98.7411 z m 148.11164,0 h 98.74109 v 24.68527 h -98.74109 z m 148.11165,0 h 49.37054 v 24.68527 H 598.35274 Z M 55.27672,367.41568 h 49.37054 v 49.37055 H 55.27672 Z m 98.7411,0 h 49.37054 v 49.37055 h -49.37054 z m 98.74109,0 h 49.37054 v 49.37055 h -49.37054 z m 98.74109,0 h 49.37055 v 49.37055 H 351.5 Z m 98.74109,0 h 49.37055 v 49.37055 h -49.37055 z m 98.74109,0 h 49.37056 v 49.37055 H 548.98218 Z M 55.27672,466.15677 h 49.37054 v 49.37055 H 55.27672 Z m 98.7411,0 h 49.37054 v 49.37055 h -49.37054 z m 98.74109,0 h 49.37054 v 49.37055 h -49.37054 z m 98.74109,0 h 49.37055 v 49.37055 H 351.5 Z m 98.74109,0 h 49.37055 v 49.37055 h -49.37055 z m 98.74109,49.37055 h 49.37056 v 49.37055 h 49.37054 v 49.37055 H 499.61164 v -49.37055 h 49.37054 z M 55.27672,564.89787 h 49.37054 v 49.37055 H 55.27672 Z m 98.7411,0 h 246.85273 v 49.37055 H 154.01782 Z"
     id="path2"
     style="fill:#ffffff;stroke:none;stroke-width:1.41059" />
  <path
     style="fill:#ffffff;fill-opacity:0.5;stroke:none;stroke-width:1.1727;stroke-dasharray:1.1727, 3.5181"
     d="M 500.02528,589.48126 V 565.1478 h 24.62664 24.62664 v -24.62664 -24.62664 h 24.33346 24.33346 v 24.62664 24.62664 h 24.62665 24.62663 v 24.33346 24.33346 h -73.58674 -73.58674 z"
     id="path844" />
</svg>
