<?xml version="1.0" encoding="UTF-8" standalone="no"?>
<svg
   xmlns:dc="http://purl.org/dc/elements/1.1/"
   xmlns:cc="http://creativecommons.org/ns#"
   xmlns:rdf="http://www.w3.org/1999/02/22-rdf-syntax-ns#"
   xmlns:svg="http://www.w3.org/2000/svg"
   xmlns="http://www.w3.org/2000/svg"
   xmlns:sodipodi="http://sodipodi.sourceforge.net/DTD/sodipodi-0.dtd"
   xmlns:inkscape="http://www.inkscape.org/namespaces/inkscape"
   width="700pt"
   height="700pt"
   version="1.1"
   viewBox="0 0 700 700"
   id="svg154"
   sodipodi:docname="mechanics.svg"
   inkscape:version="1.0.2-2 (e86c870879, 2021-01-15)">
  <metadata
     id="metadata158">
    <rdf:RDF>
      <cc:Work
         rdf:about="">
        <dc:format>image/svg+xml</dc:format>
        <dc:type
           rdf:resource="http://purl.org/dc/dcmitype/StillImage" />
        <dc:title></dc:title>
      </cc:Work>
    </rdf:RDF>
  </metadata>
  <sodipodi:namedview
     pagecolor="#2e4f28"
     bordercolor="#666666"
     borderopacity="1"
     objecttolerance="10"
     gridtolerance="10"
     guidetolerance="10"
     inkscape:pageopacity="0"
     inkscape:pageshadow="2"
     inkscape:window-width="2560"
     inkscape:window-height="1369"
     id="namedview156"
     showgrid="false"
     inkscape:zoom="0.63791133"
     inkscape:cx="366.57325"
     inkscape:cy="464.83009"
     inkscape:window-x="1912"
     inkscape:window-y="-8"
     inkscape:window-maximized="1"
     inkscape:current-layer="svg154" />
  <defs
     id="defs68">
    <symbol
       id="v"
       overflow="visible">
      <path
         d="m15.625-0.9375c-0.80469 0.41797-1.6406 0.73047-2.5156 0.9375-0.875 0.21875-1.7891 0.32812-2.7344 0.32812-2.8359 0-5.0781-0.78906-6.7344-2.375-1.6562-1.582-2.4844-3.7266-2.4844-6.4375 0-2.7188 0.82812-4.8672 2.4844-6.4531 1.6562-1.582 3.8984-2.375 6.7344-2.375 0.94531 0 1.8594 0.10938 2.7344 0.32812 0.875 0.21094 1.7109 0.52344 2.5156 0.9375v3.5156c-0.8125-0.55078-1.6172-0.95703-2.4062-1.2188-0.78125-0.25781-1.6094-0.39062-2.4844-0.39062-1.5625 0-2.793 0.50781-3.6875 1.5156-0.89844 1-1.3438 2.3828-1.3438 4.1406 0 1.75 0.44531 3.1328 1.3438 4.1406 0.89453 1 2.125 1.5 3.6875 1.5 0.875 0 1.7031-0.12891 2.4844-0.39062 0.78906-0.25781 1.5938-0.66406 2.4062-1.2188z"
         id="path2" />
    </symbol>
    <symbol
       id="b"
       overflow="visible">
      <path
         d="m11.438-9.2812c-0.35547-0.16406-0.71094-0.28516-1.0625-0.35938-0.35547-0.082031-0.71094-0.125-1.0625-0.125-1.0547 0-1.8672 0.33984-2.4375 1.0156-0.5625 0.66797-0.84375 1.625-0.84375 2.875v5.875h-4.0781v-12.75h4.0781v2.0938c0.53125-0.84375 1.1328-1.4531 1.8125-1.8281 0.67578-0.38281 1.4883-0.57812 2.4375-0.57812 0.13281 0 0.28125 0.007812 0.4375 0.015625 0.16406 0.011719 0.39844 0.039063 0.70312 0.078125z"
         id="path5" />
    </symbol>
    <symbol
       id="a"
       overflow="visible">
      <path
         d="m14.688-6.4062v1.1562h-9.5312c0.10156 0.96094 0.44531 1.6797 1.0312 2.1562 0.59375 0.48047 1.4258 0.71875 2.5 0.71875 0.85156 0 1.7266-0.125 2.625-0.375 0.90625-0.25781 1.832-0.64844 2.7812-1.1719v3.1406c-0.96875 0.36719-1.9375 0.64062-2.9062 0.82812-0.96094 0.1875-1.9219 0.28125-2.8906 0.28125-2.3047 0-4.0938-0.58203-5.375-1.75-1.2812-1.1758-1.9219-2.8281-1.9219-4.9531 0-2.0703 0.625-3.7031 1.875-4.8906 1.2578-1.1953 2.9922-1.7969 5.2031-1.7969 2 0 3.5977 0.60547 4.7969 1.8125 1.207 1.2109 1.8125 2.8242 1.8125 4.8438zm-4.1875-1.3594c0-0.78125-0.23047-1.4062-0.6875-1.875-0.44922-0.47656-1.0391-0.71875-1.7656-0.71875-0.78125 0-1.4219 0.22656-1.9219 0.67188-0.49219 0.44922-0.79688 1.0898-0.92188 1.9219z"
         id="path8" />
    </symbol>
    <symbol
       id="d"
       overflow="visible">
      <path
         d="m7.6719-5.7344c-0.84375 0-1.4844 0.14844-1.9219 0.4375-0.42969 0.28125-0.64062 0.70312-0.64062 1.2656 0 0.52344 0.17188 0.92969 0.51562 1.2188 0.35156 0.29297 0.83594 0.4375 1.4531 0.4375 0.75781 0 1.3984-0.27344 1.9219-0.82812 0.53125-0.55078 0.79688-1.2422 0.79688-2.0781v-0.45312zm6.2344-1.5469v7.2812h-4.1094v-1.8906c-0.55469 0.77344-1.1719 1.3359-1.8594 1.6875-0.67969 0.35156-1.5078 0.53125-2.4844 0.53125-1.3242 0-2.3984-0.38281-3.2188-1.1562-0.82422-0.76953-1.2344-1.7695-1.2344-3 0-1.5 0.51562-2.5977 1.5469-3.2969 1.0312-0.69531 2.6445-1.0469 4.8438-1.0469h2.4062v-0.3125c0-0.64453-0.25781-1.1172-0.76562-1.4219-0.51172-0.30078-1.3047-0.45312-2.375-0.45312-0.875 0-1.6875 0.089844-2.4375 0.26562-0.75 0.17969-1.4492 0.4375-2.0938 0.78125v-3.1094c0.86328-0.20703 1.7383-0.36328 2.625-0.46875 0.88281-0.11328 1.7656-0.17188 2.6406-0.17188 2.3008 0 3.9609 0.45312 4.9844 1.3594 1.0195 0.90625 1.5312 2.3828 1.5312 4.4219z"
         id="path11" />
    </symbol>
    <symbol
       id="c"
       overflow="visible">
      <path
         d="m6.4062-16.375v3.625h4.2031v2.9062h-4.2031v5.4062c0 0.59375 0.11719 0.99609 0.35938 1.2031 0.23828 0.21094 0.70703 0.3125 1.4062 0.3125h2.0938v2.9219h-3.5c-1.6172 0-2.7617-0.33203-3.4375-1-0.66797-0.67578-1-1.8203-1-3.4375v-5.4062h-2.0156v-2.9062h2.0156v-3.625z"
         id="path14" />
    </symbol>
    <symbol
       id="j"
       overflow="visible">
      <path
         d="m10.641-10.891v-6.8281h4.0938v17.719h-4.0938v-1.8438c-0.5625 0.75-1.1836 1.3047-1.8594 1.6562-0.67969 0.34375-1.4609 0.51562-2.3438 0.51562-1.5742 0-2.8672-0.625-3.875-1.875-1.0117-1.25-1.5156-2.8594-1.5156-4.8281 0-1.957 0.50391-3.5625 1.5156-4.8125 1.0078-1.25 2.3008-1.875 3.875-1.875 0.875 0 1.6484 0.17969 2.3281 0.53125 0.6875 0.35547 1.3125 0.90234 1.875 1.6406zm-2.6875 8.2656c0.875 0 1.5391-0.31641 2-0.95312 0.45703-0.64453 0.6875-1.5781 0.6875-2.7969 0-1.207-0.23047-2.1289-0.6875-2.7656-0.46094-0.64453-1.125-0.96875-2-0.96875-0.86719 0-1.5273 0.32422-1.9844 0.96875-0.46094 0.63672-0.6875 1.5586-0.6875 2.7656 0 1.2188 0.22656 2.1523 0.6875 2.7969 0.45703 0.63672 1.1172 0.95312 1.9844 0.95312z"
         id="path17" />
    </symbol>
    <symbol
       id="i"
       overflow="visible">
      <path
         d="m8.75-2.625c0.875 0 1.5391-0.31641 2-0.95312 0.45703-0.64453 0.6875-1.5781 0.6875-2.7969 0-1.207-0.23047-2.1289-0.6875-2.7656-0.46094-0.64453-1.125-0.96875-2-0.96875s-1.5469 0.32422-2.0156 0.96875c-0.46875 0.64844-0.70312 1.5703-0.70312 2.7656 0 1.2109 0.23438 2.1367 0.70312 2.7812 0.46875 0.64844 1.1406 0.96875 2.0156 0.96875zm-2.7188-8.2656c0.5625-0.73828 1.1875-1.2852 1.875-1.6406 0.6875-0.35156 1.4727-0.53125 2.3594-0.53125 1.5703 0 2.8633 0.625 3.875 1.875 1.0078 1.25 1.5156 2.8555 1.5156 4.8125 0 1.9688-0.50781 3.5781-1.5156 4.8281-1.0117 1.25-2.3047 1.875-3.875 1.875-0.88672 0-1.6719-0.17969-2.3594-0.53125s-1.3125-0.89844-1.875-1.6406v1.8438h-4.0781v-17.719h4.0781z"
         id="path20" />
    </symbol>
    <symbol
       id="f"
       overflow="visible">
      <path
         d="m0.28125-12.75h4.0781l3.4375 8.6562 2.9062-8.6562h4.0781l-5.3594 13.953c-0.54297 1.4258-1.1719 2.4219-1.8906 2.9844s-1.668 0.84375-2.8438 0.84375h-2.3594v-2.6719h1.2812c0.6875 0 1.1875-0.10938 1.5-0.32812 0.32031-0.21875 0.57031-0.61719 0.75-1.1875l0.10938-0.35938z"
         id="path23" />
    </symbol>
    <symbol
       id="h"
       overflow="visible">
      <path
         d="m2.1406-17h5.5781l3.875 9.0938 3.8906-9.0938h5.5781v17h-4.1406v-12.438l-3.9219 9.1719h-2.7812l-3.9219-9.1719v12.438h-4.1562z"
         id="path26" />
    </symbol>
    <symbol
       id="u"
       overflow="visible">
      <path
         d="m1.3281-12.75h11.141v2.8438l-6.7344 6.9844h6.7344v2.9219h-11.422v-2.8438l6.7188-7h-6.4375z"
         id="path29" />
    </symbol>
    <symbol
       id="t"
       overflow="visible">
      <path
         d="m17.422-1.2656c-1.0938 0.53125-2.2305 0.93359-3.4062 1.2031-1.1797 0.25781-2.3906 0.39062-3.6406 0.39062-2.8359 0-5.0781-0.78906-6.7344-2.375-1.6562-1.582-2.4844-3.7266-2.4844-6.4375 0-2.7383 0.84375-4.8945 2.5312-6.4688 1.6875-1.5703 3.9922-2.3594 6.9219-2.3594 1.1328 0 2.2188 0.10938 3.25 0.32812 1.0391 0.21094 2.0195 0.52344 2.9375 0.9375v3.5156c-0.94922-0.53906-1.8906-0.94141-2.8281-1.2031-0.9375-0.26953-1.875-0.40625-2.8125-0.40625-1.75 0-3.1016 0.49219-4.0469 1.4688-0.9375 0.98047-1.4062 2.375-1.4062 4.1875 0 1.8047 0.45312 3.1953 1.3594 4.1719 0.90625 0.98047 2.2031 1.4688 3.8906 1.4688 0.44531 0 0.86328-0.023438 1.25-0.078125 0.39453-0.0625 0.75-0.15625 1.0625-0.28125v-3.2969h-2.6719v-2.9375h6.8281z"
         id="path32" />
    </symbol>
    <symbol
       id="g"
       overflow="visible">
      <path
         d="m1.9531-17.719h4.0781v17.719h-4.0781z"
         id="path35" />
    </symbol>
    <symbol
       id="s"
       overflow="visible">
      <path
         d="m10.359-17.719v2.6719h-2.2656c-0.57422 0-0.97656 0.10547-1.2031 0.3125-0.23047 0.21094-0.34375 0.57422-0.34375 1.0938v0.89062h3.4844v2.9062h-3.4844v9.8438h-4.0781v-9.8438h-2.0312v-2.9062h2.0312v-0.89062c0-1.3945 0.38281-2.4219 1.1562-3.0781 0.78125-0.66406 1.9844-1 3.6094-1z"
         id="path38" />
    </symbol>
    <symbol
       id="e"
       overflow="visible">
      <path
         d="m8.0312-10.156c-0.90625 0-1.6016 0.32812-2.0781 0.98438-0.46875 0.64844-0.70312 1.5781-0.70312 2.7969 0 1.2305 0.23438 2.1719 0.70312 2.8281 0.47656 0.64844 1.1719 0.96875 2.0781 0.96875 0.88281 0 1.5625-0.32031 2.0312-0.96875 0.47656-0.65625 0.71875-1.5977 0.71875-2.8281 0-1.2188-0.24219-2.1484-0.71875-2.7969-0.46875-0.65625-1.1484-0.98438-2.0312-0.98438zm0-2.9062c2.1953 0 3.9102 0.59375 5.1406 1.7812 1.2383 1.1797 1.8594 2.8125 1.8594 4.9062 0 2.1055-0.62109 3.75-1.8594 4.9375-1.2305 1.1797-2.9453 1.7656-5.1406 1.7656-2.1992 0-3.9219-0.58594-5.1719-1.7656-1.2422-1.1875-1.8594-2.832-1.8594-4.9375 0-2.0938 0.61719-3.7266 1.8594-4.9062 1.25-1.1875 2.9727-1.7812 5.1719-1.7812z"
         id="path41" />
    </symbol>
    <symbol
       id="r"
       overflow="visible">
      <path
         d="m13.781-10.641c0.51953-0.78906 1.1328-1.3906 1.8438-1.7969 0.70703-0.41406 1.4883-0.625 2.3438-0.625 1.457 0 2.5703 0.45312 3.3438 1.3594 0.76953 0.89844 1.1562 2.2109 1.1562 3.9375v7.7656h-4.1094v-6.6562c0.007813-0.09375 0.015625-0.19141 0.015625-0.29688 0.007812-0.11328 0.015625-0.26953 0.015625-0.46875 0-0.89453-0.13672-1.5469-0.40625-1.9531-0.26172-0.40625-0.6875-0.60938-1.2812-0.60938-0.78125 0-1.3867 0.32031-1.8125 0.95312-0.41797 0.63672-0.63281 1.5586-0.64062 2.7656v6.2656h-4.0938v-6.6562c0-1.4062-0.125-2.3125-0.375-2.7188-0.24219-0.40625-0.67188-0.60938-1.2969-0.60938-0.78125 0-1.3867 0.32422-1.8125 0.96875-0.42969 0.63672-0.64062 1.5469-0.64062 2.7344v6.2812h-4.0938v-12.75h4.0938v1.8594c0.5-0.71875 1.0703-1.2578 1.7188-1.625 0.65625-0.36328 1.375-0.54688 2.1562-0.54688 0.88281 0 1.6641 0.21484 2.3438 0.64062 0.67578 0.41797 1.1875 1.0117 1.5312 1.7812z"
         id="path44" />
    </symbol>
    <symbol
       id="q"
       overflow="visible">
      <path
         d="m14.781-7.7656v7.7656h-4.0938v-5.9219c0-1.1133-0.027344-1.8789-0.078125-2.2969-0.054687-0.41406-0.13672-0.72266-0.25-0.92188-0.16797-0.26953-0.38672-0.47656-0.65625-0.625-0.27344-0.14453-0.58594-0.21875-0.9375-0.21875-0.84375 0-1.5117 0.32812-2 0.98438-0.49219 0.65625-0.73438 1.5625-0.73438 2.7188v6.2812h-4.0781v-17.719h4.0781v6.8281c0.61328-0.73828 1.2656-1.2852 1.9531-1.6406 0.69531-0.35156 1.4609-0.53125 2.2969-0.53125 1.4766 0 2.5977 0.45312 3.3594 1.3594 0.75781 0.89844 1.1406 2.2109 1.1406 3.9375z"
         id="path47" />
    </symbol>
    <symbol
       id="p"
       overflow="visible">
      <path
         d="m2.1406-17h4.9062l6.1719 11.656v-11.656h4.1562v17h-4.8906l-6.1875-11.672v11.672h-4.1562z"
         id="path50" />
    </symbol>
    <symbol
       id="o"
       overflow="visible">
      <path
         d="m1.8281-4.9688v-7.7812h4.0938v1.2656c0 0.69922-0.007813 1.5703-0.015625 2.6094v2.0938c0 1.0234 0.023438 1.7617 0.078125 2.2188 0.050781 0.44922 0.14062 0.77344 0.26562 0.96875 0.16406 0.27344 0.38281 0.48047 0.65625 0.625 0.26953 0.14844 0.58203 0.21875 0.9375 0.21875 0.84375 0 1.5078-0.32812 2-0.98438 0.48828-0.65625 0.73438-1.5625 0.73438-2.7188v-6.2969h4.0625v12.75h-4.0625v-1.8438c-0.625 0.74219-1.2812 1.2891-1.9688 1.6406-0.67969 0.35156-1.4336 0.53125-2.2656 0.53125-1.4688 0-2.5898-0.44531-3.3594-1.3438-0.77344-0.90625-1.1562-2.2227-1.1562-3.9531z"
         id="path53" />
    </symbol>
    <symbol
       id="n"
       overflow="visible">
      <path
         d="m14.781-7.7656v7.7656h-4.0938v-5.9531c0-1.0938-0.027344-1.8477-0.078125-2.2656-0.054687-0.41406-0.13672-0.72266-0.25-0.92188-0.16797-0.26953-0.38672-0.47656-0.65625-0.625-0.27344-0.14453-0.58594-0.21875-0.9375-0.21875-0.84375 0-1.5117 0.32812-2 0.98438-0.49219 0.65625-0.73438 1.5625-0.73438 2.7188v6.2812h-4.0781v-12.75h4.0781v1.8594c0.61328-0.73828 1.2656-1.2852 1.9531-1.6406 0.69531-0.35156 1.4609-0.53125 2.2969-0.53125 1.4766 0 2.5977 0.45312 3.3594 1.3594 0.75781 0.89844 1.1406 2.2109 1.1406 3.9375z"
         id="path56" />
    </symbol>
    <symbol
       id="m"
       overflow="visible">
      <path
         d="m2.1406-17h7.2812c2.1641 0 3.8281 0.48047 4.9844 1.4375 1.1562 0.96094 1.7344 2.3281 1.7344 4.1094s-0.57812 3.1523-1.7344 4.1094c-1.1562 0.96094-2.8203 1.4375-4.9844 1.4375h-2.8906v5.9062h-4.3906zm4.3906 3.1719v4.75h2.4219c0.85156 0 1.5078-0.20312 1.9688-0.60938 0.46875-0.41406 0.70312-1.0039 0.70312-1.7656 0-0.75781-0.23438-1.3438-0.70312-1.75-0.46094-0.41406-1.1172-0.625-1.9688-0.625z"
         id="path59" />
    </symbol>
    <symbol
       id="l"
       overflow="visible">
      <path
         d="m1.9531-12.75h4.0781v12.516c0 1.707-0.41406 3.0078-1.2344 3.9062-0.8125 0.90625-2 1.3594-3.5625 1.3594h-2.0156v-2.6719h0.71875c0.76953 0 1.2969-0.17969 1.5781-0.53125 0.28906-0.34375 0.4375-1.0312 0.4375-2.0625zm0-4.9688h4.0781v3.3281h-4.0781z"
         id="path62" />
    </symbol>
    <symbol
       id="k"
       overflow="visible">
      <path
         d="m12.266-12.359v3.3281c-0.55469-0.38281-1.1094-0.66406-1.6719-0.84375-0.55469-0.1875-1.1328-0.28125-1.7344-0.28125-1.1367 0-2.0234 0.33594-2.6562 1-0.63672 0.66797-0.95312 1.5938-0.95312 2.7812 0 1.1992 0.31641 2.1328 0.95312 2.7969 0.63281 0.66797 1.5195 1 2.6562 1 0.63281 0 1.2383-0.09375 1.8125-0.28125 0.57031-0.19531 1.1016-0.48438 1.5938-0.85938v3.3438c-0.63672 0.24219-1.2812 0.41406-1.9375 0.53125-0.65625 0.11328-1.3203 0.17188-1.9844 0.17188-2.3047 0-4.1055-0.58594-5.4062-1.7656-1.293-1.1875-1.9375-2.832-1.9375-4.9375 0-2.0938 0.64453-3.7266 1.9375-4.9062 1.3008-1.1875 3.1016-1.7812 5.4062-1.7812 0.67578 0 1.3359 0.058594 1.9844 0.17188 0.64453 0.11719 1.2891 0.29297 1.9375 0.53125z"
         id="path65" />
    </symbol>
  </defs>
  <path
     d="m 201.98532,135.11701 c -51.86899,0 -93.91779,42.0488 -93.91779,93.91189 0,51.869 42.0488,93.91779 93.91779,93.91779 51.86901,0 93.9119,-42.04879 93.9119,-93.91779 0,-51.86309 -42.04289,-93.91189 -93.9119,-93.91189 z m -38.7414,93.91189 c 0,-21.3946 17.3409,-38.74141 38.7414,-38.74141 21.3946,0 38.74142,17.34681 38.74142,38.74141 0,21.39903 -17.34682,38.74141 -38.74142,38.74141 -21.39902,0 -38.7414,-17.3409 -38.7414,-38.74141 z"
     fill-rule="evenodd"
     id="path70"
     style="stroke-width:1.47783;fill:#ffffff;fill-opacity:0.5" />
  <path
     d="m 456.66038,380.37826 c -51.18772,8.38213 -85.88134,56.67196 -77.49464,107.85821 8.38213,51.18772 56.67196,85.88133 107.85821,77.49907 51.18772,-8.38789 85.88133,-56.67787 77.49463,-107.86411 -8.38212,-51.18181 -56.67196,-85.88134 -107.8582,-77.49464 z m -23.05125,98.93948 c -3.45783,-21.11676 10.85292,-41.03944 31.96997,-44.49609 21.11676,-3.45784 41.03944,10.85292 44.49609,31.96997 3.45784,21.11677 -10.85291,41.03944 -31.96997,44.49609 -21.11676,3.45784 -41.03944,-10.85291 -44.49609,-31.96997 z"
     fill-rule="evenodd"
     id="path72"
     style="stroke-width:1.47783;fill:#ffffff;fill-opacity:0.5" />
  <path
     d="m 193.84247,12.029735 c -34.27835,0 -62.06901,29.111843 -62.06901,65.058662 -5.95745,2.770943 -11.72454,5.876762 -17.27292,9.294242 C 82.935489,67.200359 44.851719,78.254558 27.707376,107.94423 l -14.951242,25.902 c -17.0010013,29.4473 -7.135131,67.03304 22.0005,84.36951 -0.519546,7.63744 -0.519546,15.45962 0,23.09706 -29.135488,17.33055 -39.0015013,54.91629 -22.0005,84.36951 l 14.951242,25.902 c 17.145819,29.68967 57.110874,38.7015 86.793164,21.56159 5.54764,3.41748 11.31459,6.5233 17.27292,9.29424 0,34.27834 27.79066,65.05866 62.06901,65.05866 h 29.90839 c 16.16898,0 30.89559,-6.18266 41.93944,-16.30789 -0.17895,24.97243 14.84188,48.58377 39.37687,58.21925 0.7216,7.62 1.98592,15.33844 3.72917,22.79115 -25.94928,21.81578 -29.60839,60.50398 -8.0703,86.81681 l 18.94583,23.14288 c 21.71085,26.52563 62.61136,28.96258 89.137,7.25054 6.02676,2.47656 12.21518,4.6067 18.54237,6.37892 5.54188,33.82909 37.93895,59.70743 71.76656,54.17147 l 29.52268,-4.83178 c 33.82909,-5.54764 56.75768,-37.46604 51.21579,-71.29364 l -1.50664,-9.19612 c 3.30207,-2.6728 6.49433,-5.46103 9.5771,-8.35892 l 9.15562,3.45784 c 32.0616,12.11704 67.88872,-4.05828 79.99365,-36.12565 l 10.57567,-27.98129 c 12.11706,-32.06751 -4.06404,-67.88281 -36.12564,-79.99957 l -12.12282,-4.58365 c -0.42142,-3.05956 -0.92364,-6.13641 -1.50664,-9.17291 l 10.03315,-8.20893 c 26.51972,-21.71085 30.42268,-60.81579 8.70533,-87.34291 l -18.93991,-23.14879 c -21.71677,-26.52563 -60.82173,-30.42268 -87.34735,-8.71109 l -7.5739,6.19996 c -3.83897,-1.76646 -7.75863,-3.38867 -11.73607,-4.8665 l -1.50665,-9.20188 c -5.54188,-33.82909 -37.46012,-56.75768 -71.28773,-51.2158 l -29.51677,4.83753 c -7.851,1.28157 -15.1079,3.98898 -21.5616,7.80474 -5.21276,-11.00291 -13.70454,-20.58621 -25.04188,-27.13155 l -11.22238,-6.48281 c 0.0809,-3.08838 0.0809,-6.20572 0,-9.29424 l 11.22238,-6.47705 c 29.68376,-17.13991 39.8616,-55.10102 22.71577,-84.79069 l -14.95124,-25.902 C 372.74781,78.254558 334.7867,68.082635 305.09703,85.222549 l -8.4745,4.895314 c -3.50985,-2.361134 -7.11207,-4.595166 -10.80088,-6.696356 v -9.323054 c 0,-34.278354 -27.78476,-62.069013 -62.06902,-62.069013 z m -6.89853,62.069004 c 0,-3.810002 3.08837,-6.898523 6.89853,-6.898523 h 29.90839 c 3.81,0 6.89852,3.088378 6.89852,6.898523 v 21.815786 c 0,13.952815 8.29553,25.879815 20.0084,31.374405 8.1801,3.83896 15.84089,8.63617 22.81922,14.25296 10.73159,8.62449 26.21381,10.51228 39.08722,3.07685 l 20.11775,-11.61488 c 3.29631,-1.90507 7.51611,-0.77355 9.42119,2.52843 l 14.95715,25.90198 c 1.89931,3.29631 0.77356,7.51612 -2.52843,9.42119 l -22.30641,12.87903 c -12.33651,7.12359 -18.50248,20.64977 -17.09262,33.78179 0.86014,8.02419 0.86014,16.46454 0,24.49361 -1.40856,13.13307 4.75685,26.65865 17.09262,33.7818 l 22.30641,12.87902 c 3.30208,1.90508 4.42774,6.11912 2.52843,9.42119 l -14.95715,25.902 c -1.90508,3.30206 -6.12488,4.42772 -9.42119,2.52841 l -20.11775,-11.61488 c -12.87326,-7.43527 -28.35667,-5.54764 -39.08131,3.07685 -6.98512,5.61695 -14.64562,10.41415 -22.82513,14.25296 -11.71302,5.49577 -20.0084,17.42218 -20.0084,31.37442 v 21.81577 c 0,3.81 -3.08837,6.89852 -6.89852,6.89852 h -29.90839 c -3.81,0 -6.89853,-3.08837 -6.89853,-6.89852 v -16.72316 c 0,-15.17145 -9.74454,-27.79657 -22.91233,-32.58179 -10.12553,-3.67731 -19.59312,-8.76888 -28.15421,-15.04436 -10.67395,-7.82217 -25.49854,-9.25951 -37.85766,-2.13014 l -13.110008,7.57389 c -3.296318,1.89931 -7.516118,0.77356 -9.42119,-2.52843 L 60.5373,298.09146 c -1.905084,-3.30207 -0.779325,-7.51612 2.522655,-9.42119 l 10.899024,-6.29232 c 12.855968,-7.42374 18.963561,-21.75223 16.885731,-35.32909 -1.714584,-11.24543 -1.714584,-23.33351 0,-34.57392 2.07812,-13.57759 -4.029465,-27.90593 -16.885731,-35.32908 l -10.899024,-6.29232 c -3.302068,-1.90508 -4.427739,-6.12488 -2.522655,-9.42119 l 14.951242,-25.90199 c 1.905072,-3.30207 6.124872,-4.4335 9.42119,-2.52842 l 13.110008,7.56813 c 12.35956,7.13512 27.18475,5.69779 37.85766,-2.12439 8.56109,-6.27502 18.02809,-11.3666 28.15421,-15.05025 13.16779,-4.78567 22.91233,-17.41036 22.91233,-32.575885 z M 431.95396,322.58167 c -0.61769,-3.75813 1.93389,-7.30257 5.69202,-7.92029 l 29.51677,-4.83179 c 3.75813,-0.61768 7.30834,1.92813 7.9203,5.68626 l 3.52715,21.53204 c 2.25709,13.76809 12.37109,24.19361 24.81726,27.72712 8.6938,2.46502 17.02464,5.96335 24.82907,10.37941 11.97859,6.77143 27.56456,6.13065 39.07097,-3.28478 l 17.97045,-14.71479 c 2.94991,-2.40724 7.29105,-1.97424 9.70405,0.96982 l 18.94583,23.14879 c 2.413,2.94415 1.98,7.29104 -0.96405,9.70405 l -19.93302,16.3138 c -11.0202,9.02292 -14.92316,23.36751 -11.40711,36.10348 2.14745,7.78168 3.51563,16.11134 3.96016,24.16997 0.73313,13.19084 9.00563,25.53844 22.32859,30.57341 l 24.09607,9.10376 c 3.56188,1.35083 5.36291,5.32832 4.01202,8.89005 l -10.56991,27.9813 c -1.34506,3.56763 -5.32256,5.36291 -8.89005,4.01793 l -21.72267,-8.20891 c -13.91247,-5.25327 -28.88722,-0.88901 -38.07787,9.35187 -5.9864,6.67331 -12.76937,12.64818 -20.22267,17.75765 -10.66818,7.31986 -16.92563,20.42366 -14.66868,34.19854 l 3.52715,21.52613 c 0.61191,3.75813 -1.93389,7.30257 -5.69202,7.92607 l -29.51677,4.83177 c -3.7639,0.61191 -7.30834,-1.92813 -7.92607,-5.68626 l -2.70163,-16.51036 c -2.4535,-14.96898 -14.10872,-25.85026 -27.87637,-28.44239 -10.58735,-1.99743 -20.75322,-5.48984 -30.22022,-10.29872 -11.79385,-5.99217 -26.65864,-5.0165 -37.69658,4.01794 l -11.71877,9.58863 c -2.94415,2.413 -7.29105,1.97999 -9.70405,-0.96405 l -18.94583,-23.14879 c -2.41301,-2.94415 -1.97999,-7.29104 0.96984,-9.70404 l 9.73862,-7.97218 c 11.4878,-9.40389 15.19952,-24.52909 10.9568,-37.59757 -3.51562,-10.81242 -5.47256,-22.74533 -5.59389,-34.11135 -0.14439,-13.73927 -8.48602,-26.88918 -22.37588,-32.13697 l -11.77064,-4.45079 c -3.56764,-1.34507 -5.36291,-5.32256 -4.01794,-8.88429 l 10.57567,-27.98721 c 1.34507,-3.56188 5.32256,-5.35714 8.88429,-4.01202 l 14.1606,5.35138 c 13.35252,5.03971 27.74929,1.22382 37.01531,-8.22045 7.43526,-7.57965 15.95025,-14.13178 25.34779,-19.40247 12.22671,-6.85228 19.80002,-20.88622 17.34681,-35.84929 z"
     fill-rule="evenodd"
     id="path74"
     style="stroke-width:1.47783;fill:#ffffff" />
</svg>
