<?xml version="1.0" encoding="UTF-8" standalone="no"?>
<svg
   xmlns:dc="http://purl.org/dc/elements/1.1/"
   xmlns:cc="http://creativecommons.org/ns#"
   xmlns:rdf="http://www.w3.org/1999/02/22-rdf-syntax-ns#"
   xmlns:svg="http://www.w3.org/2000/svg"
   xmlns="http://www.w3.org/2000/svg"
   xmlns:sodipodi="http://sodipodi.sourceforge.net/DTD/sodipodi-0.dtd"
   xmlns:inkscape="http://www.inkscape.org/namespaces/inkscape"
   width="700pt"
   height="700pt"
   version="1.1"
   viewBox="0 0 700 700"
   id="svg93"
   sodipodi:docname="motor.svg"
   inkscape:version="1.0.2-2 (e86c870879, 2021-01-15)">
  <metadata
     id="metadata97">
    <rdf:RDF>
      <cc:Work
         rdf:about="">
        <dc:format>image/svg+xml</dc:format>
        <dc:type
           rdf:resource="http://purl.org/dc/dcmitype/StillImage" />
        <dc:title></dc:title>
      </cc:Work>
    </rdf:RDF>
  </metadata>
  <sodipodi:namedview
     pagecolor="#42383f"
     bordercolor="#666666"
     borderopacity="1"
     objecttolerance="10"
     gridtolerance="10"
     guidetolerance="10"
     inkscape:pageopacity="0"
     inkscape:pageshadow="2"
     inkscape:window-width="2560"
     inkscape:window-height="1369"
     id="namedview95"
     showgrid="false"
     inkscape:pagecheckerboard="false"
     inkscape:zoom="0.63791133"
     inkscape:cx="567.54761"
     inkscape:cy="569.48711"
     inkscape:window-x="1912"
     inkscape:window-y="-8"
     inkscape:window-maximized="1"
     inkscape:current-layer="svg93"
     inkscape:document-rotation="0" />
  <defs
     id="defs41">
    <symbol
       id="m"
       overflow="visible">
      <path
         d="m33.5-2c-1.7305 0.89844-3.5312 1.5703-5.4062 2.0156-1.8672 0.45703-3.8203 0.6875-5.8594 0.6875-6.0625 0-10.871-1.6914-14.422-5.0781-3.5547-3.3945-5.3281-8-5.3281-13.812 0-5.8203 1.7734-10.43 5.3281-13.828 3.5508-3.3945 8.3594-5.0938 14.422-5.0938 2.0391 0 3.9922 0.23047 5.8594 0.6875 1.875 0.44922 3.6758 1.1211 5.4062 2.0156v7.5469c-1.7422-1.1875-3.4609-2.0547-5.1562-2.6094-1.6875-0.55078-3.4688-0.82812-5.3438-0.82812-3.3555 0-5.9961 1.0742-7.9219 3.2188-1.918 2.1484-2.875 5.1094-2.875 8.8906 0 3.7617 0.95703 6.7148 2.875 8.8594 1.9258 2.1484 4.5664 3.2188 7.9219 3.2188 1.875 0 3.6562-0.27344 5.3438-0.82812 1.6953-0.55078 3.4141-1.4219 5.1562-2.6094z"
         id="path2" />
    </symbol>
    <symbol
       id="d"
       overflow="visible">
      <path
         d="m24.516-19.891c-0.77344-0.36328-1.5391-0.62891-2.2969-0.79688-0.75-0.17578-1.5078-0.26562-2.2656-0.26562-2.25 0-3.9844 0.72656-5.2031 2.1719-1.2109 1.4375-1.8125 3.5-1.8125 6.1875v12.594h-8.7344v-27.344h8.7344v4.4844c1.125-1.7812 2.4141-3.082 3.875-3.9062 1.457-0.82031 3.2031-1.2344 5.2344-1.2344 0.28906 0 0.60938 0.011719 0.95312 0.03125 0.34375 0.023438 0.83594 0.074219 1.4844 0.15625z"
         id="path5" />
    </symbol>
    <symbol
       id="b"
       overflow="visible">
      <path
         d="m31.5-13.75v2.5h-20.438c0.20703 2.0547 0.94531 3.5898 2.2188 4.6094 1.2695 1.0234 3.0469 1.5312 5.3281 1.5312 1.832 0 3.7109-0.26953 5.6406-0.8125 1.9375-0.53906 3.9219-1.3672 5.9531-2.4844v6.75c-2.0742 0.78125-4.1406 1.3711-6.2031 1.7656s-4.1328 0.59375-6.2031 0.59375c-4.9492 0-8.793-1.2539-11.531-3.7656-2.7422-2.5195-4.1094-6.0469-4.1094-10.578 0-4.4688 1.3438-7.9766 4.0312-10.531 2.6953-2.5508 6.4062-3.8281 11.125-3.8281 4.2891 0 7.7266 1.2969 10.312 3.8906 2.582 2.5859 3.875 6.0391 3.875 10.359zm-8.9844-2.9062c0-1.6562-0.48438-2.9883-1.4531-4-0.96875-1.0195-2.2344-1.5312-3.7969-1.5312-1.6992 0-3.0781 0.47656-4.1406 1.4219-1.0547 0.94922-1.7109 2.3203-1.9688 4.1094z"
         id="path8" />
    </symbol>
    <symbol
       id="c"
       overflow="visible">
      <path
         d="m16.453-12.312c-1.8242 0-3.1953 0.3125-4.1094 0.9375-0.91797 0.61719-1.375 1.5273-1.375 2.7344 0 1.1055 0.36719 1.9688 1.1094 2.5938 0.73828 0.625 1.7656 0.9375 3.0781 0.9375 1.6445 0 3.0312-0.58594 4.1562-1.7656 1.125-1.1758 1.6875-2.6484 1.6875-4.4219v-1.0156zm13.359-3.2812v15.594h-8.8125v-4.0469c-1.1797 1.6562-2.5 2.8672-3.9688 3.625-1.4609 0.75-3.2422 1.125-5.3438 1.125-2.8242 0-5.1211-0.82031-6.8906-2.4688-1.7617-1.6562-2.6406-3.8008-2.6406-6.4375 0-3.207 1.0977-5.5547 3.2969-7.0469 2.207-1.5 5.6719-2.25 10.391-2.25h5.1562v-0.6875c0-1.3828-0.54688-2.3945-1.6406-3.0312-1.0938-0.64453-2.793-0.96875-5.0938-0.96875-1.875 0-3.6211 0.1875-5.2344 0.5625-1.6172 0.375-3.1094 0.93359-4.4844 1.6719v-6.6562c1.8633-0.45703 3.7383-0.80078 5.625-1.0312 1.8945-0.23828 3.7852-0.35938 5.6719-0.35938 4.9375 0 8.5 0.97656 10.688 2.9219 2.1875 1.9375 3.2812 5.1016 3.2812 9.4844z"
         id="path11" />
    </symbol>
    <symbol
       id="a"
       overflow="visible">
      <path
         d="m13.75-35.109v7.7656h9v6.25h-9v11.594c0 1.2734 0.25 2.1328 0.75 2.5781 0.50781 0.44922 1.5078 0.67188 3 0.67188h4.5v6.25h-7.5c-3.4492 0-5.8984-0.71875-7.3438-2.1562-1.4375-1.4453-2.1562-3.8945-2.1562-7.3438v-11.594h-4.3438v-6.25h4.3438v-7.7656z"
         id="path14" />
    </symbol>
    <symbol
       id="i"
       overflow="visible">
      <path
         d="m22.797-23.344v-14.641h8.7969v37.984h-8.7969v-3.9531c-1.1992 1.6172-2.5234 2.7969-3.9688 3.5469-1.4492 0.73828-3.125 1.1094-5.0312 1.1094-3.375 0-6.1484-1.3359-8.3125-4.0156-2.1562-2.6758-3.2344-6.1172-3.2344-10.328 0-4.2188 1.0781-7.6641 3.2344-10.344 2.1641-2.6758 4.9375-4.0156 8.3125-4.0156 1.8828 0 3.5547 0.38281 5.0156 1.1406 1.457 0.75 2.7852 1.9219 3.9844 3.5156zm-5.75 17.703c1.8633 0 3.2852-0.67969 4.2656-2.0469 0.98828-1.3633 1.4844-3.3477 1.4844-5.9531 0-2.6016-0.49609-4.5859-1.4844-5.9531-0.98047-1.375-2.4023-2.0625-4.2656-2.0625-1.8555 0-3.2773 0.6875-4.2656 2.0625-0.99219 1.3672-1.4844 3.3516-1.4844 5.9531 0 2.6055 0.49219 4.5898 1.4844 5.9531 0.98828 1.3672 2.4102 2.0469 4.2656 2.0469z"
         id="path17" />
    </symbol>
    <symbol
       id="h"
       overflow="visible">
      <path
         d="m18.75-5.6406c1.875 0 3.3008-0.67969 4.2812-2.0469 0.98828-1.3633 1.4844-3.3477 1.4844-5.9531 0-2.6016-0.49609-4.5859-1.4844-5.9531-0.98047-1.375-2.4062-2.0625-4.2812-2.0625s-3.3125 0.6875-4.3125 2.0625-1.5 3.3594-1.5 5.9531c0 2.5859 0.5 4.5625 1.5 5.9375s2.4375 2.0625 4.3125 2.0625zm-5.8125-17.703c1.207-1.5938 2.5391-2.7656 4-3.5156 1.4688-0.75781 3.1562-1.1406 5.0625-1.1406 3.3633 0 6.1289 1.3398 8.2969 4.0156 2.1641 2.6797 3.25 6.125 3.25 10.344 0 4.2109-1.0859 7.6523-3.25 10.328-2.168 2.6797-4.9336 4.0156-8.2969 4.0156-1.9062 0-3.5938-0.375-5.0625-1.125-1.4609-0.75781-2.793-1.9375-4-3.5312v3.9531h-8.7344v-37.984h8.7344z"
         id="path20" />
    </symbol>
    <symbol
       id="g"
       overflow="visible">
      <path
         d="m0.60938-27.344h8.7344l7.3594 18.547 6.25-18.547h8.7344l-11.5 29.938c-1.1562 3.0391-2.5078 5.1641-4.0469 6.375-1.5312 1.2188-3.5586 1.8281-6.0781 1.8281h-5.0625v-5.75h2.7344c1.4883 0 2.5664-0.23438 3.2344-0.70312 0.67578-0.46875 1.2031-1.3125 1.5781-2.5312l0.25-0.76562z"
         id="path23" />
    </symbol>
    <symbol
       id="f"
       overflow="visible">
      <path
         d="m0.25-36.453h9.4375l9.6719 26.906 9.6406-26.906h9.4531l-13.5 36.453h-11.203z"
         id="path26" />
    </symbol>
    <symbol
       id="l"
       overflow="visible">
      <path
         d="m26.297-26.484v7.125c-1.1875-0.8125-2.3828-1.4102-3.5781-1.7969-1.1992-0.39453-2.4375-0.59375-3.7188-0.59375-2.4492 0-4.3555 0.71484-5.7188 2.1406-1.3555 1.418-2.0312 3.4062-2.0312 5.9688 0 2.5547 0.67578 4.543 2.0312 5.9688 1.3633 1.418 3.2695 2.125 5.7188 2.125 1.3633 0 2.6602-0.20312 3.8906-0.60938 1.2266-0.40625 2.3633-1.0039 3.4062-1.7969v7.1406c-1.3672 0.51172-2.7578 0.89062-4.1719 1.1406-1.4062 0.25-2.8203 0.375-4.2344 0.375-4.9297 0-8.7812-1.2656-11.562-3.7969s-4.1719-6.0469-4.1719-10.547c0-4.5078 1.3906-8.0312 4.1719-10.562s6.6328-3.7969 11.562-3.7969c1.4375 0 2.8477 0.125 4.2344 0.375 1.3945 0.25 2.7852 0.63281 4.1719 1.1406z"
         id="path29" />
    </symbol>
    <symbol
       id="k"
       overflow="visible">
      <path
         d="m17.219-21.75c-1.9375 0-3.418 0.69922-4.4375 2.0938-1.0234 1.3867-1.5312 3.3906-1.5312 6.0156 0 2.6172 0.50781 4.6211 1.5312 6.0156 1.0195 1.3867 2.5 2.0781 4.4375 2.0781 1.8945 0 3.3477-0.69141 4.3594-2.0781 1.0078-1.3945 1.5156-3.3984 1.5156-6.0156 0-2.625-0.50781-4.6289-1.5156-6.0156-1.0117-1.3945-2.4648-2.0938-4.3594-2.0938zm0-6.25c4.6953 0 8.3672 1.2734 11.016 3.8125 2.6445 2.5312 3.9688 6.0469 3.9688 10.547 0 4.4922-1.3242 8.0078-3.9688 10.547-2.6484 2.5312-6.3203 3.7969-11.016 3.7969-4.7305 0-8.4219-1.2656-11.078-3.7969-2.6562-2.5391-3.9844-6.0547-3.9844-10.547 0-4.5 1.3281-8.0156 3.9844-10.547 2.6562-2.5391 6.3477-3.8125 11.078-3.8125z"
         id="path32" />
    </symbol>
    <symbol
       id="j"
       overflow="visible">
      <path
         d="m25.562-26.484v6.6406c-1.875-0.78125-3.6836-1.3633-5.4219-1.75-1.7422-0.39453-3.3867-0.59375-4.9375-0.59375-1.6562 0-2.8906 0.21094-3.7031 0.625-0.80469 0.40625-1.2031 1.043-1.2031 1.9062 0 0.69922 0.30469 1.2344 0.92188 1.6094 0.61328 0.375 1.707 0.65234 3.2812 0.82812l1.5469 0.21875c4.4688 0.57422 7.4727 1.5117 9.0156 2.8125 1.5508 1.3047 2.3281 3.3438 2.3281 6.125 0 2.918-1.0742 5.1094-3.2188 6.5781-2.1484 1.4609-5.3555 2.1875-9.625 2.1875-1.8047 0-3.668-0.14062-5.5938-0.42188-1.9297-0.28125-3.9141-0.70703-5.9531-1.2812v-6.6406c1.7383 0.84375 3.5234 1.4805 5.3594 1.9062 1.832 0.41797 3.6914 0.625 5.5781 0.625 1.707 0 2.9922-0.23438 3.8594-0.70312 0.86328-0.46875 1.2969-1.1641 1.2969-2.0938 0-0.78125-0.29688-1.3633-0.89062-1.75-0.59375-0.38281-1.7773-0.67969-3.5469-0.89062l-1.5469-0.20312c-3.8867-0.47656-6.6094-1.3789-8.1719-2.7031-1.5625-1.3203-2.3438-3.3203-2.3438-6 0-2.8945 0.98828-5.0391 2.9688-6.4375 1.9883-1.4062 5.0352-2.1094 9.1406-2.1094 1.6016 0 3.2891 0.125 5.0625 0.375 1.7812 0.24219 3.7109 0.62109 5.7969 1.1406z"
         id="path35" />
    </symbol>
    <symbol
       id="e"
       overflow="visible">
      <path
         d="m4.2031-37.984h8.7344v37.984h-8.7344z"
         id="path38" />
    </symbol>
  </defs>
  <path
     d="m 695.76248,313.40737 c 0,47.04132 -3.32095,91.04597 -9.38202,123.90252 -5.19852,28.80087 -15.3028,67.01726 -41.57102,67.01726 h -55.2832 c -8.08529,0 -14.43388,-6.51341 -14.43388,-14.47425 V 136.82576 c 0,-7.96084 6.34859,-14.47426 14.43388,-14.47426 h 55.2832 c 44.31056,0 50.95304,119.70066 50.95304,191.0602 z"
     id="path43"
     style="fill:#ffffff;stroke-width:1.4454" />
  <path
     d="m 546.2275,136.82141 c 0,-1.73575 0.14658,-3.4715 0.43413,-5.06599 H 283.67637 v 363.15912 h 262.98526 c -0.28755,-1.73575 -0.43413,-3.33024 -0.43413,-5.06599 z m -35.92737,285.43236 h -195.7234 c -7.93864,0 -14.43387,-6.36635 -14.43387,-14.47425 0,-7.96085 6.49523,-14.47427 14.43387,-14.47427 h 195.7234 c 7.93863,0 14.43388,6.51342 14.43388,14.47427 -0.006,8.1079 -6.50087,14.47425 -14.43966,14.47425 z m 0,-98.96302 h -195.7234 c -7.93864,0 -14.43387,-6.36635 -14.43387,-14.47425 0,-7.96084 6.49523,-14.47427 14.43387,-14.47427 h 195.7234 c 7.93863,0 14.43388,6.51343 14.43388,14.47427 -0.006,8.1079 -6.50087,14.47425 -14.43966,14.47425 z m 0,-89.92603 h -195.7234 c -7.93864,0 -14.43387,-6.51342 -14.43387,-14.47427 0,-7.96082 6.49523,-14.47425 14.43387,-14.47425 h 195.7234 c 7.93863,0 14.43388,6.51343 14.43388,14.47425 -0.006,7.96085 -6.50087,14.47427 -14.43966,14.47427 z"
     id="path45"
     style="fill:#ffffff;stroke-width:1.4454"
     sodipodi:nodetypes="sccccsscssssccccssssccccssssccc" />
  <path
     d="m 610.02524,571.19387 c 0,8.1079 -6.49526,14.47426 -14.43389,14.47426 H 234.7444 c -8.08528,0 -14.43388,-6.36636 -14.43388,-14.47426 0,-7.96083 6.3486,-14.47425 14.43388,-14.47425 h 74.76893 v -76.27789 h 211.16765 v 76.27789 h 74.90893 c 7.93863,0 14.43388,6.51342 14.43388,14.47425 z"
     id="path47"
     style="fill:#ffffff;fill-opacity:0.5;stroke-width:1.4454" />
  <path
     d="m 200.82477,494.91454 c -7.93863,0 -14.43386,-6.36636 -14.43386,-14.47425 v -17.36912 h -53.9856 c -8.08529,0 -14.43388,-6.51341 -14.43388,-14.47425 V 359.86828 H 49.410509 c -25.546521,0 -46.4756446,-20.84583 -46.4756446,-46.60566 0,-12.15606 4.9052095,-23.88252 13.5655366,-32.71472 8.94785,-8.97288 20.641889,-13.75054 32.910686,-13.75054 H 117.972 v -88.72865 c 0,-7.96083 6.3486,-14.47425 14.43388,-14.47425 h 53.9856 v -17.36911 c 0,-7.96085 6.49525,-14.47427 14.43389,-14.47427 h 53.97982 V 494.9102 Z"
     id="path49"
     style="fill:#ffffff;stroke-width:1.4454" />
</svg>
