<?xml version="1.0" encoding="UTF-8" standalone="no"?>
<svg
   xmlns:dc="http://purl.org/dc/elements/1.1/"
   xmlns:cc="http://creativecommons.org/ns#"
   xmlns:rdf="http://www.w3.org/1999/02/22-rdf-syntax-ns#"
   xmlns:svg="http://www.w3.org/2000/svg"
   xmlns="http://www.w3.org/2000/svg"
   xmlns:sodipodi="http://sodipodi.sourceforge.net/DTD/sodipodi-0.dtd"
   xmlns:inkscape="http://www.inkscape.org/namespaces/inkscape"
   width="700pt"
   height="700pt"
   version="1.1"
   viewBox="0 0 700 700"
   id="svg167"
   sodipodi:docname="motorbike.svg"
   inkscape:version="1.0.2-2 (e86c870879, 2021-01-15)">
  <metadata
     id="metadata171">
    <rdf:RDF>
      <cc:Work
         rdf:about="">
        <dc:format>image/svg+xml</dc:format>
        <dc:type
           rdf:resource="http://purl.org/dc/dcmitype/StillImage" />
        <dc:title></dc:title>
      </cc:Work>
    </rdf:RDF>
  </metadata>
  <sodipodi:namedview
     pagecolor="#3b2727"
     bordercolor="#666666"
     borderopacity="1"
     objecttolerance="10"
     gridtolerance="10"
     guidetolerance="10"
     inkscape:pageopacity="0"
     inkscape:pageshadow="2"
     inkscape:window-width="1920"
     inkscape:window-height="1009"
     id="namedview169"
     showgrid="false"
     inkscape:zoom="0.63791133"
     inkscape:cx="419.85794"
     inkscape:cy="610.60929"
     inkscape:window-x="-8"
     inkscape:window-y="-8"
     inkscape:window-maximized="1"
     inkscape:current-layer="svg167" />
  <defs
     id="defs71">
    <symbol
       id="w"
       overflow="visible">
      <path
         d="m26.797-1.6094c-1.375 0.71875-2.8125 1.2617-4.3125 1.625s-3.0625 0.54688-4.6875 0.54688c-4.8555 0-8.7031-1.3516-11.547-4.0625-2.8359-2.7188-4.25-6.3984-4.25-11.047 0-4.6641 1.4141-8.3516 4.25-11.062 2.8438-2.7188 6.6914-4.0781 11.547-4.0781 1.625 0 3.1875 0.18359 4.6875 0.54688 1.5 0.36719 2.9375 0.90625 4.3125 1.625v6.0312c-1.3984-0.94531-2.7734-1.6406-4.125-2.0781-1.3555-0.44531-2.7773-0.67188-4.2656-0.67188-2.6875 0-4.8047 0.85938-6.3438 2.5781-1.5312 1.7188-2.2969 4.0898-2.2969 7.1094 0 3 0.76562 5.3594 2.2969 7.0781 1.5391 1.7188 3.6562 2.5781 6.3438 2.5781 1.4883 0 2.9102-0.21875 4.2656-0.65625 1.3516-0.44531 2.7266-1.1445 4.125-2.0938z"
         id="path2" />
    </symbol>
    <symbol
       id="b"
       overflow="visible">
      <path
         d="m19.609-15.922c-0.61719-0.28125-1.2266-0.48828-1.8281-0.625-0.60547-0.14453-1.2148-0.21875-1.8281-0.21875-1.793 0-3.1719 0.57812-4.1406 1.7344s-1.4531 2.8086-1.4531 4.9531v10.078h-7v-21.875h7v3.5938c0.89453-1.4375 1.9258-2.4844 3.0938-3.1406 1.1641-0.65625 2.5625-0.98438 4.1875-0.98438 0.22656 0 0.47656 0.011719 0.75 0.03125 0.28125 0.023438 0.67969 0.0625 1.2031 0.125z"
         id="path5" />
    </symbol>
    <symbol
       id="a"
       overflow="visible">
      <path
         d="m25.203-11v2h-16.359c0.17578 1.6367 0.76953 2.8672 1.7812 3.6875 1.0195 0.82422 2.4414 1.2344 4.2656 1.2344 1.4688 0 2.9727-0.21875 4.5156-0.65625 1.5391-0.4375 3.125-1.0977 4.75-1.9844v5.3906c-1.6484 0.625-3.2969 1.0938-4.9531 1.4062-1.6562 0.32031-3.3125 0.48438-4.9688 0.48438-3.9609 0-7.0391-1.0039-9.2344-3.0156-2.1875-2.0078-3.2812-4.832-3.2812-8.4688 0-3.5625 1.0781-6.3633 3.2344-8.4062 2.1562-2.0508 5.1172-3.0781 8.8906-3.0781 3.4375 0 6.1875 1.0391 8.25 3.1094 2.0703 2.0742 3.1094 4.8398 3.1094 8.2969zm-7.1875-2.3281c0-1.3203-0.39062-2.3906-1.1719-3.2031-0.77344-0.8125-1.7812-1.2188-3.0312-1.2188-1.3555 0-2.4609 0.38281-3.3125 1.1406-0.84375 0.76172-1.3711 1.8555-1.5781 3.2812z"
         id="path8" />
    </symbol>
    <symbol
       id="k"
       overflow="visible">
      <path
         d="m13.172-9.8438c-1.4609 0-2.5586 0.25-3.2969 0.75-0.74219 0.49219-1.1094 1.2148-1.1094 2.1719 0 0.88672 0.29688 1.5859 0.89062 2.0938 0.59375 0.5 1.4141 0.75 2.4688 0.75 1.3203 0 2.4297-0.47266 3.3281-1.4219 0.89453-0.94531 1.3438-2.1289 1.3438-3.5469v-0.79688zm10.672-2.6406v12.484h-7.0469v-3.25c-0.9375 1.3359-1.9961 2.3047-3.1719 2.9062-1.168 0.60156-2.5898 0.90625-4.2656 0.90625-2.2734 0-4.1172-0.66016-5.5312-1.9844-1.4062-1.3203-2.1094-3.0352-2.1094-5.1406 0-2.5625 0.87891-4.4414 2.6406-5.6406 1.7695-1.1953 4.5391-1.7969 8.3125-1.7969h4.125v-0.54688c0-1.1133-0.4375-1.9258-1.3125-2.4375-0.86719-0.50781-2.2266-0.76562-4.0781-0.76562-1.5 0-2.8984 0.15234-4.1875 0.45312-1.2812 0.29297-2.4766 0.74219-3.5781 1.3438v-5.3438c1.4883-0.36328 2.9883-0.64062 4.5-0.82812 1.5078-0.1875 3.0195-0.28125 4.5312-0.28125 3.9453 0 6.7969 0.78125 8.5469 2.3438 1.75 1.5547 2.625 4.0781 2.625 7.5781z"
         id="path11" />
    </symbol>
    <symbol
       id="c"
       overflow="visible">
      <path
         d="m11-28.094v6.2188h7.2031v5h-7.2031v9.2812c0 1.0117 0.19531 1.6992 0.59375 2.0625 0.40625 0.35547 1.207 0.53125 2.4062 0.53125h3.5938v5h-5.9844c-2.7617 0-4.7188-0.57031-5.875-1.7188-1.1562-1.1562-1.7344-3.1133-1.7344-5.875v-9.2812h-3.4688v-5h3.4688v-6.2188z"
         id="path14" />
    </symbol>
    <symbol
       id="j"
       overflow="visible">
      <path
         d="m18.25-18.672v-11.719h7.0312v30.391h-7.0312v-3.1719c-0.96875 1.293-2.0312 2.2422-3.1875 2.8438-1.1562 0.59375-2.5 0.89062-4.0312 0.89062-2.6875 0-4.9023-1.0664-6.6406-3.2031-1.7305-2.1445-2.5938-4.9062-2.5938-8.2812s0.86328-6.1289 2.5938-8.2656c1.7383-2.1445 3.9531-3.2188 6.6406-3.2188 1.5078 0 2.8477 0.30469 4.0156 0.90625 1.1641 0.60547 2.2344 1.5469 3.2031 2.8281zm-4.6094 14.156c1.4883 0 2.6289-0.54688 3.4219-1.6406 0.78906-1.0938 1.1875-2.6797 1.1875-4.7656 0-2.082-0.39844-3.6719-1.1875-4.7656-0.79297-1.0938-1.9336-1.6406-3.4219-1.6406-1.4922 0-2.6328 0.54688-3.4219 1.6406-0.78125 1.0938-1.1719 2.6836-1.1719 4.7656 0 2.0859 0.39062 3.6719 1.1719 4.7656 0.78906 1.0938 1.9297 1.6406 3.4219 1.6406z"
         id="path17" />
    </symbol>
    <symbol
       id="i"
       overflow="visible">
      <path
         d="m15-4.5156c1.5 0 2.6406-0.54688 3.4219-1.6406 0.78906-1.0938 1.1875-2.6797 1.1875-4.7656 0-2.082-0.39844-3.6719-1.1875-4.7656-0.78125-1.0938-1.9219-1.6406-3.4219-1.6406s-2.6523 0.55469-3.4531 1.6562c-0.79297 1.0938-1.1875 2.6797-1.1875 4.75 0 2.0742 0.39453 3.6641 1.1875 4.7656 0.80078 1.0938 1.9531 1.6406 3.4531 1.6406zm-4.6406-14.156c0.95703-1.2812 2.0195-2.2227 3.1875-2.8281 1.1758-0.60156 2.5234-0.90625 4.0469-0.90625 2.6953 0 4.9102 1.0742 6.6406 3.2188 1.7383 2.1367 2.6094 4.8906 2.6094 8.2656s-0.87109 6.1367-2.6094 8.2812c-1.7305 2.1367-3.9453 3.2031-6.6406 3.2031-1.5234 0-2.8711-0.30469-4.0469-0.90625-1.168-0.60156-2.2305-1.5469-3.1875-2.8281v3.1719h-7v-30.391h7z"
         id="path20" />
    </symbol>
    <symbol
       id="h"
       overflow="visible">
      <path
         d="m0.48438-21.875h7l5.875 14.844 5-14.844h7l-9.2031 23.953c-0.92969 2.4258-2.0078 4.125-3.2344 5.0938-1.2305 0.97656-2.8555 1.4688-4.875 1.4688h-4.0469v-4.5938h2.1875c1.1875 0 2.0508-0.19531 2.5938-0.57812 0.53906-0.375 0.96094-1.0469 1.2656-2.0156l0.1875-0.60938z"
         id="path23" />
    </symbol>
    <symbol
       id="g"
       overflow="visible">
      <path
         d="m11.188-23.484v17.797h2.7031c3.0703 0 5.4141-0.75781 7.0312-2.2812 1.625-1.5195 2.4375-3.7344 2.4375-6.6406 0-2.8945-0.80859-5.0977-2.4219-6.6094-1.6172-1.5078-3.9648-2.2656-7.0469-2.2656zm-7.5156-5.6719h7.9375c4.4258 0 7.7227 0.32031 9.8906 0.95312 2.1641 0.625 4.0234 1.6953 5.5781 3.2031 1.3633 1.3125 2.375 2.8281 3.0312 4.5469 0.66406 1.7188 1 3.668 1 5.8438 0 2.1992-0.33594 4.1641-1 5.8906-0.65625 1.7188-1.668 3.2422-3.0312 4.5625-1.5625 1.5117-3.4375 2.5859-5.625 3.2188-2.1875 0.625-5.4688 0.9375-9.8438 0.9375h-7.9375z"
         id="path26" />
    </symbol>
    <symbol
       id="v"
       overflow="visible">
      <path
         d="m20.453-21.188v5.3125c-1.5-0.625-2.9492-1.0938-4.3438-1.4062-1.3867-0.3125-2.6992-0.46875-3.9375-0.46875-1.3359 0-2.3242 0.16797-2.9688 0.5-0.63672 0.32422-0.95312 0.83594-0.95312 1.5312 0 0.55469 0.23828 0.98047 0.71875 1.2812 0.48828 0.30469 1.3672 0.52734 2.6406 0.67188l1.2188 0.17188c3.582 0.46094 5.9922 1.2109 7.2344 2.25 1.2383 1.043 1.8594 2.6719 1.8594 4.8906 0 2.3359-0.85938 4.0898-2.5781 5.2656-1.7188 1.168-4.2891 1.75-7.7031 1.75-1.4492 0-2.9453-0.11719-4.4844-0.34375-1.543-0.22656-3.125-0.56641-4.75-1.0156v-5.3125c1.3945 0.67969 2.8203 1.1875 4.2812 1.5312 1.4688 0.33594 2.957 0.5 4.4688 0.5 1.3633 0 2.3906-0.1875 3.0781-0.5625 0.69531-0.38281 1.0469-0.94531 1.0469-1.6875 0-0.625-0.24219-1.0859-0.71875-1.3906-0.48047-0.3125-1.4297-0.55078-2.8438-0.71875l-1.2344-0.15625c-3.1055-0.39453-5.2812-1.1172-6.5312-2.1719-1.25-1.0508-1.875-2.6484-1.875-4.7969 0-2.3203 0.78906-4.0391 2.375-5.1562 1.5938-1.125 4.0312-1.6875 7.3125-1.6875 1.2812 0 2.6289 0.10156 4.0469 0.29688 1.4258 0.19922 2.9727 0.50781 4.6406 0.92188z"
         id="path29" />
    </symbol>
    <symbol
       id="u"
       overflow="visible">
      <path
         d="m3.3594-21.875h7v21.875h-7zm0-8.5156h7v5.7031h-7z"
         id="path32" />
    </symbol>
    <symbol
       id="t"
       overflow="visible">
      <path
         d="m18.25-3.7188c-0.96875 1.2812-2.0312 2.2266-3.1875 2.8281-1.1562 0.59375-2.5 0.89062-4.0312 0.89062-2.668 0-4.875-1.0508-6.625-3.1562-1.7422-2.1016-2.6094-4.7812-2.6094-8.0312 0-3.2695 0.86719-5.9453 2.6094-8.0312 1.75-2.0938 3.957-3.1406 6.625-3.1406 1.5312 0 2.875 0.30469 4.0312 0.90625 1.1562 0.59375 2.2188 1.5312 3.1875 2.8125v-3.2344h7.0312v19.672c0 3.5078-1.1172 6.1914-3.3438 8.0469-2.2188 1.8633-5.4375 2.7969-9.6562 2.7969-1.3672 0-2.6875-0.10547-3.9688-0.3125-1.2734-0.21094-2.5547-0.53125-3.8438-0.96875v-5.4375c1.2266 0.69531 2.4258 1.2188 3.5938 1.5625 1.1758 0.34375 2.3594 0.51562 3.5469 0.51562 2.2891 0 3.9688-0.5 5.0312-1.5 1.0703-1 1.6094-2.5664 1.6094-4.7031zm-4.6094-13.609c-1.4492 0-2.5781 0.53906-3.3906 1.6094-0.80469 1.0625-1.2031 2.5742-1.2031 4.5312 0 2 0.39062 3.5234 1.1719 4.5625 0.78125 1.0312 1.9219 1.5469 3.4219 1.5469 1.457 0 2.5859-0.53125 3.3906-1.5938 0.8125-1.0703 1.2188-2.5781 1.2188-4.5156 0-1.957-0.40625-3.4688-1.2188-4.5312-0.80469-1.0703-1.9336-1.6094-3.3906-1.6094z"
         id="path35" />
    </symbol>
    <symbol
       id="f"
       overflow="visible">
      <path
         d="m25.359-13.328v13.328h-7.0312v-10.203c0-1.8828-0.046875-3.1797-0.14062-3.8906-0.085938-0.71875-0.23047-1.25-0.4375-1.5938-0.27344-0.45703-0.64062-0.8125-1.1094-1.0625s-1-0.375-1.5938-0.375c-1.4609 0-2.6055 0.5625-3.4375 1.6875-0.83594 1.125-1.25 2.6836-1.25 4.6719v10.766h-7v-21.875h7v3.2031c1.0508-1.2812 2.1641-2.2227 3.3438-2.8281 1.1875-0.60156 2.5-0.90625 3.9375-0.90625 2.5195 0 4.4375 0.77734 5.75 2.3281 1.3125 1.5547 1.9688 3.8047 1.9688 6.75z"
         id="path38" />
    </symbol>
    <symbol
       id="s"
       overflow="visible">
      <path
         d="m15.359-17.875c1.1758 0 2.0703-0.25781 2.6875-0.78125 0.61328-0.51953 0.92188-1.2852 0.92188-2.2969 0-1.0078-0.30859-1.7734-0.92188-2.2969-0.61719-0.53125-1.5117-0.79688-2.6875-0.79688h-4.1719v6.1719zm0.25 12.75c1.5078 0 2.6445-0.31641 3.4062-0.95312 0.75781-0.63281 1.1406-1.5977 1.1406-2.8906 0-1.2578-0.38281-2.2031-1.1406-2.8281-0.75-0.63281-1.8867-0.95312-3.4062-0.95312h-4.4219v7.625zm6.9844-10.484c1.6133 0.46875 2.8633 1.3398 3.75 2.6094 0.88281 1.2617 1.3281 2.8086 1.3281 4.6406 0 2.8125-0.95312 4.9141-2.8594 6.2969-1.8984 1.375-4.7812 2.0625-8.6562 2.0625h-12.484v-29.156h11.297c4.0391 0 6.9688 0.61719 8.7812 1.8438 1.8203 1.2188 2.7344 3.1719 2.7344 5.8594 0 1.4297-0.33594 2.6406-1 3.6406-0.65625 0.99219-1.6211 1.7266-2.8906 2.2031z"
         id="path41" />
    </symbol>
    <symbol
       id="d"
       overflow="visible">
      <path
         d="m13.766-17.406c-1.543 0-2.7266 0.55859-3.5469 1.6719-0.8125 1.1172-1.2188 2.7188-1.2188 4.8125s0.40625 3.6992 1.2188 4.8125c0.82031 1.1172 2.0039 1.6719 3.5469 1.6719 1.5312 0 2.6953-0.55469 3.5-1.6719 0.8125-1.1133 1.2188-2.7188 1.2188-4.8125s-0.40625-3.6953-1.2188-4.8125c-0.80469-1.1133-1.9688-1.6719-3.5-1.6719zm0-5c3.7695 0 6.7109 1.0156 8.8281 3.0469 2.1133 2.0312 3.1719 4.8438 3.1719 8.4375s-1.0586 6.4062-3.1719 8.4375c-2.1172 2.0312-5.0586 3.0469-8.8281 3.0469-3.7734 0-6.7266-1.0156-8.8594-3.0469-2.125-2.0312-3.1875-4.8438-3.1875-8.4375s1.0625-6.4062 3.1875-8.4375c2.1328-2.0312 5.0859-3.0469 8.8594-3.0469z"
         id="path44" />
    </symbol>
    <symbol
       id="e"
       overflow="visible">
      <path
         d="m25.359-13.328v13.328h-7.0312v-10.156c0-1.9141-0.046875-3.2266-0.14062-3.9375-0.085938-0.71875-0.23047-1.25-0.4375-1.5938-0.27344-0.45703-0.64062-0.8125-1.1094-1.0625s-1-0.375-1.5938-0.375c-1.4609 0-2.6055 0.5625-3.4375 1.6875-0.83594 1.125-1.25 2.6836-1.25 4.6719v10.766h-7v-30.391h7v11.719c1.0508-1.2812 2.1641-2.2227 3.3438-2.8281 1.1875-0.60156 2.5-0.90625 3.9375-0.90625 2.5195 0 4.4375 0.77734 5.75 2.3281 1.3125 1.5547 1.9688 3.8047 1.9688 6.75z"
         id="path47" />
    </symbol>
    <symbol
       id="r"
       overflow="visible">
      <path
         d="m17.75-30.391v4.5938h-3.8594c-0.99219 0-1.6836 0.17969-2.0781 0.53125-0.38672 0.35547-0.57812 0.97656-0.57812 1.8594v1.5312h5.9688v5h-5.9688v16.875h-7v-16.875h-3.4688v-5h3.4688v-1.5312c0-2.375 0.66016-4.1289 1.9844-5.2656 1.332-1.1445 3.3945-1.7188 6.1875-1.7188z"
         id="path50" />
    </symbol>
    <symbol
       id="q"
       overflow="visible">
      <path
         d="m23.641-18.25c0.88281-1.3516 1.9297-2.3828 3.1406-3.0938 1.2188-0.70703 2.5547-1.0625 4.0156-1.0625 2.5195 0 4.4375 0.77734 5.75 2.3281 1.3125 1.5547 1.9688 3.8047 1.9688 6.75v13.328h-7.0312v-11.406c0.007813-0.16406 0.019531-0.33594 0.03125-0.51562 0.007813-0.1875 0.015625-0.45312 0.015625-0.79688 0-1.5508-0.23047-2.6719-0.6875-3.3594-0.46094-0.69531-1.1953-1.0469-2.2031-1.0469-1.3359 0-2.3672 0.54688-3.0938 1.6406-0.71875 1.0938-1.0898 2.6719-1.1094 4.7344v10.75h-7.0312v-11.406c0-2.4258-0.21094-3.9844-0.625-4.6719-0.41797-0.69531-1.1641-1.0469-2.2344-1.0469-1.3359 0-2.3672 0.55469-3.0938 1.6562-0.73047 1.0938-1.0938 2.6641-1.0938 4.7031v10.766h-7.0312v-21.875h7.0312v3.2031c0.85156-1.2383 1.8359-2.1719 2.9531-2.7969 1.1133-0.625 2.3438-0.9375 3.6875-0.9375 1.5078 0 2.8438 0.36719 4 1.0938 1.1562 0.73047 2.0352 1.75 2.6406 3.0625z"
         id="path53" />
    </symbol>
    <symbol
       id="p"
       overflow="visible">
      <path
         d="m3.6719-29.156h8.4062l10.594 20v-20h7.1406v29.156h-8.4062l-10.609-20v20h-7.125z"
         id="path56" />
    </symbol>
    <symbol
       id="o"
       overflow="visible">
      <path
         d="m3.125-8.5156v-13.359h7.0312v2.1875c0 1.1875-0.007812 2.6797-0.015625 4.4688-0.011719 1.7812-0.015625 2.9766-0.015625 3.5781 0 1.7617 0.039062 3.0273 0.125 3.7969 0.09375 0.77344 0.25 1.3359 0.46875 1.6875 0.28906 0.46094 0.66406 0.8125 1.125 1.0625 0.46875 0.24219 1 0.35938 1.5938 0.35938 1.457 0 2.6016-0.55469 3.4375-1.6719 0.83203-1.125 1.25-2.6797 1.25-4.6719v-10.797h7v21.875h-7v-3.1719c-1.0547 1.2812-2.168 2.2266-3.3438 2.8281-1.1797 0.60156-2.4805 0.90625-3.9062 0.90625-2.5234 0-4.4453-0.76953-5.7656-2.3125-1.3242-1.5508-1.9844-3.8047-1.9844-6.7656z"
         id="path59" />
    </symbol>
    <symbol
       id="n"
       overflow="visible">
      <path
         d="m3.6719-29.156h12.484c3.707 0 6.5508 0.82422 8.5312 2.4688 1.9883 1.6484 2.9844 3.9922 2.9844 7.0312 0 3.0625-0.99609 5.418-2.9844 7.0625-1.9805 1.6484-4.8242 2.4688-8.5312 2.4688h-4.9688v10.125h-7.5156zm7.5156 5.4375v8.1562h4.1719c1.457 0 2.582-0.35156 3.375-1.0625 0.78906-0.71875 1.1875-1.7266 1.1875-3.0312 0-1.3008-0.39844-2.3008-1.1875-3-0.79297-0.70703-1.918-1.0625-3.375-1.0625z"
         id="path62" />
    </symbol>
    <symbol
       id="m"
       overflow="visible">
      <path
         d="m3.3594-21.875h7v21.484c0 2.9258-0.70312 5.1602-2.1094 6.7031-1.4062 1.5508-3.4492 2.3281-6.125 2.3281h-3.4531v-4.5938h1.2031c1.332 0 2.2422-0.30469 2.7344-0.90625 0.5-0.59375 0.75-1.7734 0.75-3.5312zm0-8.5156h7v5.7031h-7z"
         id="path65" />
    </symbol>
    <symbol
       id="l"
       overflow="visible">
      <path
         d="m21.031-21.188v5.7031c-0.94922-0.65625-1.9023-1.1406-2.8594-1.4531-0.96094-0.3125-1.9492-0.46875-2.9688-0.46875-1.9609 0-3.4844 0.57422-4.5781 1.7188-1.0859 1.1367-1.625 2.7266-1.625 4.7656 0 2.043 0.53906 3.6367 1.625 4.7812 1.0938 1.1367 2.6172 1.7031 4.5781 1.7031 1.0938 0 2.1289-0.16016 3.1094-0.48438 0.97656-0.32031 1.8828-0.80469 2.7188-1.4531v5.7344c-1.0938 0.39844-2.2031 0.69141-3.3281 0.89062-1.125 0.20703-2.2578 0.3125-3.3906 0.3125-3.9375 0-7.0234-1.0078-9.25-3.0312-2.2305-2.0312-3.3438-4.8477-3.3438-8.4531 0-3.6016 1.1133-6.4141 3.3438-8.4375 2.2266-2.0312 5.3125-3.0469 9.25-3.0469 1.1445 0 2.2734 0.10547 3.3906 0.3125 1.1133 0.19922 2.2227 0.5 3.3281 0.90625z"
         id="path68" />
    </symbol>
  </defs>
  <path
     d="m 578.51352,286.66763 c -65.45939,-10e-4 -114.9627,50.38581 -114.83984,115.87261 0,63.68521 52.19993,115.88514 115.88514,115.88514 63.68521,0 115.88514,-52.19993 115.88514,-115.88514 0,-63.67477 -53.24523,-115.8747 -116.93044,-115.8747 z"
     id="path73"
     sodipodi:nodetypes="ccsscc"
     style="fill:#ffffff;fill-opacity:0.5;stroke-width:1.305" />
  <path
     d="m 95.142218,429.69542 c -9.394943,-9.39494 -14.614674,-21.92527 -14.614674,-35.49464 0,-22.97058 15.659977,-42.80524 36.539946,-48.02523 l 87.69457,-24.00936 C 183.88209,301.28622 154.65274,287.71685 122.28748,287.71685 57.556967,286.66673 5.357043,338.86625 5.357043,403.59677 c 0,64.73051 52.199924,115.88513 115.885137,115.88513 50.10932,0 92.91456,-32.36525 109.61984,-77.25458 l -101.27046,2.085 c -12.52498,0 -25.05466,-5.22 -34.449342,-14.61468 z"
     id="path75"
     style="fill:#ffffff;fill-opacity:0.5;stroke-width:1.305" />
  <path
     d="m 229.81802,349.30754 c -1.04501,-4.17495 -3.12991,-7.31008 -6.26503,-11.48503 l -101.27047,28.19057 c -12.53007,3.12991 -21.92527,15.65998 -21.92527,28.19057 0,8.3499 3.12991,15.65998 8.3499,20.87997 5.21999,5.21999 12.53007,8.3499 20.87997,8.3499 h 1.04502 l 135.7198,-3.12991 -35.49464,-66.81459 c 0.005,-1.04502 -1.03993,-2.09009 -1.03993,-4.18004 z"
     id="path77"
     style="fill:#ffffff;stroke-width:1.305" />
  <path
     d="m 555.54555,230.29171 109.61984,13.56937 c 5.21999,1.04502 9.39494,-2.09008 11.48503,-7.31007 1.04501,-5.22 -1.04502,-10.43999 -5.21999,-12.53007 L 558.67598,170.78093 c -2.09009,-1.04502 -4.17495,-1.04502 -6.26504,-1.04502 l -49.07053,10.43999 27.14526,56.37461 z"
     id="path79"
     style="fill:#ffffff;stroke-width:1.305" />
  <path
     d="m 512.74161,251.17168 -65.76929,-135.7198 c -4.17495,-9.39494 -12.53007,-15.659977 -21.92528,-17.750584 -9.39494,-2.090085 -19.83466,0 -27.14526,6.265034 -6.26504,5.21999 -9.39494,12.53007 -8.3499,20.87997 1.04502,6.26504 4.17495,11.48503 8.3499,15.65998 l 8.3499,27.14526 c -20.87997,9.39495 -82.47458,34.44934 -173.30375,21.92528 h -2.09009 -2.09008 c -124.23451,-24.00936 -203.579705,6.26503 -206.7117,7.31007 -5.219993,2.09009 -7.310078,7.31008 -6.265035,12.53007 1.045016,5.22 6.265035,8.3499 11.485027,8.3499 31.319955,-3.1299 65.769295,5.22 89.785178,12.53007 -4.17495,2.09009 -6.26504,6.26504 -5.22,11.48503 l 4.17495,19.83467 c 1.04502,4.17495 5.22,7.31008 9.39495,8.3499 59.51052,5.21999 109.61984,35.49464 124.23451,74.12519 v 1.04502 l 36.53995,69.95051 c 2.09008,3.12991 5.21999,5.21999 9.39494,5.21999 h 60.5493 2.09009 c 49.07054,-9.39494 57.41991,-58.46522 55.32931,-87.69457 l 2.09008,-2.09008 c 21.92528,-27.14527 50.10932,-48.02524 82.47458,-60.5493 l 17.75058,36.53994 c 6.26504,-4.17495 12.53007,-7.31007 18.78937,-9.39494 z"
     id="path81"
     style="fill:#ffffff;stroke-width:1.305" />
</svg>
