<?xml version="1.0" encoding="UTF-8" standalone="no"?>
<svg
   xmlns:dc="http://purl.org/dc/elements/1.1/"
   xmlns:cc="http://creativecommons.org/ns#"
   xmlns:rdf="http://www.w3.org/1999/02/22-rdf-syntax-ns#"
   xmlns:svg="http://www.w3.org/2000/svg"
   xmlns="http://www.w3.org/2000/svg"
   xmlns:sodipodi="http://sodipodi.sourceforge.net/DTD/sodipodi-0.dtd"
   xmlns:inkscape="http://www.inkscape.org/namespaces/inkscape"
   width="700pt"
   height="700pt"
   version="1.1"
   viewBox="0 0 700 700"
   id="svg46"
   sodipodi:docname="CAN.svg"
   inkscape:version="1.0.2-2 (e86c870879, 2021-01-15)">
  <metadata
     id="metadata50">
    <rdf:RDF>
      <cc:Work
         rdf:about="">
        <dc:format>image/svg+xml</dc:format>
        <dc:type
           rdf:resource="http://purl.org/dc/dcmitype/StillImage" />
        <dc:title />
      </cc:Work>
    </rdf:RDF>
  </metadata>
  <sodipodi:namedview
     pagecolor="#1718ff"
     bordercolor="#666666"
     borderopacity="1"
     objecttolerance="10"
     gridtolerance="10"
     guidetolerance="10"
     inkscape:pageopacity="0"
     inkscape:pageshadow="2"
     inkscape:window-width="2560"
     inkscape:window-height="1369"
     id="namedview48"
     showgrid="false"
     inkscape:zoom="0.45107143"
     inkscape:cx="272.96696"
     inkscape:cy="703.92948"
     inkscape:window-x="1912"
     inkscape:window-y="-8"
     inkscape:window-maximized="1"
     inkscape:current-layer="svg46"
     inkscape:document-rotation="0" />
  <defs
     id="defs20">
    <symbol
       id="f"
       overflow="visible">
      <path
         d="m39.078-2.3281c-2.0117 1.043-4.1094 1.8281-6.2969 2.3594s-4.4648 0.79688-6.8281 0.79688c-7.0859 0-12.699-1.9766-16.844-5.9375-4.1367-3.957-6.2031-9.3281-6.2031-16.109 0-6.7891 2.0664-12.164 6.2031-16.125 4.1445-3.9688 9.7578-5.9531 16.844-5.9531 2.3633 0 4.6406 0.26562 6.8281 0.79688s4.2852 1.3242 6.2969 2.375v8.7969c-2.0312-1.3828-4.0391-2.3984-6.0156-3.0469-1.9688-0.64453-4.0469-0.96875-6.2344-0.96875-3.9062 0-6.9844 1.2578-9.2344 3.7656-2.2422 2.5-3.3594 5.9531-3.3594 10.359 0 4.3867 1.1172 7.8359 3.3594 10.344 2.25 2.5 5.3281 3.75 9.2344 3.75 2.1875 0 4.2656-0.32031 6.2344-0.96875 1.9766-0.64453 3.9844-1.6602 6.0156-3.0469z"
         id="path2" />
    </symbol>
    <symbol
       id="a"
       overflow="visible">
      <path
         d="m16.031-40.953v9.0625h10.516v7.2812h-10.516v13.531c0 1.4805 0.28906 2.4805 0.875 3 0.59375 0.52344 1.7656 0.78125 3.5156 0.78125h5.2344v7.2969h-8.7344c-4.0312 0-6.8867-0.83594-8.5625-2.5156-1.6797-1.6875-2.5156-4.5391-2.5156-8.5625v-13.531h-5.0781v-7.2812h5.0781v-9.0625z"
         id="path5" />
    </symbol>
    <symbol
       id="e"
       overflow="visible">
      <path
         d="m26.594-27.234v-17.078h10.266v44.312h-10.266v-4.6094c-1.3984 1.875-2.9453 3.25-4.6406 4.125-1.6875 0.875-3.6406 1.3125-5.8594 1.3125-3.9297 0-7.1562-1.5625-9.6875-4.6875-2.5234-3.125-3.7812-7.1445-3.7812-12.062 0-4.9141 1.2578-8.9375 3.7812-12.062 2.5312-3.125 5.7578-4.6875 9.6875-4.6875 2.1953 0 4.1445 0.44531 5.8438 1.3281 1.707 0.88672 3.2578 2.2578 4.6562 4.1094zm-6.7188 20.656c2.1875 0 3.8516-0.79688 5-2.3906 1.1445-1.5938 1.7188-3.9102 1.7188-6.9531 0-3.0391-0.57422-5.3594-1.7188-6.9531-1.1484-1.5938-2.8125-2.3906-5-2.3906-2.168 0-3.8242 0.79688-4.9688 2.3906-1.1484 1.5938-1.7188 3.9141-1.7188 6.9531 0 3.043 0.57031 5.3594 1.7188 6.9531 1.1445 1.5938 2.8008 2.3906 4.9688 2.3906z"
         id="path8" />
    </symbol>
    <symbol
       id="d"
       overflow="visible">
      <path
         d="m21.875-6.5781c2.1758 0 3.8359-0.79688 4.9844-2.3906 1.1562-1.5938 1.7344-3.9102 1.7344-6.9531 0-3.0391-0.57812-5.3594-1.7344-6.9531-1.1484-1.5938-2.8086-2.3906-4.9844-2.3906-2.1875 0-3.8672 0.80469-5.0312 2.4062-1.168 1.6055-1.75 3.918-1.75 6.9375 0 3.0234 0.58203 5.3359 1.75 6.9375 1.1641 1.6055 2.8438 2.4062 5.0312 2.4062zm-6.7812-20.656c1.4062-1.8516 2.9609-3.2227 4.6719-4.1094 1.707-0.88281 3.6719-1.3281 5.8906-1.3281 3.9375 0 7.1641 1.5625 9.6875 4.6875 2.5195 3.125 3.7812 7.1484 3.7812 12.062 0 4.918-1.2617 8.9375-3.7812 12.062-2.5234 3.125-5.75 4.6875-9.6875 4.6875-2.2188 0-4.1836-0.44531-5.8906-1.3281-1.7109-0.88281-3.2656-2.2539-4.6719-4.1094v4.6094h-10.188v-44.312h10.188z"
         id="path11" />
    </symbol>
    <symbol
       id="c"
       overflow="visible">
      <path
         d="m4.9062-31.891h10.188v31.328c0 4.2695-1.0273 7.5312-3.0781 9.7812-2.0547 2.25-5.0234 3.375-8.9062 3.375h-5.0469v-6.7031h1.7656c1.9375 0 3.2656-0.4375 3.9844-1.3125 0.72656-0.86719 1.0938-2.5781 1.0938-5.1406zm0-12.422h10.188v8.3125h-10.188z"
         id="path14" />
    </symbol>
    <symbol
       id="b"
       overflow="visible">
      <path
         d="m36.969-19.422v19.422h-10.25v-14.812c0-2.7891-0.0625-4.707-0.1875-5.75-0.125-1.0391-0.33984-1.8125-0.64062-2.3125-0.39844-0.65625-0.9375-1.1719-1.625-1.5469s-1.4648-0.5625-2.3281-0.5625c-2.1367 0-3.8125 0.82422-5.0312 2.4688-1.2109 1.6484-1.8125 3.9219-1.8125 6.8281v15.688h-10.188v-44.312h10.188v17.078c1.5391-1.8516 3.1719-3.2227 4.8906-4.1094 1.7266-0.88281 3.6406-1.3281 5.7344-1.3281 3.6875 0 6.4844 1.1328 8.3906 3.3906 1.9062 2.2617 2.8594 5.5469 2.8594 9.8594z"
         id="path17" />
    </symbol>
  </defs>
  <path
     d="M 439.71425,226.63754 V 100.51555 c 0,-13.0857 -10.5625,-23.648206 -23.6482,-23.648206 H 289.94406 c -13.0857,0 -23.64821,10.562506 -23.64821,23.648206 v 126.12199 c 0,13.0857 10.56251,23.64821 23.64821,23.64821 h 126.12739 c 13.08043,0 23.6428,-10.56251 23.6428,-23.64821 z"
     id="path22"
     style="fill:#ffffff;stroke-width:1.35133"
     sodipodi:nodetypes="sssssssss" />
  <path
     d="M 37.694692,597.13066 H 163.81667 c 13.08571,0 23.64821,-10.56251 23.64821,-23.64821 V 447.36046 c 0,-13.0857 -10.5625,-23.64821 -23.64821,-23.64821 H 37.694692 c -13.085703,0 -23.648209,10.56251 -23.648209,23.64821 v 126.12199 c 0,13.0857 10.562506,23.64821 23.648209,23.64821 z"
     id="path24"
     style="fill:#ffffff;stroke-width:1.35133"
     sodipodi:nodetypes="sssssssss" />
  <path
     d="m 542.18533,597.13066 h 126.12198 c 13.0857,0 23.64821,-10.56251 23.64821,-23.64821 V 447.36046 c 0,-13.0857 -10.56251,-23.64821 -23.64821,-23.64821 H 542.18533 c -13.08571,0 -23.64821,10.56251 -23.64821,23.64821 v 126.12199 c 0,13.0857 10.5625,23.64821 23.64821,23.64821 z"
     id="path26"
     style="fill:#ffffff;stroke-width:1.35133"
     sodipodi:nodetypes="sssssssss" />
  <path
     d="m 211.11039,534.06426 c 5.04639,0 10.24576,-1.57835 14.50514,-5.04639 l 127.38412,-99.00627 127.38412,99.00627 c 4.25452,3.30967 9.45928,5.04639 14.50514,5.04639 7.09446,0 14.03082,-3.15129 18.76046,-9.14253 8.03931,-10.24576 6.14961,-25.22656 -4.10155,-33.1075 l -132.74618,-103.26565 0.005,-114.61408 c 0,-13.08571 -10.5625,-23.64821 -23.64821,-23.64821 -13.0857,0 -23.6482,10.5625 -23.6482,23.64821 V 388.54858 L 196.76444,491.81423 c -10.24575,8.03931 -12.14085,22.86174 -4.10154,33.1075 4.41816,5.99124 11.35424,9.14253 18.4483,9.14253 z"
     id="path28"
     style="fill:#ffffff;fill-opacity:0.5;stroke-width:1.35133" />
</svg>
