<svg width="18" height="16" viewBox="0 0 18 16" fill="none" xmlns="http://www.w3.org/2000/svg">
<path opacity="0.5" d="M14.53 5H13V6C13.0111 6.28222 12.9605 6.56347 12.8516 6.8241C12.7428 7.08472 12.5783 7.31843 12.3697 7.50889C12.1612 7.69936 11.9135 7.84199 11.6441 7.92681C11.3747 8.01164 11.0901 8.03662 10.81 8H8.39C7.77474 7.99935 7.18293 8.236 6.73775 8.66069C6.29257 9.08538 6.02832 9.66539 6 10.28V12.53C6 13.75 7.37 15 9.35 15C12.35 15 13 13.44 13 12.53V11H9V10H14.25C15.39 10 17 9.49 17 7.65C17.036 7.30849 16.9983 6.96324 16.8894 6.63757C16.7805 6.31189 16.603 6.01337 16.3688 5.76217C16.1347 5.51098 15.8494 5.31295 15.5322 5.18146C15.2149 5.04997 14.8732 4.98809 14.53 5ZM10.53 11.5C10.7278 11.5 10.9211 11.5586 11.0856 11.6685C11.25 11.7784 11.3782 11.9346 11.4539 12.1173C11.5296 12.3 11.5494 12.5011 11.5108 12.6951C11.4722 12.8891 11.377 13.0673 11.2371 13.2071C11.0973 13.347 10.9191 13.4422 10.7251 13.4808C10.5311 13.5194 10.33 13.4996 10.1473 13.4239C9.96459 13.3482 9.80841 13.22 9.69853 13.0556C9.58865 12.8911 9.53 12.6978 9.53 12.5C9.52988 12.2399 9.63111 11.99 9.81221 11.8033C9.9933 11.6166 10.24 11.5078 10.5 11.5H10.53Z" fill="white"/>
<path d="M3.47002 10H5.00002V9.05C4.98128 8.76369 5.02628 8.47679 5.13178 8.20997C5.23728 7.94315 5.40064 7.70305 5.61011 7.50697C5.81958 7.31089 6.06993 7.16372 6.34313 7.07605C6.61633 6.98839 6.90558 6.96241 7.19002 7H9.61002C10.2253 7.00065 10.8171 6.764 11.2623 6.33931C11.7075 5.91462 11.9717 5.33461 12 4.72V2.47C12 1.25 10.63 0 8.65002 0C5.62002 0 5.00002 1.56 5.00002 2.47V4H9.00002V5H3.75002C2.61002 5 1.00002 5.51 1.00002 7.35C0.964048 7.69151 1.00178 8.03676 1.11066 8.36243C1.21954 8.68811 1.39705 8.98663 1.63118 9.23783C1.86532 9.48903 2.15064 9.68705 2.46786 9.81854C2.78509 9.95003 3.12684 10.0119 3.47002 10ZM7.47002 3.5C7.27224 3.5 7.0789 3.44135 6.91445 3.33147C6.75001 3.22159 6.62183 3.06541 6.54615 2.88268C6.47046 2.69996 6.45065 2.49889 6.48924 2.30491C6.52782 2.11093 6.62307 1.93275 6.76292 1.79289C6.90277 1.65304 7.08095 1.5578 7.27493 1.51921C7.46892 1.48063 7.66998 1.50043 7.85271 1.57612C8.03543 1.65181 8.19161 1.77998 8.30149 1.94443C8.41138 2.10888 8.47002 2.30222 8.47002 2.5C8.47014 2.7601 8.36891 3.01001 8.18782 3.19671C8.00672 3.38341 7.76001 3.4922 7.50002 3.5H7.47002Z" fill="white"/>
</svg>
