<?xml version="1.0" encoding="UTF-8" standalone="no"?>
<svg
   xmlns:dc="http://purl.org/dc/elements/1.1/"
   xmlns:cc="http://creativecommons.org/ns#"
   xmlns:rdf="http://www.w3.org/1999/02/22-rdf-syntax-ns#"
   xmlns:svg="http://www.w3.org/2000/svg"
   xmlns="http://www.w3.org/2000/svg"
   xmlns:sodipodi="http://sodipodi.sourceforge.net/DTD/sodipodi-0.dtd"
   xmlns:inkscape="http://www.inkscape.org/namespaces/inkscape"
   width="700pt"
   height="700pt"
   version="1.1"
   viewBox="0 0 700 700"
   id="svg8"
   sodipodi:docname="Radar.svg"
   inkscape:version="1.0.2-2 (e86c870879, 2021-01-15)">
  <metadata
     id="metadata14">
    <rdf:RDF>
      <cc:Work
         rdf:about="">
        <dc:format>image/svg+xml</dc:format>
        <dc:type
           rdf:resource="http://purl.org/dc/dcmitype/StillImage" />
        <dc:title />
      </cc:Work>
    </rdf:RDF>
  </metadata>
  <defs
     id="defs12" />
  <sodipodi:namedview
     pagecolor="#ffffff"
     bordercolor="#666666"
     borderopacity="1"
     objecttolerance="10"
     gridtolerance="10"
     guidetolerance="10"
     inkscape:pageopacity="0"
     inkscape:pageshadow="2"
     inkscape:window-width="2560"
     inkscape:window-height="1369"
     id="namedview10"
     showgrid="false"
     inkscape:pagecheckerboard="true"
     inkscape:zoom="0.63791133"
     inkscape:cx="394.58104"
     inkscape:cy="514.41765"
     inkscape:window-x="1912"
     inkscape:window-y="-8"
     inkscape:window-maximized="1"
     inkscape:current-layer="svg8"
     inkscape:document-rotation="0" />
  <path
     d="m 412.84867,350.54237 c 0,23.95397 -19.42294,43.37691 -43.37691,43.37691 -23.95396,0 -43.3769,-19.42294 -43.3769,-43.37691 0,-23.95396 19.42294,-43.3769 43.3769,-43.3769 23.95397,0 43.37691,19.42294 43.37691,43.3769"
     id="path2"
     style="fill:#ffffff;stroke-width:1.23934" />
  <path
     d="m 369.47176,697.55761 c -191.34172,0 -347.015239,-155.67351 -347.015239,-347.01524 0,-191.34172 155.673519,-347.015234 347.015239,-347.015234 92.69893,0 179.86544,36.110654 245.36456,101.654394 8.4818,8.4818 8.4818,22.21145 0,30.66871 -8.48179,8.4818 -22.18666,8.4818 -30.66871,0 C 526.84317,78.482426 450.59153,46.907758 369.47672,46.907758 c -167.43485,0 -303.638331,136.203482 -303.638331,303.638332 0,167.43485 136.203481,303.63833 303.638331,303.63833 41.55632,0 81.78654,-8.22029 119.6112,-24.4435 10.99431,-4.79278 23.77054,0.34856 28.47632,11.3671 4.72981,11.01848 -0.39214,23.77055 -11.36711,28.47632 -43.24677,18.56532 -89.27091,27.97686 -136.724,27.97686 z m 202.42143,-70.6176 c -6.37579,0 -12.70819,-2.79818 -16.98268,-8.17679 -7.46021,-9.36768 -5.90136,-23.03438 3.44685,-30.47042 9.04334,-7.19883 17.71885,-14.9452 25.80802,-23.03438 8.4818,-8.48179 22.18667,-8.48179 30.66871,0 8.48205,8.4818 8.4818,22.18667 0,30.66871 -9.23692,9.26122 -19.17135,18.08693 -29.45415,26.30748 -3.98919,3.16614 -8.76251,4.70565 -13.4927,4.70565 z M 369.47176,589.11535 c -131.54356,0 -238.57297,-107.03313 -238.57297,-238.57298 0,-131.53984 107.03313,-238.57297 238.57297,-238.57297 63.71944,0 123.64401,24.81159 168.68659,69.88267 8.4818,8.48179 8.4818,22.18667 0,30.66871 -8.4818,8.48204 -22.18667,8.4818 -30.66871,0 -36.87037,-36.87037 -85.88751,-57.16952 -138.02531,-57.16952 -107.61934,0 -195.19607,87.57673 -195.19607,195.19607 0,107.63917 87.57673,195.19607 195.19607,195.19607 24.4435,0 48.3008,-4.46844 70.8791,-13.24978 11.12506,-4.35703 23.72717,1.17156 28.0884,12.32077 4.3377,11.16856 -1.17156,23.75072 -12.32077,28.08841 -27.63357,10.7571 -56.78161,16.22296 -86.64723,16.22296 z m 151.21189,-61.37584 c -5.65932,0 -11.29931,-2.21247 -15.57354,-6.59366 -8.35105,-8.58826 -8.13317,-22.31804 0.45507,-30.66871 l 1.71376,-1.6896 c 8.32688,-8.56892 22.09991,-8.80613 30.66871,-0.4357 8.58826,8.35105 8.78184,22.08008 0.4357,30.66871 l -2.60459,2.58031 c -4.20694,4.10048 -9.65335,6.13857 -15.09517,6.13857 z M 369.47176,480.67309 c -71.76523,0 -130.13071,-58.36549 -130.13071,-130.13072 0,-71.76523 58.36548,-130.13071 130.13071,-130.13071 34.78828,0 67.42754,13.53607 92.00118,38.10475 8.4818,8.4818 8.4818,22.21145 0,30.68854 -8.4818,8.45751 -22.18667,8.45751 -30.66871,0 -16.37292,-16.39647 -38.17292,-25.42134 -61.33247,-25.42134 -47.84472,0 -86.75381,38.90908 -86.75381,86.75381 0,47.84472 38.90909,86.7538 86.75381,86.7538 23.16451,0 44.95955,-9.02388 61.33247,-25.42134 8.43817,-8.4818 22.18667,-8.4818 30.66871,0 8.4818,8.45751 8.4818,22.18667 0,30.66871 -24.55009,24.59347 -57.2129,38.12954 -92.00118,38.12954 z m 0,-108.44226 c -5.55286,0 -11.1056,-2.12523 -15.33187,-6.35646 -8.4818,-8.48179 -8.4818,-22.18666 0,-30.66871 L 636.08977,53.255782 c 8.48179,-8.481796 22.18667,-8.481796 30.66871,0 8.48204,8.481796 8.4818,22.186667 0,30.668711 L 384.8086,365.87437 c -4.23123,4.23123 -9.77914,6.35646 -15.33188,6.35646 z"
     id="path4"
     style="fill:#ffffff;fill-opacity:0.5;stroke-width:1.23934" />
</svg>
