<?xml version="1.0" encoding="UTF-8" standalone="no"?>
<svg
   xmlns:dc="http://purl.org/dc/elements/1.1/"
   xmlns:cc="http://creativecommons.org/ns#"
   xmlns:rdf="http://www.w3.org/1999/02/22-rdf-syntax-ns#"
   xmlns:svg="http://www.w3.org/2000/svg"
   xmlns="http://www.w3.org/2000/svg"
   xmlns:sodipodi="http://sodipodi.sourceforge.net/DTD/sodipodi-0.dtd"
   xmlns:inkscape="http://www.inkscape.org/namespaces/inkscape"
   width="700pt"
   height="700pt"
   version="1.1"
   viewBox="0 0 700 700"
   id="svg4"
   sodipodi:docname="road.svg"
   inkscape:version="1.0.2-2 (e86c870879, 2021-01-15)">
  <metadata
     id="metadata10">
    <rdf:RDF>
      <cc:Work
         rdf:about="">
        <dc:format>image/svg+xml</dc:format>
        <dc:type
           rdf:resource="http://purl.org/dc/dcmitype/StillImage" />
        <dc:title></dc:title>
      </cc:Work>
    </rdf:RDF>
  </metadata>
  <defs
     id="defs8" />
  <sodipodi:namedview
     pagecolor="#363636"
     bordercolor="#666666"
     borderopacity="1"
     objecttolerance="10"
     gridtolerance="10"
     guidetolerance="10"
     inkscape:pageopacity="0"
     inkscape:pageshadow="2"
     inkscape:window-width="1920"
     inkscape:window-height="1009"
     id="namedview6"
     showgrid="false"
     inkscape:zoom="0.63791133"
     inkscape:cx="288.51876"
     inkscape:cy="479.5227"
     inkscape:window-x="-8"
     inkscape:window-y="-8"
     inkscape:window-maximized="1"
     inkscape:current-layer="svg4" />
  <path
     d="m 374.73625,17 v 119.4122 c 0,13.18338 -10.69906,23.88244 -23.88244,23.88244 -13.18338,0 -23.88244,-10.69906 -23.88244,-23.88244 V 17 H 183.67673 c -11.13086,0 -20.78045,7.665854 -23.26423,18.508209 L 17.11786,656.45166 c -1.64721,7.09541 0.048,14.54236 4.56332,20.25231 4.53657,5.6828 11.41349,9.00396 18.70063,9.00396 H 326.9711 V 614.0606 c 0,-13.18338 10.69906,-23.88244 23.88244,-23.88244 13.18338,0 23.88244,10.69906 23.88244,23.88244 v 71.64733 h 286.58929 c 7.28196,0 14.16433,-3.32116 18.70063,-9.00396 4.51528,-5.7094 6.21053,-13.15663 4.56332,-20.25231 L 541.29458,35.508209 C 538.81039,24.665172 529.16148,17 518.03035,17 Z m -47.76488,406.00149 v 95.52976 c 0,13.18338 10.69906,23.88244 23.88244,23.88244 13.18338,0 23.88244,-10.69906 23.88244,-23.88244 v -95.52976 c 0,-13.18338 -10.69906,-23.88244 -23.88244,-23.88244 -13.18338,0 -23.88244,10.69906 -23.88244,23.88244 z m 0,-191.05953 v 95.52977 c 0,13.18338 10.69906,23.88244 23.88244,23.88244 13.18338,0 23.88244,-10.69906 23.88244,-23.88244 v -95.52977 c 0,-13.18338 -10.69906,-23.88244 -23.88244,-23.88244 -13.18338,0 -23.88244,10.69906 -23.88244,23.88244 z"
     fill-rule="evenodd"
     id="path2"
     style="fill:#ffffff;stroke-width:1.36471" />
</svg>
