<?xml version="1.0" encoding="UTF-8" standalone="no"?>
<svg
   xmlns:dc="http://purl.org/dc/elements/1.1/"
   xmlns:cc="http://creativecommons.org/ns#"
   xmlns:rdf="http://www.w3.org/1999/02/22-rdf-syntax-ns#"
   xmlns:svg="http://www.w3.org/2000/svg"
   xmlns="http://www.w3.org/2000/svg"
   xmlns:sodipodi="http://sodipodi.sourceforge.net/DTD/sodipodi-0.dtd"
   xmlns:inkscape="http://www.inkscape.org/namespaces/inkscape"
   width="700pt"
   height="700pt"
   version="1.1"
   viewBox="0 0 700 700"
   id="svg4"
   sodipodi:docname="route.svg"
   inkscape:version="1.0.2-2 (e86c870879, 2021-01-15)">
  <metadata
     id="metadata10">
    <rdf:RDF>
      <cc:Work
         rdf:about="">
        <dc:format>image/svg+xml</dc:format>
        <dc:type
           rdf:resource="http://purl.org/dc/dcmitype/StillImage" />
        <dc:title></dc:title>
      </cc:Work>
    </rdf:RDF>
  </metadata>
  <defs
     id="defs8" />
  <sodipodi:namedview
     pagecolor="#453932"
     bordercolor="#666666"
     borderopacity="1"
     objecttolerance="10"
     gridtolerance="10"
     guidetolerance="10"
     inkscape:pageopacity="0"
     inkscape:pageshadow="2"
     inkscape:window-width="1920"
     inkscape:window-height="1009"
     id="namedview6"
     showgrid="false"
     inkscape:zoom="0.45107143"
     inkscape:cx="229.462"
     inkscape:cy="480.10253"
     inkscape:window-x="-8"
     inkscape:window-y="-8"
     inkscape:window-maximized="1"
     inkscape:current-layer="svg4" />
  <path
     d="M 529.62614,612.441 H 298.70753 v -71.05189 h 230.91861 c 49.73505,0 88.81486,-39.0798 88.81486,-88.81485 0,-49.73505 -39.07981,-88.81485 -88.81486,-88.81485 H 209.89267 c -85.26098,0 -159.86673,-74.60575 -159.86673,-159.86674 0,-85.26098 74.60575,-159.866729 159.86673,-159.866729 H 476.33723 V 115.07782 H 209.89267 c -49.73504,0 -88.81485,39.07981 -88.81485,88.81485 0,49.73505 39.07981,88.81486 88.81485,88.81486 h 319.73347 c 85.26099,0 159.86674,74.60574 159.86674,159.86673 0,85.26099 -74.60575,159.86674 -159.86674,159.86674 z"
     id="path2"
     style="fill:#ffffff;stroke-width:1.26878"
     sodipodi:nodetypes="sccssssssccssssss" />
  <path
     d="m 124.73816,687.67697 c 60.39664,0 106.57783,-46.18119 106.57783,-106.57783 0,-60.39663 -46.18119,-106.57782 -106.57783,-106.57782 -60.396631,0 -106.577821,46.18119 -106.577821,106.57782 0,60.39664 46.18119,106.57783 106.577821,106.57783 z M 622.10134,154.78785 c 39.0798,0 71.0519,-31.97207 71.0519,-71.051882 0,-39.0798 -31.9721,-71.051879 -71.0519,-71.051879 -39.0798,0 -71.0519,31.972079 -71.0519,71.051879 0,39.079812 31.9721,71.051882 71.0519,71.051882 z"
     id="path2-6"
     style="fill:#ffffff;fill-opacity:0.5;stroke-width:1.26878"
     sodipodi:nodetypes="ssssssssss" />
</svg>
