<?xml version="1.0" encoding="UTF-8" standalone="no"?>
<svg
   width="1392"
   height="600"
   viewBox="0 0 1392 600"
   fill="none"
   version="1.1"
   id="svg19"
   sodipodi:docname="SodaFull.svg"
   inkscape:version="1.2.2 (732a01da63, 2022-12-09)"
   xmlns:inkscape="http://www.inkscape.org/namespaces/inkscape"
   xmlns:sodipodi="http://sodipodi.sourceforge.net/DTD/sodipodi-0.dtd"
   xmlns="http://www.w3.org/2000/svg"
   xmlns:svg="http://www.w3.org/2000/svg">
  <sodipodi:namedview
     id="namedview21"
     pagecolor="#ffffff"
     bordercolor="#000000"
     borderopacity="0.25"
     inkscape:showpageshadow="2"
     inkscape:pageopacity="0.0"
     inkscape:pagecheckerboard="0"
     inkscape:deskcolor="#d1d1d1"
     showgrid="false"
     inkscape:zoom="0.78666667"
     inkscape:cx="973.72881"
     inkscape:cy="139.19492"
     inkscape:window-width="2560"
     inkscape:window-height="1351"
     inkscape:window-x="2551"
     inkscape:window-y="-9"
     inkscape:window-maximized="1"
     inkscape:current-layer="g12" />
  <g
     clip-path="url(#clip0_209_11)"
     id="g12">
    <path
       fill-rule="evenodd"
       clip-rule="evenodd"
       d="m 20.746559,279.96833 c 12.620145,11.59271 28.656968,21.98442 48.063248,31.15726 l 0.959785,0.45053 1.951476,0.8998 1.994871,0.8998 c 1.679623,0.75047 3.405193,1.50222 5.174158,2.25396 l 2.144199,0.90108 2.18887,0.90362 2.229712,0.90235 c 1.126981,0.45182 2.269278,0.90363 3.42689,1.35672 l 2.338198,0.90363 2.380317,0.90618 2.424987,0.9049 2.467105,0.90618 2.509225,0.90745 c 0.42246,0.15061 0.84619,0.30249 1.2712,0.45309 l 2.57432,0.90874 2.61771,0.90873 2.6611,0.90873 2.70323,0.91001 2.74661,0.91001 2.79001,0.91128 2.83213,0.91129 2.87553,0.91256 2.91892,0.91256 2.96231,0.91384 c 0.49776,0.15315 0.9968,0.30503 1.49711,0.45691 l 4.55643,1.37331 3.09122,0.91512 3.13589,0.91639 3.17673,0.91766 5.53535,1.57752 2.28077,0.65858 2.24503,0.65602 3.30308,0.9802 c 0.36247,0.10849 0.72495,0.21825 1.08359,0.32674 l 2.14292,0.65092 3.14738,0.97254 3.06952,0.96872 2.00253,0.64326 1.96807,0.64199 2.88829,0.9585 1.88128,0.63688 1.84682,0.6356 1.81108,0.63305 2.65345,0.94575 1.72429,0.62794 1.68983,0.62667 1.65538,0.62412 1.62091,0.62156 1.58518,0.62028 1.55071,0.61774 1.51498,0.61646 c 0.25016,0.1021 0.49776,0.20421 0.74409,0.30631 l 1.46392,0.6139 1.42692,0.61008 1.39373,0.6088 1.35799,0.60625 1.32226,0.60369 1.28779,0.60114 1.25334,0.59987 1.21632,0.59731 1.18314,0.59604 1.1474,0.5922 c 0.18762,0.0983 0.37524,0.19783 0.5603,0.29611 l 1.0938,0.58838 1.05933,0.5871 c 0.17358,0.0983 0.34588,0.19527 0.51691,0.29355 l 1.00573,0.58327 c 0.16465,0.097 0.32801,0.194 0.4901,0.291 l 0.95341,0.57945 0.91766,0.57816 c 0.30121,0.19145 0.59476,0.38417 0.88321,0.57562 11.04518,7.32729 16.42099,17.55563 16.42099,31.35381 0,12.40317 -5.29285,21.77894 -16.31506,28.77056 -11.58378,7.34771 -28.09539,10.6559 -49.5744,10.70313 l -145.670258,0.001 -0.0013,-66.8352 z M 293.02924,163.85994 v 69.43121 72.3629 c -19.79045,-14.61757 -46.61847,-27.43809 -80.5032,-38.53177 l -2.96359,-0.95979 c -0.49648,-0.15826 -0.99424,-0.3178 -1.49456,-0.47606 l -3.01592,-0.94702 c -0.50541,-0.15699 -1.01338,-0.31397 -1.52136,-0.46968 l -3.06952,-0.93426 -3.10526,-0.92533 -3.141,-0.91639 -3.17673,-0.90745 c -1.06444,-0.30121 -2.13526,-0.60114 -3.21119,-0.89852 l -3.24821,-0.89087 -3.28267,-0.88193 -3.01336,-0.79897 -2.68536,-0.72366 -2.64323,-0.7275 -2.60112,-0.73005 -2.559,-0.7326 c -0.42374,-0.12253 -0.84492,-0.24505 -1.26355,-0.36758 l -2.49646,-0.73643 c -0.82449,-0.24632 -1.64261,-0.49265 -2.45434,-0.74026 l -2.41095,-0.74281 c -0.39821,-0.1238 -0.79514,-0.24888 -1.19079,-0.37268 l -2.34841,-0.74664 c -0.388,-0.12508 -0.77345,-0.25016 -1.15889,-0.37524 l -2.28459,-0.75047 -2.24376,-0.75429 -2.20035,-0.75686 -2.15824,-0.76068 -2.1174,-0.76195 -2.074,-0.76451 -2.03188,-0.76834 -1.98977,-0.77089 -1.94637,-0.77217 -1.90553,-0.77599 c -2.82575,-1.16655 -5.50855,-2.34075 -8.04841,-3.52389 l -1.67196,-0.79004 c -2.75045,-1.31843 -5.32476,-2.64706 -7.72167,-3.98719 l -1.4167,-0.80535 c -0.23357,-0.13401 -0.46458,-0.26802 -0.69304,-0.40331 -13.48548,-7.9195 -19.808318,-17.12679 -19.808318,-27.96266 0,-12.04453 5.423038,-21.5709 16.751558,-29.12665 11.85436,-7.90673 28.90202,-12.02538 51.20552,-12.02538 z"
       fill="#000000"
       id="path4"
       style="stroke-width:1.27631;fill:#ffffff" />
    <circle
       cx="517.6571"
       cy="300"
       fill="#000000"
       id="circle6"
       r="142.94662"
       style="stroke-width:1.27631;fill:#ffffff" />
    <path
       fill-rule="evenodd"
       clip-rule="evenodd"
       d="m 878.42627,438.86243 c 75.18865,0 136.14003,-60.95142 136.14003,-136.14006 0,-75.18737 -60.95138,-136.13879 -136.14003,-136.13879 H 742.28749 v 136.13879 136.14006 z"
       fill="#000000"
       id="path8"
       style="stroke-width:1.27631;fill:#ffffff" />
    <path
       d="m 1214.4491,163.85994 156.8073,273.64067 h -313.6197 z"
       fill="#000000"
       id="path10"
       style="stroke-width:1.27631;fill:#ffffff" />
  </g>
  <defs
     id="defs17">
    <clipPath
       id="clip0_209_11">
      <rect
         width="1392"
         height="600"
         fill="white"
         id="rect14" />
    </clipPath>
  </defs>
</svg>
