<?xml version="1.0" encoding="UTF-8" standalone="no"?>
<svg
   xmlns:dc="http://purl.org/dc/elements/1.1/"
   xmlns:cc="http://creativecommons.org/ns#"
   xmlns:rdf="http://www.w3.org/1999/02/22-rdf-syntax-ns#"
   xmlns:svg="http://www.w3.org/2000/svg"
   xmlns="http://www.w3.org/2000/svg"
   xmlns:sodipodi="http://sodipodi.sourceforge.net/DTD/sodipodi-0.dtd"
   xmlns:inkscape="http://www.inkscape.org/namespaces/inkscape"
   width="700pt"
   height="700pt"
   version="1.1"
   viewBox="0 0 700 700"
   id="svg160"
   sodipodi:docname="tire.svg"
   inkscape:version="1.0.2-2 (e86c870879, 2021-01-15)">
  <metadata
     id="metadata164">
    <rdf:RDF>
      <cc:Work
         rdf:about="">
        <dc:format>image/svg+xml</dc:format>
        <dc:type
           rdf:resource="http://purl.org/dc/dcmitype/StillImage" />
        <dc:title></dc:title>
      </cc:Work>
    </rdf:RDF>
  </metadata>
  <sodipodi:namedview
     pagecolor="#2b3232"
     bordercolor="#666666"
     borderopacity="1"
     objecttolerance="10"
     gridtolerance="10"
     guidetolerance="10"
     inkscape:pageopacity="0"
     inkscape:pageshadow="2"
     inkscape:window-width="2560"
     inkscape:window-height="1369"
     id="namedview162"
     showgrid="false"
     inkscape:zoom="0.45107143"
     inkscape:cx="743.10951"
     inkscape:cy="414.57512"
     inkscape:window-x="1912"
     inkscape:window-y="-8"
     inkscape:window-maximized="1"
     inkscape:current-layer="svg160" />
  <defs
     id="defs68">
    <symbol
       id="v"
       overflow="visible">
      <path
         d="m20.609-1.2344c-1.0625 0.55469-2.1719 0.96875-3.3281 1.25-1.1484 0.28125-2.3438 0.42188-3.5938 0.42188-3.7422 0-6.7031-1.0391-8.8906-3.125-2.1797-2.0938-3.2656-4.9258-3.2656-8.5 0-3.582 1.0859-6.4141 3.2656-8.5 2.1875-2.0938 5.1484-3.1406 8.8906-3.1406 1.25 0 2.4453 0.14062 3.5938 0.42188 1.1562 0.27344 2.2656 0.68359 3.3281 1.2344v4.6406c-1.0742-0.72656-2.1328-1.2578-3.1719-1.5938-1.043-0.34375-2.1367-0.51562-3.2812-0.51562-2.0625 0-3.6875 0.66406-4.875 1.9844-1.1797 1.3242-1.7656 3.1484-1.7656 5.4688 0 2.3125 0.58594 4.1328 1.7656 5.4531 1.1875 1.3242 2.8125 1.9844 4.875 1.9844 1.1445 0 2.2383-0.17188 3.2812-0.51562 1.0391-0.34375 2.0977-0.87891 3.1719-1.6094z"
         id="path2" />
    </symbol>
    <symbol
       id="d"
       overflow="visible">
      <path
         d="m15.078-12.25c-0.46875-0.21875-0.9375-0.37891-1.4062-0.48438-0.46094-0.10156-0.92969-0.15625-1.4062-0.15625-1.375 0-2.4375 0.44531-3.1875 1.3281-0.74219 0.88672-1.1094 2.1562-1.1094 3.8125v7.75h-5.3906v-16.828h5.3906v2.7656c0.6875-1.1016 1.4766-1.9062 2.375-2.4062 0.89453-0.50781 1.9688-0.76562 3.2188-0.76562 0.17578 0 0.36719 0.011719 0.57812 0.03125 0.21875 0.011719 0.52344 0.042969 0.92188 0.09375z"
         id="path5" />
    </symbol>
    <symbol
       id="b"
       overflow="visible">
      <path
         d="m19.375-8.4531v1.5312h-12.562c0.125 1.2617 0.57812 2.2109 1.3594 2.8438 0.78125 0.625 1.875 0.9375 3.2812 0.9375 1.125 0 2.2812-0.16406 3.4688-0.5 1.1875-0.33203 2.4062-0.84375 3.6562-1.5312v4.1562c-1.2734 0.48047-2.543 0.83984-3.8125 1.0781-1.2734 0.25-2.543 0.375-3.8125 0.375-3.043 0-5.4062-0.76953-7.0938-2.3125-1.6875-1.5508-2.5312-3.7227-2.5312-6.5156 0-2.75 0.82812-4.9102 2.4844-6.4844 1.6562-1.5703 3.9375-2.3594 6.8438-2.3594 2.6328 0 4.7422 0.79688 6.3281 2.3906 1.5938 1.5938 2.3906 3.7266 2.3906 6.3906zm-5.5312-1.7969c0-1.0195-0.29688-1.8438-0.89062-2.4688s-1.3711-0.9375-2.3281-0.9375c-1.043 0-1.8906 0.29688-2.5469 0.89062-0.64844 0.58594-1.0547 1.4219-1.2188 2.5156z"
         id="path8" />
    </symbol>
    <symbol
       id="j"
       overflow="visible">
      <path
         d="m10.125-7.5781c-1.125 0-1.9688 0.19531-2.5312 0.57812-0.5625 0.38672-0.84375 0.94922-0.84375 1.6875 0 0.67969 0.22266 1.2109 0.67188 1.5938 0.45703 0.38672 1.0938 0.57812 1.9062 0.57812 1.0078 0 1.8594-0.35938 2.5469-1.0781 0.69531-0.72656 1.0469-1.6406 1.0469-2.7344v-0.625zm8.2188-2.0156v9.5938h-5.4219v-2.5c-0.71875 1.0234-1.5312 1.7656-2.4375 2.2344-0.89844 0.46875-1.9922 0.70312-3.2812 0.70312-1.75 0-3.168-0.50391-4.25-1.5156-1.0859-1.0195-1.625-2.3438-1.625-3.9688 0-1.9688 0.67578-3.4102 2.0312-4.3281 1.3516-0.92578 3.4844-1.3906 6.3906-1.3906h3.1719v-0.42188c0-0.85156-0.33984-1.4766-1.0156-1.875-0.66797-0.39453-1.7148-0.59375-3.1406-0.59375-1.1484 0-2.2148 0.11719-3.2031 0.34375-0.99219 0.23047-1.9141 0.57812-2.7656 1.0469v-4.1094c1.1445-0.28125 2.2969-0.49219 3.4531-0.64062 1.1641-0.14453 2.332-0.21875 3.5-0.21875 3.0312 0 5.2188 0.60156 6.5625 1.7969 1.3516 1.1992 2.0312 3.1484 2.0312 5.8438z"
         id="path11" />
    </symbol>
    <symbol
       id="c"
       overflow="visible">
      <path
         d="m8.4531-21.609v4.7812h5.5469v3.8438h-5.5469v7.1406c0 0.78125 0.15625 1.3125 0.46875 1.5938 0.3125 0.27344 0.92578 0.40625 1.8438 0.40625h2.7656v3.8438h-4.6094c-2.125 0-3.6328-0.44141-4.5156-1.3281-0.88672-0.88281-1.3281-2.3906-1.3281-4.5156v-7.1406h-2.6719v-3.8438h2.6719v-4.7812z"
         id="path14" />
    </symbol>
    <symbol
       id="i"
       overflow="visible">
      <path
         d="m14.031-14.359v-9.0156h5.4062v23.375h-5.4062v-2.4375c-0.74219 0.99219-1.5586 1.7188-2.4531 2.1875-0.88672 0.45703-1.918 0.6875-3.0938 0.6875-2.0742 0-3.7773-0.82031-5.1094-2.4688-1.3359-1.6445-2-3.7656-2-6.3594s0.66406-4.7109 2-6.3594c1.332-1.6562 3.0352-2.4844 5.1094-2.4844 1.1641 0 2.1953 0.23438 3.0938 0.70312 0.89453 0.46875 1.7109 1.1953 2.4531 2.1719zm-3.5469 10.891c1.1562 0 2.0352-0.42188 2.6406-1.2656 0.60156-0.84375 0.90625-2.0625 0.90625-3.6562 0-1.6016-0.30469-2.8281-0.90625-3.6719-0.60547-0.84375-1.4844-1.2656-2.6406-1.2656-1.1484 0-2.0234 0.42188-2.625 1.2656-0.60547 0.84375-0.90625 2.0703-0.90625 3.6719 0 1.5938 0.30078 2.8125 0.90625 3.6562 0.60156 0.84375 1.4766 1.2656 2.625 1.2656z"
         id="path17" />
    </symbol>
    <symbol
       id="g"
       overflow="visible">
      <path
         d="m11.531-3.4688c1.1562 0 2.0352-0.42188 2.6406-1.2656 0.60156-0.84375 0.90625-2.0625 0.90625-3.6562 0-1.6016-0.30469-2.8281-0.90625-3.6719-0.60547-0.84375-1.4844-1.2656-2.6406-1.2656-1.1484 0-2.0273 0.42969-2.6406 1.2812-0.61719 0.84375-0.92188 2.0625-0.92188 3.6562 0 1.5859 0.30469 2.8047 0.92188 3.6562 0.61328 0.84375 1.4922 1.2656 2.6406 1.2656zm-3.5625-10.891c0.73828-0.97656 1.5547-1.7031 2.4531-2.1719 0.90625-0.46875 1.9414-0.70312 3.1094-0.70312 2.0703 0 3.7734 0.82812 5.1094 2.4844 1.332 1.6484 2 3.7656 2 6.3594s-0.66797 4.7148-2 6.3594c-1.3359 1.6484-3.0391 2.4688-5.1094 2.4688-1.168 0-2.2031-0.23438-3.1094-0.70312-0.89844-0.46875-1.7148-1.1914-2.4531-2.1719v2.4375h-5.3906v-23.375h5.3906z"
         id="path20" />
    </symbol>
    <symbol
       id="f"
       overflow="visible">
      <path
         d="m0.375-16.828h5.375l4.5312 11.422 3.8438-11.422h5.375l-7.0781 18.422c-0.71094 1.875-1.5391 3.1797-2.4844 3.9219-0.94922 0.75-2.1992 1.125-3.75 1.125h-3.1094v-3.5312h1.6875c0.90625 0 1.5664-0.14844 1.9844-0.4375 0.41406-0.29297 0.73828-0.8125 0.96875-1.5625l0.15625-0.46875z"
         id="path23" />
    </symbol>
    <symbol
       id="h"
       overflow="visible">
      <path
         d="m11.812-13.75c0.90625 0 1.5938-0.19531 2.0625-0.59375 0.47656-0.40625 0.71875-1 0.71875-1.7812 0-0.76953-0.24219-1.3594-0.71875-1.7656-0.46875-0.40625-1.1562-0.60938-2.0625-0.60938h-3.2031v4.75zm0.1875 9.8125c1.1641 0 2.0391-0.24219 2.625-0.73438 0.58203-0.48828 0.875-1.2266 0.875-2.2188 0-0.97656-0.29297-1.707-0.875-2.1875-0.57422-0.48828-1.4492-0.73438-2.625-0.73438h-3.3906v5.875zm5.375-8.0625c1.25 0.35547 2.2109 1.0234 2.8906 2 0.67578 0.96875 1.0156 2.1641 1.0156 3.5781 0 2.1562-0.73047 3.7656-2.1875 4.8281-1.4609 1.0625-3.6836 1.5938-6.6719 1.5938h-9.5938v-22.422h8.6719c3.1133 0 5.3672 0.46875 6.7656 1.4062 1.4062 0.9375 2.1094 2.4453 2.1094 4.5156 0 1.0938-0.25781 2.0273-0.76562 2.7969-0.51172 0.76172-1.2578 1.3281-2.2344 1.7031z"
         id="path26" />
    </symbol>
    <symbol
       id="a"
       overflow="visible">
      <path
         d="m10.594-13.391c-1.1992 0-2.1094 0.43359-2.7344 1.2969-0.625 0.85547-0.9375 2.0898-0.9375 3.7031 0 1.6055 0.3125 2.8398 0.9375 3.7031 0.625 0.85547 1.5352 1.2812 2.7344 1.2812 1.1641 0 2.0625-0.42578 2.6875-1.2812 0.625-0.86328 0.9375-2.0977 0.9375-3.7031 0-1.6133-0.3125-2.8477-0.9375-3.7031-0.625-0.86328-1.5234-1.2969-2.6875-1.2969zm0-3.8438c2.8945 0 5.1562 0.78125 6.7812 2.3438s2.4375 3.7305 2.4375 6.5c0 2.7617-0.8125 4.9219-2.4375 6.4844s-3.8867 2.3438-6.7812 2.3438c-2.9062 0-5.1797-0.78125-6.8125-2.3438-1.6367-1.5625-2.4531-3.7227-2.4531-6.4844 0-2.7695 0.81641-4.9375 2.4531-6.5 1.6328-1.5625 3.9062-2.3438 6.8125-2.3438z"
         id="path29" />
    </symbol>
    <symbol
       id="e"
       overflow="visible">
      <path
         d="m18.172-14.031c0.6875-1.0391 1.4922-1.832 2.4219-2.375 0.9375-0.55078 1.9688-0.82812 3.0938-0.82812 1.9375 0 3.4102 0.60156 4.4219 1.7969 1.0078 1.1875 1.5156 2.918 1.5156 5.1875v10.25h-5.4062v-8.7656c0.007812-0.13281 0.015625-0.26953 0.015625-0.40625 0.007813-0.14453 0.015625-0.34766 0.015625-0.60938 0-1.1875-0.17969-2.0469-0.53125-2.5781-0.35547-0.53906-0.92188-0.8125-1.7031-0.8125-1.0234 0-1.8086 0.42188-2.3594 1.2656-0.55469 0.83594-0.83984 2.0469-0.85938 3.6406v8.2656h-5.4062v-8.7656c0-1.8633-0.16406-3.0625-0.48438-3.5938-0.32422-0.53906-0.89844-0.8125-1.7188-0.8125-1.0312 0-1.8281 0.42188-2.3906 1.2656-0.55469 0.84375-0.82812 2.0547-0.82812 3.625v8.2812h-5.4219v-16.828h5.4219v2.4688c0.65625-0.94531 1.4102-1.6602 2.2656-2.1406 0.85156-0.48828 1.7969-0.73438 2.8281-0.73438 1.1641 0 2.1914 0.28125 3.0781 0.84375 0.89453 0.5625 1.5703 1.3516 2.0312 2.3594z"
         id="path32" />
    </symbol>
    <symbol
       id="u"
       overflow="visible">
      <path
         d="m18.438-21.719v4.75c-1.2422-0.55078-2.4492-0.96875-3.625-1.25-1.168-0.28125-2.2734-0.42188-3.3125-0.42188-1.375 0-2.3984 0.19531-3.0625 0.57812-0.65625 0.375-0.98438 0.96484-0.98438 1.7656 0 0.60547 0.21875 1.0742 0.65625 1.4062 0.44531 0.33594 1.2578 0.62109 2.4375 0.85938l2.4688 0.5c2.4883 0.5 4.2578 1.2617 5.3125 2.2812 1.0508 1.0234 1.5781 2.4766 1.5781 4.3594 0 2.4688-0.73438 4.3086-2.2031 5.5156-1.4688 1.2109-3.7109 1.8125-6.7188 1.8125-1.4297 0-2.8594-0.13672-4.2969-0.40625-1.4297-0.26953-2.8555-0.67188-4.2812-1.2031v-4.875c1.4258 0.76172 2.8047 1.3359 4.1406 1.7188 1.3438 0.38672 2.6328 0.57812 3.875 0.57812 1.2578 0 2.2227-0.20703 2.8906-0.625 0.67578-0.42578 1.0156-1.0312 1.0156-1.8125 0-0.69531-0.23047-1.2344-0.6875-1.6094-0.44922-0.38281-1.3555-0.72656-2.7188-1.0312l-2.2344-0.5c-2.25-0.47656-3.8984-1.2422-4.9375-2.2969-1.0312-1.0508-1.5469-2.4688-1.5469-4.25 0-2.2383 0.71875-3.957 2.1562-5.1562 1.4453-1.1953 3.5234-1.7969 6.2344-1.7969 1.2266 0 2.4922 0.09375 3.7969 0.28125 1.3008 0.17969 2.6484 0.45312 4.0469 0.82812z"
         id="path35" />
    </symbol>
    <symbol
       id="t"
       overflow="visible">
      <path
         d="m2.5781-23.375h5.3906v23.375h-5.3906z"
         id="path38" />
    </symbol>
    <symbol
       id="s"
       overflow="visible">
      <path
         d="m15.734-16.297v4.0781c-1.1562-0.47656-2.2734-0.83594-3.3438-1.0781-1.0742-0.23828-2.0859-0.35938-3.0312-0.35938-1.0234 0-1.7812 0.13281-2.2812 0.39062-0.49219 0.25-0.73438 0.64062-0.73438 1.1719 0 0.42969 0.1875 0.76172 0.5625 1 0.375 0.23047 1.0469 0.39844 2.0156 0.5l0.95312 0.14062c2.75 0.34375 4.5977 0.91797 5.5469 1.7188 0.95703 0.80469 1.4375 2.0625 1.4375 3.7812 0 1.793-0.66406 3.1406-1.9844 4.0469-1.3242 0.89844-3.2969 1.3438-5.9219 1.3438-1.1172 0-2.2656-0.089844-3.4531-0.26562-1.1875-0.17578-2.4062-0.4375-3.6562-0.78125v-4.0938c1.0703 0.52344 2.1719 0.91406 3.2969 1.1719 1.125 0.26172 2.2695 0.39062 3.4375 0.39062 1.0508 0 1.8438-0.14453 2.375-0.4375 0.53125-0.28906 0.79688-0.72266 0.79688-1.2969 0-0.47656-0.18359-0.83203-0.54688-1.0625-0.36719-0.23828-1.0938-0.42188-2.1875-0.54688l-0.95312-0.125c-2.3867-0.30078-4.0625-0.85938-5.0312-1.6719-0.96094-0.8125-1.4375-2.0391-1.4375-3.6875 0-1.7812 0.60938-3.1016 1.8281-3.9688 1.2188-0.86328 3.0938-1.2969 5.625-1.2969 0.98828 0 2.0312 0.078125 3.125 0.23438 1.0938 0.14844 2.2812 0.38281 3.5625 0.70312z"
         id="path41" />
    </symbol>
    <symbol
       id="r"
       overflow="visible">
      <path
         d="m13.656-23.375v3.5312h-2.9688c-0.76172 0-1.293 0.14062-1.5938 0.42188-0.30469 0.27344-0.45312 0.74609-0.45312 1.4219v1.1719h4.5938v3.8438h-4.5938v12.984h-5.375v-12.984h-2.6875v-3.8438h2.6875v-1.1719c0-1.832 0.50781-3.1875 1.5312-4.0625 1.0195-0.875 2.6016-1.3125 4.75-1.3125z"
         id="path44" />
    </symbol>
    <symbol
       id="q"
       overflow="visible">
      <path
         d="m19.5-10.25v10.25h-5.4062v-7.8125c0-1.4688-0.039062-2.4766-0.10938-3.0312-0.0625-0.55078-0.17188-0.95703-0.32812-1.2188-0.21094-0.35156-0.49609-0.625-0.85938-0.8125-0.35547-0.19531-0.76562-0.29688-1.2344-0.29688-1.1172 0-1.9961 0.43359-2.6406 1.2969-0.63672 0.86719-0.95312 2.0625-0.95312 3.5938v8.2812h-5.3906v-23.375h5.3906v9.0156c0.80078-0.97656 1.6562-1.7031 2.5625-2.1719 0.91406-0.46875 1.9258-0.70312 3.0312-0.70312 1.9453 0 3.4219 0.60156 4.4219 1.7969 1.0078 1.1875 1.5156 2.918 1.5156 5.1875z"
         id="path47" />
    </symbol>
    <symbol
       id="p"
       overflow="visible">
      <path
         d="m2.8281-22.422h6.4531l8.1562 15.375v-15.375h5.4844v22.422h-6.4531l-8.1562-15.391v15.391h-5.4844z"
         id="path50" />
    </symbol>
    <symbol
       id="o"
       overflow="visible">
      <path
         d="m2.4062-6.5469v-10.281h5.4062v1.6875c0 0.90625-0.007812 2.0547-0.015625 3.4375-0.011719 1.375-0.015625 2.293-0.015625 2.75 0 1.3555 0.03125 2.3281 0.09375 2.9219 0.070312 0.59375 0.19531 1.0273 0.375 1.2969 0.21875 0.35547 0.50391 0.625 0.85938 0.8125 0.35156 0.1875 0.75781 0.28125 1.2188 0.28125 1.125 0 2.0039-0.42578 2.6406-1.2812 0.64453-0.86328 0.96875-2.0625 0.96875-3.5938v-8.3125h5.375v16.828h-5.375v-2.4375c-0.8125 0.98047-1.6719 1.7031-2.5781 2.1719s-1.9023 0.70312-2.9844 0.70312c-1.9492 0-3.4336-0.59375-4.4531-1.7812-1.0117-1.1953-1.5156-2.9297-1.5156-5.2031z"
         id="path53" />
    </symbol>
    <symbol
       id="n"
       overflow="visible">
      <path
         d="m19.5-10.25v10.25h-5.4062v-7.8438c0-1.4453-0.039062-2.4453-0.10938-3-0.0625-0.55078-0.17188-0.95703-0.32812-1.2188-0.21094-0.35156-0.49609-0.625-0.85938-0.8125-0.35547-0.19531-0.76562-0.29688-1.2344-0.29688-1.1172 0-1.9961 0.43359-2.6406 1.2969-0.63672 0.86719-0.95312 2.0625-0.95312 3.5938v8.2812h-5.3906v-16.828h5.3906v2.4688c0.80078-0.97656 1.6562-1.7031 2.5625-2.1719 0.91406-0.46875 1.9258-0.70312 3.0312-0.70312 1.9453 0 3.4219 0.60156 4.4219 1.7969 1.0078 1.1875 1.5156 2.918 1.5156 5.1875z"
         id="path56" />
    </symbol>
    <symbol
       id="m"
       overflow="visible">
      <path
         d="m2.8281-22.422h9.5938c2.8516 0 5.0391 0.63672 6.5625 1.9062 1.5312 1.2617 2.2969 3.0625 2.2969 5.4062 0 2.3555-0.76562 4.168-2.2969 5.4375-1.5234 1.2617-3.7109 1.8906-6.5625 1.8906h-3.8125v7.7812h-5.7812zm5.7812 4.1875v6.2656h3.2031c1.1133 0 1.9766-0.26953 2.5938-0.8125 0.61328-0.55078 0.92188-1.3281 0.92188-2.3281s-0.30859-1.7695-0.92188-2.3125c-0.61719-0.53906-1.4805-0.8125-2.5938-0.8125z"
         id="path59" />
    </symbol>
    <symbol
       id="l"
       overflow="visible">
      <path
         d="m2.5781-16.828h5.3906v16.531c0 2.25-0.54297 3.9688-1.625 5.1562-1.0859 1.1875-2.6523 1.7812-4.7031 1.7812h-2.6562v-3.5312h0.92188c1.0195 0 1.7188-0.23047 2.0938-0.6875 0.38281-0.46094 0.57812-1.3672 0.57812-2.7188zm0-6.5469h5.3906v4.3906h-5.3906z"
         id="path62" />
    </symbol>
    <symbol
       id="k"
       overflow="visible">
      <path
         d="m16.172-16.297v4.3906c-0.73047-0.5-1.4648-0.86719-2.2031-1.1094-0.73047-0.25-1.4922-0.375-2.2812-0.375-1.5 0-2.6719 0.44531-3.5156 1.3281-0.83594 0.875-1.25 2.1016-1.25 3.6719 0 1.5742 0.41406 2.7969 1.25 3.6719 0.84375 0.875 2.0156 1.3125 3.5156 1.3125 0.84375 0 1.6406-0.125 2.3906-0.375 0.75781-0.25 1.457-0.61719 2.0938-1.1094v4.3906c-0.83594 0.3125-1.6875 0.54688-2.5625 0.70312-0.86719 0.15625-1.7305 0.23438-2.5938 0.23438-3.043 0-5.418-0.77344-7.125-2.3281-1.7109-1.5625-2.5625-3.7266-2.5625-6.5 0-2.7812 0.85156-4.9453 2.5625-6.5 1.707-1.5625 4.082-2.3438 7.125-2.3438 0.875 0 1.7383 0.078125 2.5938 0.23438 0.86328 0.15625 1.7188 0.39062 2.5625 0.70312z"
         id="path65" />
    </symbol>
  </defs>
  <path
     d="m 422.21827,343.6016 c 0.009,-0.009 0.0247,-0.009 0.034,-0.0247 -0.11733,-0.40448 -0.20378,-0.82749 -0.32111,-1.22578 -0.0154,-0.009 -0.034,-0.0185 -0.0679,-0.0278 l -63.84419,-28.97978 c -0.68235,5.09755 -1.16405,10.26275 -1.16405,15.55221 0,27.39578 9.60197,52.54679 25.53752,72.40596 z"
     id="path70"
     style="fill:#ffffff;stroke-width:0.790415" />
  <path
     d="m 472.29106,381.53361 c -1.60865,-0.0278 -3.19565,-0.0926 -4.76098,-0.24391 l -49.57404,49.70999 c 16.32997,8.8147 35.01301,13.83226 54.82871,13.83226 15.32062,0 29.92432,-3.05978 43.3187,-8.48116 l -43.80954,-54.79788 c -0.003,-0.009 -0.003,-0.0185 -0.003,-0.0185 z"
     id="path72"
     style="fill:#ffffff;stroke-width:0.790415" />
  <path
     d="m 439.91566,328.89988 c 0,18.12738 14.74915,32.8702 32.86072,32.8702 18.11473,0 32.86071,-14.74282 32.86071,-32.8702 0,-18.10841 -14.74282,-32.85123 -32.86071,-32.85123 -18.1179,-0.003 -32.86072,14.73966 -32.86072,32.85123 z"
     id="path74"
     style="fill:#ffffff;stroke-width:0.790415" />
  <path
     d="m 441.40164,286.73124 c 0.63295,-0.48166 1.25044,-0.9911 1.91739,-1.43879 v -0.0247 l 6.30791,-69.95489 c -32.40069,6.59506 -59.81861,26.80613 -76.28453,54.30704 l 67.95751,17.08324 c 0.0278,-0.003 0.0617,0.0154 0.10189,0.0278 z"
     id="path76"
     style="fill:#ffffff;stroke-width:0.790415" />
  <path
     d="m 521.42326,349.00804 c 0,0.009 0.009,0.009 0.0185,0.0278 l 33.29939,61.76935 c 20.97367,-20.99817 33.96018,-49.95976 33.96018,-81.91071 0,-3.5507 -0.21304,-7.04892 -0.52488,-10.522 l -65.11676,26.15799 c -0.47857,1.54068 -1.02817,3.01962 -1.63639,4.47699 z"
     id="path78"
     style="fill:#ffffff;stroke-width:0.790415" />
  <path
     d="m 502.23988,285.29268 c 1.30292,0.87689 2.56269,1.834 3.78538,2.83127 0.0154,0 0.0278,-0.0185 0.0494,-0.0185 l 68.77875,-14.101 c -16.08652,-29.76703 -44.7944,-51.75084 -78.91503,-58.70096 l 6.30482,69.95489 c -0.003,0.009 -0.003,0.0185 -0.003,0.034 z"
     id="path80"
     style="fill:#ffffff;stroke-width:0.790415" />
  <path
     d="m 472.78112,545.22855 c 119.28943,0 216.33658,-97.04715 216.33658,-216.33658 -0.006,-119.28152 -97.05506,-216.32867 -216.33658,-216.32867 -119.29733,0 -216.33658,97.04715 -216.33658,216.33658 0,119.28152 97.03925,216.33658 216.33658,216.33658 z m 0,-352.04292 c 74.83333,0 135.71425,60.8746 135.71425,135.70634 0,74.83649 -60.88962,135.72216 -135.71425,135.72216 -74.83017,0 -135.70635,-60.88962 -135.70635,-135.71425 -0.003,-74.83017 60.87144,-135.71425 135.70635,-135.71425 z"
     id="path82"
     style="fill:#ffffff;fill-opacity:0.5;stroke-width:0.790415" />
  <path
     style="color:#000000;font-style:normal;font-variant:normal;font-weight:normal;font-stretch:normal;font-size:medium;line-height:normal;font-family:sans-serif;font-variant-ligatures:normal;font-variant-position:normal;font-variant-caps:normal;font-variant-numeric:normal;font-variant-alternates:normal;font-variant-east-asian:normal;font-feature-settings:normal;font-variation-settings:normal;text-indent:0;text-align:start;text-decoration:none;text-decoration-line:none;text-decoration-style:solid;text-decoration-color:#000000;letter-spacing:normal;word-spacing:normal;text-transform:none;writing-mode:lr-tb;direction:ltr;text-orientation:mixed;dominant-baseline:auto;baseline-shift:baseline;text-anchor:start;white-space:normal;shape-padding:0;shape-margin:0;inline-size:0;clip-rule:nonzero;display:inline;overflow:visible;visibility:visible;opacity:1;isolation:auto;mix-blend-mode:normal;color-interpolation:sRGB;color-interpolation-filters:linearRGB;solid-color:#000000;solid-opacity:1;vector-effect:none;fill:#ffffff;fill-opacity:0.5;fill-rule:nonzero;stroke:none;stroke-width:1.5;stroke-linecap:butt;stroke-linejoin:miter;stroke-miterlimit:4;stroke-dasharray:1.5, 4.5;stroke-dashoffset:0;stroke-opacity:1;color-rendering:auto;image-rendering:auto;shape-rendering:auto;text-rendering:auto;enable-background:accumulate;stop-color:#000000;stop-opacity:1"
     d="m 285.31711,526.77082 c 0,6.33833 -6.37713,16.40879 -17.78034,16.40879 -33.14464,0 -208.835213,0.42024 -237.241103,0.48039 -16.9089,-0.0887 -21.9952002,-9.51962 -21.9952002,-16.88918 0,-7.94089 5.5219502,-16.37784 22.4310602,-16.37784 27.21531,0 205.555003,-8.1e-4 234.197003,-8.1e-4 14.14821,0.11377 20.38858,9.28755 20.38858,16.37865 z"
     id="path1035"
     sodipodi:nodetypes="sccsccs" />
  <path
     style="color:#000000;font-style:normal;font-variant:normal;font-weight:normal;font-stretch:normal;font-size:medium;line-height:normal;font-family:sans-serif;font-variant-ligatures:normal;font-variant-position:normal;font-variant-caps:normal;font-variant-numeric:normal;font-variant-alternates:normal;font-variant-east-asian:normal;font-feature-settings:normal;font-variation-settings:normal;text-indent:0;text-align:start;text-decoration:none;text-decoration-line:none;text-decoration-style:solid;text-decoration-color:#000000;letter-spacing:normal;word-spacing:normal;text-transform:none;writing-mode:lr-tb;direction:ltr;text-orientation:mixed;dominant-baseline:auto;baseline-shift:baseline;text-anchor:start;white-space:normal;shape-padding:0;shape-margin:0;inline-size:0;clip-rule:nonzero;display:inline;overflow:visible;visibility:visible;opacity:1;isolation:auto;mix-blend-mode:normal;color-interpolation:sRGB;color-interpolation-filters:linearRGB;solid-color:#000000;solid-opacity:1;vector-effect:none;fill:#ffffff;fill-opacity:0.5;fill-rule:nonzero;stroke:none;stroke-width:1.5;stroke-linecap:butt;stroke-linejoin:miter;stroke-miterlimit:4;stroke-dasharray:1.5, 4.5;stroke-dashoffset:0;stroke-opacity:1;color-rendering:auto;image-rendering:auto;shape-rendering:auto;text-rendering:auto;enable-background:accumulate;stop-color:#000000"
     d="m 217.97744,429.95377 c 0,6.33834 -6.37713,16.40879 -17.78034,16.40879 -33.14464,0 -87.33521,0.42024 -115.741101,0.48039 -16.90889,-0.0887 -21.9952,-9.51962 -21.9952,-16.88918 0,-7.94088 5.52195,-16.37784 22.43106,-16.37784 27.215311,0 84.055001,-8.1e-4 112.697001,-8.1e-4 14.14821,0.11378 20.38858,9.28756 20.38858,16.37865 z"
     id="path1035-3"
     sodipodi:nodetypes="sccsccs" />
  <path
     style="color:#000000;font-style:normal;font-variant:normal;font-weight:normal;font-stretch:normal;font-size:medium;line-height:normal;font-family:sans-serif;font-variant-ligatures:normal;font-variant-position:normal;font-variant-caps:normal;font-variant-numeric:normal;font-variant-alternates:normal;font-variant-east-asian:normal;font-feature-settings:normal;font-variation-settings:normal;text-indent:0;text-align:start;text-decoration:none;text-decoration-line:none;text-decoration-style:solid;text-decoration-color:#000000;letter-spacing:normal;word-spacing:normal;text-transform:none;writing-mode:lr-tb;direction:ltr;text-orientation:mixed;dominant-baseline:auto;baseline-shift:baseline;text-anchor:start;white-space:normal;shape-padding:0;shape-margin:0;inline-size:0;clip-rule:nonzero;display:inline;overflow:visible;visibility:visible;opacity:1;isolation:auto;mix-blend-mode:normal;color-interpolation:sRGB;color-interpolation-filters:linearRGB;solid-color:#000000;solid-opacity:1;vector-effect:none;fill:#ffffff;fill-opacity:0.5;fill-rule:nonzero;stroke:none;stroke-width:1.5;stroke-linecap:butt;stroke-linejoin:miter;stroke-miterlimit:4;stroke-dasharray:1.5, 4.5;stroke-dashoffset:0;stroke-opacity:1;color-rendering:auto;image-rendering:auto;shape-rendering:auto;text-rendering:auto;enable-background:accumulate;stop-color:#000000"
     d="m 204.54871,332.66754 c 0,6.33833 -6.37713,16.40879 -17.78034,16.40879 -33.14464,0 -43.83521,0.42024 -72.24111,0.48039 -16.908885,-0.0887 -21.995195,-9.51962 -21.995195,-16.88918 0,-7.94089 5.52195,-16.37784 22.431065,-16.37784 27.21531,0 40.555,-8.1e-4 69.197,-8.1e-4 14.14821,0.11377 20.38858,9.28755 20.38858,16.37865 z"
     id="path1035-5"
     sodipodi:nodetypes="sccsccs" />
</svg>
