<?xml version="1.0" encoding="UTF-8" standalone="no"?>
<svg
   xmlns:dc="http://purl.org/dc/elements/1.1/"
   xmlns:cc="http://creativecommons.org/ns#"
   xmlns:rdf="http://www.w3.org/1999/02/22-rdf-syntax-ns#"
   xmlns:svg="http://www.w3.org/2000/svg"
   xmlns="http://www.w3.org/2000/svg"
   xmlns:sodipodi="http://sodipodi.sourceforge.net/DTD/sodipodi-0.dtd"
   xmlns:inkscape="http://www.inkscape.org/namespaces/inkscape"
   width="700pt"
   height="700pt"
   version="1.1"
   viewBox="0 0 700 700"
   id="svg12"
   sodipodi:docname="Ultrasonic.svg"
   inkscape:version="1.0.2-2 (e86c870879, 2021-01-15)">
  <metadata
     id="metadata18">
    <rdf:RDF>
      <cc:Work
         rdf:about="">
        <dc:format>image/svg+xml</dc:format>
        <dc:type
           rdf:resource="http://purl.org/dc/dcmitype/StillImage" />
        <dc:title></dc:title>
      </cc:Work>
    </rdf:RDF>
  </metadata>
  <defs
     id="defs16" />
  <sodipodi:namedview
     pagecolor="#555a3c"
     bordercolor="#666666"
     borderopacity="1"
     objecttolerance="10"
     gridtolerance="10"
     guidetolerance="10"
     inkscape:pageopacity="0"
     inkscape:pageshadow="2"
     inkscape:window-width="2560"
     inkscape:window-height="1369"
     id="namedview14"
     showgrid="false"
     inkscape:zoom="0.63791133"
     inkscape:cx="252.74663"
     inkscape:cy="405.02588"
     inkscape:window-x="1912"
     inkscape:window-y="-8"
     inkscape:window-maximized="1"
     inkscape:current-layer="svg12"
     inkscape:document-rotation="0" />
  <path
     d="m 549.24391,139.69162 c -6.20671,0 -12.44111,-2.29117 -17.25057,-6.92268 -99.6287,-95.706755 -261.69198,-95.706755 -361.32491,0 -9.80159,9.42669 -25.45673,9.19207 -34.97614,-0.47461 -9.51999,-9.69399 -9.30455,-25.16018 0.48041,-34.558943 118.66752,-113.987551 311.64979,-113.987551 430.31026,0 9.78502,9.404903 10.00033,24.871103 0.4804,34.558943 -4.84833,4.91515 -11.27599,7.39737 -17.72556,7.39737 z"
     id="path2"
     style="fill:#ffffff;fill-opacity:0.5;stroke-width:1.40507" />
  <path
     d="m 475.02811,213.01034 c -6.27851,0 -12.58459,-2.36213 -17.39477,-7.06459 -58.61068,-57.32963 -153.98717,-57.32963 -212.59644,0 -9.68566,9.47585 -25.34082,9.44849 -34.98179,-0.19092 -9.61386,-9.56859 -9.51999,-25.06104 0.19327,-34.55896 77.78805,-76.08946 204.38323,-76.08946 282.17552,0 9.71323,9.49764 9.80709,24.99121 0.19327,34.55896 -4.85937,4.84434 -11.2097,7.25547 -17.58702,7.25547 z"
     id="path4"
     style="fill:#ffffff;fill-opacity:0.5;stroke-width:1.40507" />
  <path
     d="m 400.81232,286.32903 c -6.57114,0 -13.14242,-2.58038 -17.99556,-7.68645 -17.00745,-17.80597 -45.94878,-17.80597 -62.95621,0 -9.37083,9.83044 -25.05384,10.31043 -34.95918,1.02558 -9.95071,-9.25757 -10.41452,-24.72306 -1.03814,-34.53659 17.92489,-18.80451 41.89023,-29.16409 67.47276,-29.16409 25.58255,0 49.54929,10.35958 67.47277,29.16409 9.37084,9.8085 8.91805,25.2747 -1.03814,34.53659 -4.75449,4.46239 -10.86732,6.66084 -16.95796,6.66084 z"
     id="path6"
     style="fill:#ffffff;fill-opacity:0.5;stroke-width:1.40507" />
  <path
     d="m 351.36339,696.49485 c -7.51545,0 -14.9308,-3.36596 -19.78522,-9.7377 l -63.53579,-83.43809 -57.32994,18.83104 c -10.5084,3.40952 -22.1771,-0.4746 -28.36034,-9.6176 C 165.27258,587.30807 113.28336,510.47565 61.149938,500.21382 L 24.91425,493.07831 C 13.334614,490.80891 5.0018053,480.76035 5.0018053,469.11356 c 0,-56.46798 59.0192197,-96.2095 144.1058647,-97.51808 l 45.58971,-15.86896 c 7.48788,-2.62396 15.92034,-1.47837 22.51919,3.1041 6.54357,4.57691 10.43107,12.02344 10.43107,19.94968 0,28.15997 24.47283,65.89467 49.4772,65.89467 h 2.29716 c 6.97981,-35.84657 29.95632,-65.96449 71.91863,-65.96449 41.79551,0 64.77272,29.90565 71.82534,65.1084 h 2.39102 c 25.48924,0 49.4772,-36.63701 49.4772,-65.03718 0,-7.85013 3.81568,-15.25309 10.29296,-19.83515 6.42765,-4.60429 14.71027,-5.8972 22.29724,-3.3386 l 45.7551,15.133 c 85.18843,1.23834 144.30378,41.0012 144.30378,97.51807 0,11.64692 -8.33266,21.69534 -19.90679,23.96474 l -36.23568,7.13552 c -52.13342,10.2614 -104.12264,87.08725 -121.20218,112.31867 -6.20669,9.14305 -17.87964,13.00534 -28.36033,9.6176 l -57.32993,-18.83104 -60.87958,79.95231 c -1.66765,3.50771 -4.2023,6.68276 -7.53749,9.16484 -4.47288,3.3168 -9.69118,4.91515 -14.86578,4.91515 z"
     id="path8"
     style="fill:#ffffff;stroke-width:1.40507"
     sodipodi:nodetypes="cccccccscccsscscsscccsccccccccc" />
</svg>
