<?xml version="1.0" encoding="UTF-8" standalone="no"?>
<svg
   xmlns:dc="http://purl.org/dc/elements/1.1/"
   xmlns:cc="http://creativecommons.org/ns#"
   xmlns:rdf="http://www.w3.org/1999/02/22-rdf-syntax-ns#"
   xmlns:svg="http://www.w3.org/2000/svg"
   xmlns="http://www.w3.org/2000/svg"
   xmlns:sodipodi="http://sodipodi.sourceforge.net/DTD/sodipodi-0.dtd"
   xmlns:inkscape="http://www.inkscape.org/namespaces/inkscape"
   width="700pt"
   height="700pt"
   version="1.1"
   viewBox="0 0 700 700"
   id="svg96"
   sodipodi:docname="van.svg"
   inkscape:version="1.0.2-2 (e86c870879, 2021-01-15)">
  <metadata
     id="metadata100">
    <rdf:RDF>
      <cc:Work
         rdf:about="">
        <dc:format>image/svg+xml</dc:format>
        <dc:type
           rdf:resource="http://purl.org/dc/dcmitype/StillImage" />
        <dc:title></dc:title>
      </cc:Work>
    </rdf:RDF>
  </metadata>
  <sodipodi:namedview
     pagecolor="#2b2525"
     bordercolor="#666666"
     borderopacity="1"
     objecttolerance="10"
     gridtolerance="10"
     guidetolerance="10"
     inkscape:pageopacity="0"
     inkscape:pageshadow="2"
     inkscape:window-width="1920"
     inkscape:window-height="1009"
     id="namedview98"
     showgrid="false"
     inkscape:zoom="0.45107143"
     inkscape:cx="306.08268"
     inkscape:cy="553.47657"
     inkscape:window-x="-8"
     inkscape:window-y="-8"
     inkscape:window-maximized="1"
     inkscape:current-layer="svg96" />
  <defs
     id="defs44">
    <symbol
       id="n"
       overflow="visible">
      <path
         d="m29.312-1.75c-1.5117 0.78125-3.0898 1.3711-4.7344 1.7656-1.6367 0.40625-3.3398 0.60938-5.1094 0.60938-5.3125 0-9.5273-1.4844-12.641-4.4531-3.1055-2.9688-4.6562-7-4.6562-12.094s1.5508-9.125 4.6562-12.094c3.1133-2.9688 7.3281-4.4531 12.641-4.4531 1.7695 0 3.4727 0.19922 5.1094 0.59375 1.6445 0.39844 3.2227 0.99219 4.7344 1.7812v6.5938c-1.5312-1.0391-3.0391-1.8008-4.5156-2.2812-1.4805-0.48828-3.0391-0.73438-4.6719-0.73438-2.9375 0-5.2461 0.94531-6.9219 2.8281-1.6797 1.875-2.5156 4.4648-2.5156 7.7656 0 3.293 0.83594 5.8828 2.5156 7.7656 1.6758 1.875 3.9844 2.8125 6.9219 2.8125 1.6328 0 3.1914-0.23828 4.6719-0.71875 1.4766-0.48828 2.9844-1.2539 4.5156-2.2969z"
         id="path2" />
    </symbol>
    <symbol
       id="b"
       overflow="visible">
      <path
         d="m21.453-17.406c-0.67969-0.3125-1.3516-0.53906-2.0156-0.6875-0.65625-0.15625-1.3203-0.23438-1.9844-0.23438-1.9688 0-3.4844 0.63281-4.5469 1.8906-1.0547 1.2617-1.5781 3.0703-1.5781 5.4219v11.016h-7.6562v-23.922h7.6562v3.9219c0.97656-1.5625 2.1016-2.7031 3.375-3.4219 1.2812-0.71875 2.8125-1.0781 4.5938-1.0781 0.25 0 0.52344 0.011719 0.82812 0.03125 0.30078 0.023438 0.73438 0.070312 1.2969 0.14062z"
         id="path5" />
    </symbol>
    <symbol
       id="a"
       overflow="visible">
      <path
         d="m27.562-12.031v2.1875h-17.891c0.1875 1.793 0.83203 3.1367 1.9375 4.0312 1.1133 0.89844 2.6719 1.3438 4.6719 1.3438 1.6016 0 3.25-0.23438 4.9375-0.70312 1.6875-0.47656 3.4219-1.2031 5.2031-2.1719v5.8906c-1.8047 0.6875-3.6094 1.2031-5.4219 1.5469-1.8125 0.35156-3.6211 0.53125-5.4219 0.53125-4.3359 0-7.7031-1.0977-10.109-3.2969-2.3984-2.207-3.5938-5.2969-3.5938-9.2656 0-3.9062 1.1758-6.9727 3.5312-9.2031 2.3633-2.2383 5.6094-3.3594 9.7344-3.3594 3.7578 0 6.7695 1.1367 9.0312 3.4062 2.2578 2.2617 3.3906 5.2812 3.3906 9.0625zm-7.8594-2.5312c0-1.457-0.42969-2.6289-1.2812-3.5156-0.84375-0.89453-1.9492-1.3438-3.3125-1.3438-1.4922 0-2.6992 0.41797-3.625 1.25-0.91797 0.83594-1.4922 2.0391-1.7188 3.6094z"
         id="path8" />
    </symbol>
    <symbol
       id="d"
       overflow="visible">
      <path
         d="m14.391-10.766c-1.5938 0-2.793 0.27344-3.5938 0.8125-0.80469 0.54297-1.2031 1.3398-1.2031 2.3906 0 0.96875 0.32031 1.7305 0.96875 2.2812 0.64453 0.54297 1.5469 0.8125 2.7031 0.8125 1.4375 0 2.6445-0.51562 3.625-1.5469 0.98828-1.0312 1.4844-2.3203 1.4844-3.875v-0.875zm11.688-2.8906v13.656h-7.7031v-3.5469c-1.0312 1.4492-2.1875 2.5078-3.4688 3.1719s-2.8398 1-4.6719 1c-2.4805 0-4.4961-0.72266-6.0469-2.1719-1.543-1.4453-2.3125-3.3203-2.3125-5.625 0-2.8125 0.96094-4.8672 2.8906-6.1719 1.9375-1.3125 4.9688-1.9688 9.0938-1.9688h4.5156v-0.60938c0-1.207-0.48047-2.0938-1.4375-2.6562-0.94922-0.5625-2.4375-0.84375-4.4688-0.84375-1.6367 0-3.1562 0.16797-4.5625 0.5-1.4062 0.32422-2.7188 0.8125-3.9375 1.4688v-5.8281c1.6445-0.40625 3.2891-0.70703 4.9375-0.90625 1.6562-0.20703 3.3047-0.3125 4.9531-0.3125 4.3203 0 7.4375 0.85547 9.3438 2.5625 1.9141 1.6992 2.875 4.4609 2.875 8.2812z"
         id="path11" />
    </symbol>
    <symbol
       id="c"
       overflow="visible">
      <path
         d="m12.031-30.719v6.7969h7.875v5.4688h-7.875v10.141c0 1.1172 0.21875 1.8711 0.65625 2.2656 0.4375 0.38672 1.3125 0.57812 2.625 0.57812h3.9375v5.4688h-6.5625c-3.0234 0-5.1641-0.62891-6.4219-1.8906-1.2617-1.2578-1.8906-3.3984-1.8906-6.4219v-10.141h-3.7969v-5.4688h3.7969v-6.7969z"
         id="path14" />
    </symbol>
    <symbol
       id="h"
       overflow="visible">
      <path
         d="m19.953-20.422v-12.812h7.6875v33.234h-7.6875v-3.4531c-1.0547 1.4062-2.2148 2.4375-3.4844 3.0938-1.2734 0.65625-2.7422 0.98438-4.4062 0.98438-2.9492 0-5.3711-1.1719-7.2656-3.5156-1.8867-2.3438-2.8281-5.3594-2.8281-9.0469s0.94141-6.7031 2.8281-9.0469c1.8945-2.3438 4.3164-3.5156 7.2656-3.5156 1.6562 0 3.1172 0.33594 4.3906 1 1.2812 0.65625 2.4453 1.6836 3.5 3.0781zm-5.0469 15.484c1.6445 0 2.8945-0.59766 3.75-1.7969 0.86328-1.1953 1.2969-2.9297 1.2969-5.2031 0-2.2812-0.43359-4.0195-1.2969-5.2188-0.85547-1.1953-2.1055-1.7969-3.75-1.7969-1.625 0-2.8711 0.60156-3.7344 1.7969-0.85547 1.1992-1.2812 2.9375-1.2812 5.2188 0 2.2734 0.42578 4.0078 1.2812 5.2031 0.86328 1.1992 2.1094 1.7969 3.7344 1.7969z"
         id="path17" />
    </symbol>
    <symbol
       id="g"
       overflow="visible">
      <path
         d="m16.406-4.9375c1.6328 0 2.8828-0.59766 3.75-1.7969 0.86328-1.1953 1.2969-2.9297 1.2969-5.2031 0-2.2812-0.43359-4.0195-1.2969-5.2188-0.86719-1.1953-2.1172-1.7969-3.75-1.7969-1.6367 0-2.8906 0.60547-3.7656 1.8125-0.875 1.1992-1.3125 2.9336-1.3125 5.2031 0 2.2617 0.4375 3.9961 1.3125 5.2031 0.875 1.1992 2.1289 1.7969 3.7656 1.7969zm-5.0781-15.484c1.0508-1.3945 2.2188-2.4219 3.5-3.0781 1.2812-0.66406 2.7539-1 4.4219-1 2.9453 0 5.3672 1.1719 7.2656 3.5156 1.8945 2.3438 2.8438 5.3594 2.8438 9.0469s-0.94922 6.7031-2.8438 9.0469c-1.8984 2.3438-4.3203 3.5156-7.2656 3.5156-1.668 0-3.1406-0.33594-4.4219-1s-2.4492-1.6914-3.5-3.0781v3.4531h-7.6562v-33.234h7.6562z"
         id="path20" />
    </symbol>
    <symbol
       id="f"
       overflow="visible">
      <path
         d="m0.53125-23.922h7.6562l6.4219 16.234 5.4688-16.234h7.6562l-10.062 26.188c-1.0117 2.6641-2.1953 4.5234-3.5469 5.5781-1.3438 1.0625-3.1211 1.5938-5.3281 1.5938h-4.4219v-5.0156h2.3906c1.3008 0 2.2422-0.21094 2.8281-0.625 0.59375-0.40625 1.0547-1.1484 1.3906-2.2188l0.20312-0.65625z"
         id="path23" />
    </symbol>
    <symbol
       id="e"
       overflow="visible">
      <path
         d="m0.21875-31.891h8.2656l8.4531 23.531 8.4375-23.531h8.2656l-11.812 31.891h-9.7969z"
         id="path26" />
    </symbol>
    <symbol
       id="m"
       overflow="visible">
      <path
         d="m23-23.172v6.2344c-1.0312-0.71875-2.0742-1.2422-3.125-1.5781-1.043-0.34375-2.125-0.51562-3.25-0.51562-2.1367 0-3.8047 0.625-5 1.875-1.1875 1.2422-1.7812 2.9805-1.7812 5.2188 0 2.2305 0.59375 3.9688 1.7812 5.2188 1.1953 1.25 2.8633 1.875 5 1.875 1.1953 0 2.332-0.17578 3.4062-0.53125 1.0703-0.36328 2.0625-0.89453 2.9688-1.5938v6.2656c-1.1875 0.4375-2.4023 0.76562-3.6406 0.98438-1.2305 0.22656-2.4648 0.34375-3.7031 0.34375-4.3125 0-7.6875-1.1094-10.125-3.3281s-3.6562-5.2969-3.6562-9.2344c0-3.9453 1.2188-7.0234 3.6562-9.2344 2.4375-2.2188 5.8125-3.3281 10.125-3.3281 1.25 0 2.4844 0.10938 3.7031 0.32812s2.4297 0.55469 3.6406 1z"
         id="path29" />
    </symbol>
    <symbol
       id="l"
       overflow="visible">
      <path
         d="m15.062-19.031c-1.6992 0-2.9961 0.60938-3.8906 1.8281-0.88672 1.2188-1.3281 2.9766-1.3281 5.2656 0 2.293 0.44141 4.0469 1.3281 5.2656 0.89453 1.2188 2.1914 1.8281 3.8906 1.8281 1.6641 0 2.9375-0.60938 3.8125-1.8281 0.88281-1.2188 1.3281-2.9727 1.3281-5.2656 0-2.2891-0.44531-4.0469-1.3281-5.2656-0.875-1.2188-2.1484-1.8281-3.8125-1.8281zm0-5.4688c4.1133 0 7.3281 1.1094 9.6406 3.3281s3.4688 5.2969 3.4688 9.2344c0 3.9297-1.1562 7.0078-3.4688 9.2344-2.3125 2.2188-5.5273 3.3281-9.6406 3.3281-4.1367 0-7.3711-1.1094-9.7031-3.3281-2.3242-2.2266-3.4844-5.3047-3.4844-9.2344 0-3.9375 1.1602-7.0156 3.4844-9.2344 2.332-2.2188 5.5664-3.3281 9.7031-3.3281z"
         id="path32" />
    </symbol>
    <symbol
       id="k"
       overflow="visible">
      <path
         d="m22.359-23.172v5.7969c-1.6367-0.67578-3.2148-1.1875-4.7344-1.5312-1.5234-0.34375-2.9609-0.51562-4.3125-0.51562-1.4609 0-2.543 0.18359-3.25 0.54688-0.69922 0.36719-1.0469 0.92188-1.0469 1.6719 0 0.61719 0.26562 1.0898 0.79688 1.4219 0.53125 0.32422 1.4883 0.5625 2.875 0.71875l1.3438 0.1875c3.9141 0.5 6.5508 1.3242 7.9062 2.4688 1.3516 1.1367 2.0312 2.9219 2.0312 5.3594 0 2.5547-0.94531 4.4688-2.8281 5.75-1.875 1.2812-4.6797 1.9219-8.4062 1.9219-1.5859 0-3.2188-0.125-4.9062-0.375s-3.4219-0.625-5.2031-1.125v-5.8125c1.5195 0.74219 3.082 1.2969 4.6875 1.6719 1.6016 0.36719 3.2344 0.54688 4.8906 0.54688 1.4883 0 2.6094-0.20312 3.3594-0.60938 0.75781-0.41406 1.1406-1.0312 1.1406-1.8438 0-0.6875-0.26172-1.1953-0.78125-1.5312-0.52344-0.33203-1.5586-0.59375-3.1094-0.78125l-1.3438-0.17188c-3.4062-0.42578-5.793-1.2109-7.1562-2.3594-1.3672-1.1562-2.0469-2.9102-2.0469-5.2656 0-2.5312 0.86719-4.4062 2.6094-5.625 1.7383-1.2266 4.3984-1.8438 7.9844-1.8438 1.4062 0 2.8828 0.10938 4.4375 0.32812 1.5508 0.21094 3.2383 0.54297 5.0625 1z"
         id="path35" />
    </symbol>
    <symbol
       id="j"
       overflow="visible">
      <path
         d="m4.0156-31.891h10.469l7.2656 17.062 7.2969-17.062h10.453v31.891h-7.7812v-23.328l-7.3438 17.203h-5.2188l-7.3438-17.203v23.328h-7.7969z"
         id="path38" />
    </symbol>
    <symbol
       id="i"
       overflow="visible">
      <path
         d="m3.6719-33.234h7.6562v18.094l8.7969-8.7812h8.8906l-11.688 10.969 12.594 12.953h-9.2656l-9.3281-9.9688v9.9688h-7.6562z"
         id="path41" />
    </symbol>
  </defs>
  <path
     d="m 550.41854,423.58856 c -34.17834,0 -61.79327,27.61492 -61.79327,61.79325 0,34.17835 27.60526,61.79327 61.79327,61.79327 34.188,0 61.79325,-27.60526 61.79325,-61.79327 -0.009,-34.18799 -27.61491,-61.79325 -61.79325,-61.79325 z m 0,83.36896 c -11.93217,0 -21.58054,-9.64861 -21.58054,-21.58053 0,-11.93217 9.64861,-21.58054 21.58054,-21.58054 11.93215,0 21.58053,9.64861 21.58053,21.58054 -0.009,11.92745 -9.65803,21.58053 -21.58053,21.58053 z"
     id="path46"
     style="fill:#ffffff;fill-opacity:0.5;stroke-width:1.20784" />
  <path
     d="m 149.4629,423.58856 c -34.04185,0 -61.783585,27.61492 -61.783585,61.79325 0,34.17835 27.742945,61.79327 61.783585,61.79327 34.17834,0 61.9213,-27.60526 61.9213,-61.79327 0,-34.18799 -27.74296,-61.79325 -61.9213,-61.79325 z m 0,83.36896 c -11.93216,0 -21.58053,-9.64861 -21.58053,-21.58053 0,-11.93217 9.64862,-21.58054 21.58053,-21.58054 11.93192,0 21.71702,9.64861 21.71702,21.58054 -0.009,11.92745 -9.79488,21.58053 -21.71702,21.58053 z"
     id="path48"
     style="fill:#ffffff;fill-opacity:0.5;stroke-width:1.20784" />
  <path
     d="m 656.97446,385.38448 c -9.28058,0 -16.80592,-7.52547 -16.80592,-16.70689 0,-9.28059 7.53488,-16.80593 16.80592,-16.80593 h 29.57284 c -4.13312,-17.26853 -15.60775,-32.32913 -31.86652,-40.5944 -12.30069,-6.34118 -22.13253,-16.52813 -27.82751,-29.10661 L 588.7446,199.52277 c -16.4327,-35.81496 -52.25371,-58.77365 -91.55572,-58.77365 l -464.99547,0.005 c -11.299977,-0.0145 -20.387186,9.1717 -20.387186,20.37226 v 307.19077 c 0,11.29997 9.087088,20.38718 20.387186,20.38718 h 28.832423 c -0.179295,-1.01439 -0.179295,-2.29297 -0.179295,-3.30743 0,-48.94181 39.853992,-88.61584 88.615832,-88.61584 48.9418,0 88.71488,39.67524 88.71488,88.61584 0,1.01439 0,2.29296 -0.0943,3.30743 h 223.83751 c -0.0943,-1.01439 -0.0943,-2.29297 -0.0943,-3.30743 0,-48.94181 39.76944,-88.61584 88.61583,-88.61584 48.86088,0 88.52162,39.67524 88.52162,88.61584 0,1.01439 0,2.29296 -0.0943,3.30743 h 23.87423 c 14.04601,0 25.43959,-11.38018 25.43959,-25.43959 V 385.38689 Z M 410.03092,293.82875 V 180.96667 h 87.1483 c 23.60005,0 45.18059,13.86605 55.00881,35.26782 l 35.07939,76.49512 c 0.27364,0.27366 0.36801,0.73132 0.64639,1.09934 z"
     id="path50"
     style="fill:#ffffff;stroke-width:1.20784" />
</svg>
