<?xml version="1.0" encoding="UTF-8" standalone="no"?>
<svg
   xmlns:dc="http://purl.org/dc/elements/1.1/"
   xmlns:cc="http://creativecommons.org/ns#"
   xmlns:rdf="http://www.w3.org/1999/02/22-rdf-syntax-ns#"
   xmlns:svg="http://www.w3.org/2000/svg"
   xmlns="http://www.w3.org/2000/svg"
   xmlns:sodipodi="http://sodipodi.sourceforge.net/DTD/sodipodi-0.dtd"
   xmlns:inkscape="http://www.inkscape.org/namespaces/inkscape"
   width="700pt"
   height="700pt"
   version="1.1"
   viewBox="0 0 700 700"
   id="svg177"
   sodipodi:docname="weather.svg"
   inkscape:version="1.0.2-2 (e86c870879, 2021-01-15)">
  <metadata
     id="metadata181">
    <rdf:RDF>
      <cc:Work
         rdf:about="">
        <dc:format>image/svg+xml</dc:format>
        <dc:type
           rdf:resource="http://purl.org/dc/dcmitype/StillImage" />
        <dc:title></dc:title>
      </cc:Work>
    </rdf:RDF>
  </metadata>
  <sodipodi:namedview
     pagecolor="#2c2e28"
     bordercolor="#666666"
     borderopacity="1"
     objecttolerance="10"
     gridtolerance="10"
     guidetolerance="10"
     inkscape:pageopacity="0"
     inkscape:pageshadow="2"
     inkscape:window-width="1920"
     inkscape:window-height="1009"
     id="namedview179"
     showgrid="false"
     inkscape:zoom="0.63791133"
     inkscape:cx="395.49933"
     inkscape:cy="576.86125"
     inkscape:window-x="-8"
     inkscape:window-y="-8"
     inkscape:window-maximized="1"
     inkscape:current-layer="svg177" />
  <defs
     id="defs71">
    <symbol
       id="w"
       overflow="visible">
      <path
         d="m3.6562-0.21875c-0.1875 0.09375-0.38672 0.16797-0.59375 0.21875-0.19922 0.050781-0.40625 0.078125-0.625 0.078125-0.66797 0-1.1992-0.17969-1.5938-0.54688-0.38672-0.375-0.57812-0.87891-0.57812-1.5156 0-0.64453 0.19141-1.1484 0.57812-1.5156 0.39453-0.375 0.92578-0.5625 1.5938-0.5625 0.21875 0 0.42578 0.027344 0.625 0.078125 0.20703 0.054687 0.40625 0.125 0.59375 0.21875v0.82812c-0.1875-0.125-0.375-0.21875-0.5625-0.28125-0.17969-0.0625-0.37109-0.09375-0.57812-0.09375-0.36719 0-0.65625 0.12109-0.875 0.35938-0.21094 0.23047-0.3125 0.55469-0.3125 0.96875 0 0.40625 0.10156 0.73047 0.3125 0.96875 0.21875 0.23047 0.50781 0.34375 0.875 0.34375 0.20703 0 0.39844-0.023437 0.57812-0.078125 0.1875-0.0625 0.375-0.16016 0.5625-0.29688z"
         id="path2" />
    </symbol>
    <symbol
       id="c"
       overflow="visible">
      <path
         d="m2.6875-2.1719c-0.085938-0.039063-0.16797-0.070313-0.25-0.09375-0.085938-0.019531-0.16797-0.03125-0.25-0.03125-0.25 0-0.44531 0.085937-0.57812 0.25-0.125 0.15625-0.1875 0.38281-0.1875 0.67188v1.375h-0.96875v-2.9844h0.96875v0.48438c0.11328-0.19531 0.25-0.33594 0.40625-0.42188 0.16406-0.09375 0.35938-0.14062 0.57812-0.14062h0.10938c0.039063 0 0.09375 0.007812 0.15625 0.015625z"
         id="path5" />
    </symbol>
    <symbol
       id="b"
       overflow="visible">
      <path
         d="m3.4375-1.5v0.26562h-2.2344c0.03125 0.23047 0.11328 0.40234 0.25 0.51562 0.13281 0.10547 0.32812 0.15625 0.57812 0.15625 0.20703 0 0.41406-0.023438 0.625-0.078125 0.20703-0.0625 0.42188-0.15625 0.64062-0.28125v0.73438c-0.21875 0.09375-0.44531 0.16406-0.67188 0.20312-0.23047 0.039062-0.45312 0.0625-0.67188 0.0625-0.54297 0-0.96484-0.13281-1.2656-0.40625-0.30469-0.28125-0.45312-0.67188-0.45312-1.1719 0-0.47656 0.14453-0.85938 0.4375-1.1406 0.30078-0.28125 0.70703-0.42188 1.2188-0.42188 0.46875 0 0.84375 0.14062 1.125 0.42188s0.42188 0.66406 0.42188 1.1406zm-0.96875-0.32812c0-0.17578-0.058594-0.31641-0.17188-0.42188-0.10547-0.11328-0.24219-0.17188-0.40625-0.17188-0.1875 0-0.33984 0.054687-0.45312 0.15625-0.11719 0.10547-0.1875 0.25-0.21875 0.4375z"
         id="path8" />
    </symbol>
    <symbol
       id="k"
       overflow="visible">
      <path
         d="m1.7969-1.3438c-0.19922 0-0.35156 0.039062-0.45312 0.10938-0.09375 0.0625-0.14062 0.16406-0.14062 0.29688 0 0.11719 0.035156 0.21094 0.10938 0.28125 0.082031 0.0625 0.19531 0.09375 0.34375 0.09375 0.17578 0 0.32812-0.0625 0.45312-0.1875s0.1875-0.28516 0.1875-0.48438v-0.10938zm1.4688-0.35938v1.7031h-0.96875v-0.4375c-0.125 0.17969-0.27344 0.30859-0.4375 0.39062-0.15625 0.082031-0.35156 0.125-0.57812 0.125-0.3125 0-0.57031-0.085938-0.76562-0.26562-0.1875-0.1875-0.28125-0.42188-0.28125-0.70312 0-0.35156 0.11719-0.61328 0.35938-0.78125 0.23828-0.16406 0.61719-0.25 1.1406-0.25h0.5625v-0.0625c0-0.15625-0.0625-0.26562-0.1875-0.32812-0.11719-0.070312-0.29688-0.10938-0.54688-0.10938-0.21094 0-0.40234 0.023437-0.57812 0.0625-0.17969 0.042969-0.33984 0.10156-0.48438 0.17188v-0.71875c0.19531-0.050781 0.39844-0.085938 0.60938-0.10938 0.20703-0.03125 0.41406-0.046875 0.625-0.046875 0.53906 0 0.92969 0.10938 1.1719 0.32812 0.23828 0.21094 0.35938 0.55469 0.35938 1.0312z"
         id="path11" />
    </symbol>
    <symbol
       id="d"
       overflow="visible">
      <path
         d="m1.5-3.8438v0.85938h0.98438v0.67188h-0.98438v1.2812c0 0.13672 0.023438 0.23047 0.078125 0.28125 0.0625 0.042969 0.17578 0.0625 0.34375 0.0625h0.48438v0.6875h-0.8125c-0.38672 0-0.65625-0.078125-0.8125-0.23438s-0.23438-0.42188-0.23438-0.79688v-1.2812h-0.46875v-0.67188h0.46875v-0.85938z"
         id="path14" />
    </symbol>
    <symbol
       id="j"
       overflow="visible">
      <path
         d="m2.5-2.5469v-1.6094h0.95312v4.1562h-0.95312v-0.4375c-0.13672 0.17969-0.28125 0.30859-0.4375 0.39062-0.15625 0.082031-0.33984 0.125-0.54688 0.125-0.375 0-0.68359-0.14453-0.92188-0.4375-0.23047-0.28906-0.34375-0.67188-0.34375-1.1406 0-0.45703 0.11328-0.83203 0.34375-1.125 0.23828-0.28906 0.54688-0.4375 0.92188-0.4375 0.19531 0 0.375 0.042969 0.53125 0.125 0.16406 0.085938 0.31641 0.21484 0.45312 0.39062zm-0.64062 1.9375c0.20703 0 0.36328-0.070313 0.46875-0.21875 0.11328-0.15625 0.17188-0.37891 0.17188-0.67188 0-0.28125-0.058594-0.49219-0.17188-0.64062-0.10547-0.15625-0.26172-0.23438-0.46875-0.23438-0.19922 0-0.35547 0.078125-0.46875 0.23438-0.10547 0.14844-0.15625 0.35938-0.15625 0.64062 0 0.29297 0.050781 0.51562 0.15625 0.67188 0.11328 0.14844 0.26953 0.21875 0.46875 0.21875z"
         id="path17" />
    </symbol>
    <symbol
       id="i"
       overflow="visible">
      <path
         d="m2.0469-0.60938c0.20703 0 0.36328-0.070313 0.46875-0.21875 0.11328-0.15625 0.17188-0.37891 0.17188-0.67188 0-0.28125-0.058594-0.49219-0.17188-0.64062-0.10547-0.15625-0.26172-0.23438-0.46875-0.23438-0.19922 0-0.35547 0.078125-0.46875 0.23438-0.10547 0.14844-0.15625 0.35938-0.15625 0.64062 0 0.29297 0.050781 0.51562 0.15625 0.67188 0.11328 0.14844 0.26953 0.21875 0.46875 0.21875zm-0.625-1.9375c0.125-0.17578 0.26562-0.30469 0.42188-0.39062 0.16406-0.082031 0.35156-0.125 0.5625-0.125 0.36328 0 0.66406 0.14844 0.90625 0.4375 0.23828 0.29297 0.35938 0.66797 0.35938 1.125 0 0.46875-0.12109 0.85156-0.35938 1.1406-0.24219 0.29297-0.54297 0.4375-0.90625 0.4375-0.21094 0-0.39844-0.042969-0.5625-0.125-0.15625-0.082031-0.29688-0.21094-0.42188-0.39062v0.4375h-0.96875v-4.1562h0.96875z"
         id="path20" />
    </symbol>
    <symbol
       id="h"
       overflow="visible">
      <path
         d="m0.0625-2.9844h0.95312l0.8125 2.0156 0.6875-2.0156h0.95312l-1.2656 3.2656c-0.125 0.33203-0.27344 0.56641-0.4375 0.70312-0.16797 0.13281-0.39062 0.20312-0.67188 0.20312h-0.54688v-0.64062h0.29688c0.16406 0 0.28516-0.027344 0.35938-0.078125 0.070313-0.054688 0.12891-0.14062 0.17188-0.26562l0.03125-0.09375z"
         id="path23" />
    </symbol>
    <symbol
       id="g"
       overflow="visible">
      <path
         d="m2.0938-2.4375c0.16406 0 0.28906-0.035156 0.375-0.10938 0.082031-0.070313 0.125-0.17578 0.125-0.3125 0-0.14453-0.042969-0.25-0.125-0.3125-0.085938-0.070313-0.21094-0.10938-0.375-0.10938h-0.5625v0.84375zm0.046875 1.7344c0.19531 0 0.34766-0.039063 0.45312-0.125 0.10156-0.09375 0.15625-0.22266 0.15625-0.39062 0-0.17578-0.054688-0.30469-0.15625-0.39062-0.09375-0.09375-0.24609-0.14062-0.45312-0.14062h-0.60938v1.0469zm0.95312-1.4375c0.21875 0.074219 0.38281 0.19922 0.5 0.375 0.125 0.16797 0.1875 0.375 0.1875 0.625 0 0.38672-0.13281 0.67188-0.39062 0.85938-0.26172 0.1875-0.65625 0.28125-1.1875 0.28125h-1.7031v-3.9844h1.5469c0.55078 0 0.95312 0.085937 1.2031 0.25 0.25 0.16797 0.375 0.43359 0.375 0.79688 0 0.19922-0.046875 0.36719-0.14062 0.5-0.09375 0.13672-0.22656 0.23438-0.39062 0.29688z"
         id="path26" />
    </symbol>
    <symbol
       id="a"
       overflow="visible">
      <path
         d="m1.875-2.375c-0.21094 0-0.37109 0.078125-0.48438 0.23438-0.10547 0.14844-0.15625 0.35938-0.15625 0.64062 0 0.29297 0.050781 0.51562 0.15625 0.67188 0.11328 0.14844 0.27344 0.21875 0.48438 0.21875 0.20703 0 0.36719-0.070313 0.48438-0.21875 0.11328-0.15625 0.17188-0.37891 0.17188-0.67188 0-0.28125-0.058594-0.49219-0.17188-0.64062-0.11719-0.15625-0.27734-0.23438-0.48438-0.23438zm0-0.6875c0.51953 0 0.92188 0.14062 1.2031 0.42188 0.28906 0.27344 0.4375 0.65234 0.4375 1.1406 0 0.5-0.14844 0.89062-0.4375 1.1719-0.28125 0.27344-0.68359 0.40625-1.2031 0.40625-0.51172 0-0.91406-0.13281-1.2031-0.40625-0.29297-0.28125-0.4375-0.67188-0.4375-1.1719 0-0.48828 0.14453-0.86719 0.4375-1.1406 0.28906-0.28125 0.69141-0.42188 1.2031-0.42188z"
         id="path29" />
    </symbol>
    <symbol
       id="v"
       overflow="visible">
      <path
         d="m0.1875-2.9844h0.9375l0.5 2.0625 0.5-2.0625h0.79688l0.5 2.0312 0.51562-2.0312h0.92188l-0.78125 2.9844h-1.0469l-0.5-2.0625-0.5 2.0625h-1.0469z"
         id="path32" />
    </symbol>
    <symbol
       id="f"
       overflow="visible">
      <path
         d="m3.4688-1.8281v1.8281h-0.96875v-1.3906c0-0.25781-0.007812-0.4375-0.015625-0.53125-0.011719-0.10156-0.03125-0.17578-0.0625-0.21875-0.03125-0.0625-0.085937-0.10938-0.15625-0.14062-0.0625-0.039062-0.13281-0.0625-0.20312-0.0625-0.21094 0-0.37109 0.078125-0.48438 0.23438-0.10547 0.15625-0.15625 0.37109-0.15625 0.64062v1.4688h-0.96875v-2.9844h0.96875v0.4375c0.13281-0.17578 0.28516-0.30469 0.45312-0.39062 0.16406-0.082031 0.34375-0.125 0.53125-0.125 0.34375 0 0.60156 0.10938 0.78125 0.32812 0.1875 0.21094 0.28125 0.51172 0.28125 0.90625z"
         id="path35" />
    </symbol>
    <symbol
       id="u"
       overflow="visible">
      <path
         d="m2.7344 0.78125v0.51562h-2.7344v-0.51562z"
         id="path38" />
    </symbol>
    <symbol
       id="t"
       overflow="visible">
      <path
         d="m0.5-3.9844h1.0312v3.9844h-1.0312z"
         id="path41" />
    </symbol>
    <symbol
       id="e"
       overflow="visible">
      <path
         d="m2.875-2.8906v0.76562c-0.125-0.082031-0.25781-0.14453-0.39062-0.1875-0.13672-0.039062-0.27344-0.0625-0.40625-0.0625-0.27344 0-0.48047 0.078125-0.625 0.23438-0.14844 0.15625-0.21875 0.37109-0.21875 0.64062 0 0.28125 0.070313 0.5 0.21875 0.65625 0.14453 0.15625 0.35156 0.23438 0.625 0.23438 0.14453 0 0.28516-0.019531 0.42188-0.0625 0.13281-0.039063 0.25781-0.10938 0.375-0.20312v0.78125c-0.14844 0.0625-0.29688 0.10156-0.45312 0.125-0.15625 0.03125-0.3125 0.046875-0.46875 0.046875-0.54297 0-0.96484-0.13281-1.2656-0.40625-0.30469-0.28125-0.45312-0.67188-0.45312-1.1719 0-0.48828 0.14844-0.86719 0.45312-1.1406 0.30078-0.28125 0.72266-0.42188 1.2656-0.42188 0.15625 0 0.3125 0.015625 0.46875 0.046875 0.15625 0.023437 0.30469 0.0625 0.45312 0.125z"
         id="path44" />
    </symbol>
    <symbol
       id="s"
       overflow="visible">
      <path
         d="m0.45312-2.9844h0.96875v2.9844h-0.96875zm0-1.1719h0.96875v0.78125h-0.96875z"
         id="path47" />
    </symbol>
    <symbol
       id="r"
       overflow="visible">
      <path
         d="m2.4219-4.1562v0.625h-0.51562c-0.13672 0-0.23438 0.027344-0.29688 0.078125-0.054687 0.054687-0.078125 0.13672-0.078125 0.25v0.21875h0.82812v0.67188h-0.82812v2.3125h-0.95312v-2.3125h-0.46875v-0.67188h0.46875v-0.21875c0-0.32031 0.085937-0.5625 0.26562-0.71875 0.1875-0.15625 0.47266-0.23438 0.85938-0.23438z"
         id="path50" />
    </symbol>
    <symbol
       id="q"
       overflow="visible">
      <path
         d="m3.2344-2.5c0.11328-0.17578 0.25391-0.3125 0.42188-0.40625 0.16406-0.10156 0.35156-0.15625 0.5625-0.15625 0.33203 0 0.58594 0.10938 0.76562 0.32812 0.1875 0.21094 0.28125 0.51172 0.28125 0.90625v1.8281h-0.96875v-1.5625c0.007813-0.019531 0.015625-0.039062 0.015625-0.0625v-0.10938c0-0.21875-0.03125-0.375-0.09375-0.46875s-0.16406-0.14062-0.29688-0.14062c-0.1875 0-0.33594 0.078125-0.4375 0.23438-0.09375 0.14844-0.14062 0.35938-0.14062 0.64062v1.4688h-0.96875v-1.5625c0-0.33203-0.03125-0.54688-0.09375-0.64062-0.054688-0.09375-0.15234-0.14062-0.29688-0.14062-0.17969 0-0.32031 0.078125-0.42188 0.23438-0.09375 0.14844-0.14062 0.35938-0.14062 0.64062v1.4688h-0.96875v-2.9844h0.96875v0.4375c0.11328-0.17578 0.24219-0.30469 0.39062-0.39062 0.15625-0.082031 0.32812-0.125 0.51562-0.125 0.20703 0 0.39062 0.054688 0.54688 0.15625 0.15625 0.09375 0.27344 0.23047 0.35938 0.40625z"
         id="path53" />
    </symbol>
    <symbol
       id="p"
       overflow="visible">
      <path
         d="m3.4688-1.8281v1.8281h-0.96875v-1.3906c0-0.25781-0.007812-0.4375-0.015625-0.53125-0.011719-0.10156-0.03125-0.17578-0.0625-0.21875-0.03125-0.0625-0.085937-0.10938-0.15625-0.14062-0.0625-0.039062-0.13281-0.0625-0.20312-0.0625-0.21094 0-0.37109 0.078125-0.48438 0.23438-0.10547 0.15625-0.15625 0.37109-0.15625 0.64062v1.4688h-0.96875v-4.1562h0.96875v1.6094c0.13281-0.17578 0.28516-0.30469 0.45312-0.39062 0.16406-0.082031 0.34375-0.125 0.53125-0.125 0.34375 0 0.60156 0.10938 0.78125 0.32812 0.1875 0.21094 0.28125 0.51172 0.28125 0.90625z"
         id="path56" />
    </symbol>
    <symbol
       id="o"
       overflow="visible">
      <path
         d="m0.5-3.9844h1.1562l1.4375 2.7344v-2.7344h0.98438v3.9844h-1.1562l-1.4375-2.7344v2.7344h-0.98438z"
         id="path59" />
    </symbol>
    <symbol
       id="n"
       overflow="visible">
      <path
         d="m0.42188-1.1719v-1.8125h0.96875v0.29688 0.60938 0.48438c0 0.24219 0.003906 0.41797 0.015625 0.53125 0.007812 0.10547 0.03125 0.17969 0.0625 0.21875 0.039062 0.0625 0.09375 0.11719 0.15625 0.15625 0.0625 0.03125 0.13281 0.046875 0.21875 0.046875 0.19531 0 0.35156-0.078125 0.46875-0.23438 0.11328-0.15625 0.17188-0.36719 0.17188-0.64062v-1.4688h0.95312v2.9844h-0.95312v-0.4375c-0.14844 0.17969-0.30469 0.30859-0.46875 0.39062-0.15625 0.082031-0.33594 0.125-0.53125 0.125-0.34375 0-0.60938-0.10156-0.79688-0.3125-0.17969-0.21875-0.26562-0.53125-0.26562-0.9375z"
         id="path62" />
    </symbol>
    <symbol
       id="m"
       overflow="visible">
      <path
         d="m0.5-3.9844h1.7031c0.50781 0 0.89844 0.11719 1.1719 0.34375 0.26953 0.21875 0.40625 0.53906 0.40625 0.95312 0 0.41797-0.13672 0.74219-0.40625 0.96875-0.27344 0.21875-0.66406 0.32812-1.1719 0.32812h-0.67188v1.3906h-1.0312zm1.0312 0.75v1.1094h0.5625c0.19531 0 0.34766-0.046875 0.45312-0.14062 0.11328-0.10156 0.17188-0.24219 0.17188-0.42188 0-0.17578-0.058594-0.3125-0.17188-0.40625-0.10547-0.09375-0.25781-0.14062-0.45312-0.14062z"
         id="path65" />
    </symbol>
    <symbol
       id="l"
       overflow="visible">
      <path
         d="m0.45312-2.9844h0.96875v2.9375c0 0.39453-0.10156 0.69531-0.29688 0.90625-0.1875 0.21875-0.46484 0.32812-0.82812 0.32812h-0.48438v-0.64062h0.17188c0.17578 0 0.29688-0.042969 0.35938-0.125 0.070312-0.074219 0.10938-0.23047 0.10938-0.46875zm0-1.1719h0.96875v0.78125h-0.96875z"
         id="path68" />
    </symbol>
  </defs>
  <path
     d="m 693.34564,539.91479 c -5.54412,-34.15952 -21.1843,-69.46713 -45.24803,-102.11518 -3.78527,-5.14296 -7.7043,-10.08026 -11.649,-14.57491 -50.21167,-57.78219 -130.85421,-76.20424 -200.58598,-45.78785 -30.58097,13.43341 -56.80526,35.14699 -75.71578,62.68263 -0.41659,0.64802 -1.59942,3.02413 -2.46351,4.76759 -5.29726,10.68721 -11.34552,22.86561 -22.44957,22.64969 l -50.51449,-1.78467 c -42.38835,0.0823 -83.01902,16.96192 -112.98645,46.93988 -29.96874,29.98323 -46.82666,70.61917 -46.88854,113.00752 v 14.54463 c 0,0.7663 0.30344,1.49659 0.84345,2.03666 0.54001,0.54008 1.27032,0.84345 2.03667,0.84345 h 548.36928 c 1.10575,0.0105 2.11896,-0.61716 2.60756,-1.61495 15.53735,-31.76329 20.41803,-65.92281 14.64205,-101.59512 z"
     id="path73"
     style="fill:#ffffff;stroke-width:1.31661" />
  <path
     d="m 124.84535,381.43409 c -0.0617,40.20278 10.79517,79.67615 31.4078,114.19511 34.21087,-33.91859 80.44768,-52.93706 128.62123,-52.91204 h 0.39088 l 46.48302,1.65603 c 1.72805,-2.67957 3.99091,-7.20029 5.21497,-9.70488 1.20861,-2.60756 2.58175,-5.13782 4.10415,-7.57566 6.93275,-10.10093 14.76054,-19.54907 23.40016,-28.23477 17.83089,-18.02179 38.93224,-32.4782 62.16914,-42.61481 38.43852,-16.83289 81.29032,-20.78273 122.15667,-11.25809 6.96369,1.60982 13.8297,3.59501 20.57734,5.9453 -7.74024,-49.89305 -31.74749,-95.83494 -68.2835,-130.68437 -41.84854,-40.08955 -96.12327,-62.16915 -152.79293,-62.16915 -123.19547,0.005 -223.45554,100.20083 -223.45554,223.35022 z"
     id="path75"
     style="fill:#ffffff;fill-opacity:0.5;stroke-width:1.31661" />
  <path
     d="m 309.06583,113.70085 c 3.05493,0 5.98651,-1.21376 8.14654,-3.37382 2.16004,-2.16003 3.37382,-5.0916 3.37382,-8.14654 V 48.394218 c 0,-6.361873 -5.15335,-11.520363 -11.52036,-11.520363 -6.36188,0 -11.52037,5.15849 -11.52037,11.520363 v 53.786272 c 0,3.05494 1.21376,5.98651 3.37383,8.14654 2.16517,2.16004 5.0916,3.37382 8.14654,3.37382 z"
     id="path77"
     style="fill:#ffffff;fill-opacity:0.5;stroke-width:1.31661" />
  <path
     d="m 422.24187,121.58736 c 1.34743,0.54516 2.79267,0.82289 4.24819,0.82289 4.70584,0.0154 8.94888,-2.83888 10.71288,-7.2003 L 457.0759,65.208945 c 2.35042,-5.909353 -0.54002,-12.61065 -6.45443,-14.960672 -5.90936,-2.350418 -12.61065,0.540022 -14.96068,6.454431 l -19.87295,50.010226 c -2.2938,5.88881 0.5863,12.52836 6.45443,14.87378 z"
     id="path79"
     style="fill:#ffffff;fill-opacity:0.5;stroke-width:1.31661" />
  <path
     d="m 86.531911,486.77629 -48.242014,23.72932 c -2.833746,1.29089 -5.029856,3.67216 -6.079065,6.60873 -1.049183,2.93157 -0.864027,6.16649 0.514295,8.96429 1.373228,2.79267 3.821206,4.91163 6.78872,5.87328 2.962379,0.96175 6.192162,0.67889 8.943751,-0.78174 l 48.298629,-23.72009 c 5.708703,-2.82348 8.048853,-9.74083 5.225373,-15.44914 -2.823476,-5.7087 -9.740829,-8.04885 -15.449136,-5.22537 z"
     id="path81"
     style="fill:#ffffff;fill-opacity:0.5;stroke-width:1.31661" />
  <path
     d="m 81.028469,402.89488 c -0.277726,-3.04467 -1.758863,-5.85274 -4.10928,-7.80712 -2.355552,-1.95438 -5.384684,-2.89036 -8.429351,-2.60755 l -53.58483,4.9527 c -6.3618732,0.29316 -11.2837673,5.68303 -10.9958241,12.05004 0.2880091,6.36187 5.683028,11.28377 12.0449021,10.99069 h 1.0646 l 53.673042,-5.0504 c 6.305391,-0.62231 10.923806,-6.2231 10.337518,-12.52836 z"
     id="path83"
     style="fill:#ffffff;fill-opacity:0.5;stroke-width:1.31661" />
  <path
     d="m 20.094307,308.96772 53.482133,5.65735 c 0.406294,0.0257 0.817735,0.0257 1.224042,0 6.361874,0.3343 11.787767,-4.55667 12.11692,-10.91867 0.329154,-6.36701 -4.556665,-11.78777 -10.923805,-12.12206 l -53.513733,-5.64708 0.0053,0.005 c -3.054942,-0.34972 -6.115014,0.53487 -8.511645,2.45324 -2.39663,1.92344 -3.929299,4.72124 -4.2533177,7.77618 -0.3240053,3.05494 0.5863007,6.10987 2.5252637,8.4911 1.938976,2.38123 4.747048,3.88809 7.801985,4.19157 z"
     id="path85"
     style="fill:#ffffff;fill-opacity:0.5;stroke-width:1.31661" />
  <path
     d="M 120.81651,200.82113 77.368285,169.14079 c -2.463514,-1.80521 -5.54926,-2.55094 -8.568253,-2.08288 -3.018994,0.47316 -5.724238,2.11895 -7.529446,4.5876 -3.754454,5.13782 -2.633226,12.34838 2.504593,16.10218 l 43.458761,31.68034 h 0.005 c 2.45838,1.8875 5.5802,2.70524 8.65055,2.26299 3.07547,-0.4423 5.83733,-2.10355 7.66821,-4.61328 1.82575,-2.50459 2.57148,-5.64708 2.05208,-8.70715 -0.5143,-3.06007 -2.24233,-5.78072 -4.79326,-7.54999 z"
     id="path87"
     style="fill:#ffffff;fill-opacity:0.5;stroke-width:1.31661" />
  <path
     d="m 186.77882,139.71712 c 3.19897,5.41563 10.15227,7.26191 15.61898,4.14523 5.46697,-3.11155 7.42649,-10.03918 4.39722,-15.55183 L 180.13888,81.565491 c -1.48633,-2.705245 -3.99619,-4.700703 -6.9637,-5.538991 -2.97265,-0.838313 -6.15622,-0.452585 -8.83566,1.074896 -2.6847,1.527535 -4.63895,4.068071 -5.43103,7.051121 -0.79202,2.982918 -0.35486,6.161353 1.21376,8.820253 z"
     id="path89"
     style="fill:#ffffff;fill-opacity:0.5;stroke-width:1.31661" />
  <path
     d="m 523.22609,161.01992 c 2.27326,2.0418 5.26131,3.10128 8.31625,2.93671 3.0498,-0.15943 5.91449,-1.52754 7.95629,-3.80067 l 36.00147,-40.00265 v -0.005 c 2.12922,-2.25259 3.25558,-5.27672 3.12695,-8.37287 -0.12337,-3.10128 -1.49659,-6.01732 -3.80067,-8.08993 -2.3092,-2.07774 -5.35387,-3.13208 -8.45002,-2.9367 -3.09101,0.20058 -5.97623,1.64063 -7.99737,3.99091 l -36.00146,40.00266 v 0.005 c -2.04694,2.26812 -3.10642,5.26131 -2.94698,8.31111 0.15943,3.04981 1.52227,5.91449 3.79554,7.96143 z"
     id="path91"
     style="fill:#ffffff;fill-opacity:0.5;stroke-width:1.31661" />
  <path
     d="m 575.9301,235.92203 c 1.39377,2.72065 3.81094,4.77786 6.72197,5.71384 2.90576,0.93603 6.06879,0.67887 8.78944,-0.71488 l 47.88127,-24.4811 c 5.66248,-2.90063 7.89967,-9.84893 4.99391,-15.51102 -2.90063,-5.66249 -9.84379,-7.89968 -15.50575,-4.99391 l -47.88126,24.53771 c -5.63155,2.90063 -7.86374,9.80258 -4.99905,15.44914 z"
     id="path93"
     style="fill:#ffffff;fill-opacity:0.5;stroke-width:1.31661" />
  <path
     d="m 607.83163,329.30938 c 1.40404,4.95784 5.93503,8.38314 11.08838,8.37801 1.05947,0 2.11896,-0.14915 3.13723,-0.43201 l 51.84163,-14.68813 c 6.03786,-1.80521 9.50437,-8.12087 7.78145,-14.18387 -1.72292,-6.05853 -7.9871,-9.61233 -14.07196,-7.97683 l -51.76922,14.67365 c -2.95211,0.82288 -5.4567,2.78239 -6.95856,5.45156 -1.50173,2.66917 -1.88236,5.82707 -1.04918,8.77918 z"
     id="path95"
     style="fill:#ffffff;fill-opacity:0.5;stroke-width:1.31661" />
</svg>
