<?xml version="1.0" encoding="UTF-8" standalone="no"?>
<svg
   xmlns:dc="http://purl.org/dc/elements/1.1/"
   xmlns:cc="http://creativecommons.org/ns#"
   xmlns:rdf="http://www.w3.org/1999/02/22-rdf-syntax-ns#"
   xmlns:svg="http://www.w3.org/2000/svg"
   xmlns="http://www.w3.org/2000/svg"
   xmlns:sodipodi="http://sodipodi.sourceforge.net/DTD/sodipodi-0.dtd"
   xmlns:inkscape="http://www.inkscape.org/namespaces/inkscape"
   width="700pt"
   height="700pt"
   version="1.1"
   viewBox="0 0 700 700"
   id="svg16"
   sodipodi:docname="wtf.svg"
   inkscape:version="1.0.2-2 (e86c870879, 2021-01-15)">
  <metadata
     id="metadata22">
    <rdf:RDF>
      <cc:Work
         rdf:about="">
        <dc:format>image/svg+xml</dc:format>
        <dc:type
           rdf:resource="http://purl.org/dc/dcmitype/StillImage" />
        <dc:title></dc:title>
      </cc:Work>
    </rdf:RDF>
  </metadata>
  <defs
     id="defs20" />
  <sodipodi:namedview
     pagecolor="#3e3532"
     bordercolor="#666666"
     borderopacity="1"
     objecttolerance="10"
     gridtolerance="10"
     guidetolerance="10"
     inkscape:pageopacity="0"
     inkscape:pageshadow="2"
     inkscape:window-width="1920"
     inkscape:window-height="1009"
     id="namedview18"
     showgrid="false"
     inkscape:zoom="0.63791133"
     inkscape:cx="401.00906"
     inkscape:cy="526.81454"
     inkscape:window-x="-8"
     inkscape:window-y="-8"
     inkscape:window-maximized="1"
     inkscape:current-layer="svg16" />
  <path
     d="m 349.99999,47.418858 c 166.30045,0 301.58113,135.280682 301.58113,301.581132 0,166.30045 -135.28068,301.58113 -301.58113,301.58113 -166.30045,0 -301.581134,-135.28068 -301.581134,-301.58113 0,-166.30045 135.280684,-301.581132 301.581134,-301.581132 m 0,-43.0830189 c -190.3654,0 -344.664153,154.2987509 -344.664153,344.6641509 0,190.3654 154.298753,344.66415 344.664153,344.66415 190.3654,0 344.66415,-154.29875 344.66415,-344.66415 0,-190.3654 -154.29875,-344.6641509 -344.66415,-344.6641509 z"
     id="path2"
     style="fill:#ffffff;stroke-width:1.23094" />
  <path
     style="opacity:0.52809;fill:#ffffff;fill-opacity:0.5;stroke-width:3.13523;stroke-dasharray:3.13523, 9.4057"
     d="M 419.362,863.91091 C 328.96722,852.46833 247.50287,812.61193 183.31679,748.42584 121.7671,686.87616 82.973319,610.02247 69.474816,522.8955 68.072245,513.84252 66.528831,492.6797 66.045005,475.86702 64.044714,406.35799 78.436175,343.38861 110.47096,281.48264 130.37576,243.01741 152.90925,212.58664 185.3422,180.37141 278.29287,88.044706 410.16571,47.023891 538.07756,70.648349 644.89938,90.377623 737.21519,150.81329 799.06727,241.50843 c 71.33236,104.59634 88.40354,239.89364 45.2949,358.98406 -13.68744,37.81245 -38.93082,82.93062 -64.02635,114.43597 -5.49419,6.89751 -17.08057,19.85763 -25.74748,28.80027 -62.38779,64.37255 -139.085,104.11668 -228.95381,118.64276 -21.66034,3.50111 -83.67846,4.39948 -106.27253,1.53942 z"
     id="path868"
     transform="scale(0.75000002)" />
  <path
     d="m 289.97944,261.32837 c 0,33.13454 -26.85918,59.99372 -59.99372,59.99372 -33.12961,0 -59.98879,-26.85918 -59.98879,-59.99372 0,-33.13453 26.85918,-59.99372 59.98879,-59.99372 33.13454,0 59.99372,26.85919 59.99372,59.99372"
     id="path4"
     style="fill:#ffffff;stroke-width:1.23094" />
  <path
     d="m 532.79534,261.32837 c 0,33.13454 -26.85919,59.99372 -59.99372,59.99372 -33.13454,0 -59.99372,-26.85918 -59.99372,-59.99372 0,-33.13453 26.85918,-59.99372 59.99372,-59.99372 33.13453,0 59.99372,26.85919 59.99372,59.99372"
     id="path6"
     style="fill:#ffffff;stroke-width:1.23094" />
  <path
     d="M 142.91863,179.79068 H 317.03558 V 222.8737 H 142.91863 Z"
     id="path8"
     style="fill:#ffffff;stroke-width:1.23094" />
  <path
     d="m 551.35796,174.28836 11.15063,41.61204 -174.11695,46.6503 -11.15062,-41.61204 z"
     id="path10"
     style="fill:#ffffff;stroke-width:1.23094" />
  <path
     d="m 507.36405,531.13885 c 0,-85.77706 -69.53353,-155.32043 -155.32044,-155.32043 -85.77706,0 -155.32044,69.53353 -155.32044,155.32043 z"
     id="path12"
     style="fill:#ffffff;stroke-width:1.23094" />
</svg>
