<svg xmlns="http://www.w3.org/2000/svg" viewBox="0 0 20 20"><defs><style>.cls-1,.cls-2{fill:#fff;}.cls-1{opacity:0.5;}.cls-3{fill:none;}</style></defs><g id="Layer_2" data-name="Layer 2"><g id="Layer_4" data-name="Layer 4"><g id="TimelineReplicated"><path class="cls-1" d="M5,13H4V10H5Zm3-3H7v3H8Zm3,0H10v3h1Zm3,0H13v3h1Zm3,0H16v3h1Zm3,0H19v3h1Z"/><rect class="cls-2" x="4" y="13" width="16" height="1"/><path class="cls-1" d="M1,18H0V15H1Zm3-3H3v3H4Zm3,0H6v3H7Zm3,0H9v3h1Zm3,0H12v3h1Zm3,0H15v3h1Z"/><rect class="cls-2" y="18" width="16" height="1"/><path class="cls-2" d="M.72.21l9,4.86a.48.48,0,0,1,0,.86l-9,4.87A.48.48,0,0,1,0,10.37V.56A.46.46,0,0,1,.72.21Z"/><rect class="cls-3" width="20" height="20"/></g></g></g></svg>