<svg xmlns="http://www.w3.org/2000/svg" viewBox="0 0 20 20"><defs><style>.cls-1,.cls-2{fill:#fff;}.cls-1{opacity:0.5;}.cls-3,.cls-4{fill:none;}.cls-3{stroke:#fff;stroke-miterlimit:10;}</style></defs><g id="Layer_2" data-name="Layer 2"><g id="Layer_4" data-name="Layer 4"><g id="TimelineIgnoreTimeDilation"><path class="cls-1" d="M7.35,1,9,1.06V11.71a.48.48,0,0,1-.79-.32L6.68,1.46A.47.47,0,0,1,7.35,1Z"/><path class="cls-1" d="M4.16,2.88l1.45-.24L7.51,12a.43.43,0,0,1-.75-.14l-3.1-8.4A.42.42,0,0,1,4.16,2.88Z"/><path class="cls-1" d="M1.59,6l1.09-.5,3.45,6.87a.35.35,0,0,1-.62.05L1.32,6.49A.34.34,0,0,1,1.59,6Z"/><path class="cls-1" d="M.18,9.19l.67-.58,3.87,4.21a.26.26,0,0,1-.43.16L.08,9.62A.26.26,0,0,1,.18,9.19Z"/><path class="cls-2" d="M10.72.71l9,4.86a.48.48,0,0,1,0,.86l-9,4.87a.48.48,0,0,1-.72-.43V1.06A.46.46,0,0,1,10.72.71Z"/><path class="cls-2" d="M16,11.8A3.2,3.2,0,1,1,12.8,15,3.21,3.21,0,0,1,16,11.8m0-.8a4,4,0,1,0,4,4,4,4,0,0,0-4-4Z"/><line class="cls-3" x1="18.4" y1="12.6" x2="13.6" y2="17.4"/><rect class="cls-4" width="20" height="20"/></g></g></g></svg>