<svg xmlns="http://www.w3.org/2000/svg" viewBox="0 0 16 16"><defs><style>.cls-1,.cls-2{fill:#fff;}.cls-1{opacity:0.5;}.cls-3{fill:none;}</style></defs><g id="Layer_2" data-name="Layer 2"><g id="Layer_3" data-name="Layer 3"><g id="TrackTypeColor"><path class="cls-1" d="M11.93,10.68A5.7,5.7,0,0,1,5.5,7L5.42,6.8a4.59,4.59,0,1,0,6.51,3.88Z"/><path class="cls-1" d="M3.32.71A4.56,4.56,0,0,0,2.4,8.89,4,4,0,0,1,3,8.05,3.48,3.48,0,0,1,1.45,6.2a3.58,3.58,0,0,1,2.2-4.55,3.69,3.69,0,0,1,1.17-.2,3.55,3.55,0,0,1,1.64.4,4,4,0,0,1,.67-.75A4.56,4.56,0,0,0,3.32.71Z"/><circle class="cls-2" cx="11" cy="5" r="4.5"/><rect class="cls-3" width="16" height="16"/></g></g></g></svg>