<svg xmlns="http://www.w3.org/2000/svg" viewBox="0 0 20 20"><defs><style>.cls-1{opacity:0.7;}.cls-2{fill:none;}.cls-3,.cls-4{fill:#fff;}.cls-4{opacity:0.5;}</style></defs><g id="Layer_2" data-name="Layer 2"><g id="Layer_4" data-name="Layer 4" class="cls-1"><rect class="cls-2" x="1" y="1" width="18" height="18"/><path class="cls-3" d="M8.88,1.06a7.82,7.82,0,1,0,1.46,15.49c0-.31-.05-.64-.05-1a7.33,7.33,0,0,1-1.41.15A6.82,6.82,0,1,1,15.5,7.32a4,4,0,0,1,.5,0l.53,0A7.83,7.83,0,0,0,8.88,1.06Z"/><path class="cls-4" d="M12,2.27a7.28,7.28,0,0,0-3.12-.71A8.48,8.48,0,0,0,8,1.62V4h4Z"/><path class="cls-4" d="M1.62,8a8.48,8.48,0,0,0-.06.88A7.28,7.28,0,0,0,2.27,12H4V8Z"/><path class="cls-4" d="M4,14.31A7.25,7.25,0,0,0,7.25,16H8V12H4Z"/><path class="cls-4" d="M3.44,4H4V3.44A4.94,4.94,0,0,0,3.44,4Z"/><rect class="cls-4" x="8" y="8" width="4" height="4"/><rect class="cls-4" x="4" y="4" width="4" height="4"/><path class="cls-4" d="M16,7.29v0A7.25,7.25,0,0,0,14.31,4H12V8h1.78A3.36,3.36,0,0,1,16,7.29Z"/><path class="cls-4" d="M16.06,9.8a.72.72,0,0,0-.76.7v.83l-1.07.28V10.25a1.69,1.69,0,0,1,1.83-1.5,1.73,1.73,0,0,1,1.84,1.5v1.36l-1.08-.28V10.5A.72.72,0,0,0,16.06,9.8Z"/><circle class="cls-3" cx="16.06" cy="16.06" r="3.94"/><rect class="cls-2" width="20" height="20"/></g></g></svg>