<svg xmlns="http://www.w3.org/2000/svg" viewBox="0 0 20 20"><defs><style>.cls-1{opacity:0.7;}.cls-2,.cls-3,.cls-4{fill:#fff;}.cls-3,.cls-4{opacity:0.5;}.cls-4{fill-rule:evenodd;}.cls-5{fill:none;}</style></defs><g id="Layer_2" data-name="Layer 2"><g id="Layer_4" data-name="Layer 4" class="cls-1"><g id="ModelingCylinder"><path class="cls-2" d="M14.65,5.35c-1.4-1.4-3.47-1.59-3.94-1.12L4.24,10.7a1,1,0,0,0-.23.73,1,1,0,0,1,.26-.63c.61-.61,2.44-.24,3.81,1.12s1.73,3.2,1.12,3.81a1,1,0,0,1-.63.26,1,1,0,0,0,.73-.23l6.47-6.47C16.24,8.82,16.05,6.75,14.65,5.35Z"/><path class="cls-3" d="M4.27,10.8c.61-.61,2.44-.24,3.81,1.12s1.73,3.2,1.12,3.81-2.39.18-3.75-1.18S3.66,11.4,4.27,10.8Z"/><path class="cls-4" d="M15.76,5.66l2.12-2.12L19.29,5,20,0,15.05.71l1.41,1.41L14.34,4.24Z"/><path class="cls-4" d="M4.24,14.34,2.12,16.46.71,15.05,0,20l5-.71L3.54,17.88l2.12-2.12Z"/><rect class="cls-5" width="20" height="20"/></g></g></g></svg>