<svg xmlns="http://www.w3.org/2000/svg" viewBox="0 0 20 20"><defs><style>.cls-1{opacity:0.7;}.cls-2,.cls-3,.cls-4{fill:#fff;}.cls-3{opacity:0.5;}.cls-4{fill-rule:evenodd;}.cls-5{fill:none;}</style></defs><g id="Layer_2" data-name="Layer 2"><g id="Layer_4" data-name="Layer 4" class="cls-1"><path class="cls-2" d="M16,1a3,3,0,0,1,3,3v6a3,3,0,0,1-2.85,3h-4l-.26.2L6.24,17.38l1-3.08L7.61,13H3.85A3,3,0,0,1,1,10V3.85A2.86,2.86,0,0,1,3.85,1H16m0-1H3.85A3.86,3.86,0,0,0,0,3.85V10a4,4,0,0,0,3.85,4h2.4L4.38,20l8.12-6h3.65A4,4,0,0,0,20,10V4a4,4,0,0,0-4-4Z"/><path class="cls-3" d="M14.05,7.15H12.12l-.89-1.56a1.55,1.55,0,0,1,0,1l-.34.58.45.79a.59.59,0,0,0,.56.29h2.16a.54.54,0,1,0,0-1.07Z"/><path class="cls-3" d="M7.42,9.31a1.32,1.32,0,0,1-.57-.71L6,10H4.13a.54.54,0,1,0,0,1.07H6.29a.57.57,0,0,0,.54-.28l.79-1.35Z"/><path class="cls-4" d="M6.36,6.07,7.59,4.7l1.18.61L7.25,7.9A1,1,0,0,0,7.75,9l.09.05h0l2.22,1.26v1.86a.54.54,0,0,0,1.08,0V10a.5.5,0,0,0-.19-.4l0,0h0l-.05,0-1.38-.8,1.16-2h0L11,6.17a.81.81,0,0,0-.12-1L10,4.69,9.78,4.6l-.12-.06-1.93-1A.61.61,0,0,0,7,3.74L5.56,5.35a.54.54,0,1,0,.8.72Z"/><circle class="cls-2" cx="11.86" cy="3.54" r="1.42"/><rect class="cls-5" width="20" height="20"/></g></g></svg>