<svg xmlns="http://www.w3.org/2000/svg" viewBox="0 0 20 20"><defs><style>.cls-1{opacity:0.7;}.cls-2,.cls-3{fill:#fff;}.cls-2{fill-rule:evenodd;opacity:0.5;}.cls-4{fill:none;}</style></defs><g id="Layer_2" data-name="Layer 2"><g id="Layer_4" data-name="Layer 4" class="cls-1"><path class="cls-2" d="M3.81,19C7.94,16.75,10,17.31,10,17.31s2.06-.56,6.19,1.69Z"/><path class="cls-3" d="M19,2V15H1V2H19m1-1H0V16H20V1Z"/><rect class="cls-4" width="20" height="20"/><path class="cls-3" d="M11.1,3,5,4.87v7.26L11.1,14,16,8.5ZM9,8.5,6,10.79V6.21ZM6.57,5.42l3.71-1.11L9.54,7.65Zm3,3.93.74,3.34L6.57,11.58ZM10.47,9h3.74l-3,3.37Zm0-1,.75-3.37,3,3.37Z"/></g></g></svg>