<svg xmlns="http://www.w3.org/2000/svg" viewBox="0 0 20 20"><defs><style>.cls-1{opacity:0.7;}.cls-2,.cls-4{opacity:0.5;}.cls-3,.cls-4,.cls-5{fill:#fff;}.cls-5{fill-rule:evenodd;}.cls-6{fill:none;}</style></defs><g id="Layer_2" data-name="Layer 2"><g id="Layer_4" data-name="Layer 4" class="cls-1"><g class="cls-2"><path class="cls-3" d="M14,10.05C14,13,11.56,16,8.52,16S3,13,3,10.05c0-.25.59.68,1.18,1.26a6.13,6.13,0,0,0,4.32,1.57,6.19,6.19,0,0,0,4.28-1.57C13.47,10.65,14,9.77,14,10.05Z"/></g><path class="cls-3" d="M13,9.66c0,1.13-1.91,2.39-4.48,2.39S4.05,10.79,4.05,9.66a1.41,1.41,0,0,1,.37-.88,6.06,6.06,0,0,1-.11-1.33A2.83,2.83,0,0,0,3,9.66c0,1.91,2.47,3.46,5.5,3.46S14,11.57,14,9.66a2.4,2.4,0,0,0-.39-1.28A10.21,10.21,0,0,1,13,9.66Z"/><path class="cls-4" d="M10,20H7V16.45s.28.39,1.5.39,1.5-.39,1.5-.39Z"/><path class="cls-5" d="M9.79,5.22A3.64,3.64,0,0,0,8.51,5,3.51,3.51,0,0,0,5,8.49c0,.08,0,.16,0,.24,0,.83,1.5,1.77,3.5,1.77S11.78,9.7,12,8.91a3,3,0,0,0,0-.42,3.64,3.64,0,0,0-.24-1.28L17,2,15,0Z"/><rect class="cls-6" width="20" height="20"/></g></g></svg>