<svg xmlns="http://www.w3.org/2000/svg" viewBox="0 0 20 20"><defs><style>.cls-1{opacity:0.7;}.cls-2,.cls-3{fill:#fff;}.cls-3{fill-rule:evenodd;opacity:0.5;}.cls-4{fill:none;}</style></defs><g id="Layer_2" data-name="Layer 2"><g id="Layer_4" data-name="Layer 4" class="cls-1"><rect class="cls-2" x="12" y="14" width="8" height="3"/><polygon class="cls-3" points="7 11 3 11 3 2 7 0 7 11"/><path class="cls-2" d="M8,12.5a3,3,0,1,1-3,3,3,3,0,0,1,3-3m0-1a4,4,0,1,0,4,4,4,4,0,0,0-4-4Z"/><circle class="cls-2" cx="8" cy="15.5" r="1.75"/><path class="cls-3" d="M6.1,19.44a4.26,4.26,0,0,1-.7-.19A4,4,0,0,1,2.9,15.5a3.92,3.92,0,0,1,3.85-4H3.86A3.76,3.76,0,0,0,3.26,19Z"/><rect class="cls-4" width="20" height="20"/></g></g></svg>