<svg width="20" height="20" viewBox="0 0 20 20" fill="none" xmlns="http://www.w3.org/2000/svg">
<path opacity="0.5" d="M16.43 9L13 12.46L9.5 9H16.43ZM1 9V18H7L3 13.5L7.5 9H1Z" fill="white"/>
<path fill-rule="evenodd" clip-rule="evenodd" d="M13.84 3.85994L11.53 4.75993V2.13994L13.84 1.22993V3.85994ZM10.4 2.58994L8.08997 3.48994V6.11993L10.4 5.20995V2.58994ZM4.58997 7.47993L6.89997 6.56995V3.94994L4.58997 4.84995V7.47993ZM15.03 0.779938V3.40994L17.35 2.49994L16.44 0.189941L15.03 0.779938ZM3.46997 5.29994L0.219971 6.51994L1.11997 8.82994L3.42997 7.92993L3.46997 5.29994Z" fill="white"/>
<path d="M8.49836 10.6862L5.68408 13.5005L8.49836 16.3148L11.3126 13.5005L8.49836 10.6862Z" fill="white"/>
<path d="M14.36 17.5899L12.36 15.5899L17.86 10.0999C17.9556 10.0047 18.085 9.95117 18.22 9.95117C18.355 9.95117 18.4844 10.0047 18.58 10.0999L19.8 11.3199C19.8953 11.4155 19.9488 11.545 19.9488 11.6799C19.9488 11.8149 19.8953 11.9443 19.8 12.0399L14.36 17.5899ZM13.29 18.6499L11.35 16.7099L10 19.9999L13.29 18.6499Z" fill="white"/>
</svg>
