<svg width="20" height="20" viewBox="0 0 20 20" fill="none" xmlns="http://www.w3.org/2000/svg">
<g clip-path="url(#clip0_6423_2)">
<path fill-rule="evenodd" clip-rule="evenodd" d="M13.71 11.43C13.617 11.5237 13.5064 11.5981 13.3846 11.6489C13.2627 11.6997 13.132 11.7258 13 11.7258C12.868 11.7258 12.7373 11.6997 12.6154 11.6489C12.4936 11.5981 12.383 11.5237 12.29 11.43L9.94001 9.06999V12.43C9.97523 12.5298 9.99545 12.6343 10 12.74V19C10 19.2652 9.89465 19.5196 9.70712 19.7071C9.51958 19.8946 9.26523 20 9.00001 20C8.73479 20 8.48044 19.8946 8.2929 19.7071C8.10537 19.5196 8.00001 19.2652 8.00001 19V14H6.00001V19C6.00001 19.2652 5.89465 19.5196 5.70712 19.7071C5.51958 19.8946 5.26523 20 5.00001 20C4.7348 20 4.48044 19.8946 4.2929 19.7071C4.10537 19.5196 4.00001 19.2652 4.00001 19V9.13L1.71001 11.43C1.61705 11.5237 1.50645 11.5981 1.38459 11.6489C1.26273 11.6997 1.13202 11.7258 1.00001 11.7258C0.867999 11.7258 0.737294 11.6997 0.615435 11.6489C0.493575 11.5981 0.382974 11.5237 0.290011 11.43C0.194765 11.3369 0.119086 11.2256 0.0674187 11.1029C0.015751 10.9801 -0.0108643 10.8482 -0.0108643 10.715C-0.0108643 10.5818 0.015751 10.4499 0.0674187 10.3271C0.119086 10.2043 0.194765 10.0931 0.290011 10L4.00001 6.29C4.11033 6.17726 4.24575 6.09221 4.39522 6.04181C4.54468 5.99141 4.70395 5.97708 4.86001 6C4.90656 5.99532 4.95346 5.99532 5.00001 6H8.94001C8.99658 5.99517 9.05345 5.99517 9.11001 6C9.2668 5.96995 9.4285 5.97787 9.58159 6.0231C9.73469 6.06833 9.87473 6.14956 9.99001 6.26L13.71 10C13.8053 10.0931 13.8809 10.2043 13.9326 10.3271C13.9843 10.4499 14.0109 10.5818 14.0109 10.715C14.0109 10.8482 13.9843 10.9801 13.9326 11.1029C13.8809 11.2256 13.8053 11.3369 13.71 11.43ZM7.00001 0.619995C6.52929 0.619995 6.06914 0.75958 5.67775 1.0211C5.28637 1.28262 4.98131 1.65432 4.80118 2.08921C4.62104 2.5241 4.57391 3.00264 4.66574 3.46431C4.75758 3.92598 4.98425 4.35006 5.3171 4.68291C5.64995 5.01576 6.07402 5.24243 6.5357 5.33426C6.99737 5.4261 7.47591 5.37897 7.9108 5.19883C8.34569 5.01869 8.71739 4.71364 8.97891 4.32225C9.24043 3.93086 9.38001 3.47071 9.38001 3C9.37738 2.36959 9.12578 1.76576 8.68002 1.31999C8.23425 0.874222 7.63042 0.622627 7.00001 0.619995Z" fill="white"/>
<path opacity="0.5" fill-rule="evenodd" clip-rule="evenodd" d="M20 15L17 20L14 15H16C16 13 17 8 13 6C19 8 18 11 18 15H20Z" fill="white"/>
</g>
<defs>
<clipPath id="clip0_6423_2">
<rect width="20" height="20" fill="white"/>
</clipPath>
</defs>
</svg>
