<svg xmlns="http://www.w3.org/2000/svg" viewBox="0 0 20 20"><defs><style>.cls-1{opacity:0.7;}.cls-2{fill:#fff;fill-rule:evenodd;}.cls-3{fill:none;}</style></defs><g id="Layer_2" data-name="Layer 2"><g id="Layer_4" data-name="Layer 4" class="cls-1"><path class="cls-2" d="M19,8a1,1,0,0,1-1,1H12.94v4.43a1.07,1.07,0,0,1,.06.31V19a1,1,0,0,1-2,0V14H9v5a1,1,0,0,1-2,0V9H2A1,1,0,0,1,2,7H18A1,1,0,0,1,19,8ZM10,1.62A2.38,2.38,0,1,0,12.38,4,2.39,2.39,0,0,0,10,1.62Z"/><rect class="cls-3" width="20" height="20"/></g></g></svg>