<svg xmlns="http://www.w3.org/2000/svg" viewBox="0 0 20 20"><defs><style>.cls-1{opacity:0.7;}.cls-2,.cls-3,.cls-4{fill:#fff;}.cls-2{opacity:0.5;}.cls-3{fill-rule:evenodd;}.cls-5{fill:none;}</style></defs><g id="Layer_2" data-name="Layer 2"><g id="Layer_4" data-name="Layer 4" class="cls-1"><path class="cls-2" d="M14.05,7.81h-2.6l-1.2-2.09a2.06,2.06,0,0,1,0,1.31l-.46.78.6,1.06a.83.83,0,0,0,.76.39h2.91a.72.72,0,0,0,.72-.72A.73.73,0,0,0,14.05,7.81Z"/><path class="cls-2" d="M5.14,10.71a1.71,1.71,0,0,1-.77-1L3.29,11.61H.72a.73.73,0,0,0-.72.73.72.72,0,0,0,.72.72H3.63a.76.76,0,0,0,.71-.39l1.07-1.8Z"/><path class="cls-3" d="M3.72,6.37,5.37,4.54,7,5.34l-2,3.49a1.4,1.4,0,0,0,.67,1.48l.12.08h0l3,1.7v2.49a.73.73,0,0,0,.73.73.73.73,0,0,0,.72-.73v-2.9a.71.71,0,0,0-.25-.54l-.06-.06h0L9.74,11,7.89,10l1.56-2.7v0l.42-.77a1.08,1.08,0,0,0-.17-1.32L8.55,4.52,8.3,4.39l-.16-.07L5.55,3a.82.82,0,0,0-1,.24L2.64,5.4a.74.74,0,0,0,.06,1A.73.73,0,0,0,3.72,6.37Z"/><circle class="cls-4" cx="11.1" cy="2.97" r="1.91"/><polygon class="cls-3" points="19 14 16 14 16 11 14 11 14 14 11 14 11 16 14 16 14 19 16 19 16 16 19 16 19 14"/><rect class="cls-5" width="20" height="20"/></g></g></svg>