<svg xmlns="http://www.w3.org/2000/svg" viewBox="0 0 20 20"><defs><style>.cls-1{opacity:0.7;}.cls-2,.cls-3,.cls-4,.cls-5{fill:#fff;}.cls-2,.cls-5{opacity:0.5;}.cls-3,.cls-5{fill-rule:evenodd;}.cls-6{fill:none;}</style></defs><g id="Layer_2" data-name="Layer 2"><g id="Layer_4" data-name="Layer 4" class="cls-1"><path class="cls-2" d="M15.53,8.17H13.22L12.15,6.31a1.87,1.87,0,0,1,0,1.16l-.41.7.53.94a.73.73,0,0,0,.68.35h2.58a.65.65,0,0,0,0-1.29Z"/><path class="cls-2" d="M7.61,10.76a1.59,1.59,0,0,1-.69-.85L6,11.56H3.67a.64.64,0,1,0,0,1.28H6.26a.68.68,0,0,0,.63-.34l1-1.6Z"/><path class="cls-3" d="M6.34,6.89,7.81,5.26,9.22,6,7.4,9.08A1.26,1.26,0,0,0,8,10.4l.1.06h0L10.76,12v2.22a.65.65,0,0,0,1.29,0V11.61a.66.66,0,0,0-.22-.49l-.06,0h0l-.06,0-1.65-1,1.39-2.4v0L11.82,7a1,1,0,0,0-.15-1.17l-1-.59-.22-.12-.14-.06L8,3.9a.72.72,0,0,0-.86.21L5.38,6a.66.66,0,0,0,0,.91A.65.65,0,0,0,6.34,6.89Z"/><circle class="cls-4" cx="12.91" cy="3.87" r="1.7"/><path class="cls-5" d="M3.81,19C7.94,16.75,10,17.31,10,17.31s2.06-.56,6.19,1.69Z"/><path class="cls-4" d="M19,2V15H1V2H19m1-1H0V16H20V1Z"/><rect class="cls-6" width="20" height="20"/></g></g></svg>