<svg width="20" height="20" viewBox="0 0 20 20" fill="none" xmlns="http://www.w3.org/2000/svg">
<path fill-rule="evenodd" clip-rule="evenodd" d="M18.7701 3.84999L16.6499 1.72998L11.3601 7.00998C10.9264 6.84141 10.4654 6.75331 10 6.74998C9.25836 6.74998 8.53323 6.96992 7.91654 7.38197C7.29986 7.79403 6.81927 8.3797 6.53544 9.06493C6.25161 9.75015 6.17737 10.5041 6.32206 11.2316C6.46676 11.959 6.82398 12.6272 7.34843 13.1516C7.87288 13.6761 8.54092 14.0332 9.26835 14.1779C9.99578 14.3226 10.7499 14.2484 11.4351 13.9645C12.1203 13.6807 12.7059 13.2001 13.118 12.5834C13.53 11.9667 13.75 11.2417 13.75 10.5C13.7467 10.0346 13.6586 9.57376 13.49 9.13998L18.7701 3.84999Z" fill="white"/>
<path d="M8 15.8999V19.9999H12V15.9999C11.3497 16.1901 10.6773 16.2943 10 16.3099C9.31497 16.2871 8.63874 16.1485 8 15.8999Z" fill="white"/>
<path opacity="0.5" d="M18.6499 8.09985C19.0337 10.0163 18.7625 12.006 17.8799 13.7498C17.0348 15.3906 15.6707 16.7056 14 17.4899V19.8799L14.1599 19.7898L14.99 19.2198C16.784 17.9894 18.1202 16.1996 18.79 14.1299C19.4262 12.1618 19.3768 10.0363 18.6499 8.09985Z" fill="white"/>
<path opacity="0.5" d="M12.2701 2.90994L13.9 1.26994L13.71 1.19993L12.71 0.959942C10.371 0.37523 7.89884 0.666905 5.76009 1.77993C3.68511 2.87223 2.07326 4.67575 1.22005 6.85994C0.420466 9.00106 0.420466 11.3588 1.22005 13.4999C2.01013 15.5797 3.52712 17.3028 5.49007 18.3499C3.66413 17.1936 2.31524 15.4188 1.69002 13.3499C1.10915 11.3295 1.27598 9.16734 2.15999 7.25993C3.03775 5.41505 4.55493 3.95119 6.43001 3.13993C8.25144 2.35551 10.2974 2.26656 12.18 2.88993L12.2701 2.90994Z" fill="white"/>
</svg>
