<svg xmlns="http://www.w3.org/2000/svg" viewBox="0 0 20 20"><defs><style>.cls-1{opacity:0.7;}.cls-2,.cls-3,.cls-4{fill:#fff;}.cls-2{fill-rule:evenodd;}.cls-3{opacity:0.5;}.cls-5{fill:none;}</style></defs><g id="Layer_2" data-name="Layer 2"><g id="Layer_4" data-name="Layer 4" class="cls-1"><path class="cls-2" d="M19.77,16a4.52,4.52,0,0,0,.06-.53,4.52,4.52,0,0,0-.06-.53l-1.33-.2a2.82,2.82,0,0,0-.35-.84l.81-1.08a4.49,4.49,0,0,0-.76-.75l-1.08.8a3.09,3.09,0,0,0-.84-.34L16,11.23a4.78,4.78,0,0,0-.53-.06,4.69,4.69,0,0,0-.54.06l-.2,1.33a3,3,0,0,0-.82.35l-1.09-.81a4.49,4.49,0,0,0-.75.76L12.9,14a2.84,2.84,0,0,0-.34.82L11.23,15a5,5,0,0,0-.06.54,5,5,0,0,0,.06.54l1.33.19a2.84,2.84,0,0,0,.34.82l-.8,1.09a4.49,4.49,0,0,0,.75.76l1.09-.81a2.86,2.86,0,0,0,.82.35l.2,1.33a4.69,4.69,0,0,0,.54.06,4.78,4.78,0,0,0,.53-.06l.19-1.33a3.09,3.09,0,0,0,.84-.34l1.08.8a4.49,4.49,0,0,0,.76-.75l-.81-1.08a2.82,2.82,0,0,0,.35-.84ZM15.5,17.38a1.88,1.88,0,1,1,1.88-1.88A1.88,1.88,0,0,1,15.5,17.38Z"/><path class="cls-3" d="M.73,9.51a8.16,8.16,0,0,0,2.49,6A8.17,8.17,0,0,0,9.1,18H10V16.51c0-.08,0-.15,0-.22H9.1a6.57,6.57,0,0,1-4.67-2,6.51,6.51,0,0,1-2-4.8,6.65,6.65,0,0,1,2.13-4.9L6.24,6.28,7,7V1H1L3.36,3.4A8.25,8.25,0,0,0,.73,9.51Z"/><path class="cls-3" d="M9,2.71h.74a6.54,6.54,0,0,1,4.8,2,6.51,6.51,0,0,1,2,4.8c0,.17,0,.34,0,.51a5.59,5.59,0,0,1,1.65.58,9.81,9.81,0,0,0,.07-1.09,8.16,8.16,0,0,0-2.49-6A8.18,8.18,0,0,0,9.74,1H9Z"/><path class="cls-3" d="M9.5,5a4.5,4.5,0,0,0,0,9,4.48,4.48,0,0,0,.63-.06,5.36,5.36,0,0,1,.46-1.13A3.62,3.62,0,0,1,9.5,13,3.5,3.5,0,1,1,13,9.5a3.62,3.62,0,0,1-.19,1.09,5.36,5.36,0,0,1,1.13-.46A4.48,4.48,0,0,0,14,9.5,4.49,4.49,0,0,0,9.5,5Z"/><polygon class="cls-4" points="16 9 10 9 10 3 9 3 9 9 3 9 3 10 9 10 9 16 10 16 10 10 16 10 16 9"/><rect class="cls-5" width="20" height="20"/></g></g></svg>