<svg xmlns="http://www.w3.org/2000/svg" viewBox="0 0 20 20.02"><defs><style>.cls-1{opacity:0.7;}.cls-2,.cls-3,.cls-4,.cls-5{fill:#fff;}.cls-2,.cls-4{fill-rule:evenodd;}.cls-2,.cls-3{opacity:0.5;}.cls-6{fill:none;}</style></defs><g id="Layer_2" data-name="Layer 2"><g id="Layer_4" data-name="Layer 4" class="cls-1"><path class="cls-2" d="M6.26,7H1A1,1,0,0,0,1,9H6V19a1,1,0,0,0,2,0V14h2v5a1,1,0,0,0,2,0V7Z"/><circle class="cls-3" cx="9" cy="4" r="2.37"/><path class="cls-4" d="M17,7H12V9h5a1,1,0,0,0,0-2Z"/><polygon class="cls-5" points="20 16.14 14 11 14.08 18.9 15.83 16.48 17.53 20.02 18.79 19.41 17.1 15.9 20 16.14"/><rect class="cls-6" width="20" height="20"/></g></g></svg>