<svg width="20" height="20" viewBox="0 0 20 20" fill="none" xmlns="http://www.w3.org/2000/svg">
<path d="M4.55005 5.00006C4.66978 3.86078 5.17709 2.79718 5.98712 1.98715C6.79715 1.17712 7.86078 0.669785 9.00006 0.550049V5.00006H4.55005ZM10.0001 5.00006H14.4501C14.3303 3.86078 13.823 2.79718 13.013 1.98715C12.203 1.17712 11.1393 0.669785 10.0001 0.550049V5.00006ZM10.0001 6.00006V10.4501C11.1393 10.3303 12.203 9.823 13.013 9.01297C13.823 8.20294 14.3303 7.13934 14.4501 6.00006H10.0001ZM9.00006 6.00006H4.55005C4.66978 7.13934 5.17709 8.20294 5.98712 9.01297C6.79715 9.823 7.86078 10.3303 9.00006 10.4501V6.00006Z" fill="white"/>
<path d="M10 11H17V11.24L10 18.29V11ZM1.40002 12.53L0 20H2L3.53003 14.66L1.40002 12.53ZM9 18.29V11H2V11.24L9 18.29ZM15.47 14.66L17 20H19L17.6 12.53L15.47 14.66ZM10 20H14V16L10 20ZM5 16V20H9L5 16Z" fill="white"/>
</svg>
