<svg width="20" height="20" viewBox="0 0 20 20" fill="none" xmlns="http://www.w3.org/2000/svg">
<path fill-rule="evenodd" clip-rule="evenodd" d="M9.99998 0C7.18998 0 5.54999 1.00001 5.54999 3.82001C5.54999 4.26001 5.43999 7.22001 5.54999 7.63H7.05998C7.3252 7.63 7.57955 7.73535 7.76709 7.92288C7.95463 8.11042 8.05998 8.36479 8.05998 8.63V9.76999C8.66559 10.0206 9.31457 10.1497 9.96999 10.15C10.6254 10.1497 11.2744 10.0206 11.88 9.76999V8.63C11.88 8.36479 11.9853 8.11042 12.1729 7.92288C12.3604 7.73535 12.6148 7.63 12.88 7.63H14.39C14.5 7.22001 14.39 4.26001 14.39 3.82001C14.45 1.00001 12.81 0 9.99998 0ZM8.24998 6.35999H6.81998V3.82001H9.35999V5.25C9.35999 5.54439 9.24304 5.82672 9.03487 6.03488C8.82671 6.24305 8.54437 6.35999 8.24998 6.35999ZM13.18 6.35999H11.75C11.4556 6.35999 11.1733 6.24305 10.9651 6.03488C10.7569 5.82672 10.64 5.54439 10.64 5.25V3.82001H13.18V6.35999ZM10.75 8H9.24998L9.99998 6.5L10.75 8Z" fill="white"/>
<path d="M9.5 15H5.5V16H9.5V15Z" fill="white"/>
<path d="M9.5 19H5.5V20H9.5V19Z" fill="white"/>
<path d="M14.5 19H10.5V20H14.5V19Z" fill="white"/>
<path d="M14.5 15H10.5V16H14.5V15Z" fill="white"/>
<path d="M9.5 17H5.5V18H9.5V17Z" fill="white"/>
<path d="M14.5 17H10.5V18H14.5V17Z" fill="white"/>
<path fill-rule="evenodd" clip-rule="evenodd" d="M4.5 12L3.47 20H2L3 11L4.5 12Z" fill="white"/>
<path fill-rule="evenodd" clip-rule="evenodd" d="M15.5 12L16.53 20H18L17 11L15.5 12Z" fill="white"/>
<path d="M11 12H9V20H11V12Z" fill="white"/>
<path fill-rule="evenodd" clip-rule="evenodd" d="M15.5 13H4.5L3 11H17L15.5 13Z" fill="white"/>
</svg>
