<svg width="16" height="16" viewBox="0 0 16 16" fill="none" xmlns="http://www.w3.org/2000/svg">
<path d="M15.42 4.80994C14.9573 5.5212 14.3308 6.11121 13.593 6.53052C12.8553 6.94983 12.0279 7.18624 11.18 7.21994C9.98152 7.15342 8.81457 6.81121 7.76999 6.21994C6.85392 5.68694 5.82737 5.37212 4.76999 5.29993C4.16677 5.34954 3.57999 5.52142 3.04532 5.80508C2.51065 6.08875 2.03931 6.47829 1.66 6.94995L0.5 5.51993C0.993818 4.83239 1.63758 4.26623 2.38257 3.86429C3.12755 3.46234 3.95422 3.23517 4.79999 3.19995C5.97997 3.26398 7.128 3.60668 8.14999 4.19995C9.07186 4.71958 10.0953 5.03342 11.15 5.11993C11.7396 5.06494 12.3112 4.88704 12.8279 4.59769C13.3446 4.30833 13.795 3.91395 14.15 3.43994L15.42 4.80994ZM15.5 10.3199C15.0391 11.0504 14.4061 11.6567 13.6564 12.0855C12.9067 12.5144 12.0633 12.7529 11.2 12.7799C10.0214 12.7082 8.87509 12.366 7.85001 11.7799C6.91873 11.2402 5.87437 10.9252 4.79999 10.8599C4.20614 10.9188 3.62988 11.095 3.10461 11.3782C2.57935 11.6615 2.11551 12.0461 1.73999 12.5099L0.579987 11.0499C1.0676 10.3717 1.70228 9.81254 2.43652 9.41425C3.17077 9.01595 3.9856 8.78886 4.82001 8.74994C6.01903 8.8132 7.18672 9.15563 8.23001 9.74994C9.15188 10.2696 10.1753 10.5834 11.23 10.67C11.8313 10.6283 12.4164 10.4565 12.9447 10.1664C13.4731 9.87637 13.9321 9.47492 14.29 8.98993L15.5 10.3199Z" fill="white"/>
</svg>
