<svg width="16" height="16" viewBox="0 0 16 16" fill="none" xmlns="http://www.w3.org/2000/svg">
<path d="M8.5 7C9.88071 7 11 5.88071 11 4.5C11 3.11929 9.88071 2 8.5 2C7.11929 2 6 3.11929 6 4.5C6 5.88071 7.11929 7 8.5 7Z" fill="white"/>
<path d="M3.5 14C4.32843 14 5 13.3284 5 12.5C5 11.6716 4.32843 11 3.5 11C2.67157 11 2 11.6716 2 12.5C2 13.3284 2.67157 14 3.5 14Z" fill="white"/>
<path d="M8.5 14C9.32843 14 10 13.3284 10 12.5C10 11.6716 9.32843 11 8.5 11C7.67157 11 7 11.6716 7 12.5C7 13.3284 7.67157 14 8.5 14Z" fill="white"/>
<path d="M13.5 14C14.3284 14 15 13.3284 15 12.5C15 11.6716 14.3284 11 13.5 11C12.6716 11 12 11.6716 12 12.5C12 13.3284 12.6716 14 13.5 14Z" fill="white"/>
<path d="M4 8H3V12H4V8Z" fill="white" fill-opacity="0.5"/>
<path d="M9 5H8V12H9V5Z" fill="white" fill-opacity="0.5"/>
<path d="M14 8H13V12H14V8Z" fill="white" fill-opacity="0.5"/>
<path d="M8 8H4V9H8V8Z" fill="white" fill-opacity="0.5"/>
<path d="M13 8H9V9H13V8Z" fill="white" fill-opacity="0.5"/>
</svg>
