<svg width="16" height="16" viewBox="0 0 16 16" fill="none" xmlns="http://www.w3.org/2000/svg">
<path fill-rule="evenodd" clip-rule="evenodd" d="M4 12.1801V2.86005C4 2.17844 4.27072 1.52475 4.75269 1.04279C5.23465 0.560817 5.88846 0.290039 6.57007 0.290039C7.25167 0.290039 7.90524 0.560817 8.38721 1.04279C8.86918 1.52475 9.13989 2.17844 9.13989 2.86005V10.5701H7.86011V2.86005C7.81168 2.54856 7.65644 2.2636 7.42114 2.05383C7.18584 1.84407 6.88505 1.72257 6.57007 1.71008C6.25259 1.71067 5.94637 1.82829 5.71021 2.04047C5.47404 2.25264 5.32449 2.54444 5.29004 2.86005V11.86C5.29004 13.12 6.80995 14.29 8.44995 14.29C10.09 14.29 11.71 13.12 11.71 11.86V5.43005H13V12.1801C13 13.9401 11 15.7101 8.44995 15.7101C5.89995 15.7101 4 13.9401 4 12.1801Z" fill="white"/>
</svg>
