<svg width="16" height="16" viewBox="0 0 16 16" fill="none" xmlns="http://www.w3.org/2000/svg">
<path d="M13.1046 2.09014L1.09082 14.1039L1.9252 14.9383L13.9389 2.92453L13.1046 2.09014Z" fill="white"/>
<path d="M10.71 8.29001V11.86C10.71 13.12 9.07995 14.29 7.44995 14.29C6.70603 14.2841 5.98133 14.0541 5.37012 13.63L4.37012 14.63C5.25909 15.32 6.35469 15.6899 7.47998 15.68C10.05 15.68 12.03 13.91 12.03 12.15V7L10.71 8.29001Z" fill="white"/>
<path d="M4.29004 8.71002V2.86002C4.32449 2.54441 4.47404 2.25261 4.71021 2.04044C4.94637 1.82826 5.25259 1.71061 5.57007 1.71002C5.88505 1.7225 6.18584 1.84404 6.42114 2.0538C6.65644 2.26357 6.81168 2.54853 6.86011 2.86002V6.14005L8.13989 4.86002V2.86002C8.13989 2.52252 8.07349 2.18833 7.94434 1.87653C7.81518 1.56472 7.62585 1.2814 7.38721 1.04276C7.14856 0.804109 6.86527 0.614811 6.55347 0.485657C6.24166 0.356502 5.90757 0.290039 5.57007 0.290039C5.23257 0.290039 4.89823 0.356502 4.58643 0.485657C4.27462 0.614811 3.99133 0.804109 3.75269 1.04276C3.51404 1.2814 3.32471 1.56472 3.19556 1.87653C3.0664 2.18833 3 2.52252 3 2.86002V10L4.29004 8.71002Z" fill="white"/>
</svg>
