<svg width="16" height="16" viewBox="0 0 16 16" fill="none" xmlns="http://www.w3.org/2000/svg">
<path fill-rule="evenodd" clip-rule="evenodd" d="M15.9998 8L12.4598 12.2L8.89978 8H11.2798C11.2798 4.06 11.3498 1 7.00977 0C12.6898 0 13.6498 3.95 13.6498 8H15.9998Z" fill="white"/>
<path opacity="0.5" fill-rule="evenodd" clip-rule="evenodd" d="M7.31978 0C8.11258 0.207354 8.85449 0.574987 9.49978 1.08008C8.10492 0.708767 6.62259 0.85799 5.32979 1.5C2.20979 3.27 2.49978 8 2.49978 8C2.49978 8 0.919784 0 7.31978 0Z" fill="white"/>
<path d="M12.5 15.75C14.1569 15.75 15.5 15.1904 15.5 14.5C15.5 13.8096 14.1569 13.25 12.5 13.25C10.8431 13.25 9.5 13.8096 9.5 14.5C9.5 15.1904 10.8431 15.75 12.5 15.75Z" fill="white"/>
<path opacity="0.5" d="M2.49992 10.88C3.78675 10.88 4.82992 10.486 4.82992 10C4.82992 9.51398 3.78675 9.12 2.49992 9.12C1.2131 9.12 0.169922 9.51398 0.169922 10C0.169922 10.486 1.2131 10.88 2.49992 10.88Z" fill="white"/>
</svg>
