<svg width="16" height="16" viewBox="0 0 16 16" fill="none" xmlns="http://www.w3.org/2000/svg">
<path opacity="0.5" d="M8 11L6 14V15H13.5C14.163 15 14.7989 14.7366 15.2678 14.2678C15.7366 13.7989 16 13.163 16 12.5V11H8Z" fill="white"/>
<path d="M10 1H2C3.66 1 4 2.34 4 4V12.5C4 13.0304 4.21071 13.5391 4.58578 13.9142C4.96086 14.2893 5.46957 14.5 6 14.5C6.53043 14.5 7.03914 14.2893 7.41422 13.9142C7.78929 13.5391 8 13.0304 8 12.5V11H13V4C13 3.20435 12.6839 2.44129 12.1213 1.87868C11.5587 1.31607 10.7956 1 10 1ZM11 10H6V9H11V10ZM11 8H6V7H11V8ZM11 6H6V5H11V6Z" fill="white"/>
<path opacity="0.5" d="M9 5V1H2.5C1.83696 1 1.20108 1.2634 0.732239 1.73224C0.263398 2.20108 0 2.83696 0 3.5V5H9Z" fill="white"/>
</svg>
