<svg width="16" height="16" viewBox="0 0 16 16" fill="none" xmlns="http://www.w3.org/2000/svg">
<path d="M8 16V14.25H9.39999V16H8ZM10.1 10.75H11C12.75 10.75 13.63 11.33 13.63 12.5C13.63 13.67 12.75 14.25 11 14.25H10.13V16H11C13.63 16 15.38 14.73 15.38 12.5C15.38 10.27 13.6 9 11 9H10.13L10.1 10.75ZM9.39999 9H8V10.75H9.39999V9Z" fill="white"/>
<path d="M4.85 0.349976L0 1.38998V7.61998L4.85 8.64997V0.349976Z" fill="white"/>
<path opacity="0.5" d="M9.0001 7.61998L4.8501 8.64997V0.349976L9.0001 1.38998V7.61998Z" fill="white"/>
</svg>
