<svg width="16" height="16" viewBox="0 0 16 16" fill="none" xmlns="http://www.w3.org/2000/svg">
<path d="M8 16V14.25H9.39999V16H8ZM10.1 10.75H11C12.75 10.75 13.63 11.33 13.63 12.5C13.63 13.67 12.75 14.25 11 14.25H10.13V16H11C13.63 16 15.38 14.73 15.38 12.5C15.38 10.27 13.6 9 11 9H10.13L10.1 10.75ZM9.39999 9H8V10.75H9.39999V9Z" fill="white"/>
<path d="M7 1.10999C4 1.10999 1 4.49998 1 4.49998C1 4.49998 4 7.88998 7 7.88998C10 7.88998 13 4.49998 13 4.49998C13 4.49998 10 1.10999 7 1.10999ZM7 7.36999C6.23883 7.36999 5.50884 7.06761 4.97061 6.52938C4.43238 5.99115 4.13 5.26116 4.13 4.49998C4.13264 3.73962 4.43585 3.01116 4.97351 2.4735C5.51117 1.93584 6.23964 1.63262 7 1.62999C7.76117 1.62999 8.49116 1.93236 9.02939 2.47059C9.56762 3.00882 9.87 3.73881 9.87 4.49998C9.87132 4.87725 9.798 5.25105 9.65424 5.59985C9.51047 5.94865 9.29912 6.26556 9.03235 6.53233C8.76558 6.7991 8.44865 7.01045 8.09985 7.15421C7.75105 7.29797 7.37726 7.37131 7 7.36999Z" fill="white"/>
<path fill-rule="evenodd" clip-rule="evenodd" d="M5.71011 2.79999C5.82126 2.79866 5.93157 2.81942 6.03464 2.86104C6.13771 2.90266 6.23151 2.96432 6.31058 3.04245C6.38964 3.12059 6.4524 3.21364 6.49524 3.31621C6.53808 3.41878 6.56013 3.52883 6.56012 3.63999C6.56012 3.86542 6.47056 4.08162 6.31116 4.24103C6.15175 4.40043 5.93555 4.48999 5.71011 4.48999C5.48642 4.48735 5.27279 4.39664 5.11554 4.23752C4.95829 4.0784 4.8701 3.8637 4.87012 3.63999C4.87012 3.4172 4.95862 3.20355 5.11615 3.04602C5.27368 2.88849 5.48733 2.79999 5.71011 2.79999Z" fill="white"/>
</svg>
