<svg width="16" height="16" viewBox="0 0 16 16" fill="none" xmlns="http://www.w3.org/2000/svg">
<g clip-path="url(#clip0_8449:15210)">
<path d="M12 1C12.5933 1 13.1734 1.17597 13.6667 1.50562C14.1601 1.83526 14.5446 2.30375 14.7716 2.85193C14.9987 3.40011 15.0581 4.00332 14.9424 4.58527C14.8266 5.16721 14.5409 5.70178 14.1213 6.12134C13.7018 6.5409 13.1672 6.82663 12.5853 6.94238C12.0033 7.05814 11.4001 6.99873 10.852 6.77167C10.3038 6.5446 9.83524 6.16003 9.50559 5.66669C9.17595 5.17334 9 4.59334 9 4C9 3.20435 9.31607 2.44127 9.87868 1.87866C10.4413 1.31605 11.2044 1 12 1V1ZM12 0C11.2089 0 10.4355 0.234608 9.77772 0.674133C9.11992 1.11366 8.60723 1.73833 8.30448 2.46924C8.00173 3.20014 7.92252 4.00441 8.07686 4.78033C8.2312 5.55626 8.61216 6.26902 9.17157 6.82843C9.73098 7.38784 10.4437 7.76882 11.2196 7.92316C11.9956 8.0775 12.7998 7.99825 13.5307 7.6955C14.2616 7.39275 14.8864 6.88009 15.3259 6.22229C15.7654 5.56449 16 4.79113 16 4C16 2.93913 15.5786 1.92172 14.8284 1.17157C14.0783 0.421424 13.0609 0 12 0Z" fill="white"/>
<path d="M12 5.75C12.9665 5.75 13.75 4.9665 13.75 4C13.75 3.0335 12.9665 2.25 12 2.25C11.0335 2.25 10.25 3.0335 10.25 4C10.25 4.9665 11.0335 5.75 12 5.75Z" fill="white"/>
<path opacity="0.5" d="M8 8H2C1.44772 8 1 8.44772 1 9V15C1 15.5523 1.44772 16 2 16H8C8.55228 16 9 15.5523 9 15V9C9 8.44772 8.55228 8 8 8Z" fill="white"/>
<path opacity="0.5" d="M9.93018 11.4299V12.5699L14.0002 15.4299V8.56995L9.93018 11.4299Z" fill="white"/>
</g>
<defs>
<clipPath id="clip0_8449:15210">
<rect width="16" height="16" fill="white"/>
</clipPath>
</defs>
</svg>
