<svg width="16" height="16" viewBox="0 0 16 16" fill="none" xmlns="http://www.w3.org/2000/svg">
<rect x="0.929031" y="8" width="10" height="10" rx="0.5" transform="rotate(-45 0.929031 8)" stroke="white"/>
<path d="M8.85545 6.44728C8.93614 5.78146 9.18298 5.14485 9.57455 4.59278C9.57455 4.59278 9.57455 4.63605 9.57455 4.65459C9.59113 4.82296 9.6717 4.97927 9.80055 5.09303C9.92939 5.20679 10.0973 5.26982 10.2714 5.26982C10.4455 5.26982 10.6133 5.20679 10.7422 5.09303C10.871 4.97927 10.9516 4.82296 10.9682 4.65459C10.9692 4.53463 10.9342 4.41699 10.8675 4.316C10.8008 4.21502 10.7054 4.13506 10.5927 4.08588H10.5355C10.1997 3.97137 9.83389 3.97137 9.49818 4.08588C8.41636 4.41351 8.02818 5.98365 8.02818 5.98365L7.97091 6.18147H5.94727L5.76909 6.70691H7.87545L7.09909 10.0821C6.98882 10.4622 6.77021 10.8043 6.46847 11.069C6.16673 11.3337 5.79413 11.5102 5.39364 11.5781C5.44312 11.4748 5.46486 11.3611 5.45682 11.2475C5.44878 11.1339 5.41123 11.0241 5.34767 10.9284C5.28412 10.8327 5.19663 10.7542 5.09338 10.7003C4.99014 10.6463 4.8745 10.6187 4.75727 10.6199C4.56959 10.6097 4.38524 10.6712 4.24369 10.7914C4.10215 10.9115 4.01468 11.0808 4 11.2628C4.00398 11.4297 4.07104 11.5894 4.18839 11.7114C4.30575 11.8333 4.4652 11.9091 4.63636 11.9242C7.56364 12.4497 8.02182 10.0697 8.02182 10.0697L8.74727 7.16435H10.8345L11 6.66982H8.79818L8.85545 6.44728Z" fill="white"/>
</svg>
