<svg width="20" height="20" viewBox="0 0 20 20" fill="none" xmlns="http://www.w3.org/2000/svg">
<path d="M19.6 2.9L18 1.3C17.6 0.9 16.8 0.9 16.4 1.3L13 6C12.4 6.6 10.3 6.5 9.70001 5.9L8.70001 4.9C8.50001 4.7 8.2 4.7 8 4.9L5 8L13 16L16.1 12.9C16.3 12.7 16.3 12.4 16.1 12.2L15.1 11.2C14.5 10.6 14.4 8.6 15 8L19.6 4.5C20.1 4.1 20.1 3.4 19.6 2.9Z" fill="white"/>
<path opacity="0.5" d="M7.5 18.5L0 11C0 11 2.30001 10.4 3.70001 9.20003C5.10001 8.00003 4.20001 8.70003 4.20001 8.70003L12.2 16.7C12.2 16.7 13.4 15.8 11.7 17.2C10 18.8 7.5 18.5 7.5 18.5Z" fill="white"/>
</svg>
