<svg width="16" height="16" viewBox="0 0 16 16" fill="none" xmlns="http://www.w3.org/2000/svg">
<path opacity="0.5" d="M10 0V4H14L10 0Z" fill="white"/>
<path d="M9 5V0H2V16H14V5H9ZM3.2 4.4L4.5 4H4.6V7H4V4.7L3.2 4.9V4.4ZM4.7 14.8C4.6 14.9 4.3 15 4 15C3.7 15 3.5 14.9 3.3 14.8C3.1 14.6 3 14.4 3 14.2H3.6C3.6 14.3 3.6 14.4 3.7 14.5C3.8 14.6 3.9 14.6 4 14.6C4.1 14.6 4.2 14.6 4.3 14.5C4.4 14.4 4.4 14.3 4.4 14.2C4.4 13.9 4.2 13.8 3.9 13.8H3.7V13.3H4C4.1 13.3 4.3 13.3 4.3 13.2C4.4 13.1 4.4 13 4.4 12.9C4.4 12.8 4.4 12.7 4.3 12.6C4.2 12.5 4.1 12.5 4 12.5C3.9 12.5 3.8 12.5 3.7 12.6C3.6 12.7 3.6 12.7 3.6 12.8H3C3 12.6 3 12.5 3.1 12.4C3.2 12.3 3.3 12.2 3.4 12.1C3.7 12 3.8 12 4 12C4.3 12 4.6 12.1 4.7 12.2C4.9 12.4 5 12.6 5 12.8C5 12.9 5 13.1 4.9 13.2C4.8 13.3 4.7 13.4 4.6 13.5C4.8 13.6 4.9 13.6 5 13.8C5 13.8 5 14 5 14.1C5 14.4 4.9 14.6 4.7 14.8ZM5.1 11H3.1V10.6L4.1 9.6C4.2 9.5 4.3 9.3 4.4 9.2C4.4 9.1 4.4 9 4.4 8.9C4.4 8.8 4.4 8.7 4.3 8.6C4.2 8.5 4.1 8.5 4 8.5C3.9 8.5 3.8 8.5 3.7 8.6C3.6 8.7 3.6 8.8 3.6 9H3C3 8.8 3 8.7 3.1 8.5C3.2 8.4 3.3 8.2 3.5 8.1C3.7 8 3.8 8 4 8C4.3 8 4.5 8.1 4.7 8.2C4.9 8.4 5 8.6 5 8.8C5 9 5 9.1 4.9 9.3C4.8 9.4 4.7 9.6 4.5 9.8L3.8 10.5H5.1V11ZM12 14.5L10 15L8 14.5L6 15V14L8 13.5L10 14L12 13.5V14.5ZM12 10.5L10 11L8 10.5L6 11V10L8 9.5L10 10L12 9.5V10.5ZM12 6.5L10 7L8 6.5L6 7V6L8 5.5L10 6L12 5.5V6.5Z" fill="white"/>
</svg>
