<svg width="16" height="16" viewBox="0 0 16 16" fill="none" xmlns="http://www.w3.org/2000/svg">
<path fill-rule="evenodd" clip-rule="evenodd" d="M4 2C1.8 2 0 3.8 0 6V9C0 11.2 2 13 4 13H10V11H5C3.2 11 2 9.7 2 8V7C2 5.63882 2.76933 4.53408 4 4.14779V2ZM12 4C13.8 4 14 5.3 14 7V8C14 8.8 13.7 9.5 13.3 10L15.2 11.4C15.7 10.7 16 9.9 16 9V6C16 3.8 14.2 2 12 2V4Z" fill="white"/>
<path fill-rule="evenodd" clip-rule="evenodd" d="M8 16L13 12L8 8V16Z" fill="white"/>
<rect x="5" y="1" width="1" height="4" fill="white"/>
<rect x="7" y="1" width="1" height="4" fill="white"/>
<rect x="9" y="1" width="1" height="4" fill="white"/>
<rect x="11" y="2" width="1" height="2" fill="white"/>
</svg>
