<svg width="17" height="16" viewBox="0 0 17 16" fill="none" xmlns="http://www.w3.org/2000/svg">
<path d="M2.50005 5.70005C3.71508 5.70005 4.70005 4.71508 4.70005 3.50005C4.70005 2.28502 3.71508 1.30005 2.50005 1.30005C1.28502 1.30005 0.300049 2.28502 0.300049 3.50005C0.300049 4.71508 1.28502 5.70005 2.50005 5.70005Z" fill="white"/>
<path d="M13.5 5.70005C14.7151 5.70005 15.7 4.71508 15.7 3.50005C15.7 2.28502 14.7151 1.30005 13.5 1.30005C12.285 1.30005 11.3 2.28502 11.3 3.50005C11.3 4.71508 12.285 5.70005 13.5 5.70005Z" fill="white"/>
<path opacity="0.5" d="M13.5 3H4.5H2.5V4H4.5C6.2 4 7 5.8 7 7.5C7 8 7.1 8.6 7.2 9.1C7.5 8.9 7.8 8.6 8.1 8.4C8 8 8 7.8 8 7.5C8 6.2 7.6 4.9 6.8 4H13.5V3Z" fill="white"/>
<path d="M11 8.19995C8.20005 8.19995 6.30005 11 6.30005 11C6.30005 11 8.20005 13.8 11 13.8C13.8 13.8 15.7 11 15.7 11C15.7 11 13.8 8.19995 11 8.19995Z" stroke="white" stroke-miterlimit="10"/>
<path d="M11 12.5999C10.1 12.5999 9.40002 11.8999 9.40002 10.9999C9.40002 10.0999 10.1 9.3999 11 9.3999C11.9 9.3999 12.6 10.0999 12.6 10.9999C12.6 11.8999 11.9 12.5999 11 12.5999Z" fill="white"/>
</svg>
