<svg width="16" height="16" viewBox="0 0 16 16" fill="none" xmlns="http://www.w3.org/2000/svg">
<path d="M2.7 12.6L5.8 9.5L6.5 10.2L3.4 13.3L4.8 14.7L1 15L1.3 11.2L2.7 12.6Z" fill="white"/>
<path fill-rule="evenodd" clip-rule="evenodd" d="M13.3001 5.4C13.3001 5.2 13.4001 5 13.4001 4.9C13.4001 4.7 13.4001 4.5 13.3001 4.4L12.0001 4.2C11.9001 3.9 11.8001 3.6 11.7001 3.4L12.5001 2.3C12.3001 2 12.0001 1.8 11.7001 1.5L10.6001 2.3C10.3001 2.1 10.0001 2 9.7001 1.9L9.5001 0.6C9.4001 0.6 9.2001 0.5 9.0001 0.5C8.8001 0.5 8.6001 0.5 8.5001 0.6L8.3001 1.9C8.0001 2 7.7001 2.1 7.4001 2.3L6.4001 1.5C6.1001 1.7 5.8001 2 5.6001 2.2L6.4001 3.3C6.3001 3.6 6.1001 3.8 6.1001 4.1L4.7001 4.3C4.7001 4.5 4.6001 4.7 4.6001 4.8C4.6001 5 4.6001 5.2 4.7001 5.3L6.0001 5.5C6.1001 5.8 6.2001 6.1 6.3001 6.3L5.6001 7.5C5.8001 7.8 6.1001 8 6.4001 8.3L7.5001 7.5C7.7001 7.6 8.0001 7.7 8.3001 7.8L8.5001 9.1C8.7001 9.1 8.9001 9.2 9.0001 9.2C9.2001 9.2 9.4001 9.2 9.5001 9.1L9.7001 7.8C10.0001 7.7 10.3001 7.6 10.5001 7.5L11.6001 8.3C11.9001 8.1 12.1001 7.8 12.4001 7.5L11.6001 6.4C11.8001 6.1 11.9001 5.9 11.9001 5.6L13.3001 5.4ZM9.0001 6.8C8.0001 6.8 7.1001 6 7.1001 4.9C7.1001 3.8 8.0001 3 9.0001 3C10.0001 3 10.9001 3.8 10.9001 4.9C10.9001 5.9 10.0001 6.8 9.0001 6.8Z" fill="white"/>
<path opacity="0.5" d="M13.1618 10.1414C13.231 9.55878 13.4426 9.00174 13.7782 8.51868C13.7782 8.51868 13.7782 8.55654 13.7782 8.57277C13.7924 8.72009 13.8615 8.85687 13.9719 8.9564C14.0823 9.05594 14.2262 9.11109 14.3755 9.11109C14.5247 9.11109 14.6686 9.05594 14.779 8.9564C14.8894 8.85687 14.9585 8.72009 14.9727 8.57277C14.9736 8.4678 14.9436 8.36486 14.8864 8.2765C14.8293 8.18814 14.7475 8.11818 14.6509 8.07515H14.6018C14.3141 7.97495 14.0005 7.97495 13.7127 8.07515C12.7855 8.36182 12.4527 9.7357 12.4527 9.7357L12.4036 9.90878H10.6691L10.5164 10.3685H12.3218L11.6564 13.3218C11.5618 13.6544 11.3745 13.9538 11.1158 14.1854C10.8572 14.417 10.5378 14.5714 10.1945 14.6308C10.237 14.5405 10.2556 14.441 10.2487 14.3415C10.2418 14.2421 10.2096 14.1461 10.1551 14.0623C10.1007 13.9786 10.0257 13.9099 9.93719 13.8627C9.84869 13.8155 9.74957 13.7913 9.64909 13.7924C9.48822 13.7834 9.3302 13.8373 9.20888 13.9424C9.08756 14.0476 9.01258 14.1957 9 14.355C9.00341 14.501 9.06089 14.6407 9.16148 14.7474C9.26207 14.8542 9.39874 14.9205 9.54545 14.9337C12.0545 15.3935 12.4473 13.311 12.4473 13.311L13.0691 10.7688H14.8582L15 10.3361H13.1127L13.1618 10.1414Z" fill="white"/>
</svg>
