<svg width="16" height="16" viewBox="0 0 16 16" fill="none" xmlns="http://www.w3.org/2000/svg">
<path d="M3 4L1 1.99995L2 1L4 3L5 1.99995L5 5L2 5L3 4Z" fill="white"/>
<path d="M4 13L1.99995 15L1 14L3 12L1.99995 11L5 11L5 14L4 13Z" fill="white"/>
<path d="M6 8.00205V7.43062C6.40147 7.37088 6.79699 7.28299 7.18286 7.16777C7.30414 7.11578 7.40659 7.03462 7.47858 6.93348C7.57165 6.81021 7.63108 6.66933 7.65215 6.52205C7.6832 6.31181 7.69609 6.09976 7.69072 5.88777C7.67539 5.53753 7.70341 5.18685 7.77429 4.84205C7.81918 4.66059 7.92446 4.49533 8.07643 4.36777C8.26269 4.22923 8.48285 4.13138 8.71929 4.08205C9.01252 4.02392 9.31249 3.99706 9.61287 4.00205H9.85715V4.57348C9.66398 4.58307 9.47806 4.64211 9.32179 4.7435C9.16552 4.84489 9.04559 4.9843 8.97644 5.14491C8.92057 5.24999 8.89621 5.36613 8.90572 5.48205C8.90572 5.64205 8.90572 5.95062 8.86715 6.40205C8.85805 6.6136 8.81697 6.8231 8.74501 7.02491C8.69216 7.17345 8.60697 7.3113 8.49429 7.43062C8.33135 7.64 8.1415 7.83177 7.92858 8.00205" fill="white"/>
<path d="M7.92858 8.00195C8.14537 8.18165 8.33547 8.3852 8.49429 8.60767C8.60419 8.72229 8.6892 8.85404 8.74501 8.99624C8.81697 9.19805 8.85805 9.40755 8.86715 9.6191C8.89286 10.0724 8.90572 10.381 8.90572 10.5448C8.89679 10.6607 8.92112 10.7767 8.97644 10.882C9.05077 11.0375 9.17272 11.1714 9.32842 11.2683C9.48411 11.3653 9.66731 11.4215 9.85715 11.4305V12.002H9.61287C9.31086 12.0112 9.0087 11.9881 8.71286 11.9334C8.47744 11.8816 8.25788 11.784 8.07001 11.6477C7.91926 11.5193 7.81421 11.3543 7.76786 11.1734C7.69764 10.8285 7.66962 10.4779 7.68429 10.1277C7.69081 9.91186 7.67791 9.69593 7.64572 9.48195C7.62465 9.33468 7.56522 9.1938 7.47215 9.07052C7.40016 8.96939 7.29771 8.88822 7.17643 8.83624C6.79266 8.72131 6.3993 8.63342 6 8.57338V8.00195" fill="white"/>
<path d="M13.0712 8.00197C12.8582 7.83169 12.6684 7.63992 12.5054 7.43054C12.3942 7.31461 12.3091 7.18076 12.2547 7.03626C12.1828 6.83445 12.1417 6.62495 12.1326 6.4134C12.1326 5.96197 12.094 5.6534 12.094 5.4934C12.1058 5.37369 12.0814 5.25334 12.0233 5.14483C11.9541 4.98422 11.8342 4.84481 11.6779 4.74342C11.5217 4.64203 11.3357 4.58299 11.1426 4.5734V4.00197H11.3869C11.6889 3.99277 11.991 4.01579 12.2869 4.07054C12.5233 4.11987 12.7435 4.21772 12.9297 4.35626C13.0817 4.48382 13.187 4.64908 13.2319 4.83054C13.3027 5.17534 13.3308 5.52602 13.3154 5.87626C13.3094 6.09206 13.3223 6.30795 13.354 6.52197C13.3751 6.66925 13.4345 6.81013 13.5276 6.9334C13.5996 7.03454 13.702 7.1157 13.8233 7.16769C14.2071 7.28262 14.6004 7.37051 14.9997 7.43054V8.00197" fill="white"/>
<path d="M14.9997 8.00195V8.57338C14.5983 8.63312 14.2027 8.72102 13.8169 8.83624C13.6956 8.88822 13.5931 8.96939 13.5212 9.07052C13.4281 9.1938 13.3686 9.33468 13.3476 9.48195C13.3154 9.69593 13.3025 9.91186 13.309 10.1277C13.3237 10.4779 13.2957 10.8285 13.2254 11.1734C13.1791 11.3543 13.074 11.5193 12.9233 11.6477C12.7354 11.784 12.5159 11.8816 12.2804 11.9334C11.9846 11.9881 11.6824 12.0112 11.3804 12.002H11.1426V11.4305C11.3353 11.4196 11.5205 11.36 11.6765 11.2588C11.8325 11.1576 11.9528 11.0189 12.0233 10.8591C12.0786 10.7539 12.1029 10.6378 12.094 10.522C12.094 10.3543 12.1069 10.0458 12.1326 9.59624C12.1417 9.38469 12.1828 9.17519 12.2547 8.97338C12.3105 8.83119 12.3955 8.69943 12.5054 8.58481C12.666 8.37037 12.856 8.17457 13.0712 8.00195" fill="white"/>
</svg>
