<svg width="16" height="16" viewBox="0 0 16 16" fill="none" xmlns="http://www.w3.org/2000/svg">
<path d="M15 4H10V6H15V4Z" fill="white"/>
<path d="M15 7H10V9H15V7Z" fill="white"/>
<path d="M15 10H10V12H15V10Z" fill="white"/>
<path d="M9 4H7V6H9V4Z" fill="white"/>
<path d="M9 7H7V9H9V7Z" fill="white"/>
<path d="M9 10H7V12H9V10Z" fill="white"/>
<path d="M3 4L1 1.99995L2 1L4 3L5 1.99995L5 5L2 5L3 4Z" fill="white"/>
<path d="M4 13L1.99995 15L1 14L3 12L1.99995 11L5 11L5 14L4 13Z" fill="white"/>
</svg>
