<svg width="16" height="16" viewBox="0 0 16 16" fill="none" xmlns="http://www.w3.org/2000/svg">
<path fill-rule="evenodd" clip-rule="evenodd" d="M12.0315 1.1102C12.3203 1.28174 12.6007 1.47315 12.8707 1.68444L1.67521 12.9416C1.46508 12.6701 1.27472 12.3881 1.10412 12.0977C-0.702795 9.02143 -0.291921 4.99275 2.33674 2.34961C4.96541 -0.293529 8.97203 -0.706665 12.0315 1.1102ZM3.04192 3.05867C5.27781 0.810462 8.65429 0.405883 11.2998 1.84592L1.83581 11.362C0.403661 8.70195 0.806023 5.30687 3.04192 3.05867Z" fill="white"/>
<path d="M13.6633 13.6505C10.7865 16.5431 6.25936 16.7647 3.12946 14.3156L14.3248 3.05858C16.7605 6.20572 16.5402 10.7578 13.6633 13.6505Z" fill="white"/>
</svg>
