<svg width="16" height="16" viewBox="0 0 16 16" fill="none" xmlns="http://www.w3.org/2000/svg">
<path opacity="0.5" fill-rule="evenodd" clip-rule="evenodd" d="M7.00211 13.5C5.50132 13 0.99822 11.5 1.99984 6C2.49984 6 1.99984 6 2.99984 6C1.99822 10 6.00278 11 7.00278 11V12L7.00211 13.5Z" fill="white"/>
<path d="M6 2V4C6 4.26522 5.89464 4.51957 5.70711 4.70711C5.51957 4.89464 5.26522 5 5 5H2C1.73478 5 1.48043 4.89464 1.29289 4.70711C1.10536 4.51957 1 4.26522 1 4V2C1 1.73478 1.10536 1.48043 1.29289 1.29289C1.48043 1.10536 1.73478 1 2 1H5C5.26522 1 5.51957 1.10536 5.70711 1.29289C5.89464 1.48043 6 1.73478 6 2Z" fill="white"/>
<path d="M14.9929 10.5V13.5C15.0126 13.6908 14.991 13.8836 14.9296 14.0657C14.8681 14.2479 14.7682 14.4152 14.6363 14.5568C14.5044 14.6984 14.3435 14.811 14.1642 14.8874C13.9849 14.9637 13.7912 15.0021 13.5958 14.9999H9.40423C9.20879 15.0021 9.01508 14.9637 8.83578 14.8874C8.65648 14.811 8.49562 14.6984 8.36373 14.5568C8.23185 14.4152 8.1319 14.2479 8.07044 14.0657C8.00897 13.8836 7.98738 13.6908 8.00706 13.5V10.5C7.98738 10.3092 8.00897 10.1164 8.07044 9.93426C8.1319 9.75214 8.23185 9.58482 8.36373 9.44323C8.49562 9.30164 8.65648 9.18898 8.83578 9.11262C9.01508 9.03625 9.20879 8.99791 9.40423 9.00009H13.5958C13.7912 8.99791 13.9849 9.03625 14.1642 9.11262C14.3435 9.18898 14.5044 9.30164 14.6363 9.44323C14.7682 9.58482 14.8681 9.75214 14.9296 9.93426C14.991 10.1164 15.0126 10.3092 14.9929 10.5Z" fill="white"/>
</svg>
