<svg width="16" height="16" viewBox="0 0 16 16" fill="none" xmlns="http://www.w3.org/2000/svg">
<path fill-rule="evenodd" clip-rule="evenodd" d="M5.5 11.9L1.4 16C1.4 16 1 16 0.5 15.5C0 15 0 14.6 0 14.6L4.1 10.5L5.5 11.9Z" fill="white"/>
<path d="M2 7C2 3.1 5.1 0 9 0C12.9 0 16 3.1 16 7C16 10.9 12.9 14 9 14C5.1 14 2 10.9 2 7ZM3 7C3 10.3 5.7 13 9 13C12.3 13 15 10.3 15 7C15 3.7 12.3 1 9 1C5.7 1 3 3.7 3 7Z" fill="white"/>
<path opacity="0.5" d="M9.00002 2.8999C6.70002 2.8999 4.90002 4.6999 4.90002 6.9999C4.90002 9.2999 6.70002 11.0999 9.00002 11.0999C11.3 11.0999 13.1 9.2999 13.1 6.9999C13.1 4.6999 11.3 2.8999 9.00002 2.8999Z" fill="white"/>
</svg>
