<svg width="20" height="20" viewBox="0 0 20 20" fill="none" xmlns="http://www.w3.org/2000/svg">
<g clip-path="url(#clip0_8250:14781)">
<path opacity="0.5" d="M16 1H0V15H16V1Z" fill="white"/>
<path fill-rule="evenodd" clip-rule="evenodd" d="M13.33 9.51001C13.3489 9.66837 13.3098 9.82818 13.22 9.95996C13.1833 10.0039 13.1374 10.0393 13.0856 10.0635C13.0337 10.0877 12.9773 10.1002 12.92 10.1001C12.8613 10.101 12.803 10.0889 12.7494 10.0647C12.6958 10.0405 12.6482 10.0046 12.61 9.95996C12.467 9.74181 12.2506 9.5822 12 9.51001V8.33008H9.32996V17.6699H11.25C11.3227 17.9094 11.4743 18.1175 11.6801 18.26C11.7219 18.2999 11.755 18.348 11.7773 18.4014C11.7997 18.4547 11.8109 18.5122 11.8101 18.5701C11.8074 18.6861 11.7609 18.7966 11.6801 18.8799C11.5562 18.971 11.4032 19.0138 11.25 19H6.07996C5.92976 19.0152 5.77953 18.9721 5.66004 18.8799C5.61819 18.8399 5.58499 18.7919 5.56262 18.7385C5.54025 18.6852 5.52918 18.6279 5.53003 18.5701C5.52721 18.512 5.53744 18.454 5.55994 18.4004C5.58243 18.3468 5.61662 18.2987 5.66004 18.26C5.85842 18.1122 6.00526 17.9058 6.07996 17.6699H8V8.33008H5.32996V9.51001C5.07934 9.5822 4.86292 9.74181 4.71997 9.95996C4.68337 10.004 4.63754 10.0396 4.5857 10.064C4.53385 10.0883 4.47732 10.1008 4.42005 10.1008C4.36277 10.1008 4.30612 10.0883 4.25427 10.064C4.20242 10.0396 4.15659 10.004 4.12 9.95996C4.02664 9.82953 3.98399 9.66961 4 9.51001V7H13.33V9.51001ZM20 12.3301H17.33V17.6699H18.67V19H16V12.3301H13.33V11H16V8.33008H17.33V11H20V12.3301Z" fill="white"/>
</g>
<defs>
<clipPath id="clip0_8250:14781">
<rect width="20" height="20" fill="white"/>
</clipPath>
</defs>
</svg>
