<svg width="20" height="20" viewBox="0 0 20 20" fill="none" xmlns="http://www.w3.org/2000/svg">
<path d="M8 8.33008H5.32996V9.51001C5.07933 9.5822 4.86292 9.74181 4.71997 9.95996C4.68337 10.004 4.63754 10.0396 4.58569 10.064C4.53384 10.0883 4.47732 10.1008 4.42004 10.1008C4.36277 10.1008 4.30612 10.0883 4.25427 10.064C4.20242 10.0396 4.15659 10.004 4.12 9.95996C4.02664 9.82953 3.98399 9.66961 4 9.51001V7H13.33V9.51001C13.3489 9.66837 13.3098 9.82818 13.22 9.95996C13.1833 10.0039 13.1374 10.0393 13.0856 10.0635C13.0337 10.0877 12.9773 10.1002 12.92 10.1001C12.8613 10.101 12.803 10.0889 12.7494 10.0647C12.6958 10.0405 12.6482 10.0046 12.61 9.95996C12.467 9.74181 12.2506 9.5822 12 9.51001V8.33008H9.32996V15H16V12.3301H13.33V11H16V1H0V15H8V8.33008Z" fill="white"/>
<path opacity="0.5" d="M11.68 18.8799C11.5561 18.971 11.4031 19.0138 11.25 19H6.07993C5.92973 19.0152 5.7795 18.9721 5.66 18.8799C5.61816 18.8399 5.58496 18.7919 5.56259 18.7385C5.54022 18.6852 5.52915 18.6279 5.53 18.5701C5.52718 18.512 5.53741 18.454 5.55991 18.4004C5.5824 18.3468 5.61659 18.2987 5.66 18.26C5.85839 18.1122 6.00523 17.9058 6.07993 17.6699H7.99997V15H9.32993V17.6699H11.25C11.3227 17.9094 11.4743 18.1175 11.68 18.26C11.7219 18.2999 11.7549 18.348 11.7773 18.4014C11.7997 18.4547 11.8109 18.5122 11.81 18.5701C11.8074 18.6861 11.7609 18.7966 11.68 18.8799ZM17.3299 8.33008H16V19H18.67V17.6699H17.3299V12.3301H20V11H17.3299V8.33008Z" fill="white"/>
</svg>
