<svg width="20" height="20" viewBox="0 0 20 20" fill="none" xmlns="http://www.w3.org/2000/svg">
<path d="M2.5 7H15V6H2.5C1.1 6 0 7.2 0 8.6V16.4C0 17.8 1.1 19 2.5 19H15V18H2.5C1.7 18 1 17.3 1 16.4V8.6C1 7.7 1.7 7 2.5 7Z" fill="white"/>
<path opacity="0.5" d="M10.5996 6.9001L14.3996 0.600098" stroke="white" stroke-width="1.25" stroke-miterlimit="10"/>
<path opacity="0.5" d="M8.1004 6.9001L4.40039 0.600098" stroke="white" stroke-width="1.25" stroke-miterlimit="10"/>
<path fill-rule="evenodd" clip-rule="evenodd" d="M17.5 6H15V19H17.5C18.9 19 20 17.8 20 16.4V8.6C20 7.2 18.9 6 17.5 6ZM17.5 16.9C16.5 16.9 15.6 16.1 15.6 15C15.6 13.9 16.4 13.1 17.5 13.1C18.5 13.1 19.4 13.9 19.4 15C19.4 16.1 18.5 16.9 17.5 16.9ZM17.5 11.9C16.5 11.9 15.6 11.1 15.6 10C15.6 8.9 16.4 8.1 17.5 8.1C18.5 8.1 19.4 8.9 19.4 10C19.4 11.1 18.5 11.9 17.5 11.9Z" fill="white"/>
<path d="M7.4998 8.19995C5.1998 8.19995 3.2998 10.1 3.2998 12.4C3.2998 14.7 5.1998 16.6 7.4998 16.6C8.7998 16.6 9.9998 16 10.7998 15L9.7998 14.3C9.2998 14.9 8.49981 15.3 7.59981 15.3C5.89981 15.3 4.59981 14 4.59981 12.3C4.59981 10.6 5.89981 9.29995 7.59981 9.29995C9.29981 9.29995 10.5998 10.6 10.5998 12.3C10.5998 12.5 10.5998 12.6 10.4998 12.8H11.7998C11.7998 12.6 11.8998 12.5 11.8998 12.3C11.7998 10.2 9.7998 8.19995 7.4998 8.19995Z" fill="white"/>
<path d="M13 13H8L13 8V13Z" fill="white"/>
</svg>
