<svg width="20" height="20" viewBox="0 0 20 20" fill="none" xmlns="http://www.w3.org/2000/svg">
<path fill-rule="evenodd" clip-rule="evenodd" d="M16.0996 0H2.99963C2.49963 0 2.09961 0.400002 2.09961 0.900002V19C2.09961 19.5 2.49963 19.9 2.99963 19.9H16.0996C16.5996 19.9 16.9996 19.5 16.9996 19V0.900002C16.9996 0.400002 16.5996 0 16.0996 0ZM9.49963 19.5C8.69963 19.5 7.99963 18.8 7.99963 18C7.99963 17.2 8.69963 16.5 9.49963 16.5C10.2996 16.5 10.9996 17.2 10.9996 18C10.9996 18.8 10.2996 19.5 9.49963 19.5ZM15.9996 16H2.99963V1H15.9996V16Z" fill="white"/>
<path d="M7 10H4V14H7V10Z" fill="white" fill-opacity="0.5"/>
<path d="M11 3H8V14H11V3Z" fill="white"/>
<path d="M15 7H12V14H15V7Z" fill="white" fill-opacity="0.5"/>
</svg>
