<svg width="16" height="16" viewBox="0 0 16 16" fill="none" xmlns="http://www.w3.org/2000/svg">
<path opacity="0.5" d="M8 2.00002C8.78824 1.99686 9.56922 2.15089 10.2972 2.45309C11.0253 2.75528 11.6857 3.19959 12.24 3.76003C12.8004 4.31433 13.2448 4.97476 13.547 5.70278C13.8492 6.4308 14.0032 7.21178 14 8.00002C14.0032 8.78826 13.8492 9.56924 13.547 10.2973C13.2448 11.0253 12.8004 11.6857 12.24 12.24C11.6857 12.8005 11.0253 13.2448 10.2972 13.547C9.56922 13.8492 8.78824 14.0032 8 14C7.21176 14.0032 6.43078 13.8492 5.70276 13.547C4.97474 13.2448 4.3143 12.8005 3.76001 12.24C3.19957 11.6857 2.7552 11.0253 2.453 10.2973C2.15081 9.56924 1.99684 8.78826 2 8.00002C1.99684 7.21178 2.15081 6.4308 2.453 5.70278C2.7552 4.97476 3.19957 4.31433 3.76001 3.76003C4.3143 3.19959 4.97474 2.75528 5.70276 2.45309C6.43078 2.15089 7.21176 1.99686 8 2.00002V2.00002ZM8 0.500023C7.01492 0.497598 6.03921 0.690846 5.12939 1.0685C4.21958 1.44616 3.39374 2.00072 2.69995 2.70003C2.00331 3.39568 1.45068 4.22182 1.07361 5.13125C0.696533 6.04067 0.502441 7.01552 0.502441 8.00002C0.502441 8.98452 0.696533 9.95937 1.07361 10.8688C1.45068 11.7782 2.00331 12.6044 2.69995 13.3C3.39374 13.9993 4.21958 14.5539 5.12939 14.9315C6.03921 15.3092 7.01492 15.5024 8 15.5C8.98508 15.5024 9.96079 15.3092 10.8706 14.9315C11.7804 14.5539 12.6063 13.9993 13.3 13.3C13.9967 12.6044 14.5493 11.7782 14.9264 10.8688C15.3035 9.95937 15.4976 8.98452 15.4976 8.00002C15.4976 7.01552 15.3035 6.04067 14.9264 5.13125C14.5493 4.22182 13.9967 3.39568 13.3 2.70003C12.6063 2.00072 11.7804 1.44616 10.8706 1.0685C9.96079 0.690846 8.98508 0.497598 8 0.500023V0.500023Z" fill="white"/>
<path d="M13.78 3.21997L3.21997 13.78C4.65874 14.9683 6.48884 15.5776 8.35278 15.4888C10.2167 15.4001 11.9807 14.6196 13.3 13.3C14.6197 11.9806 15.4001 10.2167 15.4889 8.35278C15.5777 6.48884 14.9683 4.65874 13.78 3.21997V3.21997Z" fill="white"/>
</svg>
