<svg width="16" height="16" viewBox="0 0 16 16" fill="none" xmlns="http://www.w3.org/2000/svg">
<path d="M15 7H1V9H15V7Z" fill="white"/>
<path opacity="0.5" d="M8 0V2C8 2.26522 7.89469 2.51956 7.70715 2.70709C7.51962 2.89463 7.26522 3 7 3H1V5H7C7.79565 5 8.55873 4.68395 9.12134 4.12134C9.68395 3.55873 10 2.79565 10 2V0H8Z" fill="white"/>
<path opacity="0.5" d="M1 11V13H10C10.2652 13 10.5196 13.1054 10.7072 13.2929C10.8947 13.4804 11 13.7348 11 14V16H13V14C13 13.2044 12.6839 12.4413 12.1213 11.8787C11.5587 11.3161 10.7956 11 10 11H1Z" fill="white"/>
</svg>
