<svg width="16" height="16" viewBox="0 0 16 16" fill="none" xmlns="http://www.w3.org/2000/svg">
<path d="M5 11C6.65685 11 8 9.65685 8 8C8 6.34315 6.65685 5 5 5C3.34315 5 2 6.34315 2 8C2 9.65685 3.34315 11 5 11Z" fill="white"/>
<path fill-rule="evenodd" clip-rule="evenodd" d="M12.0001 13.54L8.72006 10.27C8.37663 10.8515 7.89155 11.3365 7.31006 11.6799L10.58 14.96C10.673 15.0537 10.7836 15.1282 10.9055 15.179C11.0273 15.2297 11.1581 15.2559 11.2901 15.2559C11.4221 15.2559 11.5528 15.2297 11.6747 15.179C11.7965 15.1282 11.9071 15.0537 12.0001 14.96C12.0938 14.867 12.1682 14.7564 12.219 14.6345C12.2697 14.5127 12.2959 14.382 12.2959 14.25C12.2959 14.118 12.2697 13.9873 12.219 13.8655C12.1682 13.7436 12.0938 13.633 12.0001 13.54Z" fill="white"/>
<path d="M14.6399 6.55999C14.2662 4.58774 13.1263 2.84376 11.4699 1.70989C9.88436 0.638759 7.94164 0.233096 6.05991 0.58001C4.27057 0.92156 2.68891 1.95672 1.65991 3.45989C2.80645 2.1697 4.41717 1.38599 6.13992 1.27996C7.77207 1.19359 9.37311 1.75005 10.5999 2.83001C11.1704 3.33641 11.6355 3.95027 11.9684 4.63665C12.3012 5.32303 12.4955 6.06845 12.5399 6.83001C12.6247 8.00413 12.2439 9.1644 11.4799 10.06L13.5499 12.1298L13.7499 11.83C13.905 11.5957 14.0453 11.3519 14.1699 11.1C14.3728 10.62 14.5269 10.1209 14.6299 9.61004C14.8369 8.60424 14.8403 7.56713 14.6399 6.55999Z" fill="white"/>
</svg>
