<svg width="16" height="16" viewBox="0 0 16 16" fill="none" xmlns="http://www.w3.org/2000/svg">
<path fill-rule="evenodd" clip-rule="evenodd" d="M15 12.4999L8.99998 8.99988V10.9999L7.28999 11.08C6.71999 11.08 5.92998 11.1698 5.67998 11.1398C5.2619 11.1001 4.85805 10.9674 4.49809 10.7511C4.13814 10.5348 3.83125 10.2403 3.59999 9.88977C3.40312 9.5327 3.31287 9.1267 3.33998 8.71985C3.34848 8.30082 3.48839 7.89514 3.73997 7.55994C4.03675 7.17811 4.41336 6.86575 4.84346 6.64466C5.27356 6.42356 5.74678 6.29904 6.23 6.27991C7.38 6.18991 8.87998 6.32996 10.15 5.32996C10.4462 5.07311 10.6776 4.74978 10.8253 4.3866C10.973 4.02342 11.0329 3.63056 11 3.23987C10.9826 2.86453 10.8754 2.49884 10.6875 2.17346C10.4996 1.84809 10.2364 1.57265 9.91998 1.37C8.77692 0.747252 7.47778 0.469314 6.17998 0.569948C4.94998 0.569948 3.71998 0.64987 2.49998 0.73987C3.72998 0.73987 4.95 0.839841 6.17 0.959841C7.33279 0.976255 8.46691 1.32308 9.43999 1.95984C9.63161 2.10422 9.78412 2.29428 9.88367 2.51258C9.98321 2.73087 10.0266 2.97049 10.01 3.20984C10.0114 3.43344 9.95838 3.65408 9.85561 3.85266C9.75283 4.05125 9.60333 4.22198 9.41998 4.34998C8.98759 4.59646 8.49768 4.72399 7.99998 4.71985C7.46998 4.71985 6.85 4.71979 6.23 4.65979H5.70998C5.52233 4.66925 5.33537 4.68934 5.14998 4.71985C4.78624 4.77858 4.43054 4.8793 4.08998 5.0199C3.37669 5.28229 2.73823 5.71481 2.23 6.27991C1.69014 6.88892 1.34224 7.64377 1.23 8.44983C1.10062 9.26628 1.20821 10.1029 1.53999 10.86C1.87614 11.6159 2.41201 12.2658 3.08998 12.7399C3.73043 13.2172 4.46228 13.5576 5.23997 13.7399C5.45159 13.781 5.66523 13.8112 5.87999 13.83H6.39H7.30998L9.01999 13.9098V15.9098L15 12.4999Z" fill="white"/>
</svg>
