<svg xmlns="http://www.w3.org/2000/svg" viewBox="0 0 20 20"><defs><style>.cls-1{fill:#fff;}.cls-2{fill:none;}</style></defs><g id="Layer_2" data-name="Layer 2"><g id="Layer_2-2" data-name="Layer 2"><path class="cls-1" d="M10,1a2,2,0,0,1,2,2,2,2,0,0,1-.52,1.33L10,6,8.52,4.33A2,2,0,0,1,8,3a2,2,0,0,1,2-2m7.82,5a1.17,1.17,0,0,1,.18.5,1.17,1.17,0,0,1-.18.5H13V18.82a1.17,1.17,0,0,1-.5.18,1.17,1.17,0,0,1-.5-.18V12H8v6.82a1.17,1.17,0,0,1-.5.18,1.17,1.17,0,0,1-.5-.18V7H2.18A1.17,1.17,0,0,1,2,6.5,1.17,1.17,0,0,1,2.18,6H17.82M10,0A3,3,0,0,0,7.78,5H2C1.45,5,1,6,1,6.5S1.45,8,2,8H6V19c0,.55,1,1,1.5,1S9,19.55,9,19V13h2v6c0,.55.95,1,1.5,1s1.5-.45,1.5-1V8h4c.55,0,1-1,1-1.5S18.55,5,18,5H12.22A3,3,0,0,0,10,0Z"/><rect class="cls-2" width="20" height="20"/></g></g></svg>