<svg width="16" height="16" viewBox="0 0 16 16" fill="none" xmlns="http://www.w3.org/2000/svg">
<path fill-rule="evenodd" clip-rule="evenodd" d="M15.5001 8.9C15.5001 8.6 15.6001 8.3 15.6001 8C15.6001 7.7 15.5001 7.4 15.5001 7.1L13.2001 6.8C13.1001 6.3 12.9001 5.8 12.6001 5.3L14.0001 3.4C13.6001 2.9 13.2001 2.5 12.7001 2.1L10.8001 3.5C10.4001 3.2 9.90009 3 9.30009 2.9L9.00009 0.6C8.70009 0.6 8.4001 0.5 8.1001 0.5C7.8001 0.5 7.5001 0.6 7.1001 0.6L6.80009 2.9C6.30009 3 5.80009 3.2 5.40009 3.5L3.50009 2.1C3.00009 2.5 2.60009 2.9 2.20009 3.4L3.6001 5.3C3.3001 5.7 3.10009 6.2 3.00009 6.7L0.700089 7C0.700089 7.3 0.600098 7.6 0.600098 7.9C0.600098 8.2 0.700089 8.5 0.700089 8.8L3.00009 9.1C3.10009 9.6 3.3001 10.1 3.6001 10.5L2.20009 12.4C2.60009 12.9 3.00009 13.3 3.50009 13.7L5.40009 12.3C5.80009 12.6 6.30009 12.8 6.80009 12.9L7.1001 15.2C7.4001 15.2 7.7001 15.3 8.1001 15.3C8.4001 15.3 8.70009 15.2 9.00009 15.2L9.30009 12.9C9.80009 12.8 10.3001 12.6 10.8001 12.3L12.7001 13.7C13.2001 13.3 13.6001 12.9 14.0001 12.4L12.6001 10.5C12.9001 10 13.1001 9.6 13.2001 9L15.5001 8.9ZM8.00009 12C5.80009 12 4.00009 10.2 4.00009 8C4.00009 5.8 5.80009 4 8.00009 4C10.2001 4 12.0001 5.8 12.0001 8C12.0001 10.2 10.2001 12 8.00009 12Z" fill="white"/>
<path opacity="0.5" d="M8.00009 6.10001C9.00009 6.10001 9.90009 6.90001 9.90009 8.00001C9.90009 9.00001 9.10009 9.90001 8.00009 9.90001C7.00009 9.90001 6.1001 9.10001 6.1001 8.00001C6.1001 7.00001 6.90009 6.10001 8.00009 6.10001ZM8.00009 5.10001C6.40009 5.10001 5.1001 6.40001 5.1001 8.00001C5.1001 9.60001 6.40009 10.9 8.00009 10.9C9.60009 10.9 10.9001 9.60001 10.9001 8.00001C10.9001 6.40001 9.60009 5.10001 8.00009 5.10001Z" fill="white"/>
</svg>
