<svg width="16" height="16" viewBox="0 0 16 16" fill="none" xmlns="http://www.w3.org/2000/svg">
<path d="M15.79 14.84L11.6899 6.41003C11.6237 6.28441 11.5245 6.17925 11.4029 6.1059C11.2814 6.03254 11.142 5.99377 11 5.99377C10.858 5.99377 10.7186 6.03254 10.597 6.1059C10.4754 6.17925 10.3763 6.28441 10.3101 6.41003L6.20996 14.84C6.14645 14.9598 6.11483 15.0939 6.11816 15.2295C6.12149 15.365 6.15969 15.4974 6.229 15.6139C6.29831 15.7304 6.3964 15.8272 6.51391 15.8948C6.63142 15.9624 6.76445 15.9987 6.90002 16H15.1C15.2355 15.9987 15.3686 15.9624 15.4861 15.8948C15.6036 15.8272 15.7017 15.7304 15.771 15.6139C15.8403 15.4974 15.8785 15.365 15.8818 15.2295C15.8852 15.0939 15.8535 14.9598 15.79 14.84V14.84ZM11 15C10.7348 15 10.4804 14.8947 10.2928 14.7071C10.1053 14.5196 9.99999 14.2652 9.99999 14C9.99999 13.7348 10.1053 13.4805 10.2928 13.2929C10.4804 13.1054 10.7348 13 11 13C11.2652 13 11.5196 13.1054 11.7071 13.2929C11.8947 13.4805 12 13.7348 12 14C12 14.2652 11.8947 14.5196 11.7071 14.7071C11.5196 14.8947 11.2652 15 11 15ZM11.33 12.33H10.67C10.5374 12.33 10.4102 12.2774 10.3164 12.1836C10.2226 12.0898 10.17 11.9626 10.17 11.83V9.50003C10.17 9.36742 10.2226 9.24025 10.3164 9.14648C10.4102 9.05272 10.5374 9.00003 10.67 9.00003H11.33C11.4626 9.00003 11.5898 9.05272 11.6836 9.14648C11.7774 9.24025 11.83 9.36742 11.83 9.50003V11.83C11.83 11.9626 11.7774 12.0898 11.6836 12.1836C11.5898 12.2774 11.4626 12.33 11.33 12.33Z" fill="white"/>
</svg>
