<svg width="16" height="16" viewBox="0 0 16 16" fill="none" xmlns="http://www.w3.org/2000/svg">
<path fill-rule="evenodd" clip-rule="evenodd" d="M9.08485 6.37762C9.69214 6.12686 10.343 5.99855 11 6.00001C11.657 5.99855 12.3078 6.12686 12.9151 6.37762C13.5224 6.62837 14.0742 6.99664 14.5388 7.46123C15.0034 7.92581 15.3716 8.47757 15.6224 9.08486C15.8731 9.69215 16.0014 10.343 16 11C16.0014 11.657 15.8731 12.3079 15.6224 12.9152C15.3716 13.5224 15.0034 14.0742 14.5388 14.5388C14.0742 15.0034 13.5224 15.3717 12.9151 15.6224C12.3078 15.8732 11.657 16.0015 11 16C10.343 16.0015 9.69214 15.8732 9.08485 15.6224C8.47756 15.3717 7.92577 15.0034 7.46119 14.5388C6.9966 14.0742 6.62837 13.5224 6.37761 12.9152C6.12686 12.3079 5.99855 11.657 6.00001 11C5.99855 10.343 6.12686 9.69215 6.37761 9.08486C6.62837 8.47757 6.9966 7.92581 7.46119 7.46123C7.92577 6.99664 8.47756 6.62837 9.08485 6.37762ZM13.6291 9.0684C13.7896 8.84369 13.7375 8.53141 13.5128 8.37091C13.2881 8.21041 12.9758 8.26245 12.8153 8.48716L10.3806 11.8958L9.13134 10.6464C8.93608 10.4512 8.6195 10.4512 8.42423 10.6464C8.22897 10.8417 8.22897 11.1583 8.42423 11.3536L10.0909 13.0202L10.5082 13.4376L10.8513 12.9573L13.6291 9.0684Z" fill="white"/>
</svg>
