<svg width="16" height="16" viewBox="0 0 16 16" fill="none" xmlns="http://www.w3.org/2000/svg">
<path d="M8.52002 6H1V10H6.27002L8.27002 6.32999C8.34445 6.21352 8.42805 6.10318 8.52002 6V6Z" fill="white"/>
<path d="M1 15H3.54L5.73 11H1V15Z" fill="white"/>
<path d="M14.9999 6H13.4199C13.5279 6.12832 13.6248 6.26547 13.7098 6.41L14.9999 9V6Z" fill="white"/>
<path d="M1 5H15V1H1V5ZM13 1.75C13.3315 1.75 13.6495 1.8817 13.8839 2.11612C14.1183 2.35054 14.25 2.66848 14.25 3C14.25 3.33152 14.1183 3.64946 13.8839 3.88388C13.6495 4.1183 13.3315 4.25 13 4.25C12.6685 4.25 12.3505 4.1183 12.1161 3.88388C11.8817 3.64946 11.75 3.33152 11.75 3C11.75 2.66848 11.8817 2.35054 12.1161 2.11612C12.3505 1.8817 12.6685 1.75 13 1.75V1.75ZM10 1.75C10.3315 1.75 10.6495 1.8817 10.8839 2.11612C11.1183 2.35054 11.25 2.66848 11.25 3C11.25 3.33152 11.1183 3.64946 10.8839 3.88388C10.6495 4.1183 10.3315 4.25 10 4.25C9.66848 4.25 9.35051 4.1183 9.11609 3.88388C8.88167 3.64946 8.75 3.33152 8.75 3C8.75 2.66848 8.88167 2.35054 9.11609 2.11612C9.35051 1.8817 9.66848 1.75 10 1.75Z" fill="white"/>
</svg>
