<svg width="16" height="16" viewBox="0 0 16 16" fill="none" xmlns="http://www.w3.org/2000/svg">
<path d="M1 1V5H15V1H1ZM13 4.25C12.6685 4.25 12.3505 4.1183 12.1161 3.88388C11.8817 3.64946 11.75 3.33152 11.75 3C11.75 2.66848 11.8817 2.35054 12.1161 2.11612C12.3505 1.8817 12.6685 1.75 13 1.75C13.3315 1.75 13.6495 1.8817 13.8839 2.11612C14.1183 2.35054 14.25 2.66848 14.25 3C14.25 3.33152 14.1183 3.64946 13.8839 3.88388C13.6495 4.1183 13.3315 4.25 13 4.25V4.25ZM10 4.25C9.66848 4.25 9.35051 4.1183 9.11609 3.88388C8.88167 3.64946 8.75 3.33152 8.75 3C8.75 2.66848 8.88167 2.35054 9.11609 2.11612C9.35051 1.8817 9.66848 1.75 10 1.75C10.3315 1.75 10.6495 1.8817 10.8839 2.11612C11.1183 2.35054 11.25 2.66848 11.25 3C11.25 3.33152 11.1183 3.64946 10.8839 3.88388C10.6495 4.1183 10.3315 4.25 10 4.25V4.25Z" fill="white"/>
<path d="M1 6V10H15V6H1ZM13 9.25C12.6685 9.25 12.3505 9.1183 12.1161 8.88388C11.8817 8.64946 11.75 8.33152 11.75 8C11.75 7.66848 11.8817 7.35054 12.1161 7.11612C12.3505 6.8817 12.6685 6.75 13 6.75C13.3315 6.75 13.6495 6.8817 13.8839 7.11612C14.1183 7.35054 14.25 7.66848 14.25 8C14.25 8.33152 14.1183 8.64946 13.8839 8.88388C13.6495 9.1183 13.3315 9.25 13 9.25V9.25ZM10 9.25C9.66848 9.25 9.35051 9.1183 9.11609 8.88388C8.88167 8.64946 8.75 8.33152 8.75 8C8.75 7.66848 8.88167 7.35054 9.11609 7.11612C9.35051 6.8817 9.66848 6.75 10 6.75C10.3315 6.75 10.6495 6.8817 10.8839 7.11612C11.1183 7.35054 11.25 7.66848 11.25 8C11.25 8.33152 11.1183 8.64946 10.8839 8.88388C10.6495 9.1183 10.3315 9.25 10 9.25V9.25Z" fill="white"/>
<path d="M1 11V15H15V11H1ZM13 14.25C12.6685 14.25 12.3505 14.1183 12.1161 13.8839C11.8817 13.6495 11.75 13.3315 11.75 13C11.75 12.6685 11.8817 12.3505 12.1161 12.1161C12.3505 11.8817 12.6685 11.75 13 11.75C13.3315 11.75 13.6495 11.8817 13.8839 12.1161C14.1183 12.3505 14.25 12.6685 14.25 13C14.25 13.3315 14.1183 13.6495 13.8839 13.8839C13.6495 14.1183 13.3315 14.25 13 14.25V14.25ZM10 14.25C9.66848 14.25 9.35051 14.1183 9.11609 13.8839C8.88167 13.6495 8.75 13.3315 8.75 13C8.75 12.6685 8.88167 12.3505 9.11609 12.1161C9.35051 11.8817 9.66848 11.75 10 11.75C10.3315 11.75 10.6495 11.8817 10.8839 12.1161C11.1183 12.3505 11.25 12.6685 11.25 13C11.25 13.3315 11.1183 13.6495 10.8839 13.8839C10.6495 14.1183 10.3315 14.25 10 14.25V14.25Z" fill="white"/>
</svg>
