<?xml version="1.0" encoding="UTF-8" standalone="no"?>
<svg
   width="16"
   height="16"
   viewBox="0 0 16 16"
   fill="none"
   version="1.1"
   id="svg8"
   sodipodi:docname="DD_RemoteCache_UpDownFull.svg"
   inkscape:version="1.2.2 (732a01da63, 2022-12-09)"
   xmlns:inkscape="http://www.inkscape.org/namespaces/inkscape"
   xmlns:sodipodi="http://sodipodi.sourceforge.net/DTD/sodipodi-0.dtd"
   xmlns="http://www.w3.org/2000/svg"
   xmlns:svg="http://www.w3.org/2000/svg">
  <defs
     id="defs12" />
  <sodipodi:namedview
     id="namedview10"
     pagecolor="#5759d3"
     bordercolor="#000000"
     borderopacity="0.25"
     inkscape:showpageshadow="2"
     inkscape:pageopacity="0"
     inkscape:pagecheckerboard="0"
     inkscape:deskcolor="#d1d1d1"
     showgrid="false"
     inkscape:zoom="41.7193"
     inkscape:cx="10.211101"
     inkscape:cy="10.762405"
     inkscape:window-width="2560"
     inkscape:window-height="1494"
     inkscape:window-x="-11"
     inkscape:window-y="-11"
     inkscape:window-maximized="1"
     inkscape:current-layer="svg8" />
  <path
     d="M5 6H1V10H5V6Z"
     fill="white"
     id="path2" />
  <path
     d="M1 15H4.9L2.5 11H1V15Z"
     fill="white"
     id="path4" />
  <path
     d="M1 1V5H15V1H1ZM10 4.25C9.66848 4.25 9.35051 4.1183 9.11609 3.88388C8.88167 3.64946 8.75 3.33152 8.75 3C8.75 2.66848 8.88167 2.35054 9.11609 2.11612C9.35051 1.8817 9.66848 1.75 10 1.75C10.3315 1.75 10.6495 1.8817 10.8839 2.11612C11.1183 2.35054 11.25 2.66848 11.25 3C11.25 3.33152 11.1183 3.64946 10.8839 3.88388C10.6495 4.1183 10.3315 4.25 10 4.25ZM13 4.25C12.6685 4.25 12.3505 4.1183 12.1161 3.88388C11.8817 3.64946 11.75 3.33152 11.75 3C11.75 2.66848 11.8817 2.35054 12.1161 2.11612C12.3505 1.8817 12.6685 1.75 13 1.75C13.3315 1.75 13.6495 1.8817 13.8839 2.11612C14.1183 2.35054 14.25 2.66848 14.25 3C14.25 3.33152 14.1183 3.64946 13.8839 3.88388C13.6495 4.1183 13.3315 4.25 13 4.25V4.25Z"
     fill="white"
     id="path6" />
  <path
     d="m 8.0946171,16.026071 2.4999999,-4 H 9.0946171 V 6.0260719 h -2 v 5.9999991 h -1.5 z"
     fill="#ffffff"
     id="path241"
     style="fill:#ffffff;fill-opacity:0.5" />
  <path
     d="m 13.094617,6.0260719 -2.5,4.0000001 h 1.5 v 5.999999 h 2 v -5.999999 h 1.5 z"
     fill="#ffffff"
     id="path243"
     style="fill:#ffffff;fill-opacity:0.5" />
</svg>
