<?xml version="1.0" encoding="UTF-8" standalone="no"?>
<svg
   width="16"
   height="16"
   viewBox="0 0 16 16"
   fill="none"
   version="1.1"
   id="svg8"
   sodipodi:docname="DD_RemoteCache_DisabledFull.svg"
   inkscape:version="1.2.2 (732a01da63, 2022-12-09)"
   xmlns:inkscape="http://www.inkscape.org/namespaces/inkscape"
   xmlns:sodipodi="http://sodipodi.sourceforge.net/DTD/sodipodi-0.dtd"
   xmlns="http://www.w3.org/2000/svg"
   xmlns:svg="http://www.w3.org/2000/svg">
  <defs
     id="defs12">
    <pattern
       patternUnits="userSpaceOnUse"
       width="17.679306"
       height="17.679306"
       patternTransform="translate(1.8303729,1.7231257)"
       id="pattern2741">
      <rect
         style="fill:#c87137;fill-opacity:1;stroke-width:1.9721"
         id="rect347-7"
         width="4.9469819"
         height="20.055332"
         x="10.027666"
         y="-10.027666"
         transform="rotate(45)" />
    </pattern>
  </defs>
  <sodipodi:namedview
     id="namedview10"
     pagecolor="#000dee"
     bordercolor="#cc5c5c"
     borderopacity="0.24705882"
     inkscape:showpageshadow="2"
     inkscape:pageopacity="0.8627451"
     inkscape:pagecheckerboard="0"
     inkscape:deskcolor="#d1d1d1"
     showgrid="false"
     inkscape:zoom="45.254834"
     inkscape:cx="5.8336309"
     inkscape:cy="9.148194"
     inkscape:window-width="2560"
     inkscape:window-height="1494"
     inkscape:window-x="-11"
     inkscape:window-y="-11"
     inkscape:window-maximized="1"
     inkscape:current-layer="svg8" />
  <path
     d="M1 1V5H15V1H1ZM13 4.25C12.6685 4.25 12.3505 4.1183 12.1161 3.88388C11.8817 3.64946 11.75 3.33152 11.75 3C11.75 2.66848 11.8817 2.35054 12.1161 2.11612C12.3505 1.8817 12.6685 1.75 13 1.75C13.3315 1.75 13.6495 1.8817 13.8839 2.11612C14.1183 2.35054 14.25 2.66848 14.25 3C14.25 3.33152 14.1183 3.64946 13.8839 3.88388C13.6495 4.1183 13.3315 4.25 13 4.25V4.25ZM10 4.25C9.66848 4.25 9.35051 4.1183 9.11609 3.88388C8.88167 3.64946 8.75 3.33152 8.75 3C8.75 2.66848 8.88167 2.35054 9.11609 2.11612C9.35051 1.8817 9.66848 1.75 10 1.75C10.3315 1.75 10.6495 1.8817 10.8839 2.11612C11.1183 2.35054 11.25 2.66848 11.25 3C11.25 3.33152 11.1183 3.64946 10.8839 3.88388C10.6495 4.1183 10.3315 4.25 10 4.25V4.25Z"
     fill="white"
     id="path2" />
  <path
     d="m 1,6 v 4 H 6.6440678 L 3.7877679,7.1396345 3.7819922,6.0028418 Z"
     fill="#ffffff"
     id="path4"
     sodipodi:nodetypes="cccccc" />
  <path
     d="m 1,11 v 4 l 2.8858938,0.0085 0.00505,-1.275046 L 6.779661,11 Z"
     fill="#ffffff"
     id="path6"
     sodipodi:nodetypes="cccccc" />
  <path
     id="rect347"
     style="fill:#ffffff;fill-opacity:0.50246304;stroke-width:1.00119"
     d="m 8.6692456,6.1552861 -1.775537,1.7755375 2.740578,2.7405784 -2.699366,2.699365 1.775537,1.775538 2.6993644,-2.699366 2.683913,2.683911 1.775537,-1.775537 -2.683912,-2.683912 2.725124,-2.7234062 -1.777255,-1.7772541 -2.723406,2.7251236 z" />
</svg>
