<svg xmlns="http://www.w3.org/2000/svg" viewBox="0 0 20 20"><defs><style>.cls-1,.cls-2,.cls-3{fill:#fff;}.cls-2{opacity:0.5;}.cls-3{fill-rule:evenodd;}.cls-4{fill:none;}</style></defs><g id="Layer_2" data-name="Layer 2"><g id="Layer_4" data-name="Layer 4"><polygon class="cls-1" points="16 11 11 12.5 11 18.45 16 20 16 11"/><polygon class="cls-2" points="20 17.7 16 20 16 11 20 13.2 20 17.7"/><path class="cls-2" d="M9,13.48,7.59,12.06S9.84,9.3,11.18,8s7.07-5.77,7.07-5.77a.44.44,0,0,1,.62,0h0a.44.44,0,0,1,0,.62s-4.47,5.77-5.8,7.11S9,13.48,9,13.48Z"/><path class="cls-1" d="M7.75,13.85l-.88-1s-2.35-.39-3.22,2.77C3.08,17.65.25,19,.25,19H3.76a4.31,4.31,0,0,0,3.76-2.37A3.26,3.26,0,0,0,7.75,13.85Z"/><path class="cls-3" d="M9.74,2.56C10.39,7,10.09,8,5.37,10.67A10.78,10.78,0,0,0,9.74,2.56Z"/><path class="cls-3" d="M3.25.44c6.49,6.77,2.69,8.5,1.5,10.23C4.75,10.67,7,8.59,3.25.44Z"/><path class="cls-3" d="M4.82,8.29l-.34,2.37C3.91,8.48,4,7.14,0,4.06,4.85,5.23,4.82,8.29,4.82,8.29Z"/><rect class="cls-4" width="20" height="20"/></g></g></svg>