<svg width="20" height="20" viewBox="0 0 20 20" fill="none" xmlns="http://www.w3.org/2000/svg">
<path d="M20 4V7C20 7.6 19.6 8 19 8H15C14.4 8 14 7.6 14 7V4C14 3.4 14.4 3 15 3H19C19.6 3 20 3.4 20 4Z" fill="white"/>
<path d="M20 14V17C20 17.6 19.6 18 19 18H15C14.4 18 14 17.6 14 17V14C14 13.4 14.4 13 15 13H19C19.6 13 20 13.4 20 14Z" fill="white"/>
<path d="M6 9V12C6 12.6 5.6 13 5 13H1C0.4 13 0 12.6 0 12V9C0 8.4 0.4 8 1 8H5C5.6 8 6 8.4 6 9Z" fill="white"/>
<path opacity="0.5" d="M15 6V5H10.2C9.6 5 9 5.6 9 6.2V10H5V11H9V14.8C9 15.5 9.6 16 10.2 16H15V15H10.7C10.3 15 10 14.7 10 14.3V6.7C10 6.3 10.3 6 10.7 6H15Z" fill="white"/>
</svg>
