<svg xmlns="http://www.w3.org/2000/svg" viewBox="0 0 20 20"><defs><style>.cls-1,.cls-2{fill:#fff;}.cls-2{opacity:0.5;}.cls-3{fill:none;}</style></defs><g id="Layer_2" data-name="Layer 2"><g id="Layer_4" data-name="Layer 4"><g id="Volume"><rect class="cls-1" x="12" width="2" height="2"/><rect class="cls-1" x="12" y="17" width="2" height="2"/><rect class="cls-1" y="16" width="2" height="2"/><rect class="cls-1" y="2" width="2" height="2"/><rect class="cls-1" x="18" y="3" width="2" height="2"/><rect class="cls-1" x="18" y="15" width="2" height="2"/><polygon class="cls-1" points="13 3 11 3 11 1.19 3 3.04 3 5 1 5 1 15 3 15 3 16.73 11 17.96 11 16 13 16 13 3"/><polygon class="cls-2" points="19 6 17 6 17 3.68 15 1.68 15 3 14 3 14 16 15 16 15 17.67 17 16.37 17 14 19 14 19 6"/><rect class="cls-3" width="20" height="20"/></g></g></g></svg>