<svg width="20" height="20" viewBox="0 0 20 20" fill="none" xmlns="http://www.w3.org/2000/svg">
<path fill-rule="evenodd" clip-rule="evenodd" d="M12.7999 16L9.79991 19C9.79991 19 9.49991 19 9.19991 18.6C8.69991 18.3 8.79991 18 8.79991 18L11.7999 15L12.7999 16Z" fill="white"/>
<path d="M15.4998 9.5C16.9998 9.5 18.1998 10.7 18.1998 12.2C18.1998 13.7 16.9998 15 15.4998 15C13.9998 15 12.7998 13.8 12.7998 12.3C12.7998 10.8 13.9998 9.5 15.4998 9.5ZM15.4998 8C13.1998 8 11.2998 9.9 11.2998 12.2C11.2998 14.5 13.1998 16.4 15.4998 16.4C17.7998 16.4 19.6998 14.5 19.6998 12.2C19.6998 9.9 17.7998 8 15.4998 8Z" fill="white"/>
<path fill-rule="evenodd" clip-rule="evenodd" d="M5 4H10H18C18.6 4 19 4.4 19 5V7.5C18.4 7.1 17.7 6.7 17.4 6.6C16.6 6.3 15.8 6.2 14.9 6.3C12 6.6 9.6 9.1 9.5 12C9.4 12.9 9.6 13.8 9.9 14.6C9.2 15.4 7.7 17 7.7 17H3C2.4 17 2 16.6 2 16V4H5Z" fill="white"/>
<path opacity="0.5" fill-rule="evenodd" clip-rule="evenodd" d="M11 3L8.8 0.4C8.6 0.1 8.3 0 8 0H3C2.4 0 2 0.4 2 1V3H11Z" fill="white"/>
</svg>
