<svg width="20" height="20" viewBox="0 0 20 20" fill="none" xmlns="http://www.w3.org/2000/svg">
<path opacity="0.5" d="M19 16V18H1V16C1 15.4696 1.21062 14.9609 1.58569 14.5858C1.96077 14.2107 2.46957 14 3 14H17C17.5304 14 18.0392 14.2107 18.4143 14.5858C18.7894 14.9609 19 15.4696 19 16Z" fill="white"/>
<path fill-rule="evenodd" clip-rule="evenodd" d="M11.21 9L14.21 12C14.4627 11.9629 14.6919 11.8306 14.8501 11.63C15.2301 11.26 15.22 10.99 15.22 10.99L12.22 7.98999L11.21 9Z" fill="white"/>
<path d="M8.50001 2C9.13489 2 9.75558 2.1883 10.2835 2.54102C10.8113 2.89373 11.2226 3.39502 11.4656 3.98157C11.7085 4.56812 11.7723 5.2135 11.6484 5.83618C11.5246 6.45886 11.2187 7.03093 10.7698 7.47986C10.3209 7.92878 9.74891 8.23442 9.12623 8.35828C8.50355 8.48213 7.85804 8.41862 7.27149 8.17566C6.68494 7.9327 6.18378 7.52129 5.83106 6.99341C5.47834 6.46553 5.29005 5.84484 5.29005 5.20996C5.29005 4.35862 5.62824 3.54218 6.23023 2.94019C6.83223 2.33819 7.64866 2 8.50001 2V2ZM8.50001 1C7.66537 1 6.8495 1.24748 6.15553 1.71118C5.46155 2.17488 4.92073 2.834 4.60133 3.6051C4.28193 4.37621 4.19826 5.22474 4.36109 6.04333C4.52392 6.86193 4.92595 7.6138 5.51612 8.20398C6.1063 8.79416 6.85817 9.19606 7.67677 9.35889C8.49537 9.52172 9.3439 9.43818 10.115 9.11877C10.8861 8.79937 11.5451 8.25843 12.0088 7.56445C12.4725 6.87048 12.72 6.05461 12.72 5.21997C12.72 4.10076 12.2753 3.02737 11.4839 2.23596C10.6925 1.44456 9.61922 1 8.50001 1V1Z" fill="white"/>
</svg>
