<svg width="21" height="20" viewBox="0 0 21 20" fill="none" xmlns="http://www.w3.org/2000/svg">
<path fill-rule="evenodd" clip-rule="evenodd" d="M20.9 11.2C18.1 13.2 14.1 15.8 10.1 20C10.2 20 12.6 12.2 20.9 11.2Z" fill="white"/>
<path fill-rule="evenodd" clip-rule="evenodd" d="M7.70001 0.400002C16.8 11.1 11 17.7 9.29999 20C9.29999 20 12.8 12.5 7.70001 0.400002Z" fill="white"/>
<path opacity="0.5" fill-rule="evenodd" clip-rule="evenodd" d="M1.09998 12C7.99998 13.1 7.9 18.8 8 20C8 20 5.89998 15.3 1.09998 12Z" fill="white"/>
<path opacity="0.5" fill-rule="evenodd" clip-rule="evenodd" d="M21 16.7C15.4 16.7 11.1 18.8 11 20C11 20 16.3 19.9 21 16.7Z" fill="white"/>
<path fill-rule="evenodd" clip-rule="evenodd" d="M9.40002 16.8L8.90002 19.9C8.10002 17 9.20002 12.3 2.40002 6.7C10.2 11.2 9.40002 16.8 9.40002 16.8Z" fill="white"/>
</svg>
