<svg width="20" height="20" viewBox="0 0 20 20" fill="none" xmlns="http://www.w3.org/2000/svg">
<path opacity="0.5" fill-rule="evenodd" clip-rule="evenodd" d="M4 1V8.4C4.1 8.4 6.7 8.4 8 10.2C9.6 8.2 13.4 8 14.4 9.9C14.6 10.2 14.8 10.6 15 11H20V4.3V1H4Z" fill="white"/>
<path fill-rule="evenodd" clip-rule="evenodd" d="M4 1V8.4C4 8.4 4.4 8.4 5 8.4V2H19V10H14.5C14.7 10.3 14.8 10.6 15 11H20V4.3V1H4Z" fill="white"/>
<path opacity="0.5" fill-rule="evenodd" clip-rule="evenodd" d="M16.7 15H20V13.8L15.7 13C16.3 14.2 16.7 15 16.7 15Z" fill="white"/>
<path fill-rule="evenodd" clip-rule="evenodd" d="M14.8 15C14.2 13.3 12.9999 10.4 11.6999 10.4C9.8999 10.4 9.89992 12.1 9.09992 12.1C8.69992 12.1 7.29999 12.1 6.79999 12.1C5.99999 12.1 6.09999 10.4 4.29999 10.4C3.09999 10.4 1.7999 13.3 1.1999 15C0.0998966 18.1 -5.72205e-06 19.6 2.29999 19.6C4.79999 19.6 4.69995 16.7 7.99995 16.7C11.0999 16.7 11.1999 19.6 13.5999 19.6C15.8999 19.6 15.9 18.1 14.8 15ZM6.49995 15H4.99995V16.5H3.99995V15H2.49995V14H3.99995V12.5H4.99995V14H6.49995V15ZM11.4999 16.5C10.3999 16.5 9.49995 15.6 9.49995 14.5C9.49995 13.4 10.3999 12.5 11.4999 12.5C12.5999 12.5 13.4999 13.4 13.4999 14.5C13.4999 15.6 12.5999 16.5 11.4999 16.5Z" fill="white"/>
<path fill-rule="evenodd" clip-rule="evenodd" d="M11.5 13.8C11.1 13.8 10.8 14.1 10.8 14.5C10.8 14.9 11.1 15.2 11.5 15.2C11.9 15.2 12.2 14.9 12.2 14.5C12.2 14.1 11.9 13.8 11.5 13.8Z" fill="white"/>
</svg>
