<svg width="16" height="16" viewBox="0 0 16 16" fill="none" xmlns="http://www.w3.org/2000/svg">
<path opacity="0.5" fill-rule="evenodd" clip-rule="evenodd" d="M15 15L13 11L16 15V16H0V15L3 11L1 15H15Z" fill="white"/>
<path d="M4 4V5C4 5.55228 4.44772 6 5 6H7C7.55228 6 8 5.55228 8 5V4C8 3.44772 7.55228 3 7 3H5C4.44772 3 4 3.44772 4 4Z" fill="white"/>
<path d="M12 1V2C12 2.55228 12.4477 3 13 3H15C15.5523 3 16 2.55228 16 2V1C16 0.447715 15.5523 0 15 0H13C12.4477 0 12 0.447715 12 1Z" fill="white"/>
<path d="M12 7V8C12 8.55228 12.4477 9 13 9H15C15.5523 9 16 8.55228 16 8V7C16 6.44772 15.5523 6 15 6H13C12.4477 6 12 6.44772 12 7Z" fill="white"/>
<path opacity="0.5" d="M14 2V1H10C9.73478 1 9.48043 1.10536 9.29289 1.29289C9.10536 1.48043 9 1.73478 9 2V4H8V5H9V7C9 7.26522 9.10536 7.51957 9.29289 7.70711C9.48043 7.89464 9.73478 8 10 8H14V7H10.6C10.4409 7 10.2883 6.93679 10.1757 6.82426C10.0632 6.71174 10 6.55913 10 6.4V2.6C10 2.44087 10.0632 2.28826 10.1757 2.17574C10.2883 2.06321 10.4409 2 10.6 2H14Z" fill="white"/>
<path d="M10.5 9L9 13L6.5 7L3 14H13L10.5 9Z" fill="white"/>
</svg>
