<svg width="20" height="20" viewBox="0 0 20 20" fill="none" xmlns="http://www.w3.org/2000/svg">
<path opacity="0.5" d="M6 4V7.8H7V4C7 2.3 8.3 1 10 1C11.7 1 13 2.3 13 4V7.8H14V4C14 1.8 12.2 0 10 0C7.8 0 6 1.8 6 4Z" fill="white"/>
<path d="M1 6V19H19V6H1ZM12.3 17.2L11.2 16.3L10 17.6C10 17.6 7.29998 17.4 6.09998 15.7C6.09998 15.7 6.3 15.8 6.5 15.8C6.7 15.8 7 15.7 7 15.3V11.4C7 11.2 6.89998 11 6.59998 11C6.29998 11 5.90002 11.2 5.40002 11.7C4.30002 12.8 3.80005 13.9 3.80005 13.9C3.80005 13.9 3.49995 12.3 5.19995 10.4C6.89995 8.5 8.1 7.8 9.5 7.4C9.5 7.4 8.40002 8 8.40002 9C8.40002 9.3 8.4 9.5 8.5 9.6C8.6 9.8 8.70005 9.8 8.80005 9.8C8.90005 9.8 8.99998 9.8 9.09998 9.7V14.8C9.09998 14.8 9.09995 14.9 9.19995 15C9.29995 15.1 9.50005 15.3 9.80005 15.3C10.3 15.3 11 14.7 11 14.7V10.6C11 10.2 10.7 9.7 10.4 9.5C10.4 9.5 11.1 9.5 11.4 9.7C11.4 9.7 12.5 8.4 14.6 7.9C14.6 7.9 13.5 9.2 13.2 9.9C13.1 9.9 13.1 11.1 13.1 12.4C13.1 13.6 13.1 14.8 13.2 14.8C13.2 14.8 13.3 15 13.6 15C13.9 15 14.5 14.8 15.4 13.8C15.3 13.8 14.3 16 12.3 17.2Z" fill="white"/>
</svg>
