<svg width="20" height="20" viewBox="0 0 20 20" fill="none" xmlns="http://www.w3.org/2000/svg">
<path d="M9.29999 14.1L7.79999 12.6C7.79999 12.6 10.2 9.7 11.6 8.2C13 6.7 19.1 2 19.1 2C19.3 1.8 19.6 1.8 19.8 2C20 2.2 20 2.5 19.8 2.7C19.8 2.7 15 8.9 13.6 10.3C12.2 11.7 9.29999 14.1 9.29999 14.1Z" fill="white"/>
<path d="M8 14.5L7.1 13.4C7.1 13.4 4.6 13 3.7 16.4C3 18.6 0 20 0 20C0 20 2.7 20 3.7 20C4.8 20 6.7 19.5 7.7 17.5C8.6 15.8 8 14.5 8 14.5Z" fill="white"/>
<path opacity="0.5" d="M3 14C3.7 13.2 4.8 12.1 6.5 11.4C8.3 9.3 12.4 5.6 15.5 3C15.1 2.6 14.6 2.2 14.1 2C9.4 -0.799997 3.6 0.600003 1.1 4.9C-1 8.8 0.3 12.3 3 14ZM10.1 2.7C10.5 1.9 11.5 1.7 12.3 2.1C13.1 2.5 13.3 3.5 12.9 4.3C12.5 5.1 11.5 5.3 10.7 4.9C10 4.5 9.7 3.5 10.1 2.7ZM4.9 11.3C4.5 12.1 3.5 12.3 2.7 11.9C1.9 11.5 1.7 10.5 2.1 9.7C2.5 8.9 3.5 8.7 4.3 9.1C5.1 9.6 5.4 10.5 4.9 11.3ZM5 2.7C5.4 1.9 6.4 1.7 7.2 2.1C8 2.5 8.2 3.5 7.8 4.3C7.4 5 6.4 5.3 5.6 4.9C4.9 4.5 4.6 3.5 5 2.7ZM2.1 5.7C2.5 4.9 3.5 4.7 4.3 5.1C5.1 5.5 5.3 6.5 4.9 7.3C4.4 8 3.4 8.3 2.7 7.9C1.9 7.4 1.6 6.4 2.1 5.7Z" fill="white"/>
<path opacity="0.5" d="M11.4 14.4C14.2 14.5 15.8 17.1 18.5 15.5C20.5 14.3 20.1 10.5 18.5 7.10001C17.2 8.70001 15.5 10.8 14.4 11.9C13.5 12.8 12.3 13.7 11.4 14.4ZM15.6 12.3C16 11.5 17 11.3 17.8 11.7C18.6 12.1 18.8 13.1 18.4 13.9C18 14.7 17 14.9 16.2 14.5C15.4 14 15.2 13 15.6 12.3Z" fill="white"/>
</svg>
