<svg xmlns="http://www.w3.org/2000/svg" viewBox="0 0 20 20"><defs><style>.cls-1,.cls-2{fill:#fff;}.cls-1{fill-rule:evenodd;}.cls-3{fill:none;}</style></defs><g id="Layer_2" data-name="Layer 2"><g id="Layer_4" data-name="Layer 4"><path class="cls-1" d="M9.94,19h8.12a.94.94,0,0,0,.94-.94V3.94A.94.94,0,0,0,18.06,3H10.35L12,4h6V15H10V11.91l-1,.6v5.55A.94.94,0,0,0,9.94,19Zm2.56-2A1.5,1.5,0,1,1,14,18.5,1.5,1.5,0,0,1,12.5,17Z"/><path class="cls-2" d="M1,14.9,13.6,8.1a.67.67,0,0,0,0-1.2L1,.1A.66.66,0,0,0,0,.7V14.4A.65.65,0,0,0,1,14.9Z"/><rect class="cls-3" width="20" height="20"/></g></g></svg>