<svg xmlns="http://www.w3.org/2000/svg" viewBox="0 0 20 20"><defs><style>.cls-1,.cls-2{fill:#fff;}.cls-2{opacity:0.5;}.cls-3{fill:none;}</style></defs><g id="Layer_2" data-name="Layer 2"><g id="Layer_4" data-name="Layer 4"><path class="cls-1" d="M1,14.9,13.59,8.1a.67.67,0,0,0,0-1.2L1,.1A.66.66,0,0,0,0,.7V14.4A.65.65,0,0,0,1,14.9Z"/><path class="cls-1" d="M8.25,13H19V10H13.69Zm7.25-2.5a1,1,0,0,1,1,1,1,1,0,1,1,1,1,1,1,0,0,1-1-1,1,1,0,0,1-2,0,1,1,0,1,1-1-1,1,1,0,0,1,1,1A1,1,0,0,1,15.5,10.5Z"/><polygon class="cls-2" points="5 14.79 5 20 19 20 19 13 8.25 13 5 14.79"/><rect class="cls-3" width="20" height="20"/></g></g></svg>