<svg xmlns="http://www.w3.org/2000/svg" viewBox="0 0 20 20"><defs><style>.cls-1,.cls-2,.cls-3{fill:#fff;}.cls-2{fill-rule:evenodd;}.cls-3{opacity:0.5;}.cls-4{fill:none;}</style></defs><g id="Layer_2" data-name="Layer 2"><g id="Layer_4" data-name="Layer 4"><path class="cls-1" d="M1,14.9,13.59,8.1a.67.67,0,0,0,0-1.2L1,.1A.66.66,0,0,0,0,.7V14.4A.65.65,0,0,0,1,14.9Z"/><path class="cls-2" d="M9.26,13.83H9.2L5,14.45v3.9l2.56.37.6-1.78.73-1L9.68,17l.78,2.16,4.39.65a1,1,0,0,0,1.15-1V14a1,1,0,0,0-1.15-1ZM5.44,17.61V15.19L8.09,15l-.9,2.8Zm9.2.8L11,18.1,9.77,14.81l4.87-.42Z"/><path class="cls-3" d="M18.78,13.08,15.18,13h-.33A1,1,0,0,1,16,14v4.82a1,1,0,0,1-.3.69L19.27,18a1.36,1.36,0,0,0,.73-1.2V14.34A1.28,1.28,0,0,0,18.78,13.08Z"/><rect class="cls-4" width="20" height="20"/></g></g></svg>