<svg width="20" height="20" viewBox="0 0 20 20" fill="none" xmlns="http://www.w3.org/2000/svg">
<path fill-rule="evenodd" clip-rule="evenodd" d="M19.4 11.2C19.4 10.8 19.5 10.4 19.5 10C19.5 9.6 19.4 9.2 19.4 8.8L16.5 8.4C16.3 7.7 16.1 7.1 15.7 6.6L17.5 4.2C17 3.6 16.5 3 15.8 2.5L13.4 4.3C12.8 4 12.2 3.7 11.6 3.5L11.2 0.599998C10.8 0.599998 10.4 0.5 10 0.5C9.6 0.5 9.20005 0.599998 8.80005 0.599998L8.40002 3.5C7.80002 3.7 7.09998 3.9 6.59998 4.3L4.19995 2.5C3.59995 3 3 3.5 2.5 4.2L4.30005 6.6C4.00005 7.2 3.69998 7.8 3.59998 8.4L0.699951 8.8C0.699951 9.2 0.599976 9.6 0.599976 10C0.599976 10.4 0.699951 10.8 0.699951 11.2L3.59998 11.6C3.79998 12.2 4.00005 12.8 4.30005 13.4L2.5 15.8C3 16.4 3.49995 17 4.19995 17.5L6.59998 15.7C7.19998 16 7.80002 16.3 8.40002 16.5L8.80005 19.4C9.20005 19.5 9.6 19.5 10 19.5C10.4 19.5 10.8 19.4 11.2 19.4L11.6 16.5C12.3 16.3 12.9 16.1 13.4 15.7L15.8 17.5C16.4 17 17 16.5 17.5 15.8L15.7 13.4C16 12.8 16.3 12.2 16.5 11.6L19.4 11.2ZM10 15.4C7 15.4 4.59998 13 4.59998 10C4.59998 7 7 4.6 10 4.6C13 4.6 15.4 7 15.4 10C15.4 13 13 15.4 10 15.4Z" fill="white"/>
<path opacity="0.5" d="M10 7.3C11.5 7.3 12.7 8.5 12.7 10C12.7 11.5 11.5 12.7 10 12.7C8.5 12.7 7.30005 11.5 7.30005 10C7.30005 8.5 8.5 7.3 10 7.3ZM10 6.3C8 6.3 6.30005 8 6.30005 10C6.30005 12 8 13.7 10 13.7C12 13.7 13.7 12 13.7 10C13.7 8 12 6.3 10 6.3Z" fill="white"/>
</svg>
