<svg xmlns="http://www.w3.org/2000/svg" viewBox="0 0 20 20"><defs><style>.cls-1,.cls-2{fill:#fff;}.cls-2{opacity:0.5;}.cls-3{fill:none;}</style></defs><g id="Layer_2" data-name="Layer 2"><g id="Layer_4" data-name="Layer 4"><path class="cls-1" d="M1,14.85,13.5,8.1a.67.67,0,0,0,0-1.2L1,.15a.65.65,0,0,0-1,.6v13.6A.65.65,0,0,0,1,14.85Z"/><path class="cls-1" d="M6.51,13.83a.67.67,0,0,1,0,1.34.66.66,0,0,1-.66-.67A.67.67,0,0,1,6.51,13.83ZM4.28,17.35l.91-.68a2.41,2.41,0,0,0,.7.29l.16,1.12.44.05A3.41,3.41,0,0,0,7,18.08L7.11,17a2.85,2.85,0,0,0,.7-.28l.9.67a3.47,3.47,0,0,0,.64-.63l-.68-.91A2.35,2.35,0,0,0,9,15.12L10.08,15a3.42,3.42,0,0,0,0-.45,2.28,2.28,0,0,0,0-.45L9,13.89a3,3,0,0,0-.29-.69l.68-.9c-.06-.08-.14-.14-.2-.21l-1.43.83a2,2,0,1,1-3.2,1.87L4,15.1H4a2.53,2.53,0,0,0,.29.7l-.67.9A3.47,3.47,0,0,0,4.28,17.35Z"/><path class="cls-1" d="M17,13.89a3,3,0,0,0-.29-.69l.68-.9a3.82,3.82,0,0,0-.63-.64l-.91.67a2.6,2.6,0,0,0-.69-.29L15,10.92l-.45-.05a3.12,3.12,0,0,0-.44.05L13.9,12a2.53,2.53,0,0,0-.7.29l-.91-.68a3.76,3.76,0,0,0-.63.63l.67.91a2.53,2.53,0,0,0-.29.7L10.92,14a3.42,3.42,0,0,0,0,.45,2.28,2.28,0,0,0,0,.45l1.11.17a2.53,2.53,0,0,0,.29.7l-.67.9a3.47,3.47,0,0,0,.63.64l.91-.68a2.41,2.41,0,0,0,.7.29l.16,1.12.44.05a3.41,3.41,0,0,0,.46-.05L15.11,17a2.85,2.85,0,0,0,.7-.28l.9.67a3.47,3.47,0,0,0,.64-.63l-.68-.91a2.35,2.35,0,0,0,.29-.69L18.08,15a3.42,3.42,0,0,0,0-.45,2.28,2.28,0,0,0,0-.45ZM14.5,16.5a2,2,0,1,1,2-2A2,2,0,0,1,14.5,16.5Zm.67-2a.67.67,0,0,1-.67.67.66.66,0,0,1-.66-.67.67.67,0,1,1,1.33,0Z"/><path class="cls-2" d="M14.5,9h0l-1.71,1H14.5a4.5,4.5,0,0,1,0,9h-9a4.5,4.5,0,0,1-4-2.45l-.87.51A5.48,5.48,0,0,0,5.5,20h9a5.5,5.5,0,0,0,0-11Z"/><rect class="cls-3" width="20" height="20"/></g></g></svg>