<svg width="8" height="8" viewBox="0 0 8 8" fill="none" xmlns="http://www.w3.org/2000/svg">
<path d="M4 1C4.59335 1 5.17337 1.17595 5.66671 1.50559C6.16006 1.83524 6.54458 2.30377 6.77164 2.85195C6.9987 3.40013 7.05811 4.00333 6.94236 4.58527C6.8266 5.16721 6.54088 5.70176 6.12132 6.12132C5.70176 6.54088 5.16722 6.8266 4.58527 6.94236C4.00333 7.05811 3.40013 6.9987 2.85195 6.77164C2.30377 6.54458 1.83524 6.16006 1.50559 5.66671C1.17595 5.17336 1 4.59334 1 4C1 3.20435 1.31607 2.44129 1.87868 1.87868C2.44129 1.31607 3.20435 1 4 1ZM4 0C3.20888 0 2.43552 0.234596 1.77772 0.674122C1.11992 1.11365 0.607234 1.73836 0.304484 2.46927C0.00173312 3.20017 -0.0774802 4.00444 0.0768607 4.78036C0.231202 5.55629 0.612165 6.26902 1.17157 6.82843C1.73098 7.38784 2.44372 7.7688 3.21964 7.92314C3.99556 8.07748 4.79983 7.99827 5.53074 7.69552C6.26164 7.39277 6.88635 6.88008 7.32588 6.22228C7.76541 5.56448 8 4.79113 8 4C8 2.93913 7.57857 1.92172 6.82843 1.17157C6.07828 0.421427 5.06087 0 4 0V0Z" fill="white"/>
<path d="M4 5.75C4.9665 5.75 5.75 4.9665 5.75 4C5.75 3.0335 4.9665 2.25 4 2.25C3.0335 2.25 2.25 3.0335 2.25 4C2.25 4.9665 3.0335 5.75 4 5.75Z" fill="white"/>
</svg>
