<svg width="20" height="20" viewBox="0 0 20 20" fill="none" xmlns="http://www.w3.org/2000/svg">
<path d="M18 3.92857V15.0714H2V3.92857H18ZM19 3H1V16H19V3Z" fill="white"/>
<path opacity="0.5" d="M7.33002 16H5.33002L3.33002 20H5.33002L7.33002 16Z" fill="white"/>
<path opacity="0.5" d="M14.67 16H12.67L14.67 20H16.67L14.67 16Z" fill="white"/>
<path opacity="0.5" d="M10.5 0H9.5C9.36739 0 9.24022 0.0790285 9.14645 0.219681C9.05269 0.360333 9 0.551088 9 0.75V3H11V0.75C11 0.551088 10.9473 0.360333 10.8535 0.219681C10.7598 0.0790285 10.6326 0 10.5 0Z" fill="white"/>
</svg>
