<svg width="20" height="20" viewBox="0 0 20 20" fill="none" xmlns="http://www.w3.org/2000/svg">
<path d="M5 8.57007C6.933 8.57007 8.5 7.00307 8.5 5.07007C8.5 3.13707 6.933 1.57007 5 1.57007C3.067 1.57007 1.5 3.13707 1.5 5.07007C1.5 7.00307 3.067 8.57007 5 8.57007Z" fill="white"/>
<path d="M5 18.5701C6.933 18.5701 8.5 17.0031 8.5 15.0701C8.5 13.1371 6.933 11.5701 5 11.5701C3.067 11.5701 1.5 13.1371 1.5 15.0701C1.5 17.0031 3.067 18.5701 5 18.5701Z" fill="white"/>
<path opacity="0.5" d="M10.75 5.72986L15 9.99988L10.73 14.2699C10.5663 14.4347 10.4745 14.6576 10.4745 14.8899C10.4745 15.1222 10.5663 15.345 10.73 15.5099C10.8948 15.6735 11.1177 15.7654 11.35 15.7654C11.5823 15.7654 11.8051 15.6735 11.97 15.5099L17.48 9.99988L11.97 4.48987C11.8051 4.32621 11.5823 4.23438 11.35 4.23438C11.1177 4.23438 10.8948 4.32621 10.73 4.48987C10.569 4.65734 10.4807 4.88172 10.4844 5.11401C10.4882 5.34631 10.5837 5.56767 10.75 5.72986Z" fill="white"/>
</svg>
