<svg width="20" height="20" viewBox="0 0 20 20" fill="none" xmlns="http://www.w3.org/2000/svg">
<path fill-rule="evenodd" clip-rule="evenodd" d="M11.49 5.88984C11.2106 5.11918 11.1564 4.28494 11.3335 3.48457C11.5105 2.6842 11.9116 1.95074 12.49 1.36982C13.081 0.774447 13.8319 0.363097 14.6518 0.185621C15.4718 0.00814413 16.3257 0.0721487 17.1101 0.369825L14.4099 3.05989C14.0734 3.39893 13.8847 3.85713 13.8847 4.33479C13.8847 4.81245 14.0734 5.27078 14.4099 5.60982C14.7506 5.94691 15.2106 6.13594 15.6899 6.13594C16.1692 6.13594 16.6292 5.94691 16.9699 5.60982L19.6399 2.93977C19.9217 3.71496 19.9776 4.55433 19.8005 5.35994C19.6234 6.16555 19.2208 6.90425 18.6399 7.48982C18.0637 8.0559 17.3408 8.44958 16.5527 8.62629C15.7646 8.80301 14.9426 8.7557 14.1799 8.48982L11.49 5.88984Z" fill="white"/>
<path opacity="0.5" fill-rule="evenodd" clip-rule="evenodd" d="M13 9.47986L6.19995 16.2699C6.22629 16.6367 6.17402 17.0049 6.04639 17.3499C5.91876 17.6948 5.71874 18.0085 5.45996 18.2699C5.21812 18.5148 4.93012 18.7092 4.61255 18.8419C4.29498 18.9746 3.9543 19.043 3.61011 19.043C3.26592 19.043 2.92499 18.9746 2.60742 18.8419C2.28985 18.7092 2.00185 18.5148 1.76001 18.2699C1.51541 18.0289 1.32106 17.7417 1.18848 17.4249C1.05589 17.1082 0.987793 16.7683 0.987793 16.4249C0.987793 16.0816 1.05589 15.7415 1.18848 15.4248C1.32106 15.1081 1.51541 14.8208 1.76001 14.5798C2.0207 14.3207 2.33463 14.1213 2.67993 13.9952C3.02523 13.8692 3.39368 13.8196 3.76001 13.8499L10.51 7.09985L13 9.47986ZM4.48999 15.5399C4.37747 15.4262 4.24356 15.336 4.09595 15.2744C3.94833 15.2128 3.78983 15.181 3.62988 15.181C3.46993 15.181 3.31168 15.2128 3.16406 15.2744C3.01645 15.336 2.88254 15.4262 2.77002 15.5399C2.65664 15.6516 2.56659 15.7846 2.50513 15.9314C2.44367 16.0782 2.41211 16.2358 2.41211 16.3949C2.41211 16.554 2.44367 16.7116 2.50513 16.8584C2.56659 17.0052 2.65664 17.1382 2.77002 17.2499C2.88254 17.3636 3.01645 17.4538 3.16406 17.5154C3.31168 17.577 3.46993 17.6086 3.62988 17.6086C3.78983 17.6086 3.94833 17.577 4.09595 17.5154C4.24356 17.4538 4.37747 17.3636 4.48999 17.2499C4.71787 17.0243 4.847 16.7176 4.84888 16.397C4.85075 16.0764 4.72523 15.7681 4.5 15.5399H4.48999Z" fill="white"/>
</svg>
