<svg width="20" height="20" viewBox="0 0 20 20" fill="none" xmlns="http://www.w3.org/2000/svg">
<path d="M15 10L15.83 9.17L13.13 3.75L11.25 8.75L8.13 0L3.75 10H15Z" fill="white"/>
<path opacity="0.5" fill-rule="evenodd" clip-rule="evenodd" d="M14 11H1.5L4 6.25L0 11V13H12L14 11Z" fill="white"/>
<path d="M14.27 17.64L12.3601 15.73L17.6499 10.4399C17.7693 10.3245 17.9289 10.26 18.095 10.26C18.261 10.26 18.4207 10.3245 18.54 10.4399L19.54 11.4399C19.6555 11.5593 19.72 11.7189 19.72 11.885C19.72 12.0511 19.6555 12.2106 19.54 12.33L14.27 17.64ZM13.27 18.64L11.3601 16.73L10 20L13.27 18.64Z" fill="white"/>
</svg>
