<svg width="20" height="20" viewBox="0 0 20 20" fill="none" xmlns="http://www.w3.org/2000/svg">
<path d="M9.99672 1.38658L1.38403 9.99927L9.99655 18.6118L18.6092 9.99909L9.99672 1.38658Z" stroke="white" stroke-width="1.19" stroke-miterlimit="10"/>
<path d="M13.21 13.2098C13.1165 13.3025 13.0056 13.3759 12.8838 13.4257C12.762 13.4754 12.6316 13.5006 12.5 13.4999C12.3684 13.5006 12.238 13.4754 12.1162 13.4257C11.9944 13.3759 11.8835 13.3025 11.79 13.2098L10 11.4099L8.20996 13.2098C8.11652 13.3025 8.00563 13.3759 7.88379 13.4257C7.76195 13.4754 7.63161 13.5006 7.5 13.4999C7.36839 13.5006 7.23805 13.4754 7.11621 13.4257C6.99437 13.3759 6.88348 13.3025 6.79004 13.2098C6.69631 13.1169 6.62181 13.0063 6.57104 12.8844C6.52028 12.7625 6.49414 12.6319 6.49414 12.4999C6.49414 12.3679 6.52028 12.2372 6.57104 12.1154C6.62181 11.9935 6.69631 11.8829 6.79004 11.7899L8.59009 9.99988L6.79004 8.20984C6.69631 8.11688 6.62181 8.00626 6.57104 7.8844C6.52028 7.76254 6.49414 7.63189 6.49414 7.49988C6.49414 7.36787 6.52028 7.23722 6.57104 7.11536C6.62181 6.9935 6.69631 6.88288 6.79004 6.78992C6.883 6.69619 6.99362 6.62181 7.11548 6.57104C7.23734 6.52028 7.36799 6.49414 7.5 6.49414C7.63201 6.49414 7.76266 6.52028 7.88452 6.57104C8.00638 6.62181 8.117 6.69619 8.20996 6.78992L10 8.58984L11.79 6.78992C11.883 6.69619 11.9936 6.62181 12.1155 6.57104C12.2373 6.52028 12.368 6.49414 12.5 6.49414C12.632 6.49414 12.7627 6.52028 12.8845 6.57104C13.0064 6.62181 13.117 6.69619 13.21 6.78992C13.3037 6.88288 13.3782 6.9935 13.429 7.11536C13.4797 7.23722 13.5059 7.36787 13.5059 7.49988C13.5059 7.63189 13.4797 7.76254 13.429 7.8844C13.3782 8.00626 13.3037 8.11688 13.21 8.20984L11.4099 9.99988L13.21 11.7899C13.3037 11.8829 13.3782 11.9935 13.429 12.1154C13.4797 12.2372 13.5059 12.3679 13.5059 12.4999C13.5059 12.6319 13.4797 12.7625 13.429 12.8844C13.3782 13.0063 13.3037 13.1169 13.21 13.2098Z" fill="white"/>
</svg>
