<svg width="20" height="20" viewBox="0 0 20 20" fill="none" xmlns="http://www.w3.org/2000/svg">
<path d="M6.52002 8.31987C6.66794 8.31855 6.81462 8.34657 6.95166 8.40227C7.0887 8.45796 7.2133 8.54032 7.31836 8.64445C7.42342 8.74859 7.50681 8.87242 7.56372 9.00896C7.62063 9.1455 7.64991 9.29194 7.6499 9.43986C7.6499 9.58826 7.62075 9.73526 7.56396 9.87236C7.50718 10.0095 7.42402 10.134 7.31909 10.2389C7.21416 10.3439 7.08949 10.4271 6.95239 10.4839C6.81529 10.5407 6.66841 10.5699 6.52002 10.5699C6.22206 10.5672 5.9373 10.447 5.72754 10.2354C5.51778 10.0238 5.39989 9.73783 5.3999 9.43986C5.3999 9.14282 5.51799 8.85803 5.72803 8.64799C5.93807 8.43795 6.22298 8.31987 6.52002 8.31987Z" fill="white"/>
<path d="M0.5 10L10 19.5L19.5 10L10 0.5L0.5 10ZM16 11V13H15V12H14V13H13V10H9C8.85348 10.5472 8.53167 11.0313 8.08374 11.3781C7.63581 11.7248 7.08648 11.9153 6.52002 11.92C5.86402 11.9174 5.23588 11.6549 4.77295 11.1901C4.31002 10.7253 4.05004 10.0959 4.05005 9.43994C4.05005 8.78486 4.31022 8.1567 4.77344 7.69348C5.23665 7.23027 5.86493 6.96997 6.52002 6.96997C7.08985 7.00468 7.63471 7.21584 8.0791 7.57422C8.52349 7.9326 8.84536 8.42042 9 8.96997H16V11Z" fill="white"/>
</svg>
