<svg width="20" height="20" viewBox="0 0 20 20" fill="none" xmlns="http://www.w3.org/2000/svg">
<path d="M7.66992 3.87C7.52253 3.14555 7.12971 2.49425 6.55762 2.026C5.98552 1.55776 5.26932 1.30133 4.53003 1.30005C3.67868 1.30005 2.86225 1.63824 2.26025 2.24023C1.65826 2.84223 1.32007 3.65866 1.32007 4.51001C1.32007 5.36135 1.65826 6.17779 2.26025 6.77979C2.86225 7.38178 3.67868 7.71997 4.53003 7.71997C5.26882 7.71682 5.98395 7.45975 6.55566 6.99182C7.12738 6.52389 7.52079 5.87361 7.66992 5.15002H14.1499V9H15.4299V7.71997H16.72V9H18V3.87H7.66992ZM4.53003 6.43005C4.27705 6.43137 4.02634 6.38264 3.79224 6.28674C3.55814 6.19084 3.34512 6.04964 3.16577 5.87122C2.98642 5.6928 2.84418 5.48067 2.74707 5.24707C2.64996 5.01347 2.60009 4.76299 2.6001 4.51001C2.6001 3.99814 2.80334 3.50721 3.16528 3.14526C3.52723 2.78332 4.01816 2.57996 4.53003 2.57996C5.04016 2.5826 5.5284 2.78714 5.88818 3.1488C6.24797 3.51046 6.44996 3.99987 6.44995 4.51001C6.44995 4.76215 6.40044 5.01181 6.30396 5.24475C6.20747 5.4777 6.06598 5.68939 5.8877 5.86768C5.70941 6.04596 5.49759 6.18732 5.26465 6.28381C5.0317 6.3803 4.78217 6.43005 4.53003 6.43005V6.43005Z" fill="white"/>
<path d="M17 13H3V17H17V13Z" fill="white"/>
<path d="M18 12V18H2V12H18ZM19 11H1V19H19V11Z" fill="white"/>
</svg>
