<svg width="20" height="20" viewBox="0 0 20 20" fill="none" xmlns="http://www.w3.org/2000/svg">
<path opacity="0.5" d="M16 12H14V15H16V12Z" fill="white"/>
<path d="M16 11.57L19 9V18L16 15.43V11.57Z" fill="white"/>
<path opacity="0.5" d="M10.5 1C9.57174 1 8.68152 1.36877 8.02515 2.02515C7.36877 2.68152 7 3.57174 7 4.5C7 3.57174 6.63123 2.68152 5.97485 2.02515C5.31848 1.36877 4.42826 1 3.5 1C2.57174 1 1.68152 1.36877 1.02515 2.02515C0.368769 2.68152 0 3.57174 0 4.5C0 5.42826 0.368769 6.31848 1.02515 6.97485C1.68152 7.63123 2.57174 8 3.5 8H10.5C11.4283 8 12.3185 7.63123 12.9749 6.97485C13.6312 6.31848 14 5.42826 14 4.5C14 3.57174 13.6312 2.68152 12.9749 2.02515C12.3185 1.36877 11.4283 1 10.5 1V1Z" fill="white"/>
<path d="M12.25 9H1.75C1.33579 9 1 9.33579 1 9.75V17.25C1 17.6642 1.33579 18 1.75 18H12.25C12.6642 18 13 17.6642 13 17.25V9.75C13 9.33579 12.6642 9 12.25 9Z" fill="white"/>
<path fill-rule="evenodd" clip-rule="evenodd" d="M12.25 2.74988C12.8017 3.30238 13.1395 4.03264 13.2036 4.81079C13.2677 5.58894 13.054 6.36456 12.6001 6.99988C12.7521 6.89428 12.8958 6.7773 13.03 6.6499C13.6505 6.0292 13.999 5.18755 13.999 4.30994C13.999 3.43233 13.6505 2.59055 13.03 1.96985C12.4093 1.34942 11.5676 1.00098 10.6899 1.00098C9.81233 1.00098 8.9708 1.34942 8.3501 1.96985C8.2227 2.1041 8.1056 2.2479 8 2.3999C8.63532 1.94604 9.41106 1.73206 10.1892 1.79614C10.9674 1.86023 11.6975 2.19819 12.25 2.74988Z" fill="white"/>
<path fill-rule="evenodd" clip-rule="evenodd" d="M4.99976 2.29993C5.7941 2.74078 6.47796 3.35618 6.99976 4.09985C6.94228 3.29036 6.58585 2.53116 5.99976 1.96985C5.37905 1.34942 4.53728 1.00098 3.65967 1.00098C2.78206 1.00098 1.94053 1.34942 1.31982 1.96985C1.19242 2.1041 1.07532 2.2479 0.969727 2.3999C1.56904 2.01879 2.26094 1.80815 2.97095 1.79053C3.68095 1.77291 4.38228 1.94901 4.99976 2.29993V2.29993Z" fill="white"/>
</svg>
