<svg width="21" height="22" viewBox="0 0 21 22" fill="none" xmlns="http://www.w3.org/2000/svg">
<path d="M9.77004 20.3499L19.77 14.9599C19.8511 14.9135 19.9185 14.8466 19.9653 14.7658C20.0122 14.6851 20.0369 14.5933 20.0369 14.5C20.0369 14.4066 20.0122 14.3149 19.9653 14.2341C19.9185 14.1533 19.8511 14.0864 19.77 14.04L9.77004 8.64999C9.69055 8.60641 9.60115 8.58435 9.51051 8.58603C9.41988 8.5877 9.33126 8.61302 9.25343 8.65951C9.17561 8.706 9.1111 8.77203 9.06667 8.85104C9.02223 8.93006 8.99931 9.0193 9.00002 9.10995V19.89C8.99931 19.9806 9.02223 20.0699 9.06667 20.1489C9.1111 20.2279 9.17561 20.2939 9.25343 20.3404C9.33126 20.3869 9.41988 20.4122 9.51051 20.4139C9.60115 20.4156 9.69055 20.3935 9.77004 20.3499Z" fill="white"/>
<path d="M7.99976 13.5699C7.39961 13.5699 6.80543 13.4518 6.25098 13.2222C5.69652 12.9925 5.19267 12.6558 4.76831 12.2314C4.34395 11.8071 4.00725 11.3034 3.77759 10.7489C3.54792 10.1944 3.42969 9.60014 3.42969 9C3.43233 7.78877 3.91477 6.62795 4.77124 5.77148C5.62771 4.91502 6.78853 4.4327 7.99976 4.43005C9.05219 4.43111 10.072 4.79448 10.8879 5.45923C11.7039 6.12398 12.266 7.04945 12.4797 8.07996L15.9297 9.93994C15.9799 9.62888 16.0101 9.31495 16.0198 9C16.0072 8.66492 15.9737 8.33094 15.9197 8L13.4597 7.64001C13.32 7.09594 13.1047 6.57413 12.8198 6.08997L14.2998 4.08997C13.8948 3.56837 13.4241 3.10117 12.8997 2.69995L10.8997 4.18005C10.4205 3.89467 9.90166 3.68233 9.35986 3.55005L8.99976 1.08997C8.6688 1.03607 8.33483 1.00269 7.99976 0.98999C7.6647 1.003 7.33075 1.03637 6.99976 1.08997L6.62964 3.56006C6.09565 3.69689 5.58408 3.9089 5.10986 4.18994L3.10986 2.70996C2.58744 3.11732 2.11708 3.58756 1.70972 4.10999L3.19971 6.10999C2.91704 6.57983 2.7049 7.08858 2.56982 7.62L0.109863 7.98999C0.0558634 8.32093 0.0223681 8.65491 0.00976562 8.98999C0.0223681 9.32507 0.0558634 9.65905 0.109863 9.98999L2.56982 10.36C2.7049 10.8914 2.91704 11.4002 3.19971 11.87L1.70972 13.87C2.11444 14.3947 2.58511 14.8653 3.10986 15.27L5.10986 13.79C5.58276 14.0761 6.09458 14.2917 6.62964 14.4301L6.99976 16.89C7.33075 16.9436 7.6647 16.977 7.99976 16.99V13.5601V13.5699Z" fill="white"/>
<path opacity="0.5" d="M8 5.89014C7.1716 5.89013 6.37699 6.21852 5.79028 6.80334C5.20358 7.38817 4.87276 8.18174 4.87012 9.01013C4.87012 9.84026 5.19988 10.6364 5.78687 11.2234C6.37385 11.8104 7.16987 12.1401 8 12.1401V11.3002C7.6989 11.3015 7.4005 11.2432 7.12207 11.1285C6.84364 11.0139 6.5906 10.8452 6.37769 10.6323C6.16478 10.4194 5.99621 10.1665 5.88159 9.88806C5.76698 9.60963 5.70864 9.31123 5.70996 9.01013C5.70996 8.70987 5.76932 8.41253 5.88452 8.13525C5.99973 7.85798 6.16857 7.60626 6.38135 7.39441C6.59413 7.18256 6.84673 7.01475 7.12451 6.90076C7.40229 6.78677 7.69975 6.72879 8 6.7301C8.5 6.7323 8.73438 6.7301 10.25 6.88013C9.96228 6.57042 9.61423 6.32284 9.22729 6.15259C8.84036 5.98234 8.42272 5.89302 8 5.89014Z" fill="white"/>
</svg>
