<svg xmlns="http://www.w3.org/2000/svg" viewBox="0 0 16 16"><defs><style>.cls-1,.cls-2{fill:#fff;}.cls-1{fill-rule:evenodd;}.cls-2{opacity:0.5;}.cls-3{fill:none;}</style></defs><g id="Layer_2" data-name="Layer 2"><g id="Layer_3" data-name="Layer 3"><path class="cls-1" d="M7.51.49a7,7,0,1,0,7,7A7,7,0,0,0,7.51.49Zm1.93,7a2.14,2.14,0,1,1,2.14,2.13A2.14,2.14,0,0,1,9.44,7.44Zm-2-1.88A2.14,2.14,0,1,1,9.59,3.42,2.14,2.14,0,0,1,7.46,5.56Zm-4,4.11A2.14,2.14,0,1,1,5.58,7.54,2.13,2.13,0,0,1,3.44,9.67Zm4.07-3a.78.78,0,1,0,.77.78A.77.77,0,0,0,7.51,6.71Zm0,2.71a2.14,2.14,0,1,1-2.14,2.13A2.13,2.13,0,0,1,7.56,9.42Z"/><polygon class="cls-2" points="8 16 16 16 15.22 15.39 11 15 8 16"/><rect class="cls-3" width="16" height="16"/></g></g></svg>