<svg width="20" height="20" viewBox="0 0 20 20" fill="none" xmlns="http://www.w3.org/2000/svg">
<path d="M7 15C7 15 6.6 10.4 6.6 9.39999C6.6 6.29999 7.8 4.79999 10 4.79999C12.3 4.79999 13.4 6.19999 13.4 9.29999C13.4 10.2 13 14.9 13 14.9H17C17 14.9 17.5 8.99999 17.5 7.89999C17.5 4.59999 15.6 0.899994 10 0.899994C4.4 0.999994 2.5 4.69999 2.5 7.99999C2.5 9.09999 3 15 3 15H7Z" fill="white"/>
<path opacity="0.5" d="M7 16H3V19H7V16Z" fill="white"/>
<path opacity="0.5" d="M17 16H13V19H17V16Z" fill="white"/>
</svg>
